<svg xmlns="http://www.w3.org/2000/svg" xmlns:xlink="http://www.w3.org/1999/xlink" version="1.1" id="图层_1" x="0px" y="0px" width="27.62400245666504" height="26.5049991607666" viewBox="0.6119973659515381 2.2709999084472656 27.62400245666504 26.5049991607666" enable-background="new 0 0 30 30" xml:space="preserve">
<g>
	<path fill="#0000FF" d="M26.135,13.331c0.277,0,0.459,0.085,0.544,0.256c0.149,0.299,0.347,0.635,0.592,1.008   c0.245,0.374,0.385,0.592,0.416,0.656c0.032,0.064,0.049,0.16,0.049,0.289c0,0.555-0.214,0.832-0.641,0.832   c-0.085,0-0.234-0.043-0.447-0.129c-0.939-0.341-1.889-0.512-2.849-0.512s-1.504,0.032-1.632,0.096   c-0.128,0.064-0.192,0.192-0.192,0.385c-0.043,1.023-0.133,1.871-0.271,2.543c-0.139,0.673-0.208,1.809-0.208,3.408   c0,1.601,0.042,2.699,0.128,3.297c0.085,0.597,0.128,1.056,0.128,1.375c0,0.32-0.027,0.641-0.08,0.961   c-0.054,0.32-0.219,0.48-0.496,0.48s-1.077-0.215-2.399-0.641c-1.323-0.428-2.353-0.844-3.089-1.248   c-0.735-0.406-1.285-0.789-1.647-1.152c-0.363-0.363-0.544-0.607-0.544-0.736c0-0.127,0.063-0.191,0.191-0.191   c0.129,0,0.235,0.021,0.32,0.064c1.344,0.469,2.73,0.703,4.16,0.703c0.683,0,1.093-0.219,1.232-0.656   c0.138-0.437,0.208-1.045,0.208-1.823s-0.049-1.681-0.145-2.704s-0.165-2.176-0.208-3.456c0-0.213-0.054-0.319-0.16-0.319   s-0.815,0.068-2.128,0.207c-1.312,0.139-2.021,0.235-2.128,0.288c-0.106,0.054-0.16,0.112-0.16,0.177   c0,0.063,0.032,0.127,0.097,0.191c0.404,0.363,0.692,0.709,0.863,1.04s0.256,0.726,0.256,1.185s-0.069,0.795-0.208,1.008   s-0.325,0.32-0.56,0.32c-0.726,0-1.739-1.046-3.04-3.137c-0.085-0.148-0.197-0.225-0.336-0.225s-0.48,0.086-1.024,0.257   s-0.848,0.277-0.911,0.319c-0.064,0.043-0.107,0.428-0.129,1.152c-0.021,0.726-0.031,1.516-0.031,2.368   c0,0.854,0.01,1.589,0.031,2.208l0.064,1.568c0,0.298-0.064,0.549-0.192,0.752c-0.128,0.202-0.319,0.304-0.575,0.304   c-0.257,0-0.624-0.203-1.104-0.608c-0.479-0.405-0.72-0.672-0.72-0.8s0.106-0.245,0.319-0.353c0.363-0.191,0.545-0.756,0.545-1.695   l-0.032-2.527V17.33c0-0.191-0.054-0.287-0.16-0.287c-0.064,0-0.219,0.139-0.464,0.416c-0.246,0.277-0.544,0.576-0.896,0.896   c-0.352,0.319-0.763,0.812-1.232,1.472c-0.469,0.662-0.832,1.264-1.088,1.809c-0.256,0.544-0.512,0.816-0.768,0.816   c-0.128,0-0.374-0.107-0.736-0.32c-0.363-0.213-0.709-0.385-1.04-0.512c-0.331-0.129-0.496-0.32-0.496-0.576   s0.181-0.533,0.544-0.832c0.725-0.619,1.637-1.584,2.736-2.896c1.098-1.313,2.234-2.554,3.408-3.728   c0.171-0.17,0.256-0.362,0.256-0.576l0.064-1.152c0-0.213-0.171-0.32-0.512-0.32c-0.342,0-0.582,0.038-0.72,0.112   c-0.139,0.075-0.256,0.112-0.352,0.112c-0.096,0-0.246-0.021-0.448-0.064c-0.203-0.042-0.411-0.064-0.624-0.064H4.791   c-0.256,0-0.491-0.064-0.704-0.192c-0.213-0.128-0.331-0.298-0.352-0.512c-0.107-0.725-0.203-1.232-0.288-1.52   S3.319,8.867,3.319,8.643s0.139-0.469,0.416-0.736s0.512-0.4,0.704-0.4s0.389,0.139,0.592,0.416C5.233,8.2,5.756,8.531,6.599,8.915   c0.842,0.384,1.323,0.576,1.44,0.576s0.176-0.107,0.176-0.32c0.021-1.002,0.08-1.995,0.176-2.976   c0.097-0.981,0.155-1.674,0.177-2.08c0.021-0.405,0.085-0.672,0.191-0.8s0.293-0.192,0.561-0.192c0.267,0,0.618,0.102,1.056,0.304   c0.437,0.203,0.656,0.443,0.656,0.72c0,0.128-0.069,0.293-0.208,0.496c-0.14,0.203-0.229,0.395-0.272,0.576   s-0.063,0.438-0.063,0.768c0,0.331-0.048,0.848-0.145,1.552c-0.096,0.704-0.171,1.483-0.224,2.336   c-0.054,0.854-0.08,1.301-0.08,1.344c0,0.213,0.032,0.32,0.096,0.32c0.064,0,0.176-0.053,0.336-0.16   c0.16-0.106,0.325-0.16,0.496-0.16s0.256,0.107,0.256,0.32c0,0.213-0.182,0.555-0.544,1.024c-0.362,0.47-0.565,0.757-0.607,0.864   c-0.043,0.107-0.064,0.256-0.064,0.448l-0.063,1.631c0,0.193,0.068,0.289,0.208,0.289c0.138,0,0.581-0.069,1.327-0.209   c0.747-0.138,1.377-0.298,1.889-0.479c0.512-0.181,1.136-0.341,1.872-0.48c0.735-0.139,1.925-0.293,3.567-0.464   c0.257-0.042,0.385-0.181,0.385-0.416c0-0.619-0.107-1.056-0.32-1.312c-0.214-0.256-0.405-0.384-0.576-0.384   s-0.31,0.043-0.416,0.128c-1.643,1.216-2.667,1.877-3.072,1.984c-0.49,0.128-0.875,0.267-1.151,0.416   c-0.277,0.149-0.448,0.224-0.513,0.224c-0.319,0-0.479-0.341-0.479-1.024c0-0.32,0.037-0.603,0.112-0.848   c0.074-0.245,0.17-0.421,0.288-0.528c0.116-0.106,0.239-0.16,0.367-0.16h0.353c0.128,0,0.25-0.027,0.368-0.08   c0.116-0.053,0.527-0.314,1.231-0.784c0.704-0.469,1.088-0.736,1.152-0.8c0.063-0.064,0.096-0.139,0.096-0.224   c0-0.085-0.139-0.277-0.416-0.576c-0.277-0.298-0.485-0.533-0.624-0.704s-0.271-0.256-0.399-0.256s-0.433,0.198-0.912,0.592   c-0.48,0.395-0.859,0.592-1.137,0.592c-0.191,0-0.287-0.16-0.287-0.48s0.196-0.827,0.592-1.52c0.395-0.693,0.906-1.376,1.536-2.048   c0.629-0.672,1.322-1.371,2.08-2.096c0.757-0.725,1.258-1.088,1.504-1.088c0.244,0,0.592,0.24,1.04,0.72   c0.447,0.48,0.788,0.88,1.023,1.2c0.49,0.704,1.024,1.136,1.601,1.296c0.575,0.16,1.104,0.422,1.584,0.784   c0.479,0.363,0.72,0.64,0.72,0.832s-0.128,0.363-0.384,0.512c-0.96,0.533-1.819,1.029-2.576,1.488   c-0.758,0.459-1.174,0.736-1.248,0.832c-0.075,0.096-0.096,0.229-0.064,0.4c0.032,0.171,0.069,0.501,0.112,0.992   c0,0.192,0.106,0.299,0.32,0.32c0.426,0.021,0.725,0.085,0.896,0.192c0.171,0.107,0.256,0.299,0.256,0.576l-0.031,0.512   c0,0.277,0.159,0.395,0.479,0.352C24.428,13.48,25.708,13.331,26.135,13.331z M20.183,7.123c0-0.555-0.171-0.832-0.512-0.832   c-0.214,0-0.56,0.107-1.04,0.32C18.151,6.824,17.82,7,17.639,7.139s-0.271,0.272-0.271,0.4s0.16,0.352,0.479,0.672   c0.32,0.32,0.608,0.48,0.864,0.48s0.565-0.187,0.928-0.56C20.002,7.757,20.183,7.421,20.183,7.123z" stroke-width="1"/>
</g>
</svg>