<svg xmlns="http://www.w3.org/2000/svg" xmlns:xlink="http://www.w3.org/1999/xlink" version="1.1" id="图层_1" x="0px" y="0px" width="24.295000076293945" height="28.10199737548828" viewBox="2.595000982284546 2.431000232696533 24.295000076293945 28.10199737548828" enable-background="new 0 0 30 30" xml:space="preserve">
<g>
	<path fill="#0000FF" d="M9.751,13.875c0,1.237-0.229,2.603-0.688,4.096c-0.46,1.493-0.982,2.587-1.568,3.279   c-0.587,0.693-0.998,1.244-1.232,1.648c-0.235,0.406-0.443,0.607-0.624,0.607c-0.182,0-0.331-0.047-0.448-0.144   c-0.117-0.096-0.331-0.378-0.64-0.848s-0.576-0.949-0.8-1.44c-0.224-0.49-0.39-0.943-0.496-1.359   c-0.107-0.416-0.16-1.146-0.16-2.192c0-1.045,0.218-2.32,0.656-3.824c0.437-1.504,0.741-2.405,0.912-2.704   c0.17-0.299,0.325-0.448,0.464-0.448c0.139,0,0.25,0.021,0.336,0.064c0.363,0.192,0.853,0.406,1.472,0.64   c0.213,0.085,0.32,0.203,0.32,0.352c0,0.149-0.246,0.448-0.736,0.896c-0.811,0.768-1.44,1.803-1.888,3.104   c-0.448,1.302-0.672,2.224-0.672,2.769c0,0.543,0.101,0.934,0.304,1.168c0.202,0.234,0.506,0.352,0.912,0.352   s0.864-0.262,1.376-0.784c0.512-0.522,0.912-1.034,1.2-1.536c0.288-0.501,0.784-1.723,1.488-3.664   c0.106-0.299,0.218-0.448,0.336-0.448C9.692,13.458,9.751,13.598,9.751,13.875z M7.191,3.314c0.148,0,0.298,0.123,0.447,0.368   c0.149,0.246,0.485,0.603,1.009,1.072c0.522,0.47,0.938,0.95,1.247,1.44c0.31,0.491,0.465,0.896,0.465,1.216   c0,0.32-0.06,0.518-0.177,0.592c-0.117,0.075-0.314,0.112-0.592,0.112L8.695,8.083c-0.3,0-0.779-0.229-1.44-0.688   C6.593,6.936,6.263,6.472,6.263,6.002c0-0.128,0.01-0.234,0.032-0.32c0.277-0.832,0.442-1.435,0.496-1.808   C6.844,3.501,6.978,3.314,7.191,3.314z M24.919,20.179c0.277,0,0.496,0.048,0.656,0.144s0.336,0.385,0.527,0.864   c0.192,0.479,0.288,0.849,0.288,1.104s-0.117,0.383-0.352,0.383c-0.107,0-0.235-0.025-0.384-0.079   c-0.149-0.054-0.438-0.112-0.864-0.177c-0.427-0.063-0.816-0.096-1.168-0.096c-0.353,0-0.869-0.068-1.552-0.207   c-0.684-0.139-1.468-0.209-2.353-0.209c-0.886,0-1.381,0.021-1.487,0.064c-0.107,0.043-0.198,0.166-0.272,0.367   c-0.075,0.203-0.144,0.646-0.208,1.328c-0.064,0.684-0.096,1.584-0.096,2.705c0,1.119,0.031,1.877,0.096,2.271   s0.096,0.693,0.096,0.896c0,0.201-0.063,0.336-0.191,0.4c-0.128,0.063-0.385,0.096-0.769,0.096c-0.598,0-0.843-0.332-0.735-0.992   c0.021-0.172,0.031-0.752,0.031-1.744s-0.005-2.027-0.016-3.104s-0.027-1.669-0.048-1.776c-0.021-0.105-0.06-0.186-0.112-0.239   c-0.054-0.054-0.134-0.08-0.24-0.08c-0.128,0-1.071,0.159-2.832,0.479c-1.76,0.32-2.725,0.533-2.896,0.641s-0.342,0.16-0.512,0.16   c-0.171,0-0.336-0.182-0.496-0.545c-0.16-0.361-0.24-0.618-0.24-0.768c0-0.148,0.133-0.225,0.4-0.225   c0.266,0,0.842-0.105,1.728-0.319c0.885-0.213,1.707-0.437,2.464-0.672c0.757-0.234,1.467-0.416,2.128-0.544   c0.277-0.043,0.416-0.148,0.416-0.32c0-0.533-0.234-0.8-0.704-0.8c-0.171,0-0.293,0.032-0.367,0.097   c-0.075,0.063-0.155,0.096-0.24,0.096c-0.235,0-0.604-0.32-1.104-0.961c-0.501-0.64-0.843-1.338-1.023-2.096   c-0.182-0.757-0.272-1.242-0.272-1.456s0.16-0.4,0.48-0.56c0.319-0.16,1.205-0.384,2.655-0.672   c1.451-0.288,2.688-0.432,3.713-0.432c1.023,0,1.685,0.048,1.983,0.144c0.299,0.096,0.683,0.283,1.152,0.56   c0.469,0.277,0.778,0.523,0.928,0.736c0.149,0.213,0.224,0.368,0.224,0.464c0,0.096-0.043,0.166-0.128,0.208   c-0.447,0.277-0.815,0.678-1.104,1.2s-0.518,0.907-0.688,1.151c-0.171,0.246-0.341,0.592-0.512,1.041   c-0.043,0.127-0.139,0.203-0.288,0.224c-0.149,0.021-0.565,0.063-1.248,0.128c-0.256,0.021-0.438,0.123-0.544,0.304   c-0.106,0.182-0.16,0.337-0.16,0.464c0,0.129,0.117,0.192,0.353,0.192c1.364,0,2.362,0.011,2.992,0.032   c0.629,0.021,1.076,0.053,1.344,0.096c0.267,0.043,0.527,0.054,0.784,0.032H24.919z M24.663,8.499c0,0.107-0.091,0.251-0.272,0.432   c-0.181,0.181-0.352,0.443-0.512,0.784c-0.16,0.342-0.501,0.854-1.023,1.536c-0.523,0.683-0.912,1.056-1.169,1.12   c-0.256,0.064-0.597,0.064-1.023,0s-0.949-0.096-1.568-0.096s-1.487,0.08-2.607,0.24c-1.12,0.16-1.824,0.299-2.112,0.416   s-0.475,0.176-0.56,0.176c-0.534,0-1.089-0.528-1.664-1.584c-0.576-1.056-0.864-1.84-0.864-2.352c0-0.213,0.059-0.384,0.176-0.512   s0.277-0.197,0.48-0.208c0.202-0.011,0.389-0.016,0.56-0.016s0.496-0.053,0.976-0.16c0.48-0.106,0.753-0.197,0.816-0.272   c0.064-0.074,0.106-0.224,0.128-0.448c0.021-0.224,0.096-0.405,0.225-0.544c0.128-0.139,0.437-0.208,0.928-0.208   c0.49,0,0.864,0.117,1.12,0.352c0.256,0.235,0.447,0.331,0.575,0.288l0.608-0.16c0.234-0.042,0.353-0.171,0.353-0.384l0.031-0.768   c0-0.213-0.106-0.32-0.319-0.32l-1.408,0.064c-0.854,0-1.414,0.059-1.68,0.176c-0.268,0.118-0.48,0.176-0.641,0.176   s-0.283-0.096-0.368-0.288c-0.191-0.469-0.357-0.8-0.496-0.992c-0.139-0.192-0.208-0.341-0.208-0.448   c0-0.277,0.229-0.432,0.688-0.464c0.458-0.032,1.392-0.224,2.8-0.576s2.613-0.528,3.616-0.528c0.533,0,0.88,0.064,1.04,0.192   s0.24,0.395,0.24,0.8c0,0.406-0.112,0.699-0.336,0.88c-0.225,0.181-0.528,0.315-0.912,0.4c-0.149,0.043-0.225,0.149-0.225,0.32   c0,0.085,0.069,0.235,0.208,0.448s0.24,0.448,0.305,0.704c0.063,0.256,0.202,0.395,0.416,0.416c1.749,0.278,2.8,0.534,3.151,0.768   C24.487,8.094,24.663,8.307,24.663,8.499z M14.999,10.931c0-0.213-0.054-0.48-0.16-0.8c-0.106-0.32-0.197-0.539-0.271-0.656   c-0.075-0.117-0.188-0.176-0.336-0.176c-0.15,0-0.337,0.075-0.561,0.224c-0.224,0.149-0.336,0.342-0.336,0.576   c0,0.235,0.064,0.512,0.192,0.832c0.128,0.32,0.341,0.48,0.64,0.48C14.722,11.411,14.999,11.25,14.999,10.931z M15.639,18.066   c0.085,0,0.4-0.053,0.944-0.16c0.544-0.106,1.109-0.197,1.696-0.271c0.586-0.074,0.965-0.176,1.136-0.305   c0.171-0.127,0.309-0.373,0.416-0.735c0.106-0.362,0.16-0.736,0.16-1.12c0-0.853-0.565-1.28-1.696-1.28   c-0.342,0-1.003,0.134-1.984,0.4s-1.567,0.469-1.76,0.608c-0.191,0.139-0.288,0.368-0.288,0.688c0,0.555,0.102,1.056,0.305,1.504   C14.77,17.842,15.127,18.066,15.639,18.066z M18.871,15.635c0,0.149-0.043,0.325-0.128,0.527c-0.086,0.203-0.182,0.348-0.288,0.433   c-0.107,0.085-0.379,0.171-0.816,0.256s-0.875,0.128-1.312,0.128c-0.438,0-0.731-0.053-0.88-0.16   c-0.149-0.106-0.225-0.373-0.225-0.8c0-0.192,0.075-0.298,0.225-0.319c0.618-0.129,1.099-0.262,1.439-0.401   c0.341-0.138,0.683-0.208,1.024-0.208C18.551,15.09,18.871,15.272,18.871,15.635z M16.759,10.931c0.149,0,0.32-0.048,0.512-0.144   c0.192-0.096,0.363-0.453,0.513-1.072c0.148-0.618,0.224-1.019,0.224-1.2s-0.048-0.272-0.144-0.272   c-0.097,0-0.277,0.037-0.544,0.112c-0.268,0.075-0.433,0.123-0.496,0.144c-0.299,0.064-0.448,0.565-0.448,1.504   c0,0.363,0.032,0.608,0.096,0.736C16.535,10.867,16.631,10.931,16.759,10.931z M19.863,10.803c0.683,0,1.099-0.224,1.248-0.672   c0.148-0.448,0.224-0.789,0.224-1.024c0-0.234-0.075-0.426-0.224-0.576c-0.149-0.149-0.305-0.224-0.464-0.224   c-0.16,0-0.288,0.048-0.385,0.144c-0.096,0.096-0.271,0.438-0.527,1.024c-0.257,0.587-0.385,0.955-0.385,1.104   C19.351,10.728,19.521,10.803,19.863,10.803z" stroke-width="1"/>
</g>
</svg>