<svg xmlns="http://www.w3.org/2000/svg" xmlns:xlink="http://www.w3.org/1999/xlink" version="1.1" id="图层_1" x="0px" y="0px" width="22.885997772216797" height="29.35300064086914" viewBox="2.8850021362304688 0.1270008683204651 22.885997772216797 29.35300064086914" enable-background="new 0 0 30 30" xml:space="preserve">
<g>
	<path fill="#0000FF" d="M25.271,5.106c0,0.149-0.106,0.363-0.319,0.64c-0.214,0.277-0.608,0.949-1.185,2.016   C23.191,8.83,22.85,9.432,22.743,9.57c-0.107,0.139-0.24,0.208-0.4,0.208s-0.325-0.042-0.496-0.128   c-0.938-0.448-2.229-0.672-3.872-0.672c-0.854,0-1.478,0.038-1.872,0.112c-0.395,0.075-0.592,0.166-0.592,0.272   c0,0.086,0.145,0.288,0.433,0.608c0.288,0.32,0.527,0.629,0.72,0.928c0.192,0.299,0.288,0.587,0.288,0.864l-0.032,0.448   c0,0.213,0.234,0.342,0.704,0.384c1.344,0.149,2.32,0.299,2.928,0.448c0.608,0.149,1.194,0.384,1.76,0.704s0.886,0.523,0.96,0.608   c0.075,0.085,0.112,0.203,0.112,0.352c0,0.299-0.203,0.56-0.607,0.784c-0.406,0.224-0.849,0.794-1.328,1.712   c-0.48,0.917-0.998,1.615-1.553,2.096c-0.555,0.479-0.831,0.826-0.831,1.039c0,0.215,0.058,0.471,0.176,0.769   c0.117,0.3,0.176,0.598,0.176,0.896c0,0.619-0.32,0.929-0.96,0.929l-1.952-0.192c-0.32,0-0.72,0.197-1.2,0.592   c-0.479,0.396-0.858,0.785-1.136,1.168c-0.235,0.277-0.651,0.635-1.248,1.072c-0.598,0.438-0.992,0.773-1.184,1.008   c-0.192,0.234-0.353,0.592-0.48,1.072s-0.405,0.736-0.832,0.768c-0.427,0.033-0.912,0.133-1.456,0.305   c-0.544,0.17-1.189,0.256-1.936,0.256s-1.44-0.053-2.08-0.16c-0.64-0.107-1.062-0.197-1.264-0.271   c-0.203-0.076-0.304-0.176-0.304-0.305c0-0.234,0.373-0.447,1.12-0.641c0.747-0.191,2-0.677,3.76-1.455   c1.761-0.779,3.189-1.664,4.288-2.656s1.648-1.584,1.648-1.775c0-0.043-0.235-0.336-0.704-0.881   c-0.47-0.543-0.704-1.168-0.704-1.871c0-0.256,0.08-0.641,0.24-1.152s0.276-0.811,0.352-0.896c0.074-0.084,0.208-0.127,0.4-0.127   c0.191,0,0.448,0.133,0.768,0.399c0.32,0.267,0.667,0.454,1.04,0.56c0.373,0.107,0.656,0.219,0.849,0.336   c0.191,0.118,0.319,0.176,0.384,0.176c0.148,0,0.368-0.256,0.655-0.768c0.288-0.512,0.433-0.906,0.433-1.184   c0-0.555-0.502-0.832-1.504-0.832c-1.813,0-3.776,0.736-5.889,2.208c-0.405,0.277-0.768,0.416-1.088,0.416   c-0.319,0-0.56-0.075-0.72-0.224c-0.16-0.149-0.24-0.379-0.24-0.688s0.139-0.592,0.416-0.849c2.112-1.898,3.595-3.583,4.448-5.055   c0.213-0.341,0.384-0.597,0.512-0.768c0.128-0.17,0.192-0.304,0.192-0.4c0-0.096-0.043-0.187-0.128-0.272   c-0.086-0.085-0.208-0.128-0.368-0.128s-0.651,0.15-1.472,0.448c-0.822,0.299-1.382,0.544-1.681,0.736   c-0.234,0.213-0.427,0.32-0.575,0.32c-0.15,0-0.416-0.139-0.801-0.416c-0.384-0.277-0.629-0.544-0.735-0.8   C8.172,9.747,7.932,9.406,7.559,8.979c-0.373-0.426-0.56-1.024-0.56-1.792c0-0.448,0.096-0.912,0.288-1.392   c0.191-0.48,0.442-0.72,0.752-0.72c0.309,0,0.672,0.064,1.088,0.192S9.751,5.57,9.751,5.794S9.66,6.264,9.479,6.531   c-0.181,0.267-0.271,0.56-0.271,0.88c0,0.32,0.112,0.544,0.336,0.672s0.421,0.192,0.592,0.192s0.721-0.128,1.648-0.384   c0.928-0.256,1.466-0.405,1.616-0.448c0.148-0.042,0.224-0.277,0.224-0.704c0-1.45,0.085-2.544,0.256-3.28s0.288-1.435,0.353-2.096   c0.042-0.49,0.276-0.736,0.703-0.736c0.513,0,0.992,0.096,1.44,0.288s0.741,0.326,0.88,0.4c0.139,0.075,0.208,0.208,0.208,0.4   c0,0.192-0.106,0.56-0.32,1.104c-0.213,0.544-0.362,1.2-0.447,1.968c-0.086,0.768-0.128,1.291-0.128,1.568   c0,0.277,0.159,0.416,0.479,0.416c0.49,0,0.938,0.011,1.344,0.032l1.12,0.096c0.234,0,0.453-0.053,0.656-0.16   c0.202-0.106,0.512-0.394,0.928-0.864c0.416-0.469,0.683-0.832,0.8-1.088s0.294-0.512,0.528-0.768s0.507-0.384,0.816-0.384   c0.309,0,0.586,0.118,0.832,0.352c0.245,0.235,0.549,0.459,0.912,0.672C25.175,4.787,25.271,4.936,25.271,5.106z" stroke-width="1"/>
</g>
</svg>