<svg xmlns="http://www.w3.org/2000/svg" xmlns:xlink="http://www.w3.org/1999/xlink" version="1.1" id="图层_1" x="0px" y="0px" width="27.847999572753906" height="24.679000854492188" viewBox="2.883999824523926 3.11899995803833 27.847999572753906 24.679000854492188" enable-background="new 0 0 30 30" xml:space="preserve">
<g>
	<path fill="#0000FF" d="M30.232,26.115c0,0.148-0.476,0.384-1.425,0.704c-0.949,0.319-1.898,0.479-2.848,0.479   s-1.686-0.026-2.208-0.08c-0.523-0.054-0.859-0.08-1.008-0.08l-1.056,0.064c-0.192,0-0.342-0.038-0.448-0.112   c-0.107-0.075-0.235-0.219-0.384-0.432c-1.11-1.75-2.636-2.624-4.576-2.624c-1.067,0-2.225-0.256-3.473-0.769   c-1.248-0.512-2.438-0.768-3.567-0.768c-1.131,0-2.075,0.043-2.832,0.128C5.65,22.713,5.181,22.818,5,22.947   c-0.182,0.128-0.336,0.191-0.464,0.191s-0.352-0.266-0.672-0.8c-0.32-0.532-0.48-0.912-0.48-1.136c0-0.225,0.117-0.336,0.352-0.336   s0.448,0.021,0.64,0.064s0.395,0.063,0.608,0.063c0.213,0,0.715-0.048,1.504-0.144c0.789-0.097,1.184-0.197,1.184-0.305   c0-0.106-0.064-0.234-0.192-0.384c-0.768-0.96-1.206-2.165-1.312-3.616c-0.085-1.002-0.256-1.685-0.512-2.048   c-0.064-0.085-0.096-0.176-0.096-0.272s0.059-0.234,0.176-0.416c0.117-0.181,0.277-0.272,0.48-0.272s0.597,0.107,1.184,0.32   c0.586,0.213,0.88,0.4,0.88,0.56s-0.054,0.32-0.16,0.48c-0.107,0.16-0.208,0.459-0.304,0.896c-0.096,0.438-0.144,0.848-0.144,1.232   c0,0.896,0.314,1.723,0.944,2.479c0.629,0.758,1.188,1.136,1.68,1.136c0.555,0.043,1.185,0.214,1.888,0.512   c1.941,0.832,3.393,1.334,4.353,1.505c2.091,0.384,3.647,0.811,4.672,1.28c0.234,0.106,0.458,0.181,0.672,0.224l3.424,0.448   c1.664,0.191,2.901,0.453,3.712,0.783C29.826,25.726,30.232,25.966,30.232,26.115z M6.2,6.755c0.128,0,0.266,0.128,0.416,0.384   c0.49,0.854,1.205,1.622,2.144,2.304C8.909,9.55,8.984,9.699,8.984,9.891s-0.075,0.374-0.225,0.544   c-0.149,0.171-0.341,0.256-0.576,0.256c-0.234,0-0.469-0.064-0.704-0.192c-0.235-0.128-0.565-0.208-0.992-0.24   c-0.427-0.032-0.677-0.08-0.752-0.144c-0.075-0.064-0.149-0.272-0.224-0.624C5.437,9.139,5.4,8.729,5.4,8.259   c0-0.469,0.091-0.837,0.272-1.104C5.853,6.889,6.029,6.755,6.2,6.755z M21.336,3.619c0.213,0,0.395,0.043,0.544,0.128   c0.149,0.085,0.357,0.341,0.624,0.768s0.48,0.795,0.64,1.104c0.16,0.31,0.267,0.571,0.32,0.784c0.053,0.214,0.08,0.459,0.08,0.736   s-0.112,0.416-0.336,0.416s-0.443-0.011-0.656-0.032c-0.213-0.021-0.416-0.032-0.607-0.032c-0.192,0-0.556,0.107-1.088,0.32   c-0.534,0.213-0.892,0.395-1.072,0.544c-0.182,0.149-0.368,0.395-0.561,0.736l-0.512,0.992c-0.149,0.277-0.224,0.576-0.224,0.896   l0.031,1.12c0,0.512-0.031,1.072-0.096,1.68c-0.063,0.608-0.106,1.419-0.128,2.432c-0.021,1.014-0.032,1.766-0.032,2.256   l0.032,1.28c0,0.362-0.037,0.613-0.112,0.752c-0.074,0.14-0.256,0.267-0.544,0.384s-0.512,0.176-0.672,0.176   s-0.325-0.101-0.496-0.304c-0.171-0.202-0.256-0.362-0.256-0.479s0.026-0.229,0.08-0.336c0.053-0.107,0.08-0.229,0.08-0.369   c0-0.138-0.011-0.324-0.032-0.559l-0.319-5.121c-0.021-0.234-0.086-0.352-0.192-0.352c-0.107,0-0.411,0.267-0.912,0.8   c-0.501,0.534-1.019,1.189-1.552,1.968c-0.533,0.779-0.886,1.222-1.057,1.328c-0.171,0.107-0.384,0.16-0.64,0.16   c-0.96,0-1.439-0.128-1.439-0.384c0-0.128,0.138-0.353,0.416-0.673c0.938-1.066,1.93-2.356,2.976-3.871   c1.045-1.515,1.68-2.571,1.904-3.168c0.224-0.597,0.336-0.971,0.336-1.12c0-0.32-0.438-0.48-1.313-0.48   c-0.512,0-0.896,0.149-1.151,0.448c-0.342,0.363-0.593,0.544-0.752,0.544c-0.16,0-0.396-0.48-0.704-1.44   c-0.31-0.96-0.464-1.563-0.464-1.808c0-0.245,0.096-0.421,0.287-0.528c0.192-0.106,0.501-0.17,0.929-0.192   c2.815-0.149,5.45-0.608,7.903-1.376C20.877,3.662,21.122,3.619,21.336,3.619z M20.504,14.051c0.277,0,0.986,0.246,2.128,0.736   s1.818,0.838,2.032,1.04c0.213,0.202,0.32,0.587,0.32,1.151c0,0.566-0.128,1.109-0.385,1.633c-0.256,0.522-0.485,0.783-0.688,0.783   c-0.203,0-0.432-0.213-0.688-0.64c-0.704-1.237-1.535-2.336-2.496-3.296c-0.447-0.448-0.672-0.794-0.672-1.04   C20.056,14.174,20.205,14.051,20.504,14.051z" stroke-width="1"/>
</g>
</svg>