<svg xmlns="http://www.w3.org/2000/svg" xmlns:xlink="http://www.w3.org/1999/xlink" version="1.1" id="图层_1" x="0px" y="0px" width="26.377002716064453" height="28.264999389648438" viewBox="2.017997980117798 -0.2260001003742218 26.377002716064453 28.264999389648438" enable-background="new 0 0 30 30" xml:space="preserve">
<g>
	<path fill="#0000FF" d="M20.375,13.362c0.213,0,0.501,0.358,0.864,1.072c0.362,0.715,0.544,1.2,0.544,1.456   s-0.171,0.384-0.513,0.384c-0.128,0-0.352-0.037-0.672-0.112c-0.319-0.074-0.885-0.111-1.695-0.111   c-1.238,0-2.16,0.111-2.769,0.336c-0.607,0.224-1.194,0.4-1.76,0.527c-0.565,0.129-0.891,0.225-0.976,0.289   c-0.086,0.063-0.15,0.159-0.192,0.287c-0.214,0.726-0.507,1.36-0.88,1.904c-0.374,0.544-0.88,1.062-1.521,1.552   c-0.64,0.491-1.056,0.875-1.248,1.152c-0.191,0.277-0.288,0.618-0.288,1.024c-0.021,0.512-0.181,0.842-0.479,0.992   c-0.342,0.191-0.656,0.389-0.944,0.592c-0.288,0.202-0.944,0.437-1.968,0.703c-1.024,0.268-1.84,0.4-2.448,0.4   c-0.608,0-0.912-0.059-0.912-0.176s0.085-0.256,0.256-0.416c0.17-0.16,0.784-0.598,1.84-1.313c1.056-0.715,1.829-1.211,2.32-1.488   c1.386-0.832,2.389-1.748,3.008-2.752c0.618-1.002,0.928-1.594,0.928-1.775s-0.064-0.271-0.192-0.271s-0.709,0.096-1.744,0.287   c-1.034,0.192-1.839,0.47-2.416,0.832c-0.128,0.064-0.246,0.096-0.352,0.096c-0.256,0-0.475-0.213-0.656-0.64   c-0.182-0.427-0.272-0.725-0.272-0.896s0.037-0.267,0.112-0.288c0.074-0.021,0.282-0.032,0.624-0.032   c0.341,0,0.97-0.154,1.888-0.464c0.917-0.31,1.717-0.56,2.399-0.752s1.131-0.336,1.345-0.432c0.213-0.096,0.319-0.421,0.319-0.976   c0-0.213-0.096-0.32-0.288-0.32c-0.191,0-0.619,0.064-1.279,0.192c-0.662,0.128-1.067,0.235-1.217,0.32   c-0.149,0.085-0.299,0.128-0.447,0.128c-0.149,0-0.32-0.181-0.513-0.544c-0.191-0.362-0.288-0.634-0.288-0.816   c0-0.181,0.107-0.293,0.32-0.336c0.641-0.064,1.408-0.267,2.304-0.608c0.342-0.149,0.747-0.299,1.217-0.448   c0.298-0.106,0.447-0.298,0.447-0.576c0-0.533-0.159-0.768-0.479-0.704c-0.427,0.128-0.864,0.219-1.313,0.272   c-0.447,0.054-0.73,0.123-0.848,0.208c-0.117,0.085-0.219,0.128-0.304,0.128c-0.299,0-0.636-0.267-1.008-0.8   C7.857,9.917,7.671,9.534,7.671,9.298c0-0.234,0.145-0.352,0.432-0.352c0.288,0,1.137-0.202,2.545-0.608   c1.407-0.405,2.309-0.736,2.703-0.992c0.395-0.256,1.109-1.019,2.145-2.288c1.034-1.269,2.021-2.747,2.96-4.432   c0.148-0.234,0.32-0.352,0.512-0.352c0.192,0,0.331,0.048,0.416,0.144c0.085,0.096,0.251,0.251,0.496,0.464   c0.245,0.214,0.368,0.432,0.368,0.656s-0.123,0.427-0.368,0.608c-0.245,0.182-0.912,0.965-2,2.352   c-1.088,1.387-1.632,2.102-1.632,2.144c0,0.085,0.128,0.107,0.384,0.064c1.045-0.17,1.803-0.256,2.272-0.256   c0.469,0,0.757,0.059,0.863,0.176c0.106,0.118,0.16,0.357,0.16,0.72s-0.191,0.619-0.576,0.768l-3.68,1.344   c-0.192,0.064-0.325,0.203-0.4,0.416c-0.074,0.213-0.111,0.416-0.111,0.608s0.032,0.288,0.096,0.288   c0.064,0,0.128-0.01,0.192-0.032c2.005-0.597,3.179-0.896,3.52-0.896s0.512,0.224,0.512,0.672c0,0.448-0.074,0.757-0.224,0.928   c-0.149,0.171-0.565,0.406-1.248,0.704c-0.683,0.299-1.707,0.693-3.072,1.184c-0.213,0.064-0.379,0.229-0.495,0.496   c-0.118,0.267-0.177,0.459-0.177,0.576c0,0.118,0.054,0.176,0.16,0.176s0.213-0.011,0.32-0.032   c1.877-0.512,3.194-0.811,3.952-0.896c0.757-0.085,1.199-0.154,1.328-0.208C20.151,13.39,20.268,13.362,20.375,13.362z    M9.879,2.323c0.149,0,0.517,0.213,1.104,0.64c0.586,0.427,1.056,0.795,1.407,1.104c0.353,0.31,0.598,0.582,0.736,0.816   c0.139,0.235,0.208,0.459,0.208,0.672s-0.069,0.395-0.208,0.544c-0.139,0.149-0.315,0.224-0.528,0.224   c-0.811,0-1.354-0.053-1.632-0.16c-0.277-0.192-0.555-0.32-0.832-0.384S9.66,5.501,9.543,5.139S9.367,4.146,9.367,3.25   C9.367,2.632,9.537,2.323,9.879,2.323z M27.895,25.619c0,0.66-0.063,1.066-0.191,1.215c-0.128,0.149-0.838,0.305-2.128,0.465   c-1.291,0.16-2.955,0.24-4.992,0.24s-3.211-0.027-3.52-0.08c-0.31-0.055-0.742-0.391-1.297-1.008   c-0.555-0.619-0.96-1.265-1.216-1.937c-0.256-0.673-0.384-1.413-0.384-2.224s0.016-1.681,0.048-2.608   c0.032-0.929,0.112-1.509,0.24-1.744c0.128-0.234,0.362-0.353,0.704-0.353c0.341,0,0.635,0.049,0.88,0.145s0.368,0.229,0.368,0.4   s-0.091,0.363-0.272,0.576s-0.331,0.688-0.448,1.424s-0.176,1.307-0.176,1.711c0,1.089,0.331,1.867,0.992,2.337   c0.661,0.469,1.898,0.704,3.712,0.704s3.093-0.155,3.84-0.465c0.747-0.309,1.253-1.076,1.521-2.303   c0.267-1.227,0.399-2.385,0.399-3.473c0-0.277,0.054-0.416,0.16-0.416c0.171,0,0.438,0.523,0.8,1.568   c0.363,1.045,0.544,2.08,0.544,3.104c0,0.149,0.069,0.523,0.208,1.12S27.895,25.148,27.895,25.619z" stroke-width="1"/>
</g>
</svg>