<svg xmlns="http://www.w3.org/2000/svg" xmlns:xlink="http://www.w3.org/1999/xlink" version="1.1" id="图层_1" x="0px" y="0px" width="26.634002685546875" height="22.409000396728516" viewBox="1.8889985084533691 4.733999729156494 26.634002685546875 22.409000396728516" enable-background="new 0 0 30 30" xml:space="preserve">
<g>
	<path fill="#0000FF" d="M22.327,7.634c0,0.171-0.171,0.384-0.512,0.64c-0.342,0.256-0.678,0.694-1.009,1.312   c-0.331,0.619-0.795,1.27-1.392,1.952c-0.256,0.299-0.432,0.533-0.528,0.704c-0.096,0.171-0.149,0.363-0.16,0.576   c-0.011,0.214-0.016,0.438-0.016,0.672s-0.037,0.395-0.112,0.48c-0.074,0.085-0.373,0.128-0.896,0.128   c-0.523,0-1.126,0.043-1.809,0.128c-0.683,0.085-1.109,0.176-1.279,0.272c-0.171,0.096-0.422,0.315-0.752,0.656   c-0.331,0.342-0.593,0.704-0.784,1.088c-0.684,1.43-1.216,2.406-1.601,2.928c-0.384,0.523-0.938,1.104-1.663,1.744   c-0.726,0.641-1.212,1.088-1.456,1.344c-0.246,0.257-0.416,0.614-0.513,1.072c-0.096,0.459-0.239,0.748-0.432,0.864   c-0.192,0.117-0.672,0.341-1.44,0.673c-0.768,0.33-1.296,0.495-1.584,0.495s-0.694-0.043-1.216-0.128   c-0.523-0.086-0.784-0.188-0.784-0.304c0-0.118,0.154-0.294,0.464-0.528c0.309-0.234,1.189-0.752,2.64-1.552   c1.45-0.8,2.72-2.177,3.808-4.128c1.088-1.952,1.632-3.099,1.632-3.44c0-0.107-0.091-0.16-0.271-0.16   c-0.182,0-0.342-0.064-0.48-0.192s-0.485-0.645-1.04-1.552c-0.555-0.906-1.088-2.074-1.6-3.504   C7.031,8.445,6.775,7.608,6.775,7.362c0-0.245,0.16-0.4,0.48-0.464c0.32-0.064,0.917-0.096,1.792-0.096   c0.341,0,0.938-0.128,1.792-0.384c2.561-0.789,4.555-1.184,5.984-1.184c1.066,0,2.25,0.304,3.552,0.912   C21.676,6.754,22.327,7.25,22.327,7.634z M11.959,12.146c0.448,0,1.194-0.112,2.24-0.336c1.045-0.224,1.69-0.416,1.936-0.576   c0.245-0.16,0.48-0.512,0.704-1.056c0.225-0.544,0.336-1.029,0.336-1.456S17.1,7.998,16.951,7.827   c-0.149-0.17-0.459-0.256-0.928-0.256c-0.47,0-1.382,0.166-2.736,0.496c-1.355,0.331-2.149,0.576-2.384,0.736   c-0.235,0.16-0.353,0.379-0.353,0.656c0,0.277,0.037,0.715,0.112,1.312c0.074,0.598,0.224,0.976,0.448,1.136   C11.335,12.066,11.617,12.146,11.959,12.146z M25.239,16.851c0.085,0,0.187,0.096,0.304,0.288c0.117,0.191,0.384,0.747,0.8,1.664   c0.416,0.918,0.8,2.149,1.152,3.695c0.352,1.547,0.528,2.453,0.528,2.721c0,0.266-0.15,0.459-0.448,0.576   c-0.299,0.117-1.547,0.287-3.744,0.512s-3.766,0.336-4.704,0.336s-1.579-0.075-1.92-0.225c-0.342-0.148-0.789-0.501-1.344-1.056   c-0.556-0.555-0.944-1.104-1.168-1.647c-0.225-0.545-0.336-1.2-0.336-1.969c0-0.768,0.074-1.658,0.224-2.672   c0.149-1.013,0.224-1.637,0.224-1.871l-0.096-1.024c0-0.384,0.256-0.576,0.768-0.576c0.299,0,0.63,0.06,0.992,0.176   c0.362,0.118,0.544,0.272,0.544,0.464c0,0.086-0.031,0.172-0.096,0.256c-0.256,0.363-0.479,1.201-0.672,2.513   s-0.288,2.251-0.288,2.815c0,0.566,0.101,1.035,0.304,1.408s0.48,0.619,0.832,0.736c0.353,0.117,0.981,0.176,1.889,0.176   c0.906,0,1.877-0.068,2.911-0.208c1.035-0.139,1.749-0.31,2.145-0.512c0.395-0.202,0.677-0.613,0.848-1.232   c0.171-0.618,0.256-1.524,0.256-2.72l-0.063-2.208C25.079,16.99,25.132,16.851,25.239,16.851z" stroke-width="1"/>
</g>
</svg>