<svg xmlns="http://www.w3.org/2000/svg" xmlns:xlink="http://www.w3.org/1999/xlink" version="1.1" id="图层_1" x="0px" y="0px" width="22.440998077392578" height="26.535001754760742" viewBox="2.449000835418701 1.4330005645751953 22.440998077392578 26.535001754760742" style="enable-background:new 0 0 30 30;" xml:space="preserve">
  <g>
    <g>
      <path style="fill:#0000FF;" d="M14.086,7.405c0,0.448-0.182,0.87-0.544,1.264c-0.363,0.395-1.248,0.987-2.656,1.776&#13;&#10;&#9;&#9;c-0.319,0.192-0.479,0.454-0.479,0.784c0,0.331,0.096,0.56,0.288,0.688c0.191,0.128,0.576,0.235,1.151,0.32&#13;&#10;&#9;&#9;c0.299,0.043,0.448,0.176,0.448,0.4s-0.182,0.491-0.544,0.8c-0.363,0.31-0.731,0.464-1.104,0.464c-0.374,0-0.726-0.085-1.057-0.256&#13;&#10;&#9;&#9;c-0.331-0.17-0.539-0.346-0.624-0.528c-0.085-0.181-0.139-0.496-0.16-0.944c-0.021-0.448-0.059-0.757-0.111-0.928&#13;&#10;&#9;&#9;c-0.054-0.17-0.182-0.309-0.385-0.416c-0.202-0.106-0.399-0.16-0.592-0.16c-0.191,0-0.459,0.171-0.8,0.512&#13;&#10;&#9;&#9;c-0.768,0.768-1.515,1.27-2.24,1.504c-0.726,0.235-1.216,0.352-1.472,0.352c-0.171,0-0.256-0.069-0.256-0.208&#13;&#10;&#9;&#9;c0-0.138,0.234-0.442,0.704-0.912c1.429-1.429,2.464-2.709,3.104-3.84C6.992,7.672,7.403,7.063,7.99,6.253&#13;&#10;&#9;&#9;c0.586-0.811,1.008-1.515,1.264-2.112c0.128-0.298,0.384-0.448,0.769-0.448c0.276,0,0.65,0.128,1.119,0.384&#13;&#10;&#9;&#9;c0.47,0.256,0.704,0.491,0.704,0.704c0,0.213-0.16,0.469-0.479,0.768C10.47,6.402,9.739,7.16,9.174,7.821&#13;&#10;&#9;&#9;C8.608,8.482,8.326,8.984,8.326,9.325c0,0.192,0.144,0.288,0.432,0.288s0.837-0.234,1.648-0.704c2.068-1.173,3.231-1.76,3.487-1.76&#13;&#10;&#9;&#9;C14.022,7.149,14.086,7.234,14.086,7.405z M24.39,16.781c0,0.106-0.059,0.271-0.176,0.496c-0.117,0.223-0.283,0.709-0.496,1.455&#13;&#10;&#9;&#9;c-0.213,0.747-0.352,1.27-0.416,1.568c-0.277,1.216-0.613,2.363-1.008,3.439c-0.395,1.078-0.73,1.813-1.008,2.209&#13;&#10;&#9;&#9;c-0.277,0.395-0.485,0.746-0.624,1.056c-0.139,0.309-0.277,0.464-0.416,0.464s-0.571-0.234-1.296-0.704&#13;&#10;&#9;&#9;c-0.726-0.47-1.291-0.875-1.696-1.216c-0.533-0.448-1.237-0.672-2.112-0.672c-0.234,0-0.575,0.064-1.023,0.191&#13;&#10;&#9;&#9;c-0.448,0.129-0.928,0.213-1.44,0.256c-0.512,0.043-1.008,0.145-1.487,0.305c-0.48,0.16-0.849,0.314-1.104,0.464&#13;&#10;&#9;&#9;s-0.47,0.224-0.64,0.224c-0.171,0-0.326-0.16-0.464-0.479c-0.14-0.32-0.368-0.704-0.688-1.152C7.547,23.66,6.966,22.52,6.55,21.261&#13;&#10;&#9;&#9;S5.926,19,5.926,18.253c0-0.341,0.182-0.571,0.544-0.688c0.363-0.117,1.051-0.32,2.064-0.607c1.013-0.289,2.362-0.592,4.048-0.912&#13;&#10;&#9;&#9;c0.213-0.043,0.347-0.16,0.4-0.352c0.053-0.192,0.08-0.587,0.08-1.184s0.048-0.987,0.144-1.168s0.25-0.283,0.464-0.304&#13;&#10;&#9;&#9;c0.213-0.021,0.522-0.032,0.928-0.032s0.688,0.021,0.849,0.064c0.16,0.043,0.239,0.139,0.239,0.288s-0.037,0.288-0.111,0.416&#13;&#10;&#9;&#9;c-0.075,0.128-0.112,0.374-0.112,0.736s0.032,0.592,0.096,0.688c0.064,0.096,0.165,0.144,0.305,0.144&#13;&#10;&#9;&#9;c0.139,0,0.533-0.059,1.184-0.176c0.65-0.117,1.227-0.176,1.729-0.176c0.501,0,1.119,0.096,1.855,0.288&#13;&#10;&#9;&#9;c0.736,0.192,1.472,0.421,2.208,0.688c0.736,0.268,1.179,0.447,1.328,0.544C24.315,16.604,24.39,16.695,24.39,16.781z&#13;&#10;&#9;&#9; M13.094,18.477c0-0.404-0.021-0.688-0.063-0.848c-0.043-0.16-0.112-0.24-0.208-0.24c-0.097,0-0.715,0.149-1.856,0.448&#13;&#10;&#9;&#9;s-1.867,0.565-2.176,0.8c-0.31,0.234-0.464,0.587-0.464,1.057c0,0.725,0.148,1.551,0.448,2.479&#13;&#10;&#9;&#9;c0.298,0.928,0.527,1.467,0.688,1.616c0.16,0.148,0.416,0.224,0.769,0.224c0.352,0,0.82-0.112,1.407-0.336s0.96-0.442,1.12-0.656&#13;&#10;&#9;&#9;c0.16-0.213,0.24-0.532,0.24-0.96c0-0.17-0.086-0.288-0.256-0.352c-0.171-0.064-0.47-0.096-0.896-0.096l-0.64,0.063&#13;&#10;&#9;&#9;c-0.214,0-0.448-0.208-0.704-0.624s-0.384-0.688-0.384-0.816c0-0.127,0.139-0.224,0.416-0.287c0.276-0.064,0.64-0.188,1.088-0.369&#13;&#10;&#9;&#9;c0.448-0.18,0.784-0.314,1.008-0.399c0.225-0.085,0.357-0.165,0.4-0.239C13.072,18.866,13.094,18.712,13.094,18.477z M23.142,6.733&#13;&#10;&#9;&#9;c0.299,0,0.55,0.171,0.752,0.512c0.203,0.342,0.305,0.672,0.305,0.992c0,0.192-0.128,0.32-0.384,0.384&#13;&#10;&#9;&#9;c-0.684,0.213-1.419,0.512-2.208,0.896c-0.79,0.384-1.318,0.614-1.584,0.688c-0.268,0.075-0.4,0.24-0.4,0.496&#13;&#10;&#9;&#9;c0,0.405,0.117,0.726,0.352,0.96c0.235,0.235,0.353,0.416,0.353,0.544c0,0.278-0.268,0.416-0.8,0.416&#13;&#10;&#9;&#9;c-0.385,0-0.822-0.128-1.313-0.384c-0.491-0.256-0.736-0.672-0.736-1.248c0-0.298-0.048-0.603-0.144-0.912&#13;&#10;&#9;&#9;c-0.096-0.309-0.208-0.464-0.336-0.464s-0.245,0.053-0.352,0.16c-0.576,0.555-1.11,0.971-1.601,1.248&#13;&#10;&#9;&#9;c-0.491,0.278-0.806,0.416-0.944,0.416s-0.208-0.042-0.208-0.128c0-0.085,0.08-0.267,0.24-0.544c0.16-0.277,0.603-0.97,1.328-2.08&#13;&#10;&#9;&#9;c0.726-1.109,1.296-1.93,1.712-2.464c0.416-0.533,1.136-1.749,2.16-3.648c0.234-0.427,0.464-0.64,0.688-0.64&#13;&#10;&#9;&#9;c0.224,0,0.597,0.166,1.119,0.496c0.522,0.331,0.784,0.582,0.784,0.752c0,0.277-0.299,0.667-0.896,1.168&#13;&#10;&#9;&#9;c-0.598,0.501-1.142,1.136-1.632,1.904c-0.491,0.768-0.838,1.28-1.04,1.536c-0.203,0.256-0.305,0.448-0.305,0.576&#13;&#10;&#9;&#9;s0.106,0.192,0.32,0.192c0.213,0,1.621-0.565,4.224-1.696C22.79,6.776,22.971,6.733,23.142,6.733z M20.454,18.765&#13;&#10;&#9;&#9;c0-0.384-0.032-0.853-0.096-1.407c-0.064-0.555-0.4-0.912-1.009-1.072c-0.607-0.16-1.088-0.24-1.439-0.24&#13;&#10;&#9;&#9;c-0.353,0-0.613,0.031-0.784,0.096s-0.47,0.149-0.896,0.256c-0.428,0.107-0.684,0.235-0.769,0.385&#13;&#10;&#9;&#9;c-0.085,0.148-0.128,0.389-0.128,0.719c0,0.332,0.048,0.551,0.144,0.656c0.097,0.107,0.245,0.155,0.448,0.145&#13;&#10;&#9;&#9;s0.438-0.016,0.704-0.016s0.624,0.021,1.072,0.063c0.448,0.043,0.672,0.224,0.672,0.544c0,0.512-0.203,0.822-0.608,0.928&#13;&#10;&#9;&#9;c-0.405,0.107-0.875,0.299-1.407,0.576c-0.534,0.277-0.854,0.486-0.96,0.624c-0.107,0.14-0.16,0.39-0.16,0.752&#13;&#10;&#9;&#9;c0,0.363,0.032,0.614,0.096,0.753c0.064,0.139,0.171,0.219,0.32,0.239c0.148,0.021,0.421,0.032,0.815,0.032&#13;&#10;&#9;&#9;s0.656,0.059,0.784,0.176s0.208,0.368,0.24,0.752c0.032,0.385,0.148,0.635,0.352,0.752s0.464,0.176,0.784,0.176&#13;&#10;&#9;&#9;s0.581-0.139,0.784-0.416c0.202-0.277,0.427-1.002,0.672-2.176C20.331,20.888,20.454,19.789,20.454,18.765z" stroke-width="1"/>
    </g>
    <g/>
    <g/>
    <g/>
    <g/>
    <g/>
    <g/>
    <g/>
    <g/>
    <g/>
    <g/>
    <g/>
    <g/>
    <g/>
    <g/>
    <g/>
  </g>
</svg>