<svg xmlns="http://www.w3.org/2000/svg" xmlns:xlink="http://www.w3.org/1999/xlink" version="1.1" id="图层_1" x="0px" y="0px" width="28.61500358581543" height="18.2810001373291" viewBox="1.4019989967346191 4.39900016784668 28.61500358581543 18.2810001373291" enable-background="new 0 0 30 30" xml:space="preserve">
<g>
	<path fill="#0000FF" d="M9.101,12.323c0.342,0,0.736,0.277,1.185,0.832c0.448,0.555,0.672,0.939,0.672,1.152   c0,0.213-0.096,0.432-0.288,0.656s-0.854,0.886-1.984,1.984s-2.17,2.064-3.12,2.896c-0.949,0.832-1.595,1.355-1.936,1.568   c-0.341,0.214-0.672,0.319-0.992,0.319c-0.491,0-0.736-0.127-0.736-0.383c0-0.257,0.139-0.545,0.416-0.865   c1.344-1.557,2.816-3.466,4.416-5.728c0.682-0.96,1.2-1.605,1.552-1.936C8.637,12.488,8.909,12.323,9.101,12.323z M12.173,4.899   c0.128,0,0.267,0.128,0.416,0.384c0.149,0.256,0.31,0.459,0.48,0.608c0.17,0.149,0.447,0.523,0.832,1.12   c0.384,0.597,0.624,1.072,0.72,1.424s0.362,0.854,0.8,1.504c0.438,0.651,1.125,1.584,2.064,2.8   c0.938,1.216,1.626,2.022,2.063,2.416c0.438,0.395,1.248,0.971,2.433,1.728c1.184,0.758,2.159,1.313,2.928,1.664   c0.768,0.352,1.728,0.875,2.88,1.568s1.728,1.211,1.728,1.552s-0.518,0.513-1.552,0.513c-1.035,0-2.24-0.123-3.616-0.369   c-1.376-0.244-2.575-0.543-3.6-0.896s-1.67-0.56-1.936-0.624c-0.268-0.064-0.443-0.154-0.528-0.271   c-0.086-0.117-0.128-0.283-0.128-0.496l0.063-0.832c0-0.747-0.208-1.601-0.624-2.561s-0.965-1.824-1.647-2.592   c-0.684-0.768-1.388-1.675-2.112-2.72c-0.491-0.725-0.896-1.184-1.216-1.376c-0.555-0.362-0.96-0.688-1.216-0.976   c-0.256-0.288-0.384-0.634-0.384-1.04c0-0.405,0.138-0.928,0.415-1.568C11.714,5.219,11.96,4.899,12.173,4.899z" stroke-width="1"/>
</g>
</svg>