<svg xmlns="http://www.w3.org/2000/svg" xmlns:xlink="http://www.w3.org/1999/xlink" version="1.1" id="图层_1" x="0px" y="0px" width="24.935001373291016" height="30.632997512817383" viewBox="0.819000244140625 -0.9030008018016815 24.935001373291016 30.632997512817383" style="enable-background:new 0 0 30 30;" xml:space="preserve">
  <g>
    <g>
      <path style="fill:#0000FF;" d="M20.006,9.101c0.938,0,1.515,0.043,1.729,0.128c0.213,0.085,0.319,0.374,0.319,0.864&#13;&#10;&#9;&#9;s-0.085,0.741-0.256,0.752s-0.587,0.016-1.248,0.016s-1.995,0.139-4,0.416c-2.56,0.341-4.139,0.608-4.735,0.8&#13;&#10;&#9;&#9;c-0.342,0.107-0.624,0.293-0.849,0.56c-0.224,0.267-0.411,0.635-0.56,1.104c-0.534,1.792-1.237,3.355-2.112,4.688&#13;&#10;&#9;&#9;s-1.328,2.336-1.36,3.008c-0.031,0.673-0.181,1.147-0.447,1.425c-0.268,0.277-0.71,0.581-1.328,0.911&#13;&#10;&#9;&#9;c-0.619,0.331-1.184,0.555-1.696,0.673c-0.512,0.116-0.998,0.176-1.456,0.176c-0.459,0-0.688-0.075-0.688-0.225&#13;&#10;&#9;&#9;c0-0.234,0.603-0.842,1.808-1.824c1.205-0.98,2.219-2.074,3.04-3.279s1.456-2.465,1.904-3.776c0.447-1.312,0.672-2.341,0.672-3.088&#13;&#10;&#9;&#9;c0-0.32-0.086-0.586-0.256-0.8c-0.171-0.213-0.256-0.384-0.256-0.512s0.159-0.213,0.479-0.256c0.789-0.106,1.643-0.32,2.561-0.64&#13;&#10;&#9;&#9;c0.917-0.32,2.191-0.586,3.823-0.8S18.363,9.101,20.006,9.101z M21.478,1.708c0.257,0,0.71,0.192,1.36,0.576&#13;&#10;&#9;&#9;s0.977,0.672,0.977,0.864c0,0.192-0.203,0.528-0.608,1.008s-0.693,0.891-0.864,1.232c-0.171,0.341-0.459,1.024-0.864,2.048&#13;&#10;&#9;&#9;c-0.234,0.576-0.453,0.864-0.655,0.864c-0.203,0-0.539-0.133-1.008-0.4c-0.47-0.267-1.014-0.4-1.633-0.4&#13;&#10;&#9;&#9;c-0.96,0-2.213,0.139-3.76,0.416c-1.547,0.278-2.512,0.523-2.896,0.736c-0.385,0.213-0.63,0.32-0.736,0.32&#13;&#10;&#9;&#9;c-0.107,0-0.262-0.133-0.464-0.4c-0.203-0.267-0.491-0.539-0.864-0.816S8.784,7.106,8.55,6.637S8.198,5.698,8.198,5.229&#13;&#10;&#9;&#9;c0-0.469,0.085-0.875,0.256-1.216c0.171-0.341,0.347-0.555,0.528-0.64c0.181-0.085,0.575-0.128,1.184-0.128s1.034,0.069,1.28,0.208&#13;&#10;&#9;&#9;c0.245,0.139,0.368,0.293,0.368,0.464c0,0.171-0.32,0.555-0.96,1.152c-0.192,0.171-0.288,0.405-0.288,0.704&#13;&#10;&#9;&#9;c0,0.555,0.298,0.832,0.896,0.832c0.171,0,0.416-0.032,0.736-0.096l1.056-0.256c0.362-0.085,0.581-0.149,0.656-0.192&#13;&#10;&#9;&#9;c0.074-0.042,0.128-0.138,0.16-0.288c0.031-0.149,0.048-0.629,0.048-1.44c0-0.811,0.037-1.717,0.112-2.72&#13;&#10;&#9;&#9;c0.074-1.002,0.187-1.589,0.336-1.76c0.148-0.17,0.341-0.256,0.575-0.256c0.235,0,0.593,0.091,1.072,0.272&#13;&#10;&#9;&#9;c0.48,0.182,0.8,0.336,0.96,0.464s0.24,0.288,0.24,0.48c0,0.192-0.102,0.427-0.304,0.704c-0.203,0.278-0.336,0.55-0.4,0.816&#13;&#10;&#9;&#9;c-0.063,0.267-0.096,0.8-0.096,1.6c0,0.8,0.026,1.291,0.08,1.472c0.053,0.182,0.234,0.256,0.544,0.224&#13;&#10;&#9;&#9;c0.309-0.032,0.612-0.048,0.912-0.048l0.896,0.032c0.256,0,0.448-0.075,0.576-0.224c0.128-0.149,0.32-0.539,0.576-1.168&#13;&#10;&#9;&#9;c0.256-0.629,0.469-1.264,0.64-1.904C20.944,1.912,21.158,1.708,21.478,1.708z M23.846,16.269c0.342,0,0.55,0.091,0.624,0.272&#13;&#10;&#9;&#9;c0.075,0.182,0.225,0.479,0.448,0.896s0.336,0.838,0.336,1.265s-0.123,0.64-0.368,0.64s-0.683-0.069-1.312-0.208&#13;&#10;&#9;&#9;c-0.63-0.139-1.302-0.208-2.017-0.208s-1.439,0.017-2.176,0.048c-0.735,0.032-1.168,0.059-1.296,0.08s-0.224,0.096-0.288,0.225&#13;&#10;&#9;&#9;c-0.063,0.127-0.102,0.367-0.112,0.719c-0.011,0.353-0.069,0.929-0.176,1.729c-0.106,0.801-0.16,1.861-0.16,3.184&#13;&#10;&#9;&#9;s0.021,2.129,0.064,2.416c0.042,0.289,0.063,0.587,0.063,0.896c0,0.309-0.096,0.555-0.287,0.736&#13;&#10;&#9;&#9;c-0.192,0.181-0.48,0.271-0.864,0.271s-0.635-0.059-0.752-0.176c-0.118-0.117-0.176-0.379-0.176-0.784l0.031-2.655&#13;&#10;&#9;&#9;c0-1.451-0.043-2.806-0.128-4.064s-0.171-1.947-0.256-2.064s-0.224-0.176-0.416-0.176c-0.191,0-0.667,0.043-1.424,0.128&#13;&#10;&#9;&#9;c-0.758,0.085-1.355,0.177-1.792,0.272c-0.438,0.096-0.747,0.213-0.928,0.352c-0.182,0.139-0.385,0.208-0.608,0.208&#13;&#10;&#9;&#9;s-0.438-0.196-0.64-0.592c-0.203-0.395-0.305-0.688-0.305-0.88c0-0.192,0.149-0.299,0.448-0.32s0.858-0.106,1.681-0.256&#13;&#10;&#9;&#9;c0.82-0.148,1.477-0.288,1.968-0.416c0.49-0.128,1.013-0.245,1.567-0.352c0.213-0.043,0.32-0.166,0.32-0.369&#13;&#10;&#9;&#9;c0-0.201-0.043-0.447-0.128-0.735c-0.086-0.288-0.176-0.464-0.272-0.528c-0.096-0.064-0.277-0.096-0.544-0.096&#13;&#10;&#9;&#9;s-0.49,0.027-0.672,0.08c-0.182,0.054-0.336,0.08-0.464,0.08c-0.363,0-0.624-0.267-0.784-0.8c-0.16-0.533-0.239-0.864-0.239-0.992&#13;&#10;&#9;&#9;c0-0.341,0.181-0.544,0.544-0.608l3.424-0.64c1.94-0.341,3.227-0.512,3.855-0.512s1.051,0.016,1.265,0.048&#13;&#10;&#9;&#9;c0.213,0.032,0.352,0.08,0.416,0.144c0.063,0.064,0.138,0.208,0.224,0.432c0.085,0.224,0.128,0.406,0.128,0.544&#13;&#10;&#9;&#9;c0,0.139-0.054,0.32-0.16,0.544c-0.106,0.224-0.325,0.363-0.655,0.416c-0.331,0.053-0.614,0.133-0.849,0.24&#13;&#10;&#9;&#9;c-0.234,0.107-0.555,0.235-0.96,0.384c-0.405,0.15-0.688,0.283-0.848,0.4s-0.24,0.421-0.24,0.912c0,0.235,0.08,0.352,0.24,0.352&#13;&#10;&#9;&#9;s0.517-0.036,1.072-0.111c0.554-0.074,1.173-0.123,1.855-0.145c0.683-0.021,1.259-0.063,1.729-0.127&#13;&#10;&#9;&#9;C23.323,16.301,23.654,16.269,23.846,16.269z" stroke-width="1"/>
    </g>
    <g/>
    <g/>
    <g/>
    <g/>
    <g/>
    <g/>
    <g/>
    <g/>
    <g/>
    <g/>
    <g/>
    <g/>
    <g/>
    <g/>
    <g/>
  </g>
</svg>