<svg xmlns="http://www.w3.org/2000/svg" xmlns:xlink="http://www.w3.org/1999/xlink" version="1.1" id="图层_1" x="0px" y="0px" width="30.924001693725586" height="24.138004302978516" viewBox="-0.5770022571086884 2.2379963397979736 30.924001693725586 24.138004302978516" enable-background="new 0 0 30 30" xml:space="preserve">
<g>
	<path fill="#0000FF" d="M11.927,8.146c0,0.363-0.229,0.747-0.688,1.152c-0.459,0.406-0.844,0.608-1.152,0.608   c-0.31,0-0.592-0.139-0.848-0.416C8.705,8.936,8.236,8.659,7.831,8.659S7.164,8.702,7.047,8.787   C6.93,8.872,6.642,9.182,6.183,9.714c-0.459,0.534-0.811,0.998-1.056,1.392c-0.246,0.395-0.368,0.688-0.368,0.88   c0,0.192,0.091,0.331,0.272,0.416c0.181,0.085,0.347,0.128,0.496,0.128c0.149,0,0.373-0.064,0.672-0.192   c1.322-0.618,2.336-0.928,3.04-0.928c0.384,0,0.576,0.288,0.576,0.864c0,0.213-0.032,0.39-0.097,0.528   c-0.063,0.139-0.208,0.357-0.432,0.656c-0.224,0.299-0.438,0.656-0.64,1.072c-0.203,0.416-0.305,0.672-0.305,0.768   c0,0.096,0.053,0.144,0.16,0.144l1.248-0.16c0.277,0,0.416,0.171,0.416,0.512c0,0.447-0.368,0.976-1.104,1.584   c-0.736,0.607-1.36,1.039-1.872,1.295c-0.128,0.064-0.235,0.215-0.32,0.449c-0.085,0.234-0.128,0.49-0.128,0.768   s0.069,0.507,0.208,0.688c0.138,0.182,0.341,0.272,0.607,0.272s0.736-0.276,1.408-0.832c0.672-0.555,1.173-1.04,1.504-1.456   s0.533-0.624,0.608-0.624c0.074,0,0.112,0.075,0.112,0.224c0,0.15-0.123,0.508-0.368,1.072c-0.246,0.565-0.662,1.232-1.248,2   c-0.587,0.768-1.029,1.297-1.328,1.584c-0.299,0.288-0.624,0.502-0.977,0.641c-0.352,0.139-0.65,0.283-0.896,0.432   c-0.246,0.149-0.427,0.225-0.544,0.225c-0.118,0-0.203-0.049-0.256-0.145c-0.054-0.096-0.128-0.465-0.224-1.104   c-0.096-0.641-0.144-1.26-0.144-1.856l0.064-1.44c0-0.234-0.118-0.352-0.352-0.352c-0.619,0-1.27,0.107-1.952,0.32   c-0.085,0.021-0.176,0.031-0.272,0.031c-0.096,0-0.181-0.085-0.256-0.256c-0.075-0.17-0.144-0.459-0.208-0.863   c-0.064-0.406-0.096-0.715-0.096-0.929c0-0.213,0.139-0.319,0.416-0.319c0.085,0,0.203,0.016,0.352,0.047   c0.149,0.033,0.368,0.049,0.656,0.049s0.667-0.102,1.136-0.305c0.469-0.202,0.741-0.352,0.816-0.447   c0.074-0.096,0.112-0.24,0.112-0.432c0-0.491-0.123-0.827-0.368-1.009c-0.246-0.181-0.518-0.634-0.816-1.36   c-0.021-0.085-0.091-0.128-0.208-0.128c-0.118,0-0.208,0.032-0.272,0.096c-0.64,0.64-1.355,1.11-2.144,1.408   c-0.79,0.299-1.333,0.448-1.632,0.448c-0.171,0-0.256-0.08-0.256-0.24s0.283-0.603,0.848-1.328c0.565-0.725,1.221-1.44,1.968-2.144   c0.298-0.298,1.2-1.397,2.704-3.296c1.504-1.898,2.544-3.626,3.121-5.184c0.17-0.426,0.367-0.64,0.592-0.64   c0.224,0,0.576,0.23,1.056,0.688c0.48,0.459,0.72,0.816,0.72,1.072s-0.123,0.485-0.367,0.688c-0.246,0.203-0.565,0.491-0.96,0.864   C9.212,6.424,8.993,6.643,8.951,6.707c-0.043,0.064-0.064,0.144-0.064,0.24c0,0.096,0.106,0.203,0.32,0.32   C9.42,7.384,9.644,7.442,9.879,7.442c0.234,0,0.48-0.032,0.736-0.096s0.464-0.096,0.624-0.096s0.314,0.085,0.464,0.256   C11.852,7.678,11.927,7.891,11.927,8.146z M29.847,23.09c0,0.15-0.197,0.348-0.592,0.593s-0.864,0.368-1.408,0.368   s-1.211-0.043-2-0.129l-2.048-0.223c-0.576-0.086-0.912-0.166-1.008-0.24c-0.096-0.075-0.219-0.363-0.368-0.864   s-0.379-0.954-0.688-1.36c-0.31-0.404-0.758-0.757-1.345-1.056s-0.96-0.448-1.12-0.448c-0.159,0-0.282,0.096-0.367,0.288   c-0.704,1.622-1.681,3.003-2.929,4.144c-1.248,1.142-2.074,1.713-2.479,1.713c-0.192,0-0.368-0.188-0.528-0.561   s-0.325-1.232-0.496-2.576s-0.256-3.061-0.256-5.152c0-0.703,0.069-1.37,0.208-2c0.139-0.628,0.272-1.722,0.4-3.279   c0.128-1.557,0.191-2.528,0.191-2.912s-0.037-0.725-0.111-1.024c-0.075-0.299-0.112-0.501-0.112-0.608   c0-0.256,0.117-0.405,0.352-0.448c0.235-0.042,0.693-0.25,1.376-0.624c0.683-0.373,1.531-0.725,2.545-1.056   c1.013-0.33,1.882-0.496,2.607-0.496c0.725,0,1.344,0.155,1.856,0.464c0.512,0.31,0.768,0.592,0.768,0.848   c0,0.128-0.08,0.315-0.24,0.56s-0.336,0.816-0.527,1.712c-0.214,1.067-0.544,2.08-0.992,3.04s-1.035,1.632-1.76,2.016   c-1.388,0.726-2.203,1.174-2.448,1.344c-0.246,0.171-0.368,0.299-0.368,0.383c0,0.15,0.139,0.225,0.416,0.225   c0.213,0,0.928-0.288,2.144-0.864c1.217-0.576,2.496-1.408,3.841-2.496c0.298-0.256,0.512-0.384,0.64-0.384   s0.288,0.166,0.479,0.496c0.192,0.331,0.288,0.571,0.288,0.72c0,0.149-0.165,0.352-0.496,0.608   c-0.33,0.256-0.677,0.565-1.039,0.928c-1.302,1.302-2.561,2.134-3.776,2.496c-0.149,0.043-0.224,0.112-0.224,0.208   c0,0.097,0.031,0.187,0.096,0.272c0.063,0.085,0.496,0.367,1.296,0.848s1.717,0.96,2.752,1.439c1.034,0.48,1.786,0.773,2.256,0.881   c1.408,0.363,2.629,0.763,3.664,1.199C29.329,22.52,29.847,22.855,29.847,23.09z M14.135,22.258c0.405,0,0.906-0.121,1.504-0.367   c0.598-0.245,1.168-0.65,1.712-1.217c0.544-0.564,0.816-0.948,0.816-1.151c0-0.202-0.096-0.347-0.288-0.433   c-0.64-0.276-1.354-0.639-2.144-1.088c-0.257-0.17-0.587-0.256-0.992-0.256s-0.667,0.032-0.784,0.096   c-0.117,0.064-0.229,0.449-0.336,1.152c-0.107,0.705-0.16,1.328-0.16,1.873c0,0.543,0.048,0.911,0.145,1.104   C13.703,22.162,13.879,22.258,14.135,22.258z M14.903,13.714c0.063,0,0.469-0.202,1.216-0.608c0.746-0.405,1.21-0.683,1.392-0.832   c0.182-0.149,0.368-0.544,0.561-1.184c0.191-0.64,0.33-1.189,0.416-1.648c0.085-0.458,0.128-0.912,0.128-1.36   s-0.08-0.763-0.24-0.944s-0.379-0.272-0.656-0.272c-0.405,0-0.96,0.331-1.664,0.992c-0.704,0.662-1.056,1.206-1.056,1.632   c0,0.235,0.106,0.309,0.32,0.224c0.896-0.384,1.514-0.576,1.855-0.576c0.341,0,0.512,0.139,0.512,0.416s-0.187,0.725-0.56,1.344   c-0.373,0.619-0.806,1.045-1.296,1.28c-0.491,0.235-0.812,0.421-0.96,0.56c-0.149,0.139-0.224,0.336-0.224,0.592   S14.732,13.714,14.903,13.714z" stroke-width="1"/>
</g>
</svg>