<svg xmlns="http://www.w3.org/2000/svg" xmlns:xlink="http://www.w3.org/1999/xlink" version="1.1" id="图层_1" x="0px" y="0px" width="24.16899871826172" height="29.864999771118164" viewBox="2.0820000171661377 -0.578000009059906 24.16899871826172 29.864999771118164" enable-background="new 0 0 30 30" xml:space="preserve">
<g>
	<path fill="#0000FF" d="M24.279,10.227c0.404,0,0.709,0.123,0.912,0.368c0.202,0.245,0.346,0.576,0.432,0.992   c0.085,0.416,0.128,0.742,0.128,0.976c0,0.448-0.171,0.672-0.512,0.672c-0.171,0-0.384-0.053-0.641-0.16   c-1.344-0.555-2.943-0.832-4.8-0.832c-1.855,0-3.728,0.197-5.616,0.592c-1.888,0.395-3.407,0.635-4.56,0.72   c-1.152,0.085-2.32,0.272-3.504,0.56c-1.184,0.288-1.936,0.517-2.256,0.688c-0.32,0.171-0.549,0.256-0.688,0.256   s-0.272-0.149-0.4-0.448c-0.128-0.298-0.192-0.613-0.192-0.944c0-0.331,0.032-0.539,0.096-0.624   c0.064-0.085,0.245-0.128,0.544-0.128h0.864c0.811,0,2.011-0.154,3.6-0.464c1.59-0.309,2.789-0.619,3.601-0.928   c0.811-0.309,1.6-0.57,2.368-0.784c0.426-0.106,0.772-0.41,1.04-0.912c0.267-0.501,0.399-0.88,0.399-1.136   s-0.016-0.405-0.048-0.448c-0.032-0.042-0.112-0.064-0.24-0.064s-0.384,0.043-0.768,0.128c-0.384,0.085-0.688,0.315-0.912,0.688   c-0.224,0.374-0.347,0.635-0.368,0.784c-0.085,0.384-0.245,0.619-0.479,0.704c-0.235,0.085-0.476,0.187-0.721,0.304   s-0.438,0.176-0.575,0.176c-0.14,0-0.268-0.187-0.385-0.56c-0.117-0.373-0.176-0.805-0.176-1.296c0-0.277-0.139-0.416-0.416-0.416   c-0.576,0-0.987,0.075-1.231,0.224C8.529,9.064,8.327,9.139,8.167,9.139s-0.294-0.069-0.4-0.208S7.543,8.494,7.415,8.035   C7.287,7.576,7.223,7.224,7.223,6.979c0-0.245,0.043-0.395,0.128-0.448s0.353-0.08,0.801-0.08c0.447,0,1.162-0.117,2.144-0.352   c0.981-0.234,2.512-0.464,4.592-0.688c2.08-0.224,3.515-0.336,4.305-0.336c0.49,0,0.735,0.149,0.735,0.448   c0,0.299-0.026,0.587-0.08,0.864c-0.053,0.277-0.111,0.448-0.176,0.512c-0.063,0.064-0.224,0.096-0.479,0.096   c-0.257,0-0.459,0.08-0.608,0.24c-0.149,0.16-0.352,0.534-0.608,1.12c-0.256,0.587-0.384,1.019-0.384,1.296   c0,0.278,0.096,0.448,0.288,0.512s0.561,0.128,1.104,0.192s1.071,0.096,1.584,0.096c1.194,0,2.08-0.037,2.655-0.112   C23.799,10.264,24.151,10.227,24.279,10.227z M20.375,25.074c0.362,0,0.666,0.166,0.912,0.496c0.245,0.33,0.368,0.859,0.368,1.584   c0,0.385-0.128,0.576-0.385,0.576c-0.106,0-0.245-0.021-0.415-0.064c-0.79-0.234-1.648-0.4-2.576-0.496   c-0.929-0.096-1.478-0.123-1.648-0.08s-0.368,0.064-0.592,0.064s-0.443-0.043-0.656-0.128s-0.571-0.128-1.072-0.128   s-0.971,0.112-1.407,0.336c-0.438,0.225-1.009,0.342-1.712,0.352c-0.704,0.012-1.323,0.123-1.856,0.336s-0.832,0.412-0.896,0.592   c-0.064,0.182-0.172,0.273-0.32,0.273c-0.149,0-0.272-0.107-0.368-0.32S7.5,27.975,7.287,27.635   c-0.213-0.342-0.32-0.545-0.32-0.608c0-0.192,0.225-0.31,0.672-0.353c1.024-0.127,2.075-0.341,3.152-0.639   c1.077-0.3,1.658-0.534,1.744-0.705c0.085-0.17,0.128-0.384,0.128-0.64s-0.192-0.384-0.576-0.384s-0.773,0.085-1.168,0.256   c-0.395,0.17-0.651,0.256-0.768,0.256c-0.118,0-0.214-0.048-0.288-0.145c-0.075-0.096-0.188-0.346-0.336-0.752   c-0.149-0.404-0.225-0.703-0.225-0.896s0.097-0.288,0.288-0.288l0.353,0.032c0.341,0,0.832-0.091,1.472-0.272   c0.64-0.181,1.029-0.319,1.168-0.416c0.139-0.096,0.208-0.256,0.208-0.479s-0.112-0.336-0.336-0.336s-0.416,0.038-0.576,0.112   s-0.31,0.111-0.448,0.111s-0.261-0.031-0.367-0.096c-0.107-0.064-0.448-0.416-1.024-1.057c-0.576-0.639-0.987-1.151-1.232-1.535   c-0.245-0.385-0.501-0.906-0.768-1.568c-0.267-0.66-0.4-1.088-0.4-1.279c0-0.406,0.305-0.662,0.912-0.769   c0.608-0.106,1.339-0.325,2.192-0.656c0.853-0.331,1.957-0.64,3.312-0.928s2.571-0.432,3.648-0.432s1.781,0.085,2.112,0.256   c0.33,0.171,0.682,0.373,1.056,0.608c0.373,0.235,0.56,0.464,0.56,0.688c0,0.224-0.384,1.174-1.151,2.848   c-0.769,1.676-1.26,2.646-1.473,2.912c-0.213,0.268-0.501,0.368-0.863,0.305c-0.491-0.107-0.875-0.16-1.152-0.16   c-0.918,0-1.376,0.187-1.376,0.56c0,0.374,0.16,0.528,0.479,0.464c0.32-0.064,0.912-0.096,1.776-0.096s1.296,0.149,1.296,0.447   c0,0.043-0.026,0.118-0.08,0.225c-0.054,0.107-0.102,0.336-0.144,0.688c-0.043,0.353-0.225,0.55-0.544,0.592   c-1.046,0.086-1.718,0.177-2.017,0.272c-0.299,0.097-0.447,0.229-0.447,0.4s0.048,0.362,0.144,0.575s0.299,0.336,0.608,0.369   c0.309,0.031,0.88,0.047,1.712,0.047L20.375,25.074z M11.543,19.795c0.128,0,0.341-0.053,0.64-0.16s0.485-0.203,0.561-0.288   c0.074-0.085,0.112-0.224,0.112-0.416c0-0.299-0.123-0.433-0.368-0.399c-0.246,0.031-0.485,0.047-0.721,0.047   c-0.234,0-0.447-0.139-0.64-0.416c-0.192-0.276-0.288-0.533-0.288-0.768s0.145-0.362,0.432-0.384   c0.288-0.021,0.598-0.085,0.929-0.192c0.33-0.106,0.522-0.219,0.576-0.336c0.053-0.117,0.08-0.282,0.08-0.496   c0-0.256-0.064-0.384-0.192-0.384s-0.374,0.048-0.736,0.144s-0.683,0.172-0.96,0.225s-0.47,0.166-0.576,0.336   c-0.106,0.171-0.159,0.523-0.159,1.056C10.231,18.984,10.668,19.795,11.543,19.795z M13.559-0.078c0.171,0,0.357,0.08,0.561,0.24   c0.202,0.16,0.484,0.475,0.848,0.944c0.362,0.47,0.635,0.832,0.816,1.088c0.181,0.256,0.271,0.566,0.271,0.928   c0,0.363-0.154,0.603-0.464,0.72c-0.31,0.118-0.741,0.176-1.296,0.176c-0.854,0-1.328-0.181-1.424-0.544s-0.145-0.896-0.145-1.6   s0.017-1.12,0.049-1.248c0.031-0.128,0.122-0.277,0.271-0.448S13.367-0.078,13.559-0.078z M15.863,18.803   c0.384,0,0.73-0.043,1.04-0.129c0.309-0.084,0.532-0.229,0.672-0.432c0.139-0.202,0.288-0.602,0.448-1.199   c0.159-0.598,0.239-1.078,0.239-1.44s-0.149-0.656-0.447-0.88c-0.3-0.224-0.694-0.336-1.185-0.336   c-0.789,0-1.184,0.341-1.184,1.024c0,0.192,0.202,0.289,0.607,0.289c0.363,0,0.544,0.187,0.544,0.559   c0,0.374-0.031,0.631-0.096,0.769c-0.063,0.14-0.342,0.357-0.832,0.656c-0.214,0.128-0.32,0.374-0.32,0.735   C15.351,18.674,15.521,18.803,15.863,18.803z" stroke-width="1"/>
</g>
</svg>