<svg xmlns="http://www.w3.org/2000/svg" xmlns:xlink="http://www.w3.org/1999/xlink" version="1.1" id="图层_1" x="0px" y="0px" width="26.792001724243164" height="26.824003219604492" viewBox="2.5949974060058594 1.0870006084442139 26.792001724243164 26.824003219604492" enable-background="new 0 0 30 30" xml:space="preserve">
<g>
	<path fill="#0000FF" d="M28.887,25.683c0,0.234-0.224,0.507-0.672,0.815c-0.448,0.31-1.387,0.465-2.815,0.465   c-0.513,0-1.328,0.042-2.448,0.127c-1.12,0.086-1.776,0.16-1.968,0.225c-0.192,0.064-0.4,0.096-0.624,0.096   c-0.225,0-0.39-0.107-0.496-0.32c-0.491-1.002-1.024-1.652-1.601-1.951s-1.579-0.459-3.008-0.48c-1.43-0.021-2.843-0.25-4.24-0.688   s-2.677-0.656-3.84-0.656c-1.163,0-2.053,0.203-2.672,0.607c-0.171,0.107-0.32,0.16-0.448,0.16c-0.256,0-0.48-0.261-0.672-0.783   c-0.192-0.523-0.288-0.949-0.288-1.28s0.128-0.496,0.384-0.496c0.064,0,0.181,0.026,0.352,0.08c0.17,0.054,0.368,0.08,0.592,0.08   c0.224,0,0.586-0.042,1.088-0.128c0.501-0.085,0.752-0.225,0.752-0.416c0-0.085-0.139-0.357-0.416-0.816   c-0.278-0.458-0.496-0.954-0.656-1.488c-0.16-0.532-0.24-1.034-0.24-1.504c0-0.469,0.01-0.857,0.032-1.168   c0.021-0.309,0.032-0.58,0.032-0.815c0-0.704-0.118-1.237-0.352-1.6c-0.064-0.106-0.096-0.213-0.096-0.32s0.133-0.16,0.4-0.16   s0.789,0.16,1.568,0.48c0.778,0.32,1.168,0.598,1.168,0.832c0,0.085-0.054,0.203-0.16,0.352c-0.768,1.024-1.152,1.803-1.152,2.336   s0.096,1.013,0.288,1.44c0.192,0.426,0.506,0.912,0.944,1.455c0.437,0.545,0.757,0.892,0.96,1.041   c0.202,0.148,0.432,0.234,0.688,0.256c1.131,0.127,2.134,0.383,3.009,0.768c0.874,0.384,2.111,0.65,3.712,0.8   c0.362,0.021,0.853,0.097,1.472,0.224c0.618,0.129,1.066,0.235,1.344,0.32c0.747,0.214,1.675,0.342,2.784,0.385   c1.536,0.063,3.136,0.281,4.8,0.655C28.055,24.983,28.887,25.341,28.887,25.683z M8.791,9.875c0,0.192-0.128,0.347-0.384,0.464   c-0.256,0.118-0.448,0.176-0.576,0.176s-0.315-0.053-0.561-0.16c-0.245-0.106-0.56-0.208-0.943-0.304   C5.943,9.955,5.628,9.784,5.383,9.539C5.138,9.293,5.015,9.032,5.015,8.754c0-0.277,0.17-0.811,0.512-1.6   c0.341-0.789,0.704-1.184,1.088-1.184c0.426,0,0.64,0.299,0.64,0.896c0,0.277,0.085,0.603,0.256,0.976   c0.171,0.374,0.427,0.731,0.769,1.072C8.62,9.256,8.791,9.576,8.791,9.875z M22.391,12.21c0.235,0,0.421,0.038,0.561,0.112   c0.139,0.075,0.25,0.304,0.336,0.688c0.085,0.384,0.234,0.741,0.448,1.072c0.213,0.331,0.319,0.582,0.319,0.752   c0,0.427-0.352,0.587-1.056,0.48c-0.555-0.085-1.285-0.128-2.192-0.128c-0.906,0-1.589,0.091-2.048,0.272   c-0.459,0.182-0.747,0.347-0.864,0.497c-0.117,0.148-0.347,0.373-0.688,0.672c-1.344,1.109-2.016,1.994-2.016,2.656   c0,0.085,0.036,0.17,0.111,0.256c0.075,0.085,0.112,0.207,0.112,0.367s-0.299,0.428-0.896,0.801   c-0.597,0.373-0.971,0.56-1.119,0.56c-0.15,0-0.288-0.011-0.416-0.032c-0.534-0.106-1.185-0.16-1.952-0.16   c-0.428,0-0.641-0.101-0.641-0.304c0-0.202,0.245-0.399,0.736-0.592c1.6-0.576,2.587-1.232,2.96-1.968   c0.373-0.736,0.561-1.217,0.561-1.44s-0.129-0.336-0.385-0.336c-0.447,0-0.971,0.106-1.567,0.319   c-0.598,0.215-0.939,0.4-1.024,0.561s-0.197,0.24-0.336,0.24s-0.352-0.288-0.64-0.864c-0.288-0.575-0.433-0.97-0.433-1.185   c0-0.212,0.106-0.367,0.32-0.463c0.213-0.096,1.578-0.453,4.096-1.072c0.513-0.106,0.769-0.437,0.769-0.992   c0-0.832-0.182-1.248-0.544-1.248c-0.171,0-0.385,0.069-0.641,0.208c-0.256,0.139-0.464,0.288-0.624,0.448   c-0.16,0.16-0.325,0.24-0.496,0.24s-0.438-0.384-0.8-1.152s-0.544-1.269-0.544-1.504s0.064-0.384,0.192-0.448   s0.293-0.096,0.496-0.096c0.202,0,0.592-0.091,1.168-0.272c0.576-0.181,1.359-0.618,2.352-1.312c0.992-0.693,1.84-1.44,2.544-2.24   s1.27-1.579,1.696-2.336s0.65-1.227,0.672-1.408c0.021-0.181,0.128-0.272,0.32-0.272c0.426,0,0.858,0.182,1.296,0.544   c0.437,0.363,0.656,0.683,0.656,0.96c0,0.107-0.086,0.224-0.257,0.352c-0.533,0.384-1.264,1.045-2.191,1.984   s-1.393,1.536-1.393,1.792c0,0.171,0.155,0.235,0.465,0.192c0.309-0.042,0.575-0.064,0.8-0.064c0.224,0,0.373,0.048,0.448,0.144   c0.074,0.096,0.154,0.384,0.239,0.864s0.128,0.821,0.128,1.024c0,0.203-0.048,0.368-0.144,0.496s-0.325,0.293-0.688,0.496   c-0.362,0.203-0.741,0.368-1.136,0.496c-0.395,0.128-0.64,0.304-0.736,0.528c-0.096,0.224-0.144,0.523-0.144,0.896   c0,0.374,0.064,0.56,0.192,0.56s0.266-0.011,0.416-0.032C20.684,12.414,21.751,12.21,22.391,12.21z M15.511,3.475   c0.641,0,0.96,0.182,0.96,0.544c0,0.256-0.16,0.544-0.479,0.864c-0.812,0.811-1.334,1.451-1.568,1.92   c-0.128,0.256-0.293,0.384-0.496,0.384s-0.581-0.373-1.136-1.12c-0.555-0.747-0.832-1.232-0.832-1.456   c0-0.224,0.043-0.362,0.128-0.416c0.085-0.053,0.251-0.08,0.496-0.08s0.629-0.107,1.152-0.32   C14.258,3.582,14.85,3.475,15.511,3.475z M22.743,19.858c0,0.556-0.048,1.088-0.145,1.601c-0.096,0.512-0.229,0.768-0.399,0.768   c-0.171,0-0.544-0.25-1.12-0.752c-0.576-0.501-1.163-1.057-1.76-1.664c-0.598-0.607-1.014-1.094-1.248-1.456   c-0.235-0.362-0.353-0.698-0.353-1.008s0.128-0.464,0.384-0.464c0.257,0,0.576,0.091,0.961,0.271   c0.384,0.182,0.996,0.416,1.84,0.704c0.842,0.288,1.359,0.571,1.552,0.849S22.743,19.368,22.743,19.858z" stroke-width="1"/>
</g>
</svg>