<svg xmlns="http://www.w3.org/2000/svg" xmlns:xlink="http://www.w3.org/1999/xlink" version="1.1" id="图层_1" x="0px" y="0px" width="24.775999069213867" height="25.768997192382812" viewBox="1.443000316619873 1.341001272201538 24.775999069213867 25.768997192382812" enable-background="new 0 0 30 30" xml:space="preserve">
<g>
	<path fill="#0000FF" d="M11.447,8.499c0.213,0,0.373,0.123,0.479,0.368s0.16,0.459,0.16,0.64c0,0.182-0.187,0.486-0.56,0.912   c-0.374,0.427-0.694,0.747-0.96,0.96c-0.268,0.213-0.4,0.48-0.4,0.8c0,0.32,0.021,0.56,0.064,0.72   c0.042,0.16,0.128,0.24,0.256,0.24s0.293-0.042,0.496-0.128c0.202-0.085,0.395-0.128,0.575-0.128c0.182,0,0.272,0.128,0.272,0.384   s-0.384,0.811-1.152,1.664c-0.384,0.448-0.576,2.165-0.576,5.151c0,0.875,0.037,1.648,0.112,2.32   c0.074,0.672,0.112,1.275,0.112,1.809c0,1.108-0.214,1.664-0.641,1.664c-0.277,0-0.891-0.299-1.84-0.896S5.9,23.506,4.855,22.354   c-0.064-0.063-0.128-0.112-0.192-0.144c-0.064-0.032-0.229-0.049-0.496-0.049c-0.267,0-0.704-0.244-1.312-0.735   s-0.912-0.816-0.912-0.976c0-0.16,0.064-0.32,0.192-0.48c0.128-0.16,0.891-0.901,2.288-2.225c1.397-1.322,2.357-2.186,2.88-2.592   c0.522-0.405,0.832-0.693,0.929-0.864c0.096-0.17,0.144-0.421,0.144-0.752c0-0.331-0.096-0.544-0.288-0.64   c-0.192-0.096-0.619-0.144-1.28-0.144c-0.662,0-1.184,0.224-1.568,0.672c-0.171,0.171-0.325,0.256-0.464,0.256   s-0.272-0.08-0.4-0.24c-0.128-0.16-0.347-0.506-0.656-1.04c-0.309-0.533-0.464-0.864-0.464-0.992c0-0.277,0.277-0.458,0.832-0.544   c1.259-0.149,2.155-0.395,2.688-0.736c0.384-0.234,0.853-0.469,1.408-0.704s0.875-2.56,0.96-6.976c0-0.405,0.102-0.608,0.305-0.608   c0.202,0,0.555,0.08,1.056,0.24s0.752,0.341,0.752,0.544c0,0.203-0.054,0.384-0.16,0.544c-0.106,0.16-0.213,0.421-0.319,0.784   c-0.107,0.363-0.16,0.651-0.16,0.864l0.032,0.576c0,0.598-0.07,1.115-0.208,1.552c-0.14,0.438-0.208,0.774-0.208,1.008   c0,0.533,0.224,0.747,0.672,0.64C11.159,8.531,11.34,8.499,11.447,8.499z M8.759,19.891c0-0.342-0.016-0.811-0.048-1.408   c-0.032-0.597-0.069-0.922-0.112-0.977c-0.043-0.053-0.096-0.079-0.159-0.079c-0.129,0-0.337,0.176-0.624,0.528   c-0.288,0.352-0.486,0.613-0.593,0.783c-0.469,0.662-0.944,1.211-1.424,1.648s-0.72,0.783-0.72,1.04   c0,0.256,0.048,0.438,0.144,0.544c0.096,0.107,0.421,0.262,0.976,0.464c0.554,0.203,1.023,0.304,1.408,0.304   c0.384,0,0.672-0.154,0.863-0.464C8.663,21.965,8.759,21.17,8.759,19.891z M25.719,15.826c0,0.129-0.063,0.256-0.191,0.385   c-0.128,0.127-0.294,0.581-0.496,1.359c-0.203,0.779-0.619,1.813-1.248,3.104c-0.63,1.291-1.232,2.374-1.809,3.248   c-0.575,0.875-0.949,1.633-1.119,2.272c-0.064,0.277-0.225,0.416-0.48,0.416c-0.149,0-0.4-0.106-0.752-0.319   c-0.353-0.214-0.795-0.428-1.328-0.641c-1.152-0.49-2.091-1.419-2.816-2.783c-0.106-0.214-0.213-0.32-0.319-0.32   c-0.107,0-0.214,0.011-0.32,0.031c-0.661,0.214-1.28,0.32-1.855,0.32c-0.576,0-0.864-0.085-0.864-0.256   c0-0.17,0.522-0.607,1.567-1.313c1.686-1.088,3.04-2.282,4.064-3.584c1.024-1.301,1.536-2.09,1.536-2.368   c0-0.192-0.149-0.288-0.448-0.288s-0.768,0.304-1.408,0.912c-0.64,0.608-1.291,1.297-1.952,2.064s-1.173,1.275-1.535,1.52   c-0.363,0.246-0.864,0.369-1.504,0.369c-0.3,0-0.448-0.054-0.448-0.16c0-0.234,0.757-1.078,2.271-2.528   c0.96-0.917,1.44-1.546,1.44-1.888c0-0.192-0.086-0.288-0.256-0.288c-0.171,0-0.353,0.085-0.544,0.256   c-0.641,0.575-1.228,0.864-1.761,0.864c-0.575,0-0.863-0.129-0.863-0.385s0.213-0.554,0.64-0.896   c1.259-1.002,2.101-1.781,2.528-2.336c0.426-0.555,0.64-0.938,0.64-1.152c0-0.213-0.117-0.32-0.352-0.32   c-0.235,0-0.448,0.016-0.641,0.048c-0.191,0.032-0.331,0.048-0.416,0.048c-0.277,0-0.464-0.149-0.56-0.448   c-0.096-0.298-0.246-0.613-0.448-0.944c-0.203-0.331-0.304-0.592-0.304-0.784c0-0.277,0.17-0.416,0.512-0.416   c0.341,0,0.826-0.059,1.456-0.176c0.629-0.117,1.125-0.235,1.488-0.352c0.362-0.117,1.013-0.293,1.952-0.528   c0.938-0.234,1.504-0.352,1.695-0.352c0.192,0,0.341,0.069,0.448,0.208c0.106,0.139,0.299,0.491,0.576,1.056   c0.277,0.565,0.416,0.981,0.416,1.248c0,0.267-0.064,0.475-0.192,0.624c-0.128,0.149-0.352,0.213-0.672,0.192l-0.416-0.032   c-0.363,0-0.693,0.091-0.992,0.272c-0.299,0.182-0.65,0.448-1.056,0.8s-0.736,0.667-0.992,0.944S17.207,13,17.207,13.106   c0,0.235,0.128,0.352,0.384,0.352c3.114,0.021,5.248,0.315,6.4,0.88C25.143,14.904,25.719,15.4,25.719,15.826z M18.167,24.082   c0.725,0,1.429-0.458,2.112-1.375c0.683-0.918,1.269-1.937,1.76-3.057c0.49-1.119,0.736-1.957,0.736-2.512   c0-0.448-0.097-0.805-0.288-1.072c-0.192-0.267-0.396-0.4-0.608-0.4c-0.214,0-0.416,0.049-0.608,0.145   c-0.191,0.096-0.33,0.208-0.415,0.336c-0.726,1.237-1.323,2.021-1.792,2.352c-0.47,0.332-0.832,0.715-1.089,1.152   c-0.256,0.438-0.395,0.811-0.416,1.12s-0.159,0.56-0.416,0.752c-0.256,0.192-0.629,0.384-1.119,0.576   c-0.172,0.063-0.257,0.181-0.257,0.353c0,0.17,0.293,0.484,0.881,0.943C17.233,23.854,17.74,24.082,18.167,24.082z" stroke-width="1"/>
</g>
</svg>