<svg xmlns="http://www.w3.org/2000/svg" xmlns:xlink="http://www.w3.org/1999/xlink" version="1.1" id="图层_1" x="0px" y="0px" width="27.625001907348633" height="26.63100814819336" viewBox="1.6499998569488525 0.5359902381896973 27.625001907348633 26.63100814819336" style="enable-background:new 0 0 30 30;" xml:space="preserve">
  <g>
    <g>
      <path style="fill:#0000FF;" d="M11.271,11.341c0,0.149-0.123,0.368-0.368,0.656c-0.246,0.288-0.368,0.598-0.368,0.928&#13;&#10;&#9;&#9;c0,0.331-0.06,0.592-0.176,0.784c-0.118,0.192-0.214,0.47-0.288,0.832c-0.075,0.363-0.112,0.704-0.112,1.024&#13;&#10;&#9;&#9;c0,0.32-0.054,0.533-0.16,0.641c-0.106,0.106-0.304,0.16-0.592,0.16s-0.715,0.127-1.28,0.383C7.36,17.005,6.929,17.25,6.63,17.484&#13;&#10;&#9;&#9;c-0.106,0.086-0.283,0.129-0.528,0.129s-0.463-0.049-0.656-0.145c-0.192-0.096-0.56-0.484-1.104-1.168&#13;&#10;&#9;&#9;c-0.544-0.683-0.971-1.285-1.28-1.808c-0.31-0.522-0.485-0.917-0.528-1.184c-0.043-0.267-0.118-0.533-0.224-0.8&#13;&#10;&#9;&#9;c-0.107-0.267-0.16-0.453-0.16-0.56c0-0.405,0.245-0.65,0.736-0.736c0.213-0.042,0.725-0.235,1.536-0.576&#13;&#10;&#9;&#9;c1.301-0.555,2.373-0.832,3.216-0.832s1.659,0.182,2.448,0.544C10.875,10.712,11.271,11.042,11.271,11.341z M5.958,14.573&#13;&#10;&#9;&#9;c0.149,0,0.379-0.069,0.688-0.208c0.309-0.139,0.549-0.4,0.72-0.784c0.17-0.384,0.256-0.736,0.256-1.056&#13;&#10;&#9;&#9;c0-0.32-0.086-0.592-0.256-0.816c-0.171-0.224-0.374-0.336-0.608-0.336s-0.56,0.149-0.976,0.448s-0.624,0.667-0.624,1.104&#13;&#10;&#9;&#9;c0,0.438,0.064,0.821,0.192,1.152C5.478,14.408,5.681,14.573,5.958,14.573z M16.87,16.109c0,0.383,0.368,1.066,1.104,2.047&#13;&#10;&#9;&#9;c0.736,0.982,1.787,1.99,3.152,3.024c1.365,1.035,2.592,1.749,3.68,2.144c1.088,0.396,2.021,0.849,2.801,1.36&#13;&#10;&#9;&#9;c0.778,0.513,1.168,0.907,1.168,1.185c0,0.276-0.288,0.479-0.864,0.607s-1.056,0.191-1.44,0.191c-0.384,0-0.672-0.031-0.863-0.096&#13;&#10;&#9;&#9;c-0.726-0.213-2.06-0.459-4-0.735c-0.342-0.044-0.571-0.144-0.688-0.304s-0.176-0.443-0.176-0.849c0-1.621-0.533-2.603-1.601-2.944&#13;&#10;&#9;&#9;c-0.171-0.042-0.373-0.164-0.607-0.367c-0.235-0.203-0.422-0.416-0.561-0.641c-0.139-0.224-0.512-0.538-1.119-0.943&#13;&#10;&#9;&#9;c-0.608-0.405-0.982-0.608-1.12-0.608c-0.14,0-0.268,0.048-0.385,0.144c-0.117,0.097-0.197,0.188-0.239,0.272&#13;&#10;&#9;&#9;c-1.024,2.026-2.149,3.659-3.376,4.896c-1.228,1.237-2.374,1.856-3.44,1.856c-0.235,0-0.47-0.032-0.704-0.096&#13;&#10;&#9;&#9;c-0.234-0.064-0.352-0.155-0.352-0.272s0.148-0.283,0.447-0.496c0.641-0.447,1.227-0.992,1.761-1.632&#13;&#10;&#9;&#9;c0.533-0.64,1.108-1.269,1.728-1.888s1.237-1.637,1.856-3.057c0.618-1.418,0.971-2.746,1.056-3.983&#13;&#10;&#9;&#9;c0.021-0.448,0.112-0.741,0.272-0.88c0.159-0.139,0.389-0.208,0.688-0.208s0.672,0.059,1.12,0.176&#13;&#10;&#9;&#9;c0.448,0.118,0.741,0.246,0.88,0.384c0.139,0.139,0.282,0.208,0.432,0.208s0.459-0.208,0.929-0.624&#13;&#10;&#9;&#9;c0.469-0.416,0.869-0.949,1.2-1.6c0.33-0.651,0.495-1.184,0.495-1.6s-0.336-0.624-1.008-0.624s-1.439,0.219-2.304,0.656&#13;&#10;&#9;&#9;c-0.864,0.438-1.478,0.944-1.84,1.52c-0.363,0.576-0.827,1.046-1.393,1.408c-0.565,0.363-1.146,0.544-1.743,0.544&#13;&#10;&#9;&#9;c-0.406,0-0.608-0.096-0.608-0.288c0-0.32,0.874-1.771,2.624-4.352c0.469-0.682,0.949-1.802,1.44-3.36&#13;&#10;&#9;&#9;c0.49-1.557,0.863-3.072,1.119-4.544c0.021-0.192,0.112-0.357,0.272-0.496c0.16-0.139,0.362-0.208,0.608-0.208&#13;&#10;&#9;&#9;c0.244,0,0.564,0.112,0.96,0.336c0.395,0.224,0.592,0.443,0.592,0.656c0,0.213-0.08,0.427-0.24,0.64&#13;&#10;&#9;&#9;c-0.16,0.214-0.277,0.432-0.352,0.656c-0.075,0.224-0.134,0.576-0.177,1.056s-0.176,1.062-0.399,1.744&#13;&#10;&#9;&#9;c-0.225,0.683-0.438,1.184-0.641,1.504c-0.203,0.32-0.411,0.709-0.624,1.168c-0.213,0.459-0.319,0.747-0.319,0.864&#13;&#10;&#9;&#9;c0,0.118,0.042,0.176,0.128,0.176c0.085,0,0.181-0.021,0.288-0.064c1.301-0.576,2.25-0.864,2.848-0.864&#13;&#10;&#9;&#9;c0.597,0,1.387,0.155,2.368,0.464c0.98,0.31,1.728,0.688,2.24,1.136c0.512,0.448,0.768,0.79,0.768,1.024&#13;&#10;&#9;&#9;c0,0.235-0.512,0.699-1.536,1.392c-1.023,0.693-2.869,1.403-5.536,2.128c-0.319,0.085-0.527,0.246-0.624,0.48&#13;&#10;&#9;&#9;C16.918,15.768,16.87,15.959,16.87,16.109z" stroke-width="1"/>
    </g>
    <g/>
    <g/>
    <g/>
    <g/>
    <g/>
    <g/>
    <g/>
    <g/>
    <g/>
    <g/>
    <g/>
    <g/>
    <g/>
    <g/>
    <g/>
  </g>
</svg>