<svg xmlns="http://www.w3.org/2000/svg" xmlns:xlink="http://www.w3.org/1999/xlink" version="1.1" id="图层_1" x="0px" y="0px" width="24.68000030517578" height="27.878997802734375" viewBox="2.0830001831054688 1.9509978294372559 24.68000030517578 27.878997802734375" enable-background="new 0 0 30 30" xml:space="preserve">
<g>
	<path fill="#0000FF" d="M12.887,3.187c0,0.107-0.021,0.246-0.063,0.416c-0.171,0.619-0.368,1.974-0.592,4.064   c-0.225,2.091-0.32,3.339-0.288,3.744c0.031,0.405,0.048,0.757,0.048,1.056c0,0.854-0.155,1.691-0.464,2.512   c-0.31,0.821-0.758,1.738-1.345,2.752s-0.917,1.638-0.991,1.872c-0.075,0.235-0.112,0.501-0.112,0.8s-0.256,0.619-0.769,0.96   c-0.512,0.342-0.96,0.64-1.344,0.896c-0.384,0.257-0.928,0.385-1.632,0.385c-1.835,0-2.752-0.191-2.752-0.576   c0-0.234,0.373-0.512,1.12-0.832c1.386-0.597,2.395-1.119,3.024-1.568c0.629-0.447,1.221-1.066,1.776-1.855   s0.976-1.861,1.264-3.216s0.433-2.864,0.433-4.528l-0.097-3.232c0-0.875,0.021-1.717,0.064-2.528   c0.043-0.811,0.144-1.312,0.304-1.504c0.16-0.192,0.603-0.288,1.328-0.288S12.887,2.738,12.887,3.187z M7.991,6.738   c0,0.15-0.043,0.374-0.128,0.672c-0.256,0.96-0.385,2.027-0.385,3.2l0.129,4c0,0.406-0.043,0.709-0.129,0.912   c-0.085,0.203-0.341,0.433-0.768,0.688s-0.72,0.384-0.88,0.384s-0.283-0.128-0.368-0.384c-0.085-0.256-0.203-1.093-0.352-2.512   c-0.149-1.419-0.224-2.624-0.224-3.616s0.069-1.845,0.208-2.56c0.138-0.714,0.272-1.157,0.4-1.328   c0.128-0.17,0.32-0.256,0.576-0.256c0.256,0,0.576,0.032,0.96,0.096c0.384,0.064,0.64,0.149,0.768,0.256   C7.927,6.397,7.991,6.546,7.991,6.738z M26.263,9.747c0,0.043-0.011,0.107-0.031,0.192c-0.064,0.213-0.097,0.619-0.097,1.216   c0,0.598-0.059,1.206-0.176,1.824c-0.117,0.619-0.299,1.478-0.544,2.576s-0.453,2.117-0.624,3.056   c-0.043,0.278-0.224,0.416-0.544,0.416c-0.704,0-1.867-0.427-3.488-1.28c-0.106-0.063-0.203-0.096-0.288-0.096   s-0.154,0.08-0.208,0.24c-0.053,0.16-0.123,0.783-0.208,1.872c-0.085,1.088-0.128,2.144-0.128,3.168s0.048,2.096,0.145,3.216   c0.096,1.119,0.144,1.691,0.144,1.713c0,0.553-0.139,0.938-0.416,1.15s-0.683,0.32-1.216,0.32s-0.8-0.148-0.8-0.447   c0-0.107,0.032-0.225,0.096-0.352c0.213-0.449,0.32-0.902,0.32-1.361s-0.021-1.008-0.064-1.647s-0.063-1.333-0.063-2.08v-2.144   c0-1.686-0.032-3.686-0.097-6c-0.063-2.314-0.111-3.563-0.144-3.744s-0.117-0.272-0.256-0.272c-0.14,0-0.396,0.075-0.769,0.224   c-0.373,0.15-0.624,0.262-0.752,0.336c-0.128,0.075-0.251,0.267-0.368,0.576c-0.117,0.31-0.213,0.688-0.287,1.136   c-0.075,0.448-0.112,0.933-0.112,1.456c0,0.522,0.037,1.008,0.112,1.456c0.074,0.447,0.111,0.683,0.111,0.703   c0,0.192-0.117,0.391-0.352,0.593c-0.235,0.202-0.416,0.304-0.544,0.304c-0.342,0-0.667-0.389-0.977-1.168   c-0.31-0.778-0.464-1.946-0.464-3.504c0-0.576,0.032-1.109,0.096-1.6c0.064-0.49,0.139-0.832,0.225-1.024   c0.085-0.192,0.191-0.309,0.32-0.352c0.128-0.042,0.352-0.064,0.672-0.064c0.319,0,0.896-0.123,1.728-0.368   c0.832-0.245,1.296-0.395,1.393-0.448c0.096-0.053,0.144-0.197,0.144-0.432l0.064-1.248c0-0.277-0.24-0.416-0.721-0.416   c-0.479,0-0.806,0.085-0.976,0.256c-0.171,0.171-0.342,0.256-0.512,0.256c-0.172,0-0.353-0.25-0.544-0.752   c-0.192-0.501-0.39-0.938-0.593-1.312c-0.203-0.373-0.304-0.645-0.304-0.816c0-0.533,0.811-0.864,2.432-0.992   c1.024-0.085,1.952-0.218,2.784-0.4c0.832-0.181,1.749-0.432,2.752-0.752c1.003-0.32,1.589-0.48,1.76-0.48s0.257,0.155,0.257,0.464   c0,0.31,0.021,0.582,0.063,0.816c0.043,0.235,0.064,0.443,0.064,0.624c0,0.182-0.06,0.368-0.177,0.56s-0.538,0.48-1.264,0.864   c-0.726,0.384-1.365,0.715-1.92,0.992c-0.214,0.107-0.347,0.246-0.4,0.416c-0.053,0.171-0.079,0.619-0.079,1.344   c0,0.171,0.042,0.277,0.128,0.32c0.085,0.043,0.288,0.048,0.607,0.016c0.32-0.032,0.778-0.048,1.376-0.048s1.365,0.085,2.305,0.256   C25.794,9.246,26.263,9.47,26.263,9.747z M21.143,16.274c0.342,0,0.688-0.059,1.04-0.176c0.353-0.117,0.576-0.677,0.673-1.68   c0.096-1.002,0.144-1.749,0.144-2.24s-0.107-0.859-0.32-1.104s-0.598-0.368-1.151-0.368c-0.704,0-1.072,0.091-1.104,0.272   c-0.032,0.182-0.059,0.646-0.08,1.392c-0.021,0.747-0.032,1.387-0.032,1.92c0,0.832,0.017,1.372,0.049,1.616   C20.391,16.152,20.652,16.274,21.143,16.274z" stroke-width="1"/>
</g>
</svg>