<svg xmlns="http://www.w3.org/2000/svg" xmlns:xlink="http://www.w3.org/1999/xlink" version="1.1" id="图层_1" x="0px" y="0px" width="26.120004653930664" height="24.489002227783203" viewBox="1.955996036529541 2.255000114440918 26.120004653930664 24.489002227783203" enable-background="new 0 0 30 30" xml:space="preserve">
<g>
	<path fill="#0000FF" d="M25.656,9.923c0.276,0,0.506,0.208,0.688,0.624s0.453,0.827,0.816,1.232c0.276,0.32,0.416,0.747,0.416,1.28   s-0.117,0.8-0.353,0.8c-0.063,0-0.139-0.021-0.224-0.064c-0.576-0.277-1.328-0.49-2.256-0.64c-0.928-0.149-1.984-0.224-3.168-0.224   c-1.185,0-2.112,0.043-2.784,0.128c-0.672,0.085-1.259,0.139-1.76,0.16c-0.502,0.021-0.816,0.101-0.944,0.24   c-0.128,0.139-0.267,0.507-0.416,1.104c-0.149,0.598-0.224,1.087-0.224,1.472c0,0.384,0.032,0.64,0.096,0.768   c0.064,0.129,0.293,0.176,0.688,0.145c0.395-0.032,0.868-0.049,1.424-0.049c1.792,0,3.285,0.235,4.479,0.705   c1.194,0.469,1.792,0.906,1.792,1.312c0,0.171-0.139,0.341-0.416,0.512s-0.522,0.448-0.735,0.832   c-0.47,0.939-0.981,1.824-1.536,2.656c-0.235,0.384-0.353,0.736-0.353,1.056c0,0.32-0.043,0.57-0.128,0.752   s-0.182,0.288-0.288,0.32s-0.469,0.048-1.088,0.048s-1.771,0.123-3.456,0.368s-2.773,0.438-3.264,0.576   c-0.491,0.139-0.79,0.208-0.896,0.208c-0.469,0-1.125-0.592-1.968-1.776c-0.843-1.184-1.408-2.144-1.696-2.88   c-0.288-0.735-0.491-1.2-0.607-1.392c-0.118-0.192-0.176-0.353-0.176-0.48c0-0.384,0.341-0.66,1.024-0.832   c0.341-0.085,0.858-0.266,1.553-0.544c0.692-0.276,1.247-0.475,1.663-0.592s0.673-0.245,0.769-0.384s0.219-0.619,0.368-1.44   c0.148-0.821,0.224-1.402,0.224-1.744s-0.069-0.512-0.208-0.512s-0.262,0.011-0.368,0.032c-1.771,0.469-3.264,0.736-4.48,0.8   c-1.408,0.064-2.347,0.155-2.816,0.272c-0.469,0.118-0.79,0.31-0.96,0.576c-0.171,0.266-0.331,0.4-0.48,0.4   c-0.32,0-0.592-0.378-0.816-1.136c-0.224-0.757-0.336-1.28-0.336-1.568S2.637,12.611,3,12.611l0.704,0.064   c0.618,0,1.461-0.085,2.528-0.256c1.066-0.17,2.363-0.442,3.888-0.816c1.524-0.373,2.442-0.592,2.752-0.656   c0.309-0.064,0.475-0.181,0.496-0.352l0.32-2.592c0.17-1.536,0.256-2.677,0.256-3.424L13.88,3.171c0-0.277,0.064-0.416,0.192-0.416   s0.234,0.021,0.319,0.064c0.257,0.107,0.795,0.262,1.616,0.464s1.296,0.304,1.424,0.304c0.213,0,0.32,0.075,0.32,0.224   c0,0.149-0.054,0.31-0.16,0.48c-0.277,0.384-0.549,1.147-0.815,2.288c-0.268,1.142-0.4,2.171-0.4,3.088   c0,0.534,0.192,0.8,0.576,0.8c0.042,0,0.416-0.021,1.12-0.064c0.704-0.042,1.546-0.064,2.527-0.064l1.952,0.032   c0.938,0,1.813-0.117,2.624-0.352C25.368,9.955,25.528,9.923,25.656,9.923z M12.92,23.299c0.171,0,0.667-0.068,1.488-0.208   c0.82-0.139,1.647-0.218,2.479-0.239c0.619-0.021,1.083-0.379,1.393-1.072c0.309-0.693,0.464-1.248,0.464-1.664   s-0.112-0.699-0.336-0.848c-0.225-0.149-0.693-0.225-1.408-0.225s-1.627,0.096-2.736,0.288s-1.894,0.501-2.352,0.928   c-0.459,0.427-0.688,0.875-0.688,1.345c0,0.469,0.145,0.869,0.433,1.199C11.944,23.134,12.365,23.299,12.92,23.299z" stroke-width="1"/>
</g>
</svg>