<svg xmlns="http://www.w3.org/2000/svg" xmlns:xlink="http://www.w3.org/1999/xlink" version="1.1" id="图层_1" x="0px" y="0px" width="24.198997497558594" height="27.751998901367188" viewBox="1.7320013046264648 0.4780004024505615 24.198997497558594 27.751998901367188" enable-background="new 0 0 30 30" xml:space="preserve">
<g>
	<path fill="#0000FF" d="M25.431,12.818c0,0.085-0.102,0.256-0.304,0.512c-0.203,0.256-0.352,0.475-0.448,0.656   c-0.096,0.182-0.165,0.443-0.208,0.784c-0.128,1.109-0.757,3.228-1.888,6.353s-1.878,5.008-2.24,5.647s-0.661,0.96-0.896,0.96   c-0.235,0-1.008-0.432-2.32-1.296c-1.312-0.864-2.271-1.605-2.88-2.224c-0.608-0.619-0.912-1.014-0.912-1.185   c0-0.063,0.037-0.096,0.112-0.096c0.074,0,0.187,0.032,0.336,0.096c1.685,0.704,2.8,1.056,3.344,1.056s0.933-0.084,1.168-0.256   c0.234-0.17,0.448-0.479,0.64-0.928l0.801-1.952c0.362-0.853,0.677-2.128,0.943-3.823c0.267-1.696,0.4-2.731,0.4-3.104   c0-0.373-0.214-0.725-0.64-1.056c-0.428-0.331-0.844-0.496-1.248-0.496c-0.406,0-1.089,0.187-2.049,0.56   c-0.96,0.374-1.52,0.64-1.68,0.8c-0.16,0.16-0.422,0.48-0.784,0.96s-0.544,0.795-0.544,0.944c0,0.149,0.097,0.277,0.288,0.385   c1.643,0.831,2.464,1.589,2.464,2.271c0,0.469-0.063,0.843-0.191,1.119c-0.128,0.278-0.342,0.593-0.641,0.945   c-0.299,0.352-0.501,0.527-0.607,0.527c-0.107,0-0.299-0.225-0.576-0.672c-1.131-1.877-1.878-2.816-2.24-2.816   c-0.128,0-0.288,0.112-0.479,0.336c-0.192,0.225-0.523,0.582-0.992,1.072l-1.28,1.28c-0.342,0.362-0.672,0.886-0.992,1.567   c-0.319,0.684-0.491,1.223-0.512,1.616c-0.021,0.396-0.117,0.624-0.288,0.688c-0.235,0.085-0.678,0.395-1.328,0.928   c-0.651,0.533-1.2,0.885-1.648,1.057c-0.448,0.17-1.04,0.256-1.776,0.256s-1.104-0.14-1.104-0.416c0-0.107,0.08-0.262,0.24-0.465   c0.16-0.203,0.608-0.623,1.344-1.264s1.349-1.141,1.84-1.504s0.96-0.805,1.408-1.328c0.448-0.522,1.147-1.498,2.096-2.928   s1.541-2.342,1.775-2.736c0.235-0.395,0.353-0.645,0.353-0.752c0-0.106-0.086-0.16-0.256-0.16c-0.428,0-1.408,0.208-2.944,0.624   S5.42,16.35,4.695,17.074c-0.128,0.129-0.251,0.192-0.368,0.192c-0.118,0-0.235-0.106-0.352-0.32   c-0.118-0.213-0.299-0.587-0.544-1.12c-0.246-0.533-0.368-0.912-0.368-1.136s0.149-0.346,0.448-0.368   c0.981-0.107,2.24-0.357,3.776-0.752c1.536-0.395,2.741-0.773,3.616-1.136c0.874-0.363,1.482-0.592,1.823-0.688   c0.342-0.096,0.565-0.187,0.673-0.272c0.106-0.085,0.426-0.635,0.96-1.648c0.532-1.013,0.917-1.808,1.151-2.384   c1.066-2.517,1.776-4.085,2.128-4.704c0.353-0.618,0.55-1.066,0.593-1.344c0.042-0.277,0.116-0.416,0.224-0.416   c0.106,0,0.485,0.224,1.136,0.672c0.65,0.448,0.977,0.758,0.977,0.928c0,0.171-0.172,0.454-0.513,0.848s-0.613,0.779-0.815,1.152   c-0.203,0.374-0.565,1.173-1.088,2.4c-0.523,1.227-0.854,2.075-0.992,2.544c-0.14,0.47-0.208,0.822-0.208,1.056   c0,0.235,0.122,0.341,0.368,0.32c0.245-0.021,0.527-0.032,0.848-0.032c1.365,0,2.917,0.245,4.656,0.736   C24.562,12.094,25.431,12.499,25.431,12.818z M12.919,5.331c0.192,0,0.379,0.032,0.56,0.096c0.182,0.064,0.272,0.155,0.272,0.272   s-0.134,0.272-0.4,0.464s-0.533,0.448-0.8,0.768c-0.267,0.32-0.683,0.672-1.248,1.056c-0.565,0.384-0.986,0.8-1.264,1.248   c-0.086,0.107-0.208,0.16-0.368,0.16S9.292,9.139,9.015,8.626C8.737,8.115,8.476,7.699,8.231,7.378   c-0.246-0.32-0.368-0.544-0.368-0.672s0.053-0.229,0.16-0.304c0.106-0.074,0.309-0.154,0.607-0.24l2.112-0.48   C11.81,5.448,12.535,5.331,12.919,5.331z" stroke-width="1"/>
</g>
</svg>