<svg xmlns="http://www.w3.org/2000/svg" xmlns:xlink="http://www.w3.org/1999/xlink" version="1.1" id="图层_1" x="0px" y="0px" width="30.759998321533203" height="26.79399871826172" viewBox="-1.020998239517212 0.9899992942810059 30.759998321533203 26.79399871826172" enable-background="new 0 0 30 30" xml:space="preserve">
<g>
	<path fill="#0000FF" d="M19.607,19.858c0,0.192,0.522,0.619,1.567,1.28s2.219,1.179,3.521,1.552   c1.301,0.374,2.314,0.704,3.04,0.992c0.725,0.288,1.156,0.496,1.296,0.624c0.139,0.128,0.208,0.271,0.208,0.432   s-0.24,0.32-0.721,0.48c-0.479,0.16-1.04,0.24-1.68,0.24s-1.248-0.038-1.824-0.112c-0.575-0.075-1.184-0.134-1.823-0.177   c-0.214-0.021-0.368-0.09-0.465-0.207c-0.096-0.117-0.219-0.448-0.367-0.992c-0.149-0.544-0.476-0.997-0.977-1.36   c-0.501-0.362-0.837-0.544-1.008-0.544s-0.267,0.075-0.288,0.225c-0.32,1.066-0.8,2.016-1.439,2.848   c-0.641,0.832-1.302,1.365-1.984,1.6c-0.086,0.021-0.24,0.117-0.464,0.288c-0.225,0.171-0.411,0.257-0.561,0.257l-0.319-0.033   c-0.192,0-0.348-0.074-0.464-0.224c-0.118-0.149-0.257-0.555-0.416-1.216c-0.16-0.662-0.24-1.371-0.24-2.128   s0.011-1.392,0.032-1.904l0.063-1.312c0-0.086-0.021-0.129-0.063-0.129c-0.043,0-0.283,0.252-0.721,0.752   c-0.438,0.502-0.72,0.892-0.848,1.168c-0.128,0.278-0.272,0.471-0.432,0.576c-0.16,0.107-0.443,0.235-0.849,0.385   s-0.811,0.224-1.216,0.224l-0.992-0.063c-0.085,0-0.144,0.048-0.176,0.144c-0.032,0.097-0.048,0.485-0.048,1.168v1.792   c0,0.385-0.134,0.576-0.4,0.576s-0.938-0.271-2.016-0.816c-1.078-0.543-1.926-1.136-2.544-1.775   c-0.619-0.641-0.928-1.024-0.928-1.152c0-0.043,0.032-0.064,0.096-0.064s0.181,0.033,0.352,0.097   c1.173,0.384,1.989,0.575,2.448,0.575c0.458,0,0.778-0.058,0.96-0.176c0.181-0.117,0.309-0.287,0.384-0.512   c0.075-0.224,0.145-0.854,0.208-1.888c0.064-1.034,0.097-2.037,0.097-3.009c0-0.97-0.012-1.764-0.032-2.383   c-0.021-0.619-0.038-0.95-0.048-0.993c-0.012-0.042-0.032-0.064-0.064-0.064s-0.069,0.021-0.112,0.064   c-0.32,0.363-0.981,1.045-1.983,2.048c-0.256,0.256-0.47,0.571-0.64,0.944c-0.171,0.373-0.256,0.693-0.256,0.959   c0,0.268-0.054,0.48-0.16,0.641c-0.107,0.16-0.475,0.432-1.104,0.816c-0.629,0.383-1.158,0.65-1.584,0.799   c-0.427,0.15-0.891,0.225-1.392,0.225c-0.501,0-0.752-0.059-0.752-0.176s0.144-0.325,0.432-0.624s1.264-1.152,2.928-2.56   c0.896-0.747,1.536-1.461,1.92-2.145c0.747-1.301,1.461-2.4,2.144-3.296c0.32-0.405,0.48-0.747,0.48-1.024   c0-0.96-0.075-1.44-0.224-1.44c-0.043,0-0.262,0.192-0.656,0.576c-0.395,0.384-0.949,0.891-1.664,1.52   c-0.715,0.629-1.136,0.976-1.264,1.04c-0.128,0.064-0.262,0.096-0.4,0.096s-0.208-0.085-0.208-0.256c0-0.32,0.832-1.707,2.496-4.16   c0.469-0.725,0.725-1.12,0.768-1.184C6.273,7.699,6.295,7.634,6.295,7.57c0-0.234-0.427-0.512-1.28-0.832   C4.652,6.61,4.471,6.499,4.471,6.402c0-0.096,0.096-0.197,0.288-0.304c0.192-0.106,0.491-0.16,0.896-0.16s0.864,0.107,1.376,0.32   C7.074,6.28,7.116,6.291,7.159,6.291c0.148,0,0.384-0.256,0.704-0.768c0.319-0.512,0.532-0.896,0.64-1.152   c0.106-0.256,0.267-0.384,0.48-0.384c0.404,0,0.82,0.246,1.248,0.736c0.426,0.491,0.64,0.928,0.64,1.312   c0,0.171-0.054,0.32-0.16,0.448c-0.107,0.128-0.368,0.411-0.784,0.848C9.511,7.768,9.266,8.029,9.191,8.115   C9.116,8.2,9.079,8.328,9.079,8.499c0,0.171,0.106,0.352,0.32,0.544c0.682,0.534,1.023,0.896,1.023,1.088   c0,0.192-0.063,0.374-0.191,0.544c-0.172,0.235-0.38,0.555-0.624,0.96c-0.246,0.406-0.38,0.667-0.4,0.784   c-0.021,0.118-0.032,0.688-0.032,1.712l0.064,3.489c0,0.896-0.032,1.941-0.097,3.135l-0.063,1.537c0,0.148,0.032,0.224,0.096,0.224   c0.213,0,0.832-0.288,1.856-0.864c1.023-0.576,1.754-1.199,2.191-1.872c0.438-0.672,0.656-1.083,0.656-1.231   c0-0.149-0.054-0.277-0.16-0.385c-0.533-0.426-0.943-0.959-1.231-1.6s-0.433-1.066-0.433-1.28s0.112-0.395,0.336-0.544   c0.225-0.149,1.146-0.453,2.769-0.912c1.621-0.458,2.72-0.688,3.296-0.688c0.725,0,1.402,0.166,2.032,0.496   c0.629,0.331,0.943,0.598,0.943,0.8c0,0.203-0.176,0.565-0.527,1.088c-0.353,0.522-0.699,0.901-1.04,1.136   c-0.342,0.235-0.593,0.47-0.752,0.704c-0.16,0.235-0.31,0.38-0.448,0.433s-0.4,0.091-0.784,0.111   c-0.384,0.021-0.576,0.054-0.576,0.096c0,0.043,0.154,0.177,0.464,0.4c0.31,0.225,0.507,0.368,0.593,0.432   c0.085,0.064,0.159,0.097,0.224,0.097c0.171,0,0.683-0.32,1.536-0.96c0.853-0.641,1.524-1.227,2.016-1.76   c0.128-0.149,0.251-0.225,0.368-0.225s0.304,0.145,0.561,0.432c0.256,0.289,0.384,0.551,0.384,0.785s-0.182,0.404-0.544,0.512   c-0.363,0.106-0.672,0.229-0.929,0.367c-0.256,0.14-0.688,0.428-1.296,0.864c-0.607,0.438-0.938,0.688-0.992,0.753   C19.634,19.763,19.607,19.816,19.607,19.858z M22.711,10.002c0.234,0,0.533,0.288,0.896,0.864c0.362,0.576,0.544,0.981,0.544,1.216   c0,0.235-0.075,0.352-0.225,0.352s-0.299-0.021-0.448-0.064c-0.789-0.277-1.663-0.416-2.623-0.416c-0.961,0-1.761,0.064-2.4,0.192   s-1.691,0.363-3.152,0.704s-3.023,0.757-4.688,1.248c-0.107,0.021-0.214,0.032-0.32,0.032s-0.214-0.16-0.32-0.48   c-0.106-0.32-0.159-0.581-0.159-0.784s0.213-0.325,0.64-0.368c0.576-0.064,1.557-0.336,2.944-0.816   c1.386-0.48,2.133-0.725,2.239-0.736c0.106-0.01,0.16-0.122,0.16-0.336l-0.032-0.672c0-0.128-0.074-0.181-0.224-0.16   c-0.277,0.064-0.56,0.096-0.848,0.096s-0.55,0.064-0.784,0.192c-0.235,0.128-0.416,0.192-0.544,0.192s-0.225-0.09-0.288-0.272   c-0.064-0.181-0.192-0.485-0.384-0.912c-0.192-0.427-0.288-0.715-0.288-0.864c0-0.149,0.219-0.245,0.656-0.288   c0.437-0.042,0.96-0.128,1.567-0.256c0.608-0.128,0.944-0.218,1.008-0.272c0.064-0.053,0.097-0.144,0.097-0.272   c0-2.475,0.016-4.032,0.048-4.672c0.032-0.64,0.304-0.96,0.815-0.96c0.213,0,0.608,0.101,1.185,0.304   c0.576,0.203,0.864,0.411,0.864,0.624c0,0.064-0.021,0.149-0.064,0.256c-0.299,0.854-0.448,2.123-0.448,3.808   c0,0.213,0.106,0.299,0.32,0.256c0.832-0.256,1.387-0.384,1.664-0.384c0.448,0,0.672,0.341,0.672,1.024   c0,0.192-0.037,0.368-0.112,0.528c-0.075,0.16-0.171,0.272-0.288,0.336s-0.49,0.197-1.12,0.4c-0.629,0.203-0.976,0.326-1.039,0.368   c-0.064,0.043-0.097,0.219-0.097,0.528c0,0.31,0.017,0.533,0.048,0.672c0.032,0.139,0.091,0.208,0.177,0.208l1.535-0.096   c1.109-0.085,1.841-0.16,2.192-0.224C22.439,10.035,22.647,10.002,22.711,10.002z M14.967,16.69c0.192,0,0.698-0.085,1.521-0.256   c0.82-0.171,1.231-0.513,1.231-1.024c0-0.512-0.234-0.768-0.704-0.768c-0.319,0-0.811,0.192-1.472,0.576   c-0.661,0.384-0.992,0.725-0.992,1.023S14.689,16.69,14.967,16.69z M16.215,24.69c0.299,0,0.757-0.144,1.376-0.433   c0.619-0.287,1.142-0.672,1.568-1.151s0.64-0.784,0.64-0.912s-0.063-0.213-0.191-0.256c-0.513-0.171-1.035-0.544-1.568-1.12   c-0.149-0.148-0.496-0.33-1.04-0.544c-0.544-0.213-0.859-0.319-0.944-0.319s-0.154,0.043-0.208,0.127   c-0.053,0.086-0.128,0.454-0.224,1.104c-0.096,0.651-0.145,1.265-0.145,1.84c0,0.576,0.054,0.997,0.16,1.265   C15.745,24.557,15.938,24.69,16.215,24.69z" stroke-width="1"/>
</g>
</svg>