<svg xmlns="http://www.w3.org/2000/svg" xmlns:xlink="http://www.w3.org/1999/xlink" version="1.1" id="图层_1" x="0px" y="0px" width="25.737003326416016" height="27.528995513916016" viewBox="2.5640010833740234 0.14300167560577393 25.737003326416016 27.528995513916016" enable-background="new 0 0 30 30" xml:space="preserve">
<g>
	<path fill="#0000FF" d="M11.672,11.971c0.192,0,0.464,0.181,0.816,0.544c0.352,0.363,0.597,0.613,0.735,0.752   s0.208,0.315,0.208,0.528c0,0.384-0.159,0.683-0.479,0.896c-0.939,0.576-1.744,1.232-2.416,1.968   c-0.672,0.735-1.008,1.231-1.008,1.487c0,0.129,0.16,0.299,0.479,0.513c0.32,0.214,0.544,0.399,0.672,0.56s0.192,0.326,0.192,0.496   c0,0.172-0.032,0.428-0.096,0.768c-0.363,1.58-0.544,2.924-0.544,4.032c0,0.277,0.016,0.518,0.048,0.721   c0.031,0.202,0.048,0.389,0.048,0.56c0,0.533-0.197,0.896-0.592,1.088c-0.396,0.192-0.726,0.288-0.992,0.288   c-0.268,0-0.4-0.277-0.4-0.832c0-1.877-0.021-3.285-0.063-4.224c-0.043-0.939-0.086-1.482-0.128-1.633   c-0.043-0.148-0.107-0.224-0.192-0.224c-0.085,0-0.363,0.214-0.832,0.64c-0.469,0.428-0.998,0.764-1.584,1.009   c-0.587,0.245-1.286,0.368-2.096,0.368c-0.256,0-0.384-0.053-0.384-0.16s0.128-0.277,0.384-0.512   c2.474-2.177,4.202-3.873,5.184-5.088c0.981-1.217,1.813-2.571,2.496-4.064C11.277,12.131,11.459,11.971,11.672,11.971z    M17.176,15.395c-0.043,0.277-0.005,0.416,0.112,0.416s0.613-0.352,1.488-1.056c0.874-0.704,1.567-1.418,2.08-2.144   c0.128-0.192,0.271-0.288,0.432-0.288s0.432,0.245,0.815,0.736c0.385,0.491,0.576,0.917,0.576,1.28   c0,0.149-0.096,0.267-0.288,0.352c-0.747,0.363-1.669,0.956-2.768,1.776c-1.099,0.822-1.819,1.35-2.16,1.584   c-0.342,0.235-0.533,0.438-0.576,0.608s-0.063,0.726-0.063,1.664c0,1.963,0.25,3.227,0.752,3.792   c0.501,0.564,1.173,0.848,2.016,0.848s1.69-0.048,2.544-0.144c0.854-0.097,1.478-0.225,1.872-0.385   c0.395-0.159,0.677-0.373,0.849-0.64c0.17-0.267,0.324-0.757,0.464-1.472c0.139-0.715,0.224-1.307,0.256-1.776   c0.032-0.469,0.048-1.301,0.048-2.496c0-0.49,0.064-0.736,0.192-0.736c0.298,0,0.703,1.115,1.216,3.345   c0.512,2.229,0.768,4.037,0.768,5.424c0,0.299-0.048,0.496-0.144,0.592c-0.097,0.097-0.229,0.154-0.4,0.176   s-0.683,0.054-1.536,0.097l-2.752,0.128c-0.981,0.042-2.054,0.063-3.216,0.063c-1.163,0-1.861-0.053-2.096-0.16   c-0.235-0.106-0.624-0.464-1.168-1.071c-0.544-0.608-0.886-1.265-1.024-1.968c-0.139-0.704-0.208-1.44-0.208-2.209l0.064-1.92   c0-0.234-0.043-0.352-0.128-0.352c-0.086,0-0.192,0.032-0.32,0.096c-0.533,0.235-0.976,0.353-1.328,0.353   c-0.352,0-0.528-0.064-0.528-0.192s0.272-0.442,0.816-0.943c0.544-0.502,0.928-0.843,1.152-1.024   c0.224-0.181,0.373-0.362,0.447-0.544c0.075-0.182,0.16-0.645,0.257-1.393c0.096-0.746,0.144-1.301,0.144-1.664   c0-0.362-0.086-0.709-0.256-1.04c-0.171-0.331-0.225-0.576-0.16-0.736c0.064-0.16,0.122-0.341,0.176-0.544   c0.053-0.203,0.171-0.533,0.353-0.992c0.181-0.458,0.271-0.752,0.271-0.88s-0.069-0.208-0.208-0.24   c-0.139-0.032-0.347-0.112-0.624-0.24s-0.56-0.192-0.848-0.192s-0.561,0.043-0.816,0.128c-0.256,0.085-0.411,0.203-0.464,0.352   c-0.054,0.149-0.08,0.421-0.08,0.816c0,0.395-0.091,0.646-0.271,0.752c-0.182,0.107-0.448,0.16-0.801,0.16   c-0.352,0-0.592-0.235-0.72-0.704c-0.063-0.213-0.245-0.32-0.544-0.32c-0.106,0-0.518,0.107-1.231,0.32   C8.893,11,8.429,11.171,8.216,11.299s-0.405,0.192-0.576,0.192c-0.171,0-0.379-0.336-0.624-1.008   C6.771,9.811,6.648,9.395,6.648,9.235c0-0.16,0.075-0.272,0.224-0.336C7.021,8.835,7.304,8.803,7.72,8.803   c0.416,0,0.997-0.059,1.744-0.176c0.747-0.117,1.163-0.197,1.248-0.24c0.085-0.042,0.128-0.123,0.128-0.24   c0-0.117-0.011-0.24-0.032-0.368l-0.319-1.952c-0.171-1.237-0.256-1.888-0.256-1.952c0-0.405,0.202-0.608,0.607-0.608   c0.192,0,0.565,0.08,1.12,0.24c0.555,0.16,0.912,0.304,1.072,0.432s0.24,0.277,0.24,0.448s-0.027,0.363-0.08,0.576   c-0.054,0.213-0.08,0.731-0.08,1.552s0.016,1.275,0.048,1.36c0.032,0.085,0.154,0.128,0.368,0.128c0.575,0,0.98,0.021,1.216,0.064   c0.234,0.043,0.464,0.064,0.688,0.064c0.225,0,0.571-0.074,1.04-0.224c0.47-0.149,0.752-0.283,0.849-0.4   c0.096-0.117,0.314-0.613,0.655-1.488c0.342-0.875,0.736-1.803,1.185-2.784c0.448-0.981,0.714-1.749,0.8-2.304   c0.021-0.192,0.133-0.288,0.336-0.288c0.202,0,0.64,0.213,1.313,0.64c0.672,0.427,1.008,0.704,1.008,0.832   c0,0.128-0.054,0.235-0.16,0.32c-0.299,0.299-0.816,1.045-1.552,2.24C20.168,5.87,19.8,6.542,19.8,6.691   c0,0.128,0.213,0.192,0.641,0.192c0.426,0,0.89-0.064,1.392-0.192c0.501-0.128,0.826-0.288,0.976-0.48s0.283-0.288,0.4-0.288   s0.261,0.182,0.432,0.544c0.171,0.363,0.257,0.709,0.257,1.04c0,0.331-0.06,0.55-0.177,0.656c-0.117,0.107-0.304,0.16-0.56,0.16   c-0.598,0-1.483,0.181-2.656,0.544l-2.208,0.672c-0.299,0.085-0.555,0.304-0.768,0.656c-0.214,0.352-0.485,0.72-0.816,1.104   c-0.331,0.384-0.496,0.672-0.496,0.864c0,0.128,0.149,0.256,0.448,0.384s0.496,0.246,0.592,0.352   c0.096,0.107,0.145,0.219,0.145,0.336c0,0.118-0.012,0.304-0.032,0.56L17.176,15.395z" stroke-width="1"/>
</g>
</svg>