<svg xmlns="http://www.w3.org/2000/svg" xmlns:xlink="http://www.w3.org/1999/xlink" version="1.1" id="图层_1" x="0px" y="0px" width="26.184005737304688" height="27.369001388549805" viewBox="0.19499480724334717 1.309999942779541 26.184005737304688 27.369001388549805" enable-background="new 0 0 30 30" xml:space="preserve">
<g>
	<path fill="#0000FF" d="M16.567,16.787c0,0.341,0.048,0.842,0.144,1.504c0.096,0.661,0.16,1.039,0.192,1.136   c0.031,0.096,0.08,0.165,0.144,0.208c1.579,1.174,2.896,2.65,3.952,4.432s1.584,2.864,1.584,3.248c0,0.17-0.091,0.309-0.272,0.416   c-0.181,0.107-0.635,0.209-1.359,0.305c-0.726,0.096-1.536,0.143-2.433,0.143c-2.069,0-3.829-0.234-5.279-0.703   c-0.384-0.107-0.747-0.188-1.088-0.24c-0.342-0.053-0.614-0.176-0.816-0.367c-0.203-0.193-0.427-0.641-0.672-1.345   s-0.432-1.482-0.561-2.336c-0.128-0.853-0.287-1.536-0.479-2.048c-0.043-0.085-0.064-0.203-0.064-0.352   c0-0.149,0.091-0.293,0.272-0.433c0.181-0.139,0.389-0.208,0.624-0.208c0.234,0,0.352,0.149,0.352,0.448   c0.064,2.304,0.571,3.755,1.521,4.352s2.213,0.896,3.792,0.896c0.704,0,1.435-0.074,2.191-0.223   c0.758-0.15,1.137-0.556,1.137-1.217c0-0.66-0.214-1.316-0.641-1.968c-0.427-0.65-0.715-0.976-0.863-0.976   c-0.086,0-0.225,0.085-0.416,0.256c-0.192,0.171-0.353,0.357-0.48,0.56c-0.128,0.203-0.379,0.442-0.752,0.72   s-0.635,0.598-0.784,0.961c-0.085,0.213-0.213,0.319-0.384,0.319s-0.432-0.187-0.784-0.56c-0.352-0.373-0.629-0.848-0.832-1.424   s-0.304-0.971-0.304-1.185c0-0.213,0.042-0.319,0.128-0.319c0.085,0,0.219,0.117,0.4,0.352c0.181,0.234,0.389,0.352,0.624,0.352   c0.234,0,0.65-0.111,1.248-0.336c0.597-0.224,0.986-0.362,1.168-0.416c0.181-0.053,0.271-0.101,0.271-0.144   c0-0.085-0.187-0.282-0.56-0.593c-0.374-0.309-0.656-0.496-0.849-0.56c-1.45-0.427-2.72-0.97-3.808-1.632   c-0.064-0.043-0.134-0.064-0.208-0.064c-0.075,0-0.145,0.054-0.208,0.16c-0.619,0.961-1.088,1.44-1.408,1.44   c-0.213,0-0.56-0.128-1.04-0.384c-0.479-0.256-0.72-0.512-0.72-0.769c0-0.128,0.053-0.234,0.16-0.319   c0.341-0.277,0.853-0.779,1.536-1.504l1.439-1.504c0.234-0.256,0.353-0.405,0.353-0.448c0-0.085-0.149-0.256-0.448-0.512   c-0.299-0.256-0.64-0.688-1.024-1.296c-0.384-0.608-0.661-1.306-0.832-2.096c-0.063-0.213-0.117-0.32-0.16-0.32   c-0.063,0-0.555,1.136-1.472,3.408c-0.917,2.272-1.376,3.686-1.376,4.239c0,0.172,0.037,0.337,0.112,0.496   c0.074,0.16,0.112,0.315,0.112,0.465c0,0.555-0.646,1.242-1.936,2.064c-1.291,0.82-2.491,1.231-3.6,1.231   c-0.277,0-0.416-0.091-0.416-0.272c0-0.181,0.208-0.464,0.624-0.848s0.72-0.65,0.912-0.8c1.323-1.067,2.576-3.194,3.76-6.384   c1.184-3.189,1.775-6.16,1.775-8.912c0-0.405,0.059-0.741,0.177-1.008C8.06,3.608,8.241,3.416,8.487,3.298   c0.245-0.117,0.527-0.176,0.848-0.176h0.896c1.492,0,2.72-0.133,3.68-0.4c0.96-0.267,2.026-0.485,3.2-0.656   c1.173-0.17,1.877-0.256,2.111-0.256c0.427,0,0.837,0.229,1.232,0.688c0.395,0.459,0.592,0.976,0.592,1.552   c0,0.256-0.139,0.384-0.416,0.384c-0.106,0-0.384-0.048-0.832-0.144s-0.88-0.144-1.296-0.144s-0.736,0.043-0.96,0.128   c-0.224,0.085-0.518,0.368-0.88,0.848c-0.363,0.48-0.544,0.934-0.544,1.36c0,0.128,0.106,0.182,0.32,0.16   c0.597-0.085,1.108-0.128,1.535-0.128c0.981,0,1.995,0.277,3.04,0.832s1.568,1.024,1.568,1.408c0,0.149-0.059,0.283-0.176,0.4   c-0.118,0.118-0.272,0.347-0.464,0.688c-0.3,0.598-0.598,1.12-0.896,1.568c-0.299,0.448-0.64,1.088-1.023,1.92   c-0.15,0.32-0.428,0.48-0.832,0.48c-0.406,0-0.87,0.011-1.393,0.032c-0.522,0.022-0.811,0.054-0.864,0.096   c-0.053,0.043-0.079,0.155-0.079,0.336c0,0.182-0.049,0.571-0.145,1.168C16.615,16.04,16.567,16.488,16.567,16.787z M8.407,20.914   c0,0.107-0.043,0.246-0.128,0.416c-0.235,0.47-0.433,1.143-0.593,2.017c-0.159,0.874-0.239,1.647-0.239,2.319   s-0.166,1.008-0.496,1.008c-0.331,0-0.822-0.229-1.472-0.688c-0.651-0.459-0.976-0.859-0.976-1.199c0-0.342,0.555-1.115,1.664-2.32   s1.792-1.809,2.048-1.809C8.343,20.658,8.407,20.744,8.407,20.914z M13.847,5.65c0-0.512-0.182-0.768-0.544-0.768   c-0.021,0-0.379,0.054-1.071,0.16c-0.694,0.107-1.163,0.203-1.408,0.288c-0.246,0.085-0.454,0.203-0.624,0.352   c-0.171,0.149-0.277,0.384-0.32,0.704L9.751,7.539c0,0.107,0.069,0.176,0.208,0.208c0.139,0.032,0.432,0.048,0.88,0.048   c0.277,0,0.72-0.074,1.328-0.224c0.608-0.149,0.938-0.234,0.992-0.256c0.053-0.021,0.181-0.218,0.384-0.592   C13.745,6.35,13.847,5.992,13.847,5.65z M12.791,12.69c0.149,0,0.555-0.069,1.216-0.208c0.661-0.138,1.504-0.272,2.528-0.4   c1.706-0.213,2.56-1.205,2.56-2.976c0-0.469-0.117-0.794-0.352-0.976c-0.235-0.181-0.608-0.272-1.12-0.272   s-1.174,0.085-1.984,0.256s-1.61,0.395-2.399,0.672c-0.79,0.277-1.243,0.485-1.36,0.624s-0.176,0.454-0.176,0.944   c0,0.491,0.085,0.965,0.256,1.424c0.171,0.459,0.304,0.726,0.4,0.8C12.455,12.653,12.599,12.69,12.791,12.69z M13.847,17.362   c0.385,0,0.635-0.112,0.752-0.336s0.177-0.698,0.177-1.424c0-0.853-0.14-1.28-0.416-1.28c-0.149,0-0.47,0.107-0.96,0.32   c-0.129,0.043-0.257,0.064-0.385,0.064c-0.256,0-0.501,0.331-0.735,0.993c-0.235,0.66-0.353,1.034-0.353,1.119   c0,0.086,0.059,0.16,0.176,0.225c0.117,0.063,0.357,0.133,0.721,0.207C13.186,17.326,13.527,17.362,13.847,17.362z M17.559,9.811   c0,0.171-0.043,0.352-0.128,0.544s-0.277,0.315-0.575,0.368c-0.3,0.053-0.556,0.144-0.769,0.272   c-0.214,0.128-0.656,0.261-1.328,0.4c-0.672,0.139-1.104,0.208-1.296,0.208s-0.368-0.128-0.528-0.384   c-0.159-0.256-0.239-0.512-0.239-0.768c0-0.256,0.271-0.48,0.815-0.672c0.544-0.192,1.137-0.32,1.776-0.384l1.728-0.256   c0.149,0,0.277,0.075,0.385,0.224C17.506,9.512,17.559,9.662,17.559,9.811z M18.135,14.738c0.064,0,0.128,0.011,0.192,0.032   c0.618,0.235,1.6,0.47,2.943,0.704c0.619,0.128,0.929,0.447,0.929,0.96c0,1.194-0.112,1.909-0.336,2.144   c-0.225,0.235-0.396,0.353-0.513,0.353s-0.485-0.282-1.104-0.849c-0.619-0.564-1.179-1.168-1.68-1.808   c-0.502-0.64-0.752-1.056-0.752-1.248C17.815,14.834,17.922,14.738,18.135,14.738z M25.879,22.738c0,0.299-0.032,0.619-0.096,0.961   c-0.064,0.341-0.188,0.512-0.368,0.512c-0.182,0-0.997-0.576-2.448-1.729c-0.448-0.362-1.163-0.863-2.144-1.504   c-0.277-0.17-0.416-0.357-0.416-0.561c0-0.202,0.139-0.303,0.416-0.303c1.173,0,2.09,0.063,2.752,0.191   c0.661,0.128,1.162,0.256,1.504,0.384c0.341,0.128,0.56,0.399,0.656,0.815C25.831,21.922,25.879,22.334,25.879,22.738z" stroke-width="1"/>
</g>
</svg>