<svg xmlns="http://www.w3.org/2000/svg" xmlns:xlink="http://www.w3.org/1999/xlink" version="1.1" id="图层_1" x="0px" y="0px" width="25.191001892089844" height="28.0730037689209" viewBox="2.3389999866485596 0.22099816799163818 25.191001892089844 28.0730037689209" enable-background="new 0 0 30 30" xml:space="preserve">
<g>
	<path fill="#0000FF" d="M5.655,11.699c0.235,0,0.352,0.272,0.352,0.816s-0.048,1.035-0.144,1.472   c-0.096,0.438-0.144,0.955-0.144,1.553s-0.149,0.896-0.448,0.896c-0.107,0-0.224-0.032-0.352-0.097   c-0.405-0.256-0.971-0.5-1.696-0.735c-0.256-0.085-0.384-0.288-0.384-0.608c0-0.213,0.075-0.395,0.224-0.544   c0.661-0.64,1.344-1.429,2.048-2.368C5.303,11.827,5.484,11.699,5.655,11.699z M19.191,8.274c0.874,0,1.706,0.064,2.495,0.192   c0.789,0.128,1.382,0.315,1.776,0.56c0.395,0.246,0.912,0.726,1.552,1.44c0.641,0.715,1.137,1.424,1.488,2.128   c0.353,0.704,0.528,1.179,0.528,1.424c0,0.246-0.091,0.368-0.272,0.368s-0.368-0.021-0.56-0.064   c-0.684-0.128-1.659-0.224-2.929-0.288c-1.269-0.064-2.026-0.096-2.271-0.096s-0.47,0.064-0.672,0.192   c-0.203,0.128-0.464,0.368-0.784,0.72s-0.587,0.715-0.8,1.088c-0.214,0.374-0.348,0.661-0.4,0.864   c-0.054,0.203-0.08,0.443-0.08,0.72c0,0.277-0.16,0.427-0.479,0.448c-0.448,0.021-0.795,0.08-1.04,0.176   c-0.246,0.096-0.405,0.305-0.48,0.624c-0.074,0.319-0.111,0.571-0.111,0.752c0,0.182,0.085,0.272,0.256,0.272   c0.17,0,0.863-0.096,2.08-0.289c0.256-0.021,0.469-0.031,0.64-0.031c0.533,0,0.8,0.182,0.8,0.544c0,0.619-0.026,1.035-0.08,1.248   c-0.053,0.214-0.464,0.353-1.231,0.416c-0.214,0.021-0.624,0.117-1.232,0.288c-0.607,0.171-0.971,0.287-1.088,0.352   s-0.203,0.235-0.256,0.512c-0.054,0.277-0.08,0.608-0.08,0.992c0,0.385,0.202,0.576,0.608,0.576l5.184-0.16   c0.32,0,0.56,0.043,0.72,0.129c0.16,0.084,0.347,0.458,0.561,1.119c0.213,0.661,0.319,1.157,0.319,1.488   c0,0.33-0.102,0.496-0.304,0.496c-0.203,0-0.479-0.07-0.832-0.209c-0.352-0.139-1.131-0.276-2.336-0.415   c-1.205-0.14-2.197-0.208-2.976-0.208c-0.779,0-1.376,0.026-1.792,0.08c-0.416,0.053-1.275,0.145-2.576,0.271   c-1.302,0.129-2.145,0.191-2.528,0.191s-0.858,0.049-1.424,0.145s-0.981,0.197-1.248,0.305c-0.267,0.105-0.491,0.16-0.672,0.16   c-0.182,0-0.326-0.182-0.432-0.545c-0.107-0.362-0.16-0.688-0.16-0.976s0.16-0.433,0.48-0.433l0.416,0.033   c0.234,0,0.923-0.102,2.064-0.305c1.141-0.203,2.005-0.384,2.592-0.544c0.587-0.159,0.96-0.299,1.12-0.416s0.276-0.362,0.352-0.735   s0.112-0.635,0.112-0.785c0-0.256-0.182-0.383-0.544-0.383c-0.149,0-0.502,0.053-1.056,0.16c-0.556,0.106-0.939,0.207-1.152,0.303   c-0.214,0.097-0.379,0.145-0.496,0.145s-0.203-0.068-0.256-0.208c-0.054-0.138-0.107-0.442-0.16-0.912   c-0.054-0.469-0.08-0.8-0.08-0.991c0-0.192,0.053-0.289,0.16-0.289c0.106,0,0.197,0.017,0.271,0.049   c0.075,0.031,0.229,0.048,0.465,0.048c0.234,0,0.725-0.075,1.472-0.224c0.746-0.149,1.168-0.262,1.264-0.336   c0.097-0.075,0.145-0.214,0.145-0.416c0-0.203-0.043-0.496-0.128-0.881c-0.086-0.384-0.246-0.576-0.48-0.576   c-0.085,0-0.203,0.032-0.352,0.096c-0.149,0.064-0.283,0.097-0.4,0.097s-0.224-0.048-0.32-0.144   c-0.096-0.096-0.299-0.39-0.607-0.881c-0.31-0.49-0.55-0.922-0.72-1.295c-0.172-0.373-0.305-0.779-0.4-1.217   c-0.096-0.437-0.182-0.747-0.256-0.928c-0.075-0.181-0.112-0.293-0.112-0.336c0-0.277,0.282-0.453,0.848-0.528   c0.565-0.074,1.275-0.261,2.129-0.56c0.853-0.298,1.722-0.522,2.607-0.672c0.885-0.149,1.616-0.224,2.192-0.224   s1.184,0.208,1.824,0.624c0.64,0.416,1.071,0.624,1.296,0.624c0.224,0,0.634-0.096,1.231-0.288   c0.598-0.192,1.099-0.464,1.504-0.816s0.608-0.72,0.608-1.104c0-0.384-0.454-0.693-1.36-0.928   c-0.907-0.234-1.723-0.352-2.448-0.352c-1.259,0-2.73,0.24-4.416,0.72c-1.685,0.48-3.179,0.784-4.479,0.912   c-1.92,0.213-3.072,0.416-3.456,0.608c-0.128,0.085-0.256,0.128-0.384,0.128c-0.128,0-0.192-0.181-0.192-0.544   c0-0.362,0.107-0.586,0.32-0.672l2.464-0.768c0.938-0.298,1.6-0.506,1.984-0.624c0.384-0.117,0.645-0.213,0.783-0.288   s0.277-0.187,0.416-0.336c0.139-0.149,0.283-0.464,0.433-0.944c0.148-0.48,0.224-0.944,0.224-1.392l-0.032-1.472   c0-0.661,0.027-1.173,0.08-1.536c0.054-0.363,0.069-0.768,0.048-1.216v-1.12c0-0.32,0.129-0.48,0.385-0.48s0.772,0.117,1.552,0.352   c0.778,0.235,1.168,0.427,1.168,0.576c0,0.149-0.048,0.283-0.144,0.4c-0.097,0.118-0.177,0.32-0.24,0.608   c-0.064,0.288-0.097,0.565-0.097,0.832s-0.026,0.587-0.079,0.96c-0.054,0.374-0.118,0.651-0.192,0.832   c-0.075,0.181-0.112,0.384-0.112,0.608s0.106,0.336,0.32,0.336c0.085,0,0.181-0.042,0.288-0.128   c1.429-1.045,2.378-1.707,2.848-1.984c0.341-0.213,0.522-0.389,0.544-0.528c0.021-0.138,0.145-0.208,0.368-0.208   s0.57,0.224,1.04,0.672c0.469,0.448,0.704,0.811,0.704,1.088s-0.315,0.459-0.944,0.544c-0.629,0.085-1.558,0.325-2.784,0.72   c-1.227,0.395-1.903,0.651-2.031,0.768c-0.128,0.118-0.192,0.32-0.192,0.608c0,0.288,0.053,0.48,0.16,0.576   c0.106,0.096,0.453,0.107,1.04,0.032C17.873,8.312,18.508,8.274,19.191,8.274z M12.599,5.298c0,0.15-0.208,0.48-0.624,0.992   s-0.757,0.854-1.023,1.024c-0.268,0.171-0.485,0.416-0.656,0.736c-0.171,0.363-0.363,0.544-0.576,0.544   c-0.106,0-0.203-0.032-0.288-0.096S9.095,8.152,8.679,7.65C8.263,7.149,8.012,6.813,7.927,6.643   c-0.085-0.17-0.128-0.325-0.128-0.464s0.037-0.261,0.112-0.368c0.074-0.106,0.144-0.17,0.208-0.192   c0.063-0.021,0.224-0.032,0.479-0.032c0.832,0,1.547-0.064,2.145-0.192c0.768-0.192,1.269-0.288,1.504-0.288   C12.481,5.106,12.599,5.17,12.599,5.298z M13.143,16.498c0.085,0,0.32-0.047,0.704-0.144c0.385-0.097,0.929-0.196,1.632-0.304   c0.405-0.064,0.656-0.267,0.753-0.608c0.096-0.341,0.144-0.576,0.144-0.704c0-0.554-0.352-0.832-1.056-0.832   c-0.342,0-0.812,0.112-1.408,0.336c-0.598,0.224-0.992,0.438-1.185,0.64c-0.191,0.203-0.287,0.486-0.287,0.848   C12.439,16.242,12.674,16.498,13.143,16.498z" stroke-width="1"/>
</g>
</svg>