<svg xmlns="http://www.w3.org/2000/svg" xmlns:xlink="http://www.w3.org/1999/xlink" version="1.1" id="图层_1" x="0px" y="0px" width="29.128002166748047" height="26.94999885559082" viewBox="1.1239994764328003 1.1040012836456299 29.128002166748047 26.94999885559082" enable-background="new 0 0 30 30" xml:space="preserve">
<g>
	<path fill="#0000FF" d="M11.416,17.314c0,1.195-0.171,1.793-0.512,1.793c-0.149,0-0.353-0.112-0.608-0.336   c-0.256-0.225-0.448-0.336-0.576-0.336c-0.191,0-1.083,0.442-2.672,1.328c-1.589,0.885-2.512,1.455-2.768,1.711   c-0.256,0.256-0.438,0.385-0.544,0.385c-0.107,0-0.187-0.027-0.24-0.08c-0.054-0.053-0.192-0.288-0.416-0.704   s-0.395-0.752-0.512-1.009c-0.117-0.256-0.176-0.458-0.176-0.607c0-0.148,0.128-0.267,0.384-0.352   c0.427-0.129,0.832-0.363,1.216-0.705c0.384-0.34,0.762-0.959,1.136-1.855c0.373-0.896,0.56-1.413,0.56-1.552   s-0.091-0.208-0.272-0.208c-0.182,0-0.539,0.096-1.072,0.288c-0.534,0.192-0.95,0.427-1.248,0.704   c-0.171,0.149-0.352,0.224-0.544,0.224c-0.192,0-0.395-0.202-0.608-0.608c-0.213-0.405-0.32-0.725-0.32-0.96   c0-0.234,0.181-0.395,0.544-0.48c0.362-0.085,0.747-0.219,1.152-0.4s0.88-0.336,1.424-0.464c0.544-0.128,2-0.64,4.368-1.536   c0.404-0.149,0.757-0.224,1.056-0.224s0.64,0.171,1.024,0.512c0.384,0.342,0.575,0.667,0.575,0.976c0,0.31-0.202,0.464-0.607,0.464   c-0.576,0-1.28,0.309-2.112,0.928c-0.234,0.213-0.438,0.357-0.607,0.432c-0.172,0.075-0.315,0.272-0.433,0.592   s-0.315,0.736-0.592,1.248C7.139,16.995,7,17.342,7,17.523s0.064,0.271,0.192,0.271s0.277-0.059,0.448-0.176   c0.17-0.117,0.442-0.234,0.816-0.352c0.373-0.117,0.533-0.272,0.479-0.465c-0.053-0.191-0.079-0.395-0.079-0.607   c0-0.641,0.148-0.96,0.447-0.96c0.213,0,0.561,0.198,1.04,0.592c0.48,0.396,0.778,0.661,0.896,0.8   C11.357,16.766,11.416,16.995,11.416,17.314z M9.816,6.627c0.404,0,0.682,0.208,0.832,0.624c0.148,0.416,0.224,0.784,0.224,1.104   s-0.283,0.678-0.848,1.072c-0.565,0.395-1.254,0.614-2.064,0.656c-0.405,0.021-0.693,0.091-0.864,0.208   c-0.171,0.118-0.299,0.176-0.384,0.176c-0.256,0-0.539-0.426-0.848-1.28C5.555,8.334,5.4,7.8,5.4,7.587   c0-0.213,0.032-0.336,0.096-0.368C5.56,7.187,5.72,7.171,5.976,7.171S6.573,7.128,7,7.043C8.237,6.766,9.176,6.627,9.816,6.627z    M28.44,19.875c0.256,0,0.538,0.73,0.848,2.191c0.309,1.462,0.464,2.598,0.464,3.408c0,0.427-0.086,0.73-0.256,0.912   c-0.171,0.182-0.608,0.347-1.313,0.496c-0.703,0.149-1.808,0.299-3.312,0.448s-2.816,0.224-3.937,0.224   c-1.119,0-2.239-0.485-3.359-1.456s-1.68-2.33-1.68-4.079c0-0.299,0.026-0.613,0.079-0.944c0.054-0.331,0.08-0.704,0.08-1.12   s-0.011-0.656-0.031-0.721c-0.021-0.063-0.064-0.096-0.128-0.096c-0.064,0-0.129,0.043-0.192,0.129   c-1.067,1.578-1.926,2.597-2.576,3.056c-0.651,0.459-0.976,0.965-0.976,1.52c0,0.384-0.118,0.721-0.353,1.008   c-0.234,0.288-0.73,0.522-1.488,0.704c-0.757,0.182-1.413,0.272-1.968,0.272s-0.832-0.086-0.832-0.256   c0-0.171,0.266-0.438,0.799-0.8c1.493-1.003,2.784-2.225,3.872-3.664c1.089-1.44,1.819-2.453,2.192-3.041   c0.373-0.586,0.56-0.943,0.56-1.071s-0.085-0.192-0.256-0.192c-0.299,0-0.603,0.102-0.912,0.305   c-0.309,0.203-0.539,0.304-0.688,0.304c-0.149,0-0.368-0.149-0.656-0.448s-0.432-0.512-0.432-0.64c0-0.214,0.17-0.32,0.512-0.32   c0.192,0,0.442-0.085,0.752-0.256s0.464-0.314,0.464-0.432c0-0.117-0.021-0.229-0.063-0.336c-0.854-1.877-1.345-3.402-1.473-4.576   c-0.043-0.362-0.111-0.656-0.208-0.88c-0.096-0.224-0.144-0.4-0.144-0.528c0-0.405,0.427-0.747,1.28-1.024   c0.17-0.042,0.352-0.181,0.544-0.416c0.191-0.235,0.581-0.901,1.168-2c0.586-1.099,1.008-2.032,1.264-2.8s0.539-1.152,0.848-1.152   c0.31,0,0.667,0.144,1.072,0.432s0.608,0.555,0.608,0.8c0,0.246-0.086,0.459-0.256,0.64c-0.171,0.182-0.534,0.688-1.088,1.52   C16.717,5.827,16.36,6.329,16.2,6.499c-0.16,0.171-0.24,0.315-0.24,0.432s0.106,0.155,0.32,0.112   c1.962-0.469,3.396-0.704,4.304-0.704c0.906,0,1.658,0.176,2.256,0.528c0.597,0.352,0.971,0.597,1.12,0.736   c0.149,0.139,0.224,0.32,0.224,0.544s-0.043,0.421-0.128,0.592c-0.085,0.171-0.234,0.715-0.447,1.632   c-0.556,2.219-1.035,3.68-1.44,4.384c-0.256,0.448-0.384,0.795-0.384,1.04c0,0.246,0.16,0.48,0.479,0.704   c0.32,0.224,0.48,0.496,0.48,0.815c0,0.534,0.704,1.248,2.112,2.145c0.213,0.128,0.352,0.277,0.416,0.448   c0.063,0.171,0.096,0.501,0.096,0.991c0,0.492-0.123,0.859-0.368,1.104s-0.448,0.368-0.608,0.368c-0.159,0-0.347-0.182-0.56-0.544   c-0.107-0.192-0.31-0.288-0.608-0.288s-1.211,0.188-2.735,0.561c-1.525,0.373-2.368,0.607-2.528,0.703   c-0.16,0.097-0.24,0.22-0.24,0.368c0,0.619,0.182,1.136,0.544,1.552c0.363,0.416,1.43,0.624,3.2,0.624   c1.173,0,2.341-0.08,3.504-0.239c1.163-0.16,1.904-0.55,2.225-1.168c0.319-0.619,0.597-1.686,0.832-3.201   C28.109,20.163,28.248,19.875,28.44,19.875z M14.488,10.659c0.319,0,0.666-0.027,1.04-0.08c0.373-0.053,0.597-0.106,0.672-0.16   c0.074-0.053,0.111-0.304,0.111-0.752c0-0.448-0.031-0.752-0.096-0.912c-0.063-0.16-0.191-0.24-0.384-0.24   s-0.491,0.059-0.896,0.176c-0.405,0.118-0.64,0.246-0.703,0.384c-0.064,0.139-0.097,0.389-0.097,0.752s0.037,0.592,0.112,0.688   C14.322,10.611,14.402,10.659,14.488,10.659z M15.16,14.883c0.128,0,0.282-0.032,0.464-0.096c0.181-0.064,0.32-0.368,0.416-0.912   s0.144-0.891,0.144-1.04c0-0.149-0.287-0.224-0.863-0.224s-0.864,0.139-0.864,0.416c0,0.278,0.063,0.624,0.192,1.04   c0.128,0.416,0.213,0.656,0.256,0.72C14.946,14.851,15.032,14.883,15.16,14.883z M18.008,19.715c0.043,0,0.176-0.068,0.4-0.208   c0.224-0.138,0.607-0.501,1.151-1.088s0.864-0.976,0.96-1.168c0.097-0.192,0.145-0.399,0.145-0.624s-0.128-0.432-0.384-0.624   s-0.523-0.239-0.8-0.144c-0.278,0.096-0.539,0.17-0.784,0.224c-0.246,0.054-0.4,0.144-0.464,0.272   c-0.064,0.127-0.16,0.619-0.288,1.472c-0.128,0.854-0.192,1.382-0.192,1.584S17.837,19.715,18.008,19.715z M18.232,14.019h0.128   c0.341-0.064,0.698-0.096,1.071-0.096s0.603-0.059,0.688-0.176c0.085-0.117,0.213-0.672,0.384-1.664s0.256-1.877,0.256-2.656   c0-0.778-0.091-1.253-0.271-1.424c-0.182-0.17-0.48-0.256-0.896-0.256s-0.65,0.048-0.704,0.144c-0.053,0.096-0.139,0.4-0.256,0.912   c-0.117,0.512-0.176,0.811-0.176,0.896c0,0.192,0.063,0.267,0.192,0.224c0.362-0.085,0.66-0.128,0.896-0.128   c0.234,0,0.353,0.118,0.353,0.352c0,0.235-0.038,0.475-0.112,0.72c-0.075,0.245-0.182,0.411-0.32,0.496   c-0.139,0.086-0.373,0.192-0.704,0.32s-0.518,0.235-0.56,0.32c-0.043,0.085-0.086,0.374-0.128,0.864   c-0.043,0.491-0.064,0.805-0.064,0.944C18.008,13.95,18.082,14.019,18.232,14.019z M22.904,19.843c0-0.063-0.112-0.293-0.336-0.688   c-0.225-0.394-0.4-0.592-0.528-0.592c-0.064,0-0.245,0.14-0.544,0.416c-0.299,0.277-0.561,0.502-0.784,0.672   c-0.224,0.172-0.336,0.32-0.336,0.449c0,0.213,0.213,0.319,0.64,0.319c0.235,0,0.608-0.053,1.12-0.16   C22.648,20.152,22.904,20.014,22.904,19.843z" stroke-width="1"/>
</g>
</svg>