<svg xmlns="http://www.w3.org/2000/svg" xmlns:xlink="http://www.w3.org/1999/xlink" version="1.1" id="图层_1" x="0px" y="0px" width="29.354001998901367" height="24.90199851989746" viewBox="0.1289980411529541 1.8229999542236328 29.354001998901367 24.90199851989746" enable-background="new 0 0 30 30" xml:space="preserve">
<g>
	<path fill="#0000FF" d="M10.423,9.491c0.256,0,0.438,0.053,0.544,0.16c0.106,0.107,0.16,0.342,0.16,0.704   c0,0.363-0.112,0.678-0.336,0.944c-0.224,0.267-0.731,0.656-1.521,1.168c-0.213,0.15-0.319,0.331-0.319,0.544l0.032,0.864   c0,0.235,0.096,0.438,0.287,0.608c0.961,0.726,1.44,1.359,1.44,1.904c0,0.544-0.235,0.816-0.704,0.816   c-0.171,0-0.331-0.033-0.479-0.097c-0.149-0.063-0.278-0.096-0.385-0.096c-0.191,0-0.277,0.144-0.256,0.432   s-0.016,0.88-0.111,1.776c-0.097,0.896-0.145,1.835-0.145,2.816l0.064,3.168c0,0.682-0.171,1.023-0.513,1.023   c-0.213,0-0.533-0.155-0.96-0.464c-0.427-0.31-0.64-0.773-0.64-1.392c0-0.214,0.032-0.416,0.096-0.608   c0.149-0.491,0.224-1.397,0.224-2.72s-0.016-2.037-0.048-2.145c-0.032-0.106-0.091-0.16-0.176-0.16   c-0.086,0-0.347,0.172-0.784,0.512c-0.438,0.342-0.806,0.672-1.104,0.992c-0.726,0.748-1.445,1.371-2.16,1.873   c-0.715,0.501-1.227,0.752-1.536,0.752c-0.31,0-0.464-0.134-0.464-0.4s0.203-0.625,0.608-1.072c1.92-2.111,3.232-3.771,3.936-4.977   c0.704-1.205,1.056-1.924,1.056-2.16c0-0.234-0.283-0.352-0.848-0.352c-0.565,0-1.04,0.085-1.424,0.256   c-0.384,0.171-0.742,0.4-1.072,0.688c-0.331,0.288-0.582,0.432-0.752,0.432s-0.325-0.101-0.464-0.304   c-0.139-0.203-0.341-0.608-0.608-1.216c-0.267-0.608-0.4-1.019-0.4-1.232s0.117-0.341,0.352-0.384   c1.6-0.298,2.805-0.619,3.616-0.96c0.811-0.341,1.376-0.565,1.696-0.672c0.32-0.106,0.48-0.309,0.48-0.608   c0.128-2.603,0.245-4.4,0.352-5.392c0.106-0.992,0.224-1.605,0.352-1.84C7.639,2.44,7.777,2.323,7.927,2.323   S8.401,2.445,8.903,2.69c0.501,0.246,0.752,0.496,0.752,0.752c0,0.128-0.091,0.374-0.272,0.736S9.111,5.133,9.111,5.955   S9.09,7.406,9.047,7.842C9.004,8.28,8.983,8.754,8.983,9.267c0,0.235,0.202,0.331,0.607,0.288   C9.996,9.512,10.273,9.491,10.423,9.491z M19.543,17.459c0.811,0,1.616,0.699,2.416,2.096c0.8,1.397,1.2,2.469,1.2,3.216   c0,0.448-0.203,0.672-0.608,0.672c-0.491,0-1.179-0.224-2.063-0.672c-0.886-0.448-1.328-0.821-1.328-1.12   c0-0.191,0.139-0.341,0.416-0.447c0.853-0.299,1.28-0.715,1.28-1.248s-0.166-0.907-0.496-1.121   c-0.331-0.213-0.641-0.319-0.929-0.319s-0.555,0.165-0.8,0.496s-0.399,0.778-0.464,1.344s-0.373,0.923-0.928,1.072   c-1.024,0.277-1.979,0.581-2.864,0.911c-0.886,0.332-1.43,0.566-1.632,0.705c-0.203,0.139-0.374,0.207-0.512,0.207   c-0.14,0-0.272-0.08-0.4-0.239c-0.128-0.16-0.374-0.501-0.736-1.024c-0.362-0.522-0.544-0.9-0.544-1.136   c0-0.234,0.182-0.405,0.544-0.513c0.683-0.191,1.109-0.361,1.28-0.512c0.171-0.148,0.645-0.938,1.424-2.367   c0.778-1.43,1.36-2.459,1.744-3.088c0.384-0.629,0.65-1.008,0.8-1.136s0.314-0.192,0.496-0.192c0.181,0,0.533,0.144,1.056,0.432   c0.523,0.288,0.784,0.571,0.784,0.848s-0.224,0.624-0.672,1.04s-0.992,1.11-1.632,2.08c-0.64,0.972-0.96,1.499-0.96,1.584   s0.122,0.128,0.368,0.128c0.245,0,0.544-0.031,0.896-0.096c0.353-0.064,0.619-0.16,0.8-0.288c0.182-0.128,0.47-0.378,0.864-0.752   C18.737,17.646,19.138,17.459,19.543,17.459z M14.327,9.011c0.234,0,0.533,0.171,0.896,0.512c0.363,0.342,0.544,0.667,0.544,0.976   c0,0.31-0.139,0.571-0.416,0.784s-0.832,0.928-1.664,2.144c-0.299,0.405-0.688,0.757-1.168,1.056   c-0.479,0.299-0.885,0.448-1.216,0.448s-0.496-0.123-0.496-0.368c0-0.245,0.085-0.496,0.257-0.752   c1.088-1.664,1.973-3.115,2.655-4.352C13.89,9.16,14.092,9.011,14.327,9.011z M28.983,15.442c0,0.171-0.198,0.31-0.593,0.416   s-0.768,0.16-1.12,0.16c-0.352,0-0.783-0.032-1.296-0.097c-0.512-0.063-1.248-0.176-2.208-0.336   c-0.96-0.159-1.482-0.26-1.567-0.303c-0.086-0.042-0.171-0.128-0.256-0.256c-0.086-0.128-0.149-0.261-0.192-0.4   c-0.043-0.139-0.064-0.336-0.064-0.592c0-0.768-0.234-1.44-0.703-2.016c-0.47-0.576-1.505-1.408-3.104-2.496   c-0.448-0.298-0.672-0.64-0.672-1.024c0-0.533,0.085-1.019,0.256-1.456c0.171-0.437,0.389-0.656,0.656-0.656   c0.267,0,0.475,0.192,0.624,0.576c0.276,0.662,1.051,1.718,2.32,3.168c1.269,1.451,2.735,2.539,4.399,3.264   C27.81,14.397,28.983,15.08,28.983,15.442z" stroke-width="1"/>
</g>
</svg>