<svg xmlns="http://www.w3.org/2000/svg" xmlns:xlink="http://www.w3.org/1999/xlink" version="1.1" id="图层_1" x="0px" y="0px" width="25.2549991607666" height="28.105003356933594" viewBox="0.5479995012283325 0.8629999160766602 25.2549991607666 28.105003356933594" enable-background="new 0 0 30 30" xml:space="preserve">
<g>
	<path fill="#0000FF" d="M23.703,5.619c0.277,0,0.496,0.059,0.656,0.176c0.159,0.118,0.356,0.48,0.592,1.088   c0.234,0.608,0.352,1.12,0.352,1.536s-0.191,0.624-0.576,0.624c-0.384,0-0.976-0.085-1.775-0.256   c-0.8-0.17-1.644-0.256-2.528-0.256c-0.886,0-1.76,0.064-2.624,0.192s-1.686,0.304-2.464,0.528   c-0.779,0.224-1.248,0.39-1.408,0.496c-0.16,0.107-0.277,0.246-0.352,0.416c-0.075,0.171-0.214,0.416-0.416,0.736   c-0.203,0.32-0.304,0.534-0.304,0.64c0,0.107,0.144,0.16,0.432,0.16s0.858-0.128,1.712-0.384c1.131-0.384,2.325-0.576,3.584-0.576   c1.493,0,2.24,0.299,2.24,0.896c0,0.107-0.027,0.23-0.08,0.368c-0.054,0.139-0.102,0.773-0.145,1.904s-0.063,2.32-0.063,3.568   s0.037,2.268,0.112,3.057c0.074,0.789,0.116,1.631,0.128,2.527c0.01,0.896,0.016,1.615,0.016,2.16c0,0.544,0.026,1.104,0.08,1.68   c0.053,0.576,0.08,0.885,0.08,0.928c0,0.428-0.203,0.641-0.608,0.641s-1.344-0.219-2.815-0.656   c-1.473-0.438-2.518-0.928-3.137-1.473c-0.618-0.543-0.928-0.863-0.928-0.959s0.043-0.145,0.128-0.145s0.182,0.011,0.288,0.032   c0.875,0.149,1.973,0.224,3.296,0.224c0.427,0,0.709-0.144,0.849-0.432c0.138-0.288,0.208-0.784,0.208-1.488   c0-0.703-0.021-1.492-0.064-2.367l-0.16-4.257c-0.063-1.941-0.112-3.045-0.144-3.312c-0.032-0.266-0.086-0.496-0.16-0.688   c-0.075-0.192-0.188-0.341-0.336-0.448c-0.149-0.106-0.363-0.16-0.641-0.16c-0.768,0-1.632,0.208-2.592,0.624   s-1.439,0.806-1.439,1.168c0,0.149,0.048,0.299,0.144,0.448c0.096,0.149,0.197,0.213,0.304,0.192   c0.619-0.128,1.115-0.192,1.488-0.192s0.635,0.075,0.784,0.224s0.224,0.389,0.224,0.72c0,0.331-0.063,0.528-0.191,0.593l-0.8,0.447   c-1.217,0.684-1.926,1.1-2.129,1.248c-0.202,0.149-0.304,0.384-0.304,0.704c0,0.319,0.074,0.479,0.225,0.479   c0.148,0,0.309-0.031,0.479-0.096c1.131-0.426,1.824-0.641,2.08-0.641c0.192,0,0.347,0.188,0.464,0.561s0.176,0.624,0.176,0.752   c0,0.129-0.085,0.277-0.256,0.448s-0.491,0.399-0.96,0.688c-0.47,0.287-1.014,0.57-1.632,0.848   c-0.619,0.277-0.955,0.607-1.008,0.992c-0.054,0.384-0.08,1.035-0.08,1.951c0,0.918-0.048,1.461-0.145,1.633   c-0.096,0.17-0.304,0.256-0.624,0.256c-0.319,0-0.533-0.064-0.64-0.192s-0.176-0.491-0.208-1.088   c-0.032-0.598-0.048-1.823-0.048-3.68s0.026-3.222,0.08-4.097c0.053-0.874,0.08-1.504,0.08-1.888s-0.064-0.576-0.192-0.576   c-0.171,0-0.571,0.288-1.2,0.864s-1.008,1.094-1.136,1.553s-0.4,0.805-0.816,1.039c-0.416,0.235-1.195,0.63-2.336,1.184   c-1.142,0.556-2.005,0.832-2.592,0.832s-0.88-0.096-0.88-0.287c0-0.043,0.048-0.112,0.144-0.209   c0.096-0.096,0.912-0.655,2.448-1.68c1.536-1.023,2.506-1.689,2.912-2c0.405-0.309,0.864-0.73,1.376-1.264   c0.513-0.533,1.008-1.152,1.488-1.856c0.479-0.704,0.784-1.2,0.912-1.488c0.128-0.288,0.191-0.475,0.191-0.56   c0-0.256-0.123-0.384-0.367-0.384c-0.246,0-0.565-0.021-0.96-0.064c-0.396-0.042-0.71-0.064-0.944-0.064   c-1.131,0-2.155,0.427-3.072,1.28c-0.128,0.128-0.256,0.192-0.384,0.192S4.54,11.72,4.423,11.25   c-0.117-0.469-0.24-0.858-0.368-1.168C3.927,9.773,3.863,9.544,3.863,9.395c0-0.384,0.219-0.619,0.656-0.704   c0.437-0.085,1.013-0.144,1.728-0.176c0.714-0.032,1.813-0.192,3.296-0.48c1.482-0.288,2.293-0.507,2.432-0.656   c0.139-0.149,0.427-0.917,0.864-2.304s0.698-2.352,0.784-2.896c0.085-0.544,0.33-0.816,0.736-0.816c0.256,0,0.575,0.128,0.96,0.384   l1.088,0.672c0.256,0.128,0.384,0.288,0.384,0.48s-0.107,0.31-0.32,0.352c-0.213,0.043-0.362,0.133-0.447,0.272   c-0.086,0.139-0.188,0.464-0.305,0.976S15.5,5.395,15.415,5.65c-0.086,0.256-0.128,0.438-0.128,0.544   c0,0.32,0.213,0.448,0.64,0.384c1.237-0.234,2.491-0.389,3.76-0.464c1.27-0.075,2.219-0.176,2.849-0.304   C23.164,5.683,23.554,5.619,23.703,5.619z" stroke-width="1"/>
</g>
</svg>