<svg version="1.1" xmlns="http://www.w3.org/2000/svg" xmlns:xlink="http://www.w3.org/1999/xlink" width="779.40168" height="527.0087" viewBox="0,0,779.40168,527.0087"><g transform="translate(120.41136,76.49647)"><g data-paper-data="{&quot;isPaintingLayer&quot;:true}" fill-rule="nonzero" stroke-linecap="butt" stroke-linejoin="miter" stroke-miterlimit="10" stroke-dasharray="" stroke-dashoffset="0" style="mix-blend-mode: normal"><path d="M-120.41135,450.51224v-527.0087h779.40168v527.0087z" fill="#633c11" stroke="none" stroke-width="0"/><path d="M422.50003,137.17891v-3h24v3z" fill="#633c11" stroke="none" stroke-width="0"/><path d="M462.50003,63.17893v-49h2v49z" fill="#633c11" stroke="none" stroke-width="0"/><path d="M352.99179,74.81511c0,9.81246 1.47972,17.77654 -27.2206,17.76688h-224.19204c-19.19558,0 -19.14111,-7.95579 -19.14111,-17.76687v-11.84459c0,-9.81246 -2.10157,-17.7655 19.94452,-17.7655h224.01956c28.05578,0 26.58967,7.95441 26.58967,17.7655z" fill="#4d4d4d" stroke="#000000" stroke-width="0.6769"/><path d="M34.50001,313.17892v-205h387v205z" fill="#d5c095" stroke="#000000" stroke-width="0.6769"/><path d="M350.89222,71.45658c0,9.7058 1.47868,17.58331 -27.03099,17.57374h-222.66759c-19.06055,0 -19.01096,-7.86931 -19.01096,-17.57374v-11.71719c0,-9.70579 -2.08728,-17.57237 19.80891,-17.57237h222.49629c27.86501,0 26.39985,7.86794 26.39985,17.57237v11.71719z" fill="#d5c095" stroke="#000000" stroke-width="0.6769"/><text transform="translate(162.50003,75.92405) scale(0.7289,0.71367)" font-size="40" xml:space="preserve" fill="#461d1d" fill-rule="nonzero" stroke="#000000" stroke-width="0" stroke-linecap="butt" stroke-linejoin="miter" stroke-miterlimit="10" stroke-dasharray="" stroke-dashoffset="0" font-family="&quot;Microsoft YaHei&quot;, &quot;微软雅黑&quot;, STXihei, &quot;华文细黑&quot;" font-weight="normal" text-anchor="start" style="mix-blend-mode: normal"><tspan x="0" dy="0">答题成功</tspan></text></g></g></svg>