<svg xmlns="http://www.w3.org/2000/svg" xmlns:xlink="http://www.w3.org/1999/xlink" version="1.1" id="图层_1" x="0px" y="0px" width="25.70400047302246" height="29.35300064086914" viewBox="2.3960022926330566 0.046999990940093994 25.70400047302246 29.35300064086914" enable-background="new 0 0 30 30" xml:space="preserve">
<g>
	<path fill="#0000FF" d="M16.592,16.387c0,0.064,0.043,0.15,0.128,0.256c0.085,0.107,0.225,0.342,0.416,0.705   c0.192,0.362,0.592,0.746,1.2,1.151s1.205,0.854,1.792,1.344c0.587,0.491,1.114,0.875,1.584,1.152   c0.469,0.277,0.965,0.518,1.488,0.72c0.522,0.203,0.869,0.357,1.04,0.465c0.49,0.319,1.071,0.603,1.744,0.848   c0.672,0.245,1.108,0.479,1.312,0.704c0.202,0.224,0.304,0.41,0.304,0.56c0,0.32-0.683,0.48-2.048,0.48   c-0.981,0-2.069-0.155-3.264-0.465c-1.195-0.31-1.888-0.532-2.08-0.672c-0.192-0.139-0.288-0.336-0.288-0.592   c0-0.789-0.144-1.418-0.432-1.889c-0.288-0.469-0.742-0.853-1.36-1.151c-1.046-0.512-1.749-1.066-2.112-1.664   c-0.171-0.298-0.539-0.672-1.104-1.12c-0.565-0.447-1.083-0.672-1.552-0.672c-1.088,0-1.761,0.246-2.017,0.736   c-0.832,1.6-1.717,2.816-2.655,3.648c-0.385,0.319-0.801,1.066-1.248,2.239c-0.15,0.384-0.582,0.726-1.296,1.024   c-0.715,0.298-1.435,0.447-2.16,0.447c-0.726,0-1.088-0.111-1.088-0.336c0-0.224,0.181-0.442,0.544-0.655   c1.109-0.641,1.909-1.157,2.4-1.552s1.019-0.934,1.584-1.617c0.565-0.682,1.035-1.316,1.408-1.903s0.56-0.938,0.56-1.056   s-0.091-0.176-0.271-0.176c-0.182,0-0.684,0.123-1.504,0.367c-0.822,0.246-1.286,0.422-1.392,0.528   c-0.107,0.106-0.229,0.159-0.368,0.159c-0.139,0-0.251-0.111-0.336-0.336c-0.085-0.224-0.229-0.463-0.432-0.719   c-0.203-0.257-0.304-0.428-0.304-0.513c0-0.256,0.282-0.384,0.848-0.384c0.565,0,1.461-0.139,2.688-0.416   c1.227-0.277,1.92-0.459,2.08-0.544c0.159-0.085,0.239-0.325,0.239-0.72c0-0.395-0.149-0.592-0.447-0.592   c-0.107,0-0.229,0.032-0.368,0.096c-0.14,0.064-0.283,0.096-0.433,0.096s-0.282-0.096-0.399-0.288   c-0.118-0.192-0.176-0.426-0.176-0.704c0-0.277,0.138-0.416,0.416-0.416c0.106,0,0.324-0.059,0.655-0.176s0.539-0.229,0.624-0.336   c0.085-0.106,0.128-0.267,0.128-0.48c0-0.256-0.139-0.352-0.416-0.288c-0.128,0.021-0.251,0.032-0.367,0.032   c-0.118,0-0.214-0.026-0.288-0.08c-0.075-0.053-0.16-0.186-0.257-0.4c-0.096-0.213-0.144-0.4-0.144-0.56   c0-0.16,0.026-0.277,0.08-0.352c0.053-0.075,0.122-0.123,0.208-0.144c0.085-0.021,0.176-0.032,0.271-0.032   c0.097,0,0.272-0.042,0.528-0.128c0.256-0.085,0.421-0.181,0.496-0.288c0.074-0.106,0.133-0.352,0.176-0.736   c0.043-0.384,0.064-0.613,0.064-0.688s-0.091-0.112-0.272-0.112s-0.432,0.048-0.752,0.144C9.648,8.435,9.413,8.483,9.264,8.483   s-0.256-0.16-0.319-0.48l-0.097-0.48c0-0.32,0.288-0.48,0.864-0.48c0.341,0,1.099-0.213,2.272-0.64   c2.389-0.853,4.426-1.28,6.111-1.28c1.088,0,1.947,0.171,2.576,0.512c0.629,0.342,1.313,1.078,2.048,2.208   c0.736,1.131,1.104,1.974,1.104,2.528c0,0.213-0.182,0.347-0.544,0.4c-0.363,0.054-1.029,0.08-2,0.08   c-0.972,0-1.861-0.234-2.672-0.704c-0.278-0.17-0.496-0.256-0.656-0.256s-0.325,0.038-0.496,0.112   c-0.171,0.075-0.288,0.144-0.353,0.208c-0.063,0.064-0.096,0.203-0.096,0.416c0,0.491,0.16,0.736,0.48,0.736   c0.49,0,0.805,0.048,0.943,0.144c0.139,0.096,0.208,0.272,0.208,0.528c0,0.469-0.288,0.704-0.863,0.704l-0.416-0.032   c-0.086,0-0.177,0.048-0.272,0.144c-0.096,0.096-0.155,0.197-0.176,0.304l-0.128,0.928c0,0.171,0.08,0.272,0.24,0.304   c0.159,0.032,0.603,0.048,1.327,0.048c0.726,0,1.195-0.011,1.408-0.032l0.513-0.064c0.191,0,0.394,0.182,0.607,0.544   c0.213,0.363,0.32,0.651,0.32,0.864c0,0.214-0.043,0.405-0.128,0.576c-0.086,0.171-0.192,0.256-0.32,0.256   s-0.277-0.032-0.448-0.097c-0.661-0.256-1.392-0.383-2.191-0.383c-0.801,0-1.254,0.026-1.36,0.08   C16.645,16.232,16.592,16.302,16.592,16.387z M6.896,8.643c0.256,0,0.394,0.139,0.415,0.416c0.064,0.875,0.149,1.435,0.257,1.68   c0.106,0.246,0.159,0.443,0.159,0.592c0,0.555-0.33,0.832-0.992,0.832c-0.405,0-0.901-0.16-1.488-0.48   c-0.587-0.32-0.88-0.565-0.88-0.736c0-0.17,0.096-0.309,0.288-0.416c0.512-0.298,1.12-0.853,1.824-1.664   C6.608,8.718,6.747,8.643,6.896,8.643z M11.952,23.683c0.042,0,0.187,0.049,0.432,0.145s0.496,0.16,0.752,0.191   c0.256,0.032,0.522,0.145,0.8,0.337c0.277,0.191,0.613,0.372,1.009,0.544c0.395,0.17,0.634,0.319,0.72,0.447   c0.085,0.128,0.128,0.379,0.128,0.752s-0.075,0.849-0.224,1.425c-0.149,0.575-0.283,0.948-0.4,1.119s-0.277,0.257-0.479,0.257   c-0.203,0-0.348-0.118-0.433-0.353c-0.32-0.938-1.142-2.24-2.464-3.904c-0.128-0.171-0.192-0.341-0.192-0.512   C11.6,23.832,11.717,23.683,11.952,23.683z M12.464,18.339c0.213,0,0.384,0.118,0.512,0.353c0.277,0.469,0.721,0.938,1.328,1.408   c0.608,0.469,1.051,0.869,1.328,1.199c0.277,0.331,0.416,0.592,0.416,0.784c0,0.534-0.416,0.8-1.248,0.8   c-0.598,0-1.056-0.106-1.376-0.32c-0.256-0.17-0.576-0.298-0.96-0.383c-0.256-0.043-0.432-0.197-0.528-0.465   c-0.096-0.266-0.144-0.805-0.144-1.615s0.064-1.307,0.192-1.488S12.272,18.339,12.464,18.339z M15.184,3.523   c0,0.341-0.133,0.587-0.399,0.736c-0.268,0.15-0.518,0.224-0.752,0.224c-0.235,0-0.565-0.133-0.992-0.4   C12.613,3.816,12.4,3.32,12.4,2.595c0-0.299,0.036-0.672,0.111-1.12c0.075-0.448,0.149-0.714,0.225-0.8   c0.074-0.085,0.191-0.128,0.352-0.128s0.357,0.064,0.592,0.192c0.234,0.128,0.373,0.267,0.416,0.416   c0.085,0.363,0.363,0.886,0.832,1.568C15.099,2.937,15.184,3.203,15.184,3.523z M12.912,11.907c0.148,0,0.395-0.043,0.736-0.128   c0.341-0.085,0.549-0.122,0.624-0.112c0.074,0.011,0.148-0.069,0.224-0.24c0.074-0.17,0.112-0.32,0.112-0.448   c0-0.256-0.14-0.384-0.416-0.384c-0.021,0-0.305,0.059-0.849,0.176c-0.544,0.118-0.815,0.315-0.815,0.592   C12.528,11.726,12.656,11.907,12.912,11.907z M13.04,14.915c0.042,0,0.165-0.021,0.368-0.064c0.202-0.042,0.368-0.075,0.496-0.096   c0.128-0.021,0.224-0.165,0.288-0.432c0.063-0.267,0.096-0.507,0.096-0.72c0-0.213-0.117-0.32-0.353-0.32   c-0.043,0-0.224,0.037-0.544,0.112c-0.319,0.075-0.512,0.128-0.575,0.16c-0.064,0.032-0.128,0.117-0.192,0.256   c-0.064,0.139-0.096,0.283-0.096,0.432C12.528,14.691,12.698,14.915,13.04,14.915z M12.944,9.219c0.085,0,0.378-0.053,0.88-0.16   c0.501-0.106,0.794-0.197,0.88-0.272c0.085-0.075,0.128-0.299,0.128-0.672s-0.021-0.619-0.064-0.736   c-0.043-0.117-0.149-0.176-0.319-0.176c-0.171,0-0.464,0.053-0.88,0.16c-0.416,0.107-0.662,0.192-0.736,0.256   c-0.075,0.064-0.128,0.245-0.16,0.544s-0.048,0.549-0.048,0.752C12.624,9.118,12.73,9.219,12.944,9.219z M21.392,8.163   c0-0.384-0.213-0.816-0.64-1.296s-0.971-0.72-1.632-0.72c-0.192,0-0.507,0.038-0.944,0.112c-0.438,0.075-0.704,0.16-0.8,0.256   c-0.096,0.096-0.171,0.304-0.224,0.624c-0.054,0.32-0.08,0.582-0.08,0.784c0,0.203,0.031,0.342,0.096,0.416   c0.064,0.075,0.234,0.112,0.512,0.112c0.641,0,0.96,0.245,0.96,0.736c0,0.32,0.149,0.48,0.448,0.48s0.698-0.106,1.2-0.32   c0.501-0.213,0.811-0.405,0.928-0.576C21.333,8.601,21.392,8.398,21.392,8.163z" stroke-width="1"/>
</g>
</svg>