<svg xmlns="http://www.w3.org/2000/svg" xmlns:xlink="http://www.w3.org/1999/xlink" version="1.1" id="图层_1" x="0px" y="0px" width="28.487995147705078" height="30.570005416870117" viewBox="1.4430007934570312 -0.5130000412464142 28.487995147705078 30.570005416870117" enable-background="new 0 0 30 30" xml:space="preserve">
<g>
	<path fill="#0000FF" d="M16.727,21.459c0,0.106,0.064,0.182,0.192,0.224c1.6,0.661,2.629,1.173,3.088,1.536s0.971,0.65,1.536,0.863   s1.498,0.453,2.8,0.721c1.301,0.266,2.39,0.564,3.265,0.896c0.874,0.33,1.396,0.559,1.567,0.688   c0.171,0.128,0.256,0.266,0.256,0.416c0,0.148-0.08,0.271-0.239,0.367c-0.16,0.096-0.598,0.188-1.313,0.273   c-0.715,0.084-1.718,0.127-3.008,0.127c-1.291,0-2.342-0.107-3.152-0.32c-0.341-0.086-0.661-0.148-0.96-0.191   s-0.533-0.234-0.704-0.576c-0.469-0.981-0.885-1.579-1.248-1.792c-0.362-0.214-0.607-0.319-0.735-0.319s-0.256,0.074-0.385,0.224   c-0.49,0.661-0.928,1.162-1.312,1.504c-0.384,0.341-0.864,0.661-1.44,0.96l-2.527,1.313c-1.131,0.596-1.776,0.943-1.937,1.039   s-0.304,0.145-0.432,0.145c-0.512,0-0.769-0.779-0.769-2.336c0-1.088,0.107-1.932,0.32-2.528c0.405-1.13,0.608-1.983,0.608-2.56   c0-0.234-0.091-0.353-0.272-0.353S9.271,22.2,8.503,23.043s-1.216,1.444-1.344,1.808c-0.128,0.362-0.256,0.592-0.384,0.688   c-0.128,0.096-0.416,0.202-0.864,0.319c-0.448,0.117-0.944,0.177-1.488,0.177s-1.093-0.092-1.648-0.272   c-0.555-0.182-0.832-0.325-0.832-0.433c0-0.106,0.139-0.182,0.416-0.224c0.747-0.149,1.669-0.522,2.768-1.12   c1.099-0.597,2.165-1.445,3.2-2.544c1.034-1.099,1.552-1.829,1.552-2.192c0-0.148-0.144-0.484-0.432-1.008   c-0.288-0.521-0.464-0.836-0.528-0.943c-0.063-0.107-0.149-0.16-0.256-0.16c-0.107,0-0.485,0.096-1.136,0.288   c-0.651,0.192-1.158,0.39-1.521,0.592c-0.363,0.203-0.64,0.304-0.832,0.304c-0.192,0-0.384-0.191-0.576-0.576   c-0.192-0.384-0.288-0.672-0.288-0.863c0-0.192,0.16-0.299,0.48-0.32c0.555-0.043,1.163-0.148,1.824-0.32   c0.661-0.17,1.141-0.277,1.439-0.32c0.299-0.042,0.427-0.201,0.385-0.479c-0.044-0.277-0.064-0.667-0.064-1.168   c0-0.501,0.288-0.794,0.864-0.88c1.301-0.192,2.692-0.506,4.176-0.944c1.482-0.437,2.49-0.656,3.024-0.656   c0.404,0,1.028,0.144,1.871,0.432s1.265,0.603,1.265,0.944c0,0.128-0.032,0.251-0.097,0.368c-0.063,0.118-0.096,0.229-0.096,0.336   c0,0.107,0.145,0.16,0.433,0.16c0.287,0,0.714-0.037,1.279-0.112c0.565-0.074,0.912-0.112,1.04-0.112   c0.362,0,0.656,0.187,0.88,0.56c0.225,0.374,0.336,0.672,0.336,0.896s-0.202,0.336-0.607,0.336c-0.149,0-0.348-0.021-0.592-0.063   c-0.246-0.043-0.63-0.064-1.152-0.064c-0.523,0-1.062,0.037-1.616,0.111c-0.555,0.076-0.886,0.145-0.992,0.209   c-0.106,0.063-0.187,0.213-0.239,0.447c-0.054,0.235-0.08,0.523-0.08,0.864v0.992c0,0.47-0.225,0.704-0.672,0.704l-0.896-0.032   c-0.704,0-1.451,0.075-2.24,0.224c-0.789,0.15-1.237,0.262-1.344,0.336c-0.107,0.076-0.16,0.176-0.16,0.305   c0,0.128,0.31,0.357,0.928,0.688c0.619,0.331,1.003,0.491,1.152,0.48s0.57-0.139,1.264-0.385c0.693-0.244,1.328-0.517,1.904-0.815   c0.576-0.298,1.61-0.949,3.104-1.952c0.362-0.234,0.634-0.352,0.815-0.352s0.341,0.128,0.48,0.384   c0.139,0.256,0.208,0.459,0.208,0.608c0,0.447-0.539,0.934-1.616,1.455c-1.077,0.523-2.459,1.029-4.144,1.521   C16.77,21.31,16.727,21.373,16.727,21.459z M21.271,3.922c0.235,0,0.491,0.187,0.769,0.56c0.277,0.374,0.416,0.688,0.416,0.944   c0,0.256-0.06,0.432-0.176,0.528c-0.118,0.096-0.769,0.336-1.952,0.72c-1.185,0.384-1.979,0.619-2.384,0.704   c-0.406,0.085-0.651,0.16-0.736,0.224c-0.086,0.064-0.224,0.283-0.416,0.656c-0.192,0.374-0.288,0.619-0.288,0.736   s0.074,0.166,0.224,0.144c0.981-0.149,2.08-0.224,3.297-0.224c0.362,0,0.592,0.064,0.688,0.192s0.145,0.352,0.145,0.672   c0,0.32-0.374,0.544-1.12,0.672c-1.494,0.256-2.892,0.565-4.192,0.928c-1.643,0.47-3.467,0.736-5.472,0.8   c-0.981,0.043-1.611,0.128-1.889,0.256s-0.479,0.192-0.607,0.192s-0.277-0.139-0.448-0.416c-0.171-0.277-0.256-0.512-0.256-0.704   c0-0.192,0.106-0.346,0.32-0.464c0.213-0.117,0.746-0.224,1.6-0.32c0.853-0.096,1.621-0.208,2.304-0.336   c0.683-0.128,1.04-0.213,1.072-0.256c0.032-0.042,0.048-0.096,0.048-0.16c0-0.235-0.096-0.373-0.288-0.416   c-0.191-0.042-0.319-0.075-0.384-0.096c-0.064-0.021-0.203-0.053-0.416-0.096c-0.214-0.042-0.384-0.16-0.512-0.352   c-0.277-0.363-0.496-0.544-0.656-0.544S9.447,8.6,8.903,8.867S7.895,9.384,7.511,9.619c-0.171,0.107-0.347,0.16-0.528,0.16   c-0.182,0-0.485-0.256-0.912-0.768c-0.427-0.512-0.64-0.837-0.64-0.976s0.042-0.245,0.128-0.32c0.085-0.074,0.458-0.208,1.12-0.4   L8.887,6.61c0.192-0.042,0.288-0.123,0.288-0.24S9.164,6.163,9.143,6.099C8.908,5.438,8.716,4.696,8.567,3.875   c-0.149-0.821-0.225-1.36-0.225-1.616c0-0.362,0.133-0.544,0.4-0.544c0.267,0,0.672,0.027,1.216,0.08   c0.544,0.054,0.912,0.123,1.104,0.208c0.191,0.085,0.287,0.213,0.287,0.384s-0.026,0.363-0.08,0.576   c-0.053,0.213-0.079,0.48-0.079,0.8c0,0.32,0.042,0.731,0.128,1.232c0.085,0.501,0.181,0.784,0.288,0.848   c0.106,0.064,0.234,0.086,0.384,0.064c0.533-0.107,1.439-0.16,2.72-0.16l0.832-0.032c0.256,0,0.416-0.106,0.48-0.32   c0.298-0.981,0.66-2.075,1.088-3.28c0.426-1.205,0.677-1.861,0.752-1.968c0.074-0.106,0.181-0.16,0.319-0.16   s0.421,0.102,0.849,0.304c0.426,0.203,0.64,0.4,0.64,0.592c0,0.192-0.096,0.555-0.288,1.088l-0.704,1.856   c-0.277,0.683-0.416,1.072-0.416,1.168c0,0.096,0.085,0.144,0.256,0.144s0.587-0.106,1.248-0.32   c0.661-0.213,1.029-0.416,1.104-0.608C20.945,4.019,21.079,3.922,21.271,3.922z M12.247,26.482c0.405,0,0.971-0.154,1.696-0.464   c0.725-0.31,1.333-0.672,1.823-1.088c0.491-0.416,0.736-0.72,0.736-0.912c0-0.106-0.139-0.213-0.416-0.319   c-0.277-0.107-0.598-0.283-0.96-0.529c-0.363-0.244-0.917-0.512-1.664-0.799c-0.747-0.289-1.184-0.433-1.312-0.433   s-0.22,0.038-0.272,0.112c-0.054,0.074-0.182,0.576-0.384,1.504c-0.203,0.928-0.304,1.498-0.304,1.712   C11.191,26.077,11.543,26.482,12.247,26.482z M11.991,17.875c0.341,0,1.061-0.112,2.16-0.336c1.098-0.225,1.647-0.613,1.647-1.168   c0-0.171-0.096-0.256-0.288-0.256c-0.021,0-0.405,0.053-1.151,0.159l-2.017,0.288c-0.598,0.086-0.917,0.145-0.96,0.176   c-0.043,0.032-0.075,0.086-0.096,0.16c-0.021,0.075-0.032,0.166-0.032,0.271C11.255,17.641,11.5,17.875,11.991,17.875z    M11.543,15.219l2.752-0.48c1.066-0.17,1.648-0.282,1.744-0.336c0.096-0.053,0.144-0.176,0.144-0.368   c0-0.192-0.053-0.373-0.159-0.544c-0.107-0.171-0.257-0.256-0.448-0.256c-0.192,0-0.384,0.032-0.576,0.096   c-0.555,0.213-1.621,0.512-3.2,0.896c-0.342,0.085-0.512,0.331-0.512,0.736C11.287,15.133,11.372,15.219,11.543,15.219z    M14.743,9.203c0.17,0,0.271-0.091,0.304-0.272s0.085-0.416,0.16-0.704c0.074-0.288,0.112-0.485,0.112-0.592   c0-0.341-0.428-0.512-1.28-0.512c-0.342,0-0.731,0.059-1.168,0.176c-0.438,0.118-0.656,0.288-0.656,0.512s0.128,0.368,0.384,0.432   c0.683,0.149,1.323,0.438,1.92,0.864C14.583,9.17,14.657,9.203,14.743,9.203z" stroke-width="1"/>
</g>
</svg>