<svg xmlns="http://www.w3.org/2000/svg" xmlns:xlink="http://www.w3.org/1999/xlink" version="1.1" id="图层_1" x="0px" y="0px" width="26.795001983642578" height="23.525997161865234" viewBox="2.063999891281128 3.194000482559204 26.795001983642578 23.525997161865234" style="enable-background:new 0 0 30 30;" xml:space="preserve">
  <g>
    <g>
      <path style="fill:#0000FF;" d="M27.558,19.564c0,0.406,0.075,0.795,0.225,1.168c0.148,0.373,0.282,1.008,0.399,1.904&#13;&#10;&#9;&#9;s0.177,1.643,0.177,2.24c0,0.447-0.118,0.715-0.353,0.8s-1.733,0.196-4.496,0.336c-2.763,0.139-4.73,0.208-5.903,0.208&#13;&#10;&#9;&#9;c-1.174,0-1.884-0.054-2.129-0.16c-0.245-0.107-0.752-0.57-1.52-1.393c-0.768-0.82-1.333-1.647-1.696-2.479&#13;&#10;&#9;&#9;c-0.362-0.831-0.565-1.813-0.607-2.944c0-0.213-0.043-0.356-0.128-0.432c-0.086-0.074-0.203-0.111-0.353-0.111&#13;&#10;&#9;&#9;s-0.277-0.037-0.384-0.112c-0.107-0.075-0.182-0.112-0.224-0.112c-0.128,0-0.257,0.107-0.385,0.32s-0.427,0.752-0.896,1.615&#13;&#10;&#9;&#9;c-0.47,0.865-0.769,1.436-0.896,1.713c-0.149,0.405-0.373,0.854-0.672,1.344s-0.581,0.885-0.848,1.184&#13;&#10;&#9;&#9;c-0.268,0.299-0.448,0.549-0.544,0.752s-0.214,0.305-0.353,0.305s-0.378-0.134-0.72-0.4c-0.341-0.268-0.779-0.507-1.312-0.72&#13;&#10;&#9;&#9;c-0.235-0.085-0.352-0.214-0.352-0.384c0-0.213,0.736-1.057,2.208-2.528c0.32-0.319,0.48-0.672,0.48-1.056l0.031-2.176&#13;&#10;&#9;&#9;c0-0.555-0.267-0.832-0.799-0.832c-0.384,0-0.747,0.203-1.088,0.607c-0.107,0.128-0.224,0.191-0.352,0.191&#13;&#10;&#9;&#9;c-0.128,0-0.235-0.18-0.32-0.543c-0.213-0.769-0.534-1.419-0.96-1.953c-0.149-0.192-0.224-0.389-0.224-0.592&#13;&#10;&#9;&#9;c0-0.203,0.075-0.357,0.224-0.464c0.149-0.106,0.32-0.149,0.512-0.128c0.192,0.021,0.421,0.032,0.688,0.032&#13;&#10;&#9;&#9;c0.266,0,0.672-0.08,1.216-0.24c0.544-0.16,0.88-0.283,1.008-0.368c0.128-0.085,0.229-0.277,0.304-0.576&#13;&#10;&#9;&#9;c0.075-0.298,0.165-1.253,0.272-2.864c0.106-1.611,0.16-2.88,0.16-3.808s0.288-1.392,0.864-1.392c0.191,0,0.447,0.059,0.768,0.176&#13;&#10;&#9;&#9;s0.48,0.251,0.48,0.4c0,0.149-0.054,0.293-0.16,0.432C8.795,6.664,8.71,6.904,8.646,7.245C8.582,7.586,8.518,8.269,8.454,9.292&#13;&#10;&#9;&#9;c-0.064,1.024-0.096,1.894-0.096,2.608s0.111,1.072,0.336,1.072c0.224,0,0.501-0.085,0.832-0.256&#13;&#10;&#9;&#9;c0.33-0.17,0.581-0.256,0.752-0.256c0.17,0,0.309,0.213,0.416,0.64c0.106,0.427,0.16,0.731,0.16,0.912&#13;&#10;&#9;&#9;c0,0.182-0.086,0.336-0.257,0.464c-0.64,0.576-1.077,1.078-1.312,1.504c-0.235,0.428-0.448,0.736-0.64,0.928&#13;&#10;&#9;&#9;c-0.192,0.214-0.288,0.576-0.288,1.088c0,0.513,0.074,0.769,0.224,0.769s0.384-0.149,0.704-0.448s0.479-0.533,0.479-0.703&#13;&#10;&#9;&#9;l-0.063-0.32c0-0.192,0.117-0.342,0.352-0.448c0.405-0.171,0.784-0.384,1.137-0.64c0.352-0.256,0.57-0.497,0.655-0.72&#13;&#10;&#9;&#9;c0.085-0.224,0.128-0.667,0.128-1.328l-0.096-0.544c0-0.213,0.133-0.437,0.4-0.672c0.267-0.235,0.506-0.352,0.72-0.352&#13;&#10;&#9;&#9;c0.32,0,0.479,0.192,0.479,0.576c0,0.107-0.016,0.214-0.048,0.32c-0.031,0.107-0.048,0.192-0.048,0.256&#13;&#10;&#9;&#9;c0,0.235,0.106,0.352,0.32,0.352c0.063,0,0.197-0.085,0.399-0.256c0.203-0.171,0.453-0.357,0.753-0.56&#13;&#10;&#9;&#9;c0.298-0.203,0.495-0.416,0.592-0.64c0.096-0.224,0.202-0.885,0.319-1.984s0.208-2.139,0.272-3.12&#13;&#10;&#9;&#9;c0.063-0.981,0.144-1.776,0.24-2.384c0.096-0.608,0.191-1.003,0.288-1.184c0.096-0.181,0.267-0.272,0.512-0.272&#13;&#10;&#9;&#9;s0.592,0.069,1.04,0.208s0.715,0.256,0.8,0.352c0.085,0.096,0.128,0.208,0.128,0.336s-0.032,0.288-0.096,0.48&#13;&#10;&#9;&#9;c-0.192,0.619-0.353,1.504-0.48,2.656s-0.191,1.984-0.191,2.496s0.085,0.768,0.256,0.768c0.063,0,0.24-0.059,0.528-0.176&#13;&#10;&#9;&#9;c0.287-0.117,0.612-0.176,0.976-0.176c0.362,0,0.837,0.043,1.424,0.128c0.587,0.085,0.934,0.208,1.04,0.368&#13;&#10;&#9;&#9;c0.106,0.16,0.16,0.325,0.16,0.496s-0.043,0.357-0.128,0.56c-0.086,0.203-0.24,0.742-0.464,1.616&#13;&#10;&#9;&#9;c-0.225,0.875-0.357,1.472-0.4,1.792c-0.192,1.109-0.479,2.017-0.864,2.72c-0.384,0.704-0.655,1.189-0.815,1.456&#13;&#10;&#9;&#9;s-0.363,0.4-0.608,0.4s-0.501-0.134-0.768-0.4c-0.268-0.267-0.55-0.479-0.849-0.64s-0.501-0.24-0.607-0.24&#13;&#10;&#9;&#9;c-0.235,0-0.512,0.491-0.832,1.473c-0.128,0.404-0.331,0.607-0.608,0.607c-0.106,0-0.208-0.059-0.304-0.176&#13;&#10;&#9;&#9;s-0.182-0.564-0.256-1.344c-0.075-0.779-0.112-1.467-0.112-2.064l0.064-1.792c0-0.256-0.075-0.384-0.225-0.384&#13;&#10;&#9;&#9;s-0.438,0.208-0.863,0.624c-0.428,0.416-0.673,0.693-0.736,0.831c-0.064,0.14-0.096,0.742-0.096,1.809s0.085,1.952,0.256,2.656&#13;&#10;&#9;&#9;c0.17,0.704,0.496,1.237,0.976,1.6c0.48,0.363,1.173,0.662,2.08,0.896c0.906,0.234,2.032,0.352,3.376,0.352&#13;&#10;&#9;&#9;s2.405-0.064,3.185-0.191c0.778-0.129,1.354-0.347,1.728-0.656c0.373-0.309,0.645-0.741,0.816-1.296&#13;&#10;&#9;&#9;c0.17-0.555,0.309-1.265,0.416-2.128c0.106-0.864,0.159-1.829,0.159-2.896c0-0.362,0.075-0.544,0.225-0.544&#13;&#10;&#9;&#9;c0.085,0,0.176,0.063,0.271,0.192c0.097,0.128,0.251,0.447,0.464,0.96c0.214,0.512,0.336,0.854,0.368,1.024&#13;&#10;&#9;&#9;C27.542,18.615,27.558,18.988,27.558,19.564z M19.686,13.485c0-0.725-0.106-1.173-0.319-1.344c-0.214-0.17-0.405-0.256-0.576-0.256&#13;&#10;&#9;&#9;s-0.342,0.059-0.512,0.176c-0.171,0.118-0.288,0.288-0.353,0.512c-0.063,0.224-0.213,0.96-0.448,2.208&#13;&#10;&#9;&#9;c-0.234,1.249-0.352,1.947-0.352,2.096c0,0.405,0.299,0.607,0.896,0.607c0.319,0,0.57-0.084,0.752-0.256&#13;&#10;&#9;&#9;c0.181-0.17,0.378-0.607,0.592-1.312C19.579,15.213,19.686,14.402,19.686,13.485z" stroke-width="1"/>
    </g>
    <g/>
    <g/>
    <g/>
    <g/>
    <g/>
    <g/>
    <g/>
    <g/>
    <g/>
    <g/>
    <g/>
    <g/>
    <g/>
    <g/>
    <g/>
  </g>
</svg>