<svg xmlns="http://www.w3.org/2000/svg" xmlns:xlink="http://www.w3.org/1999/xlink" version="1.1" id="图层_1" x="0px" y="0px" width="24.392000198364258" height="31.526996612548828" viewBox="1.9230000972747803 -0.7689999043941498 24.392000198364258 31.526996612548828" enable-background="new 0 0 30 30" xml:space="preserve">
<g>
	<path fill="#0000FF" d="M25.815,20.371c0,0.127-0.032,0.271-0.097,0.432c-0.063,0.16-0.16,0.24-0.288,0.24s-0.341-0.053-0.64-0.16   c-1.088-0.405-2.763-0.608-5.024-0.608c-0.917,0-1.461,0.038-1.632,0.112s-0.262,0.604-0.271,1.584   c-0.012,0.981-0.171,2.229-0.48,3.744c-0.31,1.514-0.603,2.527-0.88,3.039s-0.443,0.891-0.496,1.137   c-0.054,0.244-0.16,0.367-0.32,0.367c-0.159,0-0.347-0.043-0.56-0.127c-0.598-0.299-1.312-0.512-2.144-0.641   c-0.832-0.127-1.51-0.432-2.032-0.912c-0.523-0.48-0.977-0.816-1.36-1.008s-0.576-0.342-0.576-0.447c0-0.107,0.08-0.16,0.24-0.16   s0.304,0.01,0.432,0.031c1.109,0.234,2.315,0.352,3.616,0.352c0.362,0,0.624-0.053,0.784-0.16c0.16-0.105,0.379-0.404,0.656-0.895   c0.276-0.492,0.496-1.067,0.656-1.729c0.159-0.661,0.239-1.344,0.239-2.048s-0.043-1.157-0.128-1.36   c-0.085-0.202-0.203-0.304-0.352-0.304c-0.149,0-0.277,0.011-0.384,0.032c-2.22,0.405-3.937,0.678-5.152,0.816   s-2.368,0.336-3.456,0.592S4.38,22.75,4.071,22.898c-0.309,0.149-0.539,0.225-0.688,0.225c-0.363,0-0.613-0.268-0.752-0.801   s-0.208-0.896-0.208-1.088c0-0.191,0.128-0.299,0.384-0.32c0.426-0.042,1.034-0.122,1.824-0.24   c0.789-0.116,1.381-0.234,1.776-0.352c0.394-0.117,0.768-0.176,1.12-0.176c0.352,0,1.019-0.111,2-0.336   c0.98-0.225,1.712-0.427,2.191-0.607c0.48-0.182,1.222-0.39,2.225-0.625c0.298-0.063,0.447-0.244,0.447-0.543   c0-0.193-0.053-0.353-0.159-0.48c-0.107-0.128-0.16-0.24-0.16-0.336s0.106-0.197,0.319-0.305c0.661-0.298,0.992-0.725,0.992-1.279   c0-0.363-0.149-0.544-0.448-0.544c-0.213,0-0.923,0.288-2.128,0.865c-1.205,0.576-1.877,0.986-2.016,1.231   s-0.283,0.368-0.432,0.368c-0.149,0-0.39-0.213-0.721-0.641c-0.331-0.426-0.496-0.768-0.496-1.023c0-0.405,0.379-0.693,1.137-0.864   c0.757-0.17,1.509-0.405,2.256-0.704c0.746-0.299,1.168-0.512,1.264-0.64s0.145-0.299,0.145-0.512l0.031-1.792   c0-0.213-0.069-0.32-0.208-0.32s-0.763,0.416-1.872,1.248s-2.304,1.888-3.584,3.168c-0.213,0.213-0.479,0.39-0.8,0.527   c-0.319,0.14-0.613,0.209-0.88,0.209c-0.267,0-0.667-0.096-1.2-0.289c-0.534-0.191-0.8-0.373-0.8-0.543   c0-0.128,0.165-0.192,0.496-0.192c0.331,0,0.677-0.154,1.04-0.464c0.362-0.309,0.928-0.656,1.696-1.04   c0.768-0.384,1.882-1.274,3.344-2.672c1.461-1.397,2.192-2.213,2.192-2.448c0-0.106-0.08-0.16-0.24-0.16s-0.561,0.123-1.2,0.368   c-0.64,0.246-1.232,0.507-1.776,0.784s-0.88,0.416-1.008,0.416S8.903,9.842,8.743,9.586S8.386,8.898,8.151,8.291   C7.916,7.683,7.799,7.272,7.799,7.059c0-0.213,0.128-0.32,0.384-0.32l0.385,0.064c0.554,0,1.594-0.139,3.119-0.416   s2.342-0.501,2.448-0.672c0.106-0.17,0.208-0.805,0.305-1.904c0.096-1.099,0.144-1.925,0.144-2.48c0-0.555-0.021-0.885-0.064-0.992   c-0.043-0.106-0.063-0.202-0.063-0.288c0-0.213,0.171-0.32,0.512-0.32s0.769,0.075,1.28,0.224c0.512,0.149,0.837,0.283,0.976,0.4   c0.139,0.118,0.208,0.24,0.208,0.368s-0.053,0.288-0.16,0.48c-0.277,0.555-0.415,1.558-0.415,3.008c0,0.47,0.079,0.704,0.239,0.704   s0.773-0.149,1.84-0.448c0.149-0.042,0.314-0.064,0.496-0.064s0.331,0.166,0.448,0.496c0.117,0.331,0.176,0.582,0.176,0.752   c0,0.171-0.053,0.315-0.16,0.432c-0.106,0.118-0.495,0.395-1.168,0.832c-0.672,0.438-1.205,0.747-1.6,0.928   c-0.395,0.182-0.592,0.427-0.592,0.736c0,0.31,0.08,0.501,0.24,0.576c0.159,0.075,0.464,0.112,0.911,0.112   c0.448,0,0.779-0.011,0.992-0.032c0.213-0.021,0.501-0.032,0.864-0.032c0.362,0,0.715,0.021,1.056,0.064   c0.342,0.043,0.608,0.064,0.801,0.064l0.512-0.064c0.299,0,0.448,0.128,0.448,0.384c0,0.256,0.074,0.438,0.224,0.544   c0.213,0.214,0.32,0.651,0.32,1.312c0,0.448-0.16,0.672-0.48,0.672c-0.085,0-0.234-0.037-0.448-0.112   c-0.213-0.074-0.607-0.149-1.184-0.224c-0.576-0.074-1.008-0.181-1.296-0.32c-0.288-0.139-0.8-0.288-1.536-0.448   c-0.736-0.16-1.237-0.24-1.504-0.24s-0.443,0.246-0.528,0.736c-0.085,0.491-0.128,0.79-0.128,0.896   c0,0.256,0.064,0.384,0.192,0.384s0.33-0.026,0.607-0.08c0.277-0.053,0.672-0.08,1.185-0.08c0.512,0,1.034,0.091,1.567,0.272   c0.533,0.182,0.801,0.368,0.801,0.56s-0.092,0.363-0.272,0.512c-0.182,0.149-0.453,0.48-0.815,0.992   c-0.363,0.513-0.79,0.917-1.28,1.216c-0.277,0.172-0.416,0.363-0.416,0.576c0,0.214,0.037,0.475,0.111,0.784   c0.075,0.31,0.347,0.464,0.816,0.464l1.152-0.031c0.49,0,0.954,0.021,1.392,0.063c0.438,0.043,1.008,0.063,1.712,0.063   s1.185-0.031,1.44-0.096s0.453-0.096,0.592-0.096s0.267,0.059,0.384,0.176s0.288,0.453,0.512,1.008   C25.703,19.709,25.815,20.115,25.815,20.371z" stroke-width="1"/>
</g>
</svg>