<svg xmlns="http://www.w3.org/2000/svg" xmlns:xlink="http://www.w3.org/1999/xlink" version="1.1" id="图层_1" x="0px" y="0px" width="27.975997924804688" height="28.006999969482422" viewBox="1.6990022659301758 0.5110000371932983 27.975997924804688 28.006999969482422" enable-background="new 0 0 30 30" xml:space="preserve">
<g>
	<path fill="#0000FF" d="M23.127,24.946c1.365,0,2.603,0.117,3.712,0.353c1.109,0.234,1.776,0.426,2,0.576   c0.225,0.148,0.336,0.304,0.336,0.463c0,0.16-0.106,0.31-0.319,0.449c-0.214,0.138-0.801,0.324-1.761,0.559   s-1.738,0.354-2.336,0.354s-1.216,0.053-1.855,0.16c-0.641,0.105-1.152,0.158-1.536,0.158c-0.726,0-1.174-0.158-1.344-0.479   c-0.491-0.918-1.168-1.644-2.032-2.177s-1.733-0.8-2.608-0.8c-0.191,0-0.475,0.037-0.848,0.111   c-0.374,0.075-0.912,0.113-1.616,0.113s-1.488-0.08-2.352-0.24c-0.864-0.16-1.702-0.24-2.513-0.24   c-1.707,0-2.997,0.225-3.872,0.672c-0.171,0.085-0.326,0.128-0.464,0.128s-0.427-0.267-0.864-0.8   c-0.438-0.533-0.656-0.912-0.656-1.137c0-0.224,0.085-0.383,0.256-0.479c0.17-0.096,0.411-0.122,0.72-0.08   c0.309,0.043,0.763,0.063,1.36,0.063c0.597,0,1.146-0.063,1.648-0.191c0.501-0.128,0.752-0.271,0.752-0.432   s-0.075-0.336-0.224-0.528c-0.662-0.769-1.2-1.643-1.616-2.624c-0.416-0.98-0.624-1.877-0.624-2.688l0.064-0.896   c0-0.277-0.021-0.496-0.064-0.656c-0.043-0.16-0.064-0.288-0.064-0.384c0-0.096,0.074-0.203,0.224-0.32   c0.149-0.117,0.368-0.176,0.656-0.176s0.64,0.096,1.056,0.288s0.624,0.39,0.624,0.592s-0.075,0.368-0.224,0.496   c-0.534,0.428-0.8,1.125-0.8,2.096c0,0.972,0.458,2.027,1.376,3.168c0.917,1.143,1.626,1.744,2.128,1.809   c0.501,0.064,0.858,0.128,1.071,0.191c1.003,0.277,1.883,0.438,2.641,0.48c0.757,0.043,1.834,0.229,3.231,0.561   c1.397,0.33,2.379,0.613,2.944,0.848s1.12,0.4,1.664,0.496S22.252,24.946,23.127,24.946z M7.127,9.555   c0,0.256-0.197,0.443-0.592,0.56c-0.395,0.117-0.773,0.176-1.136,0.176c-0.726,0-1.232-0.298-1.52-0.896   c-0.288-0.597-0.432-1.04-0.432-1.328s0.075-0.576,0.224-0.864C3.82,6.915,3.98,6.771,4.151,6.771c0.17,0,0.331,0.107,0.48,0.32   C5.058,7.667,5.58,8.152,6.199,8.546C6.817,8.941,7.127,9.277,7.127,9.555z M18.903,1.011c0.276,0,0.612,0.203,1.008,0.608   c0.395,0.405,0.592,0.704,0.592,0.896s-0.165,0.325-0.496,0.4c-0.331,0.075-1.253,0.512-2.768,1.312   c-1.516,0.8-2.502,1.365-2.96,1.696c-0.459,0.331-0.688,0.592-0.688,0.784s-0.054,0.326-0.16,0.4   c-0.106,0.075-0.438,0.203-0.991,0.384c-0.556,0.181-0.972,0.325-1.248,0.432c-0.832,0.342-1.505,0.512-2.017,0.512   c-0.149,0-0.224-0.032-0.224-0.096c0-0.17,0.384-0.613,1.151-1.328c0.769-0.715,1.856-1.536,3.265-2.464   c1.408-0.928,2.309-1.477,2.704-1.648c0.395-0.17,0.811-0.416,1.248-0.736c0.437-0.32,0.752-0.592,0.943-0.816   C18.455,1.123,18.668,1.011,18.903,1.011z M23.831,14.579c0,0.149-0.064,0.304-0.192,0.464s-0.299,0.24-0.512,0.24   c-0.214,0-0.528-0.048-0.944-0.144c-0.416-0.096-0.976-0.144-1.68-0.144s-1.317,0.043-1.84,0.128   c-0.523,0.085-0.838,0.182-0.944,0.288c-0.106,0.107-0.16,0.32-0.16,0.64l-0.031,1.568c0,0.426,0.352,0.639,1.056,0.639   c0.213,0,0.373-0.058,0.48-0.176c0.106-0.117,0.207-0.367,0.304-0.752c0.096-0.384,0.144-0.714,0.144-0.992   c0-0.276,0.117-0.416,0.353-0.416c0.234,0,0.629,0.118,1.184,0.353c0.555,0.235,0.832,0.47,0.832,0.704s-0.203,0.923-0.608,2.064   c-0.405,1.141-0.65,1.76-0.735,1.855c-0.086,0.096-0.197,0.145-0.336,0.145c-0.14,0-0.523-0.064-1.152-0.192   s-1.2-0.192-1.712-0.192c-0.256,0-0.528,0.054-0.816,0.16c-0.287,0.107-0.735,0.197-1.344,0.271   c-0.607,0.076-1.104,0.23-1.488,0.465c-0.171,0.107-0.341,0.16-0.512,0.16s-0.47-0.229-0.896-0.688   c-0.428-0.458-0.721-0.965-0.88-1.521c-0.16-0.554-0.24-0.948-0.24-1.184c0-0.576,0.336-0.863,1.008-0.863s1.008,0.191,1.008,0.576   c0,0.127-0.043,0.282-0.128,0.463c-0.085,0.182-0.128,0.336-0.128,0.465c0,0.299,0.128,0.447,0.384,0.447   c0.149,0,0.395-0.09,0.736-0.271c0.341-0.182,0.538-0.373,0.592-0.576c0.053-0.203,0.08-0.624,0.08-1.264   c0-0.641-0.021-1.014-0.063-1.12c-0.044-0.106-0.14-0.16-0.288-0.16l-1.504,0.224c-0.513,0.086-1.052,0.219-1.616,0.4   c-0.565,0.182-0.912,0.326-1.04,0.432c-0.128,0.107-0.262,0.16-0.4,0.16s-0.293-0.202-0.464-0.607s-0.256-0.741-0.256-1.008   c0-0.267,0.144-0.417,0.432-0.449c0.288-0.032,0.955-0.213,2-0.544c1.045-0.331,1.809-0.56,2.288-0.688   c0.48-0.128,0.747-0.25,0.8-0.368c0.054-0.117,0.08-0.298,0.08-0.544c0-0.245-0.031-0.4-0.096-0.464s-0.171-0.096-0.32-0.096   c-0.533,0-0.949,0.134-1.248,0.4s-0.613,0.464-0.943,0.592c-0.331,0.128-0.582,0.192-0.752,0.192c-0.171,0-0.256-0.101-0.256-0.304   s0.096-0.432,0.287-0.688c0.598-0.811,0.896-1.354,0.896-1.632c0-0.277-0.145-0.469-0.432-0.576   c-0.288-0.106-0.556-0.288-0.801-0.544c-0.245-0.256-0.367-0.48-0.367-0.672c0-0.192,0.042-0.336,0.128-0.432   c0.085-0.096,0.191-0.144,0.319-0.144l0.416,0.032c0.533,0,0.944-0.064,1.232-0.192s0.533-0.192,0.735-0.192   c0.203,0,0.305,0.128,0.305,0.384c0,0.128-0.043,0.299-0.128,0.512c-0.086,0.213-0.128,0.405-0.128,0.576   c0,0.171,0.068,0.299,0.208,0.384c0.138,0.085,0.276,0.128,0.416,0.128c0.138,0,0.384-0.069,0.735-0.208   c0.353-0.139,0.672-0.25,0.96-0.336c0.288-0.085,0.533-0.234,0.736-0.448c0.202-0.213,0.688-0.885,1.456-2.016   c0.768-1.131,1.29-1.973,1.568-2.528c0.106-0.234,0.261-0.352,0.464-0.352c0.202,0,0.479,0.139,0.832,0.416   c0.352,0.278,0.527,0.507,0.527,0.688c0,0.182-0.08,0.331-0.239,0.448c-0.16,0.117-0.47,0.454-0.929,1.008   c-0.459,0.555-0.795,0.971-1.008,1.248c-0.214,0.277-0.32,0.459-0.32,0.544c0,0.235,0.16,0.352,0.48,0.352s0.528,0.038,0.624,0.112   s0.144,0.341,0.144,0.8c0,0.459-0.139,0.747-0.416,0.864c-0.277,0.118-0.747,0.283-1.407,0.496   c-0.448,0.149-0.673,0.512-0.673,1.088c0,0.32,0.203,0.438,0.608,0.352c0.64-0.106,1.109-0.16,1.408-0.16s0.517,0.011,0.656,0.032   c0.138,0.021,0.341,0.032,0.607,0.032s0.518-0.011,0.752-0.032l0.608-0.096c0.299,0,0.624,0.267,0.976,0.8   C23.655,13.928,23.831,14.323,23.831,14.579z M17.143,5.971c0,0.107-0.053,0.283-0.159,0.528c-0.107,0.246-0.246,0.459-0.416,0.64   c-0.172,0.181-0.283,0.443-0.336,0.784c-0.054,0.342-0.182,0.512-0.385,0.512s-0.453-0.229-0.752-0.688   C14.796,7.288,14.647,7,14.647,6.882c0-0.117,0.096-0.208,0.287-0.272c0.448-0.128,1.014-0.405,1.696-0.832   c0.085-0.042,0.192-0.064,0.32-0.064S17.143,5.8,17.143,5.971z" stroke-width="1"/>
</g>
</svg>