<svg xmlns="http://www.w3.org/2000/svg" xmlns:xlink="http://www.w3.org/1999/xlink" version="1.1" id="图层_1" x="0px" y="0px" width="23.433002471923828" height="22.312999725341797" viewBox="1.7449979782104492 2.48799991607666 23.433002471923828 22.312999725341797" style="enable-background:new 0 0 30 30;" xml:space="preserve">
  <g>
    <g>
      <path style="fill:#0000FF;" d="M24.678,12.749c0,0.171-0.085,0.342-0.256,0.512c-0.171,0.171-0.533,1.142-1.088,2.912&#13;&#10;&#9;&#9;s-1.131,3.397-1.728,4.88c-0.598,1.482-1.024,2.395-1.28,2.736c-0.256,0.341-0.47,0.512-0.641,0.512s-0.507-0.145-1.008-0.432&#13;&#10;&#9;&#9;c-0.501-0.289-1.071-0.73-1.712-1.328c-0.256-0.213-0.619-0.32-1.088-0.32c-0.47,0-1.174,0.111-2.112,0.336&#13;&#10;&#9;&#9;s-1.823,0.485-2.655,0.784c-0.3,0.106-0.556,0.159-0.769,0.159s-0.442-0.25-0.688-0.752c-0.246-0.5-0.592-1.104-1.04-1.807&#13;&#10;&#9;&#9;c-0.918-1.473-1.568-3.232-1.952-5.281c-0.021-0.106-0.08-0.16-0.176-0.16c-0.097,0-0.177,0.021-0.24,0.064&#13;&#10;&#9;&#9;c-0.896,0.533-1.686,0.944-2.368,1.232c-0.683,0.287-1.125,0.432-1.328,0.432s-0.304-0.191-0.304-0.576&#13;&#10;&#9;&#9;c0-0.384,0.203-0.874,0.608-1.472c0.405-0.597,1.418-1.685,3.04-3.264c0.405-0.384,0.736-0.784,0.992-1.2s0.929-1.216,2.017-2.4&#13;&#10;&#9;&#9;c1.088-1.184,2.122-2.331,3.104-3.44c0.981-1.109,1.515-1.701,1.601-1.776c0.085-0.074,0.187-0.112,0.304-0.112&#13;&#10;&#9;&#9;s0.442,0.246,0.976,0.736c0.533,0.491,0.8,0.875,0.8,1.152c0,0.384-0.261,0.619-0.783,0.704c-0.523,0.085-1.104,0.491-1.744,1.216&#13;&#10;&#9;&#9;c-0.598,0.683-1.653,1.589-3.168,2.72c-0.704,0.512-1.211,1.008-1.521,1.488s-0.464,0.923-0.464,1.328&#13;&#10;&#9;&#9;c0,0.406,0.017,0.64,0.048,0.704c0.032,0.064,0.097,0.096,0.192,0.096s0.187-0.021,0.271-0.064&#13;&#10;&#9;&#9;c1.643-0.619,3.382-1.168,5.217-1.648c1.834-0.48,3.37-0.72,4.607-0.72s2.416,0.182,3.536,0.544c1.12,0.363,1.866,0.629,2.24,0.8&#13;&#10;&#9;&#9;C24.491,12.216,24.678,12.45,24.678,12.749z M20.102,13.741c0-0.384-0.053-0.672-0.159-0.864c-0.107-0.192-0.374-0.378-0.801-0.56&#13;&#10;&#9;&#9;s-0.875-0.272-1.344-0.272c-0.47,0-1.302,0.213-2.496,0.64c-1.194,0.427-2.229,0.837-3.104,1.232&#13;&#10;&#9;&#9;c-0.875,0.395-1.478,0.736-1.809,1.024c-0.331,0.288-0.496,0.667-0.496,1.135c0,0.471,0.054,1.104,0.16,1.904&#13;&#10;&#9;&#9;c0.106,0.801,0.283,1.43,0.528,1.889s0.613,0.688,1.104,0.688c0.299,0,0.944-0.17,1.937-0.512s1.733-0.512,2.224-0.512&#13;&#10;&#9;&#9;c0.32,0,0.544,0.117,0.672,0.352c0.405,0.704,0.811,1.057,1.217,1.057c0.213,0,0.395-0.097,0.544-0.289&#13;&#10;&#9;&#9;c0.148-0.191,0.404-0.853,0.768-1.984c0.362-1.13,0.629-2.111,0.8-2.943S20.102,14.232,20.102,13.741z M14.886,14.957&#13;&#10;&#9;&#9;c0.47-0.128,0.96-0.192,1.473-0.192c0.512,0,0.768,0.182,0.768,0.544c0,0.149-0.063,0.438-0.192,0.864&#13;&#10;&#9;&#9;c-0.128,0.427-0.331,0.704-0.607,0.832c-0.405,0.149-0.849,0.396-1.328,0.735c-0.48,0.342-0.907,0.582-1.28,0.721&#13;&#10;&#9;&#9;s-0.667,0.207-0.88,0.207s-0.512-0.324-0.896-0.975c-0.385-0.651-0.576-1.104-0.576-1.361c0-0.256,0.298-0.468,0.896-0.639&#13;&#10;&#9;&#9;L14.886,14.957z" stroke-width="1"/>
    </g>
    <g/>
    <g/>
    <g/>
    <g/>
    <g/>
    <g/>
    <g/>
    <g/>
    <g/>
    <g/>
    <g/>
    <g/>
    <g/>
    <g/>
    <g/>
  </g>
</svg>