<svg xmlns="http://www.w3.org/2000/svg" xmlns:xlink="http://www.w3.org/1999/xlink" version="1.1" id="图层_1" x="0px" y="0px" width="15.11300277709961" height="21.958999633789062" viewBox="6.657997131347656 5.599001407623291 15.11300277709961 21.958999633789062" enable-background="new 0 0 30 30" xml:space="preserve">
<g>
	<path fill="#0000FF" d="M21.271,8.338c0,0.128-0.085,0.278-0.256,0.448c-0.171,0.171-0.31,0.459-0.416,0.864   c-0.106,0.406-0.229,1.414-0.367,3.024c-0.14,1.611-0.208,3.008-0.208,4.193c0,1.184,0.021,2.82,0.063,4.911l0.128,4.416   c0,0.576-0.085,0.864-0.256,0.864c-0.299,0-0.816-0.331-1.552-0.992c-0.736-0.662-1.729-1.467-2.977-2.416   s-1.963-1.461-2.144-1.535c-0.182-0.075-0.357-0.113-0.528-0.113s-0.704,0.118-1.6,0.353c-0.896,0.235-1.504,0.454-1.824,0.656   s-0.576,0.304-0.768,0.304c-0.448,0-0.795-0.811-1.04-2.432c-0.246-1.621-0.368-3.477-0.368-5.568c0-0.298,0.026-0.96,0.08-1.984   c0.053-1.024,0.096-2.064,0.128-3.12s0.063-1.685,0.096-1.888s0.133-0.347,0.304-0.432c0.171-0.085,0.518-0.139,1.04-0.16   c0.522-0.021,1.253-0.192,2.192-0.512c0.938-0.32,2.016-0.587,3.232-0.8c1.216-0.213,2.17-0.32,2.863-0.32s1.563,0.267,2.608,0.8   C20.748,7.432,21.271,7.912,21.271,8.338z M16.119,22.227c0.427,0,0.698-0.102,0.815-0.305c0.117-0.201,0.177-0.74,0.177-1.615   c0-3.52-0.08-6.272-0.24-8.256c-0.16-1.984-0.336-3.184-0.528-3.6c-0.191-0.416-0.624-0.624-1.296-0.624s-1.488,0.213-2.448,0.64   c-0.96,0.427-1.535,0.854-1.728,1.28s-0.288,0.715-0.288,0.864c0,0.278,0.139,0.395,0.416,0.352   c1.856-0.298,2.954-0.448,3.296-0.448c0.341,0,0.538,0.059,0.592,0.176c0.054,0.118,0.08,0.374,0.08,0.768   c0,0.395-0.08,0.651-0.24,0.768c-0.159,0.118-0.885,0.454-2.176,1.008c-1.291,0.555-2.043,0.88-2.256,0.976   c-0.214,0.096-0.347,0.283-0.4,0.56c-0.053,0.277-0.079,0.539-0.079,0.784s0.058,0.367,0.176,0.367   c0.117,0,0.282-0.042,0.496-0.127c1.792-0.576,2.853-0.864,3.184-0.864s0.522,0.053,0.576,0.16c0.053,0.107,0.08,0.32,0.08,0.64   c0,0.32-0.038,0.555-0.112,0.704c-0.075,0.149-0.336,0.325-0.784,0.528c-0.447,0.203-1.184,0.564-2.208,1.088   c-1.023,0.523-1.595,0.843-1.712,0.96s-0.176,0.251-0.176,0.399c0,0.555,0.128,0.832,0.384,0.832c0.085,0,0.225-0.026,0.416-0.08   c0.192-0.053,0.677-0.154,1.456-0.304c0.778-0.149,1.296-0.224,1.552-0.224c0.257,0,0.416,0.107,0.48,0.32   c0.063,0.213,0.096,0.501,0.096,0.863c0,0.363,0.054,0.592,0.16,0.688c0.106,0.097,0.41,0.24,0.912,0.433   C15.292,22.131,15.735,22.227,16.119,22.227z" stroke-width="1"/>
</g>
</svg>