<svg xmlns="http://www.w3.org/2000/svg" xmlns:xlink="http://www.w3.org/1999/xlink" version="1.1" id="图层_1" x="0px" y="0px" width="24.837005615234375" height="28.167999267578125" viewBox="1.890998363494873 1.7910003662109375 24.837005615234375 28.167999267578125" enable-background="new 0 0 30 30" xml:space="preserve">
<g>
	<path fill="#0000FF" d="M15.415,22.867c-0.021,0.49-0.011,1.354,0.032,2.592l0.128,2.848c0,0.447-0.16,0.752-0.48,0.912   c-0.319,0.16-0.57,0.24-0.752,0.24s-0.304-0.016-0.368-0.049c-0.063-0.031-0.117-0.09-0.159-0.176   c-0.043-0.086-0.092-0.379-0.145-0.879c-0.054-0.502-0.112-1.468-0.176-2.896l-0.128-4.289c-0.043-1.428-0.064-2.506-0.064-3.231   s-0.026-1.136-0.08-1.231c-0.053-0.097-0.144-0.145-0.271-0.145s-1.189,0.133-3.185,0.4c-1.994,0.267-3.456,0.527-4.384,0.783   c-0.928,0.256-1.478,0.422-1.648,0.496c-0.171,0.075-0.31,0.112-0.416,0.112c-0.299,0-0.528-0.181-0.688-0.544   c-0.16-0.362-0.24-0.65-0.24-0.864c0-0.213,0.154-0.341,0.464-0.384c0.309-0.043,0.869-0.191,1.68-0.447   c2.496-0.769,5.13-1.451,7.904-2.049c0.426-0.085,0.688-0.192,0.783-0.32c0.097-0.128,0.145-0.448,0.145-0.96l0.063-1.568   c0-0.363-0.091-0.544-0.271-0.544c-0.182,0-0.71,0.256-1.584,0.768c-0.875,0.512-1.504,0.992-1.889,1.44   c-0.234,0.256-0.459,0.384-0.672,0.384s-0.479-0.155-0.8-0.464s-0.479-0.805-0.479-1.488c0-0.341,0.042-0.554,0.128-0.64   c0.085-0.085,0.319-0.16,0.704-0.224c1.364-0.299,2.469-0.597,3.312-0.896s1.313-0.501,1.408-0.608   c0.096-0.106,0.144-0.314,0.144-0.624s-0.031-0.704-0.096-1.184S13.196,6.35,13.111,6.21c-0.086-0.139-0.24-0.208-0.464-0.208   c-0.225,0-0.608,0.075-1.152,0.224c-0.544,0.149-0.977,0.331-1.296,0.544c-0.32,0.213-0.55,0.32-0.688,0.32   s-0.24-0.096-0.304-0.288C9.143,6.61,9.036,6.44,8.887,6.291C8.439,5.757,8.215,5.283,8.215,4.867s0.234-0.656,0.704-0.72   c1.6-0.234,2.56-0.405,2.88-0.512l2.368-0.512c1.429-0.298,2.325-0.448,2.688-0.448c0.362,0,0.607-0.021,0.735-0.064   c0.598-0.213,1.109-0.32,1.536-0.32s0.693,0.032,0.8,0.096s0.197,0.251,0.272,0.56c0.074,0.31,0.111,0.603,0.111,0.88   s-0.037,0.448-0.111,0.512c-0.075,0.064-0.315,0.139-0.721,0.224c-0.405,0.085-0.72,0.176-0.943,0.272   c-0.225,0.096-0.613,0.213-1.168,0.352c-0.556,0.139-0.87,0.272-0.944,0.4c-0.075,0.128-0.191,0.848-0.352,2.16   s-0.24,2.182-0.24,2.608c0,0.427,0.063,0.64,0.192,0.64c0.085,0,0.362-0.24,0.832-0.72c0.469-0.48,0.783-0.842,0.943-1.088   c0.16-0.245,0.475-0.656,0.944-1.232c0.469-0.576,0.8-0.922,0.992-1.04c0.191-0.117,0.389-0.176,0.592-0.176   c0.202,0,0.484,0.102,0.848,0.304c0.362,0.203,0.544,0.411,0.544,0.624c0,0.213-0.117,0.405-0.352,0.576   c-0.939,0.661-1.889,1.493-2.849,2.496c-0.427,0.491-0.896,0.987-1.407,1.488c-0.513,0.501-0.769,0.806-0.769,0.912   c0,0.107,0.091,0.16,0.272,0.16c0.181,0,0.512-0.042,0.992-0.128c0.479-0.085,1.056-0.128,1.728-0.128s1.488-0.032,2.448-0.096   c0.96-0.064,1.541-0.117,1.744-0.16c0.202-0.042,0.389-0.064,0.56-0.064c0.49,0,0.832,0.192,1.024,0.576   c0.404,0.79,0.692,1.312,0.863,1.568c0.171,0.256,0.257,0.576,0.257,0.959c0,0.385-0.129,0.576-0.385,0.576   c-0.128,0-0.31-0.031-0.544-0.096c-1.408-0.405-3.062-0.607-4.96-0.607c-0.917,0-1.792,0.047-2.624,0.143   c-0.832,0.097-1.371,0.188-1.616,0.273c-0.245,0.085-0.399,0.187-0.464,0.303c-0.063,0.118-0.096,0.379-0.096,0.785l-0.032,1.344   L15.415,22.867z" stroke-width="1"/>
</g>
</svg>