<svg xmlns="http://www.w3.org/2000/svg" xmlns:xlink="http://www.w3.org/1999/xlink" version="1.1" id="图层_1" x="0px" y="0px" width="22.631999969482422" height="25.288002014160156" viewBox="2.5460002422332764 2.839998722076416 22.631999969482422 25.288002014160156" style="enable-background:new 0 0 30 30;" xml:space="preserve">
  <g>
    <g>
      <path style="fill:#0000FF;" d="M11.206,7.564c0,0.15-0.054,0.347-0.16,0.592c-0.106,0.246-0.16,0.726-0.16,1.44&#13;&#10;&#9;&#9;c0,0.715,0.026,1.168,0.08,1.36c0.053,0.192,0.08,0.363,0.08,0.512c0,0.384-0.245,1.403-0.736,3.056&#13;&#10;&#9;&#9;c-0.49,1.653-0.735,2.779-0.735,3.375c0,0.598,0.037,0.966,0.111,1.104c0.075,0.139,0.112,0.261,0.112,0.368&#13;&#10;&#9;&#9;c0,0.342-0.139,0.607-0.416,0.8S8.71,20.69,8.198,21.148c-0.513,0.459-1.334,0.992-2.464,1.6c-1.131,0.609-1.92,0.912-2.368,0.912&#13;&#10;&#9;&#9;c-0.214,0-0.32-0.08-0.32-0.239c0-0.16,0.245-0.496,0.736-1.009c1.792-1.94,2.853-3.258,3.184-3.951s0.677-1.515,1.04-2.464&#13;&#10;&#9;&#9;c0.362-0.949,0.544-2.032,0.544-3.248c0-1.216-0.021-2.25-0.063-3.104L8.39,7.5c0-0.298,0.037-0.512,0.112-0.64&#13;&#10;&#9;&#9;c0.074-0.128,0.234-0.192,0.48-0.192c0.244,0,0.677,0.064,1.296,0.192C10.896,6.989,11.206,7.224,11.206,7.564z M17.702,8.653&#13;&#10;&#9;&#9;c0,0.128-0.054,0.235-0.16,0.32c-0.107,0.085-0.182,0.299-0.224,0.64c-0.043,0.341-0.102,1.328-0.177,2.96&#13;&#10;&#9;&#9;c-0.074,1.632-0.123,2.949-0.144,3.953c-0.021,1.002-0.08,1.621-0.176,1.855c-0.097,0.234-0.353,0.453-0.769,0.656&#13;&#10;&#9;&#9;s-0.8,0.304-1.151,0.304c-0.353,0-0.528-0.31-0.528-0.929l0.096-2.527c0-0.789-0.031-2.021-0.096-3.696&#13;&#10;&#9;&#9;c-0.064-1.674-0.117-2.698-0.16-3.072c-0.043-0.373-0.063-0.603-0.063-0.688c0-0.597,0.298-0.896,0.896-0.896&#13;&#10;&#9;&#9;c0.171,0,0.405,0.048,0.704,0.144c0.299,0.096,0.613,0.155,0.944,0.176c0.33,0.021,0.581,0.118,0.752,0.288&#13;&#10;&#9;&#9;C17.616,8.312,17.702,8.482,17.702,8.653z M24.678,4.396c0,0.086-0.031,0.16-0.096,0.224c-0.299,0.32-0.448,3.381-0.448,9.184&#13;&#10;&#9;&#9;c0,2.112,0.021,3.574,0.064,4.384c0.042,0.812,0.063,1.499,0.063,2.064s-0.063,1.131-0.191,1.696&#13;&#10;&#9;&#9;c-0.128,0.564-0.192,1.291-0.192,2.176s0.064,1.557,0.192,2.016s0.191,0.773,0.191,0.943c0,0.363-0.154,0.545-0.464,0.545&#13;&#10;&#9;&#9;s-0.758-0.08-1.344-0.24c-0.587-0.16-0.88-0.379-0.88-0.656c0-0.128,0.042-0.267,0.128-0.416c0.085-0.149,0.128-0.453,0.128-0.912&#13;&#10;&#9;&#9;s-0.032-1.072-0.096-1.84c-0.192-2.432-0.288-5.396-0.288-8.896l0.128-8.064c0-0.853-0.021-1.44-0.064-1.76l-0.128-0.768&#13;&#10;&#9;&#9;c0-0.49,0.299-0.736,0.896-0.736c0.341,0,0.826,0.117,1.456,0.352C24.363,3.928,24.678,4.162,24.678,4.396z" stroke-width="1"/>
    </g>
    <g/>
    <g/>
    <g/>
    <g/>
    <g/>
    <g/>
    <g/>
    <g/>
    <g/>
    <g/>
    <g/>
    <g/>
    <g/>
    <g/>
    <g/>
  </g>
</svg>