<svg xmlns="http://www.w3.org/2000/svg" xmlns:xlink="http://www.w3.org/1999/xlink" version="1.1" id="图层_1" x="0px" y="0px" width="30.472997665405273" height="27.177001953125" viewBox="0.03500044345855713 1.309000015258789 30.472997665405273 27.177001953125" enable-background="new 0 0 30 30" xml:space="preserve">
<g>
	<path fill="#0000FF" d="M3.671,11.57c0.106,0,0.192,0.054,0.256,0.16c0.064,0.107,0.096,0.427,0.096,0.96   c0,0.534-0.021,0.907-0.064,1.12c-0.043,0.213-0.064,0.981-0.064,2.305c0,0.746-0.16,1.119-0.48,1.119   c-0.128,0-0.288-0.043-0.48-0.128c-0.47-0.213-0.891-0.353-1.264-0.416c-0.374-0.063-0.656-0.187-0.848-0.368   c-0.192-0.181-0.288-0.379-0.288-0.592s0.128-0.432,0.384-0.656c0.256-0.224,0.528-0.533,0.816-0.928   c0.288-0.395,0.741-1.093,1.36-2.096C3.308,11.73,3.5,11.57,3.671,11.57z M7.607,16.146c0,0.406,0.053,0.607,0.159,0.607   c0.214,0,0.651-0.298,1.313-0.896c0.661-0.597,1.658-2.123,2.992-4.576c1.333-2.453,2.544-5.312,3.632-8.576   c0.191-0.597,0.469-0.896,0.832-0.896c0.191,0,0.475,0.112,0.848,0.336s0.704,0.39,0.992,0.496   c0.288,0.107,0.432,0.235,0.432,0.384c0,0.149-0.106,0.39-0.319,0.72c-0.214,0.331-0.428,0.773-0.641,1.328   s-0.319,0.901-0.319,1.04s0.042,0.277,0.128,0.416c0.085,0.139,0.479,0.651,1.184,1.536c0.704,0.886,1.429,1.702,2.176,2.448   c0.747,0.747,1.354,1.28,1.824,1.6c0.469,0.32,1.393,0.827,2.769,1.52c1.376,0.694,2.64,1.318,3.792,1.872   c0.404,0.193,0.607,0.396,0.607,0.609c0,0.362-0.544,0.543-1.632,0.543c-0.448,0-1.317-0.08-2.608-0.24s-2.063-0.271-2.319-0.336   c-0.256-0.063-0.459-0.181-0.608-0.352c-0.149-0.17-0.277-0.517-0.384-1.04c-0.107-0.522-0.315-0.986-0.624-1.392   c-0.31-0.405-0.672-0.73-1.088-0.976s-0.934-0.592-1.552-1.04c-0.619-0.448-1.057-0.779-1.313-0.992   c-0.661-0.597-1.184-0.896-1.568-0.896c-0.213,0-0.447,0.182-0.703,0.544c-1.408,1.984-2.604,3.414-3.584,4.288   c-0.385,0.363-0.636,0.635-0.753,0.816c-0.117,0.182-0.213,0.469-0.287,0.864c-0.075,0.396-0.336,0.764-0.784,1.104   s-0.779,0.56-0.992,0.655c-0.214,0.097-0.502,0.166-0.864,0.209s-0.581,0.106-0.656,0.191c-0.074,0.086-0.122,0.314-0.144,0.688   c-0.021,0.374-0.069,0.912-0.144,1.617c-0.075,0.703-0.112,1.45-0.112,2.239v2.272c0,0.703-0.06,1.173-0.176,1.408   c-0.117,0.234-0.336,0.389-0.656,0.463c-0.32,0.075-0.565,0.113-0.736,0.113c-0.299,0-0.448-0.113-0.448-0.336   c0-0.225,0.021-0.465,0.064-0.721c0.256-1.451,0.384-3.818,0.384-7.104c0-0.513-0.032-1.755-0.096-3.729   c-0.064-1.973-0.096-3.749-0.096-5.328l0.096-4.352c0-0.512-0.038-0.922-0.112-1.232c-0.075-0.309-0.112-0.57-0.112-0.784   c0-0.64,0.267-0.96,0.8-0.96c0.213,0,0.506,0.085,0.88,0.256c0.373,0.171,0.666,0.288,0.88,0.352   C8.236,3.016,8.375,3.16,8.375,3.362c0,0.203-0.043,0.4-0.128,0.592C7.799,5,7.575,6.75,7.575,9.203   c0,0.256,0.032,0.427,0.096,0.512C7.735,9.8,8.012,9.821,8.503,9.778c0.49-0.042,0.896-0.064,1.216-0.064   c0.32,0,0.528,0.059,0.624,0.176c0.097,0.117,0.145,0.347,0.145,0.688s-0.171,0.64-0.513,0.896   c-0.341,0.256-0.783,0.619-1.327,1.088c-0.545,0.47-0.854,0.795-0.929,0.976c-0.075,0.182-0.111,0.4-0.111,0.656V16.146z    M18.807,16.914c0.513,0,1.222,0.214,2.128,0.641c0.907,0.427,1.36,0.736,1.36,0.928s-0.267,0.528-0.8,1.008   c-0.533,0.48-0.886,0.838-1.056,1.072c-0.513,0.704-1.004,1.216-1.473,1.536c-0.47,0.319-0.778,0.597-0.928,0.832   s-0.224,0.399-0.224,0.496c0,0.096,0.128,0.219,0.384,0.368c0.746,0.404,1.194,0.656,1.344,0.752s0.224,0.32,0.224,0.672   s-0.139,0.9-0.416,1.648c-0.277,0.746-0.597,1.119-0.96,1.119c-0.128,0-0.234-0.074-0.319-0.225   c-0.832-1.429-1.388-2.282-1.664-2.559c-1.729-1.729-2.592-2.672-2.592-2.832s0.116-0.24,0.352-0.24   c0.234,0,0.57,0.102,1.008,0.304c0.438,0.203,0.752,0.304,0.944,0.304c0.191,0,0.373-0.148,0.544-0.447l0.896-1.473   c0.427-0.682,0.641-1.205,0.641-1.568c0-0.576-0.288-0.863-0.864-0.863c-0.342,0-0.747,0.117-1.216,0.352   c-1.878,1.004-2.981,1.558-3.313,1.664c-0.331,0.107-0.592,0.256-0.783,0.448c-0.192,0.192-0.363,0.288-0.513,0.288   s-0.271-0.08-0.368-0.24c-0.096-0.16-0.271-0.49-0.527-0.992c-0.256-0.5-0.384-0.842-0.384-1.023s0.304-0.283,0.911-0.305   c0.608-0.021,1.232-0.101,1.872-0.24c0.641-0.138,1.898-0.484,3.776-1.039C17.687,17.043,18.359,16.914,18.807,16.914z    M18.231,15.123c0,0.192-0.097,0.352-0.288,0.48c-0.192,0.128-0.374,0.192-0.544,0.192c-0.172,0-0.305-0.011-0.4-0.032   c-0.096-0.021-0.283-0.059-0.56-0.112c-0.278-0.053-0.476-0.08-0.593-0.08s-0.234-0.031-0.352-0.096   c-0.117-0.064-0.214-0.272-0.288-0.624c-0.075-0.352-0.112-0.693-0.112-1.024c0-0.331,0.037-0.688,0.112-1.072   c0.074-0.384,0.16-0.608,0.256-0.672s0.213-0.096,0.353-0.096c0.138,0,0.314,0.166,0.527,0.496   c0.213,0.331,0.581,0.768,1.104,1.312C17.97,14.338,18.231,14.782,18.231,15.123z" stroke-width="1"/>
</g>
</svg>