<svg xmlns="http://www.w3.org/2000/svg" xmlns:xlink="http://www.w3.org/1999/xlink" version="1.1" id="图层_1" x="0px" y="0px" width="26.694995880126953" height="21.06500244140625" viewBox="-0.02800104022026062 4.477999687194824 26.694995880126953 21.06500244140625" enable-background="new 0 0 30 30" xml:space="preserve">
<g>
	<path fill="#0000FF" d="M11.127,6.738c0,0.235-0.112,0.443-0.336,0.624c-0.224,0.182-0.523,0.672-0.896,1.472   s-0.869,1.531-1.487,2.192c-0.832,0.896-1.419,1.632-1.76,2.208c-0.341,0.576-0.512,1.11-0.512,1.6c0,0.491,0.037,0.8,0.112,0.928   c0.074,0.128,0.229,0.214,0.464,0.256c0.683,0.149,1.162,0.288,1.44,0.416c0.276,0.128,0.416,0.282,0.416,0.464   s-0.064,0.411-0.192,0.688c-0.299,0.556-0.544,2.539-0.736,5.953c-0.043,0.597-0.154,0.996-0.336,1.199   c-0.181,0.203-0.507,0.305-0.976,0.305c-0.192,0-0.315-0.076-0.368-0.225c-0.054-0.149-0.08-0.427-0.08-0.832l0.032-2.752   c0-1.472-0.08-2.518-0.24-3.136c-0.16-0.618-0.336-0.938-0.528-0.96c-0.085,0-0.192,0.053-0.32,0.16   c-1.408,1.174-2.421,1.909-3.04,2.207c-0.619,0.3-0.992,0.449-1.12,0.449s-0.192-0.086-0.192-0.256c0-0.172,0.064-0.4,0.192-0.688   s0.448-0.741,0.96-1.36c1.728-2.154,2.912-3.989,3.552-5.504c0.235-0.555,0.587-1.291,1.056-2.208l1.664-3.072   c0.598-1.131,0.929-1.728,0.992-1.792c0.064-0.064,0.154-0.096,0.272-0.096c0.117,0,0.314,0.118,0.592,0.352   c0.277,0.235,0.576,0.454,0.896,0.656C10.967,6.189,11.127,6.44,11.127,6.738z M16.695,14.579c0.191,0,0.288,0.182,0.288,0.544   c0,0.299-0.107,0.543-0.32,0.736c-0.299,0.3-0.47,0.479-0.512,0.544c-0.192,0.256-0.716,0.822-1.568,1.696   c-0.854,0.875-1.621,1.616-2.304,2.224c-0.684,0.608-1.115,1.014-1.296,1.217c-0.182,0.203-0.363,0.303-0.544,0.303   c-0.182,0-0.614-0.26-1.297-0.783C8.46,20.536,8.119,20.2,8.119,20.051s0.085-0.256,0.256-0.32c0.555-0.191,0.981-0.421,1.28-0.688   c0.298-0.268,0.757-0.613,1.376-1.041c0.191-0.105,0.288-0.303,0.288-0.592c0-0.287-0.107-0.656-0.32-1.104   c-0.214-0.448-0.396-1.115-0.544-2c-0.149-0.885-0.224-1.637-0.224-2.256c0-0.362,0.133-0.544,0.399-0.544s0.715,0.059,1.344,0.176   s1.024,0.208,1.185,0.272s0.24,0.149,0.24,0.256c0,0.107-0.032,0.235-0.097,0.384c-0.213,0.555-0.319,1.227-0.319,2.016   c0,0.79,0.016,1.302,0.048,1.536s0.096,0.352,0.191,0.352c0.097,0,0.208-0.042,0.336-0.127c0.938-0.576,1.558-0.939,1.856-1.088   s0.555-0.304,0.768-0.464C16.396,14.659,16.567,14.579,16.695,14.579z M21.751,18.387c0,0.363,0.475,0.656,1.424,0.88   s1.589,0.416,1.92,0.575c0.331,0.16,0.561,0.391,0.688,0.689s0.191,0.672,0.191,1.119c0,0.448-0.069,0.881-0.208,1.296   c-0.139,0.416-0.245,0.699-0.319,0.849c-0.075,0.148-0.192,0.224-0.353,0.224s-0.421-0.16-0.784-0.479   c-0.362-0.32-0.667-0.619-0.911-0.896c-0.246-0.277-0.678-0.688-1.297-1.232c-0.618-0.543-0.997-0.815-1.136-0.815   s-0.304,0.075-0.496,0.224c-1.003,0.726-2.123,1.302-3.359,1.729c-1.238,0.427-2.357,0.64-3.36,0.64   c-0.47,0-0.704-0.054-0.704-0.16s0.059-0.213,0.176-0.319c0.117-0.107,0.581-0.453,1.393-1.041   c0.811-0.586,1.487-1.061,2.032-1.424c0.544-0.362,1.071-0.778,1.584-1.248c0.512-0.469,0.96-0.954,1.344-1.455   c0.384-0.502,0.794-1.211,1.231-2.128c0.438-0.917,0.869-1.952,1.296-3.104c0.427-1.152,0.811-2.4,1.152-3.744   c0.064-0.213,0.154-0.32,0.272-0.32c0.116,0,0.229,0.021,0.336,0.064c0.384,0.192,0.938,0.395,1.664,0.608   c0.426,0.149,0.64,0.32,0.64,0.512c0,0.192-0.149,0.448-0.448,0.768c-0.747,0.79-1.205,1.664-1.376,2.624s-0.368,1.696-0.592,2.208   c-0.224,0.513-0.528,0.934-0.912,1.265c-0.384,0.33-0.661,0.703-0.832,1.119S21.751,18.152,21.751,18.387z M19.863,8.402   c0,0.15-0.06,0.283-0.177,0.4s-0.277,0.304-0.479,0.56c-0.203,0.256-0.336,0.438-0.4,0.544c-0.319,0.555-0.667,0.981-1.04,1.28   c-0.373,0.299-0.655,0.539-0.848,0.72s-0.368,0.272-0.528,0.272c-0.159,0-0.347-0.149-0.56-0.448l-0.8-1.056   c-0.299-0.405-0.448-0.693-0.448-0.864c0-0.298,0.277-0.485,0.832-0.56c0.555-0.075,1.024-0.192,1.408-0.352s0.896-0.32,1.536-0.48   c0.64-0.16,1.05-0.24,1.231-0.24S19.863,8.253,19.863,8.402z" stroke-width="1"/>
</g>
</svg>