<svg xmlns="http://www.w3.org/2000/svg" xmlns:xlink="http://www.w3.org/1999/xlink" version="1.1" id="图层_1" x="0px" y="0px" width="22.08900260925293" height="26.1200008392334" viewBox="3.5230002403259277 2.9110000133514404 22.08900260925293 26.1200008392334" enable-background="new 0 0 30 30" xml:space="preserve">
<g>
	<path fill="#0000FF" d="M7.415,11.09c0,0.128-0.054,0.251-0.16,0.368c-0.107,0.118-0.219,0.443-0.336,0.976   c-0.118,0.534-0.192,1.152-0.224,1.856c-0.032,0.704-0.144,1.579-0.336,2.624c-0.192,1.046-0.288,2.518-0.288,4.416l0.032,1.92   c0,0.556-0.166,0.901-0.496,1.041c-0.331,0.139-0.576,0.207-0.736,0.207c-0.16,0-0.288-0.085-0.384-0.256   c-0.096-0.17-0.16-0.836-0.192-2c-0.032-1.162-0.048-2.154-0.048-2.976s0.026-1.797,0.08-2.929c0.053-1.13,0.08-1.834,0.08-2.111   c0-1.557-0.096-2.656-0.288-3.296c-0.064-0.192-0.096-0.363-0.096-0.512c0-0.426,0.203-0.64,0.608-0.64   c0.192,0,0.704,0.139,1.536,0.416C6.999,10.472,7.415,10.771,7.415,11.09z M6.871,3.411c0.149,0,0.261,0.069,0.336,0.208   C7.281,3.757,7.441,3.95,7.687,4.194c0.245,0.246,0.581,0.539,1.009,0.88c0.426,0.341,0.762,0.672,1.008,0.992   c0.245,0.32,0.368,0.651,0.368,0.992s-0.043,0.555-0.128,0.64c-0.086,0.085-0.251,0.16-0.496,0.224   C9.201,7.986,8.924,8.019,8.615,8.019c-0.31,0-0.769-0.123-1.376-0.368c-0.608-0.245-0.96-0.517-1.056-0.816   C6.087,6.536,6.018,6.125,5.975,5.603C5.932,5.08,5.911,4.669,5.911,4.371s0.133-0.533,0.4-0.704   C6.578,3.496,6.764,3.411,6.871,3.411z M17.559,15.922c0,0.3,0.032,0.496,0.097,0.593c0.063,0.096,0.176,0.144,0.336,0.144   s0.373-0.016,0.64-0.048s0.485-0.048,0.656-0.048c0.384,0,0.693,0.213,0.928,0.641c0.234,0.426,0.353,0.725,0.353,0.896   c0,0.384-0.331,0.575-0.992,0.575c-1.28,0-1.958,0.08-2.032,0.24c-0.075,0.16-0.112,0.684-0.112,1.568   c0,0.886,0.043,1.488,0.128,1.809c0.085,0.319,0.128,0.533,0.128,0.64c0,0.427-0.565,0.64-1.695,0.64   c-0.448,0-0.672-0.111-0.672-0.336c0-0.224,0.037-0.484,0.111-0.783c0.075-0.299,0.112-0.961,0.112-1.984v-0.928   c0-0.342-0.107-0.513-0.32-0.513c-0.063,0-0.139,0.011-0.224,0.032c-0.939,0.299-1.974,0.533-3.104,0.704   c-1.557,0.277-2.592,0.544-3.104,0.8c-0.235,0.107-0.427,0.16-0.576,0.16s-0.363-0.148-0.64-0.448   c-0.277-0.298-0.416-0.538-0.416-0.72s0.048-0.293,0.144-0.336c0.097-0.043,0.272-0.064,0.528-0.064s0.528-0.059,0.816-0.176   c0.287-0.117,0.501-0.197,0.64-0.24s0.24-0.128,0.304-0.256c0.064-0.128,0.139-0.544,0.225-1.248   c0.085-0.703,0.128-1.408,0.128-2.112c0-0.704-0.017-1.248-0.049-1.632c-0.031-0.384-0.117-0.629-0.256-0.736   c-0.139-0.106-0.304-0.378-0.496-0.816c-0.191-0.437-0.287-0.741-0.287-0.912c0-0.384,0.266-0.597,0.8-0.64   c0.533-0.042,0.96-0.128,1.279-0.256c1.152-0.384,2.187-0.682,3.104-0.896c0.683-0.149,1.381-0.362,2.096-0.64   s1.216-0.416,1.504-0.416s0.581,0.224,0.88,0.672c0.299,0.448,0.448,0.79,0.448,1.024c0,0.598-0.139,0.934-0.416,1.008   c-0.277,0.075-0.464,0.171-0.56,0.288c-0.097,0.118-0.192,0.459-0.288,1.024c-0.096,0.566-0.145,1.264-0.145,2.096V15.922z    M24.759,25.778c0,0.341,0.032,0.747,0.097,1.216c0.063,0.469,0.096,0.768,0.096,0.896c0,0.426-0.102,0.641-0.304,0.641   c-0.203,0-0.454-0.049-0.753-0.145s-0.533-0.203-0.703-0.32c-0.172-0.117-0.576-0.287-1.217-0.512   c-0.64-0.225-1.237-0.395-1.792-0.512c-0.555-0.118-0.997-0.235-1.327-0.353c-0.331-0.117-0.758-0.347-1.28-0.688   c-0.523-0.341-0.843-0.57-0.96-0.688c-0.118-0.117-0.176-0.208-0.176-0.271c0-0.172,0.244-0.225,0.735-0.16   c1.558,0.213,2.667,0.32,3.328,0.32s1.088-0.097,1.28-0.289c0.191-0.191,0.288-0.512,0.288-0.959c0-0.449-0.038-1.345-0.112-2.688   c-0.075-1.345-0.155-2.442-0.24-3.296c-0.256-2.517-0.438-5.418-0.544-8.704c-0.043-1.301-0.245-2.24-0.607-2.816   c-0.363-0.576-0.95-0.864-1.761-0.864s-1.743,0.182-2.8,0.544c-1.056,0.363-2.063,0.79-3.023,1.28   c-0.3,0.149-0.561,0.224-0.784,0.224c-0.225,0-0.384-0.16-0.48-0.48c-0.096-0.32-0.197-0.565-0.304-0.736   c-0.107-0.17-0.16-0.352-0.16-0.544c0-0.426,0.181-0.672,0.544-0.736c0.938-0.17,1.866-0.373,2.784-0.608   c2.538-0.683,4.379-1.024,5.52-1.024c1.142,0,2.373,0.246,3.696,0.736c0.277,0.107,0.48,0.171,0.608,0.192   c0.469,0.085,0.704,0.331,0.704,0.736c0,0.213-0.097,0.427-0.288,0.64c-0.192,0.213-0.336,0.608-0.433,1.184   c-0.096,0.576-0.144,1.35-0.144,2.32c0,0.971,0.026,2.4,0.08,4.288c0.053,1.888,0.08,3.846,0.08,5.872l-0.032,1.984   c0,0.256,0.069,0.688,0.208,1.295c0.139,0.608,0.208,1.297,0.208,2.064L24.759,25.778z M12.279,17.811   c0.063,0,0.154-0.016,0.271-0.048s0.353-0.069,0.704-0.112c0.353-0.043,0.73-0.123,1.136-0.24s0.688-0.186,0.849-0.207   s0.271-0.07,0.336-0.145c0.063-0.074,0.096-0.213,0.096-0.416s0.016-0.475,0.048-0.816c0.032-0.341,0.048-0.784,0.048-1.328   s-0.048-1.136-0.144-1.776c-0.096-0.64-0.188-1.04-0.272-1.2s-0.239-0.24-0.464-0.24c-0.224,0-0.661,0.096-1.312,0.288   c-0.651,0.192-1.057,0.342-1.216,0.448c-0.16,0.107-0.24,0.256-0.24,0.448c0,0.192,0.096,0.288,0.288,0.288   c0.341,0,0.735-0.064,1.184-0.192c0.192-0.042,0.341-0.064,0.448-0.064c0.299,0,0.448,0.213,0.448,0.64   c0,0.384-0.641,0.811-1.92,1.28c-0.32,0.128-0.48,0.363-0.48,0.704c0,0.192,0.074,0.288,0.224,0.288   c0.405,0,0.811-0.106,1.217-0.32c0.213-0.085,0.378-0.128,0.496-0.128c0.116,0,0.208,0.075,0.271,0.224   c0.064,0.149,0.096,0.267,0.096,0.353c0,0.319-0.267,0.613-0.8,0.879c-0.533,0.268-0.934,0.443-1.2,0.528   c-0.267,0.086-0.399,0.251-0.399,0.496S12.087,17.811,12.279,17.811z" stroke-width="1"/>
</g>
</svg>