<svg xmlns="http://www.w3.org/2000/svg" xmlns:xlink="http://www.w3.org/1999/xlink" version="1.1" id="图层_1" x="0px" y="0px" width="27.623001098632812" height="27.177001953125" viewBox="2.9479990005493164 1.11899733543396 27.623001098632812 27.177001953125" enable-background="new 0 0 30 30" xml:space="preserve">
<g>
	<path fill="#0000FF" d="M30.071,26.643c0,0.362-0.561,0.645-1.681,0.848s-2.171,0.305-3.151,0.305c-0.981,0-1.744-0.027-2.288-0.08   c-0.544-0.055-0.901-0.129-1.072-0.225s-0.31-0.293-0.416-0.592c-0.533-1.344-1.611-2.091-3.231-2.24   c-1.195-0.127-2.092-0.32-2.688-0.576c-0.342-0.148-0.795-0.271-1.36-0.367s-1.045-0.145-1.439-0.145   c-0.396,0-0.688,0.021-0.88,0.064c-0.192,0.043-0.422,0.064-0.688,0.064s-0.704-0.033-1.312-0.097   c-0.608-0.063-1.115-0.097-1.521-0.097c-1.109,0-2.123,0.278-3.04,0.832c-0.278,0.171-0.491,0.257-0.64,0.257   c-0.149,0-0.39-0.257-0.72-0.769c-0.331-0.512-0.496-0.869-0.496-1.072c0-0.201,0.181-0.303,0.544-0.303   c0.362,0,0.768-0.07,1.216-0.209c0.448-0.139,0.789-0.229,1.024-0.271c0.384-0.064,0.576-0.256,0.576-0.576   c0-0.085-0.021-0.182-0.064-0.288c-0.427-1.045-0.662-2.069-0.704-3.071c-0.043-1.003-0.213-1.664-0.512-1.984   c-0.171-0.234-0.256-0.438-0.256-0.608c0-0.32,0.208-0.48,0.624-0.48s0.922,0.102,1.52,0.304c0.597,0.203,0.896,0.39,0.896,0.56   c0,0.172-0.159,0.438-0.479,0.801s-0.48,0.885-0.48,1.567c0,1.089,0.395,1.921,1.185,2.496c0.789,0.576,1.855,0.972,3.2,1.185   c1.472,0.17,2.666,0.352,3.584,0.543c0.917,0.192,1.435,0.289,1.552,0.289s0.213-0.037,0.288-0.112   c0.074-0.075,0.148-0.325,0.224-0.753c0.074-0.426,0.112-0.756,0.112-0.991l-0.096-1.312c-0.043-0.406-0.092-0.65-0.145-0.736   c-0.054-0.086-0.208-0.129-0.464-0.129s-0.758,0.06-1.504,0.177c-0.747,0.118-1.403,0.256-1.968,0.416   c-0.565,0.16-0.981,0.336-1.248,0.528c-0.268,0.191-0.464,0.287-0.593,0.287c-0.128,0-0.271-0.261-0.432-0.783   c-0.16-0.523-0.24-0.896-0.24-1.12s0.123-0.337,0.368-0.337s0.549-0.074,0.912-0.223c0.789-0.277,2.304-0.662,4.544-1.152   c0.341-0.086,0.555-0.203,0.64-0.352c0.086-0.15,0.129-0.433,0.129-0.849s-0.075-0.624-0.225-0.624s-0.319,0.021-0.512,0.064   l-2.72,0.672c-0.662,0.17-1.046,0.256-1.152,0.256c-0.299,0-0.555-0.325-0.768-0.976c-0.214-0.651-0.32-1.04-0.32-1.168   c0-0.128,0.074-0.213,0.224-0.256c0.427-0.085,0.752-0.197,0.977-0.336c0.224-0.138,0.479-0.416,0.768-0.832   s0.528-0.853,0.72-1.312c0.192-0.458,0.288-0.784,0.288-0.976c0-0.192-0.096-0.288-0.288-0.288c-0.362,0-0.677,0.085-0.943,0.256   c-0.268,0.171-0.443,0.256-0.528,0.256c-0.256,0-0.453-0.357-0.592-1.072s-0.208-1.221-0.208-1.52s0.032-0.469,0.096-0.512   c0.064-0.042,0.256-0.064,0.576-0.064c0.49,0,1.029-0.032,1.616-0.096c0.586-0.064,0.954-0.144,1.104-0.24s0.256-0.203,0.32-0.32   c0.063-0.117,0.256-0.747,0.576-1.888c0.319-1.141,0.496-1.824,0.527-2.048c0.032-0.224,0.091-0.384,0.177-0.48   c0.085-0.096,0.218-0.144,0.399-0.144s0.475,0.059,0.88,0.176c0.405,0.118,0.608,0.251,0.608,0.4c0,0.15-0.08,0.347-0.24,0.592   c-0.16,0.246-0.288,0.672-0.384,1.28s-0.144,1.056-0.144,1.344s0.111,0.432,0.336,0.432c0.224,0,1.093-0.256,2.607-0.768   c0.128-0.064,0.251-0.096,0.368-0.096s0.261,0.139,0.432,0.416c0.171,0.277,0.257,0.523,0.257,0.736   c0,0.214-0.086,0.416-0.257,0.608c-0.171,0.192-0.783,0.539-1.84,1.04c-1.056,0.501-1.797,0.827-2.224,0.976   c-0.598,0.214-1.008,0.534-1.232,0.96c-0.224,0.427-0.438,0.816-0.64,1.168c-0.203,0.352-0.304,0.603-0.304,0.752   c0,0.256,0.128,0.384,0.384,0.384c0.085,0,0.309-0.053,0.672-0.16c0.362-0.106,0.581-0.224,0.656-0.352   c0.074-0.128,0.117-0.384,0.128-0.768c0.011-0.384,0.106-0.65,0.288-0.8c0.181-0.149,0.555-0.224,1.12-0.224   c0.564,0,0.848,0.16,0.848,0.48c0,0.064-0.011,0.155-0.032,0.272c-0.021,0.118-0.032,0.229-0.032,0.336   c0,0.299,0.214,0.427,0.641,0.384c0.469-0.085,0.853-0.128,1.151-0.128s0.475,0.064,0.528,0.192c0.053,0.128,0.08,0.384,0.08,0.768   c0,0.384-0.037,0.629-0.112,0.736c-0.074,0.107-0.213,0.182-0.416,0.224c-0.203,0.043-0.501,0.123-0.896,0.24   c-0.396,0.117-0.678,0.203-0.849,0.256s-0.282,0.251-0.336,0.592c-0.053,0.342-0.08,0.672-0.08,0.992   c0,0.32,0.037,0.527,0.112,0.624c0.074,0.096,0.304,0.106,0.688,0.032c0.384-0.074,0.832-0.133,1.344-0.176   s0.853-0.102,1.024-0.177c0.17-0.074,0.33-0.112,0.479-0.112s0.304,0.112,0.464,0.335c0.16,0.225,0.384,0.471,0.672,0.736   c0.288,0.268,0.433,0.678,0.433,1.232c0,0.213-0.027,0.357-0.08,0.432c-0.054,0.075-0.166,0.112-0.336,0.112   c-0.171,0-0.582-0.059-1.232-0.177c-0.651-0.116-1.216-0.176-1.696-0.176c-0.479,0-0.885,0.049-1.216,0.145   s-0.544,0.197-0.64,0.304c-0.096,0.107-0.149,0.374-0.16,0.8c-0.011,0.428-0.037,0.892-0.08,1.393   c-0.043,0.502-0.063,1.014-0.063,1.535c0,0.523,0.031,0.865,0.096,1.024c0.063,0.16,0.154,0.294,0.271,0.4s0.465,0.256,1.04,0.448   l2.017,0.64c0.768,0.256,1.439,0.416,2.016,0.479c1.515,0.213,2.8,0.48,3.856,0.801C29.543,26.035,30.071,26.344,30.071,26.643z    M6.935,7.347c0.298,0,0.5,0.192,0.608,0.576C7.586,8.115,7.756,8.36,8.055,8.659C8.098,8.702,8.3,8.984,8.663,9.506   c0.362,0.523,0.544,0.891,0.544,1.104c0,0.427-0.374,0.64-1.12,0.64c-1.472,0-2.208-0.522-2.208-1.568   c0-0.299,0.069-0.592,0.208-0.88C6.226,8.515,6.332,8.2,6.407,7.858C6.481,7.518,6.658,7.347,6.935,7.347z" stroke-width="1"/>
</g>
</svg>