<svg xmlns="http://www.w3.org/2000/svg" xmlns:xlink="http://www.w3.org/1999/xlink" version="1.1" id="图层_1" x="0px" y="0px" width="24.424999237060547" height="20.26300621032715" viewBox="2.7240028381347656 4.671000003814697 24.424999237060547 20.26300621032715" enable-background="new 0 0 30 30" xml:space="preserve">
<g>
	<path fill="#0000FF" d="M16.503,18.867c-0.021,0.277,0.096,0.495,0.353,0.655c0.256,0.16,0.618,0.24,1.088,0.24l1.504-0.032   c0.704,0,1.552-0.074,2.544-0.225c0.992-0.148,1.76-0.223,2.304-0.223s0.869,0.005,0.976,0.016   c0.107,0.011,0.294,0.256,0.561,0.736c0.267,0.479,0.469,0.875,0.608,1.184c0.138,0.309,0.208,0.623,0.208,0.943   s-0.012,0.608-0.032,0.864c-0.021,0.257-0.118,0.384-0.288,0.384c-0.171,0-0.342-0.031-0.512-0.096   c-1.878-0.725-4.172-1.088-6.881-1.088c-1.194,0-2.171,0.069-2.928,0.208c-0.758,0.14-1.243,0.208-1.456,0.208   s-0.527-0.021-0.943-0.064c-0.416-0.042-0.838-0.063-1.265-0.063c-1.579,0-3.151,0.192-4.72,0.575   c-1.568,0.385-2.534,0.779-2.896,1.185c-0.085,0.106-0.192,0.16-0.32,0.16c-0.128,0-0.358-0.245-0.688-0.735   c-0.331-0.491-0.496-0.827-0.496-1.009c0-0.181,0.09-0.314,0.272-0.399c0.181-0.086,0.576-0.192,1.184-0.32   c0.608-0.129,1.194-0.219,1.76-0.271c0.565-0.054,1.461-0.219,2.688-0.496s2.277-0.491,3.152-0.641   c0.789-0.106,1.184-0.98,1.184-2.624c0-0.405-0.043-0.726-0.128-0.96c-0.086-0.234-0.182-0.368-0.288-0.4   c-0.106-0.031-0.299-0.047-0.576-0.047c-0.768,0-1.301,0.139-1.6,0.415c-0.107,0.107-0.224,0.16-0.353,0.16   c-0.447,0-0.837-0.475-1.168-1.424s-0.495-1.525-0.495-1.728c0-0.203,0.042-0.341,0.128-0.416c0.085-0.075,0.352-0.128,0.8-0.16   c0.448-0.032,1.114-0.096,2-0.192c0.885-0.096,1.37-0.17,1.456-0.224c0.085-0.053,0.154-0.144,0.208-0.272   c0.053-0.128,0.08-0.378,0.08-0.752c0-0.373-0.043-0.784-0.128-1.232c-0.086-0.448-0.198-0.72-0.336-0.816   c-0.14-0.096-0.491-0.144-1.057-0.144s-0.938,0.085-1.12,0.256c-0.182,0.171-0.314,0.256-0.399,0.256   c-0.277,0-0.576-0.512-0.896-1.536S9.111,7.048,9.111,6.771c0-0.362,0.187-0.533,0.56-0.512c0.373,0.021,0.741,0.032,1.104,0.032   c1.535,0,2.928-0.149,4.176-0.448c1.248-0.298,2.229-0.485,2.943-0.56s1.659-0.112,2.832-0.112c0.257,0,0.422,0.043,0.496,0.128   c0.075,0.085,0.112,0.267,0.112,0.544c0,0.278-0.032,0.603-0.096,0.976c-0.064,0.374-0.171,0.63-0.32,0.768   c-0.149,0.139-0.479,0.347-0.992,0.624c-0.512,0.277-1.163,0.534-1.952,0.768c-0.704,0.171-1.056,0.779-1.056,1.824   c0,0.533,0.032,0.896,0.096,1.088c0.064,0.192,0.192,0.288,0.385,0.288c0.191,0,0.517-0.059,0.976-0.176   c0.458-0.117,0.981-0.176,1.568-0.176c0.586,0,0.98,0.085,1.184,0.256c0.202,0.171,0.304,0.459,0.304,0.864   c0,0.619-0.111,1.078-0.336,1.376c-0.224,0.299-0.677,0.539-1.359,0.72c-0.684,0.182-1.275,0.363-1.776,0.543   c-0.502,0.182-0.821,0.305-0.96,0.369c-0.139,0.063-0.229,0.277-0.272,0.64L16.503,18.867z" stroke-width="1"/>
</g>
</svg>