<svg xmlns="http://www.w3.org/2000/svg" xmlns:xlink="http://www.w3.org/1999/xlink" version="1.1" id="图层_1" x="0px" y="0px" width="18.76000213623047" height="28.93800163269043" viewBox="4.38700008392334 -0.004001140594482422 18.76000213623047 28.93800163269043" enable-background="new 0 0 30 30" xml:space="preserve">
<g>
	<path fill="#0000FF" d="M19.927,11.922c0.213,0,0.656,0.149,1.328,0.448s1.072,0.501,1.2,0.608   c0.128,0.107,0.192,0.235,0.192,0.384c0,0.256-0.145,0.48-0.433,0.672c-0.288,0.192-0.607,0.571-0.96,1.136   c-0.352,0.566-0.581,1.083-0.688,1.552c-0.534,2.262-1.792,4.096-3.776,5.504c-0.832,0.598-1.44,1.163-1.824,1.695   c-0.384,0.533-0.587,1.041-0.607,1.521c-0.021,0.479-0.08,0.778-0.177,0.896c-0.096,0.117-0.427,0.305-0.991,0.561   c-0.565,0.256-1.137,0.49-1.713,0.703c-0.575,0.215-0.971,0.342-1.184,0.385c-0.214,0.043-0.581,0.064-1.104,0.064   c-0.523,0-0.977,0.043-1.36,0.127C6.679,28.35,5.9,28.434,5.495,28.434c-0.406,0-0.608-0.117-0.608-0.352s0.256-0.443,0.768-0.623   c0.512-0.182,1.077-0.465,1.696-0.849c1.237-0.79,2.192-1.327,2.864-1.616c0.672-0.287,1.152-0.549,1.44-0.783   s0.789-0.747,1.504-1.537c0.714-0.788,1.509-1.609,2.384-2.463c0.405-0.405,0.843-0.981,1.313-1.729   c0.469-0.746,0.703-1.168,0.703-1.264s-0.074-0.145-0.224-0.145c-0.363,0-1.638,0.368-3.824,1.104   c-2.187,0.735-3.439,1.248-3.76,1.536c-0.32,0.287-0.539,0.432-0.656,0.432s-0.277-0.074-0.479-0.225   c-0.203-0.148-0.485-0.607-0.849-1.375c-0.362-0.769-0.544-1.242-0.544-1.424s0.064-0.314,0.192-0.4   c0.128-0.085,0.373-0.16,0.736-0.225c1.173-0.191,2.01-0.5,2.512-0.928c0.501-0.426,1.184-1.098,2.048-2.016   c0.864-0.917,1.296-1.451,1.296-1.6c0-0.064-0.054-0.096-0.16-0.096c-0.277,0-0.896,0.155-1.855,0.464s-1.573,0.592-1.84,0.848   c-0.268,0.256-0.508,0.384-0.721,0.384c-0.447,0-0.912-0.389-1.392-1.168c-0.48-0.779-0.72-1.328-0.72-1.648   c0-0.32,0.245-0.48,0.735-0.48c0.149,0,0.305-0.058,0.464-0.176c0.16-0.117,0.491-0.426,0.992-0.928   c0.501-0.501,1.024-1.093,1.568-1.776c0.544-0.683,1.328-1.728,2.352-3.136c1.024-1.408,1.686-2.384,1.984-2.928   s0.608-0.816,0.928-0.816c0.213,0,0.629,0.288,1.248,0.864c0.619,0.576,0.928,0.939,0.928,1.088c0,0.149-0.287,0.523-0.863,1.12   c-0.875,0.896-1.761,2-2.656,3.312c-0.896,1.312-1.344,2.021-1.344,2.128c0,0.213,0.148,0.32,0.447,0.32   c0.149,0,0.337-0.048,0.561-0.144s0.656-0.144,1.296-0.144c0.405,0,0.661-0.085,0.768-0.256c1.237-1.536,2.064-2.491,2.48-2.864   c0.416-0.373,0.698-0.56,0.848-0.56c0.213,0,0.491,0.134,0.832,0.4s0.513,0.523,0.513,0.768s-0.129,0.517-0.385,0.816   c-0.896,1.024-2.074,2.427-3.536,4.208c-1.461,1.781-2.229,2.736-2.304,2.864c-0.075,0.128-0.111,0.235-0.111,0.32   c0,0.086,0.122,0.128,0.367,0.128s0.646-0.075,1.2-0.224l1.44-0.352c0.404-0.106,0.645-0.187,0.72-0.24   c0.074-0.053,0.154-0.192,0.24-0.416c0.085-0.224,0.139-0.453,0.16-0.688C19.34,12.264,19.586,11.922,19.927,11.922z" stroke-width="1"/>
</g>
</svg>