<svg xmlns="http://www.w3.org/2000/svg" xmlns:xlink="http://www.w3.org/1999/xlink" version="1.1" id="图层_1" x="0px" y="0px" width="24.00899887084961" height="30.21500015258789" viewBox="1.9370017051696777 -0.2630004584789276 24.00899887084961 30.21500015258789" style="enable-background:new 0 0 30 30;" xml:space="preserve">
  <g>
    <g>
      <path style="fill:#0000FF;" d="M16.198,17.517c0.256,0.192,0.544,0.272,0.864,0.24c0.319-0.032,0.65-0.048,0.991-0.048l1.632,0.063&#13;&#10;&#9;&#9;c0.854,0,1.653-0.042,2.4-0.128l1.729-0.224c0.191,0,0.367,0.139,0.527,0.416s0.384,0.575,0.672,0.896s0.433,0.656,0.433,1.008&#13;&#10;&#9;&#9;c0,0.353-0.027,0.582-0.08,0.688c-0.054,0.106-0.134,0.16-0.24,0.16c-0.107,0-0.224-0.011-0.352-0.032&#13;&#10;&#9;&#9;c-1.536-0.341-3.499-0.512-5.889-0.512c-1.045,0-1.749,0.021-2.111,0.064c-0.363,0.043-0.565,0.127-0.608,0.256&#13;&#10;&#9;&#9;c-0.043,0.127-0.064,0.586-0.064,1.375c0,1.473-0.048,2.4-0.144,2.785c-0.096,0.383-0.144,0.97-0.144,1.76&#13;&#10;&#9;&#9;c0,0.789,0.063,1.429,0.191,1.92c0.021,0.084,0.032,0.17,0.032,0.256c0,0.32-0.134,0.564-0.4,0.736&#13;&#10;&#9;&#9;c-0.267,0.17-0.603,0.256-1.008,0.256c-0.256,0-0.384-0.172-0.384-0.512l0.032-1.313c0-1.707-0.06-2.949-0.177-3.729&#13;&#10;&#9;&#9;c-0.117-0.778-0.208-1.701-0.271-2.768c-0.021-0.385-0.235-0.533-0.64-0.448c-0.726,0.171-1.388,0.257-1.984,0.257&#13;&#10;&#9;&#9;c-0.598,0-1.28,0.122-2.048,0.367c-0.769,0.246-1.403,0.4-1.904,0.464c-0.501,0.064-1.051,0.203-1.648,0.416&#13;&#10;&#9;&#9;c-0.598,0.214-1.019,0.384-1.264,0.513c-0.245,0.127-0.512,0.191-0.8,0.191s-0.544-0.181-0.768-0.544&#13;&#10;&#9;&#9;c-0.224-0.362-0.336-0.624-0.336-0.784s0.192-0.256,0.576-0.287c0.384-0.033,0.875-0.166,1.472-0.4s1.802-0.613,3.616-1.137&#13;&#10;&#9;&#9;c1.813-0.521,3.445-0.965,4.896-1.328c0.362-0.063,0.544-0.234,0.544-0.512c0-0.128-0.037-0.256-0.112-0.384&#13;&#10;&#9;&#9;c-0.074-0.128-0.111-0.267-0.111-0.416s0.085-0.282,0.256-0.399c0.17-0.117,0.298-0.251,0.384-0.4&#13;&#10;&#9;&#9;c0.277-0.469,0.597-0.917,0.96-1.344c0.746-0.96,1.12-1.685,1.12-2.176c0-0.128-0.048-0.224-0.145-0.288&#13;&#10;&#9;&#9;c-0.096-0.064-0.197-0.085-0.304-0.064c-1.023,0.277-1.909,0.459-2.656,0.544c-0.405,0.064-0.672,0.229-0.8,0.496&#13;&#10;&#9;&#9;c-0.128,0.267-0.191,0.485-0.191,0.656c0,0.171,0.128,0.374,0.384,0.608c0.448,0.469,0.672,0.805,0.672,1.008&#13;&#10;&#9;&#9;c0,0.203-0.054,0.369-0.16,0.496c-0.106,0.129-0.277,0.192-0.512,0.192c-0.235,0-0.533-0.08-0.896-0.24&#13;&#10;&#9;&#9;c-0.362-0.159-0.64-0.24-0.832-0.24c-0.469,0-0.789,0.363-0.96,1.088c-0.063,0.342-0.182,0.57-0.352,0.688&#13;&#10;&#9;&#9;c-0.171,0.117-0.667,0.305-1.488,0.561s-1.333,0.383-1.536,0.383s-0.304-0.063-0.304-0.191c0-0.32,0.693-0.971,2.08-1.951&#13;&#10;&#9;&#9;c0.597-0.406,1.051-0.923,1.36-1.553c0.309-0.629,0.464-1.029,0.464-1.2c0-0.17-0.069-0.256-0.208-0.256&#13;&#10;&#9;&#9;c-0.14,0-0.384,0.064-0.736,0.192c-0.352,0.128-0.571,0.235-0.656,0.32c-0.085,0.085-0.182,0.128-0.288,0.128&#13;&#10;&#9;&#9;s-0.224-0.17-0.352-0.512c-0.128-0.341-0.192-0.57-0.192-0.688c0-0.117,0.075-0.187,0.225-0.208&#13;&#10;&#9;&#9;c0.298-0.042,1.008-0.25,2.128-0.624c1.12-0.373,2.362-0.773,3.728-1.2c0.256-0.064,0.384-0.192,0.384-0.384&#13;&#10;&#9;&#9;c0-0.192-0.122-0.458-0.367-0.8C13.28,9.4,13.078,9.229,12.918,9.229s-0.368,0.075-0.624,0.224&#13;&#10;&#9;&#9;c-0.256,0.149-0.475,0.224-0.656,0.224s-0.271-0.106-0.271-0.32s0.016-0.395,0.048-0.544c0.032-0.149,0.048-0.266,0.048-0.352&#13;&#10;&#9;&#9;c0-0.32-0.085-0.48-0.256-0.48c-0.064,0-0.139,0.032-0.224,0.096c-1.622,1.515-2.571,2.272-2.849,2.272&#13;&#10;&#9;&#9;c-0.171,0-0.395-0.144-0.672-0.432C7.185,9.629,7.046,9.378,7.046,9.165c0-0.213,0.176-0.4,0.528-0.56&#13;&#10;&#9;&#9;c0.352-0.16,1.061-0.533,2.128-1.12c1.066-0.586,1.647-0.917,1.744-0.992c0.096-0.075,0.165-0.181,0.208-0.32&#13;&#10;&#9;&#9;c0.042-0.139,0.063-0.512,0.063-1.12s-0.048-1.029-0.144-1.264c-0.097-0.234-0.256-0.426-0.48-0.576&#13;&#10;&#9;&#9;c-0.224-0.149-0.512-0.224-0.863-0.224c-0.353,0-0.822,0.155-1.408,0.464C8.235,3.762,7.814,4.04,7.558,4.285&#13;&#10;&#9;&#9;C7.302,4.53,7.115,4.653,6.998,4.653S6.758,4.541,6.63,4.317C6.502,4.093,6.438,3.896,6.438,3.725c0-0.17,0.048-0.331,0.144-0.48&#13;&#10;&#9;&#9;c0.096-0.149,0.213-0.267,0.352-0.352c0.139-0.085,0.741-0.336,1.809-0.752c1.066-0.416,1.866-0.698,2.399-0.848&#13;&#10;&#9;&#9;c0.533-0.149,0.997-0.224,1.393-0.224c0.395,0,0.778,0.069,1.151,0.208s0.561,0.336,0.561,0.592c0,0.085-0.043,0.208-0.128,0.368&#13;&#10;&#9;&#9;c-0.086,0.16-0.128,0.485-0.128,0.976s-0.235,1.877-0.704,4.16c-0.021,0.149-0.032,0.288-0.032,0.416&#13;&#10;&#9;&#9;c0,0.342,0.085,0.544,0.256,0.608c0.405,0.15,0.821,0.39,1.248,0.72c0.427,0.331,0.752,0.576,0.977,0.736&#13;&#10;&#9;&#9;c0.224,0.16,0.517,0.219,0.88,0.176c1.088-0.17,2.011-0.256,2.768-0.256s1.237,0.038,1.44,0.112&#13;&#10;&#9;&#9;c0.202,0.075,0.304,0.261,0.304,0.56s-0.117,0.518-0.352,0.656c-0.235,0.139-0.582,0.208-1.04,0.208&#13;&#10;&#9;&#9;c-0.459,0-0.812,0.091-1.057,0.272c-0.245,0.182-0.384,0.4-0.416,0.656c-0.031,0.256-0.08,0.459-0.144,0.608&#13;&#10;&#9;&#9;c-0.064,0.149-0.096,0.256-0.096,0.32c0,0.278,0.421,0.518,1.264,0.72c0.843,0.203,1.387,0.448,1.632,0.736&#13;&#10;&#9;&#9;s0.368,0.614,0.368,0.976c0,0.363-0.182,0.544-0.544,0.544c-0.363,0-0.816-0.064-1.36-0.192c-0.544-0.128-1.029-0.208-1.456-0.24&#13;&#10;&#9;&#9;c-0.427-0.032-0.726-0.074-0.896-0.128c-0.171-0.053-0.299-0.08-0.384-0.08c-0.086,0-0.192,0.07-0.32,0.208&#13;&#10;&#9;&#9;c-0.128,0.139-0.405,0.347-0.832,0.624c-0.107,0.064-0.16,0.156-0.16,0.272c0,0.118,0.117,0.245,0.352,0.384&#13;&#10;&#9;&#9;C15.921,17.128,16.091,17.304,16.198,17.517z M10.406,4.717c0.427,0,0.64,0.187,0.64,0.56c0,0.374-0.213,0.635-0.64,0.784&#13;&#10;&#9;&#9;C9.553,6.36,9.035,6.552,8.854,6.637C8.673,6.722,8.518,6.765,8.39,6.765S8.107,6.626,7.926,6.349&#13;&#10;&#9;&#9;C7.744,6.072,7.654,5.848,7.654,5.677c0-0.256,0.176-0.389,0.527-0.4c0.353-0.011,0.752-0.106,1.2-0.288&#13;&#10;&#9;&#9;C9.83,4.808,10.171,4.717,10.406,4.717z M21.862,1.101c0,0.107-0.032,0.198-0.097,0.272c-0.063,0.075-0.128,0.454-0.191,1.136&#13;&#10;&#9;&#9;c-0.043,0.875-0.145,1.915-0.304,3.12c-0.16,1.205-0.294,1.958-0.4,2.256c-0.107,0.299-0.331,0.539-0.672,0.72&#13;&#10;&#9;&#9;c-0.342,0.182-0.688,0.272-1.04,0.272c-0.353,0-0.528-0.128-0.528-0.384c0-0.085,0.037-0.192,0.112-0.32&#13;&#10;&#9;&#9;c0.074-0.128,0.148-0.357,0.224-0.688c0.074-0.331,0.112-0.555,0.112-0.672c0-0.117-0.064-0.176-0.192-0.176&#13;&#10;&#9;&#9;c-0.213,0-0.598,0.224-1.151,0.672c-0.939,0.747-1.558,1.12-1.856,1.12s-0.571-0.144-0.815-0.432&#13;&#10;&#9;&#9;c-0.246-0.288-0.368-0.522-0.368-0.704c0-0.181,0.267-0.389,0.8-0.624c0.533-0.234,1.632-0.608,3.296-1.12&#13;&#10;&#9;&#9;c0.128-0.021,0.234-0.08,0.32-0.176c0.085-0.096,0.144-0.202,0.176-0.32c0.032-0.117,0.069-0.453,0.112-1.008&#13;&#10;&#9;&#9;c0.042-0.555,0.063-0.928,0.063-1.12c0-0.747-0.32-1.12-0.96-1.12s-1.248,0.213-1.824,0.64c-0.277,0.213-0.507,0.32-0.688,0.32&#13;&#10;&#9;&#9;c-0.182,0-0.353-0.139-0.513-0.416c-0.159-0.277-0.239-0.501-0.239-0.672c0-0.128,0.139-0.267,0.416-0.416&#13;&#10;&#9;&#9;c0.276-0.149,0.683-0.288,1.216-0.416s0.906-0.261,1.12-0.4c0.213-0.139,0.56-0.208,1.04-0.208c0.479,0,1.071,0.085,1.775,0.256&#13;&#10;&#9;&#9;C21.51,0.664,21.862,0.866,21.862,1.101z M18.246,3.853c0,0.555-0.331,0.95-0.992,1.184c-0.555,0.213-0.869,0.352-0.944,0.416&#13;&#10;&#9;&#9;c-0.074,0.064-0.176,0.096-0.304,0.096s-0.288-0.133-0.479-0.4c-0.192-0.267-0.288-0.523-0.288-0.768s0.191-0.368,0.576-0.368&#13;&#10;&#9;&#9;c0.213,0,0.469-0.069,0.768-0.208c0.299-0.139,0.65-0.208,1.056-0.208S18.246,3.682,18.246,3.853z" stroke-width="1"/>
    </g>
    <g/>
    <g/>
    <g/>
    <g/>
    <g/>
    <g/>
    <g/>
    <g/>
    <g/>
    <g/>
    <g/>
    <g/>
    <g/>
    <g/>
    <g/>
  </g>
</svg>