<svg xmlns="http://www.w3.org/2000/svg" xmlns:xlink="http://www.w3.org/1999/xlink" version="1.1" id="图层_1" x="0px" y="0px" width="19.68800163269043" height="27.143003463745117" viewBox="4.144998073577881 1.144999384880066 19.68800163269043 27.143003463745117" style="enable-background:new 0 0 30 30;" xml:space="preserve">
  <g>
    <g>
      <path style="fill:#0000FF;" d="M18.566,10.157c0.128,0,0.395,0.229,0.8,0.688c0.405,0.459,0.65,0.773,0.735,0.944&#13;&#10;&#9;&#9;c0.064,0.278,0.325,0.64,0.784,1.088c0.459,0.448,0.843,0.779,1.152,0.992c0.309,0.213,0.603,0.48,0.88,0.8&#13;&#10;&#9;&#9;c0.277,0.32,0.416,0.56,0.416,0.72s-0.128,0.331-0.384,0.512s-0.544,0.469-0.864,0.864c-0.32,0.396-0.635,0.699-0.944,0.912&#13;&#10;&#9;&#9;c-0.309,0.214-0.603,0.501-0.88,0.864s-0.635,0.741-1.071,1.136c-0.438,0.396-0.704,0.715-0.801,0.96&#13;&#10;&#9;&#9;c-0.096,0.246-0.144,0.715-0.144,1.408s-0.139,1.119-0.416,1.279s-0.48,0.24-0.608,0.24s-0.277-0.24-0.447-0.72&#13;&#10;&#9;&#9;c-0.172-0.479-0.342-0.72-0.513-0.72c-0.063,0-0.139,0.031-0.224,0.096c-1.6,1.174-3.072,2.197-4.416,3.072&#13;&#10;&#9;&#9;c-0.598,0.384-0.918,0.703-0.96,0.96c-0.043,0.256-0.112,0.427-0.208,0.512s-0.39,0.213-0.88,0.384&#13;&#10;&#9;&#9;c-0.491,0.171-1.147,0.32-1.968,0.448c-0.822,0.128-1.521,0.192-2.096,0.192c-0.576,0-0.864-0.086-0.864-0.256&#13;&#10;&#9;&#9;c0-0.172,0.277-0.374,0.832-0.608c1.749-0.769,3.178-1.567,4.288-2.399s2.251-1.654,3.425-2.465&#13;&#10;&#9;&#9;c1.173-0.811,1.94-1.418,2.304-1.824c0.106-0.127,0.16-0.256,0.16-0.384s-0.112-0.442-0.336-0.944&#13;&#10;&#9;&#9;c-0.225-0.5-0.406-0.863-0.544-1.088c-0.14-0.224-0.262-0.336-0.368-0.336c-0.086,0-0.4,0.166-0.944,0.496&#13;&#10;&#9;&#9;c-0.544,0.331-0.928,0.545-1.152,0.641c-0.224,0.096-0.485,0.25-0.783,0.463c-0.491,0.406-1.024,0.609-1.601,0.609&#13;&#10;&#9;&#9;c-0.213,0-0.411-0.043-0.592-0.129c-0.182-0.085-0.271-0.181-0.271-0.287c0-0.107,0.048-0.229,0.144-0.369&#13;&#10;&#9;&#9;c0.096-0.139,0.208-0.218,0.336-0.24c0.341-0.084,0.736-0.33,1.184-0.735c1.643-1.536,3.478-3.146,5.505-4.832&#13;&#10;&#9;&#9;c0.106-0.085,0.159-0.187,0.159-0.304s-0.048-0.277-0.144-0.48s-0.188-0.336-0.272-0.4s-0.197-0.149-0.336-0.256&#13;&#10;&#9;&#9;c-0.139-0.106-0.256-0.16-0.352-0.16s-0.357,0.214-0.784,0.64c-0.427,0.427-0.672,0.747-0.736,0.96&#13;&#10;&#9;&#9;c-0.171,0.448-0.41,0.715-0.72,0.8c-0.31,0.085-0.565,0.176-0.768,0.272c-0.203,0.096-0.491,0.144-0.864,0.144&#13;&#10;&#9;&#9;c-0.374,0-0.699-0.053-0.976-0.16c-0.278-0.106-0.416-0.25-0.416-0.432c0-0.181,0.239-0.4,0.72-0.656&#13;&#10;&#9;&#9;c0.479-0.256,1.151-0.757,2.016-1.504c0.864-0.746,1.328-1.168,1.393-1.264c0.063-0.096,0.096-0.197,0.096-0.304&#13;&#10;&#9;&#9;c0-0.106-0.145-0.384-0.432-0.832c-0.288-0.448-0.513-0.811-0.673-1.088c-0.159-0.277-0.267-0.416-0.319-0.416&#13;&#10;&#9;&#9;c-0.054,0-0.197,0.118-0.433,0.352c-0.234,0.235-0.581,0.534-1.04,0.896c-0.459,0.363-0.763,0.635-0.911,0.816&#13;&#10;&#9;&#9;c-0.15,0.182-0.315,0.272-0.496,0.272c-0.182,0-0.396-0.064-0.641-0.192S8.934,9.549,8.934,9.421c0-0.128,0.085-0.224,0.257-0.288&#13;&#10;&#9;&#9;c0.362-0.192,0.928-0.794,1.695-1.808c0.769-1.013,1.69-2.16,2.769-3.44c1.077-1.28,1.664-1.973,1.76-2.08&#13;&#10;&#9;&#9;c0.096-0.106,0.208-0.16,0.336-0.16s0.373,0.112,0.736,0.336c0.362,0.224,0.64,0.432,0.832,0.624&#13;&#10;&#9;&#9;c0.191,0.192,0.56,0.416,1.104,0.672c0.544,0.256,1.066,0.464,1.568,0.624c0.501,0.16,0.885,0.331,1.151,0.512&#13;&#10;&#9;&#9;c0.267,0.182,0.4,0.347,0.4,0.496c0,0.256-0.267,0.608-0.8,1.056c-0.533,0.448-0.886,0.821-1.057,1.12&#13;&#10;&#9;&#9;c-0.171,0.299-0.549,0.699-1.136,1.2c-0.587,0.501-0.976,0.848-1.168,1.04c-0.191,0.192-0.288,0.341-0.288,0.448&#13;&#10;&#9;&#9;c0,0.107,0.048,0.24,0.145,0.4c0.096,0.16,0.196,0.379,0.304,0.656c0.106,0.277,0.197,0.416,0.272,0.416&#13;&#10;&#9;&#9;c0.074,0,0.159-0.085,0.256-0.256c0.096-0.17,0.17-0.352,0.224-0.544C18.347,10.253,18.438,10.157,18.566,10.157z M17.638,5.357&#13;&#10;&#9;&#9;c0-0.256-0.069-0.458-0.208-0.608c-0.139-0.149-0.314-0.224-0.527-0.224c-0.214,0-0.459,0.133-0.736,0.4&#13;&#10;&#9;&#9;c-0.277,0.267-0.843,0.624-1.696,1.072c-0.427,0.256-0.64,0.47-0.64,0.64c0,0.235,0.24,0.534,0.72,0.896&#13;&#10;&#9;&#9;c0.48,0.363,0.773,0.592,0.88,0.688s0.213,0.144,0.32,0.144c0.213,0,0.581-0.395,1.104-1.184&#13;&#10;&#9;&#9;C17.377,6.392,17.638,5.784,17.638,5.357z M17.702,17.74c0.148,0,0.538-0.404,1.168-1.215c0.629-0.811,0.944-1.361,0.944-1.649&#13;&#10;&#9;&#9;c0-0.288-0.064-0.544-0.192-0.768c-0.128-0.224-0.262-0.336-0.4-0.336s-0.261,0.054-0.367,0.16&#13;&#10;&#9;&#9;c-0.513,0.512-1.323,1.206-2.433,2.08c-0.149,0.106-0.224,0.22-0.224,0.336c0,0.118,0.042,0.208,0.128,0.272&#13;&#10;&#9;&#9;c0.448,0.32,0.768,0.586,0.96,0.8C17.478,17.635,17.616,17.74,17.702,17.74z" stroke-width="1"/>
    </g>
    <g/>
    <g/>
    <g/>
    <g/>
    <g/>
    <g/>
    <g/>
    <g/>
    <g/>
    <g/>
    <g/>
    <g/>
    <g/>
    <g/>
    <g/>
  </g>
</svg>