<svg xmlns="http://www.w3.org/2000/svg" xmlns:xlink="http://www.w3.org/1999/xlink" version="1.1" id="图层_1" x="0px" y="0px" width="30.501998901367188" height="25.608997344970703" viewBox="-0.20499980449676514 1.878005027770996 30.501998901367188 25.608997344970703" style="enable-background:new 0 0 30 30;" xml:space="preserve">
  <g>
    <g>
      <path style="fill:#0000FF;" d="M6.63,15.084c0,0.171-0.063,0.363-0.191,0.576c-1.729,3.201-2.828,5.366-3.296,6.496&#13;&#10;&#9;&#9;c-0.085,0.192-0.192,0.289-0.32,0.289c-0.128,0-0.582-0.209-1.36-0.625s-1.168-0.746-1.168-0.992c0-0.244,0.149-0.484,0.448-0.719&#13;&#10;&#9;&#9;c0.298-0.235,0.794-0.742,1.488-1.521c0.693-0.778,1.445-1.568,2.256-2.368c0.811-0.8,1.301-1.253,1.472-1.36&#13;&#10;&#9;&#9;c0.171-0.106,0.299-0.16,0.384-0.16C6.534,14.701,6.63,14.829,6.63,15.084z M7.462,10.765c0,0.256-0.048,0.459-0.144,0.608&#13;&#10;&#9;&#9;c-0.097,0.149-0.336,0.224-0.721,0.224c-0.384,0-0.891-0.075-1.52-0.224c-0.629-0.149-1.003-0.277-1.12-0.384&#13;&#10;&#9;&#9;c-0.118-0.106-0.208-0.267-0.272-0.48C3.622,10.296,3.59,9.89,3.59,9.292c0-0.597,0.106-1.141,0.32-1.632&#13;&#10;&#9;&#9;c0.213-0.49,0.501-0.736,0.864-0.736s0.656,0.224,0.88,0.672c0.224,0.448,0.667,1.088,1.329,1.92&#13;&#10;&#9;&#9;C7.302,9.944,7.462,10.36,7.462,10.765z M12.134,12.396c0.149,0,0.433,0.15,0.849,0.448c0.416,0.299,0.624,0.544,0.624,0.736&#13;&#10;&#9;&#9;s-0.129,0.416-0.385,0.672c-0.512,0.512-0.863,1.211-1.056,2.096c-0.192,0.886-0.736,1.776-1.632,2.672&#13;&#10;&#9;&#9;c-0.427,0.427-0.651,1.024-0.672,1.792c-0.021,0.235-0.069,0.422-0.145,0.561S9.414,21.74,9.03,22.061s-0.742,0.555-1.072,0.704&#13;&#10;&#9;&#9;c-0.331,0.149-0.699,0.224-1.104,0.224c-0.747,0-1.121-0.096-1.121-0.287c0-0.192,0.149-0.395,0.448-0.608&#13;&#10;&#9;&#9;c1.195-0.832,2.017-1.552,2.465-2.16c0.447-0.608,0.89-1.307,1.327-2.096s0.656-1.488,0.656-2.096s-0.085-0.912-0.256-0.912&#13;&#10;&#9;&#9;c-0.256,0-0.555,0.267-0.896,0.8c-0.128,0.213-0.277,0.32-0.447,0.32c-0.171,0-0.384-0.245-0.641-0.736&#13;&#10;&#9;&#9;c-0.256-0.491-0.384-0.843-0.384-1.056c0-0.384,0.353-0.635,1.057-0.752c0.703-0.117,1.188-0.219,1.455-0.304&#13;&#10;&#9;&#9;c0.267-0.085,0.565-0.224,0.896-0.416C11.744,12.493,11.984,12.396,12.134,12.396z M17.606,13.292c0,0.043,0.01,0.091,0.031,0.144&#13;&#10;&#9;&#9;c0.021,0.054,0.342,0.427,0.96,1.12c0.619,0.693,1.307,1.408,2.064,2.145c0.757,0.735,1.349,1.258,1.776,1.567&#13;&#10;&#9;&#9;c0.426,0.31,1.136,0.747,2.128,1.312c0.991,0.566,1.994,1.072,3.008,1.521c1.013,0.448,1.637,0.795,1.872,1.04&#13;&#10;&#9;&#9;c0.234,0.246,0.352,0.459,0.352,0.641s-0.299,0.314-0.896,0.399c-0.598,0.085-1.046,0.128-1.345,0.128&#13;&#10;&#9;&#9;c-0.768,0-1.898-0.17-3.392-0.512s-2.342-0.561-2.544-0.656c-0.203-0.096-0.304-0.379-0.304-0.848c0-1.408-0.716-2.443-2.145-3.104&#13;&#10;&#9;&#9;c-0.277-0.128-0.47-0.245-0.576-0.352s-0.239-0.277-0.399-0.513c-0.16-0.234-0.353-0.463-0.576-0.688s-0.384-0.336-0.48-0.336&#13;&#10;&#9;&#9;c-0.096,0-0.154,0.096-0.176,0.288c-0.021,0.512-0.069,0.997-0.144,1.456c-0.075,0.459-0.112,0.976-0.112,1.552&#13;&#10;&#9;&#9;s0.016,0.987,0.048,1.231c0.032,0.246,0.053,0.715,0.064,1.408c0.011,0.693-0.006,1.211-0.048,1.553&#13;&#10;&#9;&#9;c-0.043,0.341-0.064,0.938-0.064,1.791l0.032,0.961c0,0.299-0.086,0.447-0.256,0.447c-0.171,0-0.368-0.053-0.593-0.16&#13;&#10;&#9;&#9;c-0.224-0.106-0.725-0.293-1.504-0.56c-0.778-0.267-1.392-0.533-1.84-0.8c-0.448-0.268-0.848-0.598-1.2-0.992&#13;&#10;&#9;&#9;c-0.352-0.395-0.527-0.64-0.527-0.736c0-0.096,0.042-0.144,0.128-0.144c0.085,0,0.17,0.021,0.256,0.063&#13;&#10;&#9;&#9;c0.811,0.277,1.44,0.416,1.888,0.416c0.448,0,0.806-0.047,1.072-0.144c0.267-0.096,0.421-0.256,0.464-0.479&#13;&#10;&#9;&#9;c0.043-0.225,0.064-0.769,0.064-1.633c0-0.863-0.043-1.797-0.128-2.8c-0.043-0.448-0.064-1.675-0.064-3.68l-0.096-7.04&#13;&#10;&#9;&#9;c0-1.259,0.037-2.283,0.111-3.072c0.075-0.789,0.112-1.461,0.112-2.016s0.181-0.832,0.544-0.832c0.171,0,0.4,0.075,0.688,0.224&#13;&#10;&#9;&#9;c0.288,0.15,0.645,0.384,1.071,0.704c0.427,0.32,0.683,0.534,0.769,0.64c0.085,0.107,0.128,0.224,0.128,0.352&#13;&#10;&#9;&#9;s-0.08,0.304-0.24,0.528s-0.267,0.496-0.319,0.816c-0.054,0.32-0.118,0.971-0.192,1.952c-0.075,0.981-0.112,1.782-0.112,2.4&#13;&#10;&#9;&#9;c0,0.619,0.011,0.976,0.032,1.072c0.021,0.096,0.074,0.144,0.16,0.144c0.148,0,1.312-1.109,3.488-3.328&#13;&#10;&#9;&#9;c0.298-0.32,0.549-0.48,0.752-0.48c0.202,0,0.464,0.139,0.783,0.416c0.32,0.277,0.48,0.507,0.48,0.688&#13;&#10;&#9;&#9;c0,0.182-0.155,0.379-0.464,0.592c-0.31,0.213-0.838,0.64-1.584,1.28c-0.747,0.64-1.419,1.243-2.017,1.808&#13;&#10;&#9;&#9;c-0.597,0.566-0.912,0.875-0.943,0.928C17.622,13.17,17.606,13.229,17.606,13.292z" stroke-width="1"/>
    </g>
    <g/>
    <g/>
    <g/>
    <g/>
    <g/>
    <g/>
    <g/>
    <g/>
    <g/>
    <g/>
    <g/>
    <g/>
    <g/>
    <g/>
    <g/>
  </g>
</svg>