<svg xmlns="http://www.w3.org/2000/svg" xmlns:xlink="http://www.w3.org/1999/xlink" version="1.1" id="图层_1" x="0px" y="0px" width="23.047000885009766" height="30.72800064086914" viewBox="1.5039982795715332 -0.1940011978149414 23.047000885009766 30.72800064086914" enable-background="new 0 0 30 30" xml:space="preserve">
<g>
	<path fill="#0000FF" d="M12.951,22.291c-0.021,0.256,0.042,0.432,0.191,0.527s0.39,0.145,0.721,0.145   c0.33,0,0.564-0.053,0.704-0.16c0.138-0.107,0.218-0.245,0.239-0.416s0.032-0.533,0.032-1.088c0-0.299,0.181-0.448,0.544-0.448   c0.192,0,0.539,0.128,1.04,0.384s0.752,0.47,0.752,0.641c0,0.17-0.032,0.33-0.096,0.479c-0.171,0.405-0.304,0.854-0.4,1.345   c-0.096,0.49-0.191,0.762-0.288,0.815c-0.096,0.053-0.219,0.08-0.367,0.08c-0.15,0-0.337-0.011-0.561-0.032   s-0.485-0.031-0.784-0.031c-1.003,0-2.117,0.1-3.344,0.303s-1.947,0.395-2.16,0.576s-0.405,0.272-0.576,0.272   c-0.384,0-0.917-0.315-1.6-0.944c-0.683-0.629-1.024-1.205-1.024-1.728s0.064-0.886,0.192-1.089   c0.128-0.201,0.341-0.303,0.64-0.303c0.597,0,0.896,0.127,0.896,0.383c0,0.107-0.048,0.235-0.145,0.385   c-0.096,0.149-0.144,0.32-0.144,0.512s0.096,0.373,0.288,0.544c0.191,0.171,0.427,0.257,0.704,0.257   c0.276,0,0.618-0.07,1.023-0.209s0.661-0.25,0.769-0.336c0.106-0.085,0.16-0.469,0.16-1.152c0-0.682-0.038-1.098-0.112-1.248   c-0.075-0.148-0.512-0.223-1.313-0.223c-0.8,0-1.839,0.09-3.12,0.271c-1.28,0.182-2.091,0.464-2.432,0.848   c-0.149,0.171-0.299,0.256-0.448,0.256c-0.256,0-0.421-0.164-0.496-0.496c-0.075-0.33-0.166-0.57-0.272-0.72   c-0.107-0.149-0.16-0.304-0.16-0.464s0.064-0.325,0.192-0.496c0.128-0.17,0.256-0.24,0.384-0.208s0.256,0.048,0.384,0.048   c0.405,0,1.163-0.133,2.272-0.4c1.109-0.266,2.128-0.463,3.056-0.592c0.928-0.127,1.504-0.24,1.729-0.336   c0.224-0.096,0.336-0.293,0.336-0.592c0-0.597-0.123-0.96-0.368-1.088c-0.246-0.128-0.464-0.32-0.656-0.576   s-0.288-0.544-0.288-0.864l0.128-0.832c0-0.17-0.059-0.256-0.176-0.256s-0.224,0.032-0.32,0.096   c-0.096,0.064-0.336,0.304-0.72,0.72s-0.688,0.769-0.912,1.056c-0.224,0.288-0.485,0.523-0.784,0.704   c-0.299,0.182-0.592,0.272-0.88,0.272c-0.288,0-0.539-0.129-0.752-0.385c-0.213-0.256-0.32-0.437-0.32-0.543   c0-0.107,0.085-0.203,0.256-0.289c0.661-0.276,1.12-0.607,1.376-0.992c0.256-0.384,0.987-1.248,2.192-2.592   s1.883-2.192,2.032-2.544s0.314-0.528,0.496-0.528c0.181,0,0.421,0.085,0.72,0.256c0.299,0.171,0.539,0.416,0.72,0.736   c0.182,0.32,0.272,0.544,0.272,0.672c0,0.128-0.016,0.229-0.048,0.304c-0.032,0.075-0.048,0.144-0.048,0.208   s0.096,0.075,0.288,0.032c2.196-0.64,4.469-0.96,6.815-0.96c0.917,0,1.664,0.102,2.24,0.304c0.576,0.203,1.104,0.406,1.584,0.608   c0.479,0.203,0.741,0.352,0.784,0.448c0.042,0.096,0.063,0.197,0.063,0.304c0,0.107-0.043,0.235-0.128,0.384   c-0.234,0.363-0.384,1.461-0.448,3.296c-0.191,5.462-0.821,9.504-1.888,12.128c-0.384,0.939-0.603,1.557-0.656,1.855   c-0.053,0.299-0.171,0.449-0.352,0.449c-0.182,0-0.342-0.102-0.48-0.305s-0.646-0.508-1.52-0.912   c-1.152-0.49-2.112-1.008-2.88-1.553c-0.769-0.543-1.152-0.922-1.152-1.135c0-0.214,0.16-0.289,0.48-0.225   c1.855,0.385,3.008,0.576,3.456,0.576c0.447,0,0.73-0.059,0.848-0.176s0.293-0.582,0.528-1.393   c0.234-0.811,0.426-1.813,0.576-3.008c0.148-1.194,0.224-2.592,0.224-4.191s-0.016-2.779-0.048-3.536s-0.229-1.339-0.592-1.744   c-0.363-0.405-0.844-0.608-1.44-0.608c-0.598,0-1.531,0.085-2.8,0.256c-1.27,0.171-2.331,0.379-3.185,0.624   c-0.854,0.246-1.359,0.421-1.52,0.528c-0.16,0.107-0.299,0.267-0.416,0.48c-0.117,0.214-0.176,0.395-0.176,0.544   c0,0.32,0.16,0.448,0.479,0.384c1.024-0.213,1.941-0.363,2.752-0.448c0.811-0.085,1.339-0.17,1.584-0.256   c0.245-0.085,0.411-0.128,0.496-0.128c0.299,0,0.448,0.288,0.448,0.864c0,0.15-0.032,0.267-0.096,0.352   c-0.064,0.085-0.294,0.229-0.688,0.432c-0.395,0.204-0.832,0.379-1.312,0.528c-0.48,0.15-0.721,0.545-0.721,1.184   c0,0.278,0.182,0.396,0.544,0.353c0.96-0.085,1.701-0.128,2.225-0.128c0.522,0,0.891-0.026,1.104-0.08   c0.213-0.053,0.395-0.08,0.544-0.08c0.363,0,0.715,0.24,1.057,0.721c0.341,0.479,0.512,0.928,0.512,1.344s-0.091,0.623-0.272,0.623   c-0.181,0-0.655-0.047-1.424-0.144c-0.768-0.096-1.439-0.144-2.016-0.144s-1.094,0.059-1.552,0.176   c-0.459,0.117-0.752,0.213-0.881,0.288c-0.128,0.075-0.202,0.219-0.224,0.433L12.951,22.291z M22.135,4.179   c0.192,0,0.368,0.256,0.528,0.768c0.16,0.512,0.24,0.843,0.24,0.992c0,0.341-0.277,0.512-0.832,0.512   c-0.704,0-1.536,0.149-2.496,0.448c-0.192,0.085-0.416,0.139-0.672,0.16c-0.662,0.064-1.1,0.224-1.313,0.48   c-0.533,0.704-0.981,1.227-1.344,1.568c-0.363,0.342-0.661,0.512-0.896,0.512c-0.234,0-0.352-0.117-0.352-0.352   c0-0.064,0.011-0.128,0.032-0.192c0.085-0.171,0.196-0.496,0.336-0.976c0.139-0.48,0.208-0.837,0.208-1.072   c0-0.234-0.069-0.352-0.208-0.352c-0.14,0-0.454,0.075-0.944,0.224L13.207,7.25c-0.32,0.107-0.518,0.192-0.592,0.256   C12.54,7.57,12.492,7.64,12.471,7.714c-0.021,0.075-0.031,0.251-0.031,0.528s-0.155,0.475-0.465,0.592   c-0.31,0.118-0.549,0.176-0.72,0.176s-0.32-0.123-0.448-0.368c-0.128-0.245-0.251-0.368-0.367-0.368c-0.118,0-0.465,0.134-1.04,0.4   C8.823,8.941,8.434,9.166,8.231,9.347c-0.203,0.181-0.38,0.272-0.528,0.272c-0.149,0-0.448-0.325-0.896-0.976   C6.359,7.992,6.135,7.57,6.135,7.378c0-0.341,0.288-0.522,0.864-0.544c0.32,0,0.618-0.048,0.896-0.144   c0.277-0.096,0.821-0.218,1.633-0.368c0.341-0.064,0.458-0.331,0.352-0.8c-0.214-1.258-0.32-2.272-0.32-3.04   c0-0.512,0.245-0.768,0.736-0.768c0.299,0,0.73,0.128,1.296,0.384c0.565,0.256,0.849,0.448,0.849,0.576   c0,0.128-0.044,0.246-0.129,0.352c-0.191,0.214-0.287,0.864-0.287,1.952c0,0.32,0.031,0.544,0.096,0.672   c0.063,0.128,0.197,0.192,0.399,0.192c0.203,0,0.806-0.064,1.809-0.192c1.002-0.128,1.6-0.234,1.792-0.32   c0.191-0.085,0.314-0.219,0.368-0.4c0.053-0.181,0.309-0.763,0.768-1.744c0.459-0.981,0.752-1.707,0.88-2.176   s0.336-0.704,0.624-0.704s0.646,0.123,1.072,0.368c0.427,0.246,0.64,0.475,0.64,0.688c0,0.128-0.187,0.603-0.56,1.424   c-0.374,0.821-0.561,1.328-0.561,1.52s0.085,0.288,0.257,0.288c0.17,0,0.581-0.042,1.231-0.128c0.65-0.085,1.013-0.154,1.088-0.208   C22.002,4.206,22.071,4.179,22.135,4.179z" stroke-width="1"/>
</g>
</svg>