<svg xmlns="http://www.w3.org/2000/svg" xmlns:xlink="http://www.w3.org/1999/xlink" version="1.1" id="图层_1" x="0px" y="0px" width="24.329002380371094" height="21.415000915527344" viewBox="1.0899990797042847 4.414999961853027 24.329002380371094 21.415000915527344" enable-background="new 0 0 30 30" xml:space="preserve">
<g>
	<path fill="#0000FF" d="M16.567,9.683c-0.641,0.235-1.062,0.448-1.265,0.64c-0.203,0.192-0.533,0.581-0.992,1.168   s-1.114,1.563-1.968,2.928c-0.341,0.534-0.726,1.014-1.151,1.44c-1.601,1.558-2.518,2.901-2.752,4.032   c-0.107,0.598-0.982,1.291-2.625,2.08c-1.643,0.789-2.87,1.184-3.68,1.184c-0.363,0-0.544-0.101-0.544-0.304   c0-0.202,0.139-0.399,0.416-0.593c2.837-2.068,4.683-3.6,5.536-4.592c0.853-0.992,1.755-2.218,2.704-3.68   c0.949-1.461,1.424-2.49,1.424-3.088c0-0.362-0.224-0.544-0.672-0.544c-0.832,0-1.536,0.096-2.112,0.288   c-0.405,0.128-0.72,0.192-0.943,0.192c-0.225,0-0.357-0.117-0.4-0.352C7.415,9.886,7.266,9.304,7.095,8.738   C6.924,8.173,6.839,7.709,6.839,7.347c0-0.811,0.256-1.216,0.769-1.216c0.191,0,0.373,0.048,0.544,0.144   c0.17,0.096,0.778,0.144,1.823,0.144c2.453,0,4.353-0.17,5.696-0.512c2.539-0.661,4.928-0.992,7.168-0.992   c0.49,0,0.811,0.048,0.96,0.144c0.149,0.096,0.225,0.272,0.225,0.528s-0.032,0.555-0.097,0.896   c-0.063,0.342-0.171,0.571-0.319,0.688c-0.15,0.118-0.784,0.336-1.904,0.656c-1.12,0.32-2.182,0.683-3.185,1.088L16.567,9.683z    M24.919,17.746c0,0.172-0.229,0.668-0.688,1.488c-0.459,0.822-0.796,1.34-1.009,1.553c-0.362,0.362-0.597,0.698-0.704,1.008   c-0.106,0.309-0.159,0.693-0.159,1.151c0,0.46-0.049,0.763-0.145,0.912s-0.271,0.224-0.528,0.224l-0.735-0.063   c-0.747,0-1.729,0.091-2.944,0.272c-1.216,0.181-2.08,0.399-2.592,0.655c-0.512,0.257-0.838,0.384-0.976,0.384   c-0.14,0-0.24-0.031-0.305-0.096c-0.341-0.405-0.607-0.693-0.8-0.863c-0.939-0.832-1.675-1.873-2.208-3.121s-0.8-2.09-0.8-2.527   s0.08-0.768,0.24-0.992c0.159-0.225,0.41-0.4,0.752-0.527c0.341-0.129,0.954-0.342,1.84-0.641c0.885-0.299,1.994-0.549,3.328-0.752   c1.333-0.203,2.506-0.305,3.52-0.305c1.013,0,2.085,0.289,3.216,0.865C24.354,16.946,24.919,17.406,24.919,17.746z M15.191,22.194   c0.597,0,1.424-0.159,2.479-0.479s1.717-0.769,1.984-1.344c0.267-0.576,0.399-1.051,0.399-1.425c0-0.372-0.117-0.688-0.352-0.944   c-0.235-0.256-0.672-0.383-1.313-0.383c-0.64,0-1.402,0.165-2.288,0.496c-0.885,0.33-1.477,0.635-1.775,0.911   c-0.299,0.278-0.448,0.603-0.448,0.976c0,0.374,0.048,0.785,0.145,1.232c0.096,0.448,0.239,0.721,0.432,0.816   S14.892,22.194,15.191,22.194z" stroke-width="1"/>
</g>
</svg>