<svg xmlns="http://www.w3.org/2000/svg" xmlns:xlink="http://www.w3.org/1999/xlink" version="1.1" id="图层_1" x="0px" y="0px" width="25.284000396728516" height="25.801998138427734" viewBox="0.8699992895126343 3.132002353668213 25.284000396728516 25.801998138427734" enable-background="new 0 0 30 30" xml:space="preserve">
<g>
	<path fill="#0000FF" d="M11.959,9.203c0.384,0,0.64,0.181,0.768,0.544c0.129,0.363,0.192,0.64,0.192,0.832   s-0.224,0.469-0.672,0.832s-0.859,0.646-1.232,0.848c-0.373,0.203-0.597,0.347-0.672,0.432c-0.075,0.085-0.111,0.213-0.111,0.384   s0.096,0.309,0.287,0.416c0.491,0.235,0.881,0.517,1.168,0.848c0.288,0.331,0.433,0.667,0.433,1.008c0,0.533-0.203,0.8-0.608,0.8   c-0.234,0-0.507-0.048-0.815-0.145c-0.31-0.096-0.513-0.144-0.608-0.144s-0.16,0.063-0.192,0.192   c-0.031,0.128-0.069,0.56-0.111,1.296c-0.043,0.735-0.064,1.616-0.064,2.64c0,1.984,0.064,3.445,0.192,4.385   c0.042,0.298,0.063,0.554,0.063,0.768c0,0.618-0.202,0.928-0.607,0.928c-0.556,0-0.977-0.176-1.265-0.527   c-0.287-0.353-0.432-0.63-0.432-0.832c0-0.203,0.032-0.348,0.096-0.433c0.214-0.276,0.32-2.069,0.32-5.376   c0-0.683-0.011-1.156-0.032-1.424c-0.021-0.267-0.085-0.4-0.191-0.4c-0.277,0-1.27,0.854-2.976,2.561   c-1.344,1.344-2.219,2.016-2.624,2.016c-0.192,0-0.39-0.068-0.592-0.208c-0.203-0.138-0.304-0.282-0.304-0.432   s0.085-0.282,0.256-0.4c0.17-0.116,0.442-0.347,0.816-0.688c0.373-0.34,0.645-0.612,0.816-0.815c0.17-0.202,0.608-0.655,1.312-1.36   c0.704-0.703,1.354-1.514,1.952-2.432c0.597-0.917,0.896-1.472,0.896-1.664s-0.08-0.288-0.24-0.288c-0.16,0-0.619,0.027-1.376,0.08   c-0.757,0.054-1.435,0.326-2.032,0.816c-0.256,0.214-0.448,0.32-0.576,0.32s-0.256-0.165-0.384-0.496   c-0.128-0.331-0.395-0.922-0.8-1.776c-0.064-0.149-0.096-0.293-0.096-0.432c0-0.139,0.208-0.24,0.624-0.304s1.109-0.213,2.08-0.448   c0.97-0.234,1.69-0.453,2.16-0.656c0.469-0.202,0.837-0.346,1.104-0.432C8.146,9.95,8.3,9.88,8.343,9.827s0.085-0.165,0.128-0.336   c0.064-0.405,0.208-0.608,0.433-0.608c0.224,0,0.475,0.086,0.752,0.256c0.276,0.171,0.496,0.256,0.655,0.256   c0.16,0,0.422-0.032,0.784-0.096S11.745,9.203,11.959,9.203z M12.151,4.626c0.319,0,0.603,0.203,0.848,0.608   c0.245,0.406,0.368,0.699,0.368,0.88s-0.086,0.315-0.256,0.4C12.94,6.6,12.684,6.643,12.343,6.643h-0.479   c-1.43,0-2.24,0.352-2.433,1.056C9.367,7.955,9.058,8.125,8.503,8.21C7.948,8.296,7.212,8.338,6.295,8.338   c-0.555,0-0.832-0.064-0.832-0.192S5.772,7.73,6.391,7.283c0.618-0.448,1.178-0.768,1.68-0.96c0.501-0.192,0.848-0.384,1.04-0.576   c0.426-0.363,0.976-0.64,1.647-0.832S11.895,4.626,12.151,4.626z M20.439,11.187c0,0.107,0.036,0.219,0.111,0.336   c0.075,0.118,0.154,0.283,0.24,0.496c0.085,0.213,0.277,0.4,0.576,0.56c0.298,0.16,0.544,0.357,0.735,0.592   c0.192,0.235,0.832,0.651,1.921,1.248c0.341,0.149,0.698,0.374,1.071,0.672c0.373,0.299,0.561,0.539,0.561,0.72   s-0.171,0.395-0.513,0.641c-0.341,0.244-0.661,0.607-0.96,1.088c-0.299,0.479-0.906,1.253-1.823,2.319   c-0.128,0.149-0.192,0.278-0.192,0.384c0,0.107,0.037,0.246,0.112,0.416c0.074,0.172,0.111,0.39,0.111,0.656   c0,0.268-0.123,0.635-0.367,1.104c-0.246,0.471-0.48,0.705-0.704,0.705c-0.225,0-0.443-0.129-0.656-0.385   c-0.214-0.256-0.363-0.384-0.448-0.384s-0.16,0.032-0.224,0.097c-0.064,0.063-0.214,0.244-0.448,0.543l-0.864,1.152   c-0.341,0.469-0.549,0.752-0.624,0.848c-0.074,0.096-0.149,0.272-0.224,0.528c-0.075,0.256-0.123,0.448-0.145,0.576   c-0.085,0.597-0.427,0.928-1.023,0.991c-0.214,0.021-0.55,0.15-1.008,0.385c-0.459,0.234-1.18,0.453-2.16,0.656   c-0.981,0.203-1.835,0.303-2.561,0.303c-0.725,0-1.088-0.084-1.088-0.256c0-0.17,0.134-0.314,0.4-0.432s0.597-0.33,0.992-0.639   c0.395-0.311,1.045-0.748,1.952-1.313c0.906-0.566,1.615-0.987,2.128-1.264c0.512-0.278,1.108-0.742,1.792-1.393   c0.683-0.65,1.205-1.184,1.567-1.6s0.544-0.678,0.544-0.785c0-0.127-0.139-0.389-0.416-0.783s-0.479-0.73-0.607-1.008   s-0.251-0.416-0.368-0.416s-0.219,0.043-0.304,0.127c-0.641,0.492-1.217,0.832-1.729,1.025c-0.512,0.191-0.88,0.287-1.104,0.287   c-0.225,0-0.336-0.106-0.336-0.32c0-0.213,0.319-0.697,0.96-1.455c0.64-0.758,1.258-1.402,1.855-1.937   c0.598-0.532,1.221-1.173,1.872-1.92c0.65-0.747,0.977-1.2,0.977-1.36c0-0.16-0.075-0.283-0.225-0.368   c-0.149-0.085-0.299-0.128-0.448-0.128s-0.325,0.102-0.527,0.304c-0.203,0.203-0.496,0.475-0.88,0.816   c-0.428,0.384-0.939,0.981-1.536,1.792c-0.192,0.255-0.384,0.427-0.576,0.511c-0.192,0.086-0.453,0.129-0.784,0.129   s-0.607-0.08-0.832-0.24c-0.224-0.16-0.336-0.314-0.336-0.464c0-0.149,0.032-0.309,0.096-0.48c0.064-0.171,0.182-0.256,0.353-0.256   h0.191c0.257,0,0.545-0.138,0.864-0.416c0.32-0.277,0.747-0.768,1.28-1.472s0.8-1.099,0.8-1.184c0-0.085-0.063-0.17-0.192-0.256   c-0.597-0.469-0.981-1.077-1.151-1.824c-0.021-0.128-0.096-0.192-0.225-0.192c-0.128,0-0.309,0.112-0.544,0.336   c-0.234,0.224-0.469,0.336-0.703,0.336c-0.235,0-0.353-0.144-0.353-0.432c0-0.288,0.416-1.024,1.248-2.208   c0.832-1.184,1.435-1.962,1.808-2.336c0.373-0.373,0.593-0.667,0.656-0.88c0.106-0.298,0.261-0.448,0.464-0.448   s0.362,0.059,0.48,0.176c0.117,0.118,0.304,0.208,0.56,0.272c1.301,0.341,2.4,0.79,3.296,1.344c0.896,0.555,1.345,1.035,1.345,1.44   c0,0.213-0.192,0.453-0.576,0.72c-0.384,0.267-0.972,0.875-1.76,1.824c-0.79,0.949-1.217,1.461-1.28,1.536   C20.471,11.021,20.439,11.102,20.439,11.187z M18.743,9.555c0.085,0,0.202-0.096,0.352-0.288s0.362-0.597,0.641-1.216   c0.276-0.618,0.416-1.013,0.416-1.184c0-0.384-0.182-0.576-0.544-0.576c-0.192,0-0.448,0.139-0.769,0.416   c-0.32,0.277-0.672,0.565-1.056,0.864c-0.384,0.299-0.576,0.512-0.576,0.64s0.202,0.384,0.608,0.768   C18.22,9.362,18.529,9.555,18.743,9.555z M20.855,18.674c0.191,0,0.484-0.389,0.88-1.168c0.395-0.777,0.592-1.295,0.592-1.551   s-0.048-0.449-0.145-0.577c-0.096-0.128-0.224-0.192-0.384-0.192s-0.39,0.144-0.688,0.433c-0.3,0.287-0.662,0.597-1.088,0.928   c-0.428,0.33-0.641,0.581-0.641,0.752s0.059,0.32,0.176,0.447c0.117,0.129,0.267,0.246,0.448,0.353s0.353,0.229,0.512,0.368   C20.679,18.605,20.791,18.674,20.855,18.674z" stroke-width="1"/>
</g>
</svg>