<svg xmlns="http://www.w3.org/2000/svg" xmlns:xlink="http://www.w3.org/1999/xlink" version="1.1" id="图层_1" x="0px" y="0px" width="24.007999420166016" height="17.064002990722656" viewBox="2.5779998302459717 6.744999885559082 24.007999420166016 17.064002990722656" style="enable-background:new 0 0 30 30;" xml:space="preserve">
  <g>
    <g>
      <path style="fill:#0000FF;" d="M23.206,17.068c0.512,0,0.853,0.15,1.024,0.448c0.447,0.769,0.82,1.35,1.119,1.744&#13;&#10;&#9;&#9;c0.299,0.396,0.496,0.72,0.593,0.976c0.096,0.256,0.144,0.566,0.144,0.928c0,0.727-0.224,1.089-0.672,1.089&#13;&#10;&#9;&#9;c-0.149,0-0.31-0.054-0.48-0.16c-0.49-0.32-1.173-0.613-2.048-0.88s-1.467-0.389-1.775-0.368c-0.31,0.021-0.614,0.032-0.912,0.032&#13;&#10;&#9;&#9;l-1.856-0.096c-0.981,0-2.075,0.176-3.279,0.527c-1.206,0.352-2.353,0.528-3.44,0.528l-1.152-0.032&#13;&#10;&#9;&#9;c-1.216,0-2.368,0.128-3.456,0.384c-1.088,0.257-1.845,0.556-2.271,0.896c-0.192,0.15-0.368,0.225-0.528,0.225&#13;&#10;&#9;&#9;c-0.16,0-0.352-0.148-0.576-0.447c-0.224-0.299-0.363-0.651-0.416-1.057C3.168,21.4,3.131,21.148,3.11,21.053&#13;&#10;&#9;&#9;c-0.021-0.096-0.032-0.213-0.032-0.352s0.069-0.251,0.208-0.336c0.138-0.086,0.816-0.229,2.032-0.433&#13;&#10;&#9;&#9;c1.216-0.202,2.283-0.353,3.2-0.448s1.878-0.256,2.881-0.479c1.002-0.224,2.378-0.453,4.128-0.688c1.749-0.234,3.307-0.5,4.672-0.8&#13;&#10;&#9;&#9;C21.563,17.219,22.566,17.068,23.206,17.068z M20.134,7.245c0.256,0,0.442,0.048,0.561,0.144c0.116,0.096,0.218,0.326,0.304,0.688&#13;&#10;&#9;&#9;c0.085,0.363,0.128,0.683,0.128,0.96c0,0.64-0.32,1.099-0.96,1.376c-0.086,0.043-0.224,0.139-0.416,0.288&#13;&#10;&#9;&#9;c-0.768,0.555-1.718,1.056-2.848,1.504c-1.131,0.448-1.776,0.672-1.937,0.672s-0.293-0.01-0.399-0.032&#13;&#10;&#9;&#9;c-0.448-0.064-0.966-0.096-1.553-0.096s-1.163,0.064-1.728,0.192c-0.565,0.128-0.944,0.283-1.136,0.464&#13;&#10;&#9;&#9;c-0.192,0.182-0.385,0.272-0.576,0.272c-0.534,0-0.875-0.437-1.024-1.312c-0.149-0.789-0.304-1.424-0.464-1.904&#13;&#10;&#9;&#9;c-0.16-0.48-0.24-0.784-0.24-0.912c0-0.363,0.31-0.544,0.929-0.544c2.196-0.042,4.442-0.347,6.735-0.912&#13;&#10;&#9;&#9;C17.803,7.528,19.345,7.245,20.134,7.245z" stroke-width="1"/>
    </g>
    <g/>
    <g/>
    <g/>
    <g/>
    <g/>
    <g/>
    <g/>
    <g/>
    <g/>
    <g/>
    <g/>
    <g/>
    <g/>
    <g/>
    <g/>
  </g>
</svg>