<svg xmlns="http://www.w3.org/2000/svg" xmlns:xlink="http://www.w3.org/1999/xlink" version="1.1" id="图层_1" x="0px" y="0px" width="25.034000396728516" height="26.24799919128418" viewBox="3.490999221801758 2.0950000286102295 25.034000396728516 26.24799919128418" enable-background="new 0 0 30 30" xml:space="preserve">
<g>
	<path fill="#0000FF" d="M10.2,14.115c0.106,0,0.16,0.171,0.16,0.512c0,3.605-0.812,6.155-2.433,7.648   c-0.683,0.64-1.083,1.034-1.2,1.184c-0.118,0.149-0.251,0.224-0.4,0.224c-0.32,0-0.79-0.532-1.408-1.6   c-0.619-1.066-0.928-2.923-0.928-5.567c0-0.789,0.069-1.531,0.208-2.225c0.138-0.693,0.357-1.424,0.656-2.192   c0.298-0.768,0.496-1.227,0.592-1.376c0.096-0.149,0.218-0.224,0.368-0.224c0.149,0,0.533,0.182,1.152,0.544   c0.619,0.363,0.929,0.693,0.929,0.992s-0.214,0.661-0.641,1.088s-0.971,1.35-1.632,2.768c-0.662,1.42-0.992,2.576-0.992,3.473   c0,0.512,0.106,0.923,0.32,1.232c0.213,0.309,0.501,0.463,0.864,0.463c0.597,0,1.184-0.395,1.76-1.184s1.248-2.347,2.016-4.672   C9.826,14.478,10.029,14.115,10.2,14.115z M8.216,2.595c0.171,0,0.331,0.117,0.48,0.352c0.148,0.235,0.395,0.518,0.735,0.848   c0.342,0.331,0.65,0.848,0.929,1.552c0.276,0.704,0.416,1.173,0.416,1.408c0,0.704-0.459,1.056-1.376,1.056   c-0.47,0-1.02-0.123-1.648-0.368c-0.629-0.245-0.944-0.752-0.944-1.52c0-0.448,0.128-1.114,0.384-2   C7.448,3.038,7.789,2.595,8.216,2.595z M20.76,16.482c0.021-1.642,0.005-2.874-0.048-3.695c-0.054-0.821-0.149-1.429-0.288-1.824   c-0.139-0.395-0.283-0.634-0.432-0.72c-0.149-0.085-0.571-0.139-1.265-0.16c-0.693-0.021-1.312-0.059-1.855-0.112   s-0.859-0.08-0.944-0.08c-0.747,0-1.717,0.149-2.912,0.448c-1.194,0.299-1.957,0.555-2.288,0.768   c-0.33,0.213-0.587,0.32-0.768,0.32c-0.182,0-0.4-0.24-0.656-0.72S8.92,9.891,8.92,9.699c0-0.363,0.459-0.645,1.376-0.848   c0.917-0.203,1.808-0.331,2.672-0.384c0.864-0.053,2.059-0.187,3.584-0.4c1.525-0.213,2.501-0.368,2.929-0.464   c0.426-0.096,1.877-0.314,4.352-0.656c0.874-0.128,1.493-0.277,1.856-0.448c0.17-0.064,0.336-0.096,0.495-0.096   c0.16,0,0.357,0.224,0.593,0.672c0.404,0.811,0.757,1.44,1.056,1.888c0.128,0.192,0.192,0.406,0.192,0.64   c0,0.235-0.08,0.443-0.24,0.624c-0.16,0.182-0.342,0.272-0.544,0.272c-0.203,0-0.422-0.037-0.656-0.112   c-0.235-0.075-0.693-0.149-1.376-0.224s-1.136-0.112-1.36-0.112c-0.224,0-0.379,0.059-0.464,0.176   c-0.085,0.118-0.128,0.336-0.128,0.656c0,0.32-0.027,1.579-0.08,3.776c-0.054,2.197-0.08,4.139-0.08,5.823l0.097,5.345   c0,0.618-0.027,1.04-0.08,1.264c-0.054,0.225-0.177,0.405-0.368,0.544c-0.192,0.139-0.4,0.208-0.624,0.208   s-0.459-0.059-0.704-0.176s-0.741-0.251-1.488-0.4c-1.279-0.277-2.565-0.854-3.855-1.728c-1.291-0.875-1.937-1.493-1.937-1.856   c0-0.148,0.069-0.224,0.208-0.224s0.336,0.086,0.592,0.256c0.257,0.171,0.747,0.347,1.473,0.528   c0.725,0.181,1.429,0.271,2.111,0.271s1.152-0.091,1.408-0.271c0.256-0.182,0.453-0.496,0.592-0.944   c0.139-0.447,0.208-1.056,0.208-1.824L20.76,16.482z M19.512,12.867c0,0.192-0.075,0.363-0.224,0.512   c-0.448,0.491-0.752,0.934-0.912,1.328c-0.16,0.395-0.251,0.923-0.272,1.584c-0.021,0.662-0.091,1.083-0.207,1.264   c-0.118,0.182-0.348,0.283-0.688,0.305c-1.493,0.127-2.496,0.395-3.008,0.8c-0.128,0.106-0.272,0.159-0.433,0.159   c-0.159,0-0.464-0.281-0.911-0.848c-0.448-0.564-0.854-1.354-1.217-2.367c-0.362-1.014-0.544-1.681-0.544-2   s0.069-0.603,0.208-0.848c0.139-0.245,0.31-0.368,0.513-0.368c0.202,0,0.581-0.107,1.136-0.32c1.194-0.426,2.208-0.64,3.04-0.64   s1.626,0.144,2.384,0.432C19.133,12.147,19.512,12.483,19.512,12.867z M14.456,15.619c0.362,0,0.709-0.102,1.04-0.304   c0.33-0.203,0.496-0.56,0.496-1.072c0-0.512-0.225-0.768-0.672-0.768c-0.256,0-0.598,0.102-1.024,0.304   c-0.427,0.203-0.64,0.507-0.64,0.912C13.656,15.31,13.923,15.619,14.456,15.619z" stroke-width="1"/>
</g>
</svg>