<svg xmlns="http://www.w3.org/2000/svg" xmlns:xlink="http://www.w3.org/1999/xlink" version="1.1" id="图层_1" x="0px" y="0px" width="26.05299949645996" height="28.93699836730957" viewBox="0.7419989109039307 0.19099950790405273 26.05299949645996 28.93699836730957" enable-background="new 0 0 30 30" xml:space="preserve">
<g>
	<path fill="#0000FF" d="M24.439,18.674c0.276,0,0.484,0.086,0.624,0.257c0.138,0.171,0.378,0.533,0.72,1.088   c0.341,0.556,0.512,0.966,0.512,1.231c0,0.268-0.149,0.4-0.448,0.4c-0.106,0-0.213-0.01-0.319-0.031   c-1.195-0.32-2.513-0.48-3.952-0.48c-1.44,0-3.062,0.053-4.864,0.16s-2.821,0.191-3.056,0.256c-0.235,0.064-0.396,0.171-0.48,0.32   c-0.47,0.832-1.131,1.674-1.983,2.527c-0.385,0.385-0.604,0.768-0.656,1.152c-0.054,0.384-0.14,0.645-0.256,0.783   c-0.118,0.139-0.485,0.357-1.104,0.656s-1.28,0.539-1.983,0.721c-0.705,0.182-1.302,0.271-1.792,0.271s-0.736-0.074-0.736-0.225   c0-0.084,0.128-0.223,0.384-0.416c1.451-1.066,2.561-1.855,3.328-2.367s1.36-1.088,1.776-1.729c0.416-0.64,0.624-1.018,0.624-1.135   s-0.07-0.177-0.208-0.177c-0.14,0-0.539,0.106-1.2,0.319c-0.662,0.215-1.648,0.433-2.96,0.656   c-1.312,0.225-2.171,0.348-2.576,0.369c-0.811,0.043-1.302,0.127-1.472,0.256c-0.171,0.127-0.331,0.191-0.48,0.191   c-0.149,0-0.293-0.176-0.432-0.527c-0.139-0.353-0.208-0.613-0.208-0.785c0-0.17,0.128-0.256,0.384-0.256s0.784-0.074,1.584-0.224   s1.296-0.267,1.488-0.353c0.619-0.234,2.677-0.703,6.176-1.407c0.469-0.106,0.704-0.405,0.704-0.896   c0-0.277-0.128-0.416-0.384-0.416l-0.544,0.063c-0.32,0-0.716-0.288-1.185-0.864c-0.47-0.576-0.928-1.472-1.376-2.688   c-0.448-1.216-0.672-1.946-0.672-2.192c0-0.245,0.106-0.389,0.32-0.432c0.447-0.085,1.354-0.362,2.72-0.832   c1.365-0.469,2.347-0.784,2.944-0.944c0.597-0.16,0.96-0.304,1.088-0.432s0.304-0.421,0.527-0.88   c0.225-0.458,0.336-0.763,0.336-0.912c0-0.149-0.149-0.224-0.447-0.224c-0.3,0-0.79,0.053-1.473,0.16   c-0.683,0.107-1.062,0.198-1.136,0.272c-0.075,0.075-0.112,0.192-0.112,0.352s0.011,0.342,0.032,0.544   c0.021,0.203,0.032,0.4,0.032,0.592c0,0.192-0.117,0.341-0.353,0.448c-0.234,0.107-0.442,0.16-0.624,0.16   c-0.181,0-0.367-0.203-0.56-0.608c-0.256-0.597-0.459-0.896-0.608-0.896S9.655,9.646,9.207,9.827s-0.736,0.336-0.864,0.464   c-0.47,0.47-0.789,0.704-0.96,0.704s-0.475-0.25-0.912-0.752c-0.438-0.501-0.656-0.955-0.656-1.36c0-0.192,0.128-0.336,0.384-0.432   C6.455,8.354,7.02,8.227,7.895,8.066C8.77,7.907,9.26,7.8,9.367,7.747c0.106-0.053,0.16-0.149,0.16-0.288   c0-0.139-0.021-0.314-0.064-0.528S9.378,6.312,9.335,5.714C9.292,5.118,9.271,4.787,9.271,4.723c0-0.469,0.277-0.704,0.832-0.704   c0.235,0,0.715,0.085,1.44,0.256c0.725,0.171,1.088,0.395,1.088,0.672c0,0.128-0.112,0.342-0.336,0.64   c-0.224,0.299-0.336,0.726-0.336,1.28c0,0.235,0.106,0.352,0.32,0.352c2.324-0.341,3.536-0.533,3.632-0.576   c0.096-0.042,0.176-0.112,0.24-0.208c0.063-0.096,0.261-0.704,0.592-1.824c0.33-1.12,0.576-1.92,0.735-2.4   c0.16-0.48,0.262-0.853,0.305-1.12c0.042-0.266,0.181-0.4,0.416-0.4c0.234,0,0.65,0.144,1.248,0.432   c0.597,0.288,0.896,0.512,0.896,0.672s-0.085,0.357-0.256,0.592s-0.422,0.757-0.752,1.568c-0.331,0.811-0.496,1.35-0.496,1.616   c0,0.267,0.106,0.4,0.32,0.4c0.576,0,1.28-0.106,2.111-0.32c0.214-0.042,0.373-0.064,0.48-0.064c0.277,0,0.512,0.208,0.704,0.624   s0.288,0.752,0.288,1.008c0,0.256-0.134,0.427-0.4,0.512c-0.267,0.085-0.815,0.166-1.647,0.24s-1.499,0.187-2,0.336   c-0.502,0.149-0.816,0.267-0.944,0.352c-0.128,0.085-0.304,0.336-0.528,0.752c-0.224,0.416-0.336,0.677-0.336,0.784   c0,0.107,0.139,0.182,0.416,0.224c0.938,0.107,1.883,0.357,2.832,0.752c0.949,0.395,1.424,0.752,1.424,1.072   c0,0.149-0.106,0.32-0.319,0.512c-0.256,0.214-0.476,0.651-0.656,1.312c-0.182,0.662-0.496,1.482-0.944,2.465   c-0.447,0.98-0.741,1.563-0.88,1.743c-0.139,0.182-0.208,0.342-0.208,0.479c0,0.14,0.085,0.209,0.256,0.209l2.08-0.096   c0.32,0,0.576,0.01,0.769,0.031c0.191,0.021,0.453,0.032,0.784,0.032c0.33,0,0.703-0.042,1.119-0.128S24.268,18.674,24.439,18.674z    M17.911,12.979c0-0.384-0.197-0.672-0.592-0.864c-0.396-0.192-0.79-0.288-1.185-0.288s-1.344,0.288-2.848,0.864   c-1.504,0.576-2.396,0.96-2.672,1.152c-0.277,0.192-0.416,0.422-0.416,0.688s0.085,0.741,0.256,1.424   c0.171,0.683,0.341,1.056,0.512,1.119c0.171,0.064,0.325,0.096,0.464,0.096s0.293-0.053,0.464-0.159   c0.811-0.513,1.899-0.769,3.265-0.769c0.362,0,0.544,0.129,0.544,0.385s0.074,0.384,0.224,0.384c0.32,0,0.592-0.085,0.816-0.257   c0.224-0.17,0.475-0.692,0.752-1.567C17.772,14.312,17.911,13.576,17.911,12.979z M15.671,13.267c0.277,0,0.432,0.144,0.464,0.432   c0.032,0.288,0.048,0.528,0.048,0.72s-0.026,0.352-0.08,0.48c-0.053,0.128-0.197,0.198-0.432,0.208   c-0.235,0.011-0.55,0.102-0.944,0.272s-0.848,0.304-1.359,0.4c-0.512,0.097-0.912,0.144-1.2,0.144s-0.533-0.144-0.736-0.431   c-0.203-0.288-0.304-0.517-0.304-0.688c0-0.277,0.165-0.416,0.496-0.416c0.33,0,0.837-0.16,1.52-0.48   c0.342-0.149,0.789-0.293,1.345-0.432C15.041,13.336,15.436,13.267,15.671,13.267z M17.143,19.026c0-0.171-0.256-0.416-0.768-0.735   c-0.512-0.32-0.896-0.48-1.152-0.48c-0.063,0-0.395,0.08-0.991,0.24c-0.598,0.16-0.896,0.325-0.896,0.496   c0,0.063,0.106,0.176,0.32,0.336c0.213,0.16,0.384,0.309,0.512,0.447c0.128,0.14,0.288,0.188,0.48,0.145   c0.725-0.148,1.439-0.245,2.144-0.288C17.025,19.166,17.143,19.111,17.143,19.026z M16.919,23.57c0.725,0,1.419,0.049,2.08,0.145   s1.349,0.267,2.064,0.512c0.714,0.245,1.194,0.438,1.439,0.576s0.438,0.362,0.576,0.672c0.139,0.309,0.208,0.603,0.208,0.88   c0,0.276-0.091,0.726-0.272,1.345c-0.182,0.617-0.373,0.928-0.575,0.928c-0.203,0-0.491-0.193-0.864-0.576   c-0.374-0.385-0.944-0.875-1.712-1.473c-0.769-0.598-1.366-1.008-1.792-1.231c-0.428-0.224-0.816-0.485-1.168-0.784   c-0.353-0.299-0.528-0.539-0.528-0.721C16.375,23.662,16.556,23.57,16.919,23.57z" stroke-width="1"/>
</g>
</svg>