<svg xmlns="http://www.w3.org/2000/svg" xmlns:xlink="http://www.w3.org/1999/xlink" version="1.1" id="图层_1" x="0px" y="0px" width="23.624000549316406" height="27.368000030517578" viewBox="2.9149999618530273 0.9909993410110474 23.624000549316406 27.368000030517578" enable-background="new 0 0 30 30" xml:space="preserve">
<g>
	<path fill="#0000FF" d="M6.391,15.635c0,0.107-0.011,0.213-0.032,0.32c-0.149,0.789-0.192,1.567-0.128,2.336   c0.021,0.17,0.032,0.352,0.032,0.543c0,0.192-0.112,0.289-0.336,0.289c-0.224,0-0.629-0.112-1.216-0.336   c-0.587-0.225-0.949-0.39-1.088-0.496c-0.139-0.107-0.208-0.234-0.208-0.385c0-0.362,0.357-0.912,1.072-1.648   c0.715-0.735,1.21-1.104,1.488-1.104C6.252,15.154,6.391,15.314,6.391,15.635z M17.847,11.347c0.854,0,1.877,0.155,3.072,0.464   c1.194,0.31,2.347,1.12,3.456,2.432s1.664,2.203,1.664,2.671c0,0.15-0.059,0.283-0.176,0.4c-0.118,0.117-0.598,0.208-1.44,0.271   c-0.843,0.064-1.584,0.097-2.224,0.097c-0.641,0-1.296-0.08-1.968-0.24c-0.673-0.159-1.062-0.239-1.168-0.239   c-0.278,0-0.438,0.08-0.48,0.239c-0.043,0.16-0.123,0.304-0.24,0.433c-0.117,0.127-0.491,0.314-1.12,0.56s-1.099,0.416-1.407,0.512   c-0.31,0.097-0.513,0.347-0.608,0.753c-0.096,0.404-0.144,0.959-0.144,1.663s0.063,1.408,0.191,2.112s0.192,1.365,0.192,1.984   c0,0.618-0.017,1.136-0.048,1.552c-0.032,0.415-0.075,0.661-0.129,0.735c-0.053,0.074-0.202,0.113-0.447,0.113   c-0.246,0-0.731-0.119-1.456-0.354c-0.726-0.234-1.504-0.623-2.336-1.168c-0.832-0.543-1.248-0.896-1.248-1.055   c0-0.16,0.219-0.22,0.656-0.177c0.437,0.042,0.896,0.063,1.376,0.063c0.479,0,0.826-0.085,1.04-0.256   c0.213-0.17,0.309-0.453,0.287-0.848s-0.031-0.752-0.031-1.072s0.021-0.682,0.063-1.088c0.043-0.404,0.064-0.848,0.064-1.328   c0-0.479-0.097-0.789-0.288-0.928c-0.192-0.139-0.576-0.208-1.152-0.208s-0.955,0.063-1.136,0.192   c-0.182,0.128-0.443,0.587-0.784,1.376c-0.342,0.789-0.571,1.424-0.688,1.903c-0.118,0.48-0.363,1.041-0.736,1.681   c-0.374,0.64-0.592,1.019-0.656,1.136c-0.063,0.117-0.144,0.176-0.24,0.176c-0.096,0-0.224-0.048-0.384-0.144   c-0.16-0.097-0.549-0.283-1.168-0.56c-0.128-0.043-0.192-0.123-0.192-0.24s0.32-0.608,0.96-1.473   c0.64-0.863,1.206-1.525,1.696-1.984c0.491-0.458,0.736-0.777,0.736-0.959s-0.08-0.507-0.24-0.977   c-0.16-0.469-0.314-0.826-0.464-1.072c-0.149-0.244-0.224-0.441-0.224-0.592c0-0.277,0.144-0.416,0.432-0.416   s0.992-0.096,2.112-0.287c1.12-0.192,1.76-0.331,1.92-0.416c0.16-0.086,0.24-0.219,0.24-0.4s-0.032-0.379-0.097-0.592   c-0.063-0.213-0.096-0.384-0.096-0.512c0-0.405,0.202-0.608,0.608-0.608l1.312,0.224c0.405,0.064,0.656,0.139,0.752,0.224   c0.096,0.085,0.149,0.256,0.16,0.512c0.011,0.256,0.101,0.384,0.271,0.384s0.518-0.032,1.04-0.097   c0.522-0.063,0.891-0.096,1.104-0.096c0.213,0,0.405,0.172,0.576,0.512c0.085,0.215,0.234,0.32,0.448,0.32   c0.447,0,1.188-0.213,2.224-0.64c1.034-0.427,1.552-0.907,1.552-1.44c0-0.192-0.149-0.464-0.448-0.816s-0.539-0.608-0.72-0.768   c-0.182-0.16-0.448-0.277-0.8-0.352c-0.353-0.075-0.806-0.112-1.36-0.112c-1.173,0-2.262,0.176-3.264,0.528   c-1.003,0.352-1.712,0.582-2.128,0.688c-0.416,0.107-0.806,0.16-1.168,0.16c-0.363,0-1.222,0.16-2.576,0.48   c-1.355,0.32-2.117,0.48-2.288,0.48c-0.405,0-0.608-0.224-0.608-0.672c0-0.277,0.203-0.453,0.608-0.528   c0.405-0.075,0.843-0.218,1.313-0.432c0.469-0.213,1.253-0.464,2.352-0.752s1.712-0.475,1.84-0.56   c0.128-0.085,0.267-0.32,0.416-0.704l0.416-1.184c0.149-0.405,0.225-0.699,0.225-0.88c0-0.181-0.155-0.325-0.465-0.432   c-0.31-0.106-0.555-0.16-0.735-0.16c-0.182,0-0.47,0.091-0.864,0.272c-0.395,0.182-0.592,0.411-0.592,0.688   c0,0.277,0.048,0.592,0.144,0.944c0.097,0.352,0.145,0.603,0.145,0.752s-0.128,0.277-0.385,0.384   c-0.256,0.107-0.447,0.16-0.575,0.16s-0.3-0.203-0.513-0.608c-0.341-0.64-0.613-0.96-0.815-0.96c-0.203,0-0.556,0.096-1.057,0.288   s-0.837,0.331-1.008,0.416c-0.171,0.085-0.341,0.128-0.512,0.128s-0.411-0.261-0.72-0.784c-0.31-0.522-0.464-0.869-0.464-1.04   c0-0.17,0.181-0.309,0.544-0.416C8.076,8.36,8.812,8.109,8.983,8.035c0.17-0.075,0.256-0.197,0.256-0.368   c0-0.17-0.048-0.458-0.145-0.864c-0.096-0.405-0.144-0.912-0.144-1.52c0-0.608,0.063-0.971,0.191-1.088   c0.128-0.117,0.299-0.176,0.513-0.176c0.213,0,0.64,0.144,1.279,0.432c0.641,0.288,0.96,0.533,0.96,0.736   c0,0.203-0.053,0.443-0.159,0.72c-0.107,0.277-0.16,0.581-0.16,0.912c0,0.331,0.048,0.523,0.144,0.576   c0.097,0.054,0.277,0.08,0.544,0.08s0.795-0.032,1.584-0.096s1.265-0.165,1.424-0.304c0.16-0.139,0.283-0.314,0.368-0.528   c0.085-0.213,0.299-0.89,0.641-2.032c0.341-1.141,0.554-1.931,0.64-2.368c0.085-0.437,0.245-0.656,0.48-0.656   c0.234,0,0.549,0.139,0.943,0.416s0.592,0.501,0.592,0.672c0,0.171-0.079,0.416-0.239,0.736s-0.342,0.875-0.544,1.664   c-0.203,0.79-0.305,1.286-0.305,1.488c0,0.203,0.102,0.304,0.305,0.304c0.202,0,0.586-0.075,1.151-0.224   c0.565-0.149,0.977-0.288,1.232-0.416s0.469-0.192,0.64-0.192s0.32,0.203,0.448,0.608c0.128,0.406,0.192,0.715,0.192,0.928   c0,0.704-0.368,1.056-1.104,1.056s-1.445,0.08-2.128,0.24s-1.12,0.31-1.313,0.448c-0.191,0.139-0.362,0.453-0.512,0.944   l-0.319,0.928c0,0.235,0.234,0.331,0.703,0.288C17.378,11.357,17.612,11.347,17.847,11.347z M18.071,20.498   c0.17,0,0.746,0.182,1.728,0.545s1.632,0.623,1.952,0.783s0.522,0.299,0.608,0.416c0.085,0.117,0.128,0.475,0.128,1.072   s-0.149,1.217-0.448,1.855c-0.299,0.641-0.555,0.961-0.769,0.961c-0.213,0-0.395-0.203-0.544-0.608   c-0.341-0.812-1.216-2.239-2.624-4.288c-0.149-0.234-0.224-0.416-0.224-0.544S17.943,20.498,18.071,20.498z" stroke-width="1"/>
</g>
</svg>