<svg xmlns="http://www.w3.org/2000/svg" xmlns:xlink="http://www.w3.org/1999/xlink" version="1.1" id="图层_1" x="0px" y="0px" width="27.46400260925293" height="27.11500358581543" viewBox="0.5129992961883545 0.9579999446868896 27.46400260925293 27.11500358581543" enable-background="new 0 0 30 30" xml:space="preserve">
<g>
	<path fill="#0000FF" d="M9.175,18.931c0,0.341,0.102,0.512,0.304,0.512c0.203,0,0.528-0.036,0.977-0.112   c0.448-0.074,0.874-0.176,1.28-0.304c0.404-0.128,1.104-0.31,2.096-0.544s1.541-0.395,1.647-0.48   c0.107-0.084,0.229-0.324,0.368-0.719s0.208-0.625,0.208-0.688c0-0.192-0.085-0.288-0.256-0.288s-0.587,0.086-1.248,0.256   c-0.661,0.171-1.066,0.293-1.216,0.368s-0.277,0.112-0.384,0.112c-0.384,0-0.576-0.353-0.576-1.057c0-0.148,0.032-0.282,0.096-0.4   c0.064-0.116,0.213-0.175,0.448-0.175h0.192c0.341,0,0.933-0.139,1.775-0.416s1.701-0.501,2.576-0.672   c0.384-0.064,0.741-0.427,1.072-1.088c0.33-0.661,0.496-1.114,0.496-1.36c0-0.245-0.171-0.368-0.513-0.368   c-0.171,0-0.373,0.15-0.607,0.448c-1.024,1.237-1.856,1.856-2.496,1.856c-0.128,0-0.245-0.037-0.352-0.112   c-0.107-0.075-0.16-0.171-0.16-0.288s0.106-0.421,0.319-0.912c0.213-0.491,0.47-1.013,0.769-1.568   c0.085-0.17,0.128-0.32,0.128-0.448s-0.064-0.192-0.192-0.192c-0.043,0-0.187,0.038-0.432,0.112   c-0.246,0.075-0.411,0.144-0.496,0.208c-0.405,0.256-0.736,0.384-0.992,0.384s-0.448-0.256-0.576-0.768   c-0.128-0.512-0.191-0.88-0.191-1.104s0.042-0.357,0.128-0.4c0.085-0.042,0.288-0.064,0.607-0.064c0.32,0,0.981-0.139,1.984-0.416   c3.883-1.088,5.957-1.632,6.224-1.632s0.4,0.15,0.4,0.448c0,0.96-0.224,1.494-0.672,1.6c-0.684,0.085-1.27,0.261-1.76,0.528   c-0.491,0.267-0.736,0.549-0.736,0.848c0,0.149,0.122,0.213,0.368,0.192c0.245-0.021,0.421-0.032,0.527-0.032   c1.174,0,1.761,0.214,1.761,0.64c0,0.149-0.128,0.336-0.385,0.56c-0.256,0.224-0.533,0.544-0.831,0.96   c-0.3,0.416-0.448,0.72-0.448,0.912s0.181,0.256,0.544,0.192c0.683-0.128,1.12-0.192,1.312-0.192c0.405,0,0.608,0.363,0.608,1.088   c0,0.448-0.166,0.693-0.496,0.736c-0.331,0.043-0.907,0.166-1.728,0.368c-0.822,0.204-1.36,0.363-1.616,0.48   c-0.256,0.118-0.416,0.294-0.48,0.528c-0.063,0.234-0.128,0.416-0.191,0.544c-0.064,0.128-0.097,0.224-0.097,0.288   c0,0.191,0.177,0.256,0.528,0.191c0.352-0.063,0.672-0.096,0.96-0.096s0.469-0.111,0.544-0.336c0.074-0.225,0.181-0.336,0.32-0.336   c0.139,0,0.309,0.048,0.512,0.145c0.202,0.096,0.325,0.165,0.368,0.207c0.277,0.214,0.555,0.353,0.832,0.416   c0.276,0.064,0.752,0.096,1.424,0.096s1.221-0.037,1.648-0.111c0.426-0.074,0.72-0.112,0.88-0.112s0.298,0.048,0.416,0.144   c0.116,0.097,0.25,0.416,0.399,0.961c0.149,0.544,0.251,0.906,0.305,1.088c0.053,0.182,0.079,0.336,0.079,0.464   c0,0.362-0.191,0.544-0.575,0.544c-0.192,0-0.428-0.053-0.704-0.16c-1.558-0.555-2.892-0.832-4-0.832   c-0.342,0-0.565,0.107-0.672,0.32c-0.428,0.811-0.886,1.493-1.376,2.048c-0.171,0.214-0.257,0.396-0.257,0.544   c0,0.149,0.283,0.348,0.849,0.592c0.564,0.246,1.072,0.422,1.52,0.528c0.448,0.106,0.736,0.229,0.864,0.368s0.181,0.4,0.16,0.783   v0.513l0.096,1.536c0,0.512-0.149,0.768-0.448,0.768c-0.171,0-0.362-0.096-0.575-0.287c-2.518-2.156-4.032-3.232-4.544-3.232   c-0.257,0-0.582,0.144-0.977,0.432s-0.603,0.544-0.624,0.768c-0.021,0.225-0.267,0.406-0.736,0.545   c-0.469,0.139-0.991,0.207-1.567,0.207s-1.2-0.133-1.872-0.399s-1.008-0.476-1.008-0.624c0-0.149,0.224-0.246,0.672-0.288   c1.301-0.128,2.356-0.39,3.168-0.784c0.811-0.395,1.216-0.65,1.216-0.768s-0.214-0.293-0.64-0.528   c-0.428-0.234-0.827-0.421-1.2-0.56c-0.374-0.139-0.561-0.325-0.561-0.561c0-0.084,0.129-0.309,0.385-0.672   c0.256-0.362,0.384-0.613,0.384-0.752s-0.139-0.208-0.416-0.208s-1.056,0.106-2.336,0.32s-2.021,0.368-2.225,0.464   c-0.202,0.096-0.304,0.262-0.304,0.496s0.017,1.083,0.048,2.544c0.032,1.461,0.069,2.325,0.112,2.592s0.064,0.507,0.064,0.72   s-0.097,0.32-0.288,0.32c-0.278,0-1.109-0.438-2.496-1.313c-1.387-0.875-2.08-1.439-2.08-1.695c0-0.086,0.064-0.128,0.192-0.128   s0.378,0.036,0.752,0.112c0.373,0.074,0.741,0.111,1.104,0.111c0.362,0,0.597-0.102,0.704-0.304c0.106-0.202,0.16-0.64,0.16-1.312   s0.01-1.275,0.031-1.809l0.032-1.792c0-0.171-0.048-0.256-0.144-0.256c-0.097,0-0.315,0.171-0.656,0.512   c-0.341,0.342-0.779,0.72-1.312,1.136s-1.019,0.87-1.456,1.36c-0.438,0.491-0.688,0.832-0.752,1.024   c-0.064,0.191-0.208,0.287-0.432,0.287c-0.224,0-0.571-0.266-1.04-0.799s-0.704-0.945-0.704-1.232c0-0.288,0.123-0.485,0.368-0.592   c0.245-0.107,0.805-0.549,1.68-1.328c0.875-0.779,2.25-1.84,4.128-3.184c0.191-0.15,0.324-0.294,0.399-0.433   c0.074-0.139,0.128-0.491,0.16-1.056c0.032-0.565,0.048-0.922,0.048-1.072c0-0.277-0.096-0.416-0.288-0.416   c-0.191,0-0.501,0.085-0.928,0.256c-0.427,0.171-0.768,0.368-1.024,0.592c-0.256,0.224-0.48,0.336-0.672,0.336   c-0.363,0-0.709-0.416-1.04-1.248c-0.331-0.832-0.496-1.344-0.496-1.536s0.053-0.314,0.16-0.368c0.106-0.053,0.336-0.08,0.688-0.08   c0.352,0,0.89-0.074,1.616-0.224c0.725-0.149,1.221-0.272,1.488-0.368s0.433-0.208,0.496-0.336c0.064-0.128,0.117-0.544,0.16-1.248   s0.139-1.845,0.288-3.424c0.148-1.579,0.245-2.48,0.288-2.704c0.042-0.224,0.122-0.389,0.24-0.496   c0.116-0.106,0.298-0.16,0.544-0.16c0.245,0,0.532,0.054,0.863,0.16c0.331,0.107,0.496,0.272,0.496,0.496s-0.053,0.405-0.16,0.544   c-0.106,0.139-0.239,0.432-0.399,0.88c-0.16,0.448-0.272,1.515-0.336,3.2L9.687,9.075c0,0.341,0.129,0.512,0.385,0.512   c0.063,0,0.139-0.01,0.224-0.032c0.661-0.256,1.099-0.384,1.313-0.384c0.213,0,0.384,0.192,0.512,0.576   c0.128,0.384,0.191,0.635,0.191,0.752c0,0.118-0.026,0.219-0.079,0.304c-0.054,0.085-0.32,0.283-0.801,0.592   c-0.479,0.31-0.896,0.565-1.248,0.768c-0.352,0.203-0.57,0.379-0.655,0.528c-0.086,0.149-0.14,0.406-0.16,0.768l-0.032,0.608   c0,0.235,0.064,0.352,0.192,0.352c0.063,0,0.367-0.176,0.912-0.528c0.544-0.352,0.89-0.528,1.039-0.528s0.225,0.096,0.225,0.288   c0,0.128-0.038,0.262-0.112,0.4c-0.075,0.139-0.331,0.475-0.768,1.008c-0.438,0.533-0.821,0.965-1.152,1.296   s-0.496,0.773-0.496,1.328V18.931z M17.591,21.715c0.32,0,0.698-0.314,1.136-0.944c0.438-0.629,0.656-1.013,0.656-1.151   s-0.191-0.209-0.576-0.209c-1.066,0-1.771,0.15-2.111,0.448c-0.342,0.3-0.513,0.576-0.513,0.832s0.165,0.454,0.496,0.593   s0.544,0.244,0.641,0.319C17.415,21.678,17.506,21.715,17.591,21.715z M18.167,1.458c0.171,0,0.299,0.192,0.384,0.576   c0.106,0.619,0.459,1.397,1.057,2.336c0.234,0.363,0.352,0.683,0.352,0.96c0,0.469-0.405,0.704-1.216,0.704   c-0.342,0-0.72-0.117-1.136-0.352c-0.416-0.234-0.684-0.432-0.801-0.592c-0.117-0.16-0.176-0.405-0.176-0.736   c0-0.331,0.074-0.741,0.225-1.232c0.148-0.491,0.362-0.891,0.64-1.2C17.772,1.613,17.996,1.458,18.167,1.458z" stroke-width="1"/>
</g>
</svg>