<svg xmlns="http://www.w3.org/2000/svg" xmlns:xlink="http://www.w3.org/1999/xlink" version="1.1" id="图层_1" x="0px" y="0px" width="27.176000595092773" height="24.58300018310547" viewBox="0.8669998645782471 3.1349997520446777 27.176000595092773 24.58300018310547" enable-background="new 0 0 30 30" xml:space="preserve">
<g>
	<path fill="#0000FF" d="M20.183,10.354c0.149,0,0.305,0.118,0.465,0.352c0.159,0.235,0.432,0.518,0.815,0.848   c0.384,0.331,0.576,0.731,0.576,1.2c0,0.278-0.069,0.491-0.208,0.64c-0.139,0.149-0.331,0.192-0.576,0.128   s-0.848-0.096-1.808-0.096s-2.054,0.117-3.28,0.352c-1.227,0.235-2.016,0.432-2.368,0.592c-0.352,0.16-0.613,0.39-0.784,0.688   c-0.917,1.729-2.304,3.445-4.159,5.152c-0.513,0.469-0.881,0.858-1.104,1.168c-0.224,0.309-0.352,0.549-0.384,0.72   s-0.048,0.464-0.048,0.88S6.748,23.8,5.607,24.194c-1.142,0.395-2.133,0.593-2.976,0.593s-1.264-0.07-1.264-0.209   s0.09-0.299,0.272-0.479c0.181-0.181,0.8-0.544,1.856-1.088c1.056-0.544,2.112-1.328,3.168-2.353   c1.056-1.023,1.979-2.127,2.768-3.312s1.185-1.92,1.185-2.208s-0.118-0.432-0.353-0.432c-0.49,0-1.222,0.107-2.191,0.32   c-0.971,0.214-1.904,0.491-2.8,0.832c-0.107,0.043-0.224,0.063-0.352,0.063s-0.272-0.207-0.432-0.624   c-0.16-0.416-0.24-0.73-0.24-0.944c0-0.213,0.149-0.331,0.448-0.352c0.597-0.042,1.739-0.261,3.424-0.656   c1.685-0.395,2.692-0.683,3.023-0.864c0.331-0.181,0.561-0.576,0.688-1.184c0.128-0.608,0.192-1.098,0.192-1.472   c0-0.373-0.049-0.656-0.145-0.848s-0.208-0.314-0.336-0.368c-0.128-0.053-0.416-0.08-0.864-0.08c-0.447,0-1.099,0.16-1.952,0.48   C8.642,9.054,8.546,9.075,8.439,9.075c-0.107,0-0.177-0.165-0.208-0.496C8.199,8.248,8.108,7.896,7.959,7.522   C7.81,7.149,7.735,6.856,7.735,6.643c0-0.491,0.213-0.768,0.64-0.832c1.578-0.192,2.923-0.416,4.032-0.672   c1.108-0.256,2.276-0.571,3.504-0.944c1.227-0.373,1.872-0.56,1.936-0.56c0.448,0,0.864,0.294,1.248,0.88   c0.384,0.587,0.576,1.157,0.576,1.712c0,0.192-0.032,0.304-0.096,0.336c-0.064,0.032-0.277,0.048-0.641,0.048   c-0.469,0-1.013,0.075-1.632,0.224c-0.619,0.149-1.003,0.283-1.151,0.4c-0.149,0.118-0.368,0.406-0.656,0.864   c-0.288,0.459-0.528,0.971-0.72,1.536c-0.192,0.566-0.288,1.03-0.288,1.392c0,0.363,0.16,0.512,0.479,0.448   c0.769-0.17,1.632-0.336,2.592-0.496s1.616-0.304,1.969-0.432C19.879,10.418,20.098,10.354,20.183,10.354z M25.687,18.738   c0.086,0,0.229,0.23,0.433,0.688c0.202,0.459,0.41,1.179,0.624,2.159c0.213,0.982,0.336,1.771,0.368,2.369   c0.031,0.597,0.111,1.119,0.239,1.567s0.192,0.747,0.192,0.896c0,0.149-0.149,0.246-0.448,0.289l-2.368,0.287   c-1.301,0.148-2.997,0.225-5.088,0.225h-2.368c-1.557-1.131-2.479-2.027-2.768-2.688c-0.288-0.662-0.432-1.42-0.432-2.273   c0-0.34,0.063-1.066,0.191-2.176c0.128-1.108,0.192-1.93,0.192-2.463s-0.043-0.924-0.128-1.168c-0.086-0.246-0.128-0.4-0.128-0.465   c0-0.213,0.282-0.32,0.848-0.32s0.949,0.021,1.152,0.064c0.202,0.043,0.304,0.134,0.304,0.271c0,0.14-0.063,0.385-0.192,0.736   c-0.128,0.352-0.309,1.12-0.544,2.305c-0.234,1.184-0.352,2.127-0.352,2.832c0,0.703,0.144,1.285,0.432,1.744   s0.849,0.815,1.681,1.071s1.632,0.384,2.399,0.384c0.769,0,1.584-0.074,2.448-0.224s1.435-0.319,1.712-0.513   c0.277-0.191,0.496-0.469,0.656-0.832c0.16-0.361,0.298-0.853,0.416-1.471c0.117-0.619,0.219-1.323,0.304-2.113   C25.548,19.133,25.623,18.738,25.687,18.738z" stroke-width="1"/>
</g>
</svg>