<svg xmlns="http://www.w3.org/2000/svg" xmlns:xlink="http://www.w3.org/1999/xlink" version="1.1" id="图层_1" x="0px" y="0px" width="26.152000427246094" height="26.3439998626709" viewBox="0.5149985551834106 1.086999773979187 26.152000427246094 26.3439998626709" enable-background="new 0 0 30 30" xml:space="preserve">
<g>
	<path fill="#0000FF" d="M24.759,10.771c0,0.128-0.032,0.256-0.096,0.384c-0.299,0.512-0.726,1.43-1.28,2.752   s-0.981,2.267-1.28,2.832c-0.299,0.566-0.522,0.912-0.672,1.04s-0.319,0.192-0.512,0.192s-0.363-0.032-0.512-0.096   c-0.662-0.277-1.27-0.416-1.824-0.416c-0.107,0-0.208,0.053-0.304,0.16c-0.097,0.106-0.171,0.635-0.225,1.584   c-0.053,0.949-0.08,1.866-0.08,2.752c0,0.885,0.049,1.723,0.145,2.512s0.144,1.29,0.144,1.504c0,0.64-0.154,0.96-0.464,0.96   s-0.864-0.144-1.664-0.433c-0.8-0.287-1.515-0.666-2.144-1.136c-0.63-0.47-1.094-0.831-1.393-1.088   c-0.299-0.256-0.618-0.65-0.96-1.185c-0.063-0.105-0.117-0.159-0.16-0.159c-0.128,0-0.415,0.64-0.863,1.92   c-0.107,0.341-0.268,0.512-0.48,0.512c-0.149,0-0.646-0.229-1.487-0.688c-0.844-0.459-1.265-0.836-1.265-1.135   c0-0.32,0.203-0.555,0.608-0.705c0.404-0.148,0.778-0.404,1.12-0.768c0.704-0.746,1.461-1.456,2.271-2.128s1.313-1.008,1.504-1.008   c0.192,0,0.288,0.159,0.288,0.479c0,0.235-0.123,0.539-0.368,0.912s-0.501,0.811-0.768,1.313s-0.4,0.805-0.4,0.912   c0,0.213,0.39,0.469,1.168,0.768c0.779,0.299,1.425,0.448,1.937,0.448c0.618,0,0.986-0.325,1.104-0.976s0.177-1.436,0.177-2.353   s-0.129-1.499-0.385-1.744s-0.442-0.368-0.56-0.368s-0.256,0.032-0.416,0.096c-0.16,0.064-0.272,0.097-0.336,0.097   c-0.235,0-0.411-0.134-0.528-0.399c-0.117-0.268-0.342-0.523-0.672-0.769c-0.331-0.245-0.795-0.821-1.392-1.728   c-0.598-0.907-1.02-1.648-1.265-2.225s-0.453-0.864-0.624-0.864c-0.063,0-0.128,0.064-0.191,0.192   c-0.598,1.493-1.483,3.179-2.656,5.056c-0.341,0.556-0.512,0.992-0.512,1.312l0.128,0.929c0,0.491-0.662,1.2-1.984,2.128   s-2.357,1.393-3.104,1.393c-0.341,0-0.512-0.086-0.512-0.256c0-0.172,0.149-0.385,0.448-0.641c2.005-1.707,3.589-3.787,4.752-6.24   c1.163-2.453,2.053-5.568,2.672-9.344C8.93,6.546,9.095,6.291,9.383,6.291s0.677,0.123,1.168,0.368   c0.49,0.245,0.736,0.549,0.736,0.912c0,0.15-0.043,0.278-0.128,0.384c-0.256,0.384-0.438,1.014-0.544,1.888   c-0.064,0.406-0.128,0.704-0.192,0.896c-0.063,0.192-0.096,0.331-0.096,0.416c0,0.086,0.148,0.128,0.448,0.128   c0.298,0,0.703-0.117,1.216-0.352c0.512-0.235,0.864-0.373,1.056-0.416c0.192-0.042,0.331-0.16,0.416-0.352   c0.32-0.96,0.677-1.797,1.072-2.512c0.395-0.714,0.592-1.242,0.592-1.584c0-0.106-0.043-0.16-0.128-0.16   c-0.086,0-0.384,0.053-0.896,0.16c-0.512,0.107-0.901,0.229-1.168,0.368c-0.267,0.139-0.453,0.208-0.56,0.208   c-0.405,0-0.784-0.4-1.136-1.2c-0.353-0.8-0.528-1.306-0.528-1.52c0-0.213,0.069-0.346,0.208-0.4c0.139-0.053,0.485-0.08,1.04-0.08   s1.717-0.197,3.488-0.592c1.771-0.395,3.242-0.773,4.416-1.136c0.256-0.085,0.496-0.128,0.72-0.128s0.41,0.128,0.56,0.384   c0.149,0.256,0.347,0.539,0.593,0.848c0.245,0.31,0.367,0.582,0.367,0.816c0,0.363-0.213,0.587-0.64,0.672   c-1.6,0.277-2.581,0.491-2.944,0.64c-0.362,0.15-0.667,0.256-0.911,0.32c-0.246,0.064-0.368,0.123-0.368,0.176   c0,0.054,0.053,0.112,0.16,0.176c0.682,0.405,1.023,0.747,1.023,1.024c0,0.149-0.176,0.379-0.528,0.688   c-0.352,0.31-0.688,0.715-1.008,1.216c-0.319,0.501-0.479,0.806-0.479,0.912c0,0.107,0.106,0.139,0.319,0.096   c1.877-0.363,3.205-0.544,3.984-0.544c0.778,0,1.568,0.171,2.368,0.512c0.8,0.342,1.28,0.582,1.439,0.72   C24.679,10.381,24.759,10.558,24.759,10.771z M14.583,16.467c0.106,0,0.202-0.011,0.288-0.032c1.855-0.491,3.317-0.789,4.384-0.896   c0.299-0.021,0.507-0.112,0.624-0.272s0.272-0.645,0.464-1.456c0.192-0.811,0.288-1.371,0.288-1.68   c0-0.309-0.043-0.554-0.128-0.736c-0.085-0.181-0.32-0.336-0.704-0.464s-0.779-0.192-1.184-0.192c-0.405,0-0.929,0.086-1.568,0.256   c-0.64,0.171-1.387,0.491-2.24,0.96s-1.322,0.8-1.407,0.992c-0.086,0.192-0.102,0.406-0.049,0.64   c0.054,0.235,0.08,0.693,0.08,1.376c0,0.235,0.106,0.543,0.32,0.928C13.964,16.274,14.241,16.467,14.583,16.467z M18.871,12.179   c0.256,0,0.384,0.171,0.384,0.512c0,0.342-0.037,0.587-0.112,0.736c-0.074,0.149-0.459,0.389-1.151,0.72   c-0.693,0.331-1.302,0.544-1.824,0.64c-0.523,0.096-0.912,0.144-1.168,0.144s-0.475-0.091-0.656-0.272s-0.271-0.411-0.271-0.688   s0.117-0.458,0.352-0.544c0.683-0.192,1.248-0.389,1.696-0.592c0.448-0.203,0.96-0.362,1.536-0.48   C18.231,12.237,18.636,12.179,18.871,12.179z M26.135,23.699l0.032,0.768c0,0.234-0.149,0.352-0.448,0.352   c-0.085,0-0.277-0.086-0.576-0.256l-1.535-0.928c-0.747-0.427-1.393-0.821-1.937-1.184c-0.544-0.363-0.971-0.673-1.28-0.929   s-0.49-0.442-0.544-0.56c-0.053-0.117-0.08-0.229-0.08-0.336c0-0.277,0.097-0.416,0.288-0.416c0.854,0,1.69,0.047,2.513,0.144   c0.82,0.097,1.514,0.214,2.08,0.353c0.564,0.139,0.896,0.25,0.991,0.336c0.097,0.085,0.182,0.277,0.256,0.576   c0.075,0.299,0.134,0.575,0.177,0.832C26.113,22.707,26.135,23.123,26.135,23.699z" stroke-width="1"/>
</g>
</svg>