<svg xmlns="http://www.w3.org/2000/svg" xmlns:xlink="http://www.w3.org/1999/xlink" version="1.1" id="图层_1" x="0px" y="0px" width="21.862001419067383" height="30.79400062561035" viewBox="3.3329989910125732 -0.5780004262924194 21.862001419067383 30.79400062561035" enable-background="new 0 0 30 30" xml:space="preserve">
<g>
	<path fill="#0000FF" d="M23.383,5.427c0.341,0,0.646,0.373,0.912,1.12c0.267,0.747,0.4,1.243,0.4,1.488s-0.107,0.368-0.32,0.368   c-0.214,0-0.459-0.053-0.736-0.16c-0.96-0.32-2.133-0.48-3.52-0.48c-0.662,0-1.109,0.037-1.344,0.112   C18.54,7.95,18.343,8.12,18.183,8.387c-0.159,0.267-0.384,0.592-0.672,0.976c-0.288,0.384-0.47,0.736-0.544,1.056   c-0.075,0.32-0.544,0.48-1.408,0.48c-0.863,0-1.296-0.106-1.296-0.32c0-0.085,0.112-0.224,0.336-0.416   c0.225-0.192,0.421-0.432,0.593-0.72c0.17-0.288,0.256-0.49,0.256-0.608c0-0.117-0.038-0.208-0.112-0.272   c-0.075-0.064-0.165-0.085-0.271-0.064c-0.854,0.235-1.446,0.374-1.776,0.416c-0.331,0.043-0.539,0.107-0.624,0.192   c-0.086,0.085-0.128,0.203-0.128,0.352l0.032,0.448c0,0.704-0.331,1.056-0.992,1.056c-0.256,0-0.491-0.202-0.704-0.608   c-0.384-0.704-0.704-1.056-0.96-1.056c-0.107,0-0.347,0.118-0.72,0.352c-0.374,0.235-0.801,0.427-1.28,0.576   c-0.48,0.149-0.966,0.405-1.456,0.768c-0.256,0.192-0.47,0.288-0.64,0.288c-0.171,0-0.544-0.341-1.12-1.024   c-0.576-0.682-0.864-1.12-0.864-1.312c0-0.192,0.197-0.314,0.592-0.368c0.395-0.053,0.869-0.155,1.424-0.304l3.2-0.8   c0.106-0.021,0.16-0.106,0.16-0.256S9.186,6.941,9.143,6.834c-0.256-0.725-0.459-1.499-0.607-2.32   C8.386,3.693,8.311,3.219,8.311,3.09c0-0.277,0.177-0.416,0.528-0.416c0.353,0,0.832,0.07,1.44,0.208   c0.607,0.139,1.019,0.256,1.231,0.352c0.213,0.096,0.32,0.293,0.32,0.592c0,0.107-0.011,0.251-0.032,0.432   c-0.021,0.182-0.032,0.395-0.032,0.64c0,0.246,0.021,0.582,0.064,1.008c0.042,0.427,0.096,0.677,0.16,0.752   c0.063,0.075,0.148,0.112,0.256,0.112c0.106,0,0.528-0.075,1.264-0.224c0.736-0.149,1.584-0.277,2.544-0.384   c0.149-0.021,0.272-0.096,0.368-0.224s0.31-0.714,0.641-1.76c0.33-1.045,0.549-1.781,0.655-2.208s0.182-0.875,0.225-1.344   c0.042-0.469,0.229-0.704,0.56-0.704c0.33,0,0.854,0.149,1.568,0.448c0.714,0.299,1.071,0.555,1.071,0.768   c0,0.085-0.074,0.16-0.224,0.224c-0.214,0.086-0.512,0.683-0.896,1.792c-0.385,1.11-0.576,1.83-0.576,2.16   c0,0.331,0.139,0.485,0.416,0.464c0.276-0.021,0.692-0.032,1.248-0.032c0.554,0,1.173-0.085,1.855-0.256   C23.159,5.448,23.298,5.427,23.383,5.427z M22.071,13.395c0,0.213-0.128,0.448-0.385,0.704c-0.384,0.405-0.629,0.998-0.735,1.776   c-0.107,0.778-0.277,1.578-0.512,2.399c-0.235,0.821-0.443,1.408-0.624,1.761c-0.182,0.352-0.305,0.715-0.368,1.088   c-0.064,0.373-0.188,0.56-0.368,0.56c-0.182,0-0.667-0.165-1.456-0.496c-0.79-0.331-1.803-0.869-3.04-1.616   c-0.192-0.128-0.347-0.191-0.464-0.191s-0.203,0.059-0.256,0.176c-0.054,0.117-0.112,0.485-0.177,1.104l-0.191,2.272   c-0.086,0.875-0.128,1.664-0.128,2.368c0,0.703,0.021,1.396,0.063,2.08l0.128,1.631c0,0.256-0.074,0.438-0.224,0.545   c-0.149,0.105-0.4,0.16-0.752,0.16s-0.581-0.043-0.688-0.129c-0.106-0.084-0.139-0.299-0.096-0.639   c0.106-1.152,0.16-2.017,0.16-2.593s-0.011-1.014-0.032-1.312c-0.256-3.222-0.352-5.237-0.288-6.049   c0.021-0.234,0.032-0.447,0.032-0.64c0-0.513-0.128-1.173-0.384-1.983s-0.476-1.217-0.656-1.217c-0.182,0-0.464,0.123-0.848,0.368   s-0.79,0.448-1.216,0.608c-0.428,0.16-0.684,0.24-0.769,0.24c-0.256,0-0.533-0.251-0.832-0.752   c-0.299-0.501-0.448-0.822-0.448-0.96s0.16-0.277,0.48-0.416c0.32-0.139,0.938-0.363,1.856-0.672   c0.917-0.309,1.765-0.538,2.544-0.688c0.778-0.149,1.61-0.395,2.495-0.736c0.886-0.341,1.713-0.512,2.48-0.512   s1.477,0.07,2.128,0.208c0.65,0.139,1.333,0.347,2.048,0.624c0.715,0.278,1.146,0.464,1.296,0.56   C21.996,13.123,22.071,13.246,22.071,13.395z M18.327,14.674c0-0.576-0.182-0.944-0.544-1.104c-0.363-0.16-0.688-0.24-0.977-0.24   s-0.726,0.053-1.312,0.16c-0.587,0.107-0.923,0.192-1.008,0.256c-0.086,0.064-0.182,0.256-0.288,0.576   c-0.107,0.32-0.208,0.789-0.305,1.408c-0.096,0.619-0.144,1.088-0.144,1.408s0.069,0.561,0.208,0.72   c0.139,0.16,0.459,0.283,0.96,0.368c0.501,0.086,0.912,0.128,1.232,0.128c0.319,0,0.586-0.026,0.8-0.08   c0.213-0.053,0.378-0.122,0.496-0.208c0.117-0.085,0.25-0.346,0.399-0.783s0.267-0.869,0.353-1.297   C18.284,15.561,18.327,15.123,18.327,14.674z" stroke-width="1"/>
</g>
</svg>