<svg xmlns="http://www.w3.org/2000/svg" xmlns:xlink="http://www.w3.org/1999/xlink" version="1.1" id="图层_1" x="0px" y="0px" width="29.57900047302246" height="29.128999710083008" viewBox="0.5470000505447388 -0.3859987109899521 29.57900047302246 29.128999710083008" enable-background="new 0 0 30 30" xml:space="preserve">
<g>
	<path fill="#0000FF" d="M3.927,22.771c-0.192,0.128-0.619,0.192-1.28,0.192c-1.067,0-1.6-0.107-1.6-0.32   c0-0.106,0.181-0.299,0.544-0.576c1.387-0.96,2.357-1.658,2.912-2.096c0.555-0.438,1.141-0.986,1.76-1.648l1.76-1.92   c0.575-0.618,0.922-1.034,1.04-1.248c0.116-0.213,0.176-0.362,0.176-0.448c0-0.085-0.086-0.128-0.256-0.128   c-0.172,0-0.459,0.053-0.864,0.16c-0.576,0.171-1.072,0.256-1.488,0.256s-0.715,0.048-0.896,0.144   c-0.181,0.096-0.347,0.144-0.496,0.144s-0.272-0.091-0.368-0.272c-0.096-0.181-0.144-0.357-0.144-0.528   c0-0.17,0.096-0.298,0.288-0.384c0.192-0.085,0.464-0.16,0.816-0.224s1.13-0.224,2.336-0.48c1.205-0.256,1.888-0.453,2.048-0.592   s0.282-0.347,0.368-0.624c0.085-0.277,0.128-0.485,0.128-0.624s-0.085-0.208-0.256-0.208c-0.384,0-0.736,0.069-1.056,0.208   c-0.32,0.139-0.571,0.208-0.752,0.208c-0.182,0-0.326-0.139-0.433-0.416s-0.16-0.507-0.16-0.688s0.134-0.277,0.4-0.288   s0.538-0.069,0.815-0.176c0.277-0.106,0.667-0.229,1.169-0.368c0.501-0.139,0.8-0.25,0.896-0.336   c0.096-0.085,0.187-0.261,0.272-0.528c0.085-0.267,0.128-0.48,0.128-0.64c0-0.16-0.102-0.224-0.305-0.192   c-0.203,0.032-0.464,0.059-0.783,0.08C9.644,8.274,9.01,8.371,8.743,8.499C8.476,8.626,8.258,8.69,8.087,8.69   s-0.314-0.16-0.432-0.48c-0.118-0.32-0.177-0.57-0.177-0.752c0-0.181,0.16-0.272,0.48-0.272c0.384,0,0.811-0.085,1.28-0.256   c0.98-0.384,1.723-0.64,2.224-0.768s0.811-0.293,0.928-0.496c0.117-0.203,0.421-1.808,0.912-4.816   c0.043-0.32,0.102-0.522,0.176-0.608c0.075-0.085,0.187-0.128,0.337-0.128c0.148,0,0.442,0.048,0.88,0.144   c0.437,0.096,0.655,0.214,0.655,0.352c0,0.139-0.063,0.293-0.191,0.464s-0.235,0.491-0.32,0.96s-0.139,0.949-0.16,1.44   l-0.128,1.504c0,0.235,0.064,0.352,0.192,0.352s0.245-0.011,0.352-0.032c0.47-0.085,1.259-0.17,2.368-0.256   c0.299-0.021,0.64-0.085,1.024-0.192c0.384-0.106,0.746-0.16,1.088-0.16c0.768,0,1.151,0.384,1.151,1.152   c0,0.214-0.059,0.358-0.176,0.432c-0.117,0.075-0.507,0.149-1.168,0.224c-0.661,0.075-1.605,0.229-2.832,0.464   c-1.227,0.235-1.925,0.395-2.096,0.48c-0.171,0.085-0.32,0.256-0.448,0.512s-0.191,0.512-0.191,0.768   c0,0.256,0.138,0.352,0.416,0.288c0.768-0.213,1.37-0.384,1.808-0.512c0.437-0.128,0.965-0.229,1.584-0.304   c0.618-0.074,1.034-0.112,1.248-0.112c0.213,0,0.373,0.118,0.479,0.352c0.106,0.235,0.16,0.48,0.16,0.736   c0,0.256-0.063,0.427-0.191,0.512c-0.128,0.085-0.47,0.197-1.024,0.336c-0.555,0.139-1.077,0.224-1.568,0.256   c-0.49,0.032-1.109,0.118-1.855,0.256c-0.747,0.139-1.211,0.267-1.393,0.384c-0.181,0.118-0.314,0.293-0.399,0.528   c-0.086,0.235-0.128,0.422-0.128,0.56c0,0.139,0.053,0.208,0.16,0.208c0.106,0,0.213-0.01,0.319-0.032   c2.112-0.469,3.867-0.757,5.265-0.864c1.396-0.106,2.138-0.17,2.224-0.192c0.085-0.021,0.16-0.032,0.224-0.032   c0.257,0,0.48,0.251,0.673,0.752c0.191,0.502,0.287,0.864,0.287,1.088c0,0.224-0.085,0.336-0.256,0.336s-0.416-0.037-0.735-0.112   c-0.32-0.074-0.892-0.112-1.712-0.112c-0.822,0-1.393,0.027-1.713,0.08c-0.319,0.053-0.479,0.16-0.479,0.32   c0,0.16,0.192,0.491,0.576,0.992c0.384,0.501,1.082,1.163,2.096,1.983c1.013,0.822,1.866,1.398,2.561,1.729   c0.692,0.331,1.6,0.684,2.72,1.057s2.144,0.783,3.072,1.231c0.928,0.448,1.392,0.812,1.392,1.088c0,0.363-0.582,0.544-1.744,0.544   c-1.163,0-2.299-0.043-3.408-0.128s-1.808-0.196-2.096-0.336c-0.288-0.139-0.453-0.368-0.496-0.688   c-0.085-0.597-0.357-1.162-0.815-1.695c-0.46-0.533-1.104-1.115-1.937-1.744s-1.462-1.173-1.888-1.633   c-0.428-0.458-1.014-0.89-1.761-1.295c-0.746-0.405-1.365-0.608-1.855-0.608c-0.939,0-1.696,0.32-2.272,0.96l-0.768,0.704   c-0.256,0.256-0.48,0.556-0.672,0.896c-0.512,0.875-1.397,1.696-2.656,2.465c-0.747,0.469-1.259,1.237-1.536,2.304   c-0.128,0.47-0.283,0.795-0.464,0.976c-0.181,0.182-0.395,0.299-0.64,0.353C4.37,22.648,4.14,22.707,3.927,22.771z M9.335,23.09   c0.106,0,0.16,0.24,0.16,0.721s-0.117,0.896-0.353,1.248c-0.234,0.352-0.384,0.88-0.447,1.584c-0.043,0.404-0.203,0.607-0.48,0.607   s-0.747-0.154-1.408-0.463c-0.662-0.311-0.992-0.566-0.992-0.769c0-0.203,0.261-0.544,0.784-1.024   c0.522-0.479,0.955-0.815,1.295-1.008c0.342-0.191,0.646-0.389,0.912-0.592S9.249,23.09,9.335,23.09z M18.199,18.738   c0.276,0,0.555,0.252,0.832,0.752c0.276,0.502,0.416,0.864,0.416,1.088c0,0.225-0.048,0.374-0.145,0.448   c-0.096,0.075-0.271,0.112-0.527,0.112l-1.568-0.064c-1.302,0-2.091,0.102-2.368,0.305s-0.416,0.869-0.416,2   c0,0.64,0.021,1.312,0.064,2.016l0.063,1.695c0,0.363-0.059,0.646-0.176,0.85c-0.117,0.201-0.24,0.303-0.368,0.303   s-0.229-0.037-0.304-0.111c-0.075-0.076-0.24-0.135-0.496-0.176c-0.64-0.129-1.339-0.465-2.096-1.009   c-0.758-0.544-1.137-0.875-1.137-0.991c0-0.118,0.054-0.177,0.16-0.177s0.305,0.048,0.592,0.144   c0.288,0.097,0.581,0.145,0.881,0.145c0.703,0,1.056-0.523,1.056-1.568c0-1.535-0.048-2.373-0.145-2.512   c-0.096-0.139-0.336-0.208-0.72-0.208s-0.917,0.086-1.6,0.257c-0.684,0.17-1.216,0.256-1.601,0.256   c-0.384,0-0.757,0.106-1.12,0.319c-0.106,0.063-0.224,0.097-0.352,0.097s-0.246-0.133-0.352-0.4c-0.107-0.267-0.16-0.48-0.16-0.641   s0.058-0.271,0.176-0.336c0.117-0.063,0.331-0.105,0.64-0.127c0.31-0.021,0.795-0.123,1.456-0.305s1.365-0.395,2.112-0.641   c0.746-0.244,1.162-0.399,1.248-0.463c0.085-0.064,0.128-0.154,0.128-0.272c0-0.116-0.037-0.293-0.112-0.528   c-0.074-0.234-0.197-0.352-0.368-0.352s-0.379,0.021-0.624,0.064s-0.49,0.063-0.735,0.063c-0.246,0-0.464-0.202-0.656-0.608   c-0.192-0.404-0.288-0.698-0.288-0.879c0-0.182,0.053-0.299,0.16-0.353c0.106-0.054,0.208-0.075,0.304-0.063   c0.097,0.01,0.192,0.016,0.288,0.016c0.097,0,0.208-0.021,0.336-0.064c0.619-0.191,1.51-0.432,2.672-0.72   c1.163-0.288,1.904-0.433,2.225-0.433c0.64,0,0.96,0.289,0.96,0.865c0,0.575-0.24,0.949-0.72,1.119   c-0.48,0.171-0.79,0.331-0.929,0.48c-0.139,0.148-0.208,0.373-0.208,0.672s0.123,0.447,0.368,0.447s0.635-0.031,1.168-0.096   s0.965-0.148,1.296-0.256C17.842,18.792,18.071,18.738,18.199,18.738z M20.695,24.946c0,0.299-0.075,0.593-0.225,0.88   c-0.149,0.289-0.251,0.528-0.304,0.721c-0.054,0.191-0.165,0.287-0.336,0.287c-0.363,0-1.035-0.522-2.016-1.567   c-0.982-1.046-1.473-1.718-1.473-2.017c0-0.148,0.139-0.244,0.416-0.287s0.693-0.064,1.248-0.064s1.142,0.197,1.76,0.592   C20.386,23.886,20.695,24.371,20.695,24.946z" stroke-width="1"/>
</g>
</svg>