<svg xmlns="http://www.w3.org/2000/svg" xmlns:xlink="http://www.w3.org/1999/xlink" version="1.1" id="图层_1" x="0px" y="0px" width="24.072998046875" height="25.928001403808594" viewBox="2.2420029640197754 1.7590000629425049 24.072998046875 25.928001403808594" enable-background="new 0 0 30 30" xml:space="preserve">
<g>
	<path fill="#0000FF" d="M23.735,6.674c0.597,0,1.093,0.422,1.487,1.264c0.395,0.843,0.593,1.387,0.593,1.632   c0,0.246-0.16,0.368-0.48,0.368s-0.917-0.154-1.792-0.464c-0.875-0.309-2.24-0.464-4.096-0.464c-0.726,0-1.456,0.027-2.192,0.08   c-0.736,0.054-1.136,0.102-1.2,0.144c-0.063,0.043-0.123,0.112-0.176,0.208c-0.054,0.096-0.08,0.315-0.08,0.656   s0.16,0.512,0.48,0.512l1.151-0.032c1.066,0,2.187,0.123,3.36,0.368c1.173,0.246,1.76,0.528,1.76,0.848   c0,0.085-0.054,0.166-0.16,0.24s-0.288,0.496-0.544,1.264c-0.362,1.174-0.735,2.272-1.12,3.296   c-0.384,1.024-0.688,1.733-0.911,2.128c-0.225,0.395-0.438,0.592-0.641,0.592s-0.432-0.053-0.688-0.16   c-0.256-0.106-0.636-0.186-1.137-0.24c-0.501-0.053-0.891-0.08-1.168-0.08s-0.405,0.097-0.384,0.289   c0.021,0.191,0.032,0.442,0.032,0.752c0,0.309,0.122,0.453,0.368,0.432c0.245-0.021,0.533-0.032,0.864-0.032   c0.33,0,0.82,0.032,1.472,0.097c0.65,0.063,1.072,0.16,1.264,0.287c0.192,0.129,0.288,0.348,0.288,0.656   c0,0.31-0.144,0.496-0.432,0.561c-0.288,0.063-1.403,0.213-3.345,0.447c-0.256,0.021-0.384,0.129-0.384,0.32   c0,0.32,0.069,0.561,0.208,0.72c0.139,0.16,0.698,0.257,1.681,0.288c0.98,0.032,1.914,0.049,2.8,0.049   c0.885,0,1.461-0.037,1.728-0.113c0.267-0.074,0.485-0.111,0.656-0.111c0.405,0,0.795,0.336,1.168,1.008s0.56,1.162,0.56,1.473   c0,0.309-0.048,0.58-0.144,0.815c-0.096,0.234-0.235,0.353-0.416,0.353c-0.182,0-0.47-0.123-0.864-0.369   c-0.395-0.245-1.205-0.496-2.432-0.752c-1.228-0.256-2.396-0.383-3.504-0.383c-1.109,0-2.821,0.122-5.136,0.367   c-2.315,0.245-3.889,0.453-4.721,0.624c-0.832,0.171-1.317,0.31-1.456,0.416c-0.139,0.106-0.251,0.159-0.336,0.159   c-0.213,0-0.4-0.139-0.56-0.415c-0.16-0.277-0.24-0.513-0.24-0.704s0.059-0.352,0.176-0.48c0.117-0.127,0.293-0.224,0.528-0.287   c0.234-0.064,0.469-0.086,0.704-0.064h0.608c0.192,0,0.869-0.154,2.032-0.464s2.501-0.571,4.017-0.784   c0.148-0.021,0.256-0.085,0.319-0.191c0.064-0.107,0.097-0.342,0.097-0.705c0-0.361-0.092-0.543-0.272-0.543   c-0.182,0-0.635,0.037-1.36,0.111c-0.726,0.075-1.168,0.134-1.327,0.176c-0.16,0.043-0.342,0.064-0.545,0.064   c-0.202,0-0.373-0.139-0.512-0.416s-0.208-0.522-0.208-0.736c0-0.213,0.16-0.319,0.48-0.319l0.576,0.032   c0.469,0,1.028-0.102,1.68-0.305c0.65-0.202,1.082-0.32,1.296-0.352c0.213-0.032,0.32-0.187,0.32-0.465   c0-0.703-0.017-1.104-0.049-1.199c-0.031-0.096-0.144-0.145-0.336-0.145c-0.597,0-1.099,0.096-1.504,0.289   c-0.213,0.106-0.399,0.159-0.56,0.159s-0.315-0.074-0.464-0.224c-0.149-0.149-0.491-0.629-1.024-1.44   c-0.533-0.81-0.934-1.765-1.2-2.864c-0.267-1.099-0.399-1.787-0.399-2.064c0-0.277,0.096-0.458,0.288-0.544   c0.191-0.085,0.832-0.277,1.92-0.576c1.088-0.298,1.994-0.501,2.72-0.608c0.256-0.042,0.384-0.267,0.384-0.672   c0-0.277-0.016-0.453-0.048-0.528c-0.032-0.074-0.123-0.09-0.271-0.048c-1.174,0.256-2.251,0.411-3.232,0.464   c-0.981,0.054-2.102,0.251-3.36,0.592c-1.259,0.341-1.995,0.597-2.208,0.768c-0.213,0.171-0.406,0.256-0.576,0.256   c-0.171,0-0.357-0.203-0.56-0.608c-0.203-0.405-0.304-0.757-0.304-1.056c0-0.298,0.24-0.458,0.72-0.48   c0.48-0.021,1.146-0.106,2-0.256c0.853-0.149,2.032-0.443,3.536-0.88c1.504-0.437,2.843-0.784,4.016-1.04   c0.234-0.042,0.353-0.17,0.353-0.384c0-0.448-0.155-0.661-0.464-0.64c-0.31,0.021-0.556,0.021-0.736,0   c-0.182-0.021-0.56-0.032-1.136-0.032S9.996,6.61,9.655,6.674C9.313,6.738,9.004,6.771,8.727,6.771   c-0.746,0-1.119-0.096-1.119-0.288c0-0.149,0.25-0.362,0.752-0.64c0.501-0.277,1.29-0.57,2.367-0.88   c1.077-0.309,1.776-0.57,2.097-0.784c0.725-0.512,1.664-0.896,2.815-1.152c1.152-0.256,1.952-0.49,2.4-0.704   c0.085-0.043,0.192-0.064,0.32-0.064c0.469,0,0.842,0.246,1.119,0.736s0.416,0.87,0.416,1.136c0,0.267-0.234,0.411-0.703,0.432   c-2.518,0.085-4.017,0.277-4.496,0.576c-0.48,0.299-0.721,0.555-0.721,0.768c0,0.085,0.145,0.155,0.433,0.208   s0.586,0.08,0.896,0.08s0.528,0.048,0.656,0.144c0.128,0.096,0.197,0.224,0.208,0.384c0.011,0.16,0.059,0.272,0.144,0.336   s0.171,0.096,0.257,0.096l3.008-0.16c2.282-0.128,3.52-0.213,3.712-0.256C23.479,6.696,23.628,6.674,23.735,6.674z M13.303,12.274   c0-0.149-0.069-0.224-0.208-0.224s-0.587,0.155-1.344,0.464c-0.758,0.31-1.2,0.582-1.328,0.816   c-0.128,0.235-0.191,0.576-0.191,1.024c0,0.448,0.079,1.078,0.239,1.888c0.16,0.812,0.421,1.27,0.784,1.377   c0.362,0.106,0.683,0.127,0.96,0.063s0.512-0.106,0.704-0.128c0.362-0.043,0.522-0.203,0.48-0.48c0-0.084-0.012-0.244-0.032-0.479   c-0.021-0.235-0.043-0.39-0.064-0.464s-0.139-0.112-0.352-0.112l-0.769,0.063c-0.191,0-0.331-0.053-0.416-0.16   c-0.085-0.105-0.176-0.33-0.271-0.671c-0.096-0.341-0.145-0.586-0.145-0.736c0-0.149,0.064-0.256,0.192-0.32   s0.421-0.165,0.88-0.304s0.72-0.234,0.784-0.288c0.063-0.053,0.096-0.144,0.096-0.272V12.274z M16.055,16.979   c0.085,0,0.421-0.037,1.009-0.111c0.586-0.075,0.948-0.15,1.088-0.225c0.138-0.074,0.276-0.225,0.416-0.448   c0.138-0.224,0.261-0.554,0.367-0.992c0.106-0.437,0.16-0.928,0.16-1.472s-0.165-1.045-0.496-1.504   c-0.331-0.458-0.976-0.688-1.936-0.688c-0.405,0-0.661,0.027-0.769,0.08c-0.106,0.053-0.159,0.155-0.159,0.304l-0.032,0.8   c0,0.235,0.293,0.352,0.88,0.352s0.88,0.203,0.88,0.608s-0.069,0.757-0.208,1.056c-0.139,0.299-0.384,0.496-0.736,0.592   c-0.352,0.096-0.575,0.23-0.672,0.4c-0.096,0.171-0.144,0.288-0.144,0.352C15.703,16.68,15.82,16.979,16.055,16.979z" stroke-width="1"/>
</g>
</svg>