<svg xmlns="http://www.w3.org/2000/svg" xmlns:xlink="http://www.w3.org/1999/xlink" version="1.1" id="图层_1" x="0px" y="0px" width="28.07400131225586" height="24.395000457763672" viewBox="-0.6220008432865143 3.156999111175537 28.07400131225586 24.395000457763672" style="enable-background:new 0 0 30 30;" xml:space="preserve">
  <g>
    <g>
      <path style="fill:#0000FF;" d="M10.406,15.564c-0.149,2.39-0.225,4.582-0.225,6.576s-0.048,3.253-0.144,3.775&#13;&#10;&#9;&#9;c-0.096,0.523-0.192,0.844-0.288,0.961s-0.245,0.176-0.448,0.176s-0.863-0.203-1.983-0.607c-1.12-0.406-1.968-0.764-2.544-1.072&#13;&#10;&#9;&#9;c-0.576-0.311-0.864-0.539-0.864-0.688s0.368-0.187,1.104-0.112c0.736,0.074,1.349,0.112,1.84,0.112&#13;&#10;&#9;&#9;c0.49,0,0.826-0.123,1.008-0.368c0.181-0.245,0.336-0.789,0.464-1.632s0.191-2.101,0.191-3.776c0-1.674-0.016-2.576-0.048-2.703&#13;&#10;&#9;&#9;c-0.031-0.129-0.091-0.192-0.176-0.192c-0.235,0-0.715,0.336-1.439,1.008c-0.726,0.673-1.185,1.456-1.376,2.353&#13;&#10;&#9;&#9;c-0.085,0.405-0.208,0.699-0.368,0.88c-0.16,0.181-0.549,0.479-1.168,0.896s-1.163,0.721-1.632,0.912&#13;&#10;&#9;&#9;c-0.47,0.192-0.864,0.288-1.184,0.288s-0.608-0.042-0.864-0.128c-0.256-0.085-0.384-0.213-0.384-0.384&#13;&#10;&#9;&#9;c0-0.32,0.928-1.173,2.784-2.56c1.258-0.961,2.203-1.941,2.832-2.945c0.629-1.002,1.435-2.026,2.416-3.071&#13;&#10;&#9;&#9;c0.256-0.277,0.384-0.549,0.384-0.816c0-0.267-0.027-0.576-0.08-0.928c-0.054-0.352-0.102-0.565-0.144-0.64&#13;&#10;&#9;&#9;c-0.043-0.074-0.097-0.112-0.16-0.112c-0.064,0-0.134,0.011-0.208,0.032c-0.075,0.021-0.539,0.459-1.393,1.312l-0.928,0.928&#13;&#10;&#9;&#9;c-0.555,0.555-0.939,0.907-1.152,1.056c-0.213,0.149-0.395,0.224-0.544,0.224c-0.149,0-0.368-0.053-0.656-0.16&#13;&#10;&#9;&#9;c-0.288-0.106-0.432-0.219-0.432-0.336s0.149-0.261,0.448-0.432c0.299-0.17,0.811-0.736,1.536-1.696L6.31,9.389&#13;&#10;&#9;&#9;C6.736,8.813,6.95,8.434,6.95,8.253S6.774,7.81,6.422,7.469C6.07,7.128,5.648,6.93,5.158,6.876&#13;&#10;&#9;&#9;C4.667,6.824,4.422,6.728,4.422,6.589s0.112-0.368,0.336-0.688c0.224-0.32,0.443-0.48,0.656-0.48c0.213,0,0.432,0.091,0.656,0.272&#13;&#10;&#9;&#9;c0.224,0.181,0.57,0.368,1.04,0.56c0.469,0.192,0.772,0.288,0.912,0.288c0.138,0,0.271-0.074,0.399-0.224s0.32-0.427,0.576-0.832&#13;&#10;&#9;&#9;S9.425,4.77,9.51,4.557c0.085-0.213,0.208-0.32,0.368-0.32s0.549,0.304,1.168,0.912c0.618,0.608,0.928,1.013,0.928,1.216&#13;&#10;&#9;&#9;c0,0.203-0.074,0.368-0.224,0.496c-1.003,0.854-1.504,1.408-1.504,1.664c0,0.064,0.037,0.251,0.112,0.56&#13;&#10;&#9;&#9;c0.074,0.31,0.122,0.683,0.144,1.12c0.021,0.438,0.074,0.816,0.16,1.136c0.085,0.32,0.128,0.571,0.128,0.752&#13;&#10;&#9;&#9;c0,0.182-0.037,0.357-0.112,0.528c-0.075,0.171-0.133,0.565-0.176,1.184L10.406,15.564z M19.558,19.277&#13;&#10;&#9;&#9;c0.085-0.021,0.31-0.033,0.673-0.033c0.191,0,0.527-0.101,1.008-0.303c0.479-0.203,0.986-0.305,1.52-0.305&#13;&#10;&#9;&#9;c1.109,0,2.085,0.582,2.928,1.744s1.265,1.941,1.265,2.336s-0.256,0.662-0.769,0.8c-0.512,0.14-1.013,0.208-1.504,0.208&#13;&#10;&#9;&#9;c-0.896,0-1.707-0.133-2.432-0.4c-0.726-0.266-1.088-0.463-1.088-0.592c0-0.128,0.117-0.244,0.352-0.352&#13;&#10;&#9;&#9;c0.747-0.342,1.333-0.721,1.761-1.137c0.426-0.416,0.64-0.772,0.64-1.071s-0.123-0.56-0.368-0.784s-0.512-0.336-0.8-0.336&#13;&#10;&#9;&#9;s-0.571,0.08-0.849,0.24s-0.475,0.32-0.592,0.479c-0.117,0.16-0.251,0.454-0.399,0.88c-0.277,0.727-0.844,1.115-1.696,1.168&#13;&#10;&#9;&#9;c-0.854,0.054-1.909,0.268-3.168,0.641s-2.059,0.667-2.4,0.88c-0.341,0.214-0.57,0.319-0.688,0.319s-0.32-0.164-0.608-0.496&#13;&#10;&#9;&#9;c-0.288-0.33-0.432-0.783-0.432-1.359c0-0.17,0.042-0.288,0.128-0.352c0.085-0.064,0.624-0.262,1.616-0.592&#13;&#10;&#9;&#9;c0.992-0.331,1.728-0.571,2.208-0.721c0.479-0.148,0.768-0.267,0.863-0.352c0.097-0.086,0.182-0.353,0.257-0.801&#13;&#10;&#9;&#9;c0.074-0.447,0.111-0.772,0.111-0.976c0-0.202-0.075-0.304-0.224-0.304c-0.299,0-0.661,0.107-1.088,0.32&#13;&#10;&#9;&#9;c-0.214,0.106-0.374,0.159-0.48,0.159s-0.191-0.026-0.256-0.079c-0.063-0.054-0.31-0.357-0.736-0.912s-0.752-1.088-0.976-1.601&#13;&#10;&#9;&#9;c-0.224-0.512-0.422-1.205-0.592-2.08c-0.171-0.875-0.256-1.408-0.256-1.6c0-0.192,0.148-0.298,0.447-0.32&#13;&#10;&#9;&#9;c0.427-0.042,0.875-0.144,1.345-0.304c0.469-0.16,1.29-0.378,2.464-0.656c0.298-0.064,0.479-0.144,0.544-0.24&#13;&#10;&#9;&#9;c0.063-0.096,0.096-0.426,0.096-0.992c0-0.565,0.017-1.589,0.048-3.072c0.032-1.482,0.091-2.298,0.177-2.448&#13;&#10;&#9;&#9;c0.085-0.149,0.373-0.224,0.863-0.224c0.491,0,0.854,0.032,1.088,0.096c0.235,0.064,0.353,0.208,0.353,0.432&#13;&#10;&#9;&#9;c0,0.224-0.096,0.496-0.288,0.816c-0.299,0.448-0.448,1.547-0.448,3.296c0,0.747,0.017,1.216,0.048,1.408&#13;&#10;&#9;&#9;c0.032,0.192,0.106,0.288,0.225,0.288c0.117,0,0.389-0.037,0.815-0.112s0.965-0.112,1.616-0.112c0.65,0,1.397,0.246,2.24,0.736&#13;&#10;&#9;&#9;s1.264,0.885,1.264,1.184s-0.262,0.757-0.784,1.376s-0.848,1.067-0.976,1.344c-0.128,0.278-0.277,0.832-0.448,1.664&#13;&#10;&#9;&#9;c-0.043,0.256-0.171,0.428-0.384,0.513c-0.214,0.085-0.731,0.165-1.552,0.239c-0.821,0.076-1.345,0.16-1.568,0.256&#13;&#10;&#9;&#9;c-0.224,0.097-0.336,0.295-0.336,0.593l-0.063,1.28C19.271,19.17,19.366,19.277,19.558,19.277z M16.486,15.405&#13;&#10;&#9;&#9;c0.362,0,0.592-0.053,0.688-0.16c0.097-0.106,0.145-0.906,0.145-2.4c0-0.298-0.054-0.448-0.16-0.448c-0.107,0-0.427,0.134-0.96,0.4&#13;&#10;&#9;&#9;c-0.534,0.267-0.8,0.646-0.8,1.136c0,0.192,0.058,0.485,0.176,0.88C15.691,15.208,15.995,15.405,16.486,15.405z M19.622,14.765&#13;&#10;&#9;&#9;c0.128,0,0.357-0.064,0.688-0.192c0.331-0.128,0.561-0.448,0.688-0.96c0.128-0.512,0.192-0.907,0.192-1.184&#13;&#10;&#9;&#9;c0-0.597-0.24-0.896-0.721-0.896c-0.479,0-0.8,0.054-0.96,0.16c-0.16,0.107-0.239,0.288-0.239,0.544l0.063,1.984&#13;&#10;&#9;&#9;C19.334,14.583,19.43,14.765,19.622,14.765z" stroke-width="1"/>
    </g>
    <g/>
    <g/>
    <g/>
    <g/>
    <g/>
    <g/>
    <g/>
    <g/>
    <g/>
    <g/>
    <g/>
    <g/>
    <g/>
    <g/>
    <g/>
  </g>
</svg>