<svg xmlns="http://www.w3.org/2000/svg" xmlns:xlink="http://www.w3.org/1999/xlink" version="1.1" id="图层_1" x="0px" y="0px" width="24.51999855041504" height="28.617998123168945" viewBox="2.3070006370544434 0.382000207901001 24.51999855041504 28.617998123168945" enable-background="new 0 0 30 30" xml:space="preserve">
<g>
	<path fill="#0000FF" d="M18.167,18.771c0.256,0,0.437,0.048,0.544,0.144c0.106,0.097,0.224,0.332,0.353,0.705   c0.128,0.373,0.191,0.709,0.191,1.008c0,0.725-0.299,1.045-0.896,0.959c-1.323-0.191-2.32-0.287-2.992-0.287   s-1.222,0.074-1.648,0.224c-0.981,0.299-2.032,0.501-3.151,0.608c-1.12,0.106-2.225,0.33-3.313,0.672s-1.92,0.667-2.496,0.976   c-0.576,0.31-0.944,0.464-1.104,0.464c-0.16,0-0.277-0.069-0.352-0.207c-0.075-0.139-0.176-0.453-0.304-0.945   c-0.128-0.49-0.192-0.815-0.192-0.975c0-0.16,0.053-0.273,0.16-0.337s0.464-0.154,1.072-0.272c0.608-0.116,1.44-0.244,2.496-0.383   c1.056-0.139,2.148-0.395,3.28-0.769c1.13-0.373,2.154-0.655,3.071-0.849c0.917-0.191,1.946-0.361,3.088-0.512   C17.116,18.846,17.847,18.771,18.167,18.771z M26.327,17.555c0,0.171-0.075,0.384-0.225,0.64c-0.875,1.43-1.429,2.63-1.663,3.601   c-0.235,0.971-0.608,1.851-1.12,2.64c-1.067,1.579-1.856,2.815-2.368,3.712c-0.128,0.234-0.268,0.352-0.416,0.352   c-0.384,0-1.328-0.4-2.832-1.199c-1.504-0.801-2.256-1.318-2.256-1.553c0-0.213,0.607-0.319,1.823-0.319l1.12,0.063   c0.491,0,1.072-0.475,1.744-1.424s1.179-1.925,1.521-2.928c0.341-1.002,0.512-1.824,0.512-2.465c0-0.639-0.229-1.162-0.688-1.567   s-1.131-0.608-2.016-0.608c-0.886,0-2.144,0.197-3.776,0.592c-1.632,0.396-2.688,0.699-3.168,0.912   c-0.479,0.214-0.832,0.496-1.056,0.849s-0.453,0.528-0.688,0.528c-0.235,0-0.502-0.459-0.801-1.377   c-0.299-0.916-0.447-1.957-0.447-3.12c0-1.162,0.01-2.266,0.031-3.312l0.064-1.44c0-0.192-0.037-0.288-0.112-0.288   S9.367,9.864,9.303,9.907c-0.447,0.341-1.04,0.747-1.775,1.216c-0.736,0.469-1.211,0.704-1.424,0.704   c-0.149,0-0.224-0.101-0.224-0.304c0-0.203,0.261-0.672,0.784-1.408C7.186,9.378,7.714,8.717,8.247,8.13   c0.533-0.586,0.906-1.083,1.12-1.488c0.448-0.917,1.051-1.771,1.808-2.56c0.757-0.789,1.552-1.728,2.384-2.816   c0.171-0.256,0.357-0.384,0.561-0.384c0.202,0,0.57,0.198,1.104,0.592c0.533,0.395,0.801,0.741,0.801,1.04s-0.3,0.544-0.896,0.736   c-0.598,0.192-1.344,0.624-2.24,1.296c-0.896,0.672-1.435,1.179-1.616,1.52c-0.181,0.342-0.271,0.662-0.271,0.96   c0,0.299,0.064,0.448,0.192,0.448s0.224-0.011,0.287-0.032c2.262-0.853,4.171-1.28,5.729-1.28c0.448,0,1.04,0.069,1.776,0.208   c0.735,0.139,1.104,0.39,1.104,0.752c0,0.171-0.054,0.347-0.16,0.528c-0.106,0.182-0.213,0.571-0.319,1.168   c-0.342,1.813-0.684,3.253-1.024,4.32c-0.342,1.067-0.55,1.653-0.624,1.76c-0.075,0.107-0.262,0.16-0.56,0.16   c-1.217,0-2.443-0.298-3.681-0.896c-0.277-0.149-0.613-0.293-1.008-0.432c-0.395-0.139-0.635-0.208-0.72-0.208   c-0.086,0-0.149,0.038-0.192,0.112c-0.043,0.075-0.112,0.384-0.208,0.928s-0.144,0.88-0.144,1.008c0,0.555,0.267,0.832,0.8,0.832   c0.171,0,0.373-0.031,0.608-0.096c2.452-0.576,4.757-0.864,6.911-0.864c0.726,0,1.553,0.097,2.48,0.288s1.771,0.438,2.528,0.736   c0.757,0.299,1.205,0.512,1.344,0.64S26.327,17.384,26.327,17.555z M16.695,9.65c0-0.917-0.155-1.456-0.464-1.616   c-0.31-0.16-0.716-0.24-1.217-0.24s-0.875,0.048-1.12,0.144s-0.533,0.267-0.863,0.512c-0.331,0.245-0.523,0.411-0.576,0.496   c-0.054,0.086-0.08,0.24-0.08,0.464c0,0.224,0.048,0.352,0.144,0.384c0.097,0.032,0.314,0.048,0.656,0.048l1.44-0.128   c0.448,0,0.672,0.203,0.672,0.608s-0.176,0.72-0.528,0.944c-0.352,0.224-1.125,0.56-2.319,1.008   c-0.129,0.064-0.192,0.149-0.192,0.256s0.197,0.267,0.592,0.48s0.901,0.32,1.521,0.32c0.725,0,1.296-0.304,1.712-0.912   S16.695,10.888,16.695,9.65z" stroke-width="1"/>
</g>
</svg>