<svg xmlns="http://www.w3.org/2000/svg" xmlns:xlink="http://www.w3.org/1999/xlink" version="1.1" id="图层_1" x="0px" y="0px" width="28.838001251220703" height="26.24599838256836" viewBox="1.5089998245239258 1.8870000839233398 28.838001251220703 26.24599838256836" enable-background="new 0 0 30 30" xml:space="preserve">
<g>
	<path fill="#0000FF" d="M29.847,22.898c0,0.128-0.128,0.234-0.384,0.32c-0.619,0.213-1.195,0.447-1.728,0.703   c-0.534,0.257-1.473,0.385-2.816,0.385c-0.938,0-1.568-0.064-1.888-0.191c-0.32-0.129-0.565-0.193-0.736-0.193l-0.64,0.064   c-0.299,0-0.592-0.352-0.88-1.056s-0.619-1.29-0.992-1.761c-0.374-0.469-0.901-0.832-1.584-1.088   c-0.427-0.17-0.901-0.463-1.424-0.879c-0.523-0.416-0.977-0.641-1.36-0.672c-0.384-0.033-0.901-0.203-1.552-0.513   c-0.651-0.31-1.216-0.629-1.696-0.96c-0.48-0.33-0.779-0.496-0.896-0.496s-0.213,0.069-0.287,0.208   c-0.075,0.14-0.235,0.571-0.48,1.296c-0.245,0.726-0.459,1.558-0.64,2.496c-0.182,0.939-0.272,1.76-0.272,2.464   c0,1.237,0.395,1.856,1.185,1.856c1.066,0,2.624-1.099,4.672-3.297c0.341-0.34,0.538-0.512,0.592-0.512   c0.053,0,0.08,0.021,0.08,0.064c0,0.256-0.405,1.066-1.216,2.432c-0.812,1.365-1.824,2.385-3.04,3.057s-2,1.008-2.353,1.008   c-0.352,0-0.683-0.533-0.992-1.6c-0.309-1.068-0.464-2.277-0.464-3.633c0-1.354,0.117-2.64,0.353-3.855   c0.234-1.217,0.352-1.931,0.352-2.145c0-0.213-0.069-0.32-0.208-0.32s-0.357,0.043-0.656,0.129   c-0.299,0.085-0.65,0.144-1.056,0.176c-0.405,0.031-1.013,0.208-1.824,0.527c-0.811,0.32-1.344,0.588-1.6,0.801   s-0.448,0.32-0.576,0.32s-0.219-0.123-0.272-0.369c-0.053-0.244-0.16-0.57-0.32-0.976s-0.24-0.704-0.24-0.896   c0-0.192,0.203-0.32,0.608-0.384c0.981-0.128,2.282-0.442,3.904-0.944c1.621-0.501,2.491-0.875,2.608-1.12s0.202-0.789,0.256-1.632   c0.053-0.842,0.08-1.552,0.08-2.128c0-0.576,0.059-1.504,0.176-2.784c0.117-1.28,0.177-2.347,0.177-3.2L9.751,2.707   c0-0.213,0.074-0.32,0.224-0.32c0.277,0,0.709,0.091,1.296,0.272s1.019,0.347,1.297,0.496c0.276,0.15,0.416,0.283,0.416,0.4   s-0.032,0.261-0.097,0.432c-0.362,0.917-0.544,2.112-0.544,3.584c0,0.32,0.021,0.534,0.064,0.64c0.042,0.107,0.139,0.16,0.288,0.16   c0.148,0,0.389-0.192,0.72-0.576c0.33-0.384,0.901-0.96,1.712-1.728s1.467-1.429,1.968-1.984c0.501-0.555,0.816-0.928,0.944-1.12   s0.304-0.288,0.528-0.288c0.224,0,0.496,0.176,0.815,0.528c0.32,0.352,0.48,0.624,0.48,0.816s-0.091,0.336-0.272,0.432   c-0.182,0.096-0.619,0.427-1.312,0.992c-0.693,0.565-1.211,1.019-1.553,1.36c-0.703,0.704-1.994,1.664-3.871,2.88   c-0.214,0.149-0.358,0.277-0.433,0.384c-0.075,0.107-0.123,0.32-0.144,0.64l-0.064,1.088c0,0.256,0.064,0.384,0.192,0.384   s0.288-0.042,0.479-0.128c2.154-0.81,3.963-1.413,5.424-1.808c1.462-0.395,2.299-0.592,2.513-0.592   c0.213,0,0.527,0.299,0.943,0.896c0.416,0.598,0.624,1.035,0.624,1.312c0,0.278-0.074,0.454-0.224,0.528s-0.395,0.112-0.736,0.112   h-0.64c-1.109,0-2.188,0.085-3.232,0.256c-1.045,0.171-1.786,0.379-2.224,0.624c-0.438,0.246-0.896,0.47-1.376,0.672   c-0.48,0.203-0.72,0.384-0.72,0.544c0,0.16,0.154,0.389,0.464,0.688c0.309,0.299,0.768,0.571,1.376,0.816   c0.607,0.245,1.515,0.8,2.72,1.664s2.096,1.462,2.672,1.792c0.576,0.331,1.205,0.582,1.889,0.752   c3.435,0.854,5.541,1.451,6.319,1.792S29.847,22.707,29.847,22.898z" stroke-width="1"/>
</g>
</svg>