<svg xmlns="http://www.w3.org/2000/svg" xmlns:xlink="http://www.w3.org/1999/xlink" version="1.1" id="图层_1" x="0px" y="0px" width="25.96000099182129" height="24.230998992919922" viewBox="1.2120001316070557 3.182999849319458 25.96000099182129 24.230998992919922" enable-background="new 0 0 30 30" xml:space="preserve">
<g>
	<path fill="#0000FF" d="M10.928,11.171c0,0.192-0.16,0.47-0.479,0.832c-0.32,0.363-0.523,0.624-0.608,0.784   c-0.085,0.16-0.128,0.336-0.128,0.528c-0.021,0.832-0.085,1.872-0.192,3.121c-0.106,1.248-0.159,2.309-0.159,3.184l0.031,2.304   c0,1.046-0.074,1.724-0.224,2.032s-0.4,0.464-0.752,0.464s-0.603-0.054-0.752-0.16S7.44,23.971,7.44,23.715   s0.053-1.114,0.159-2.576c0.106-1.461,0.16-2.506,0.16-3.136c0-0.629-0.037-1.168-0.111-1.616c-0.075-0.447-0.14-0.698-0.192-0.752   c-0.054-0.053-0.134-0.08-0.24-0.08c-0.213,0-0.501,0.299-0.864,0.896c-0.363,0.598-0.544,1.003-0.544,1.216   c0,0.214-0.027,0.374-0.08,0.479c-0.054,0.107-0.272,0.353-0.656,0.736C4.688,19.268,4.331,19.561,4,19.764   c-0.331,0.202-0.667,0.346-1.008,0.432c-0.342,0.085-0.64,0.128-0.896,0.128c-0.256,0-0.384-0.048-0.384-0.144   c0-0.097,0.053-0.219,0.16-0.369c0.106-0.148,0.464-0.57,1.072-1.264s1.077-1.205,1.408-1.535c0.331-0.331,0.858-1.004,1.584-2.017   c0.725-1.013,1.328-1.936,1.808-2.768c0.479-0.832,0.864-1.424,1.152-1.776c0.287-0.352,0.517-0.528,0.688-0.528   s0.438,0.144,0.8,0.432S10.928,10.915,10.928,11.171z M11.504,5.507c0,0.128-0.027,0.251-0.08,0.368   c-0.054,0.118-0.395,0.518-1.023,1.2c-0.63,0.683-1.254,1.253-1.872,1.712c-0.619,0.459-1.27,1.029-1.952,1.712   c-0.107,0.107-0.235,0.16-0.384,0.16c-0.149,0-0.267-0.027-0.352-0.08c-0.085-0.053-0.128-0.181-0.128-0.384   c0-0.202,0.032-0.389,0.096-0.56c0.064-0.17,0.389-0.789,0.976-1.856c0.586-1.066,1.04-1.861,1.359-2.384   c0.32-0.522,0.587-0.922,0.801-1.2C9.157,3.918,9.29,3.763,9.344,3.731c0.054-0.032,0.102-0.048,0.145-0.048   c0.148,0,0.404,0.149,0.768,0.448c0.362,0.299,0.661,0.539,0.896,0.72C11.387,5.033,11.504,5.251,11.504,5.507z M26.672,12.163   c0,0.576-0.182,0.864-0.544,0.864c-0.128,0-0.373-0.053-0.736-0.16c-0.362-0.106-0.858-0.16-1.487-0.16   c-0.63,0-1.046,0.043-1.248,0.128c-0.203,0.085-0.384,0.288-0.544,0.608c-0.16,0.32-0.256,0.598-0.288,0.832   c-0.032,0.235-0.048,0.907-0.048,2.016l-0.064,4.896c0,0.64,0.048,1.43,0.145,2.367c0.096,0.938,0.181,1.595,0.256,1.969   c0.074,0.373,0.111,0.634,0.111,0.783c0,0.405-0.159,0.608-0.479,0.608c-0.128,0-0.277-0.032-0.448-0.096   c-0.405-0.171-1.222-0.428-2.448-0.769s-2.111-0.672-2.655-0.992c-0.544-0.319-1.168-0.789-1.872-1.407   c-0.704-0.619-1.057-0.955-1.057-1.009c0-0.053,0.032-0.08,0.097-0.08c0.063,0,0.138,0.012,0.224,0.033   c2.475,0.746,4.026,1.119,4.656,1.119c0.629,0,1.045-0.117,1.248-0.352c0.202-0.234,0.304-0.587,0.304-1.057   c0-0.469-0.054-1.621-0.16-3.455c-0.106-1.835-0.219-3.131-0.336-3.889c-0.117-0.757-0.203-1.2-0.256-1.328   c-0.054-0.128-0.197-0.245-0.432-0.352c-0.235-0.107-0.428-0.16-0.576-0.16c-0.576,0-1.355,0.091-2.336,0.272   c-0.981,0.182-1.782,0.443-2.4,0.784c-0.214,0.128-0.399,0.192-0.56,0.192s-0.4-0.277-0.721-0.832   c-0.319-0.555-0.479-0.912-0.479-1.072c0-0.16,0.021-0.272,0.063-0.336s0.405-0.165,1.089-0.304   c0.682-0.139,1.21-0.229,1.584-0.272c0.372-0.042,0.996-0.171,1.871-0.384c0.875-0.213,1.584-0.426,2.129-0.64   c0.544-0.213,1.028-0.362,1.455-0.448c0.427-0.085,0.838-0.128,1.232-0.128s0.773-0.048,1.136-0.144   c0.363-0.096,0.699-0.16,1.008-0.192c0.31-0.032,0.912-0.048,1.809-0.048c0.362,0,0.607,0.08,0.736,0.24   c0.128,0.16,0.33,0.464,0.607,0.912C26.533,11.171,26.672,11.651,26.672,12.163z M21.392,4.227c0.342,0,0.619,0.182,0.832,0.544   c0.213,0.363,0.32,0.678,0.32,0.944c0,0.267-0.054,0.496-0.16,0.688c-0.106,0.192-0.693,0.555-1.76,1.088   c-1.067,0.533-1.781,0.843-2.144,0.928c-0.363,0.085-0.673,0.128-0.929,0.128c-0.854,0-1.419,0.038-1.695,0.112   c-0.278,0.075-0.448,0.112-0.513,0.112c-0.299,0-0.501-0.245-0.607-0.736c-0.107-0.491-0.214-0.869-0.32-1.136   c-0.107-0.267-0.16-0.432-0.16-0.496c0-0.234,0.203-0.373,0.608-0.416c0.704-0.042,1.338-0.181,1.903-0.416   c0.565-0.234,1.403-0.517,2.513-0.848C20.389,4.393,21.093,4.227,21.392,4.227z" stroke-width="1"/>
</g>
</svg>