<svg xmlns="http://www.w3.org/2000/svg" xmlns:xlink="http://www.w3.org/1999/xlink" version="1.1" id="图层_1" x="0px" y="0px" width="23.687000274658203" height="21.09299659729004" viewBox="3.044001579284668 3.4570047855377197 23.687000274658203 21.09299659729004" enable-background="new 0 0 30 30" xml:space="preserve">
<g>
	<path fill="#0000FF" d="M26.231,15.539c0,0.555-0.31,1.578-0.929,3.071s-0.976,2.528-1.071,3.104   c-0.097,0.576-0.177,0.955-0.24,1.136c-0.064,0.182-0.155,0.272-0.272,0.272s-0.271-0.054-0.464-0.16   c-0.768-0.405-2.059-0.608-3.872-0.608s-4.224,0.149-7.231,0.448c-3.009,0.299-4.704,0.619-5.088,0.96   c-0.235,0.192-0.454,0.288-0.656,0.288c-0.203,0-0.379-0.16-0.528-0.48c-0.491-0.96-0.885-1.578-1.184-1.855   c-0.768-0.619-1.152-1.675-1.152-3.168c0-0.619,0.064-1.35,0.192-2.192s0.24-1.344,0.336-1.504c0.096-0.16,0.277-0.24,0.544-0.24   c0.266,0,0.837,0.118,1.712,0.352c0.874,0.235,1.312,0.475,1.312,0.72s-0.187,0.544-0.56,0.896   c-0.374,0.353-0.704,0.859-0.992,1.521s-0.432,1.248-0.432,1.76c0,0.64,0.256,0.96,0.768,0.96c0.128,0,0.725-0.117,1.792-0.352   c1.066-0.234,1.937-0.395,2.608-0.48c0.672-0.085,1.114-0.244,1.328-0.48c0.213-0.234,0.399-0.543,0.56-0.928   c0.16-0.384,0.24-0.896,0.24-1.535l-0.064-3.168c0-0.448,0.011-0.811,0.032-1.088c0.064-0.747,0.096-2.581,0.096-5.504   l-0.031-2.688c0-0.427,0.159-0.64,0.479-0.64c0.448,0,1.189,0.149,2.224,0.448C16.722,4.702,17.239,5,17.239,5.298   c0,0.171-0.171,0.422-0.513,0.752c-0.341,0.331-0.624,0.763-0.848,1.296s-0.32,0.987-0.288,1.36   c0.032,0.374,0.048,1.168,0.048,2.384l-0.063,5.697c0,0.832,0.085,1.45,0.256,1.855s0.522,0.598,1.056,0.576   s1.142-0.032,1.824-0.032s1.227,0.011,1.632,0.032l1.088,0.064c0.213,0,0.363-0.037,0.448-0.113   c0.085-0.074,0.202-0.303,0.353-0.688c0.148-0.384,0.282-0.896,0.399-1.536s0.176-1.146,0.176-1.52s-0.011-0.629-0.031-0.768   c-0.021-0.139-0.032-0.261-0.032-0.368c0-0.32,0.101-0.48,0.304-0.48c0.202,0,0.704,0.171,1.504,0.512s1.28,0.581,1.44,0.72   C26.151,15.182,26.231,15.347,26.231,15.539z" stroke-width="1"/>
</g>
</svg>