<svg xmlns="http://www.w3.org/2000/svg" xmlns:xlink="http://www.w3.org/1999/xlink" version="1.1" id="图层_1" x="0px" y="0px" width="24.360000610351562" height="24.67900276184082" viewBox="2.4030001163482666 3.3269999027252197 24.360000610351562 24.67900276184082" enable-background="new 0 0 30 30" xml:space="preserve">
<g>
	<path fill="#0000FF" d="M26.263,6.931c0,0.64-0.128,0.96-0.384,0.96s-0.651-0.149-1.184-0.448   c-1.131-0.618-2.272-0.928-3.425-0.928c-1.151,0-2.304,0.096-3.455,0.288l-2.08,0.384c-0.214,0.021-0.368,0.091-0.465,0.208   c-0.096,0.118-0.133,0.251-0.111,0.4c0.021,0.149,0.032,0.374,0.032,0.672c0,0.299-0.054,0.779-0.16,1.44   c-0.064,0.491-0.097,1.264-0.097,2.32s-0.048,2.837-0.144,5.344c-0.096,2.508-0.144,5.371-0.144,8.592   c0,0.469-0.272,0.811-0.816,1.023c-0.544,0.215-0.981,0.32-1.313,0.32c-0.33,0-0.495-0.176-0.495-0.527s0.042-0.764,0.128-1.232   c0.256-1.279,0.384-2.986,0.384-5.119c0-0.641-0.027-1.179-0.08-1.616c-0.054-0.437-0.08-1.573-0.08-3.408   c0-1.834,0.016-2.997,0.048-3.488s0.048-0.997,0.048-1.52s-0.063-1.035-0.191-1.536c-0.128-0.501-0.256-0.794-0.385-0.88   c-0.128-0.085-0.277-0.117-0.447-0.096c-1.43,0.192-2.704,0.288-3.824,0.288S5.751,8.435,5.367,8.563   C4.983,8.69,4.625,8.888,4.295,9.154c-0.331,0.267-0.56,0.4-0.688,0.4S3.388,9.491,3.335,9.362C3.281,9.234,3.196,8.75,3.079,7.907   C2.961,7.064,2.903,6.622,2.903,6.579c0-0.32,0.149-0.491,0.448-0.512c0.576-0.042,2-0.224,4.272-0.544   c2.271-0.32,3.888-0.597,4.848-0.832c2.539-0.576,5.077-0.864,7.616-0.864c0.832,0,1.584,0.027,2.256,0.08s1.232,0.08,1.681,0.08   l0.991-0.032c0.192,0,0.353,0.075,0.48,0.224s0.288,0.533,0.479,1.152C26.167,5.95,26.263,6.482,26.263,6.931z M18.903,10.035   c0.148,0,0.282,0.085,0.399,0.256c0.117,0.171,0.336,0.405,0.656,0.704s0.57,0.512,0.752,0.64c0.181,0.128,0.592,0.475,1.232,1.04   c0.64,0.566,0.96,1.04,0.96,1.424c0,0.149-0.075,0.357-0.225,0.624c-0.149,0.267-0.512,0.4-1.088,0.4s-1.157-0.144-1.744-0.432   s-0.991-0.442-1.216-0.464c-0.224-0.021-0.379-0.197-0.464-0.528c-0.086-0.331-0.128-0.805-0.128-1.424   c0-0.618,0.085-1.146,0.256-1.584C18.466,10.253,18.668,10.035,18.903,10.035z" stroke-width="1"/>
</g>
</svg>