<svg xmlns="http://www.w3.org/2000/svg" xmlns:xlink="http://www.w3.org/1999/xlink" version="1.1" id="图层_1" x="0px" y="0px" width="20.102005004882812" height="24.7760009765625" viewBox="5.317996025085449 3.8550000190734863 20.102005004882812 24.7760009765625" enable-background="new 0 0 30 30" xml:space="preserve">
<g>
	<path fill="#0000FF" d="M24.92,6.051c0,0.171-0.075,0.384-0.224,0.64c-0.32,0.534-0.48,1.312-0.48,2.336   c0,0.384,0.048,0.96,0.145,1.728c0.096,0.768,0.144,1.494,0.144,2.176l-0.16,2.688c-0.043,1.066-0.063,2.912-0.063,5.535   c0,2.625,0.059,4.235,0.176,4.833c0.117,0.597,0.176,1.104,0.176,1.52s-0.182,0.624-0.544,0.624c-0.363,0-1.062-0.283-2.096-0.848   c-1.035-0.565-1.899-1.142-2.592-1.729c-0.694-0.587-1.04-0.955-1.04-1.104c0-0.043,0.048-0.064,0.144-0.064   s0.293,0.054,0.592,0.16s0.736,0.16,1.313,0.16s0.954-0.059,1.136-0.176c0.181-0.118,0.32-0.326,0.416-0.624   c0.096-0.299,0.144-0.661,0.144-1.089c0-0.426-0.043-0.906-0.128-1.439c-0.149-0.896-0.224-2.048-0.224-3.456   c0-1.407-0.054-3.189-0.16-5.344s-0.197-3.472-0.271-3.952c-0.075-0.48-0.22-0.96-0.433-1.44s-0.512-0.88-0.896-1.2   c-0.384-0.32-0.854-0.48-1.408-0.48c-1.621,0-3.254,0.235-4.896,0.704c-1.644,0.47-2.806,0.944-3.488,1.424   c-0.684,0.48-1.109,0.982-1.28,1.504c-0.171,0.523-0.565,2.64-1.184,6.352c-0.341,1.983-0.512,3.327-0.512,4.032   c0,0.469,0.069,0.896,0.208,1.279c0.138,0.385,0.272,0.646,0.4,0.784c0.128,0.14,0.32,0.208,0.576,0.208s0.784-0.064,1.584-0.191   c0.8-0.129,1.488-0.283,2.063-0.465c0.576-0.181,1.397-0.324,2.464-0.432c1.067-0.106,2.368-0.16,3.904-0.16   c0.362,0,0.656,0.032,0.88,0.096c0.225,0.064,0.362,0.145,0.416,0.24s0.106,0.293,0.16,0.592c0.053,0.299,0.08,0.608,0.08,0.928   c0,0.32-0.203,0.48-0.608,0.48c-0.171,0-0.427-0.053-0.768-0.16c-0.342-0.105-1.014-0.16-2.016-0.16   c-1.664,0-2.912,0.129-3.744,0.385s-1.813,0.384-2.944,0.384c-0.32,0-0.779,0.117-1.376,0.352   c-0.598,0.235-1.008,0.453-1.232,0.656c-0.224,0.202-0.4,0.304-0.528,0.304c-0.619,0-0.928-1.322-0.928-3.968   c0-0.64,0.026-1.179,0.08-1.616c0.053-0.437,0.08-1.072,0.08-1.904l-0.032-2.079c0-0.683,0.048-1.904,0.144-3.664   c0.096-1.76,0.187-2.848,0.272-3.264c0.085-0.416,0.24-0.763,0.464-1.04C7.048,6.83,7.352,6.638,7.736,6.531   c1.13-0.298,2.176-0.629,3.136-0.992c2.219-0.789,5.152-1.184,8.8-1.184c1.45,0,2.688,0.187,3.712,0.56   C24.408,5.289,24.92,5.667,24.92,6.051z M20.76,17.123c0,0.875-0.319,1.279-0.96,1.216c-0.64-0.085-1.227-0.128-1.76-0.128   s-1.029,0.037-1.488,0.112s-1.115,0.128-1.968,0.159c-0.854,0.033-1.829,0.145-2.928,0.336c-1.1,0.193-1.766,0.332-2,0.416   c-0.235,0.086-0.405,0.129-0.513,0.129c-0.384,0-0.575-0.277-0.575-0.832c0-0.427,0.159-0.641,0.479-0.641   c0.213,0,0.736-0.096,1.568-0.287c0.832-0.192,1.344-0.348,1.536-0.465c0.191-0.117,0.356-0.341,0.496-0.672   c0.138-0.33,0.208-0.72,0.208-1.168c0-0.298-0.182-0.448-0.545-0.448c-0.362,0-0.746,0.053-1.151,0.16s-0.72,0.16-0.944,0.16   c-0.224,0-0.363-0.16-0.416-0.48c-0.054-0.32-0.08-0.565-0.08-0.736c0-0.555,0.234-0.848,0.704-0.88   c0.469-0.032,0.981-0.112,1.536-0.24s0.875-0.218,0.96-0.272c0.085-0.053,0.128-0.144,0.128-0.272c0-0.491-0.08-0.827-0.24-1.008   c-0.159-0.181-0.384-0.272-0.672-0.272s-0.479,0.011-0.576,0.032c-0.096,0.021-0.176,0.032-0.239,0.032   c-0.428,0-0.641-0.395-0.641-1.184c0-0.491,0.192-0.768,0.576-0.832c0.683-0.128,1.339-0.309,1.968-0.544s1.435-0.453,2.416-0.656   c0.981-0.202,1.776-0.304,2.385-0.304c0.607,0,0.911,0.181,0.911,0.544c0,0.085-0.021,0.208-0.063,0.368   c-0.043,0.16-0.064,0.342-0.064,0.544S18.738,9.395,18.6,9.555c-0.139,0.16-0.336,0.261-0.592,0.304   c-0.256,0.043-0.646,0.176-1.168,0.4c-0.522,0.224-0.832,0.443-0.928,0.656c-0.096,0.213-0.145,0.416-0.145,0.608   s0.149,0.256,0.448,0.192c0.619-0.17,1.173-0.256,1.664-0.256c0.49,0,0.816,0.038,0.977,0.112c0.159,0.075,0.239,0.262,0.239,0.56   c0,0.534-0.102,0.88-0.304,1.04c-0.203,0.16-0.331,0.283-0.384,0.368c-0.054,0.085-0.08,0.251-0.08,0.496s0.16,0.549,0.479,0.912   c0.32,0.363,0.522,0.715,0.608,1.056c0.064,0.235,0.202,0.363,0.416,0.384C20.45,16.451,20.76,16.696,20.76,17.123z M17.432,16.227   c0-0.084-0.096-0.271-0.288-0.56c-0.191-0.288-0.33-0.667-0.416-1.136c-0.043-0.192-0.139-0.288-0.287-0.288   c-0.15,0-0.315,0.043-0.496,0.128c-0.182,0.085-0.3,0.176-0.353,0.272c-0.054,0.096-0.08,0.325-0.08,0.688   c0,0.362,0.021,0.661,0.064,0.896c0.042,0.235,0.106,0.353,0.191,0.353s0.347-0.021,0.784-0.063s0.693-0.08,0.769-0.113   C17.395,16.371,17.432,16.313,17.432,16.227z" stroke-width="1"/>
</g>
</svg>