<svg xmlns="http://www.w3.org/2000/svg" xmlns:xlink="http://www.w3.org/1999/xlink" version="1.1" id="图层_1" x="0px" y="0px" width="24.71200180053711" height="28.617000579833984" viewBox="3.4600000381469727 0.11100000143051147 24.71200180053711 28.617000579833984" enable-background="new 0 0 30 30" xml:space="preserve">
<g>
	<path fill="#0000FF" d="M7,12.259c0,0.704,0.149,1.302,0.448,1.792c0.149,0.235,0.224,0.432,0.224,0.592s-0.139,0.24-0.416,0.24   c-0.533,0-1.216-0.106-2.048-0.32C4.376,14.35,3.96,14.03,3.96,13.603s0.362-1.066,1.088-1.92c0.725-0.853,1.248-1.28,1.568-1.28   c0.32,0,0.48,0.267,0.48,0.8c0,0.128-0.016,0.277-0.048,0.448C7.016,11.822,7,12.024,7,12.259z M27.672,12.003   c0,0.107-0.069,0.203-0.208,0.288c-0.139,0.085-0.47,0.176-0.992,0.272s-1.274,0.144-2.256,0.144l-2.527-0.064   c-0.235,0-0.416,0.043-0.545,0.128c-0.128,0.085-0.367,0.443-0.72,1.072c-0.352,0.63-0.607,1.152-0.768,1.568   s-0.251,0.864-0.272,1.344s-0.08,0.773-0.176,0.88c-0.096,0.107-0.262,0.16-0.496,0.16l-0.672-0.031   c-0.854,0-1.915,0.165-3.184,0.495c-1.27,0.331-1.937,0.528-2,0.593c-0.064,0.063-0.097,0.203-0.097,0.416   c0,0.512,0.128,0.768,0.384,0.768c0.427,0,1.168-0.16,2.225-0.48c1.056-0.32,1.92-0.479,2.592-0.479s1.547,0.219,2.624,0.655   c1.077,0.438,1.616,0.816,1.616,1.137c0,0.086-0.075,0.256-0.225,0.512s-0.331,0.672-0.544,1.248l-0.544,1.376   c-0.128,0.341-0.213,0.629-0.256,0.864c-0.043,0.234-0.075,0.714-0.096,1.439c0,0.171-0.064,0.283-0.192,0.336   c-0.128,0.054-0.843,0.097-2.144,0.129c-1.302,0.031-2.48,0.106-3.536,0.224s-1.733,0.245-2.032,0.384s-0.501,0.272-0.607,0.4   c-0.257,0.298-0.496,0.447-0.721,0.447c-0.224,0-0.399-0.059-0.527-0.176s-0.272-0.47-0.433-1.056   c-0.16-0.587-0.24-1.003-0.24-1.248s0.017-0.47,0.049-0.672c0.031-0.203,0.048-0.459,0.048-0.769s-0.017-0.554-0.048-0.735   c-0.032-0.182-0.049-0.528-0.049-1.04s0.032-1.461,0.097-2.848c0.063-1.387,0.096-2.576,0.096-3.568s-0.011-1.637-0.032-1.936   l-0.031-0.672c0-0.192,0.111-0.352,0.336-0.48c0.224-0.128,0.581-0.25,1.071-0.368c0.491-0.117,1.237-0.304,2.24-0.56   c1.003-0.256,1.717-0.448,2.145-0.576c0.426-0.128,0.89-0.192,1.392-0.192c0.501,0,1.013,0.043,1.536,0.128   c0.522,0.085,0.869,0.128,1.04,0.128c0.853,0,1.643-0.154,2.368-0.464c0.725-0.309,1.088-0.688,1.088-1.136   c0-0.448-0.277-0.89-0.832-1.328c-0.556-0.437-1.313-0.656-2.272-0.656s-1.968,0.251-3.023,0.752   c-1.057,0.501-1.984,0.854-2.784,1.056c-0.8,0.203-1.733,0.31-2.8,0.32c-1.067,0.011-1.813,0.198-2.24,0.56   c-0.064,0.064-0.128,0.096-0.192,0.096c-0.106,0-0.267-0.187-0.479-0.56c-0.214-0.373-0.32-0.65-0.32-0.832   c0-0.181,0.165-0.293,0.496-0.336c0.33-0.042,0.971-0.17,1.92-0.384c0.949-0.213,1.53-0.352,1.744-0.416   c2.772-0.917,5.072-1.376,6.896-1.376c1.824,0,3.313,0.304,4.465,0.912c1.151,0.608,2.048,1.392,2.688,2.352   S27.672,11.726,27.672,12.003z M12.6,24.995c0.171,0,0.923-0.149,2.257-0.448c1.333-0.299,2.058-0.518,2.176-0.656   c0.117-0.138,0.213-0.395,0.288-0.768c0.074-0.373,0.111-0.693,0.111-0.96s-0.191-0.458-0.575-0.576   c-0.385-0.116-0.769-0.176-1.152-0.176s-0.864,0.134-1.44,0.399c-0.575,0.268-0.981,0.433-1.216,0.496   c-0.234,0.064-0.384,0.145-0.448,0.24c-0.063,0.096-0.128,0.326-0.191,0.688c-0.064,0.362-0.097,0.746-0.097,1.151   S12.408,24.995,12.6,24.995z M13.176,16.355c0.234,0,0.784-0.102,1.648-0.305c0.864-0.202,1.376-0.501,1.536-0.896   c0.159-0.394,0.239-0.746,0.239-1.056c0-0.309-0.123-0.533-0.367-0.672c-0.246-0.138-0.544-0.208-0.896-0.208   c-0.352,0-0.779,0.144-1.28,0.432s-0.832,0.565-0.991,0.832c-0.16,0.267-0.24,0.678-0.24,1.232   C12.824,16.143,12.941,16.355,13.176,16.355z M14.328,0.611c0.277,0,0.448,0.214,0.512,0.64c0.064,0.427,0.48,0.854,1.248,1.28   c0.149,0.086,0.485,0.368,1.008,0.848s0.784,0.87,0.784,1.168c0,0.299-0.096,0.512-0.288,0.64c-0.191,0.128-0.565,0.192-1.12,0.192   c-1.173,0-2.005-0.149-2.496-0.448c-0.171-0.106-0.373-0.213-0.607-0.32c-0.235-0.106-0.379-0.256-0.433-0.448   c-0.053-0.192-0.079-0.645-0.079-1.36S13,1.544,13.288,1.171C13.576,0.798,13.923,0.611,14.328,0.611z" stroke-width="1"/>
</g>
</svg>