<svg xmlns="http://www.w3.org/2000/svg" xmlns:xlink="http://www.w3.org/1999/xlink" version="1.1" id="图层_1" x="0px" y="0px" width="23.400999069213867" height="27.913000106811523" viewBox="3.3630013465881348 1.5970001220703125 23.400999069213867 27.913000106811523" enable-background="new 0 0 30 30" xml:space="preserve">
<g>
	<path fill="#0000FF" d="M14.775,11.219c0,0.128-0.054,0.267-0.16,0.416c-0.598,0.811-1.003,1.424-1.216,1.84   c-0.214,0.416-0.32,0.816-0.32,1.2l0.063,0.928c0,0.171-0.048,0.299-0.144,0.384c-0.096,0.086-0.299,0.192-0.608,0.32   s-0.518,0.24-0.624,0.336s-0.202,0.405-0.288,0.928c-0.085,0.523-0.176,0.955-0.271,1.297c-0.096,0.341-0.144,0.575-0.144,0.703   c0,0.129,0.048,0.208,0.144,0.24c0.096,0.031,0.379,0.048,0.848,0.048c0.47,0,0.843,0.085,1.12,0.257   c0.277,0.17,0.416,0.399,0.416,0.688c0,0.287-0.219,0.576-0.656,0.863c-0.438,0.289-1.008,0.492-1.712,0.608   c-0.704,0.118-1.605,0.3-2.704,0.544c-1.099,0.246-1.765,0.406-2,0.48c-0.235,0.074-0.448,0.176-0.64,0.304   s-0.32,0.245-0.384,0.353c-0.214,0.361-0.438,0.543-0.672,0.543c-0.64,0-0.96-1.472-0.96-4.416c0-1.344,0.032-2.527,0.096-3.551   l0.512-6.049c0.106-1.152,0.16-1.979,0.16-2.48c0-0.501-0.038-0.992-0.112-1.472C4.444,6.05,4.407,5.726,4.407,5.555   c0-0.448,0.138-0.672,0.416-0.672c0.107,0,0.357,0.07,0.752,0.208C5.97,5.229,6.391,5.298,6.839,5.298   c0.362,0,0.864-0.123,1.504-0.368c0.641-0.245,1.579-0.475,2.816-0.688c1.236-0.213,1.968-0.32,2.191-0.32   c0.225,0,0.373,0.085,0.448,0.256c0.074,0.171,0.112,0.427,0.112,0.768c0,0.342-0.038,0.576-0.112,0.704   c-0.075,0.128-0.283,0.272-0.624,0.432c-0.342,0.16-0.565,0.32-0.672,0.48c-0.107,0.16-0.235,0.56-0.384,1.2   c-0.149,0.64-0.225,1.184-0.225,1.632c0,0.213,0.149,0.341,0.448,0.384c0.576,0.086,1.125,0.267,1.648,0.544   C14.514,10.6,14.775,10.898,14.775,11.219z M6.263,21.459c0.17,0,0.341-0.043,0.512-0.129c0.17-0.084,0.4-0.17,0.688-0.256   c0.288-0.084,0.49-0.17,0.608-0.256c0.117-0.085,0.218-0.148,0.304-0.191c0.469-0.277,0.704-0.811,0.704-1.601   c0-0.362-0.096-0.698-0.288-1.008s-0.347-0.464-0.464-0.464s-0.48,0.064-1.088,0.191c-0.608,0.129-0.944,0.209-1.008,0.24   c-0.064,0.032-0.118,0.086-0.16,0.16c-0.043,0.075-0.117,0.416-0.224,1.023c-0.107,0.608-0.16,1.063-0.16,1.361   C5.687,21.149,5.879,21.459,6.263,21.459z M6.647,15.986c0.17,0,0.768-0.219,1.792-0.656c1.023-0.437,1.642-0.747,1.855-0.928   c0.213-0.181,0.362-0.453,0.448-0.816c0.085-0.362,0.128-0.661,0.128-0.896c0-0.49-0.171-0.736-0.512-0.736   c-0.342,0-0.79,0.096-1.345,0.288c-0.555,0.192-1.04,0.395-1.456,0.608c-0.416,0.213-0.661,0.384-0.736,0.512   c-0.075,0.128-0.144,0.406-0.208,0.832l-0.192,1.505C6.423,15.891,6.498,15.986,6.647,15.986z M7.255,11.09   c0.064,0,0.347-0.074,0.848-0.224s0.891-0.507,1.168-1.072c0.277-0.565,0.416-1.045,0.416-1.44c0-0.395-0.043-0.629-0.128-0.704   C9.474,7.576,9.255,7.539,8.903,7.539c-0.353,0-0.63,0.053-0.832,0.16C7.868,7.806,7.697,7.986,7.559,8.243   C7.42,8.499,7.292,8.91,7.175,9.475c-0.117,0.565-0.176,0.976-0.176,1.232S7.084,11.09,7.255,11.09z M18.679,16.787l-0.031,7.615   c0,1.473,0.058,2.432,0.176,2.881c0.117,0.447,0.176,0.799,0.176,1.055s-0.134,0.434-0.4,0.529s-0.592,0.143-0.976,0.143   c-0.619,0-0.928-0.16-0.928-0.479c0-0.086,0.031-0.203,0.096-0.354c0.171-0.383,0.256-0.916,0.256-1.6l-0.256-5.088   c-0.086-2.026-0.128-4.762-0.128-8.208c0-3.445,0.053-5.712,0.16-6.8c0.106-1.088,0.16-2.325,0.16-3.712   c0-0.448,0.116-0.672,0.352-0.672c0.085,0,0.544,0.144,1.376,0.432c0.832,0.288,1.248,0.571,1.248,0.848   c0,0.149-0.08,0.293-0.24,0.432c-0.16,0.139-0.341,1.253-0.544,3.344c-0.203,2.091-0.304,3.382-0.304,3.872   c0,0.149,0.026,0.256,0.08,0.32c0.053,0.064,0.176,0.107,0.368,0.128l3.392,0.672c1.621,0.341,2.565,0.555,2.832,0.64   c0.267,0.085,0.405,0.374,0.416,0.864c0.011,0.491,0.064,0.907,0.16,1.248c0.096,0.342,0.144,0.656,0.144,0.943   c0,0.289-0.063,0.678-0.191,1.169s-0.283,0.735-0.464,0.735c-0.182,0-0.476-0.191-0.881-0.576c-1.493-1.449-2.773-2.543-3.84-3.279   c-1.066-0.736-1.707-1.104-1.92-1.104c-0.128,0-0.191,0.139-0.191,0.416L18.679,16.787z" stroke-width="1"/>
</g>
</svg>