<svg xmlns="http://www.w3.org/2000/svg" xmlns:xlink="http://www.w3.org/1999/xlink" version="1.1" id="图层_1" x="0px" y="0px" width="22.375" height="21.256999969482422" viewBox="3.2679994106292725 5.182000160217285 22.375 21.256999969482422" enable-background="new 0 0 30 30" xml:space="preserve">
<g>
	<path fill="#0000FF" d="M10.391,18.867c0,0.17-0.096,0.395-0.288,0.672c-0.768,1.131-1.291,2.085-1.567,2.863   c-0.277,0.779-0.555,1.403-0.832,1.872c-0.277,0.47-0.491,0.747-0.64,0.832c-0.149,0.085-0.331,0.128-0.544,0.128   c-0.213,0-0.48-0.102-0.8-0.304c-0.32-0.203-0.656-0.443-1.008-0.72c-0.352-0.277-0.598-0.496-0.736-0.656   c-0.139-0.16-0.208-0.32-0.208-0.48s0.117-0.304,0.352-0.432c0.512-0.32,1.376-0.98,2.592-1.984   c0.32-0.277,0.938-0.688,1.856-1.231c0.917-0.544,1.45-0.816,1.6-0.816S10.391,18.695,10.391,18.867z M22.039,8.019   c0.384,0.277,0.576,0.512,0.576,0.704s-0.14,0.48-0.416,0.864c-0.277,0.384-0.534,0.656-0.769,0.816   c-0.234,0.16-0.453,0.448-0.655,0.864c-0.203,0.416-0.374,0.693-0.513,0.832s-0.239,0.421-0.304,0.848   c-0.086,0.79-0.182,1.408-0.288,1.856c-0.106,0.448-0.24,0.703-0.4,0.768c-0.159,0.064-0.507,0.096-1.039,0.096   c-1.089,0-3.286,0.438-6.593,1.313c-0.256,0.064-0.475,0.096-0.655,0.096c-0.182,0-0.348-0.068-0.496-0.207   c-0.149-0.139-0.406-0.598-0.769-1.376s-0.646-1.445-0.848-2c-0.203-0.555-0.438-1.061-0.704-1.52   c-0.267-0.458-0.443-0.933-0.528-1.424c-0.085-0.49-0.208-0.896-0.368-1.216c-0.16-0.32-0.24-0.533-0.24-0.64   c0-0.362,0.218-0.645,0.656-0.848C8.124,7.64,9.506,7.229,11.831,6.61c2.325-0.618,4.053-0.928,5.184-0.928   s2.017,0.224,2.656,0.672L22.039,8.019z M13.271,13.362c0.661,0,1.371-0.101,2.129-0.304c0.757-0.203,1.248-0.395,1.472-0.576   c0.224-0.181,0.395-0.49,0.512-0.928c0.117-0.437,0.176-0.928,0.176-1.472s-0.229-0.955-0.688-1.232   c-0.459-0.277-0.944-0.416-1.456-0.416s-1.232,0.224-2.16,0.672c-0.928,0.448-1.525,0.768-1.792,0.96s-0.399,0.576-0.399,1.152   c0,0.896,0.218,1.477,0.655,1.744C12.156,13.229,12.674,13.362,13.271,13.362z M25.143,21.427c0,0.085-0.011,0.171-0.031,0.256   c-0.086,0.384-0.166,0.987-0.24,1.808c-0.075,0.821-0.262,1.435-0.561,1.84s-0.522,0.608-0.672,0.608   c-0.191,0-0.347-0.165-0.464-0.496s-0.411-0.891-0.88-1.68c-0.47-0.789-0.938-1.525-1.408-2.208c-1.173-1.643-1.76-2.73-1.76-3.264   c0-0.256,0.096-0.385,0.288-0.385s0.715,0.197,1.568,0.592c0.853,0.396,1.685,0.849,2.495,1.36c0.811,0.513,1.291,0.854,1.44,1.024   S25.143,21.234,25.143,21.427z" stroke-width="1"/>
</g>
</svg>