<svg xmlns="http://www.w3.org/2000/svg" xmlns:xlink="http://www.w3.org/1999/xlink" version="1.1" id="图层_1" x="0px" y="0px" width="22.823999404907227" height="25.54400062561035" viewBox="2.7870001792907715 2.079000234603882 22.823999404907227 25.54400062561035" enable-background="new 0 0 30 30" xml:space="preserve">
<g>
	<path fill="#0000FF" d="M6.679,17.522c0,0.128-0.021,0.267-0.064,0.416c-0.278,0.938-0.416,2.198-0.416,3.776   c0,0.469-0.048,0.795-0.144,0.976c-0.096,0.182-0.262,0.272-0.496,0.272c-0.491,0-0.992-0.197-1.504-0.592   c-0.512-0.395-0.768-0.795-0.768-1.201c0-0.404,0.282-0.976,0.848-1.711c0.565-0.736,1.056-1.291,1.472-1.664   s0.699-0.561,0.848-0.561C6.604,17.234,6.679,17.33,6.679,17.522z M17.079,18.162c0.256,0,1.013,0.822,2.271,2.465   s2.032,2.938,2.32,3.888c0.288,0.948,0.432,1.584,0.432,1.903c0,0.47-0.187,0.705-0.56,0.705s-1.478-0.092-3.312-0.272   c-1.836-0.182-2.95-0.331-3.345-0.448s-0.943-0.41-1.647-0.88s-1.168-0.827-1.393-1.071c-0.224-0.246-0.379-0.369-0.464-0.369   c-0.213,0-0.373,0.277-0.479,0.832c-0.043,0.576-0.624,1.083-1.744,1.521c-1.12,0.437-2.096,0.655-2.928,0.655   s-1.525-0.096-2.08-0.287c-0.555-0.192-0.832-0.39-0.832-0.592c0-0.203,0.256-0.369,0.768-0.496   c1.493-0.363,2.907-0.928,4.24-1.696c1.333-0.769,2-1.259,2-1.472c0-0.064-0.032-0.171-0.096-0.32   c-0.363-0.768-0.699-1.643-1.009-2.624s-0.677-1.653-1.104-2.017c-0.277-0.234-0.416-0.527-0.416-0.879   c0-0.353,0.32-0.528,0.96-0.528c0.234,0,0.421,0.063,0.56,0.192c0.139,0.127,0.32,0.416,0.544,0.863   c0.225,0.448,0.619,1.146,1.185,2.096c0.564,0.949,0.874,1.445,0.928,1.488c0.053,0.043,0.112,0.064,0.176,0.064   c0.213,0,0.704-0.608,1.473-1.824c0.768-1.217,1.151-2.305,1.151-3.264c0-0.299-0.031-0.555-0.096-0.769   c-0.064-0.213-0.096-0.373-0.096-0.48c0-0.298,0.176-0.448,0.527-0.448c0.353,0,0.843,0.091,1.473,0.272   c0.629,0.182,0.943,0.432,0.943,0.752c0,0.192-0.117,0.432-0.352,0.719c-0.235,0.289-0.502,0.881-0.8,1.777   c-0.299,0.896-0.651,1.664-1.057,2.303c-0.405,0.641-1.056,1.366-1.952,2.177c-0.128,0.106-0.191,0.224-0.191,0.353   c0,0.256,0.347,0.592,1.04,1.008c0.692,0.416,1.669,0.623,2.928,0.623c0.469,0,0.789-0.031,0.96-0.096s0.293-0.154,0.368-0.271   c0.074-0.117,0.112-0.443,0.112-0.977s-0.097-1.045-0.288-1.535c-0.192-0.491-0.454-1.051-0.784-1.681   c-0.331-0.629-0.496-1.013-0.496-1.151S16.972,18.162,17.079,18.162z M12.471,2.962c0.213,0,0.368,0.091,0.464,0.272   c0.097,0.182,0.145,0.534,0.145,1.056c0,0.523-0.134,0.928-0.4,1.216c-0.267,0.288-0.72,0.592-1.359,0.912   c-0.235,0.107-0.353,0.31-0.353,0.608c0,0.299,0.043,0.448,0.128,0.448s0.24-0.042,0.464-0.128   c0.225-0.085,0.453-0.128,0.688-0.128c0.427,0,0.64,0.229,0.64,0.688c0,0.459-0.117,0.837-0.352,1.136   c-0.235,0.299-0.715,0.726-1.44,1.28c-0.191,0.128-0.288,0.309-0.288,0.544s0.043,0.352,0.128,0.352s0.192-0.032,0.32-0.096   c0.597-0.341,1.019-0.512,1.264-0.512s0.368,0.118,0.368,0.352c0,0.235-0.496,0.811-1.487,1.728   c-0.992,0.917-2.107,1.696-3.345,2.336s-1.947,1.03-2.128,1.168c-0.181,0.14-0.347,0.208-0.496,0.208   c-0.15,0-0.31-0.176-0.48-0.527c-0.171-0.353-0.256-0.598-0.256-0.736s0.155-0.272,0.464-0.4c0.309-0.128,0.677-0.314,1.104-0.56   c0.426-0.245,0.73-0.448,0.912-0.608c0.182-0.16,0.464-0.368,0.849-0.624c0.298-0.149,0.447-0.661,0.447-1.536   c0-0.341-0.106-0.512-0.319-0.512c-0.214,0-0.433,0.07-0.656,0.208c-0.225,0.139-0.395,0.208-0.512,0.208s-0.277-0.16-0.48-0.48   C6.3,10.515,6.199,10.12,6.199,9.65c0-0.234,0.042-0.373,0.128-0.416C6.412,9.192,6.572,9.17,6.807,9.17   c0.234,0,0.549-0.069,0.944-0.208c0.395-0.138,0.624-0.245,0.688-0.32C8.503,8.568,8.535,8.371,8.535,8.05   c0-0.32-0.017-0.517-0.048-0.592C8.455,7.384,8.386,7.347,8.279,7.347c-0.107,0-0.214,0.037-0.32,0.112   C7.852,7.534,7.708,7.57,7.527,7.57c-0.182,0-0.336-0.053-0.464-0.16C6.935,7.304,6.77,6.92,6.567,6.258   C6.364,5.598,6.263,5.085,6.263,4.723s0.213-0.544,0.64-0.544c0.875,0,1.696-0.128,2.464-0.384   C11.031,3.24,12.065,2.962,12.471,2.962z M13.431,15.09c0,0.15-0.102,0.379-0.304,0.688c-0.203,0.31-0.422,0.816-0.656,1.521   c-0.106,0.342-0.299,0.512-0.576,0.512s-0.603-0.203-0.976-0.607c-0.373-0.406-0.56-0.715-0.56-0.929   c0-0.213,0.063-0.389,0.191-0.528c0.128-0.139,0.448-0.282,0.96-0.432c0.513-0.149,0.891-0.261,1.137-0.336   c0.244-0.075,0.437-0.112,0.575-0.112S13.431,14.941,13.431,15.09z M20.855,9.619c0.49,0,0.88,0.219,1.168,0.656   c0.287,0.438,0.432,0.837,0.432,1.2c0,0.491-0.182,0.736-0.544,0.736c-0.064,0-0.128-0.01-0.192-0.032   c-0.299-0.107-0.678-0.16-1.136-0.16c-0.459,0-1.344,0.112-2.656,0.336c-1.312,0.224-2.598,0.624-3.855,1.2   c-0.171,0.085-0.299,0.128-0.385,0.128c-0.213,0-0.352-0.192-0.416-0.576c-0.063-0.384-0.096-0.693-0.096-0.928   s0.032-0.389,0.096-0.464c0.064-0.074,0.129-0.106,0.192-0.096c0.064,0.011,0.117,0.016,0.16,0.016c0.192,0,0.475-0.106,0.848-0.32   c0.373-0.213,0.693-0.357,0.96-0.432c0.267-0.074,0.442-0.272,0.528-0.592c0.085-0.32,0.128-0.592,0.128-0.816   s-0.096-0.336-0.288-0.336c-0.191,0-0.373,0.059-0.544,0.176c-0.171,0.118-0.325,0.176-0.464,0.176s-0.251-0.197-0.336-0.592   c-0.086-0.395-0.128-0.725-0.128-0.992s0.133-0.421,0.399-0.464c0.267-0.042,0.55-0.112,0.849-0.208   c0.298-0.096,0.469-0.192,0.512-0.288c0.043-0.096,0.064-0.213,0.064-0.352s-0.054-0.261-0.16-0.368   c-0.107-0.106-0.251-0.16-0.433-0.16c-0.181,0-0.347,0.048-0.495,0.144c-0.15,0.096-0.246,0.144-0.288,0.144   c-0.192,0-0.348-0.213-0.465-0.64c-0.117-0.426-0.176-0.725-0.176-0.896c0-0.17,0.037-0.298,0.112-0.384   c0.074-0.085,0.176-0.128,0.304-0.128h0.384c0.257,0,0.683-0.139,1.28-0.416c1.856-0.875,3.339-1.312,4.448-1.312   c0.32,0,0.479,0.182,0.479,0.544c0,0.619-0.202,1.014-0.607,1.184c-0.533,0.213-0.875,0.395-1.024,0.544   C19.361,5,19.287,5.192,19.287,5.427s0.106,0.331,0.32,0.288c0.213-0.042,0.384-0.064,0.512-0.064c0.384,0,0.576,0.198,0.576,0.592   c0,0.395-0.043,0.704-0.128,0.928c-0.086,0.224-0.272,0.421-0.561,0.592s-0.544,0.325-0.768,0.464   c-0.225,0.139-0.348,0.261-0.368,0.368c-0.021,0.107-0.032,0.427-0.032,0.96c0,0.213,0.102,0.32,0.304,0.32   c0.203,0,0.475-0.042,0.816-0.128C20.3,9.662,20.599,9.619,20.855,9.619z M25.111,19.187c0,0.64-0.107,1.163-0.32,1.567   c-0.214,0.406-0.464,0.608-0.752,0.608s-0.518-0.116-0.688-0.352c-0.832-1.131-1.931-2.272-3.296-3.425   c-0.447-0.383-0.672-0.853-0.672-1.407c0-0.235,0.085-0.353,0.256-0.353s0.773,0.129,1.809,0.385   c1.034,0.256,1.771,0.49,2.208,0.703c0.437,0.214,0.74,0.374,0.912,0.48c0.17,0.107,0.304,0.331,0.399,0.672   C25.063,18.408,25.111,18.781,25.111,19.187z" stroke-width="1"/>
</g>
</svg>