<svg xmlns="http://www.w3.org/2000/svg" xmlns:xlink="http://www.w3.org/1999/xlink" version="1.1" id="图层_1" x="0px" y="0px" width="31.016002655029297" height="27.46299934387207" viewBox="-0.8289997577667236 0.22299998998641968 31.016002655029297 27.46299934387207" enable-background="new 0 0 30 30" xml:space="preserve">
<g>
	<path fill="#0000FF" d="M13.751,13.106c0-0.149-0.069-0.224-0.208-0.224s-0.555,0.155-1.248,0.464   c-0.693,0.31-1.157,0.56-1.392,0.752c-0.235,0.192-0.438,0.288-0.608,0.288s-0.314-0.171-0.432-0.512   c-0.118-0.341-0.268-0.73-0.448-1.168c-0.182-0.437-0.272-0.752-0.272-0.944c0-0.363,0.214-0.565,0.641-0.608   c1.429-0.17,3.023-0.672,4.784-1.504c1.76-0.832,3.104-1.435,4.031-1.808c0.929-0.373,1.461-0.56,1.601-0.56   c0.139,0,0.267,0.085,0.384,0.256c0.117,0.171,0.33,0.528,0.64,1.072s0.464,0.912,0.464,1.104c0,0.192-0.352,0.374-1.056,0.544   c-0.704,0.171-1.467,0.427-2.288,0.768c-0.821,0.342-1.333,0.603-1.536,0.784c-0.203,0.182-0.389,0.544-0.56,1.088   s-0.256,0.907-0.256,1.088c0,0.182,0.032,0.32,0.096,0.416c0.064,0.096,0.245,0.267,0.544,0.512   c0.299,0.246,0.507,0.427,0.624,0.544c0.117,0.118,0.229,0.176,0.336,0.176c0.213,0,0.96-0.608,2.24-1.824s1.984-2.048,2.112-2.496   c0.021-0.149,0.165-0.224,0.432-0.224s0.64,0.267,1.12,0.8c0.479,0.533,0.72,0.875,0.72,1.024c0,0.149-0.165,0.277-0.496,0.384   c-0.331,0.107-0.741,0.32-1.231,0.64c-0.491,0.32-1.009,0.72-1.553,1.2c-0.544,0.48-1.199,0.912-1.968,1.296   c-0.171,0.106-0.256,0.214-0.256,0.319c0,0.215,0.549,0.896,1.648,2.049c1.098,1.152,3.013,2.111,5.743,2.88   c1.686,0.491,2.704,0.896,3.057,1.216c0.352,0.32,0.527,0.619,0.527,0.896s-0.267,0.49-0.8,0.64s-1.328,0.224-2.384,0.224   s-1.936-0.016-2.64-0.048s-1.12-0.128-1.248-0.288s-0.277-0.453-0.448-0.88c-0.32-0.832-0.934-1.7-1.84-2.608   c-0.907-0.906-1.883-1.664-2.928-2.271c-1.046-0.607-1.67-0.912-1.872-0.912c-0.203,0-0.336,0.139-0.4,0.416   c-0.128,0.726-0.331,1.494-0.608,2.305c-0.319,1.151-0.479,2.102-0.479,2.848c0,0.384,0.139,0.576,0.416,0.576   c0.405,0,1.008-0.225,1.808-0.672c0.801-0.449,1.521-0.981,2.16-1.601c0.234-0.234,0.427-0.353,0.576-0.353   s0.224,0.086,0.224,0.257s-0.341,0.752-1.023,1.743c-0.684,0.992-1.355,1.761-2.017,2.305s-1.119,0.965-1.376,1.264   c-0.256,0.299-0.459,0.447-0.607,0.447c-0.299,0-0.63-0.361-0.992-1.087c-0.363-0.726-0.544-1.397-0.544-2.017   c0-0.234,0.053-0.576,0.16-1.023c0.106-0.448,0.24-1.307,0.399-2.576c0.16-1.27,0.24-1.979,0.24-2.128s-0.063-0.224-0.192-0.224   c-0.128,0-0.432,0.309-0.911,0.928c-0.48,0.619-0.784,1.094-0.912,1.424c-0.128,0.331-0.288,0.533-0.48,0.607   c-0.191,0.076-0.592,0.135-1.2,0.177C9.159,21.31,8.354,21.33,7.351,21.33c-0.277,0-0.416,0.182-0.416,0.545   c-0.064,1.023-0.16,1.76-0.288,2.207c-0.128,0.449-0.197,0.779-0.208,0.992s-0.016,0.427-0.016,0.641   c0,0.512-0.448,0.768-1.344,0.768c-0.256,0-0.384-0.069-0.384-0.208s0.059-0.341,0.176-0.608c0.117-0.267,0.187-0.73,0.208-1.392   c0.021-0.661,0.032-1.856,0.032-3.584s-0.032-2.981-0.096-3.76s-0.118-1.227-0.16-1.345c-0.043-0.116-0.102-0.175-0.176-0.175   c-0.075,0-0.198,0.064-0.368,0.192c-0.512,0.448-1.222,0.917-2.128,1.408c-0.907,0.491-1.552,0.735-1.936,0.735   c-0.384,0-0.576-0.122-0.576-0.367c0-0.246,0.181-0.528,0.544-0.848c0.725-0.662,1.605-1.675,2.64-3.041   c1.035-1.365,2.09-3.168,3.168-5.408C7.1,5.842,7.74,4.36,7.943,3.634C8.146,2.91,8.375,2.546,8.631,2.546   c0.106,0,0.304,0.123,0.592,0.368c0.288,0.246,0.565,0.448,0.832,0.608s0.4,0.342,0.4,0.544c0,0.203-0.214,0.576-0.64,1.12   C9.388,5.73,9.036,6.546,8.759,7.634c-0.213,0.747-0.501,1.35-0.864,1.808c-0.362,0.459-0.683,0.96-0.959,1.504   c-0.277,0.544-0.454,0.896-0.528,1.056c-0.075,0.16-0.112,0.326-0.112,0.496c0,0.405,0.245,0.736,0.736,0.992   c0.32,0.171,0.48,0.363,0.48,0.576c0,0.213-0.059,0.544-0.176,0.992c-0.117,0.447-0.197,0.992-0.24,1.632   c-0.043,0.64-0.064,1.302-0.064,1.983v1.505c0,0.256,0.075,0.384,0.224,0.384s0.581-0.25,1.296-0.752   c0.715-0.501,1.451-1.157,2.208-1.969c0.757-0.81,1.317-1.588,1.681-2.336c0.362-0.746,0.714-1.3,1.056-1.664   C13.729,13.544,13.815,13.298,13.751,13.106z M16.663,0.723c0.234,0,0.453,0.176,0.656,0.528c0.202,0.352,0.512,0.699,0.928,1.04   c0.416,0.341,0.821,0.747,1.216,1.216c0.395,0.47,0.592,0.87,0.592,1.2c0,0.331-0.187,0.496-0.56,0.496   c-0.374,0-0.758-0.069-1.152-0.208S17.5,4.787,16.999,4.787c-0.502,0-0.816-0.091-0.944-0.272s-0.191-0.453-0.191-0.816   s0.048-0.885,0.144-1.568c0.096-0.682,0.203-1.088,0.32-1.216S16.556,0.723,16.663,0.723z" stroke-width="1"/>
</g>
</svg>