<svg xmlns="http://www.w3.org/2000/svg" xmlns:xlink="http://www.w3.org/1999/xlink" version="1.1" id="图层_1" x="0px" y="0px" width="21.57600212097168" height="27.14299964904785" viewBox="1.6499979496002197 0.4090014696121216 21.57600212097168 27.14299964904785" style="enable-background:new 0 0 30 30;" xml:space="preserve">
  <g>
    <g>
      <path style="fill:#0000FF;" d="M21.926,21.357c0,0.17-0.176,0.415-0.527,0.735c-0.353,0.319-0.641,0.693-0.864,1.12&#13;&#10;&#9;&#9;c-0.225,0.427-0.405,1.008-0.544,1.744c-0.14,0.736-0.268,1.173-0.384,1.312c-0.118,0.139-0.315,0.208-0.593,0.208l-1.695-0.031&#13;&#10;&#9;&#9;c-2.027,0-3.446,0.159-4.256,0.479c-0.235,0.085-0.416,0.128-0.545,0.128c-0.277,0-0.752-0.4-1.424-1.2s-1.146-1.829-1.424-3.088&#13;&#10;&#9;&#9;c-0.063-0.298-0.165-0.448-0.304-0.448c-0.14,0-0.411,0.182-0.816,0.545c-0.405,0.362-0.661,0.863-0.768,1.504&#13;&#10;&#9;&#9;c-0.064,0.34-0.192,0.592-0.384,0.752c-0.192,0.16-0.716,0.361-1.568,0.607c-0.854,0.245-1.531,0.368-2.032,0.368&#13;&#10;&#9;&#9;c-0.501,0-0.901-0.043-1.2-0.128c-0.299-0.086-0.448-0.182-0.448-0.288s0.053-0.208,0.16-0.304c0.106-0.096,0.464-0.32,1.072-0.672&#13;&#10;&#9;&#9;c0.608-0.353,1.259-0.684,1.952-0.992s1.675-1.014,2.944-2.112c1.269-1.099,2.154-2,2.655-2.704s0.752-1.12,0.752-1.248&#13;&#10;&#9;&#9;s-0.063-0.191-0.191-0.191s-0.374,0.08-0.736,0.24c-0.362,0.159-0.629,0.239-0.8,0.239s-0.32-0.149-0.448-0.448&#13;&#10;&#9;&#9;s-0.191-0.527-0.191-0.688s0.17-0.267,0.512-0.32c0.341-0.053,0.715-0.154,1.12-0.304c1.066-0.448,1.994-0.763,2.784-0.944&#13;&#10;&#9;&#9;c0.789-0.181,1.396-0.357,1.823-0.528c0.064-0.021,0.165-0.032,0.305-0.032c0.139,0,0.421,0.096,0.848,0.288&#13;&#10;&#9;&#9;c0.427,0.192,0.64,0.411,0.64,0.656c0,0.246-0.091,0.448-0.271,0.608c-0.182,0.16-0.432,0.262-0.752,0.305s-0.55,0.09-0.688,0.143&#13;&#10;&#9;&#9;c-0.139,0.055-0.39,0.283-0.752,0.689c-0.362,0.404-0.901,0.949-1.615,1.631c-0.716,0.684-1.072,1.063-1.072,1.137&#13;&#10;&#9;&#9;s0.074,0.111,0.224,0.111c0.362,0,1.259-0.191,2.688-0.576c0.938-0.256,1.786-0.383,2.544-0.383c0.757,0,1.658,0.271,2.704,0.815&#13;&#10;&#9;&#9;C21.403,20.637,21.926,21.059,21.926,21.357z M13.414,11.821c0,0.384-0.396,0.992-1.184,1.824c-0.79,0.832-1.579,1.419-2.368,1.76&#13;&#10;&#9;&#9;c-0.79,0.341-1.355,0.625-1.696,0.848c-0.342,0.224-0.779,0.624-1.312,1.2c-0.235,0.277-0.47,0.416-0.704,0.416&#13;&#10;&#9;&#9;c-0.235,0-0.608-0.203-1.121-0.608c-0.512-0.405-0.768-0.72-0.768-0.944c0-0.224,0.218-0.373,0.656-0.448&#13;&#10;&#9;&#9;c0.437-0.074,0.965-0.282,1.584-0.624c0.213-0.149,0.565-0.362,1.056-0.64c0.491-0.277,0.795-0.448,0.912-0.512&#13;&#10;&#9;&#9;s0.177-0.213,0.177-0.448c0-0.96-0.16-1.44-0.48-1.44c-0.107,0-0.251,0.075-0.432,0.224c-0.182,0.149-0.363,0.224-0.544,0.224&#13;&#10;&#9;&#9;c-0.182,0-0.348-0.149-0.496-0.448c-0.299-0.618-0.539-1.045-0.721-1.28c-0.181-0.234-0.271-0.427-0.271-0.576&#13;&#10;&#9;&#9;c0-0.384,0.33-0.576,0.992-0.576c0.213,0,0.544-0.048,0.991-0.144c0.448-0.096,0.731-0.187,0.849-0.272S8.71,8.962,8.71,8.429&#13;&#10;&#9;&#9;c0-0.533-0.091-0.8-0.271-0.8c-0.182,0-0.433,0.059-0.753,0.176C7.366,7.922,7.11,7.98,6.918,7.98s-0.32-0.17-0.384-0.512&#13;&#10;&#9;&#9;C6.448,6.914,6.305,6.466,6.102,6.125C5.899,5.784,5.798,5.549,5.798,5.421c0-0.341,0.245-0.512,0.736-0.512&#13;&#10;&#9;&#9;c0.106,0,0.234,0.011,0.384,0.032c0.149,0.021,0.299,0.032,0.448,0.032c0.555,0,1.13-0.112,1.728-0.336s1.323-0.432,2.177-0.624&#13;&#10;&#9;&#9;c0.853-0.192,1.359-0.288,1.52-0.288s0.267,0.08,0.32,0.24c0.053,0.16,0.08,0.438,0.08,0.832c0,0.395-0.134,0.672-0.4,0.832&#13;&#10;&#9;&#9;c-0.267,0.16-0.507,0.341-0.72,0.544c-0.214,0.203-0.428,0.389-0.641,0.56s-0.357,0.395-0.432,0.672&#13;&#10;&#9;&#9;c-0.075,0.277-0.112,0.555-0.112,0.832s0.064,0.416,0.192,0.416s0.362-0.059,0.704-0.176c0.341-0.117,0.592-0.176,0.752-0.176&#13;&#10;&#9;&#9;s0.261,0.059,0.304,0.176c0.043,0.118,0.064,0.315,0.064,0.592s-0.048,0.48-0.145,0.608c-0.096,0.128-0.357,0.416-0.784,0.864&#13;&#10;&#9;&#9;c-0.427,0.448-0.768,0.758-1.023,0.928c-0.256,0.171-0.384,0.421-0.384,0.752c0,0.331,0.068,0.496,0.208,0.496&#13;&#10;&#9;&#9;c0.138,0,0.532-0.187,1.184-0.56c0.65-0.373,1.056-0.56,1.216-0.56S13.414,11.672,13.414,11.821z M13.254,24.685&#13;&#10;&#9;&#9;c0.213,0,0.667-0.08,1.36-0.239c0.692-0.16,1.2-0.252,1.52-0.272c0.32-0.021,0.667-0.257,1.04-0.704&#13;&#10;&#9;&#9;c0.373-0.448,0.561-0.96,0.561-1.536c0-0.256-0.054-0.469-0.16-0.64c-0.107-0.171-0.246-0.256-0.416-0.256&#13;&#10;&#9;&#9;c-0.448,0-1.243,0.16-2.384,0.479c-1.142,0.32-1.813,0.556-2.017,0.704c-0.203,0.149-0.304,0.496-0.304,1.04s0.053,0.917,0.16,1.12&#13;&#10;&#9;&#9;C12.721,24.583,12.934,24.685,13.254,24.685z M22.726,5.613c0,0.149-0.053,0.4-0.159,0.752c-0.107,0.352-0.198,1.062-0.272,2.128&#13;&#10;&#9;&#9;c-0.075,1.067-0.112,2.112-0.112,3.136c0,1.024,0.027,1.819,0.08,2.384c0.054,0.565,0.08,0.859,0.08,0.88&#13;&#10;&#9;&#9;c0,0.619-0.203,0.928-0.607,0.928c-0.214,0-0.55-0.128-1.009-0.384c-0.459-0.256-1.307-0.896-2.544-1.92&#13;&#10;&#9;&#9;c-0.256-0.213-0.447-0.32-0.575-0.32c-0.129,0-0.283,0.043-0.465,0.128c-0.181,0.085-0.341,0.128-0.479,0.128&#13;&#10;&#9;&#9;s-0.277,0.069-0.416,0.208c-0.139,0.139-0.443,0.208-0.912,0.208c-0.214,0-0.443-0.176-0.688-0.528&#13;&#10;&#9;&#9;c-0.246-0.352-0.4-1.051-0.465-2.096c-0.063-1.045-0.096-1.781-0.096-2.208c0-0.426,0.016-0.789,0.048-1.088&#13;&#10;&#9;&#9;c0.032-0.298,0.048-0.501,0.048-0.608c0-0.106-0.043-0.16-0.128-0.16c-0.106,0-0.16-0.069-0.16-0.208&#13;&#10;&#9;&#9;c0-0.139,0.229-0.56,0.688-1.264c0.458-0.704,1.082-1.584,1.872-2.64c0.789-1.056,1.301-1.68,1.536-1.872&#13;&#10;&#9;&#9;c0.234-0.192,0.453-0.288,0.656-0.288c0.202,0,0.495,0.208,0.88,0.624c0.384,0.416,0.575,0.715,0.575,0.896&#13;&#10;&#9;&#9;c0,0.182-0.245,0.411-0.735,0.688c-0.491,0.277-1.142,0.752-1.952,1.424c-0.812,0.672-1.216,1.03-1.216,1.072&#13;&#10;&#9;&#9;c0,0.043,0.037,0.064,0.111,0.064c0.075,0,0.262-0.042,0.561-0.128c1.387-0.448,2.635-0.672,3.744-0.672&#13;&#10;&#9;&#9;c0.555,0,0.992,0.048,1.312,0.144c0.32,0.096,0.533,0.182,0.641,0.256C22.673,5.352,22.726,5.464,22.726,5.613z M16.582,10.381&#13;&#10;&#9;&#9;c-0.192,0.085-0.288,0.251-0.288,0.496c0,0.246,0.026,0.422,0.08,0.528c0.053,0.107,0.192,0.16,0.416,0.16s0.432-0.048,0.624-0.144&#13;&#10;&#9;&#9;c0.192-0.096,0.33-0.144,0.416-0.144c0.256,0,0.384,0.224,0.384,0.672c0,0.448,0.021,0.726,0.064,0.832&#13;&#10;&#9;&#9;c0.042,0.107,0.154,0.197,0.336,0.272c0.181,0.075,0.347,0.112,0.496,0.112c0.49,0,0.735-0.298,0.735-0.896&#13;&#10;&#9;&#9;c0-0.298-0.053-1.12-0.16-2.464c-0.106-1.344-0.197-2.17-0.271-2.48c-0.075-0.309-0.219-0.539-0.432-0.688&#13;&#10;&#9;&#9;c-0.214-0.149-0.48-0.224-0.801-0.224c-0.319,0-0.698,0.102-1.136,0.304c-0.438,0.203-0.656,0.56-0.656,1.072&#13;&#10;&#9;&#9;c0,0.213,0.106,0.32,0.32,0.32c0.213,0,0.464-0.016,0.752-0.048c0.288-0.032,0.496-0.048,0.624-0.048&#13;&#10;&#9;&#9;c0.384,0,0.576,0.171,0.576,0.512s-0.037,0.581-0.112,0.72c-0.075,0.139-0.24,0.272-0.496,0.4L16.582,10.381z" stroke-width="1"/>
    </g>
    <g/>
    <g/>
    <g/>
    <g/>
    <g/>
    <g/>
    <g/>
    <g/>
    <g/>
    <g/>
    <g/>
    <g/>
    <g/>
    <g/>
    <g/>
  </g>
</svg>