<svg xmlns="http://www.w3.org/2000/svg" xmlns:xlink="http://www.w3.org/1999/xlink" version="1.1" width="113.20700073242188" height="158.1739959716797" viewBox="-0.1379999816417694 0.4190000295639038 113.20700073242188 158.1739959716797">
  <!-- Exported by Scratch - http://scratch.mit.edu/ -->
  <path id="ID0.5136423176154494" fill="#FFFFFF" d="M 94.514 126.289 L 54.194 126.289 C 73.903 103.059 105.606 76.26 105.606 46.077 C 105.606 18.503 84.76 0.919 56.252 0.919 C 27.732 0.919 1.07 23.543 1.07 50.903 C 1.07 59.374 6.865 66.742 17.991 66.742 C 40.256 66.742 28.195 30.878 54.857 30.878 C 64.364 30.878 71.552 38.686 71.552 47.596 C 71.552 55.404 67.603 62.142 63.43 67.789 C 45.812 91.662 24.944 111.203 5.706 132.702 C 3.39 135.301 0.362 139.216 0.362 143.771 C 0.362 153.761 8.248 158.093 18.44 158.093 L 95.874 158.093 C 104.683 158.093 112.569 152.344 112.569 142.365 C 112.57 132.387 104.705 126.289 94.514 126.289 Z " stroke-width="1"/>
</svg>