<svg xmlns="http://www.w3.org/2000/svg" xmlns:xlink="http://www.w3.org/1999/xlink" version="1.1" id="图层_1" x="0px" y="0px" width="25.481000900268555" height="29.608997344970703" viewBox="1.2320008277893066 -0.0069999098777771 25.481000900268555 29.608997344970703" style="enable-background:new 0 0 30 30;" xml:space="preserve">
  <g>
    <g>
      <path style="fill:#0000FF;" d="M20.838,15.117c-0.021,0.021-0.229,0.075-0.624,0.16c-0.395,0.085-0.667,0.171-0.815,0.256&#13;&#10;&#9;&#9;c-0.15,0.085-0.225,0.246-0.225,0.48c0,0.235,0.128,0.353,0.384,0.353c0.043,0,0.331-0.027,0.864-0.08s0.864-0.08,0.992-0.08&#13;&#10;&#9;&#9;s0.224,0.027,0.288,0.08c0.063,0.053,0.096,0.176,0.096,0.367c0,0.192,0.021,0.374,0.064,0.545l0.096,0.416&#13;&#10;&#9;&#9;c0,0.191-0.182,0.309-0.544,0.352c-0.363,0.043-0.843,0.149-1.44,0.32c-0.597,0.17-0.896,0.379-0.896,0.623&#13;&#10;&#9;&#9;c0,0.246,0.16,0.357,0.479,0.336c0.747-0.084,1.211-0.127,1.393-0.127c0.181,0,0.314,0.021,0.399,0.063&#13;&#10;&#9;&#9;c0.085,0.043,0.16,0.182,0.225,0.416c0.063,0.235,0.096,0.518,0.096,0.849c0,0.33-0.171,0.512-0.512,0.543&#13;&#10;&#9;&#9;c-0.342,0.032-0.715,0.102-1.12,0.209c-0.405,0.106-0.651,0.191-0.736,0.256c-0.085,0.063-0.154,0.191-0.208,0.384&#13;&#10;&#9;&#9;s-0.08,0.396-0.08,0.608s0.043,0.357,0.128,0.432s0.229,0.107,0.433,0.096c0.202-0.01,0.421-0.016,0.656-0.016l1.247,0.063&#13;&#10;&#9;&#9;c0.832,0,1.43-0.069,1.793-0.208c0.362-0.139,0.607-0.208,0.735-0.208s0.32,0.118,0.576,0.353c0.32,0.299,0.592,0.539,0.816,0.72&#13;&#10;&#9;&#9;c0.224,0.182,0.416,0.458,0.575,0.832c0.16,0.373,0.24,0.73,0.24,1.071c0,0.342-0.112,0.513-0.336,0.513s-0.475-0.032-0.752-0.097&#13;&#10;&#9;&#9;c-2.581-0.703-4.587-1.055-6.016-1.055c-0.79,0-1.504,0.096-2.145,0.287c-0.768,0.234-2.102,0.352-4,0.352&#13;&#10;&#9;&#9;c-0.256,0-0.735,0.117-1.439,0.353c-0.704,0.234-1.104,0.416-1.2,0.544s-0.145,0.299-0.145,0.512s0.027,0.443,0.08,0.688&#13;&#10;&#9;&#9;c0.054,0.245,0.08,0.433,0.08,0.56c0,0.342-0.229,0.57-0.688,0.688c-0.459,0.116-0.816,0.176-1.072,0.176s-0.384-0.069-0.384-0.208&#13;&#10;&#9;&#9;s0.053-0.288,0.16-0.447c0.106-0.16,0.159-0.988,0.159-2.48l-0.031-1.92c0-0.512,0.042-1.28,0.128-2.305&#13;&#10;&#9;&#9;c0.085-1.023,0.128-1.888,0.128-2.592c0-0.703-0.021-1.131-0.064-1.279c-0.043-0.149-0.128-0.225-0.256-0.225&#13;&#10;&#9;&#9;s-0.522,0.24-1.184,0.721c-0.662,0.479-0.992,1.189-0.992,2.127c0,0.172-0.037,0.305-0.112,0.4s-0.507,0.352-1.296,0.768&#13;&#10;&#9;&#9;c-0.79,0.416-1.35,0.668-1.68,0.752c-0.331,0.086-0.651,0.129-0.96,0.129c-0.31,0-0.464-0.059-0.464-0.176s0.075-0.24,0.224-0.369&#13;&#10;&#9;&#9;c1.728-1.514,2.907-2.639,3.536-3.375c0.629-0.736,1.339-1.691,2.128-2.864c0.789-1.173,1.28-1.984,1.472-2.432&#13;&#10;&#9;&#9;c0.192-0.448,0.288-0.747,0.288-0.896c0-0.469-0.229-0.842-0.688-1.12c-0.459-0.277-0.977-0.805-1.553-1.584&#13;&#10;&#9;&#9;c-0.575-0.778-0.863-1.445-0.863-2c0-0.256,0.068-0.533,0.208-0.832c0.139-0.298,0.368-0.448,0.688-0.448&#13;&#10;&#9;&#9;c0.32,0,0.757,0.075,1.313,0.224c0.554,0.15,0.874,0.267,0.96,0.352c0.085,0.085,0.128,0.219,0.128,0.4S9.419,7.746,9.11,7.853&#13;&#10;&#9;&#9;c-0.31,0.107-0.464,0.331-0.464,0.672c0,0.405,0.17,0.608,0.512,0.608c0.234,0,0.65-0.133,1.248-0.4&#13;&#10;&#9;&#9;c0.597-0.267,1.13-0.48,1.6-0.64c0.469-0.16,0.747-0.32,0.832-0.48c0.085-0.16,0.171-0.784,0.256-1.872s0.128-1.973,0.128-2.656&#13;&#10;&#9;&#9;c0-0.682-0.021-1.152-0.063-1.408c-0.043-0.256-0.064-0.448-0.064-0.576s0.048-0.261,0.145-0.4c0.096-0.139,0.25-0.208,0.464-0.208&#13;&#10;&#9;&#9;c0.213,0,0.624,0.091,1.231,0.272c0.608,0.182,0.966,0.315,1.072,0.4c0.106,0.085,0.16,0.192,0.16,0.32s-0.075,0.31-0.224,0.544&#13;&#10;&#9;&#9;c-0.3,0.448-0.448,1.312-0.448,2.592c0,0.64,0.032,1.238,0.096,1.792c0.064,0.555,0.149,0.875,0.256,0.96&#13;&#10;&#9;&#9;C15.952,7.458,16.198,7.5,16.582,7.5s0.683,0.016,0.896,0.048c0.214,0.032,0.416,0.048,0.608,0.048s0.341-0.101,0.448-0.304&#13;&#10;&#9;&#9;c0.106-0.202,0.261-0.693,0.464-1.472c0.202-0.779,0.304-1.307,0.304-1.584s0.128-0.416,0.384-0.416&#13;&#10;&#9;&#9;c0.257,0,0.758,0.203,1.505,0.608c0.746,0.405,1.119,0.736,1.119,0.992c0,0.064-0.031,0.139-0.096,0.224&#13;&#10;&#9;&#9;c-0.191,0.342-0.518,1.056-0.976,2.144c-0.459,1.088-0.731,1.75-0.816,1.984c-0.128,0.427-0.304,0.64-0.528,0.64&#13;&#10;&#9;&#9;c-0.224,0-0.469-0.037-0.735-0.112c-0.268-0.075-0.507-0.112-0.72-0.112c-0.214,0-0.32,0.096-0.32,0.288s0.148,0.592,0.448,1.2&#13;&#10;&#9;&#9;c0.298,0.608,0.517,0.96,0.655,1.056c0.139,0.096,0.336,0.133,0.593,0.112c0.256-0.021,0.612-0.032,1.071-0.032&#13;&#10;&#9;&#9;s0.832,0.027,1.12,0.08c0.288,0.054,0.433,0.176,0.433,0.368c0,0.448,0.042,0.79,0.128,1.024c0.085,0.235,0.128,0.384,0.128,0.448&#13;&#10;&#9;&#9;c0,0.171-0.107,0.256-0.32,0.256l-0.576-0.032C21.456,14.957,21.137,15.01,20.838,15.117z M16.806,13.069&#13;&#10;&#9;&#9;c0-0.064-0.031-0.139-0.096-0.224c-0.363-0.512-0.544-1.045-0.544-1.6c0-0.17,0.021-0.32,0.064-0.448l0.031-0.288&#13;&#10;&#9;&#9;c0-0.17-0.171-0.256-0.512-0.256c-0.342,0-1.184,0.171-2.528,0.512c-1.344,0.341-2.016,0.651-2.016,0.928&#13;&#10;&#9;&#9;c0,0.064,0.042,0.117,0.128,0.16c0.448,0.278,0.672,0.501,0.672,0.672s-0.075,0.299-0.224,0.384&#13;&#10;&#9;&#9;c-0.235,0.085-0.565,0.587-0.992,1.504c-0.427,0.917-0.64,1.494-0.64,1.728s0.096,0.485,0.288,0.752&#13;&#10;&#9;&#9;c0.191,0.268,0.287,0.565,0.287,0.896c0,0.33-0.037,0.789-0.111,1.375c-0.075,0.588-0.171,1.516-0.288,2.785&#13;&#10;&#9;&#9;s-0.176,1.946-0.176,2.031c0,0.32,0.159,0.438,0.479,0.352c1.813-0.512,3.456-0.842,4.928-0.991&#13;&#10;&#9;&#9;c0.277-0.021,0.465-0.149,0.561-0.384s0.144-0.405,0.144-0.512c0-0.257-0.106-0.385-0.319-0.385c-0.641,0-1.222,0.043-1.744,0.128&#13;&#10;&#9;&#9;c-0.523,0.086-0.87,0.192-1.04,0.32c-0.171,0.128-0.342,0.192-0.512,0.192c-0.172,0-0.305-0.139-0.4-0.416&#13;&#10;&#9;&#9;s-0.145-0.598-0.145-0.961c0-0.361,0.155-0.543,0.465-0.543c0.309,0,0.65-0.075,1.023-0.225c0.373-0.148,0.885-0.304,1.536-0.464&#13;&#10;&#9;&#9;c0.65-0.16,1.024-0.267,1.12-0.32c0.096-0.053,0.144-0.192,0.144-0.415c0-0.225-0.102-0.337-0.304-0.337&#13;&#10;&#9;&#9;c-0.203,0-0.667,0.069-1.392,0.208c-0.726,0.139-1.2,0.251-1.424,0.336c-0.225,0.086-0.411,0.129-0.561,0.129&#13;&#10;&#9;&#9;s-0.283-0.203-0.4-0.609c-0.117-0.404-0.176-0.692-0.176-0.863c0-0.341,0.139-0.48,0.416-0.416c0.085,0.021,0.16,0.032,0.225,0.032&#13;&#10;&#9;&#9;c0.128,0,0.57-0.106,1.327-0.32c0.758-0.213,1.339-0.362,1.744-0.448c0.234-0.042,0.353-0.17,0.353-0.384&#13;&#10;&#9;&#9;c0-0.362-0.16-0.512-0.48-0.448c-0.789,0.15-1.205,0.225-1.248,0.225c-0.768,0-1.27,0.027-1.504,0.08s-0.395,0.08-0.479,0.08&#13;&#10;&#9;&#9;c-0.32,0-0.576-0.133-0.769-0.4c-0.191-0.267-0.288-0.603-0.288-1.008s0.106-0.608,0.32-0.608l0.416,0.032&#13;&#10;&#9;&#9;c0.362,0,0.837-0.123,1.424-0.368c0.587-0.245,1.552-0.549,2.896-0.912C16.699,13.292,16.806,13.197,16.806,13.069z" stroke-width="1"/>
    </g>
    <g/>
    <g/>
    <g/>
    <g/>
    <g/>
    <g/>
    <g/>
    <g/>
    <g/>
    <g/>
    <g/>
    <g/>
    <g/>
    <g/>
    <g/>
  </g>
</svg>