<svg xmlns="http://www.w3.org/2000/svg" xmlns:xlink="http://www.w3.org/1999/xlink" version="1.1" id="图层_1" x="0px" y="0px" width="24.998998641967773" height="7.112001419067383" viewBox="1.0920008420944214 11.775999069213867 24.998998641967773 7.112001419067383" enable-background="new 0 0 30 30" xml:space="preserve">
<g>
	<path fill="#0000FF" d="M25.591,15.891c0,0.234-0.059,0.587-0.176,1.056c-0.117,0.47-0.283,0.704-0.496,0.704   c-0.214,0-0.63-0.191-1.248-0.576c-1.344-0.832-3.189-1.248-5.536-1.248c-1.387,0-2.581,0.129-3.584,0.385   s-2.075,0.447-3.216,0.576c-1.142,0.127-1.984,0.191-2.528,0.191s-0.971-0.021-1.279-0.064c-0.31-0.042-0.667-0.063-1.072-0.063   c-1.451,0-2.454,0.31-3.008,0.928c-0.363,0.405-0.635,0.608-0.816,0.608s-0.4-0.432-0.656-1.297   c-0.256-0.863-0.384-1.514-0.384-1.951c0-0.437,0.075-0.656,0.224-0.656c0.149,0,0.304,0.027,0.464,0.08   c0.16,0.054,0.347,0.08,0.56,0.08c0.789,0,2.005-0.101,3.648-0.304c1.643-0.202,3.13-0.469,4.464-0.8   c1.333-0.331,2.912-0.533,4.735-0.608c1.824-0.075,3.307-0.17,4.448-0.288c1.142-0.117,1.877-0.208,2.208-0.272   s0.57-0.096,0.721-0.096c0.426,0,0.709,0.203,0.848,0.608c0.139,0.406,0.352,0.843,0.64,1.312c0.288,0.47,0.533,0.806,0.736,1.008   C25.489,15.406,25.591,15.635,25.591,15.891z" stroke-width="1"/>
</g>
</svg>