<svg xmlns="http://www.w3.org/2000/svg" xmlns:xlink="http://www.w3.org/1999/xlink" version="1.1" id="图层_1" x="0px" y="0px" width="23.527999877929688" height="26.40799903869629" viewBox="2.49899959564209 2.2699999809265137 23.527999877929688 26.40799903869629" enable-background="new 0 0 30 30" xml:space="preserve">
<g>
	<path fill="#0000FF" d="M18.071,20.307c0,0.256-0.203,0.384-0.608,0.384s-1.125,0.054-2.16,0.16s-1.787,0.203-2.256,0.288   c-1.643,0.342-3.68,0.693-6.112,1.056c-0.32,0.043-0.715,0.144-1.184,0.304c-0.47,0.16-0.795,0.299-0.976,0.416   c-0.182,0.118-0.374,0.176-0.576,0.176c-0.203,0-0.342-0.063-0.416-0.191c-0.075-0.128-0.224-0.438-0.448-0.928   s-0.336-0.843-0.336-1.057c0-0.213,0.203-0.319,0.608-0.319s1.232-0.085,2.48-0.257c1.248-0.17,2.165-0.346,2.752-0.527   s1.563-0.4,2.928-0.656s2.395-0.41,3.089-0.464c0.692-0.053,1.104-0.101,1.231-0.144s0.234-0.064,0.32-0.064   c0.426,0,0.811,0.234,1.151,0.704C17.9,19.656,18.071,20.029,18.071,20.307z M25.527,15.442c0,0.106-0.043,0.235-0.128,0.384   c-0.257,0.406-0.502,1.1-0.736,2.08c-0.576,2.453-1.302,4.555-2.176,6.305c-0.812,1.6-1.26,2.613-1.345,3.039   c-0.149,0.619-0.405,0.928-0.768,0.928c-0.363,0-1.355-0.324-2.976-0.975c-1.622-0.651-2.688-1.201-3.2-1.648   c-0.513-0.448-0.769-0.758-0.769-0.928c0-0.172,0.059-0.256,0.177-0.256c0.116,0,0.229,0.021,0.336,0.063   c0.404,0.171,1.013,0.319,1.823,0.448c0.811,0.128,1.461,0.191,1.952,0.191s0.955-0.133,1.393-0.4   c0.437-0.266,0.922-0.863,1.456-1.791c0.532-0.928,0.922-2.032,1.168-3.313c0.245-1.279,0.367-2.17,0.367-2.672   c0-0.501-0.139-0.858-0.416-1.072c-0.277-0.213-0.698-0.384-1.264-0.512s-1.168-0.192-1.808-0.192c-1.558,0-2.892,0.288-4,0.864   c-0.363,0.192-0.747,0.331-1.152,0.416c-0.405,0.086-0.747,0.129-1.023,0.129h-0.704c-0.704,0-1.228,0.074-1.568,0.223   c-0.064,0.043-0.139,0.064-0.224,0.064c-0.278,0-0.496-0.187-0.656-0.561c-0.16-0.372-0.24-0.639-0.24-0.799   c0-0.16,0.032-0.272,0.096-0.336c0.257-0.298,0.465-0.832,0.624-1.6c0.16-0.768,0.272-2.549,0.336-5.344   c0.021-0.384,0.091-0.656,0.208-0.816c0.117-0.16,0.325-0.24,0.624-0.24c0.47,0,0.869,0.053,1.2,0.16s0.496,0.24,0.496,0.4   c0,0.16-0.069,0.389-0.208,0.688s-0.229,1.099-0.271,2.4c0,0.47-0.043,1.024-0.128,1.664l-0.225,1.408   c0,0.363,0.225,0.544,0.672,0.544c0.192,0,0.544-0.059,1.057-0.176c0.512-0.117,0.837-0.282,0.976-0.496   c0.139-0.213,0.304-0.592,0.496-1.136s0.379-1.579,0.56-3.104c0.182-1.525,0.272-2.619,0.272-3.28c0-0.661-0.112-1.12-0.336-1.376   c-0.225-0.256-0.528-0.384-0.912-0.384c-0.747,0-1.691,0.235-2.832,0.704c-1.142,0.469-1.829,0.79-2.064,0.96   C9.452,6.27,9.228,6.354,9.015,6.354S8.556,6.146,8.279,5.73C8.002,5.314,7.863,5.032,7.863,4.882c0-0.149,0.048-0.256,0.144-0.32   S8.7,4.307,9.799,3.986c1.099-0.32,2.288-0.603,3.568-0.848s2.293-0.368,3.04-0.368c0.746,0,1.541,0.262,2.384,0.784   c0.843,0.523,1.264,0.912,1.264,1.168c0,0.256-0.139,0.523-0.416,0.8c-0.427,0.427-0.778,1.504-1.056,3.232   c-0.128,0.939-0.48,2.293-1.056,4.064c-0.043,0.15-0.064,0.288-0.064,0.416s0.074,0.219,0.224,0.272   c0.149,0.054,0.395,0.08,0.736,0.08h0.8c1.579,0,3.024,0.203,4.336,0.608C24.871,14.6,25.527,15.016,25.527,15.442z" stroke-width="1"/>
</g>
</svg>