<svg xmlns="http://www.w3.org/2000/svg" xmlns:xlink="http://www.w3.org/1999/xlink" version="1.1" id="图层_1" x="0px" y="0px" width="22.695999145507812" height="24.29599952697754" viewBox="2.3710005283355713 3.134000062942505 22.695999145507812 24.29599952697754" enable-background="new 0 0 30 30" xml:space="preserve">
<g>
	<path fill="#0000FF" d="M10.967,18.131c0,0.148-0.085,0.287-0.256,0.416c-0.171,0.127-0.661,0.598-1.472,1.408l-2.464,2.496   c-0.917,0.938-1.542,1.53-1.872,1.775c-0.331,0.245-0.597,0.368-0.8,0.368c-0.203,0-0.459-0.021-0.768-0.063   c-0.31-0.044-0.464-0.118-0.464-0.225c0-0.107,0.106-0.288,0.32-0.544c1.472-1.685,3.21-3.904,5.216-6.656   c0.341-0.469,0.692-0.704,1.056-0.704c0.362,0,0.704,0.229,1.024,0.688C10.807,17.549,10.967,17.896,10.967,18.131z M10.711,5.683   c0,0.299-0.155,0.56-0.464,0.784c-0.31,0.224-0.966,0.79-1.968,1.696c-1.003,0.907-2.006,1.883-3.008,2.928   c-0.213,0.214-0.438,0.32-0.672,0.32c-0.235,0-0.47-0.059-0.704-0.176c-0.235-0.117-0.352-0.304-0.352-0.56   c0-0.256,0.309-0.864,0.928-1.824c0.618-0.96,1.306-1.872,2.064-2.736C7.292,5.25,7.863,4.542,8.247,3.986   c0.171-0.234,0.437-0.352,0.8-0.352c0.362,0,0.73,0.246,1.104,0.736C10.524,4.861,10.711,5.298,10.711,5.683z M8.919,10.771   c0.32,0,0.576,0.182,0.768,0.544c0.192,0.363,0.288,0.646,0.288,0.848c0,0.203-0.08,0.427-0.239,0.672   c-0.16,0.246-0.476,0.582-0.944,1.008c-0.47,0.427-1.088,0.934-1.856,1.52c-0.768,0.587-1.307,0.976-1.616,1.169   c-0.31,0.191-0.539,0.287-0.688,0.287c-0.149,0-0.32-0.053-0.512-0.16c-0.192-0.105-0.288-0.244-0.288-0.416   c0-0.17,0.144-0.469,0.432-0.896c0.288-0.427,0.933-1.189,1.936-2.288c1.002-1.099,1.643-1.754,1.92-1.968   C8.396,10.877,8.663,10.771,8.919,10.771z M18.903,13.139c0,0.256-0.097,0.592-0.288,1.008c-0.192,0.416-0.288,0.827-0.288,1.232   c0,0.406,0.021,0.768,0.063,1.088s0.064,0.629,0.064,0.928c0,1.259-0.438,2.443-1.313,3.552c-0.362,0.448-0.597,0.812-0.703,1.089   c-0.107,0.277-0.177,0.655-0.208,1.135c-0.032,0.48-0.14,0.849-0.32,1.104c-0.182,0.257-0.604,0.608-1.264,1.056   c-0.662,0.448-1.334,0.785-2.017,1.008c-0.683,0.225-1.285,0.336-1.808,0.336c-0.523,0-0.784-0.059-0.784-0.176   s0.122-0.314,0.368-0.592c0.245-0.277,0.96-0.875,2.144-1.791c1.185-0.918,2.026-1.75,2.528-2.496   c0.501-0.747,0.869-1.733,1.104-2.961c0.235-1.227,0.416-3.056,0.544-5.488c0.021-0.597,0.288-0.896,0.801-0.896   c0.276,0,0.575,0.064,0.896,0.192C18.743,12.595,18.903,12.818,18.903,13.139z M24.567,6.002c0,0.448-0.086,0.672-0.257,0.672   s-0.416-0.042-0.735-0.128c-0.32-0.085-0.918-0.128-1.792-0.128c-1.131,0-2.06,0.374-2.784,1.12   c-0.726,0.747-1.088,1.227-1.088,1.44c0,0.107,0.139,0.149,0.416,0.128c0.768-0.064,1.567-0.096,2.399-0.096   c0.342,0,0.881,0.133,1.616,0.4c0.736,0.267,1.104,0.571,1.104,0.912c0,0.107-0.032,0.256-0.097,0.448   c-0.149,0.384-0.224,0.901-0.224,1.552s0.037,1.36,0.112,2.128c0.074,0.768,0.111,1.824,0.111,3.168   c0,1.344-0.053,2.202-0.159,2.575c-0.107,0.374-0.278,0.56-0.513,0.56s-0.667-0.176-1.296-0.527s-0.943-0.645-0.943-0.88   c0-0.085,0.031-0.181,0.096-0.288c0.148-0.234,0.224-1.205,0.224-2.912c0-2.816-0.219-4.522-0.656-5.12   c-0.438-0.597-0.943-0.896-1.52-0.896c-0.342,0-0.832,0.123-1.472,0.368c-0.641,0.246-1.052,0.448-1.232,0.608   c-0.182,0.16-0.342,0.411-0.479,0.752c-0.14,0.342-0.272,0.912-0.4,1.712c-0.128,0.8-0.256,1.824-0.384,3.072   s-0.192,2.139-0.192,2.672c0,0.619-0.234,0.928-0.704,0.928c-0.213,0-0.395-0.213-0.544-0.64s-0.224-1.558-0.224-3.392   c0-1.835,0.074-3.185,0.224-4.048c0.149-0.864,0.288-1.429,0.416-1.696c0.128-0.266,0.368-0.448,0.72-0.544   c0.353-0.096,0.651-0.341,0.896-0.736c0.245-0.395,0.448-0.704,0.608-0.928c0.159-0.224,0.239-0.432,0.239-0.624   c0-0.512-0.224-0.768-0.672-0.768c-0.171,0-0.522,0.091-1.056,0.272s-0.912,0.272-1.136,0.272c-0.225,0-0.374-0.117-0.448-0.352   c-0.075-0.234-0.182-0.427-0.32-0.576c-0.139-0.149-0.208-0.298-0.208-0.448c0-0.363,0.181-0.544,0.544-0.544l0.353,0.032   c0.298,0,0.891-0.059,1.775-0.176c0.886-0.117,1.931-0.299,3.137-0.544c1.204-0.245,2.384-0.443,3.535-0.592   c1.152-0.149,1.819-0.224,2-0.224c0.182,0,0.314,0.054,0.4,0.16c0.085,0.107,0.208,0.395,0.368,0.864S24.567,5.811,24.567,6.002z    M24.407,23.763c0,0.128-0.048,0.331-0.145,0.608c-0.096,0.276-0.16,0.65-0.191,1.119c-0.032,0.469-0.134,0.826-0.305,1.072   c-0.171,0.245-0.357,0.368-0.56,0.368c-0.203,0-0.39-0.128-0.56-0.384c-1.089-1.494-1.841-2.475-2.257-2.944   s-0.8-0.981-1.151-1.536c-0.353-0.555-0.528-0.928-0.528-1.12s0.112-0.288,0.336-0.288s0.784,0.188,1.68,0.561   c0.896,0.373,1.601,0.73,2.112,1.072c0.512,0.341,0.901,0.613,1.168,0.815C24.273,23.31,24.407,23.527,24.407,23.763z" stroke-width="1"/>
</g>
</svg>