<svg xmlns="http://www.w3.org/2000/svg" xmlns:xlink="http://www.w3.org/1999/xlink" version="1.1" width="113.23099517822266" height="158.2989959716797" viewBox="0.37300002574920654 0.4070000648498535 113.23099517822266 158.2989959716797">
  <!-- Exported by Scratch - http://scratch.mit.edu/ -->
  <path id="ID0.680775604210794" fill="#FFFFFF" d="M 88.793 72.503 C 99.93 65.877 106.297 53.917 106.297 41.947 C 106.297 16.724 83.347 0.907 56.989 0.907 C 29.955 0.907 7.916 16.949 7.916 41.947 C 7.916 55.402 14.508 65.235 25.185 72.503 C 10.874 79.771 0.873 92.382 0.873 109.482 C 0.873 138.124 25.634 158.206 56.989 158.206 C 87.431 158.206 113.104 139.194 113.104 109.482 C 113.104 93.034 104.249 79.781 88.793 72.503 Z M 56.989 29.122 C 67.664 29.122 73.582 36.176 73.582 45.367 C 73.582 54.974 67.439 61.6 56.989 61.6 C 46.537 61.6 40.631 54.974 40.631 45.367 C 40.631 36.176 46.313 29.122 56.989 29.122 Z M 56.989 128.707 C 43.129 128.707 36.312 118.234 36.312 107.344 C 36.312 95.385 43.804 85.979 56.989 85.979 C 69.476 85.979 77.666 93.887 77.666 107.344 C 77.666 118.244 69.938 128.707 56.989 128.707 Z " stroke-width="1"/>
</svg>