<svg xmlns="http://www.w3.org/2000/svg" xmlns:xlink="http://www.w3.org/1999/xlink" version="1.1" id="图层_1" x="0px" y="0px" width="26.02699851989746" height="25.351999282836914" viewBox="0.6550012826919556 1.625 26.02699851989746 25.351999282836914" style="enable-background:new 0 0 30 30;" xml:space="preserve">
  <g>
    <g>
      <path style="fill:#0000FF;" d="M11.142,9.197c0.555,0,0.832,0.331,0.832,0.992c0,0.662-0.074,1.104-0.224,1.328&#13;&#10;&#9;&#9;s-0.555,0.496-1.216,0.816c-0.192,0.085-0.32,0.235-0.384,0.448c-0.064,0.213-0.097,0.555-0.097,1.024&#13;&#10;&#9;&#9;c0,0.47,0.037,0.747,0.112,0.832c0.074,0.085,0.181,0.123,0.32,0.112c0.139-0.01,0.229-0.016,0.271-0.016&#13;&#10;&#9;&#9;c0.299,0,0.448,0.117,0.448,0.352c0,0.15-0.048,0.304-0.144,0.464c-0.097,0.16-0.268,0.384-0.513,0.672s-0.432,0.613-0.56,0.977&#13;&#10;&#9;&#9;c-0.128,0.362-0.225,1.295-0.288,2.799c-0.064,1.504-0.096,2.598-0.096,3.281c0,0.682,0.068,1.29,0.208,1.823&#13;&#10;&#9;&#9;c0.138,0.533,0.208,0.896,0.208,1.088s-0.123,0.288-0.368,0.288c-0.246,0-0.977-0.367-2.192-1.104s-2.048-1.264-2.496-1.584&#13;&#10;&#9;&#9;c-0.448-0.32-0.757-0.48-0.928-0.48l-0.416,0.096c-0.299,0-0.784-0.261-1.456-0.783c-0.672-0.523-1.008-1.008-1.008-1.457&#13;&#10;&#9;&#9;c0-0.191,0.074-0.383,0.224-0.575s0.869-0.769,2.16-1.728c1.291-0.961,2.544-1.793,3.76-2.496c0.234-0.149,0.384-0.31,0.448-0.48&#13;&#10;&#9;&#9;c0.064-0.17,0.096-0.544,0.096-1.12c0-0.875-0.191-1.312-0.575-1.312c-0.107,0-0.38,0.069-0.816,0.208&#13;&#10;&#9;&#9;c-0.438,0.139-0.827,0.341-1.168,0.608c-0.342,0.267-0.582,0.4-0.72,0.4s-0.272-0.112-0.4-0.336&#13;&#10;&#9;&#9;c-0.128-0.224-0.304-0.677-0.528-1.36c-0.224-0.683-0.336-1.088-0.336-1.216c0-0.299,0.213-0.448,0.64-0.448&#13;&#10;&#9;&#9;s1.179-0.176,2.256-0.528c1.077-0.352,1.664-0.592,1.76-0.72s0.208-0.885,0.336-2.272c0.128-1.386,0.192-2.56,0.192-3.52&#13;&#10;&#9;&#9;L8.454,2.733c0-0.405,0.16-0.608,0.479-0.608c0.085,0,0.337,0.038,0.752,0.112c0.416,0.075,0.624,0.166,0.624,0.272&#13;&#10;&#9;&#9;c0,0.107-0.026,0.219-0.079,0.336c-0.054,0.118-0.08,0.293-0.08,0.528l0.031,0.768c0.021,0.235,0.032,0.822,0.032,1.76l-0.032,2.72&#13;&#10;&#9;&#9;c0,0.406,0.149,0.608,0.448,0.608L11.142,9.197z M7.974,22.285l-0.031-0.961c0-1.387-0.027-2.139-0.08-2.256&#13;&#10;&#9;&#9;c-0.054-0.117-0.112-0.176-0.177-0.176c-0.213,0-0.821,0.491-1.824,1.473c-1.003,0.98-1.504,1.674-1.504,2.08&#13;&#10;&#9;&#9;c0,0.256,0.347,0.484,1.04,0.688c0.693,0.203,1.189,0.304,1.488,0.304C7.611,23.437,7.974,23.053,7.974,22.285z M26.182,15.533&#13;&#10;&#9;&#9;c0,0.683-0.224,2.107-0.672,4.272c-0.447,2.166-0.858,3.701-1.231,4.607c-0.374,0.907-0.699,1.36-0.977,1.36&#13;&#10;&#9;&#9;c-0.128,0-0.331-0.091-0.607-0.272c-0.277-0.181-0.684-0.484-1.217-0.911s-0.875-0.667-1.023-0.72&#13;&#10;&#9;&#9;c-0.149-0.053-0.272-0.069-0.368-0.049c-0.096,0.021-0.363,0.064-0.8,0.129c-0.438,0.063-1.051,0.207-1.84,0.432&#13;&#10;&#9;&#9;c-0.79,0.224-1.419,0.426-1.889,0.607c-0.469,0.182-0.783,0.272-0.943,0.272s-0.305-0.149-0.433-0.448&#13;&#10;&#9;&#9;c-0.234-0.512-0.384-0.82-0.447-0.928c-0.448-0.875-0.875-1.984-1.28-3.328s-0.608-2.293-0.608-2.848&#13;&#10;&#9;&#9;c0-0.277,0.069-0.459,0.208-0.545c0.139-0.084,0.485-0.41,1.04-0.976c0.555-0.565,0.901-0.97,1.04-1.216&#13;&#10;&#9;&#9;c0.139-0.245,0.299-0.368,0.48-0.368c0.181,0,0.453,0.134,0.815,0.4c0.363,0.267,0.544,0.464,0.544,0.592s-0.213,0.331-0.64,0.608&#13;&#10;&#9;&#9;c-0.832,0.533-1.248,1.119-1.248,1.76c0,0.299,0.037,0.502,0.112,0.607c0.074,0.107,0.24,0.16,0.496,0.16l0.735-0.064&#13;&#10;&#9;&#9;c0.342,0,0.565,0.076,0.672,0.225c0.107,0.149,0.16,0.406,0.16,0.768c0,0.363-0.128,0.588-0.384,0.672&#13;&#10;&#9;&#9;c-0.384,0.129-0.651,0.262-0.8,0.4c-0.149,0.139-0.224,0.336-0.224,0.592c0,0.918,0.213,1.377,0.64,1.377&#13;&#10;&#9;&#9;c0.106,0,0.288-0.037,0.544-0.112s0.496-0.134,0.72-0.177c0.225-0.042,0.362-0.116,0.416-0.224&#13;&#10;&#9;&#9;c0.053-0.106,0.074-0.282,0.064-0.528c-0.012-0.244-0.017-0.475-0.017-0.688l0.097-4.896c0-1.493-0.021-2.394-0.064-2.704&#13;&#10;&#9;&#9;c-0.043-0.309-0.197-0.464-0.464-0.464s-0.875,0.102-1.824,0.304s-1.547,0.384-1.792,0.544c-0.245,0.16-0.47,0.24-0.672,0.24&#13;&#10;&#9;&#9;c-0.203,0-0.432-0.24-0.688-0.72c-0.257-0.48-0.385-0.789-0.385-0.928c0-0.139,0.037-0.261,0.112-0.368&#13;&#10;&#9;&#9;c0.074-0.106,0.176-0.192,0.304-0.256s0.256-0.085,0.385-0.064h0.384c0.234,0,0.96-0.16,2.176-0.48s1.909-0.533,2.08-0.64&#13;&#10;&#9;&#9;c0.17-0.106,0.256-0.309,0.256-0.608c0-0.853-0.16-1.28-0.479-1.28c-0.064,0-0.262,0.032-0.593,0.096s-0.592,0.118-0.783,0.16&#13;&#10;&#9;&#9;c-0.576,0.171-1.174,0.256-1.793,0.256c-0.171,0-0.395-0.032-0.672-0.096S12.39,8.936,12.39,8.861s0.085-0.176,0.257-0.304&#13;&#10;&#9;&#9;l0.735-0.512c0.299-0.213,1.536-0.88,3.712-2c2.177-1.12,3.424-1.739,3.744-1.856c0.32-0.117,0.565-0.261,0.736-0.432&#13;&#10;&#9;&#9;C21.744,3.586,21.91,3.5,22.07,3.5s0.384,0.128,0.672,0.384s0.475,0.608,0.56,1.056c0.085,0.448,0.128,0.757,0.128,0.928&#13;&#10;&#9;&#9;c0,0.171-0.059,0.283-0.176,0.336c-0.117,0.054-0.235,0.075-0.352,0.064c-0.118-0.01-0.208-0.016-0.272-0.016&#13;&#10;&#9;&#9;c-0.491,0-1.285,0.181-2.384,0.544s-1.648,0.8-1.648,1.312c0,0.149,0.097,0.277,0.288,0.384c0.192,0.107,0.32,0.219,0.385,0.336&#13;&#10;&#9;&#9;c0.063,0.118,0.096,0.299,0.096,0.544c0,0.246,0.191,0.368,0.576,0.368c0.106,0,0.213-0.011,0.319-0.032&#13;&#10;&#9;&#9;c1.558-0.384,2.891-0.576,4-0.576c0.385,0,0.646,0.053,0.784,0.16c0.139,0.107,0.288,0.406,0.448,0.896&#13;&#10;&#9;&#9;c0.16,0.491,0.24,0.896,0.24,1.216c0,0.32-0.188,0.432-0.561,0.336s-0.917-0.144-1.632-0.144s-1.462,0.102-2.24,0.304&#13;&#10;&#9;&#9;s-1.285,0.352-1.52,0.448c-0.235,0.096-0.353,0.368-0.353,0.816l0.032,2.848c0,1.323-0.011,2.411-0.032,3.265l-0.063,1.951&#13;&#10;&#9;&#9;c0,0.15,0.048,0.271,0.144,0.368c0.097,0.097,0.208,0.155,0.336,0.176h0.353c0.362,0,0.544,0.262,0.544,0.784&#13;&#10;&#9;&#9;c0,0.523,0.245,0.784,0.735,0.784c0.235,0,0.427-0.134,0.576-0.399c0.149-0.268,0.31-0.753,0.48-1.457&#13;&#10;&#9;&#9;c0.17-0.703,0.256-1.168,0.256-1.392s-0.059-0.336-0.176-0.336c-0.118,0-0.315,0.026-0.592,0.08&#13;&#10;&#9;&#9;c-0.278,0.054-0.604,0.079-0.977,0.079s-0.56-0.191-0.56-0.575c0-0.661,0.319-1.045,0.96-1.152&#13;&#10;&#9;&#9;c0.811-0.128,1.274-0.239,1.392-0.336c0.117-0.096,0.176-0.272,0.176-0.528c0-0.469-0.074-0.794-0.224-0.976&#13;&#10;&#9;&#9;c-0.149-0.181-0.438-0.272-0.864-0.272s-0.688-0.025-0.784-0.08c-0.096-0.053-0.144-0.165-0.144-0.336&#13;&#10;&#9;&#9;c0-0.448,0.314-0.736,0.944-0.864c0.629-0.128,1.492-0.192,2.592-0.192C25.633,14.604,26.182,14.914,26.182,15.533z" stroke-width="1"/>
    </g>
    <g/>
    <g/>
    <g/>
    <g/>
    <g/>
    <g/>
    <g/>
    <g/>
    <g/>
    <g/>
    <g/>
    <g/>
    <g/>
    <g/>
    <g/>
  </g>
</svg>