<svg xmlns="http://www.w3.org/2000/svg" xmlns:xlink="http://www.w3.org/1999/xlink" version="1.1" id="图层_1" x="0px" y="0px" width="25.03000259399414" height="31.080001831054688" viewBox="1.6189978122711182 -0.966999739408493 25.03000259399414 31.080001831054688" style="enable-background:new 0 0 30 30;" xml:space="preserve">
  <g>
    <g>
      <path style="fill:#0000FF;" d="M15.43,19.469c0.021,1.109,0.017,2.271-0.016,3.488c-0.032,1.216-0.048,1.855-0.048,1.92&#13;&#10;&#9;&#9;c0,1.748,0.085,2.912,0.256,3.488c0.063,0.234,0.096,0.453,0.096,0.655s-0.139,0.353-0.416,0.448s-0.688,0.145-1.231,0.145&#13;&#10;&#9;&#9;s-0.816-0.139-0.816-0.416c0-0.086,0.032-0.182,0.096-0.289c0.214-0.362,0.32-1.099,0.32-2.207c0-1.109-0.027-2.348-0.08-3.713&#13;&#10;&#9;&#9;c-0.054-1.365-0.123-2.176-0.208-2.432s-0.191-0.384-0.319-0.384c-0.129,0-0.268,0.054-0.416,0.159&#13;&#10;&#9;&#9;c-1.516,1.152-2.63,1.969-3.345,2.449c-0.715,0.479-1.163,0.811-1.344,0.991c-0.182,0.182-0.294,0.433-0.336,0.753&#13;&#10;&#9;&#9;c-0.043,0.49-0.459,0.853-1.248,1.088c-0.79,0.234-1.424,0.352-1.904,0.352s-0.992-0.059-1.536-0.176s-0.816-0.246-0.816-0.385&#13;&#10;&#9;&#9;s0.16-0.271,0.48-0.399c1.557-0.619,2.709-1.12,3.456-1.505c0.747-0.383,1.478-0.906,2.192-1.567s1.435-1.435,2.16-2.319&#13;&#10;&#9;&#9;c0.725-0.886,1.125-1.393,1.2-1.521c0.074-0.128,0.111-0.224,0.111-0.288c0-0.191-0.096-0.288-0.288-0.288&#13;&#10;&#9;&#9;c-0.191,0-0.832,0.177-1.92,0.528s-1.766,0.661-2.032,0.928c-0.267,0.268-0.475,0.4-0.623,0.4c-0.342,0-0.513-0.576-0.513-1.729&#13;&#10;&#9;&#9;s0.213-2.448,0.641-3.888c0.426-1.44,0.853-2.16,1.279-2.16c0.128,0,0.314,0.048,0.561,0.144c0.245,0.096,0.479,0.144,0.704,0.144&#13;&#10;&#9;&#9;c0.224,0,0.634-0.085,1.231-0.256l1.504-0.416c0.385-0.107,0.608-0.203,0.672-0.288c0.064-0.085,0.097-0.256,0.097-0.512&#13;&#10;&#9;&#9;s-0.06-0.544-0.176-0.864c-0.118-0.32-0.24-0.522-0.368-0.608s-0.288-0.128-0.48-0.128c-0.405,0-1.323,0.278-2.752,0.832&#13;&#10;&#9;&#9;C9.019,9.73,8.833,9.772,8.694,9.772c-0.14,0-0.299-0.229-0.48-0.688C8.032,8.626,7.942,8.328,7.942,8.188&#13;&#10;&#9;&#9;c0-0.138,0.048-0.224,0.144-0.256C8.182,7.901,8.363,7.885,8.63,7.885s0.726-0.106,1.376-0.32c0.65-0.213,1.27-0.368,1.856-0.464&#13;&#10;&#9;&#9;c0.586-0.096,1.168-0.229,1.744-0.4c0.575-0.17,0.986-0.362,1.231-0.576c0.245-0.213,0.667-0.736,1.264-1.568&#13;&#10;&#9;&#9;c0.598-0.832,1.205-1.749,1.824-2.752c0.619-1.002,0.949-1.632,0.992-1.888c0.043-0.256,0.208-0.384,0.496-0.384&#13;&#10;&#9;&#9;s0.677,0.187,1.168,0.56c0.49,0.374,0.736,0.656,0.736,0.848c0,0.192-0.128,0.336-0.385,0.432c-0.256,0.096-0.603,0.363-1.04,0.8&#13;&#10;&#9;&#9;c-0.438,0.438-0.949,1.008-1.535,1.712C17.771,4.589,17.435,5,17.35,5.117c-0.085,0.118-0.128,0.235-0.128,0.352&#13;&#10;&#9;&#9;c0,0.118,0.139,0.149,0.416,0.096c0.277-0.053,0.576-0.08,0.896-0.08c0.811,0,1.696,0.267,2.656,0.8&#13;&#10;&#9;&#9;c0.96,0.534,1.439,0.907,1.439,1.12c0,0.213-0.191,0.501-0.576,0.864c-0.384,0.363-0.709,0.726-0.976,1.088&#13;&#10;&#9;&#9;c-0.268,0.363-0.55,0.651-0.848,0.864c-0.192,0.149-0.288,0.523-0.288,1.12c0,0.171-0.075,0.288-0.225,0.352&#13;&#10;&#9;&#9;s-0.411,0.107-0.784,0.128c-0.373,0.021-0.917,0.112-1.632,0.272s-1.173,0.272-1.376,0.336s-0.319,0.262-0.352,0.592&#13;&#10;&#9;&#9;c-0.032,0.331-0.048,0.646-0.048,0.944c0,0.405,0.08,0.608,0.239,0.608c0.16,0,0.305-0.011,0.433-0.032&#13;&#10;&#9;&#9;c1.621-0.405,3.168-0.608,4.64-0.608s2.442,0.102,2.912,0.304c0.469,0.203,0.986,0.448,1.552,0.736s0.849,0.523,0.849,0.704&#13;&#10;&#9;&#9;c0,0.182-0.08,0.353-0.24,0.512c-0.16,0.16-0.315,0.4-0.464,0.72c-0.299,0.748-0.636,1.457-1.008,2.129&#13;&#10;&#9;&#9;c-0.374,0.672-0.624,1.184-0.753,1.535c-0.128,0.353-0.352,1.084-0.672,2.192c-0.171,0.576-0.447,0.864-0.832,0.864&#13;&#10;&#9;&#9;c-0.149,0-0.395-0.096-0.735-0.288c-0.342-0.192-0.662-0.341-0.96-0.448c-0.918-0.32-1.884-0.805-2.896-1.456&#13;&#10;&#9;&#9;c-1.014-0.65-1.52-1.104-1.52-1.36c0-0.17,0.074-0.256,0.224-0.256s0.353,0.054,0.608,0.16c0.256,0.107,0.709,0.225,1.359,0.352&#13;&#10;&#9;&#9;c0.65,0.129,1.194,0.193,1.632,0.193s0.784-0.134,1.04-0.4c0.257-0.267,0.513-0.801,0.769-1.6c0.256-0.801,0.384-1.457,0.384-1.969&#13;&#10;&#9;&#9;s-0.139-0.853-0.416-1.024c-0.277-0.17-0.672-0.256-1.184-0.256c-0.513,0-1.072,0.102-1.681,0.304&#13;&#10;&#9;&#9;c-0.607,0.203-1.227,0.342-1.855,0.416c-0.63,0.076-1.04,0.166-1.232,0.272c-0.191,0.106-0.288,0.384-0.288,0.832V19.469z&#13;&#10;&#9;&#9; M14.534,2.445c0,0.213-0.353,0.597-1.057,1.152c-0.703,0.555-1.333,1.109-1.888,1.664c-0.555,0.555-0.976,0.832-1.264,0.832&#13;&#10;&#9;&#9;s-0.715-0.373-1.28-1.12C8.48,4.226,8.198,3.778,8.198,3.629s0.106-0.224,0.319-0.224l0.48,0.032c0.362,0,0.816-0.09,1.36-0.272&#13;&#10;&#9;&#9;c0.544-0.181,1.242-0.384,2.096-0.608c0.853-0.224,1.413-0.336,1.68-0.336S14.534,2.296,14.534,2.445z M13.222,14.637&#13;&#10;&#9;&#9;c0-0.491-0.037-0.827-0.111-1.008c-0.075-0.181-0.208-0.272-0.4-0.272s-0.518,0.08-0.976,0.24c-0.459,0.16-0.901,0.24-1.328,0.24&#13;&#10;&#9;&#9;c-0.576,0-0.977,0.272-1.2,0.816s-0.336,0.971-0.336,1.28c0,0.31,0.091,0.464,0.271,0.464c0.182,0,0.789-0.128,1.824-0.384&#13;&#10;&#9;&#9;s1.632-0.411,1.792-0.464s0.277-0.144,0.353-0.272C13.185,15.149,13.222,14.936,13.222,14.637z M16.006,10.188&#13;&#10;&#9;&#9;c0.021,0,0.112-0.026,0.272-0.08s0.426-0.123,0.8-0.208c0.373-0.085,0.645-0.176,0.815-0.272c0.171-0.096,0.331-0.32,0.48-0.672&#13;&#10;&#9;&#9;s0.224-0.677,0.224-0.976c0-0.554-0.299-0.832-0.896-0.832c-0.214,0-0.507,0.048-0.88,0.144c-0.374,0.096-0.624,0.187-0.752,0.272&#13;&#10;&#9;&#9;c-0.128,0.086-0.198,0.208-0.208,0.368c-0.012,0.16-0.017,0.336-0.017,0.528l-0.063,1.472&#13;&#10;&#9;&#9;C15.782,10.104,15.856,10.188,16.006,10.188z" stroke-width="1"/>
    </g>
    <g/>
    <g/>
    <g/>
    <g/>
    <g/>
    <g/>
    <g/>
    <g/>
    <g/>
    <g/>
    <g/>
    <g/>
    <g/>
    <g/>
    <g/>
  </g>
</svg>