<svg xmlns="http://www.w3.org/2000/svg" xmlns:xlink="http://www.w3.org/1999/xlink" version="1.1" id="图层_1" x="0px" y="0px" width="25.705001831054688" height="25.928003311157227" viewBox="1.4439997673034668 1.5980000495910645 25.705001831054688 25.928003311157227" enable-background="new 0 0 30 30" xml:space="preserve">
<g>
	<path fill="#0000FF" d="M13.463,6.194c0.106-1.536,0.16-2.501,0.16-2.896c0-0.395,0.042-0.645,0.128-0.752   c0.085-0.106,0.256-0.208,0.512-0.304c0.256-0.096,0.496-0.144,0.721-0.144c0.224,0,0.512,0.091,0.863,0.272   c0.353,0.182,0.528,0.347,0.528,0.496s-0.027,0.325-0.08,0.528c-0.054,0.203-0.075,0.411-0.063,0.624   c0.01,0.213,0.016,0.374,0.016,0.48c0,0.811-0.075,1.44-0.224,1.888c-0.107,0.32-0.16,0.629-0.16,0.928   c0,1.238,0.128,1.856,0.384,1.856s0.843-0.138,1.76-0.416c0.576-0.149,1.013-0.224,1.313-0.224c0.554,0,0.832,0.283,0.832,0.848   c0,0.565-0.049,0.998-0.145,1.296c-0.096,0.299-0.219,0.512-0.368,0.64s-0.39,0.251-0.72,0.368   c-0.331,0.117-0.779,0.304-1.344,0.56c-0.565,0.256-0.977,0.427-1.232,0.512c-0.256,0.085-0.427,0.246-0.512,0.48   c-0.086,0.235-0.128,0.635-0.128,1.2c0,0.565,0.037,0.901,0.112,1.008c0.074,0.106,0.191,0.16,0.352,0.16s1.141-0.075,2.944-0.224   c1.802-0.149,3.028-0.304,3.68-0.464c0.65-0.16,1.125-0.24,1.424-0.24c0.661,0,1.114,0.283,1.36,0.848   c0.245,0.565,0.484,0.987,0.72,1.265c0.234,0.277,0.353,0.564,0.353,0.863c0,0.47-0.16,0.704-0.48,0.704   c-0.171,0-0.565-0.069-1.184-0.208c-0.619-0.139-1.494-0.271-2.624-0.4c-1.132-0.127-2.032-0.191-2.704-0.191   s-1.456,0.059-2.353,0.176c-0.896,0.117-1.435,0.213-1.616,0.288c-0.181,0.075-0.438,0.277-0.768,0.608   c-0.331,0.33-0.624,0.683-0.88,1.056c-0.256,0.374-0.485,0.735-0.688,1.088c-0.202,0.353-0.304,0.581-0.304,0.688   c0,0.213,0.181,0.319,0.544,0.319c0.362,0,0.646-0.032,0.849-0.096c0.202-0.063,0.506-0.245,0.911-0.544   c0.981-0.704,1.824-1.057,2.528-1.057s1.44,0.268,2.208,0.801c0.769,0.533,1.376,1.312,1.824,2.336   c0.448,1.023,0.672,1.914,0.672,2.672c0,0.757-0.262,1.136-0.784,1.136s-1.2-0.294-2.032-0.88   c-0.832-0.587-1.248-1.051-1.248-1.393c0-0.17,0.225-0.319,0.673-0.447c0.938-0.256,1.407-0.736,1.407-1.439   c0-0.342-0.133-0.73-0.399-1.168c-0.268-0.438-0.624-0.656-1.072-0.656s-0.955,0.207-1.52,0.623   c-0.566,0.416-0.881,0.955-0.944,1.617c-0.064,0.66-0.166,1.061-0.304,1.199c-0.14,0.139-0.342,0.197-0.608,0.176   s-0.507-0.031-0.72-0.031c-1.259,0-2.667,0.266-4.225,0.8c-1.558,0.532-2.421,0.906-2.592,1.12c-0.171,0.213-0.32,0.32-0.448,0.32   s-0.229-0.107-0.304-0.32c-0.075-0.214-0.224-0.545-0.448-0.992c-0.224-0.448-0.39-0.764-0.496-0.944   c-0.107-0.181-0.16-0.368-0.16-0.56c0-0.363,0.181-0.555,0.544-0.576s0.864-0.288,1.504-0.801c0.64-0.512,1.264-1.188,1.872-2.031   c0.607-0.843,0.912-1.371,0.912-1.584s-0.14-0.288-0.416-0.225c-1.195,0.299-2.374,0.502-3.536,0.608   c-1.163,0.106-2.091,0.24-2.784,0.399c-0.693,0.16-1.125,0.332-1.296,0.513c-0.171,0.182-0.336,0.272-0.496,0.272   c-0.16,0-0.32-0.192-0.48-0.576c-0.16-0.385-0.24-0.709-0.24-0.977c0-0.266,0.213-0.421,0.64-0.464   c0.875-0.085,1.867-0.267,2.976-0.544l3.328-0.992l3.104-0.8c0.191-0.063,0.352-0.154,0.479-0.272   c0.128-0.116,0.213-0.303,0.256-0.56c0.129-0.64,0.192-1.173,0.192-1.6c0-0.213-0.192-0.32-0.576-0.32h-1.216   c-0.277,0-0.587,0.032-0.928,0.096c-0.342,0.064-0.565,0.123-0.672,0.176c-0.107,0.054-0.203,0.08-0.288,0.08   c-0.299,0-0.48-0.192-0.544-0.576c-0.149-0.832-0.268-1.386-0.353-1.664c-0.085-0.277-0.128-0.512-0.128-0.704   c0-0.192,0.091-0.331,0.272-0.416c0.181-0.085,0.506-0.139,0.976-0.16c0.469-0.021,1.093-0.085,1.872-0.192   c0.778-0.106,1.248-0.181,1.408-0.224c0.16-0.042,0.276-0.106,0.352-0.192c0.075-0.085,0.112-0.192,0.112-0.32L13.463,6.194z" stroke-width="1"/>
</g>
</svg>