<svg xmlns="http://www.w3.org/2000/svg" xmlns:xlink="http://www.w3.org/1999/xlink" version="1.1" id="图层_1" x="0px" y="0px" width="27.078998565673828" height="28.360000610351562" viewBox="-0.5409986674785614 2.1129965782165527 27.078998565673828 28.360000610351562" enable-background="new 0 0 30 30" xml:space="preserve">
<g>
	<path fill="#0000FF" d="M11.351,6.482c0,0.149,0.165,0.283,0.496,0.4C12.178,7,12.492,7.069,12.791,7.09   c1.066,0.043,1.6,0.416,1.6,1.12c0,0.342-0.149,0.646-0.447,0.912c-0.3,0.267-0.608,0.4-0.929,0.4c-0.469,0-0.789-0.128-0.96-0.384   c-0.49-0.683-0.991-1.024-1.504-1.024c-0.512,0-0.88,0.08-1.104,0.24c-0.225,0.16-0.806,0.736-1.744,1.728   c-0.939,0.992-1.525,1.686-1.76,2.08c-0.235,0.395-0.352,0.891-0.352,1.488c0,0.598-0.059,0.971-0.176,1.12   c-0.118,0.149-0.47,0.421-1.056,0.815c-0.587,0.396-1.392,0.832-2.416,1.313s-1.6,0.721-1.728,0.721   c-0.171,0-0.256-0.075-0.256-0.225c0-0.148,0.288-0.661,0.864-1.536c0.576-0.875,1.365-1.771,2.368-2.688   c0.128-0.106,0.389-0.426,0.784-0.96c0.395-0.533,0.677-0.944,0.848-1.232s0.597-0.901,1.28-1.84C6.786,8.2,7.298,7.518,7.639,7.09   c0.917-1.088,1.729-2.346,2.433-3.776c0.234-0.426,0.475-0.64,0.72-0.64s0.56,0.064,0.944,0.192   c0.384,0.128,0.725,0.352,1.023,0.672s0.448,0.56,0.448,0.72c0,0.16-0.203,0.374-0.608,0.64c-0.405,0.267-0.715,0.555-0.928,0.864   C11.457,6.072,11.351,6.312,11.351,6.482z M13.559,15.09c0,0.342-0.059,0.555-0.176,0.64c-0.117,0.086-0.373,0.139-0.768,0.16   c-0.396,0.021-0.779,0.069-1.152,0.145c-0.373,0.074-0.607,0.133-0.704,0.176c-0.096,0.043-0.155,0.154-0.176,0.336   c-0.021,0.182-0.032,0.363-0.032,0.543c0,0.182,0.117,0.316,0.353,0.4c0.447,0.192,0.752,0.363,0.912,0.512   c0.159,0.15,0.324,0.412,0.495,0.785s0.257,0.677,0.257,0.912c0,0.234-0.14,0.352-0.416,0.352c-0.107,0-0.374-0.059-0.801-0.176   s-0.672-0.176-0.735-0.176c-0.192,0-0.288,0.25-0.288,0.752c0,0.501,0.011,0.906,0.032,1.215c0.021,0.311,0.031,0.625,0.031,0.944   c0,0.875-0.117,1.312-0.352,1.312c-0.086,0-0.507-0.144-1.264-0.432c-0.758-0.287-1.596-0.783-2.512-1.488   c-0.085-0.063-0.182-0.096-0.288-0.096c-0.107,0-0.192,0.037-0.256,0.112c-0.064,0.075-0.176,0.283-0.336,0.624   c-0.16,0.342-0.293,0.555-0.4,0.641c-0.107,0.085-0.272,0.127-0.496,0.127c-0.224,0-0.533-0.154-0.928-0.464   c-0.395-0.309-0.592-0.507-0.592-0.592c0-0.106,0.171-0.331,0.512-0.672l1.344-1.824C5.74,18.6,6.199,17.891,6.199,17.73   s-0.054-0.24-0.16-0.24c-0.107,0-0.277,0.049-0.512,0.145s-0.421,0.197-0.56,0.304s-0.272,0.16-0.4,0.16s-0.261-0.149-0.4-0.448   c-0.139-0.299-0.208-0.512-0.208-0.64s0.096-0.24,0.288-0.337c0.192-0.096,0.56-0.25,1.104-0.463s0.97-0.342,1.28-0.385   c0.309-0.042,0.693-0.144,1.152-0.304c0.458-0.16,0.725-0.288,0.8-0.384c0.074-0.096,0.112-0.32,0.112-0.672   c0-0.352-0.075-0.528-0.225-0.528l-0.288,0.064c-0.213,0-0.384-0.112-0.512-0.336s-0.331-0.56-0.608-1.008   c-0.277-0.448-0.416-0.736-0.416-0.864s0.085-0.192,0.256-0.192l0.417,0.064c0.276,0,1.023-0.218,2.239-0.656   c1.217-0.437,1.947-0.656,2.192-0.656s0.41,0.139,0.496,0.416c0.085,0.277,0.128,0.507,0.128,0.688   c0,0.182-0.102,0.427-0.304,0.736c-0.203,0.31-0.485,0.592-0.849,0.848c-0.234,0.149-0.352,0.47-0.352,0.96   c0,0.213,0.069,0.32,0.208,0.32s0.33-0.053,0.576-0.16c0.245-0.106,0.512-0.16,0.8-0.16s0.544,0.123,0.768,0.368   C13.447,14.616,13.559,14.856,13.559,15.09z M7.415,21.427c0.299,0,0.56-0.059,0.784-0.177c0.224-0.117,0.373-0.229,0.448-0.336   c0.074-0.105,0.111-0.324,0.111-0.656c0-0.33-0.011-0.848-0.032-1.551c-0.021-0.705-0.037-1.1-0.048-1.185   s-0.053-0.154-0.128-0.208c-0.075-0.053-0.187-0.08-0.336-0.08s-0.267,0.096-0.352,0.288c-0.576,1.345-1.035,2.368-1.376,3.072   c-0.064,0.149-0.096,0.288-0.096,0.416s0.117,0.229,0.352,0.304C6.978,21.39,7.201,21.427,7.415,21.427z M24.535,14.867   c0.191,0,0.352,0.059,0.479,0.176c0.128,0.118,0.331,0.454,0.608,1.008s0.416,0.971,0.416,1.248s-0.037,0.464-0.112,0.56   c-0.075,0.097-0.203,0.144-0.384,0.144c-0.182,0-0.479-0.047-0.896-0.144c-0.416-0.096-0.816-0.144-1.2-0.144   c-1.152,0-1.782,0.111-1.889,0.336c-0.106,0.224-0.159,1.199-0.159,2.928l0.063,2.977c0,0.789-0.027,1.349-0.08,1.68   c-0.054,0.33-0.069,0.858-0.048,1.584v1.729c0,0.383-0.112,0.65-0.336,0.799c-0.224,0.15-0.604,0.225-1.136,0.225   c-0.534,0-0.8-0.191-0.8-0.576c0-0.15,0.031-0.342,0.096-0.576c0.276-0.875,0.416-2.208,0.416-4c0-0.703-0.043-1.578-0.128-2.624   c-0.086-1.045-0.128-1.925-0.128-2.64s-0.021-1.115-0.064-1.2s-0.149-0.128-0.32-0.128s-0.597,0.043-1.279,0.128   c-0.684,0.085-1.366,0.251-2.048,0.496c-0.684,0.245-1.11,0.438-1.28,0.576c-0.171,0.139-0.331,0.208-0.48,0.208   s-0.352-0.245-0.607-0.736c-0.256-0.49-0.384-0.826-0.384-1.008s0.181-0.305,0.544-0.368c0.362-0.063,0.938-0.196,1.728-0.399   s1.397-0.379,1.824-0.528s1.066-0.331,1.92-0.544c0.277-0.086,0.416-0.203,0.416-0.352v-1.665l0.063-6.88l-0.031-3.776   c0-0.512,0.165-0.768,0.496-0.768c0.33,0,0.848,0.171,1.552,0.512c0.704,0.341,1.056,0.592,1.056,0.752s-0.075,0.331-0.224,0.512   c-0.149,0.181-0.262,0.517-0.336,1.008c-0.075,0.491-0.107,0.928-0.097,1.312s0.017,0.95,0.017,1.696   c0,0.747-0.027,1.494-0.08,2.24c-0.054,0.747-0.08,1.291-0.08,1.632c0,0.342,0.021,0.709,0.063,1.104   c0.043,0.395,0.059,0.763,0.049,1.104c-0.012,0.342-0.017,0.534-0.017,0.576c0,0.192,0.069,0.288,0.208,0.288   s0.262-0.011,0.368-0.032C23.447,15.016,24.193,14.867,24.535,14.867z M18.039,14.546c0,0.192-0.037,0.357-0.112,0.496   c-0.075,0.139-0.283,0.251-0.624,0.336c-0.341,0.085-0.629,0.127-0.863,0.127c-1.11,0-1.664-0.65-1.664-1.951   c0-0.341,0.026-0.56,0.08-0.656c0.053-0.096,0.133-0.144,0.239-0.144s0.213,0.043,0.32,0.128c0.256,0.171,0.704,0.32,1.344,0.448   C17.612,13.48,18.039,13.886,18.039,14.546z M18.743,11.25c0,0.277-0.102,0.501-0.304,0.672c-0.203,0.171-0.443,0.256-0.721,0.256   c-0.832,0-1.461-0.229-1.888-0.688c-0.427-0.458-0.64-1.029-0.64-1.712c0-0.32,0.058-0.624,0.176-0.912   c0.117-0.288,0.24-0.432,0.368-0.432s0.271,0.08,0.432,0.24c0.16,0.16,0.522,0.406,1.088,0.736   c0.565,0.331,0.955,0.646,1.168,0.944C18.636,10.653,18.743,10.952,18.743,11.25z" stroke-width="1"/>
</g>
</svg>