<svg xmlns="http://www.w3.org/2000/svg" xmlns:xlink="http://www.w3.org/1999/xlink" version="1.1" id="图层_1" x="0px" y="0px" width="26.727001190185547" height="26.472993850708008" viewBox="2.7559990882873535 1.7890050411224365 26.727001190185547 26.472993850708008" enable-background="new 0 0 30 30" xml:space="preserve">
<g>
	<path fill="#0000FF" d="M11.063,5.586c0,0.107-0.054,0.224-0.16,0.352c-0.32,0.363-0.704,0.944-1.152,1.744   c-0.448,0.8-0.672,1.429-0.672,1.888c0,0.459,0.085,0.843,0.256,1.152c0.171,0.31,0.314,0.795,0.432,1.456s0.177,1.173,0.177,1.536   c0,0.363-0.021,0.683-0.064,0.96c-0.043,0.278-0.063,0.518-0.063,0.72c0,0.203-0.097,0.305-0.288,0.305   c-0.192,0-0.448-0.054-0.769-0.16c-0.319-0.107-0.735-0.203-1.248-0.289c-0.512-0.085-0.992-0.331-1.44-0.736   c-0.085-0.085-0.187-0.128-0.304-0.128c-0.118,0-0.192,0.171-0.224,0.512c-0.032,0.342-0.091,0.844-0.176,1.504   c-0.086,0.662-0.139,1.516-0.16,2.561l-0.032,3.359c-0.021,2.006-0.043,3.082-0.064,3.232c-0.021,0.148-0.293,0.224-0.816,0.224   c-0.523,0-0.827-0.048-0.912-0.144c-0.085-0.096-0.128-0.336-0.128-0.721c0-0.383,0.053-1.567,0.16-3.552   c0.106-1.983,0.165-3.259,0.176-3.823c0.011-0.565,0.016-1.297,0.016-2.192l-0.032-3.232c0-0.981-0.021-1.963-0.064-2.944   L3.447,6.867c0-0.64,0.245-0.96,0.736-0.96c0.683,0,1.386-0.149,2.112-0.448c1.173-0.49,2-0.736,2.48-0.736   c0.479,0,0.98,0.08,1.504,0.24C10.802,5.123,11.063,5.331,11.063,5.586z M6.711,13.555c0.597,0,0.986-0.085,1.168-0.256   c0.181-0.17,0.272-0.634,0.272-1.392s-0.107-1.392-0.32-1.904C7.745,9.704,7.703,9.378,7.703,9.026s0.021-0.682,0.063-0.992   c0.043-0.309,0.064-0.56,0.064-0.752c0-0.576-0.171-0.864-0.512-0.864c-0.149,0-0.396,0.149-0.736,0.448   c-0.341,0.299-0.544,0.539-0.608,0.72C5.911,7.768,5.826,8.333,5.719,9.283s-0.16,1.792-0.16,2.528s0.059,1.211,0.176,1.424   C5.852,13.448,6.178,13.555,6.711,13.555z M28.983,26.643c0,0.064-0.07,0.133-0.208,0.208c-0.14,0.074-0.561,0.213-1.265,0.415   c-0.704,0.203-1.253,0.326-1.647,0.369c-0.396,0.043-1.062,0.064-2,0.064l-1.568,0.063c-0.427,0-0.758-0.16-0.992-0.479   c-0.447-0.662-0.938-1.132-1.472-1.408c-0.533-0.277-1.296-0.459-2.288-0.545c-0.992-0.085-2.011-0.384-3.056-0.896   c-1.345-0.661-2.518-0.992-3.521-0.992s-1.983,0.16-2.943,0.479c-0.192,0.064-0.363,0.097-0.513,0.097s-0.314-0.192-0.496-0.576   c-0.182-0.384-0.283-0.629-0.304-0.735c0-0.277,0.149-0.385,0.448-0.32c0.063,0.021,0.213,0.031,0.448,0.031   c0.234,0,0.495-0.047,0.783-0.144c0.288-0.096,0.624-0.187,1.009-0.272c0.276-0.063,0.416-0.229,0.416-0.496   c0-0.266-0.021-0.452-0.064-0.56c-0.32-0.64-0.512-1.322-0.576-2.048c-0.063-0.725-0.191-1.205-0.384-1.439   c-0.064-0.064-0.096-0.16-0.096-0.289c0-0.127,0.031-0.244,0.096-0.352c0.064-0.106,0.139-0.16,0.224-0.16s0.31,0.059,0.672,0.176   c0.363,0.118,0.854,0.252,1.473,0.4c0.234,0.064,0.352,0.16,0.352,0.288s-0.032,0.267-0.096,0.416   c-0.192,0.448-0.288,0.944-0.288,1.488s0.064,1.008,0.192,1.392c0.128,0.385,0.261,0.63,0.399,0.736   c0.139,0.107,0.39,0.191,0.752,0.256c1.066,0.171,2.026,0.523,2.88,1.057s2.139,1.051,3.856,1.551   c1.717,0.502,3.003,0.785,3.856,0.849c1.45,0.106,2.8,0.304,4.048,0.592S28.983,26.408,28.983,26.643z M12.535,11.442   c0,0.192-0.069,0.507-0.208,0.944c-0.139,0.438-0.299,0.656-0.48,0.656s-0.479-0.304-0.896-0.912s-0.624-1.114-0.624-1.52   c0-0.277,0.096-0.416,0.288-0.416c0.191,0,0.469,0.08,0.832,0.24c0.362,0.16,0.634,0.32,0.815,0.48S12.535,11.25,12.535,11.442z    M24.631,7.858c0,0.32-0.043,0.523-0.128,0.608c-0.085,0.086-0.235,0.128-0.448,0.128s-0.447-0.016-0.704-0.048   c-0.256-0.032-0.667-0.048-1.231-0.048c-0.565,0-1.328,0.102-2.288,0.304s-1.525,0.496-1.696,0.88   c-0.171,0.384-0.256,0.64-0.256,0.768s0.096,0.192,0.288,0.192s0.352-0.032,0.48-0.096c0.469-0.149,1.018-0.224,1.647-0.224   c0.629,0,1.093,0.037,1.392,0.112s0.448,0.192,0.448,0.352c0,0.16-0.026,0.352-0.08,0.576c-0.053,0.224-0.08,0.539-0.08,0.944   l0.032,3.552l-0.063,4.608c0,0.427,0.021,0.854,0.063,1.279c0.043,0.428,0.064,0.651,0.064,0.672c0,0.385-0.123,0.576-0.368,0.576   c-0.246,0-0.741-0.186-1.488-0.56c-0.747-0.373-1.456-0.821-2.128-1.345c-0.672-0.521-1.008-0.842-1.008-0.959   s0.042-0.176,0.128-0.176c0.085,0,0.192,0.043,0.32,0.127c0.532,0.32,1.034,0.48,1.504,0.48c0.319,0,0.549-0.09,0.688-0.271   s0.208-0.662,0.208-1.44s-0.059-1.898-0.176-3.36s-0.24-2.379-0.368-2.752c-0.128-0.373-0.379-0.56-0.752-0.56   s-0.806,0.117-1.296,0.352c-0.491,0.235-0.736,0.587-0.736,1.056c0,0.128,0.097,0.213,0.288,0.256   c0.192,0.043,0.629,0.064,1.313,0.064c0.191,0,0.288,0.117,0.288,0.352c0,0.363-0.08,0.624-0.24,0.784s-0.464,0.331-0.912,0.512   c-0.448,0.182-0.699,0.32-0.752,0.416c-0.054,0.096-0.08,0.224-0.08,0.384s0.032,0.251,0.096,0.272   c0.064,0.021,0.293,0.031,0.688,0.031c0.395,0,0.65,0.032,0.768,0.096c0.117,0.064,0.177,0.252,0.177,0.561   c0,0.31-0.07,0.533-0.208,0.672c-0.14,0.139-0.448,0.246-0.929,0.32c-0.479,0.074-0.778,0.176-0.896,0.304   c-0.118,0.128-0.176,0.39-0.176,0.784s0.021,0.704,0.063,0.928c0.043,0.225,0.064,0.368,0.064,0.432   c0,0.363-0.342,0.545-1.024,0.545c-0.192,0-0.32-0.086-0.384-0.256c-0.064-0.171-0.096-0.57-0.096-1.201   c0-0.629,0.031-1.258,0.096-1.887c0.063-0.629,0.096-1.072,0.096-1.328c0-0.875-0.139-1.313-0.416-1.313   c-0.106,0-0.213,0.043-0.32,0.128c-0.447,0.384-0.938,0.576-1.472,0.576s-0.8-0.069-0.8-0.208s0.314-0.544,0.944-1.216   c0.629-0.672,1.104-1.269,1.424-1.792c0.319-0.523,0.624-1.104,0.912-1.744s0.432-1.013,0.432-1.12c0-0.213-0.08-0.32-0.24-0.32   s-0.442,0.059-0.848,0.176c-0.405,0.118-0.678,0.208-0.816,0.272s-0.251,0.096-0.336,0.096s-0.165-0.048-0.239-0.144   c-0.075-0.096-0.23-0.4-0.465-0.912c-0.234-0.512-0.352-0.827-0.352-0.944s0.085-0.176,0.256-0.176h0.256   c0.32,0,0.811-0.09,1.473-0.272c0.66-0.181,1.364-0.325,2.111-0.432c0.106-0.021,0.192-0.096,0.256-0.224   c0.064-0.128,0.208-0.576,0.433-1.344c0.224-0.768,0.389-1.696,0.496-2.784c0.042-0.427,0.17-0.64,0.384-0.64   c0.213,0,0.607,0.112,1.184,0.336s0.864,0.454,0.864,0.688c0,0.128-0.054,0.251-0.16,0.368s-0.245,0.454-0.416,1.008   c-0.171,0.555-0.256,1.04-0.256,1.456s0.16,0.592,0.48,0.528c0.682-0.085,1.248-0.149,1.695-0.192   c0.854-0.021,1.381-0.074,1.584-0.16s0.384-0.128,0.544-0.128s0.4,0.144,0.721,0.432C24.471,6.915,24.631,7.326,24.631,7.858z" stroke-width="1"/>
</g>
</svg>