<svg xmlns="http://www.w3.org/2000/svg" xmlns:xlink="http://www.w3.org/1999/xlink" version="1.1" id="图层_1" x="0px" y="0px" width="22.599998474121094" height="30.152997970581055" viewBox="2.6910009384155273 -0.1290002465248108 22.599998474121094 30.152997970581055" enable-background="new 0 0 30 30" xml:space="preserve">
<g>
	<path fill="#0000FF" d="M5.847,13.522c0,0.619,0.058,1.083,0.176,1.392c0.117,0.31,0.176,0.539,0.176,0.688   c0,0.47-0.203,0.704-0.608,0.704c-0.064,0-0.155-0.016-0.272-0.049c-0.117-0.031-0.368-0.068-0.752-0.111   c-0.917-0.106-1.376-0.362-1.376-0.768c0-0.256,0.203-0.672,0.608-1.248c0.405-0.576,0.779-0.986,1.12-1.232   c0.341-0.245,0.592-0.368,0.752-0.368c0.16,0,0.229,0.117,0.208,0.352C5.857,13.118,5.847,13.331,5.847,13.522z M17.847,22.898   c0,0.299-0.037,0.555-0.111,0.768c-0.075,0.214-0.203,0.32-0.385,0.32c-0.181,0-0.336-0.01-0.464-0.031s-0.277-0.033-0.447-0.033   c-0.704,0-2.08,0.229-4.129,0.688c-2.048,0.458-3.627,0.987-4.735,1.584c-0.128,0.063-0.256,0.097-0.384,0.097   c-0.128,0-0.315-0.112-0.561-0.336c-0.246-0.225-0.438-0.513-0.576-0.865c-0.139-0.352-0.208-0.613-0.208-0.783   c0-0.299,0.138-0.459,0.416-0.48c1.002-0.105,1.973-0.32,2.912-0.64c2.325-0.811,3.968-1.265,4.928-1.36   c0.961-0.096,1.573-0.186,1.841-0.271c0.267-0.085,0.475-0.128,0.624-0.128c0.148,0,0.399,0.159,0.752,0.479   C17.671,22.227,17.847,22.558,17.847,22.898z M17.239,8.274c1.151,0,2.362,0.246,3.632,0.736c1.269,0.491,2.24,1.195,2.912,2.112   c0.672,0.917,1.008,1.509,1.008,1.776c0,0.267-0.064,0.443-0.192,0.528s-0.575,0.192-1.344,0.32   c-0.768,0.128-1.493,0.192-2.176,0.192c-1.622,0-2.432-0.149-2.432-0.448c0-0.213,0.191-0.363,0.575-0.448   c1.217-0.298,1.824-0.853,1.824-1.664c0-0.384-0.128-0.768-0.384-1.152c-0.256-0.384-0.779-0.576-1.568-0.576   s-1.813,0.267-3.071,0.8c-0.747,0.299-1.345,0.48-1.792,0.544c-0.172,0.021-0.448,0.219-0.832,0.592   c-0.385,0.374-0.576,0.603-0.576,0.688c0,0.128,0.106,0.16,0.319,0.096c1.237-0.448,2.112-0.672,2.624-0.672   c0.513,0,1.051,0.085,1.616,0.256c0.565,0.171,0.849,0.416,0.849,0.736c0,0.128-0.097,0.443-0.288,0.944   c-0.192,0.502-0.305,0.987-0.336,1.456c-0.032,0.47-0.102,0.992-0.208,1.568l-0.288,1.473c0,0.213,0.085,0.309,0.256,0.287   c0.469-0.063,1.248-0.096,2.336-0.096s1.946,0.197,2.576,0.592c0.629,0.396,0.943,0.71,0.943,0.944   c0,0.063-0.021,0.149-0.063,0.257c-0.107,0.277-0.24,0.863-0.4,1.76c-0.16,0.896-0.427,1.744-0.8,2.543   c-0.373,0.801-0.72,1.707-1.04,2.721s-0.598,1.664-0.832,1.951c-0.235,0.289-0.55,0.434-0.944,0.434s-1.083-0.145-2.063-0.434   c-0.981-0.287-1.888-0.703-2.72-1.248c-0.832-0.543-1.248-0.911-1.248-1.104c0-0.086,0.053-0.128,0.159-0.128   c0.107,0,0.214,0.021,0.32,0.063c0.938,0.32,2.154,0.48,3.648,0.48c0.618,0,1.125-0.267,1.52-0.8   c0.395-0.534,0.726-1.462,0.992-2.784s0.4-2.176,0.4-2.56c0-0.981-0.556-1.472-1.664-1.472c-1.408,0-2.742,0.277-4,0.832   c-0.448,0.17-0.95,0.287-1.504,0.352c-0.32,0.021-0.684,0.171-1.089,0.447c-0.683,0.428-1.194,0.641-1.535,0.641   c-0.342,0-0.513-0.165-0.513-0.496c0-0.33,0.075-0.666,0.225-1.008c0.191-0.448,0.288-1.051,0.288-1.809   c0-0.756-0.027-1.418-0.08-1.983c-0.054-0.565-0.091-0.874-0.112-0.929c-0.021-0.053-0.054-0.08-0.096-0.08   c-0.064,0-0.235,0.16-0.513,0.48s-0.518,0.555-0.72,0.704c-0.203,0.149-0.443,0.224-0.72,0.224c-0.363,0-0.544-0.127-0.544-0.383   c0-0.257,0.128-0.513,0.384-0.769c0.597-0.619,1.253-1.413,1.968-2.384c0.715-0.97,1.072-1.525,1.072-1.664   c0-0.138-0.059-0.208-0.176-0.208c-0.118,0-0.405,0.048-0.864,0.144C9.5,11.747,9.041,11.87,8.583,12.019   c-0.459,0.149-0.827,0.224-1.104,0.224s-0.416-0.155-0.416-0.464c0-0.309,0.042-0.496,0.128-0.56   c0.085-0.064,0.256-0.096,0.512-0.096c0.448,0,0.9-0.106,1.36-0.32c0.458-0.213,0.82-0.373,1.088-0.48   c0.267-0.107,0.399-0.203,0.399-0.288c0-0.085-0.075-0.405-0.224-0.96c-0.149-0.555-0.235-0.859-0.256-0.912   c-0.021-0.053-0.097-0.08-0.225-0.08S9.516,8.152,9.239,8.291C8.962,8.43,8.748,8.499,8.599,8.499c-0.319,0-0.613-0.245-0.88-0.736   S7.319,6.92,7.319,6.707c0-0.213,0.106-0.362,0.319-0.448c0.213-0.085,0.704-0.202,1.473-0.352   c0.384-0.085,0.575-0.235,0.575-0.448L9.655,4.083c0-0.896,0.031-1.499,0.096-1.808c0.064-0.309,0.187-0.464,0.368-0.464   c0.181,0,0.645,0.069,1.392,0.208c0.747,0.139,1.12,0.357,1.12,0.656c0,0.086-0.021,0.192-0.063,0.32   c-0.192,0.64-0.288,1.216-0.288,1.728c0,0.256,0.096,0.384,0.288,0.384c1.344-0.277,2.059-0.432,2.144-0.464   c0.085-0.032,0.145-0.085,0.176-0.16c0.032-0.074,0.123-0.432,0.272-1.072c0.148-0.64,0.276-1.12,0.384-1.44   c0.106-0.32,0.16-0.667,0.16-1.04c0-0.373,0.181-0.56,0.544-0.56c0.148,0,0.522,0.064,1.12,0.192   c0.597,0.128,0.896,0.304,0.896,0.528c0,0.224-0.063,0.47-0.191,0.736c-0.128,0.267-0.268,0.656-0.416,1.168   c-0.149,0.512-0.225,0.8-0.225,0.864c0,0.171,0.085,0.256,0.256,0.256c0.043,0,0.214-0.043,0.513-0.128   c0.298-0.085,0.49-0.224,0.576-0.416c0.085-0.192,0.187-0.288,0.304-0.288s0.309,0.283,0.576,0.848   c0.267,0.565,0.399,0.992,0.399,1.28s-0.059,0.496-0.176,0.624s-0.245,0.203-0.384,0.224c-0.139,0.021-0.432,0.032-0.88,0.032   c-1.174,0-1.792,0.171-1.856,0.512l-0.191,1.216c0,0.107,0.036,0.176,0.111,0.208C16.754,8.258,16.94,8.274,17.239,8.274z    M12.183,19.539c0.149,0,0.48-0.08,0.992-0.24s0.789-0.256,0.832-0.288s0.064-0.091,0.064-0.177c0-0.084-0.064-0.148-0.192-0.191   c-0.661-0.277-1.237-0.544-1.728-0.801c-0.086-0.042-0.177-0.063-0.272-0.063s-0.144,0.075-0.144,0.224l-0.032,1.024   C11.703,19.368,11.863,19.539,12.183,19.539z M15.447,14.867c0-0.661-0.069-1.093-0.208-1.296c-0.14-0.202-0.433-0.304-0.88-0.304   c-0.448,0-0.896,0.064-1.345,0.192c-0.447,0.128-0.72,0.246-0.815,0.352c-0.097,0.107-0.145,0.24-0.145,0.4   s0.091,0.229,0.272,0.208c0.181-0.021,0.484-0.032,0.912-0.032c0.426,0,0.741,0.08,0.943,0.24c0.203,0.16,0.305,0.421,0.305,0.784   c0,0.491-0.246,0.736-0.736,0.736c-0.107,0-0.262-0.021-0.464-0.064c-0.203-0.042-0.454-0.063-0.752-0.063   c-0.299,0-0.496,0.026-0.592,0.08c-0.097,0.054-0.145,0.165-0.145,0.336s0.064,0.288,0.192,0.353   c0.128,0.063,0.469,0.203,1.023,0.416s0.966,0.319,1.232,0.319s0.464-0.069,0.592-0.208s0.261-0.453,0.4-0.943   C15.378,15.88,15.447,15.378,15.447,14.867z M12.695,9.267c0.021,0,0.133-0.037,0.336-0.112c0.202-0.074,0.421-0.149,0.655-0.224   c0.235-0.075,0.373-0.139,0.416-0.192c0.043-0.053,0.091-0.256,0.145-0.608c0.053-0.352,0.08-0.586,0.08-0.704   S14.263,7.25,14.135,7.25l-0.479,0.128c-0.385,0.085-0.699,0.144-0.944,0.176c-0.245,0.032-0.368,0.123-0.368,0.272l0.064,0.576   C12.449,8.979,12.546,9.267,12.695,9.267z" stroke-width="1"/>
</g>
</svg>