<svg xmlns="http://www.w3.org/2000/svg" xmlns:xlink="http://www.w3.org/1999/xlink" version="1.1" id="图层_1" x="0px" y="0px" width="29.28800392150879" height="24.358997344970703" viewBox="1.4109995365142822 2.7490005493164062 29.28800392150879 24.358997344970703" enable-background="new 0 0 30 30" xml:space="preserve">
<g>
	<path fill="#0000FF" d="M10.903,13.042c0,0.192-0.134,0.395-0.4,0.608c-0.267,0.214-0.501,0.773-0.704,1.68   s-0.688,1.851-1.456,2.832c-0.555,0.684-0.875,1.451-0.96,2.305c-0.043,0.342-0.134,0.592-0.272,0.752   c-0.139,0.16-0.485,0.384-1.04,0.672s-1.157,0.507-1.808,0.656c-0.651,0.148-1.206,0.224-1.664,0.224   c-0.459,0-0.688-0.112-0.688-0.336s0.16-0.433,0.48-0.624c2.048-1.258,3.488-2.581,4.32-3.969c0.832-1.386,1.248-2.42,1.248-3.104   c0-0.405-0.171-0.608-0.512-0.608c-0.149,0-0.544,0.176-1.184,0.528c-0.64,0.352-1.397,0.859-2.272,1.52   c-0.15,0.106-0.31,0.159-0.48,0.159c-0.171,0-0.422-0.201-0.752-0.607c-0.331-0.405-0.496-0.704-0.496-0.896   s0.149-0.331,0.448-0.416c1.194-0.341,2.848-1.002,4.96-1.984c0.533-0.256,0.997-0.384,1.393-0.384c0.394,0,0.8,0.107,1.216,0.32   C10.695,12.584,10.903,12.808,10.903,13.042z M15.831,12.595c0,0.533,1.034,1.616,3.104,3.247c2.069,1.633,4.522,2.929,7.36,3.889   c1.771,0.598,2.864,1.023,3.28,1.28c0.416,0.256,0.624,0.495,0.624,0.72s-0.075,0.39-0.225,0.496   c-0.149,0.107-0.635,0.188-1.456,0.24s-1.888,0.08-3.199,0.08c-1.313,0-2.166-0.032-2.561-0.096   c-0.395-0.064-0.699-0.406-0.912-1.024c-0.319-0.938-0.677-1.621-1.071-2.048c-0.396-0.427-0.934-0.891-1.616-1.393   c-0.684-0.501-1.419-0.992-2.208-1.472c-0.79-0.479-1.286-0.72-1.488-0.72c-0.203,0-0.331,0.08-0.384,0.24   c-0.054,0.159-0.08,0.976-0.08,2.447l0.096,6.496c0,0.725-0.037,1.179-0.111,1.359c-0.075,0.182-0.24,0.272-0.496,0.272   c-0.171,0-0.556-0.123-1.152-0.368c-0.598-0.245-1.109-0.422-1.536-0.527c-0.896-0.277-1.76-0.668-2.592-1.168   c-0.832-0.502-1.248-0.864-1.248-1.088c0-0.225,0.139-0.305,0.416-0.24c1.131,0.256,2.032,0.384,2.704,0.384   s1.088-0.048,1.248-0.144c0.16-0.097,0.24-0.357,0.24-0.785l-0.064-9.823l0.032-5.44l-0.064-3.2c0-0.64,0.165-0.96,0.496-0.96   s0.901,0.213,1.712,0.64s1.216,0.8,1.216,1.12c0,0.171-0.085,0.357-0.256,0.56c-0.171,0.203-0.293,0.544-0.368,1.024   c-0.074,0.48-0.111,1.243-0.111,2.288c0,1.046,0.016,1.605,0.048,1.68c0.032,0.075,0.112,0.112,0.24,0.112s0.57-0.298,1.328-0.896   c0.757-0.597,2.053-1.866,3.888-3.808c0.192-0.213,0.384-0.32,0.576-0.32c0.191,0,0.506,0.187,0.943,0.56   c0.438,0.374,0.656,0.683,0.656,0.928S22.7,7.555,22.423,7.65c-0.277,0.096-0.907,0.507-1.888,1.232   c-1.878,1.451-3.328,2.475-4.353,3.072C15.948,12.104,15.831,12.317,15.831,12.595z" stroke-width="1"/>
</g>
</svg>