<svg xmlns="http://www.w3.org/2000/svg" xmlns:xlink="http://www.w3.org/1999/xlink" version="1.1" id="图层_1" x="0px" y="0px" width="25.029996871948242" height="27.336999893188477" viewBox="-0.2509971857070923 0.2869999408721924 25.029996871948242 27.336999893188477" enable-background="new 0 0 30 30" xml:space="preserve">
<g>
	<path fill="#0000FF" d="M23.799,19.187c0,1.451,0.064,2.87,0.192,4.256l0.288,3.072c0,0.276-0.107,0.416-0.32,0.416   c-0.214,0-1.003-0.262-2.368-0.784c-1.365-0.523-2.442-1.115-3.231-1.775c-0.192-0.172-0.331-0.256-0.416-0.256   c-0.086,0-0.128,0.105-0.128,0.319l0.031,1.472c0,0.533-0.053,0.869-0.16,1.008c-0.106,0.139-0.304,0.209-0.592,0.209   s-0.469-0.055-0.544-0.16c-0.075-0.107-0.123-0.385-0.144-0.832l-0.256-3.584c-0.086-1.045-0.155-1.627-0.208-1.744   c-0.054-0.117-0.22-0.176-0.496-0.176c-0.277,0-0.672,0.053-1.185,0.16c-0.512,0.106-0.827,0.203-0.943,0.287   c-0.118,0.086-0.208,0.268-0.272,0.545c-0.063,0.277-0.096,0.607-0.096,0.991l0.128,1.376c0,0.405-0.112,0.725-0.336,0.96   c-0.225,0.235-0.485,0.353-0.784,0.353c-0.192,0-0.32-0.182-0.384-0.545c-0.064-0.362-0.097-0.896-0.097-1.6l0.097-2.271   c0-0.234-0.021-0.469-0.064-0.704s-0.063-0.496-0.063-0.784s0.031-0.699,0.096-1.232c0.106-1.023,0.165-2.047,0.176-3.072   c0.011-1.024,0.139-1.712,0.384-2.064s1.285-0.88,3.12-1.584c0.256-0.085,0.427-0.192,0.513-0.32   c0.085-0.128,0.128-0.389,0.128-0.784c0-0.395-0.107-0.592-0.32-0.592c-0.277,0-1.024,0.256-2.24,0.768   c-0.299,0.128-0.544,0.192-0.735,0.192c-0.192,0-0.368-0.139-0.528-0.416c-0.16-0.277-0.288-0.416-0.384-0.416   c-0.097,0-0.22,0.075-0.368,0.224c-0.576,0.512-1.109,0.768-1.601,0.768c-0.256,0-0.459-0.053-0.607-0.16   c-0.149-0.106-0.405-0.213-0.769-0.32c-0.362-0.107-0.629-0.16-0.8-0.16c-0.363,0-0.864,0.363-1.504,1.088   c-0.64,0.726-0.96,1.291-0.96,1.696c0,0.128,0.075,0.192,0.224,0.192c0.256,0,1.152-0.363,2.688-1.088   c0.256-0.128,0.507-0.192,0.752-0.192s0.469,0.107,0.672,0.32s0.304,0.438,0.304,0.672c0,0.235-0.106,0.518-0.319,0.848   c-0.214,0.331-0.433,0.576-0.656,0.736s-0.395,0.379-0.512,0.656c-0.118,0.278-0.176,0.48-0.176,0.608s0.096,0.192,0.287,0.192   l0.545-0.033c0.213,0,0.378,0.076,0.495,0.225c0.117,0.149,0.177,0.305,0.177,0.464c0,0.16-0.017,0.288-0.049,0.384   c-0.031,0.096-0.267,0.353-0.703,0.769c-0.438,0.416-0.859,0.763-1.265,1.04c-0.405,0.299-0.64,0.64-0.704,1.023   c-0.064,0.385-0.096,0.705-0.096,0.961c0,0.789,0.17,1.184,0.512,1.184c0.213,0,0.55-0.176,1.009-0.528   c0.458-0.353,0.858-0.811,1.199-1.376c0.342-0.564,0.576-0.848,0.704-0.848s0.192,0.128,0.192,0.384   c0,0.598-0.203,1.333-0.608,2.208s-0.934,1.563-1.584,2.064c-0.65,0.5-1.061,0.874-1.232,1.119   c-0.171,0.246-0.331,0.368-0.48,0.368c-0.256,0-0.518-0.368-0.784-1.104c-0.267-0.735-0.4-1.402-0.4-2l0.064-1.76   c0-0.383-0.07-0.576-0.208-0.576c-0.139,0-0.363,0.055-0.672,0.16c-0.31,0.107-0.523,0.192-0.64,0.256   c-0.118,0.064-0.219,0.097-0.304,0.097c-0.213,0-0.416-0.213-0.608-0.64s-0.288-0.832-0.288-1.217c0-0.256,0.139-0.416,0.416-0.479   c0.533-0.128,1.008-0.277,1.424-0.448c0.416-0.17,0.683-0.309,0.8-0.416c0.117-0.106,0.176-0.352,0.176-0.736   c0-0.383-0.128-0.735-0.384-1.056c-0.256-0.32-0.448-0.48-0.576-0.48s-0.368,0.192-0.72,0.577c-0.352,0.383-0.752,0.666-1.2,0.848   c-0.448,0.182-1.035,0.271-1.76,0.271c-0.341,0-0.512-0.068-0.512-0.207s0.08-0.331,0.24-0.576c0.16-0.246,0.741-0.934,1.744-2.064   c0.661-0.747,1.323-1.76,1.984-3.04l1.856-3.296c1.003-1.792,1.605-2.821,1.808-3.088c0.202-0.267,0.405-0.4,0.608-0.4   c0.202,0,0.564,0.224,1.088,0.672c0.522,0.448,0.784,0.827,0.784,1.136c0,0.31-0.192,0.629-0.576,0.96   c-0.384,0.331-0.672,0.64-0.864,0.928S8.631,8.179,8.631,8.307s0.096,0.192,0.288,0.192s0.517-0.085,0.976-0.256   s0.821-0.256,1.089-0.256c0.266,0,0.522,0.07,0.768,0.208c0.245,0.139,0.432,0.208,0.56,0.208c0.129,0,0.288-0.037,0.48-0.112   c0.192-0.075,0.96-0.283,2.304-0.624c0.384-0.106,0.619-0.25,0.704-0.432c0.085-0.181,0.128-0.634,0.128-1.36l0.097-2.176   c0.042-1.621,0.128-2.512,0.256-2.672c0.128-0.16,0.304-0.24,0.527-0.24c0.225,0,0.522,0.064,0.896,0.192   c0.373,0.128,0.56,0.277,0.56,0.448s-0.043,0.341-0.128,0.512c-0.171,0.299-0.245,0.736-0.224,1.312l0.032,0.736   c0,0.448-0.027,0.864-0.08,1.248c-0.054,0.384-0.08,0.672-0.08,0.864c0,0.533,0.17,0.8,0.512,0.8c0.128,0,0.646-0.106,1.552-0.32   c0.907-0.213,1.579-0.32,2.017-0.32c0.437,0,0.768,0.192,0.992,0.576c0.224,0.384,0.336,0.768,0.336,1.152   c0,0.384-0.032,0.63-0.097,0.736c-0.063,0.107-0.197,0.16-0.399,0.16c-0.203,0-0.459-0.026-0.769-0.08s-0.683-0.08-1.12-0.08   s-0.96,0.048-1.567,0.144c-0.608,0.096-0.977,0.192-1.104,0.288c-0.128,0.096-0.191,0.294-0.191,0.592   c0,0.299,0.021,0.507,0.063,0.624s0.133,0.176,0.272,0.176c0.139,0,0.41-0.026,0.815-0.08c0.405-0.053,0.912-0.08,1.521-0.08   c0.607,0,1.274,0.101,2,0.304c0.725,0.203,1.157,0.384,1.296,0.544c0.139,0.16,0.208,0.347,0.208,0.56   c0,0.213-0.043,0.416-0.128,0.608c-0.086,0.192-0.149,0.598-0.192,1.216s-0.043,1.2,0,1.744s0.064,1.136,0.064,1.776L23.799,19.187   z M13.751,18.834c0.128,0,0.453-0.074,0.976-0.224s0.849-0.282,0.977-0.399s0.191-0.342,0.191-0.672   c0-0.331-0.037-0.539-0.111-0.625c-0.075-0.084-0.246-0.127-0.513-0.127s-0.603,0.047-1.008,0.144   c-0.405,0.096-0.629,0.315-0.672,0.655c-0.043,0.342-0.063,0.636-0.063,0.881S13.602,18.834,13.751,18.834z M14.167,15.026   c0.277,0,0.587-0.085,0.928-0.256c0.341-0.17,0.555-0.325,0.641-0.464c0.085-0.139,0.128-0.427,0.128-0.864   c0-0.437-0.091-0.656-0.272-0.656s-0.527,0.149-1.04,0.448c-0.512,0.299-0.768,0.8-0.768,1.504   C13.783,14.931,13.911,15.026,14.167,15.026z M20.279,23.986c0.554,0,0.922-0.09,1.104-0.271s0.272-0.539,0.272-1.072   c0-1.408-0.112-3.371-0.336-5.889c-0.225-2.517-0.523-4-0.896-4.447c-0.373-0.448-0.811-0.672-1.312-0.672   c-0.502,0-0.812,0.075-0.929,0.224c-0.117,0.149-0.176,0.432-0.176,0.848s0.037,0.672,0.112,0.768   c0.074,0.096,0.229,0.144,0.464,0.144l0.64-0.032c0.448,0,0.672,0.374,0.672,1.12c0,0.363-0.159,0.571-0.479,0.624   s-0.613,0.155-0.88,0.304c-0.268,0.149-0.427,0.277-0.48,0.384c-0.053,0.106-0.08,0.353-0.08,0.735   c0,0.385,0.059,0.576,0.177,0.576c0.116,0,0.304-0.025,0.56-0.08c0.256-0.053,0.522-0.08,0.8-0.08c0.47,0,0.704,0.449,0.704,1.345   c0,0.235-0.128,0.438-0.384,0.608c-0.256,0.17-0.736,0.395-1.44,0.672c-0.277,0.106-0.438,0.299-0.479,0.576   c-0.043,0.277-0.064,1.035-0.064,2.271c0,0.277,0.059,0.469,0.177,0.576c0.116,0.107,0.437,0.262,0.96,0.464   C19.506,23.886,19.938,23.986,20.279,23.986z M20.695,2.738c0.148,0,0.384,0.118,0.704,0.352c0.319,0.235,0.65,0.427,0.991,0.576   c0.641,0.256,0.96,0.693,0.96,1.312c0,0.405-0.447,0.608-1.344,0.608c-0.512,0-0.976-0.117-1.392-0.352   C20.199,5,19.991,4.563,19.991,3.922c0-0.32,0.068-0.597,0.208-0.832C20.338,2.856,20.503,2.738,20.695,2.738z" stroke-width="1"/>
</g>
</svg>