<svg xmlns="http://www.w3.org/2000/svg" xmlns:xlink="http://www.w3.org/1999/xlink" version="1.1" id="图层_1" x="0px" y="0px" width="28.552001953125" height="24.45800018310547" viewBox="2.1299965381622314 2.4869980812072754 28.552001953125 24.45800018310547" style="enable-background:new 0 0 30 30;" xml:space="preserve">
  <g>
    <g>
      <path style="fill:#0000FF;" d="M18.47,19.244c0,1.131,0.037,1.756,0.112,1.873c0.074,0.117,0.795,0.463,2.16,1.039&#13;&#10;&#9;&#9;s2.261,0.918,2.688,1.024c1.749,0.47,3.227,0.901,4.433,1.296c1.205,0.395,1.893,0.645,2.063,0.752&#13;&#10;&#9;&#9;c0.171,0.106,0.256,0.225,0.256,0.352c0,0.576-1.792,0.865-5.376,0.865c-1.813,0-2.943-0.097-3.392-0.289&#13;&#10;&#9;&#9;c-0.448-0.191-0.71-0.539-0.784-1.039c-0.075-0.502-0.571-1.072-1.488-1.713c-0.917-0.64-2.57-1.492-4.96-2.56&#13;&#10;&#9;&#9;c-1.194-0.533-2.261-1.151-3.199-1.856c-0.107-0.084-0.208-0.127-0.305-0.127c-0.096,0-0.176,0.053-0.239,0.159&#13;&#10;&#9;&#9;c-0.47,0.683-1.046,1.345-1.729,1.984s-1.046,1.046-1.088,1.216c-0.149,0.576-0.832,1.072-2.048,1.488&#13;&#10;&#9;&#9;c-1.216,0.416-2.016,0.623-2.4,0.623c-0.064,0-0.171-0.026-0.32-0.079c-0.149-0.054-0.224-0.112-0.224-0.177&#13;&#10;&#9;&#9;c0-0.063,0.235-0.266,0.704-0.607c1.728-1.236,2.757-2.021,3.088-2.352c0.331-0.331,0.795-0.907,1.393-1.729&#13;&#10;&#9;&#9;c0.597-0.82,0.938-1.322,1.023-1.504s0.128-0.314,0.128-0.4c0-0.277-0.251-0.521-0.752-0.736c-0.501-0.213-1.045-0.319-1.632-0.319&#13;&#10;&#9;&#9;s-0.965,0.026-1.136,0.08s-0.341,0.165-0.512,0.336C4.166,17.549,3.622,17.9,3.302,17.9c-0.15,0-0.224-0.084-0.224-0.256&#13;&#10;&#9;&#9;c0-0.17,0.203-0.703,0.608-1.6c0.405-0.896,1.072-2.059,2-3.488c0.928-1.429,1.525-2.293,1.792-2.592s0.448-0.56,0.545-0.784&#13;&#10;&#9;&#9;c0.096-0.224,0.159-0.565,0.191-1.024c0.032-0.458,0.282-0.688,0.752-0.688c0.384,0,0.854,0.469,1.408,1.408&#13;&#10;&#9;&#9;c0.171,0.32,0.299,0.518,0.384,0.592s0.272,0.102,0.561,0.08c0.288-0.021,0.698-0.032,1.231-0.032l1.504,0.064&#13;&#10;&#9;&#9;c0.192,0,0.385-0.026,0.576-0.08c0.192-0.053,0.341-0.08,0.448-0.08c0.106,0,0.219,0.059,0.336,0.176&#13;&#10;&#9;&#9;c0.117,0.118,0.176,0.267,0.176,0.448s-0.085,0.368-0.256,0.56c-0.768,0.79-1.216,1.43-1.344,1.92c-0.171,0.747-0.812,2.08-1.92,4&#13;&#10;&#9;&#9;c-0.107,0.17-0.16,0.309-0.16,0.416c0,0.106,0.053,0.219,0.16,0.336c0.106,0.117,0.544,0.447,1.312,0.991&#13;&#10;&#9;&#9;c0.769,0.544,1.402,0.966,1.904,1.265c0.501,0.299,0.794,0.447,0.88,0.447c0.32,0,0.48-0.693,0.48-2.08&#13;&#10;&#9;&#9;c0-0.042-0.017-0.475-0.049-1.296c-0.031-0.821-0.048-2.005-0.048-3.552c0-1.546,0.021-2.747,0.064-3.6&#13;&#10;&#9;&#9;c0.042-0.853,0.063-1.818,0.063-2.896c0-1.077-0.037-1.787-0.111-2.128c-0.075-0.341-0.112-0.576-0.112-0.704&#13;&#10;&#9;&#9;c0-0.49,0.256-0.736,0.768-0.736c0.213,0,0.641,0.096,1.28,0.288c0.64,0.192,0.96,0.438,0.96,0.736c0,0.128-0.054,0.288-0.16,0.48&#13;&#10;&#9;&#9;s-0.224,1.323-0.352,3.392l-0.225,3.072c0,0.171,0.049,0.299,0.145,0.384c0.096,0.085,0.347,0.16,0.752,0.224&#13;&#10;&#9;&#9;c0.405,0.064,0.885,0.096,1.44,0.096c0.554,0,1.125,0.085,1.712,0.256c0.586,0.171,0.948,0.32,1.088,0.448&#13;&#10;&#9;&#9;c0.139,0.128,0.314,0.448,0.527,0.96s0.32,0.923,0.32,1.232c0,0.31-0.037,0.64-0.112,0.992c-0.074,0.352-0.202,0.527-0.384,0.527&#13;&#10;&#9;&#9;s-0.479-0.218-0.896-0.655c-0.416-0.437-1.195-0.96-2.336-1.568c-1.142-0.608-1.809-0.912-2-0.912c-0.192,0-0.31,0.08-0.353,0.24&#13;&#10;&#9;&#9;s-0.08,1.072-0.112,2.736C18.486,17.58,18.47,18.69,18.47,19.244z M10.022,15.5c0.234,0,0.56-0.586,0.976-1.76&#13;&#10;&#9;&#9;c0.416-1.173,0.624-1.867,0.624-2.08c0-0.49-0.277-0.736-0.832-0.736c-0.47,0-0.8,0.149-0.992,0.448&#13;&#10;&#9;&#9;c-0.277,0.448-0.491,0.768-0.64,0.96c-0.149,0.192-0.357,0.416-0.624,0.672c-0.268,0.256-0.4,0.459-0.4,0.608&#13;&#10;&#9;&#9;c0,0.149,0.272,0.501,0.816,1.056C9.494,15.224,9.851,15.5,10.022,15.5z" stroke-width="1"/>
    </g>
    <g/>
    <g/>
    <g/>
    <g/>
    <g/>
    <g/>
    <g/>
    <g/>
    <g/>
    <g/>
    <g/>
    <g/>
    <g/>
    <g/>
    <g/>
  </g>
</svg>