<svg xmlns="http://www.w3.org/2000/svg" xmlns:xlink="http://www.w3.org/1999/xlink" version="1.1" id="图层_1" x="0px" y="0px" width="28.74300193786621" height="26.63300132751465" viewBox="1.1389979124069214 1.5909996032714844 28.74300193786621 26.63300132751465" style="enable-background:new 0 0 30 30;" xml:space="preserve">
  <g>
    <g>
      <path style="fill:#0000FF;" d="M5.67,16.236c0-0.148-0.016-0.256-0.048-0.32c-0.032-0.064-0.144-0.096-0.336-0.096&#13;&#10;&#9;&#9;s-0.357,0.027-0.496,0.08c-0.139,0.053-0.347,0.187-0.624,0.4c-0.277,0.213-0.491,0.32-0.64,0.32c-0.149,0-0.267-0.053-0.352-0.16&#13;&#10;&#9;&#9;c-0.085-0.107-0.192-0.576-0.32-1.408S2.662,13.704,2.662,13.5c0-0.202,0.16-0.325,0.48-0.368c1.707-0.277,2.581-0.555,2.624-0.832&#13;&#10;&#9;&#9;c0.042-0.277,0.064-1.824,0.064-4.64c0-0.533,0.288-0.8,0.864-0.8c0.341,0,0.757,0.096,1.248,0.288&#13;&#10;&#9;&#9;c0.49,0.192,0.735,0.363,0.735,0.512c0,0.149-0.063,0.277-0.191,0.384C8.23,8.237,8.102,8.653,8.102,9.292&#13;&#10;&#9;&#9;c0,0.214,0.021,0.475,0.064,0.784c0.043,0.31,0.064,0.672,0.064,1.088s0.026,0.651,0.079,0.704c0.054,0.054,0.177,0.08,0.368,0.08&#13;&#10;&#9;&#9;l0.896-0.064c0.597,0,0.896,0.438,0.896,1.312c0,0.299-0.091,0.523-0.271,0.672c-0.182,0.149-0.534,0.352-1.057,0.608&#13;&#10;&#9;&#9;c-0.522,0.256-0.821,0.438-0.896,0.544c-0.075,0.107-0.123,0.374-0.145,0.8L8.07,16.973c0,0.213,0.053,0.32,0.16,0.32&#13;&#10;&#9;&#9;c0.106,0,0.336-0.091,0.688-0.272c0.353-0.181,0.608-0.272,0.768-0.272c0.16,0,0.24,0.064,0.24,0.193&#13;&#10;&#9;&#9;c0,0.256-0.512,0.869-1.536,1.84c-1.023,0.971-1.797,1.643-2.319,2.016c-0.523,0.373-0.987,0.763-1.392,1.168&#13;&#10;&#9;&#9;c-0.406,0.405-0.694,0.73-0.864,0.977c-0.171,0.244-0.357,0.367-0.56,0.367c-0.203,0-0.523-0.293-0.96-0.88&#13;&#10;&#9;&#9;c-0.438-0.587-0.656-0.938-0.656-1.056s0.16-0.219,0.48-0.305c0.32-0.084,0.832-0.384,1.536-0.896&#13;&#10;&#9;&#9;c0.704-0.513,1.195-0.849,1.472-1.009c0.277-0.159,0.427-0.432,0.448-0.815L5.67,16.236z M29.382,22.668&#13;&#10;&#9;&#9;c0,0.513-0.054,1.052-0.16,1.617c-0.106,0.564-0.159,1.381-0.159,2.447c0,0.661-0.172,0.992-0.513,0.992&#13;&#10;&#9;&#9;c-0.555,0-1.653-0.613-3.296-1.84s-3.094-2.821-4.352-4.784c-0.128-0.171-0.225-0.256-0.288-0.256c-0.064,0-0.128,0.054-0.192,0.16&#13;&#10;&#9;&#9;c-0.128,0.256-0.629,0.55-1.504,0.88c-0.875,0.331-1.536,0.496-1.984,0.496c-0.128,0-0.191-0.032-0.191-0.096&#13;&#10;&#9;&#9;c0-0.064,0.165-0.225,0.496-0.48c0.33-0.256,0.752-0.666,1.264-1.232c0.512-0.564,0.826-0.949,0.944-1.151&#13;&#10;&#9;&#9;c0.117-0.202,0.176-0.373,0.176-0.513c0-0.139-0.032-0.293-0.096-0.463c-0.662-1.813-1.313-3.755-1.952-5.825&#13;&#10;&#9;&#9;c-0.064-0.256-0.188-0.384-0.368-0.384c-0.182,0-0.715,0.139-1.6,0.416c-0.886,0.277-1.462,0.624-1.729,1.04s-0.4,0.901-0.4,1.456&#13;&#10;&#9;&#9;c0,0.235,0.049,0.352,0.145,0.352s0.176-0.01,0.24-0.032c0.811-0.277,1.515-0.416,2.111-0.416c0.598,0,1.024,0.107,1.28,0.32&#13;&#10;&#9;&#9;c0.256,0.214,0.384,0.39,0.384,0.528c0,0.138-0.063,0.298-0.191,0.48s-0.262,0.527-0.4,1.04c-0.139,0.512-0.219,0.944-0.24,1.296&#13;&#10;&#9;&#9;s-0.123,0.869-0.304,1.552c-0.182,0.683-0.373,1.216-0.576,1.601c-0.203,0.384-0.336,0.741-0.399,1.072&#13;&#10;&#9;&#9;c-0.064,0.33-0.171,0.495-0.32,0.495s-0.512-0.122-1.088-0.368c-0.576-0.244-1.355-0.794-2.336-1.647&#13;&#10;&#9;&#9;c-0.107-0.085-0.192-0.128-0.256-0.128c-0.064,0-0.134,0.165-0.208,0.496c-0.075,0.33-0.278,0.592-0.608,0.783&#13;&#10;&#9;&#9;c-0.331,0.192-0.891,0.465-1.68,0.816c-0.79,0.352-1.393,0.527-1.809,0.527s-0.624-0.074-0.624-0.223c0-0.15,0.139-0.31,0.416-0.48&#13;&#10;&#9;&#9;c1.621-0.96,2.789-2.342,3.504-4.145s1.072-3.557,1.072-5.264l-0.063-1.6c0-0.362,0.048-0.592,0.144-0.688&#13;&#10;&#9;&#9;c0.096-0.096,0.347-0.17,0.752-0.224c0.405-0.053,0.891-0.187,1.456-0.4c0.565-0.213,1.424-0.501,2.576-0.864&#13;&#10;&#9;&#9;c0.256-0.064,0.384-0.17,0.384-0.32c0-0.149-0.075-0.613-0.224-1.392c-0.149-0.779-0.272-1.493-0.368-2.144&#13;&#10;&#9;&#9;s-0.197-1.195-0.304-1.632c-0.107-0.437-0.214-0.773-0.32-1.008c-0.107-0.234-0.16-0.437-0.16-0.608&#13;&#10;&#9;&#9;c0-0.555,0.373-0.832,1.12-0.832c0.618,0,0.928,0.139,0.928,0.416c0,0.085-0.021,0.192-0.063,0.32&#13;&#10;&#9;&#9;c-0.043,0.128-0.064,0.363-0.064,0.704c0,0.341,0.08,0.875,0.24,1.6c0.16,0.726,0.336,1.312,0.528,1.76&#13;&#10;&#9;&#9;c0.191,0.448,0.416,1.109,0.672,1.984c0.063,0.192,0.176,0.288,0.336,0.288s0.362-0.037,0.607-0.112&#13;&#10;&#9;&#9;c0.245-0.075,0.4-0.112,0.465-0.112c0.298,0,0.49,0.171,0.575,0.512c0.085,0.342,0.219,0.656,0.4,0.944&#13;&#10;&#9;&#9;c0.181,0.288,0.271,0.539,0.271,0.752s-0.063,0.347-0.191,0.4s-0.363,0.08-0.704,0.08c-0.661,0-0.992,0.149-0.992,0.448&#13;&#10;&#9;&#9;c0,0.171,0.165,0.837,0.496,2c0.331,1.163,0.555,1.877,0.672,2.144c0.117,0.268,0.229,0.4,0.336,0.4&#13;&#10;&#9;&#9;c0.128,0,0.336-0.405,0.624-1.216c0.288-0.811,0.448-1.354,0.48-1.632c0.032-0.277,0.122-0.416,0.271-0.416&#13;&#10;&#9;&#9;s0.475,0.155,0.977,0.464c0.501,0.31,0.752,0.592,0.752,0.848c0,0.128-0.112,0.363-0.336,0.704&#13;&#10;&#9;&#9;c-0.225,0.342-0.443,0.843-0.656,1.504c-0.214,0.661-0.555,1.184-1.024,1.568c-0.171,0.148-0.256,0.299-0.256,0.447&#13;&#10;&#9;&#9;c0,0.32,0.362,1.051,1.088,2.191c0.726,1.143,1.397,1.964,2.017,2.465c0.618,0.501,1.088,0.752,1.408,0.752&#13;&#10;&#9;&#9;c0.319,0,0.56-0.107,0.72-0.32s0.362-0.816,0.607-1.808c0.245-0.992,0.443-1.957,0.593-2.896c0.063-0.428,0.176-0.641,0.336-0.641&#13;&#10;&#9;&#9;s0.314,0.565,0.464,1.695C29.307,21.464,29.382,22.242,29.382,22.668z M15.078,17.645c0-0.512-0.139-0.768-0.416-0.768&#13;&#10;&#9;&#9;s-0.604,0.107-0.977,0.32s-0.597,0.346-0.672,0.399c-0.074,0.054-0.176,0.176-0.304,0.368c-0.128,0.191-0.267,0.342-0.416,0.447&#13;&#10;&#9;&#9;c-0.149,0.107-0.314,0.357-0.496,0.752c-0.182,0.396-0.271,0.678-0.271,0.849s0.048,0.294,0.144,0.368s0.336,0.166,0.72,0.271&#13;&#10;&#9;&#9;c0.385,0.107,0.763,0.16,1.137,0.16c0.373,0,0.64-0.09,0.8-0.271s0.325-0.608,0.496-1.28&#13;&#10;&#9;&#9;C14.992,18.589,15.078,18.051,15.078,17.645z M24.262,6.861c0,0.469-0.191,0.704-0.576,0.704l-0.928-0.032&#13;&#10;&#9;&#9;c-0.448,0-0.768,0.043-0.96,0.128c-0.191,0.085-0.342,0.128-0.448,0.128c-0.277,0-0.485-0.154-0.624-0.464&#13;&#10;&#9;&#9;c-0.139-0.309-0.208-0.656-0.208-1.04s0.085-0.736,0.257-1.056c0.17-0.32,0.309-0.48,0.416-0.48c0.106,0,0.224,0.064,0.352,0.192&#13;&#10;&#9;&#9;c0.128,0.128,0.475,0.357,1.04,0.688s0.986,0.555,1.264,0.672S24.262,6.604,24.262,6.861z" stroke-width="1"/>
    </g>
    <g/>
    <g/>
    <g/>
    <g/>
    <g/>
    <g/>
    <g/>
    <g/>
    <g/>
    <g/>
    <g/>
    <g/>
    <g/>
    <g/>
    <g/>
  </g>
</svg>