<svg xmlns="http://www.w3.org/2000/svg" xmlns:xlink="http://www.w3.org/1999/xlink" version="1.1" width="113.56900024414062" height="158.30699157714844" viewBox="-0.296999990940094 -0.08100000023841858 113.56900024414062 158.30699157714844">
  <!-- Exported by Scratch - http://scratch.mit.edu/ -->
  <path id="ID0.807383447419852" fill="#FFFFFF" d="M 65.904 56.838 C 60.977 56.838 55.824 57.692 51.774 59.414 L 51.335 58.975 C 58.727 48.929 73.307 35.26 82.273 24.787 C 84.961 21.58 86.976 19.016 86.976 16.034 C 86.976 8.328 77.345 0.419 71.068 0.419 C 69.269 0.419 66.804 0.419 64.339 1.926 C 61.64 3.625 58.95 5.347 57.151 7.056 C 34.504 27.137 0.203 72.441 0.203 104.728 C 0.203 133.145 21.96 157.726 56.487 157.726 C 89.675 157.726 112.772 132.503 112.772 104.728 C 112.773 79.483 92.826 56.838 65.904 56.838 Z M 56.489 126.937 C 43.034 126.937 35.181 116.676 35.181 104.707 C 35.181 92.096 43.708 82.466 56.489 82.466 C 70.619 82.466 77.797 93.378 77.797 104.707 C 77.797 117.104 69.269 126.937 56.489 126.937 Z " stroke-width="1"/>
</svg>