<svg xmlns="http://www.w3.org/2000/svg" xmlns:xlink="http://www.w3.org/1999/xlink" version="1.1" id="图层_1" x="0px" y="0px" width="25.12799835205078" height="31.464004516601562" viewBox="1.2989931106567383 -0.8709999620914459 25.12799835205078 31.464004516601562" style="enable-background:new 0 0 30 30;" xml:space="preserve">
  <g>
    <g>
      <path style="fill:#0000FF;" d="M13.03,16.492c0-0.234-0.128-0.352-0.384-0.352c-0.385,0-0.673,0.059-0.864,0.176&#13;&#10;&#9;&#9;c-0.192,0.117-0.342,0.176-0.448,0.176c-0.342,0-0.613-0.234-0.816-0.704c-0.202-0.469-0.399-0.789-0.592-0.96&#13;&#10;&#9;&#9;c-0.875-0.768-1.439-1.536-1.695-2.304c-0.257-0.768-0.385-1.328-0.385-1.68s0.059-0.576,0.177-0.672&#13;&#10;&#9;&#9;c0.116-0.096,0.56-0.219,1.327-0.368c0.769-0.149,1.536-0.362,2.305-0.64c0.768-0.277,1.396-0.49,1.888-0.64&#13;&#10;&#9;&#9;c0.49-0.149,0.784-0.293,0.88-0.432c0.096-0.139,0.31-0.56,0.641-1.264c0.33-0.704,0.495-1.088,0.495-1.152&#13;&#10;&#9;&#9;c0-0.192-0.154-0.288-0.464-0.288s-0.8,0.091-1.472,0.272c-0.672,0.182-1.056,0.326-1.152,0.432&#13;&#10;&#9;&#9;c-0.096,0.107-0.123,0.256-0.08,0.448c0.043,0.192,0.064,0.432,0.064,0.72s-0.096,0.523-0.288,0.704s-0.4,0.272-0.624,0.272&#13;&#10;&#9;&#9;s-0.528-0.352-0.912-1.056c-0.085-0.192-0.191-0.288-0.32-0.288c-0.128,0-0.459,0.118-0.991,0.352&#13;&#10;&#9;&#9;c-0.534,0.235-0.96,0.459-1.28,0.672c-0.32,0.214-0.613,0.32-0.88,0.32c-0.268,0-0.598-0.288-0.992-0.864&#13;&#10;&#9;&#9;C5.771,6.797,5.574,6.354,5.574,6.045s0.427-0.485,1.28-0.528L7.91,5.421C8.763,5.336,9.243,5.271,9.35,5.229&#13;&#10;&#9;&#9;c0.106-0.042,0.16-0.123,0.16-0.24s-0.032-0.25-0.096-0.4C9.009,3.608,8.806,2.818,8.806,2.221c0-0.256,0.171-0.384,0.513-0.384&#13;&#10;&#9;&#9;c0.64,0,1.162,0.043,1.567,0.128c0.405,0.085,0.667,0.213,0.784,0.384c0.117,0.171,0.176,0.534,0.176,1.088&#13;&#10;&#9;&#9;c0,0.555,0.026,0.917,0.08,1.088s0.165,0.256,0.336,0.256s0.837-0.117,2-0.352c1.163-0.234,1.776-0.362,1.84-0.384&#13;&#10;&#9;&#9;c0.064-0.021,0.139-0.075,0.225-0.16c0.085-0.085,0.234-0.405,0.448-0.96c0.213-0.555,0.479-1.365,0.8-2.432&#13;&#10;&#9;&#9;c0.106-0.32,0.219-0.544,0.336-0.672s0.356-0.192,0.72-0.192c0.362,0,0.715,0.069,1.056,0.208c0.342,0.139,0.513,0.325,0.513,0.56&#13;&#10;&#9;&#9;c0,0.235-0.123,0.523-0.368,0.864c-0.245,0.341-0.507,0.768-0.784,1.28c-0.277,0.512-0.416,0.822-0.416,0.928&#13;&#10;&#9;&#9;c0,0.107,0.171,0.139,0.512,0.096c1.323-0.192,2.208-0.288,2.656-0.288s0.736,0.043,0.864,0.128&#13;&#10;&#9;&#9;c0.128,0.085,0.192,0.251,0.192,0.496s-0.044,0.438-0.129,0.576c-0.085,0.139-0.314,0.267-0.688,0.384&#13;&#10;&#9;&#9;c-0.374,0.117-0.869,0.24-1.488,0.368c-1.194,0.256-1.989,0.4-2.384,0.432c-0.395,0.032-0.651,0.091-0.768,0.176&#13;&#10;&#9;&#9;c-0.118,0.085-0.3,0.395-0.544,0.928c-0.246,0.534-0.368,0.87-0.368,1.008c0,0.139,0.139,0.208,0.416,0.208&#13;&#10;&#9;&#9;c1.301,0,2.442,0.128,3.424,0.384c0.98,0.256,1.472,0.64,1.472,1.152c0,0.192-0.102,0.411-0.304,0.656&#13;&#10;&#9;&#9;c-0.203,0.245-0.411,0.667-0.624,1.264c-0.47,1.28-0.821,2.208-1.056,2.784c-0.235,0.576-0.502,1.067-0.801,1.472&#13;&#10;&#9;&#9;c-0.299,0.405-0.49,0.639-0.575,0.704c-0.086,0.064-0.198,0.096-0.337,0.096s-0.304-0.08-0.495-0.239&#13;&#10;&#9;&#9;c-0.192-0.16-0.438-0.331-0.736-0.512c-0.299-0.181-0.507-0.272-0.624-0.272s-0.288,0.038-0.512,0.112&#13;&#10;&#9;&#9;c-0.225,0.075-0.486,0.134-0.784,0.176c-0.299,0.043-0.448,0.128-0.448,0.256c0,0.171,0.192,0.272,0.576,0.304&#13;&#10;&#9;&#9;c0.384,0.032,0.607,0.123,0.672,0.272s0.091,0.299,0.08,0.448c-0.011,0.148-0.016,0.245-0.016,0.287&#13;&#10;&#9;&#9;c0,0.235,0.181,0.332,0.544,0.289c1.258-0.192,2.517-0.299,3.775-0.32s2.305-0.182,3.137-0.48c0.17-0.064,0.298-0.096,0.384-0.096&#13;&#10;&#9;&#9;c0.319,0,0.778,0.432,1.376,1.296c0.597,0.864,0.896,1.472,0.896,1.824c0,0.352-0.234,0.528-0.704,0.528&#13;&#10;&#9;&#9;c-0.277,0-0.747-0.097-1.407-0.289c-0.662-0.191-1.542-0.287-2.641-0.287s-2.182,0.016-3.248,0.048s-1.707,0.063-1.92,0.096&#13;&#10;&#9;&#9;s-0.352,0.118-0.416,0.256c-0.063,0.14-0.096,0.496-0.096,1.072l0.032,0.864c0,0.938-0.027,1.605-0.08,2&#13;&#10;&#9;&#9;c-0.054,0.395-0.08,0.971-0.08,1.728s0.011,1.445,0.032,2.063l0.096,1.344c0,0.555-0.353,0.832-1.056,0.832&#13;&#10;&#9;&#9;c-0.363,0-0.667-0.063-0.912-0.191c-0.246-0.127-0.368-0.246-0.368-0.352c0-0.107,0.053-0.213,0.16-0.32&#13;&#10;&#9;&#9;c0.234-0.277,0.352-0.783,0.352-1.52s-0.085-2.037-0.256-3.904s-0.245-2.928-0.224-3.184c0.021-0.256-0.128-0.385-0.448-0.385&#13;&#10;&#9;&#9;c-0.149,0-0.949,0.096-2.4,0.289c-1.451,0.191-2.341,0.336-2.672,0.432s-0.837,0.176-1.52,0.24&#13;&#10;&#9;&#9;c-0.96,0.085-1.888,0.309-2.784,0.672c-0.278,0.106-0.539,0.16-0.784,0.16c-0.246,0-0.438-0.166-0.576-0.496&#13;&#10;&#9;&#9;c-0.139-0.331-0.208-0.592-0.208-0.785c0-0.191,0.042-0.314,0.128-0.367s0.352-0.08,0.8-0.08c0.448,0,1.12-0.128,2.016-0.385&#13;&#10;&#9;&#9;c2.368-0.66,4.917-1.226,7.647-1.695c0.299-0.043,0.48-0.102,0.544-0.176c0.064-0.074,0.097-0.25,0.097-0.528V16.492z&#13;&#10;&#9;&#9; M16.358,14.733c0.298,0,0.66-0.592,1.088-1.776c0.426-1.184,0.64-2.096,0.64-2.736c0-0.426-0.134-0.693-0.4-0.8&#13;&#10;&#9;&#9;s-0.64-0.16-1.119-0.16c-0.48,0-1.132,0.096-1.952,0.288c-0.821,0.192-1.596,0.421-2.32,0.688&#13;&#10;&#9;&#9;c-0.726,0.267-1.146,0.438-1.264,0.512c-0.118,0.075-0.246,0.342-0.384,0.8c-0.14,0.459-0.208,0.907-0.208,1.344&#13;&#10;&#9;&#9;c0,0.438,0.111,0.806,0.336,1.104c0.224,0.299,0.41,0.448,0.56,0.448s0.272-0.021,0.368-0.064c0.096-0.042,0.271-0.091,0.528-0.144&#13;&#10;&#9;&#9;c0.256-0.053,0.452-0.08,0.592-0.08c0.139,0,0.395-0.032,0.768-0.096s0.656-0.144,0.849-0.24c0.191-0.096,0.426-0.144,0.703-0.144&#13;&#10;&#9;&#9;c0.491,0,0.784,0.176,0.881,0.528C16.118,14.557,16.23,14.733,16.358,14.733z M16.326,11.149c0,0.491-0.128,0.859-0.384,1.104&#13;&#10;&#9;&#9;c-0.257,0.245-0.704,0.427-1.345,0.544c-0.64,0.117-1.104,0.224-1.392,0.32s-0.485,0.144-0.592,0.144&#13;&#10;&#9;&#9;c-0.342,0-0.613-0.139-0.816-0.416c-0.203-0.277-0.304-0.555-0.304-0.832c0-0.362,0.139-0.555,0.416-0.576&#13;&#10;&#9;&#9;c0.277-0.021,0.692-0.138,1.248-0.352c0.768-0.277,1.435-0.416,2-0.416c0.564,0,0.9,0.032,1.008,0.096&#13;&#10;&#9;&#9;C16.272,10.829,16.326,10.957,16.326,11.149z" stroke-width="1"/>
    </g>
    <g/>
    <g/>
    <g/>
    <g/>
    <g/>
    <g/>
    <g/>
    <g/>
    <g/>
    <g/>
    <g/>
    <g/>
    <g/>
    <g/>
    <g/>
  </g>
</svg>