<svg xmlns="http://www.w3.org/2000/svg" xmlns:xlink="http://www.w3.org/1999/xlink" version="1.1" id="图层_1" x="0px" y="0px" width="23.430997848510742" height="22.66400146484375" viewBox="2.789003610610962 4.0620012283325195 23.430997848510742 22.66400146484375" enable-background="new 0 0 30 30" xml:space="preserve">
<g>
	<path fill="#0000FF" d="M12.439,11.123c-0.064,0.064-0.097,0.363-0.097,0.896c0,0.32,0.097,0.48,0.288,0.48l0.928-0.16   c0.299-0.064,0.491-0.133,0.576-0.208c0.085-0.074,0.154-0.224,0.208-0.448c0.053-0.224,0.08-0.661,0.08-1.312   c0-0.65-0.054-1.061-0.16-1.232c-0.106-0.17-0.331-0.235-0.672-0.192c-0.96,0.128-1.818,0.192-2.576,0.192   c-0.757,0-1.339,0.048-1.744,0.144C8.865,9.378,8.487,9.544,8.135,9.778c-0.352,0.235-0.613,0.352-0.784,0.352   s-0.304-0.059-0.399-0.176c-0.096-0.117-0.283-0.506-0.56-1.168c-0.278-0.661-0.416-1.21-0.416-1.648   c0-0.437,0.234-0.603,0.704-0.496c0.106,0.021,0.256,0.032,0.448,0.032c0.555,0,1.328-0.09,2.32-0.272   c0.992-0.181,1.775-0.357,2.352-0.528c0.576-0.17,1.493-0.395,2.752-0.672s2.102-0.453,2.528-0.528   c0.427-0.074,0.826-0.112,1.2-0.112c0.373,0,0.634,0.038,0.784,0.112c0.148,0.075,0.356,0.278,0.623,0.608s0.465,0.656,0.593,0.976   c0.128,0.32,0.191,0.587,0.191,0.8c0,0.213-0.043,0.39-0.128,0.528c-0.085,0.139-0.203,0.219-0.352,0.24l-2.017,0.448   c-0.277,0.085-0.469,0.182-0.575,0.288c-0.107,0.107-0.182,0.341-0.225,0.704c-0.106,0.726-0.203,1.237-0.288,1.536   s-0.128,0.491-0.128,0.576c0,0.278,0.117,0.416,0.353,0.416l2.016-0.064c1.045,0,1.968,0.064,2.768,0.192   c0.801,0.128,1.541,0.32,2.225,0.576c0.683,0.256,1.12,0.459,1.312,0.608c0.192,0.149,0.288,0.32,0.288,0.512   s-0.08,0.411-0.24,0.656c-0.159,0.246-0.261,0.565-0.304,0.96s-0.352,1.67-0.928,3.824s-1.254,3.888-2.032,5.199   c-0.779,1.313-1.371,1.969-1.775,1.969c-0.406,0-1.046-0.428-1.921-1.28s-1.493-1.402-1.855-1.647   c-0.363-0.245-0.693-0.368-0.992-0.368s-1.243,0.112-2.832,0.336c-1.59,0.224-2.635,0.384-3.136,0.479   c-0.502,0.096-0.875,0.225-1.12,0.385s-0.453,0.24-0.624,0.24s-0.325-0.123-0.464-0.369c-0.139-0.244-0.432-0.56-0.88-0.943   c-1.152-1.023-1.995-2.347-2.528-3.969c-0.533-1.62-0.8-2.826-0.8-3.615c0-0.277,0.059-0.469,0.176-0.576   c0.117-0.106,0.363-0.165,0.736-0.176c0.373-0.011,0.912-0.149,1.616-0.416c0.704-0.267,1.792-0.581,3.264-0.944   c0.49-0.128,0.715-0.33,0.672-0.608c-0.021-0.17-0.032-0.512-0.032-1.024c0-0.512-0.054-0.848-0.16-1.008   c-0.106-0.16-0.159-0.314-0.159-0.464c0-0.149,0.106-0.224,0.319-0.224c0.832,0,1.504,0.08,2.017,0.24   c0.512,0.16,0.768,0.379,0.768,0.656C12.503,10.995,12.481,11.059,12.439,11.123z M7.255,16.115   c-0.469,0.213-0.779,0.399-0.928,0.559c-0.149,0.16-0.224,0.391-0.224,0.688c0,0.3,0.048,0.816,0.144,1.552   c0.096,0.736,0.245,1.34,0.448,1.809s0.379,0.741,0.528,0.816c0.149,0.074,0.357,0.111,0.624,0.111s0.912-0.117,1.937-0.352   c1.023-0.234,2.208-0.459,3.552-0.672s2.309-0.32,2.896-0.32c0.586,0,0.954,0.043,1.104,0.128s0.309,0.353,0.48,0.8   c0.17,0.448,0.276,0.864,0.319,1.248c0.106,0.533,0.459,0.801,1.057,0.801c0.298,0,0.592-0.203,0.88-0.609   c0.288-0.404,0.618-1.338,0.992-2.799c0.372-1.461,0.56-2.709,0.56-3.744c0-1.035-0.145-1.701-0.432-2   c-0.288-0.298-0.684-0.517-1.185-0.656s-0.981-0.208-1.439-0.208c-0.459,0-0.939,0.032-1.44,0.096   c-0.501,0.064-0.811,0.15-0.928,0.256c-0.118,0.107-0.197,0.283-0.24,0.528c-0.043,0.246-0.064,0.549-0.064,0.912   s0.037,0.635,0.112,0.816c0.074,0.182,0.261,0.319,0.561,0.416c0.298,0.096,0.682,0.144,1.151,0.144l0.832-0.032   c0.213,0,0.405,0.054,0.576,0.16c0.171,0.107,0.256,0.256,0.256,0.448s-0.208,0.575-0.624,1.151s-1.211,0.864-2.384,0.864   c-0.832,0-1.403-0.405-1.712-1.216c-0.31-0.811-0.496-1.941-0.561-3.392c-0.021-0.341-0.122-0.512-0.304-0.512   s-0.475,0.048-0.88,0.144c-0.405,0.096-0.613,0.229-0.624,0.4s-0.054,0.379-0.128,0.624c-0.075,0.245-0.139,0.571-0.192,0.976   c-0.053,0.405-0.08,0.736-0.08,0.992l0.032,0.672c0,0.299-0.096,0.543-0.288,0.736c-0.191,0.191-0.527,0.421-1.008,0.688   c-0.479,0.268-0.907,0.4-1.28,0.4s-0.709-0.049-1.008-0.145s-0.448-0.234-0.448-0.416s0.171-0.33,0.513-0.447   c0.341-0.117,0.714-0.416,1.12-0.896c0.404-0.48,0.607-1.024,0.607-1.633c0-0.607-0.075-0.912-0.224-0.912   c-0.149,0-0.32,0.043-0.512,0.128L7.255,16.115z" stroke-width="1"/>
</g>
</svg>