<svg xmlns="http://www.w3.org/2000/svg" xmlns:xlink="http://www.w3.org/1999/xlink" version="1.1" id="图层_1" x="0px" y="0px" width="28.3280029296875" height="29.480003356933594" viewBox="1.3309977054595947 -0.3280002325773239 28.3280029296875 29.480003356933594" style="enable-background:new 0 0 30 30;" xml:space="preserve">
  <g>
    <g>
      <path style="fill:#0000FF;" d="M15.494,21.549c0,0.512,0.042,0.848,0.128,1.008c0.085,0.16,0.384,0.368,0.896,0.624l1.889,0.929&#13;&#10;&#9;&#9;c0.746,0.361,1.396,0.607,1.952,0.735c2.922,0.683,5.119,1.307,6.592,1.872c1.472,0.564,2.208,0.938,2.208,1.12&#13;&#10;&#9;&#9;c0,0.181-0.315,0.362-0.944,0.544c-0.629,0.181-1.478,0.271-2.544,0.271c-1.067,0-2.176-0.074-3.328-0.224&#13;&#10;&#9;&#9;c-1.151-0.149-1.867-0.224-2.144-0.224c-0.277,0-0.476-0.086-0.592-0.256c-0.118-0.172-0.214-0.518-0.288-1.041&#13;&#10;&#9;&#9;c-0.075-0.522-0.348-0.976-0.816-1.359c-0.47-0.385-1.099-0.619-1.888-0.704c-1.451-0.149-2.901-0.757-4.353-1.824&#13;&#10;&#9;&#9;c-0.384-0.298-0.854-0.448-1.407-0.448c-0.556,0-1.142,0.054-1.761,0.16c-0.619,0.107-1.062,0.326-1.328,0.656&#13;&#10;&#9;&#9;c-0.267,0.331-0.427,0.604-0.479,0.816c-0.054,0.213-0.123,0.373-0.208,0.479c-0.086,0.106-0.357,0.282-0.816,0.528&#13;&#10;&#9;&#9;c-0.458,0.244-0.811,0.4-1.056,0.464c-0.246,0.063-0.608,0.096-1.088,0.096s-0.981-0.037-1.504-0.112&#13;&#10;&#9;&#9;c-0.523-0.074-0.784-0.165-0.784-0.271c0-0.234,0.65-0.587,1.952-1.057c1.301-0.469,2.512-1.156,3.632-2.063&#13;&#10;&#9;&#9;c1.12-0.906,2.074-2.106,2.864-3.601c0.106-0.191,0.276-0.287,0.512-0.287c0.234,0,0.458,0.08,0.672,0.24&#13;&#10;&#9;&#9;c0.213,0.16,0.32,0.299,0.32,0.416s-0.06,0.24-0.176,0.367c-0.118,0.129-0.214,0.32-0.288,0.576&#13;&#10;&#9;&#9;c-0.075,0.256-0.112,0.438-0.112,0.545c0,0.277,0.261,0.533,0.784,0.768c0.522,0.234,0.891,0.352,1.104,0.352&#13;&#10;&#9;&#9;c0.362,0,0.544-0.682,0.544-2.048c0-0.64-0.048-1.216-0.144-1.728s-0.188-0.843-0.272-0.992s-0.191-0.225-0.319-0.225&#13;&#10;&#9;&#9;s-0.396,0.102-0.801,0.305s-0.901,0.4-1.487,0.592c-0.587,0.191-1.024,0.304-1.313,0.336c-0.288,0.031-0.655,0.166-1.104,0.4&#13;&#10;&#9;&#9;c-0.171,0.085-0.336,0.127-0.496,0.127s-0.325-0.164-0.496-0.496c-0.171-0.33-0.256-0.575-0.256-0.735s0.202-0.261,0.607-0.304&#13;&#10;&#9;&#9;l1.12-0.225c0.832-0.17,1.248-0.309,1.248-0.416c0-0.105-0.059-0.229-0.176-0.368c-0.117-0.139-0.176-0.267-0.176-0.384&#13;&#10;&#9;&#9;s0.032-0.24,0.096-0.368c0.064-0.128,0.096-0.32,0.096-0.576v-2.144c0-0.277-0.048-0.416-0.144-0.416s-0.528,0.299-1.296,0.896&#13;&#10;&#9;&#9;c-0.769,0.598-1.403,1.147-1.904,1.648c-0.501,0.501-0.976,0.752-1.424,0.752c-0.149,0-0.315-0.037-0.496-0.112&#13;&#10;&#9;&#9;C4.32,15.09,4.23,14.989,4.23,14.861s0.325-0.475,0.976-1.04c0.65-0.565,1.396-1.376,2.24-2.432C8.288,10.333,8.71,9.72,8.71,9.549&#13;&#10;&#9;&#9;c0-0.064-0.027-0.096-0.08-0.096c-0.054,0-0.384,0.112-0.992,0.336c-0.607,0.224-1.035,0.438-1.279,0.64&#13;&#10;&#9;&#9;c-0.246,0.203-0.459,0.304-0.64,0.304c-0.182,0-0.406-0.325-0.672-0.976c-0.267-0.651-0.4-1.099-0.4-1.344&#13;&#10;&#9;&#9;c0-0.245,0.064-0.416,0.192-0.512c0.128-0.096,0.411-0.144,0.848-0.144c0.437,0,1.189-0.155,2.256-0.464&#13;&#10;&#9;&#9;C9.009,6.984,9.585,6.776,9.67,6.668c0.085-0.106,0.139-0.33,0.16-0.672c0.085-2.325,0.16-3.658,0.224-4&#13;&#10;&#9;&#9;c0.064-0.341,0.177-0.512,0.336-0.512c0.16,0,0.363,0.043,0.608,0.128c0.245,0.085,0.41,0.144,0.496,0.176&#13;&#10;&#9;&#9;c0.085,0.032,0.148,0.102,0.191,0.208c0.043,0.107,0.064,0.251,0.064,0.432c0,0.182-0.032,0.39-0.096,0.624&#13;&#10;&#9;&#9;c-0.064,0.235-0.097,0.565-0.097,0.992s0.011,0.8,0.032,1.12c0.021,0.32,0.053,0.518,0.096,0.592s0.117,0.091,0.225,0.048&#13;&#10;&#9;&#9;c0.32-0.128,0.581-0.192,0.784-0.192c0.202,0,0.346,0.155,0.432,0.464c0.085,0.31,0.128,0.523,0.128,0.64s-0.043,0.229-0.128,0.336&#13;&#10;&#9;&#9;c-0.086,0.107-0.325,0.267-0.72,0.48c-0.396,0.213-0.651,0.39-0.769,0.528c-0.117,0.139-0.176,0.422-0.176,0.848&#13;&#10;&#9;&#9;c0,0.256,0.139,0.395,0.416,0.416c0.533,0.064,0.885,0.235,1.056,0.512s0.257,0.512,0.257,0.704c0,0.192-0.08,0.342-0.24,0.448&#13;&#10;&#9;&#9;c-0.16,0.107-0.379,0.133-0.656,0.08s-0.485-0.08-0.624-0.08s-0.24,0.171-0.304,0.512c-0.064,0.342-0.096,0.96-0.096,1.856&#13;&#10;&#9;&#9;s0.016,1.525,0.048,1.888c0.031,0.363,0.106,0.544,0.224,0.544s0.464-0.096,1.04-0.288c0.576-0.192,1.131-0.384,1.664-0.576&#13;&#10;&#9;&#9;s1.019-0.347,1.456-0.464c0.437-0.117,0.656-0.208,0.656-0.272c0-0.064-0.07-0.16-0.208-0.288c-0.14-0.128-0.208-0.24-0.208-0.336&#13;&#10;&#9;&#9;c0-0.096,0.138-0.144,0.416-0.144h0.288c0.298,0,0.49-0.053,0.575-0.16c0.085-0.106,0.128-0.309,0.128-0.608&#13;&#10;&#9;&#9;c0-0.896-0.085-1.344-0.256-1.344s-1.056,0.565-2.655,1.696c-0.448,0.341-0.764,0.512-0.944,0.512&#13;&#10;&#9;&#9;c-0.182,0-0.411-0.048-0.688-0.144c-0.277-0.096-0.416-0.234-0.416-0.416c0-0.181,0.4-0.597,1.2-1.248&#13;&#10;&#9;&#9;c0.8-0.65,1.499-1.317,2.096-2c0.598-0.682,0.896-1.056,0.896-1.12s-0.037-0.096-0.112-0.096c-0.074,0-0.267,0.038-0.576,0.112&#13;&#10;&#9;&#9;c-0.309,0.075-0.57,0.171-0.783,0.288c-0.214,0.118-0.406,0.176-0.576,0.176c-0.171,0-0.416-0.24-0.736-0.72&#13;&#10;&#9;&#9;s-0.479-0.869-0.479-1.168c0-0.298,0.484-0.528,1.456-0.688c0.97-0.16,1.643-0.304,2.016-0.432s0.587-0.24,0.64-0.336&#13;&#10;&#9;&#9;c0.054-0.096,0.112-0.533,0.177-1.312c0.063-0.778,0.106-1.349,0.128-1.712c0.021-0.362,0.031-1.035,0.031-2.016&#13;&#10;&#9;&#9;c0-0.213,0.049-0.352,0.145-0.416s0.304-0.096,0.624-0.096s0.635,0.043,0.943,0.128c0.31,0.085,0.465,0.187,0.465,0.304&#13;&#10;&#9;&#9;c0,0.118-0.123,0.278-0.368,0.48c-0.246,0.203-0.368,0.795-0.368,1.776l-0.032,1.984c0,0.256,0.048,0.384,0.145,0.384&#13;&#10;&#9;&#9;c0.096,0,0.336-0.058,0.72-0.176c0.384-0.117,0.736-0.176,1.056-0.176c0.533,0,0.8,0.256,0.8,0.768&#13;&#10;&#9;&#9;c0,0.512-0.618,1.035-1.855,1.568c-0.533,0.235-0.859,0.421-0.976,0.56c-0.118,0.139-0.177,0.347-0.177,0.624&#13;&#10;&#9;&#9;c0,0.278,0.054,0.448,0.16,0.512s0.539,0.187,1.296,0.368s1.371,0.31,1.84,0.384c0.47,0.075,0.752,0.149,0.849,0.224&#13;&#10;&#9;&#9;c0.096,0.075,0.191,0.203,0.288,0.384c0.096,0.182,0.144,0.454,0.144,0.816c0,1.152-0.224,1.728-0.672,1.728&#13;&#10;&#9;&#9;c-0.149,0-0.342-0.074-0.576-0.224c-1.963-1.152-3.029-1.728-3.2-1.728s-0.256,0.117-0.256,0.352l0.032,1.408&#13;&#10;&#9;&#9;c0.021,0.512,0.053,0.837,0.096,0.976c0.043,0.139,0.133,0.256,0.272,0.352c0.139,0.096,0.389,0.197,0.752,0.304&#13;&#10;&#9;&#9;c1.578,0.512,2.624,1.051,3.136,1.616s0.769,0.944,0.769,1.136s-0.177,0.331-0.528,0.416c-0.353,0.085-0.604,0.159-0.752,0.224&#13;&#10;&#9;&#9;c-0.619,0.235-1.568,0.395-2.849,0.48c-0.171,0.021-0.287,0.074-0.352,0.16c-0.063,0.085-0.112,0.33-0.144,0.735&#13;&#10;&#9;&#9;c-0.032,0.405-0.112,0.646-0.24,0.72c-0.128,0.076-0.384,0.145-0.769,0.209c-0.384,0.063-0.869,0.203-1.456,0.416&#13;&#10;&#9;&#9;s-0.938,0.389-1.056,0.527S15.494,21.25,15.494,21.549z M20.006,15.821c0-0.512-0.47-0.768-1.408-0.768&#13;&#10;&#9;&#9;c-0.49,0-0.986,0.08-1.487,0.24c-0.502,0.16-0.806,0.31-0.912,0.448c-0.107,0.139-0.208,0.528-0.305,1.167&#13;&#10;&#9;&#9;c-0.096,0.641-0.144,1.057-0.144,1.248c0,0.192,0.085,0.289,0.256,0.289s0.427-0.054,0.769-0.16c0.341-0.107,0.618-0.24,0.832-0.4&#13;&#10;&#9;&#9;c0.213-0.16,0.356-0.256,0.432-0.288c0.074-0.032,0.154-0.048,0.24-0.048h0.191c0.277,0,0.603-0.197,0.977-0.592&#13;&#10;&#9;&#9;C19.819,16.563,20.006,16.184,20.006,15.821z" stroke-width="1"/>
    </g>
    <g/>
    <g/>
    <g/>
    <g/>
    <g/>
    <g/>
    <g/>
    <g/>
    <g/>
    <g/>
    <g/>
    <g/>
    <g/>
    <g/>
    <g/>
  </g>
</svg>