<svg xmlns="http://www.w3.org/2000/svg" xmlns:xlink="http://www.w3.org/1999/xlink" version="1.1" id="图层_1" x="0px" y="0px" width="27.39999771118164" height="23.14499855041504" viewBox="2.1150026321411133 3.00600004196167 27.39999771118164 23.14499855041504" enable-background="new 0 0 30 30" xml:space="preserve">
<g>
	<path fill="#0000FF" d="M29.015,24.723c0,0.618-1.248,0.928-3.744,0.928c-1.835,0-3.029-0.128-3.584-0.384   c-0.213-0.106-0.533-0.22-0.96-0.336c-0.427-0.118-0.735-0.187-0.928-0.208c-0.533-0.064-0.832-0.363-0.896-0.896   c-0.107-1.002-0.433-1.94-0.977-2.815c-0.544-0.874-1.205-1.478-1.983-1.808c-0.779-0.331-1.584-0.742-2.416-1.232   c-0.149-0.085-0.31-0.129-0.48-0.129s-0.32,0.129-0.448,0.385c-0.362,0.789-0.726,1.436-1.088,1.936   c-0.362,0.502-0.875,1.029-1.536,1.584c-0.96,0.812-1.515,1.537-1.664,2.176c-0.063,0.32-0.432,0.571-1.104,0.752   c-0.672,0.182-1.237,0.272-1.696,0.272c-0.459,0-1.056-0.112-1.792-0.336c-0.736-0.224-1.104-0.411-1.104-0.56   c0-0.149,0.128-0.256,0.384-0.32c1.643-0.426,2.906-0.9,3.792-1.424c0.885-0.522,1.706-1.253,2.464-2.191   c0.757-0.939,1.313-1.915,1.664-2.929c0.352-1.013,0.528-1.604,0.528-1.776c0-0.17-0.171-0.256-0.513-0.256   c-0.512,0-0.911,0.043-1.199,0.128c-0.288,0.085-0.619,0.219-0.992,0.4c-0.374,0.182-0.667,0.272-0.88,0.272   c-0.214,0-0.396-0.091-0.544-0.272c-0.149-0.181-0.32-0.442-0.512-0.784c-0.192-0.341-0.288-0.586-0.288-0.736   c0-0.32,1.024-0.65,3.072-0.992c0.683-0.106,1.232-0.229,1.648-0.368s0.666-0.315,0.752-0.528c0.085-0.213,0.128-0.747,0.128-1.6   l-0.032-0.704c0-0.106,0.032-0.176,0.096-0.208c0.064-0.032,0.203-0.048,0.416-0.048s0.544,0.032,0.992,0.096   s0.726,0.192,0.832,0.384c0.106,0.192,0.171,0.432,0.192,0.72c0.021,0.288,0.128,0.432,0.319,0.432   c0.085,0,0.427-0.112,1.024-0.336c0.597-0.224,1.312-0.443,2.144-0.656c0.832-0.213,1.43-0.32,1.792-0.32   c0.363,0,0.763,0.277,1.2,0.832s0.656,1.056,0.656,1.504c0,0.341-0.214,0.512-0.64,0.512l-0.896-0.064   c-0.683,0-1.387,0.075-2.112,0.224c-0.725,0.149-1.312,0.357-1.76,0.624c-0.448,0.267-0.848,0.47-1.2,0.608   c-0.352,0.139-0.527,0.326-0.527,0.56c0,0.235,0.16,0.523,0.479,0.865c1.601,1.663,2.496,2.603,2.688,2.815   c0.448,0.555,1.2,1.147,2.256,1.776s2.08,1.115,3.072,1.455c0.991,0.342,2.08,0.758,3.264,1.248   c1.184,0.491,1.92,0.854,2.208,1.088S29.015,24.531,29.015,24.723z M18.295,3.506c0.533,0,0.8,0.448,0.8,1.344   c0,0.384-0.075,0.629-0.224,0.736c-0.726,0.47-2.006,1.43-3.84,2.88c-0.363,0.278-0.769,0.363-1.216,0.256   c-0.3-0.042-0.608-0.064-0.929-0.064c-0.96,0-1.675,0.16-2.144,0.48c-0.128,0.085-0.246,0.128-0.353,0.128   c-0.277,0-0.49-0.256-0.64-0.768C9.58,7.901,9.292,7.24,8.887,6.515c-0.149-0.256-0.224-0.48-0.224-0.672   c0-0.341,0.267-0.522,0.8-0.544c1.045-0.042,2.202-0.17,3.472-0.384c1.27-0.213,2.085-0.395,2.448-0.544   C16.748,3.794,17.719,3.506,18.295,3.506z" stroke-width="1"/>
</g>
</svg>