<svg xmlns="http://www.w3.org/2000/svg" xmlns:xlink="http://www.w3.org/1999/xlink" version="1.1" id="图层_1" x="0px" y="0px" width="22.089000701904297" height="29.707002639770508" viewBox="5.122000694274902 -0.6419993937015533 22.089000701904297 29.707002639770508" enable-background="new 0 0 30 30" xml:space="preserve">
<g>
	<path fill="#0000FF" d="M15.063,8.882c0,0.192-0.097,0.352-0.288,0.48l-1.473,0.992c-0.768,0.534-1.653,1.019-2.655,1.456   c-1.004,0.438-1.744,0.837-2.225,1.2c-0.479,0.363-0.795,0.693-0.944,0.992c-0.085,0.149-0.234,0.224-0.448,0.224   s-0.501-0.293-0.864-0.88c-0.363-0.586-0.544-0.965-0.544-1.136c0-0.128,0.17-0.256,0.512-0.384s0.56-0.24,0.656-0.336   c0.096-0.096,0.144-0.272,0.144-0.528c0-0.256-0.048-0.501-0.144-0.736c-0.096-0.234-0.24-0.811-0.432-1.728   c-0.192-0.917-0.288-1.53-0.288-1.84c0-0.309,0.203-0.464,0.608-0.464c0.106,0,0.458,0.064,1.056,0.192   c0.597,0.128,0.896,0.341,0.896,0.64c0,0.128-0.037,0.293-0.112,0.496C8.444,7.726,8.407,7.944,8.407,8.179s0.053,0.629,0.16,1.184   c0.106,0.555,0.234,0.832,0.384,0.832c0.148,0,0.356-0.069,0.624-0.208c0.267-0.138,0.464-0.229,0.592-0.272   c0.128-0.042,0.202-0.25,0.224-0.624c0.021-0.373,0.032-0.725,0.032-1.056c0-0.331-0.037-0.869-0.112-1.616   c-0.074-0.747-0.111-1.237-0.111-1.472l0.032-0.64c0-0.235-0.027-0.512-0.08-0.832c-0.054-0.32-0.08-0.555-0.08-0.704   c0-0.149,0.068-0.261,0.208-0.336c0.139-0.075,0.41-0.112,0.815-0.112s0.832,0.08,1.28,0.24s0.672,0.347,0.672,0.56   c0,0.213-0.048,0.384-0.144,0.512c-0.097,0.128-0.166,0.342-0.208,0.64c-0.043,0.299-0.064,0.528-0.064,0.688   c0,0.16,0.021,0.272,0.064,0.336c0.042,0.064,0.213,0.064,0.512,0s0.57-0.096,0.816-0.096c0.244,0,0.426,0.069,0.544,0.208   c0.116,0.139,0.176,0.293,0.176,0.464c0,0.171-0.225,0.438-0.672,0.8c-0.448,0.363-0.854,0.64-1.216,0.832   c-0.235,0.128-0.353,0.352-0.353,0.672c0,0.427,0.096,0.608,0.288,0.544c0.811-0.235,1.322-0.352,1.536-0.352   c0.213,0,0.389,0.048,0.528,0.144C14.993,8.61,15.063,8.733,15.063,8.882z M8.695,22.131c0.148,0,0.224,0.139,0.224,0.416   c0,0.555-0.063,1.094-0.192,1.615c-0.128,0.523-0.181,0.901-0.159,1.137v0.352c0,0.363-0.054,0.736-0.16,1.12   c-0.107,0.384-0.294,0.575-0.561,0.575s-0.677-0.223-1.231-0.672c-0.555-0.447-0.832-0.837-0.832-1.168   c0-0.33,0.17-0.768,0.512-1.312s0.784-1.024,1.328-1.44S8.524,22.131,8.695,22.131z M22.231,19.506   c0,0.449-0.192,0.673-0.576,0.673c-0.385,0-0.901-0.069-1.553-0.208c-0.65-0.139-1.066-0.277-1.247-0.416   c-0.182-0.139-0.411-0.271-0.688-0.4c-0.107-0.064-0.16-0.144-0.16-0.24c0-0.096,0.213-0.186,0.641-0.271   c1.045-0.191,1.567-0.48,1.567-0.864c0-0.746-0.347-1.12-1.04-1.12s-1.194,0.182-1.504,0.545c-0.31,0.362-0.55,1.045-0.72,2.047   c-0.043,0.256-0.112,0.449-0.208,0.576c-0.096,0.129-0.277,0.203-0.544,0.225c-0.268,0.021-0.448,0.091-0.544,0.207   c-0.097,0.118-0.177,0.454-0.24,1.009c-0.064,0.555-0.096,1.228-0.096,2.017l0.159,4.031c0,0.447-0.037,0.768-0.111,0.961   c-0.075,0.191-0.188,0.287-0.336,0.287c-0.149,0-0.48-0.092-0.992-0.271c-0.512-0.182-1.051-0.342-1.616-0.48   s-1.056-0.389-1.472-0.752s-0.624-0.607-0.624-0.736c0-0.128,0.245-0.16,0.736-0.096c0.49,0.064,0.917,0.096,1.279,0.096   s0.619-0.128,0.769-0.384c0.148-0.256,0.224-0.667,0.224-1.231c0-0.566-0.043-1.313-0.128-2.24   c-0.086-0.928-0.149-1.44-0.192-1.536c-0.043-0.097-0.144-0.144-0.304-0.144s-0.613,0.09-1.36,0.271s-1.259,0.352-1.535,0.512   c-0.278,0.16-0.476,0.24-0.593,0.24s-0.229-0.117-0.336-0.352s-0.261-0.453-0.464-0.656s-0.304-0.368-0.304-0.496   c0-0.234,0.421-0.528,1.264-0.88c0.843-0.353,1.36-0.646,1.552-0.88c0.192-0.234,0.4-0.475,0.624-0.721   c0.225-0.244,0.336-0.41,0.336-0.496c0-0.084-0.074-0.127-0.224-0.127c-0.47,0-0.944,0.123-1.424,0.367   c-0.48,0.246-0.891,0.368-1.232,0.368c-0.256,0-0.453-0.117-0.592-0.353c-0.139-0.234-0.277-0.416-0.416-0.543   c-0.139-0.129-0.208-0.234-0.208-0.32c0-0.363,0.597-0.98,1.792-1.856c0.405-0.299,0.891-0.693,1.456-1.184s0.965-0.853,1.2-1.088   c1.344-1.387,2.16-2.08,2.448-2.08s0.549,0.107,0.783,0.32c0.235,0.213,0.353,0.464,0.353,0.752s-0.197,0.544-0.592,0.768   c-0.396,0.224-0.87,0.672-1.424,1.344c-0.556,0.672-0.832,1.168-0.832,1.488c0,0.171,0.096,0.256,0.287,0.256   c0.192,0,0.448-0.16,0.769-0.48c0.469-0.469,0.98-0.896,1.536-1.28c0.555-0.384,0.938-0.576,1.151-0.576   c0.214,0,0.433,0.075,0.656,0.224c0.225,0.149,0.336,0.331,0.336,0.544c0,0.213-0.133,0.432-0.399,0.656   c-0.268,0.224-0.822,0.784-1.664,1.68c-0.844,0.896-1.265,1.418-1.265,1.567s0.24,0.224,0.721,0.224   c0.479,0,0.928-0.25,1.344-0.752c0.416-0.5,0.8-0.815,1.152-0.943c0.352-0.128,0.863-0.191,1.535-0.191   c0.673,0,1.354,0.438,2.049,1.312C21.884,18.302,22.231,18.994,22.231,19.506z M25.303,6.258c0.171,0,0.384,0.224,0.641,0.672   c0.256,0.448,0.447,1.333,0.575,2.656c0.129,1.323,0.192,2.123,0.192,2.4c0,0.278-0.054,0.464-0.16,0.56   c-0.106,0.096-0.379,0.187-0.815,0.272c-0.438,0.085-1.296,0.182-2.576,0.288c-1.28,0.107-2.188,0.16-2.72,0.16   c-0.918,0-1.884-0.475-2.896-1.424c-1.014-0.949-1.52-2.266-1.52-3.952c0-0.491,0.079-1.338,0.239-2.544   c0.16-1.205,0.251-2.187,0.272-2.944c0.021-0.757,0.048-1.227,0.08-1.408s0.128-0.395,0.288-0.64   c0.16-0.245,0.282-0.389,0.367-0.432c0.086-0.042,0.24-0.064,0.465-0.064c0.224,0,0.367,0.043,0.432,0.128   c0.064,0.085,0.096,0.283,0.096,0.592c0,0.31-0.031,0.965-0.096,1.968l-0.224,2.304c0,0.277,0.096,0.416,0.288,0.416   c0.191,0,0.725-0.261,1.6-0.784c0.874-0.522,1.339-0.912,1.392-1.168c0.054-0.256,0.155-0.384,0.305-0.384   c0.148,0,0.352,0.24,0.607,0.72s0.384,0.848,0.384,1.104c0,0.256-0.144,0.507-0.432,0.752c-0.288,0.246-0.688,0.603-1.2,1.072   l-1.216,1.088c-0.299,0.277-0.544,0.416-0.736,0.416c-0.191,0-0.347-0.011-0.464-0.032c-0.117-0.021-0.282-0.032-0.496-0.032   c-0.213,0-0.373,0.048-0.479,0.144c-0.107,0.096-0.16,0.283-0.16,0.56c0,0.832,0.357,1.478,1.072,1.936   c0.714,0.459,1.669,0.688,2.863,0.688c0.854,0,1.547-0.101,2.08-0.304c0.533-0.203,0.891-0.56,1.072-1.072   c0.181-0.512,0.357-1.461,0.528-2.848C25.015,6.546,25.132,6.258,25.303,6.258z M18.519,22.066c0.214,0,0.704,0.102,1.473,0.305   c0.768,0.203,1.456,0.416,2.063,0.64c0.608,0.224,0.965,0.396,1.072,0.512c0.106,0.118,0.192,0.267,0.256,0.448   c0.064,0.181,0.096,0.538,0.096,1.072c0,0.533-0.096,1.056-0.287,1.567c-0.192,0.513-0.416,0.769-0.673,0.769   c-0.256,0-0.655-0.236-1.199-0.705s-0.966-0.943-1.265-1.424c-0.299-0.479-0.688-1.029-1.168-1.647   c-0.479-0.618-0.72-1.028-0.72-1.231S18.284,22.066,18.519,22.066z" stroke-width="1"/>
</g>
</svg>