<svg xmlns="http://www.w3.org/2000/svg" xmlns:xlink="http://www.w3.org/1999/xlink" version="1.1" id="图层_1" x="0px" y="0px" width="22.85700035095215" height="25.418001174926758" viewBox="3.681999683380127 2.5259976387023926 22.85700035095215 25.418001174926758" enable-background="new 0 0 30 30" xml:space="preserve">
<g>
	<path fill="#0000FF" d="M13.079,3.794c0.661,0,0.992,0.352,0.992,1.056c0,0.277-0.24,0.608-0.721,0.992   c-0.479,0.384-0.933,0.699-1.359,0.944c-0.427,0.246-0.662,0.421-0.704,0.528c-0.043,0.107-0.064,0.32-0.064,0.64   c0,0.32,0.043,0.48,0.128,0.48s0.235-0.026,0.448-0.08c0.213-0.053,0.469-0.08,0.769-0.08c0.298,0,0.447,0.235,0.447,0.704   c0,0.576-0.565,1.163-1.695,1.76c-0.278,0.171-0.416,0.491-0.416,0.96c0,0.192,0.16,0.267,0.479,0.224   c0.32-0.042,0.608-0.064,0.864-0.064c0.469,0,0.704,0.16,0.704,0.48c0,0.128-0.069,0.299-0.208,0.512   c-0.14,0.213-0.512,0.48-1.12,0.8c-0.608,0.32-1.558,0.854-2.848,1.6c-1.291,0.748-2.075,1.227-2.353,1.44   c-0.277,0.214-0.544,0.32-0.8,0.32s-0.56-0.219-0.912-0.656c-0.352-0.437-0.528-0.806-0.528-1.104s0.149-0.448,0.448-0.448   s0.923-0.24,1.872-0.72s1.536-0.842,1.76-1.088c0.225-0.245,0.336-0.592,0.336-1.04c0-0.192-0.074-0.288-0.224-0.288   s-0.379,0.048-0.688,0.144c-0.309,0.096-0.57,0.144-0.784,0.144s-0.389-0.25-0.528-0.752c-0.139-0.501-0.208-0.843-0.208-1.024   s0.117-0.272,0.352-0.272c0.234,0,0.656-0.096,1.264-0.288c0.607-0.192,0.954-0.336,1.04-0.432C8.908,9.09,8.951,8.84,8.951,8.435   s-0.107-0.608-0.32-0.608c-0.32,0-0.624,0.08-0.912,0.24c-0.288,0.16-0.485,0.24-0.592,0.24c-0.107,0-0.208-0.069-0.304-0.208   C6.727,7.96,6.578,7.613,6.375,7.059c-0.203-0.555-0.304-0.955-0.304-1.2c0-0.245,0.048-0.416,0.144-0.512   c0.096-0.096,0.219-0.149,0.368-0.16C6.732,5.176,6.871,5.17,6.999,5.17c0.32,0,0.869-0.08,1.648-0.24   c0.778-0.16,1.589-0.389,2.432-0.688S12.588,3.794,13.079,3.794z M12.599,20.723c0.213,0,0.32,0.123,0.32,0.367   c0,0.246-0.229,0.609-0.688,1.089c-0.459,0.479-1.046,1.142-1.761,1.983c-0.715,0.843-1.461,1.531-2.239,2.064   c-0.779,0.533-1.339,0.8-1.681,0.8s-0.619-0.106-0.832-0.319c-0.213-0.214-0.587-0.545-1.12-0.992   c-0.235-0.192-0.352-0.368-0.352-0.528s0.181-0.325,0.544-0.496c1.109-0.512,1.765-1.125,1.968-1.84   c0.203-0.714,0.304-1.818,0.304-3.312c0-1.494,0.053-2.39,0.16-2.688c0.106-0.298,0.283-0.448,0.528-0.448s0.533,0.043,0.864,0.129   c0.33,0.085,0.564,0.17,0.704,0.256c0.138,0.085,0.267,0.127,0.384,0.127s0.373-0.08,0.768-0.24   c0.395-0.159,0.693-0.303,0.896-0.432c0.202-0.127,0.356-0.191,0.464-0.191c0.106,0,0.229,0.107,0.368,0.32   c0.139,0.213,0.208,0.432,0.208,0.655s-0.16,0.603-0.48,1.136c-0.319,0.533-1.077,1.152-2.271,1.856   c-0.149,0.085-0.246,0.197-0.288,0.336c-0.043,0.14-0.064,0.357-0.064,0.656c0,0.747,0.149,1.12,0.448,1.12   c0.213,0,0.896-0.363,2.048-1.088C12.119,20.83,12.386,20.723,12.599,20.723z M21.271,11.154c0.427,0,0.769,0.208,1.024,0.624   s0.384,0.795,0.384,1.136c0,0.619-0.479,0.875-1.439,0.768c-0.32-0.042-0.672-0.064-1.057-0.064c-0.384,0-1.237,0.102-2.56,0.304   c-1.323,0.203-2.107,0.39-2.353,0.56c-0.245,0.171-0.512,0.256-0.8,0.256s-0.518-0.165-0.688-0.496   c-0.171-0.331-0.256-0.72-0.256-1.168c0-0.277,0.138-0.437,0.416-0.48c0.404-0.064,0.746-0.149,1.023-0.256   c0.277-0.106,0.581-0.208,0.912-0.304c0.331-0.096,0.533-0.24,0.608-0.432c0.074-0.192,0.111-0.389,0.111-0.592   s-0.187-0.304-0.56-0.304c-0.374,0-0.624,0.027-0.752,0.08s-0.268,0.08-0.416,0.08c-0.149,0-0.272-0.245-0.368-0.736   c-0.096-0.49-0.144-0.768-0.144-0.832c0-0.49,0.202-0.736,0.607-0.736c0.234,0,0.549-0.075,0.944-0.224   c0.395-0.149,0.64-0.261,0.736-0.336c0.096-0.074,0.144-0.245,0.144-0.512s-0.134-0.4-0.4-0.4s-0.496,0.021-0.688,0.064   c-0.192,0.043-0.342,0.064-0.448,0.064c-0.299,0-0.512-0.203-0.64-0.608c-0.128-0.405-0.192-0.698-0.192-0.88   c0-0.181,0.053-0.426,0.16-0.736c0.106-0.309,0.234-0.501,0.384-0.576c0.149-0.074,0.325-0.117,0.528-0.128   c0.202-0.011,0.874-0.16,2.016-0.448c1.142-0.288,1.894-0.496,2.256-0.624c0.363-0.128,0.683-0.192,0.96-0.192   c0.683,0,1.024,0.459,1.024,1.376c0,0.427-0.235,0.758-0.704,0.992l-1.12,0.64c-0.319,0.171-0.507,0.315-0.56,0.432   c-0.054,0.118-0.08,0.304-0.08,0.56c0,0.256,0.032,0.406,0.096,0.448c0.064,0.043,0.293,0.064,0.688,0.064   c0.395,0,0.645,0.091,0.752,0.272c0.106,0.182,0.16,0.368,0.16,0.56s-0.06,0.368-0.177,0.528S20.289,9.31,19.607,9.65   c-0.214,0.107-0.342,0.278-0.385,0.512c-0.043,0.235-0.063,0.454-0.063,0.656c0,0.203,0.053,0.331,0.16,0.384   c0.106,0.053,0.346,0.08,0.72,0.08c0.373,0,0.65-0.021,0.832-0.064C21.052,11.176,21.186,11.154,21.271,11.154z M25.719,23.699   c0,0.319,0.054,0.794,0.16,1.424c0.106,0.629,0.16,0.954,0.16,0.976c0,0.256-0.117,0.458-0.353,0.608   c-0.234,0.148-1.066,0.309-2.495,0.479c-1.43,0.172-2.801,0.258-4.112,0.258c-1.313,0-2.117-0.061-2.416-0.178   s-0.71-0.602-1.232-1.455s-0.917-1.621-1.184-2.305c-0.267-0.682-0.4-1.594-0.4-2.735s0.059-2.276,0.177-3.408   c0.116-1.13,0.224-1.786,0.319-1.968c0.097-0.181,0.272-0.272,0.528-0.272c0.768,0,1.152,0.203,1.152,0.608   c0,0.128-0.038,0.326-0.112,0.592c-0.075,0.268-0.112,0.508-0.112,0.721s0.043,0.319,0.128,0.319s0.561-0.196,1.424-0.592   c0.864-0.395,1.333-0.692,1.408-0.896c0.074-0.203,0.197-0.305,0.368-0.305s0.368,0.262,0.592,0.784   c0.225,0.522,0.336,0.929,0.336,1.216c0,0.288-0.191,0.539-0.576,0.752c-1.003,0.512-1.717,0.992-2.144,1.44   s-0.789,0.901-1.088,1.36s-0.448,1.082-0.448,1.871c0,0.79,0.277,1.307,0.832,1.553c0.555,0.244,1.515,0.367,2.88,0.367   c0.854,0,1.601-0.127,2.24-0.383c0.64-0.257,1.109-0.576,1.408-0.961c0.298-0.384,0.479-0.96,0.544-1.729   c0.234-2.602,0.501-3.903,0.8-3.903c0.234,0,0.496,0.71,0.784,2.128C25.575,21.485,25.719,22.695,25.719,23.699z" stroke-width="1"/>
</g>
</svg>