<svg xmlns="http://www.w3.org/2000/svg" xmlns:xlink="http://www.w3.org/1999/xlink" version="1.1" id="图层_1" x="0px" y="0px" width="27.27199935913086" height="30.378000259399414" viewBox="0.45100003480911255 -0.2579999566078186 27.27199935913086 30.378000259399414" enable-background="new 0 0 30 30" xml:space="preserve">
<g>
	<path fill="#0000FF" d="M9.943,11.603c0,0.171-0.134,0.4-0.4,0.688s-0.838,1.317-1.712,3.088c-0.149,0.299-0.277,0.491-0.384,0.577   c-0.107,0.085-0.288,0.17-0.544,0.256c-0.64,0.191-1.355,0.555-2.144,1.088c-0.192,0.128-0.421,0.191-0.688,0.191   s-0.592-0.234-0.976-0.703c-0.384-0.47-0.838-1.243-1.36-2.321c-0.523-1.077-0.784-1.84-0.784-2.288   c0-0.363,0.288-0.597,0.864-0.704c0.875-0.17,2.101-0.586,3.68-1.248c0.362-0.149,0.8-0.224,1.312-0.224s1.163,0.192,1.952,0.576   C9.548,10.962,9.943,11.304,9.943,11.603z M6.263,13.106c0-0.64-0.171-0.96-0.512-0.96c-0.341,0-0.752,0.133-1.232,0.4   c-0.48,0.267-0.72,0.555-0.72,0.864c0,0.31,0.128,0.587,0.384,0.832c0.256,0.245,0.533,0.368,0.832,0.368   c0.298,0,0.581-0.176,0.848-0.528S6.263,13.406,6.263,13.106z M9.623,15.955c0,0.127-0.054,0.287-0.16,0.479   c-0.342,0.683-0.512,1.43-0.512,2.239c0,0.236,0.016,0.406,0.048,0.513s0.048,0.22,0.048,0.336c0,0.118-0.075,0.235-0.224,0.353   c-0.149,0.117-0.299,0.176-0.448,0.176s-0.267-0.021-0.352-0.064c-0.47-0.299-1.046-0.544-1.729-0.736   c-0.192-0.042-0.288-0.148-0.288-0.319c0-0.32,0.458-0.96,1.376-1.92c0.917-0.96,1.521-1.44,1.809-1.44   C9.479,15.57,9.623,15.699,9.623,15.955z M19.959,11.603c2.603,0,4.464,0.587,5.584,1.76c1.12,1.174,1.68,1.995,1.68,2.464   c0,0.235-0.117,0.353-0.352,0.353c-0.086,0-0.197-0.026-0.336-0.08c-0.14-0.054-0.304-0.08-0.496-0.08s-0.502,0.026-0.928,0.08   c-0.428,0.054-0.981,0.08-1.664,0.08c-0.214,0-0.496,0.134-0.849,0.399c-0.352,0.268-0.527,0.678-0.527,1.232l0.063,1.408   c0,0.789-0.091,1.59-0.271,2.4c-0.182,0.811-0.288,1.492-0.32,2.047s-0.176,0.832-0.432,0.832c-0.128,0-0.385-0.111-0.769-0.336   c-0.384-0.224-1.019-0.56-1.903-1.008c-0.886-0.447-1.35-0.672-1.393-0.672c-0.128,0-0.191,0.188-0.191,0.561   s-0.038,0.976-0.112,1.808c-0.075,0.832-0.112,1.521-0.112,2.063c0,0.545,0.059,1.02,0.176,1.424   c0.117,0.406,0.177,0.662,0.177,0.77c0,0.34-0.459,0.512-1.376,0.512c-0.406,0-0.588-0.15-0.544-0.449   c0.128-0.66,0.191-1.162,0.191-1.504s-0.037-1.236-0.112-2.688c-0.074-1.451-0.111-2.795-0.111-4.032l0.063-2.688   c0-0.17-0.063-0.256-0.191-0.256c-0.192,0-0.565,0.182-1.12,0.545c-0.556,0.363-0.907,0.72-1.057,1.072   c-0.149,0.352-0.224,1.019-0.224,2c0,0.533,0.096,0.938,0.288,1.215c0.192,0.277,0.288,0.48,0.288,0.608s-0.123,0.288-0.368,0.479   c-0.245,0.193-0.47,0.289-0.672,0.289c-0.203,0-0.374-0.06-0.512-0.176c-0.14-0.117-0.24-0.272-0.305-0.465   c-0.063-0.191-0.208-0.98-0.432-2.367s-0.336-2.166-0.336-2.336c0-0.172,0.042-0.336,0.128-0.496   c0.085-0.16,0.213-0.299,0.384-0.416s0.646-0.353,1.424-0.705c0.779-0.352,1.584-0.697,2.416-1.039   c0.171-0.064,0.257-0.171,0.257-0.32c0-0.32-0.129-0.661-0.385-1.024s-0.479-0.544-0.672-0.544c-0.043,0-0.518,0.101-1.424,0.304   c-0.907,0.203-1.403,0.347-1.488,0.432c-0.128,0.192-0.256,0.288-0.384,0.288c-0.214,0-0.32-0.171-0.32-0.512   c0-0.341,0.283-0.613,0.849-0.816c0.564-0.203,1.008-0.389,1.328-0.56c0.98-0.555,1.754-0.922,2.319-1.104   c0.565-0.181,0.896-0.32,0.992-0.416s0.282-0.362,0.561-0.8c0.276-0.437,0.474-0.8,0.592-1.088   c0.117-0.288,0.176-0.533,0.176-0.736c0-0.203-0.075-0.357-0.224-0.464c-0.15-0.106-0.32-0.16-0.513-0.16   c-0.191,0-0.379,0.07-0.56,0.208c-0.182,0.139-0.347,0.4-0.496,0.784c-0.149,0.384-0.352,0.709-0.608,0.976   c-0.256,0.267-0.395,0.512-0.416,0.736s-0.267,0.4-0.735,0.528c-0.47,0.128-0.812,0.192-1.024,0.192s-0.32-0.096-0.32-0.288   c0-0.192,0.155-0.603,0.465-1.232c0.309-0.629,0.464-1.088,0.464-1.376c0-0.288-0.017-0.464-0.048-0.528   c-0.032-0.064-0.123-0.096-0.272-0.096s-0.47,0.059-0.96,0.176c-0.491,0.118-0.789,0.272-0.896,0.464   c-0.064,0.107-0.177,0.16-0.337,0.16c-0.159,0-0.309-0.112-0.447-0.336c-0.14-0.224-0.208-0.576-0.208-1.056   s0.106-0.805,0.319-0.976c0.213-0.17,0.715-0.256,1.504-0.256c0.363,0,0.811-0.106,1.345-0.32c0.533-0.213,1.536-0.469,3.008-0.768   c1.152-0.192,2.379-0.491,3.68-0.896c0.299-0.085,0.522-0.128,0.672-0.128c0.32,0,0.635,0.304,0.944,0.912   c0.309,0.608,0.464,0.998,0.464,1.168c0,0.171-0.139,0.256-0.416,0.256c-0.085,0-0.224-0.026-0.416-0.08   c-0.191-0.053-0.379-0.08-0.56-0.08c-0.182,0-0.55,0.091-1.104,0.272c-0.555,0.182-0.832,0.357-0.832,0.528   c0,0.171,0.123,0.347,0.368,0.528c0.245,0.182,0.518,0.325,0.816,0.432c0.597,0.149,0.896,0.384,0.896,0.704   c0,0.128-0.08,0.246-0.24,0.352c-0.159,0.107-0.384,0.416-0.672,0.928c-0.288,0.512-0.432,0.811-0.432,0.896   C19.415,11.56,19.596,11.603,19.959,11.603z M17.943,3.57c0,0.171-0.06,0.363-0.177,0.576c-0.117,0.213-0.31,0.32-0.575,0.32   c-0.268,0-0.667-0.069-1.2-0.208c-0.534-0.138-0.923-0.314-1.168-0.528c-0.246-0.213-0.368-0.586-0.368-1.12   c0-0.533-0.011-0.842-0.032-0.928c-0.021-0.085-0.032-0.17-0.032-0.256c0-0.341,0.123-0.624,0.368-0.848s0.448-0.336,0.608-0.336   s0.309,0.155,0.448,0.464c0.138,0.31,0.293,0.576,0.464,0.8c0.17,0.224,0.49,0.523,0.96,0.896   C17.708,2.776,17.943,3.166,17.943,3.57z M18.423,21.778c0.661,0,1.088-0.192,1.28-0.575c0.191-0.385,0.288-0.939,0.288-1.664   c0-0.47-0.097-0.971-0.288-1.504c-0.192-0.533-0.363-0.865-0.512-0.992c-0.15-0.129-0.4-0.192-0.752-0.192   c-0.353,0-0.63,0.032-0.832,0.096c-0.203,0.064-0.32,0.14-0.353,0.224c-0.032,0.086-0.085,0.662-0.16,1.729   s-0.111,1.718-0.111,1.952c0,0.235,0.031,0.405,0.096,0.512c0.063,0.107,0.234,0.203,0.512,0.288   C17.868,21.736,18.146,21.778,18.423,21.778z M22.039,15.635c0.213,0,0.549-0.272,1.008-0.816s0.688-0.976,0.688-1.296   c0-0.234-0.198-0.48-0.593-0.736s-0.896-0.384-1.504-0.384c-0.607,0-1.419,0.112-2.432,0.336c-1.014,0.224-1.579,0.384-1.696,0.48   c-0.117,0.096-0.176,0.24-0.176,0.432l0.032,0.672v0.64c0.618,0.064,1.13,0.096,1.536,0.096c0.96,0,1.908,0.171,2.848,0.512   C21.857,15.613,21.953,15.635,22.039,15.635z" stroke-width="1"/>
</g>
</svg>