<svg xmlns="http://www.w3.org/2000/svg" xmlns:xlink="http://www.w3.org/1999/xlink" version="1.1" id="图层_1" x="0px" y="0px" width="28.45599937438965" height="23.816997528076172" viewBox="1.6030001640319824 3.5500001907348633 28.45599937438965 23.816997528076172" enable-background="new 0 0 30 30" xml:space="preserve">
<g>
	<path fill="#0000FF" d="M8.599,14.066c0.171,0,0.257,0.47,0.257,1.408c0,0.939-0.257,2.166-0.769,3.68   c-0.512,1.516-1.12,2.699-1.824,3.553c-0.171,0.191-0.47,0.768-0.896,1.728c-0.107,0.256-0.256,0.384-0.448,0.384   c-0.341,0-0.896-0.512-1.664-1.535c-0.768-1.025-1.152-2.869-1.152-5.537c0-0.469,0.059-1.076,0.176-1.824   c0.117-0.746,0.245-1.348,0.384-1.807c0.138-0.458,0.208-0.784,0.208-0.976c0-0.192-0.048-0.357-0.144-0.496   c-0.096-0.139-0.144-0.261-0.144-0.368c0-0.106,0.096-0.208,0.288-0.304c0.192-0.096,0.389-0.144,0.592-0.144   c0.203,0,0.619,0.144,1.248,0.432c0.629,0.288,0.944,0.539,0.944,0.752s-0.139,0.491-0.416,0.832   c-0.725,0.875-1.243,1.707-1.552,2.496c-0.31,0.79-0.464,1.686-0.464,2.688c0,1.493,0.218,2.24,0.656,2.24   c0.437,0,0.987-0.368,1.648-1.104c0.661-0.735,1.557-2.586,2.688-5.552C8.343,14.248,8.471,14.066,8.599,14.066z M5.431,5.042   c0.256,0,0.832,0.47,1.728,1.408c0.896,0.939,1.344,1.739,1.344,2.4c0,0.448-0.405,0.672-1.216,0.672   c-0.213,0-0.486-0.074-0.816-0.224C6.14,9.149,5.868,9.048,5.655,8.995S5.276,8.84,5.159,8.69C5.042,8.542,4.956,8.354,4.903,8.13   c-0.053-0.224-0.08-0.613-0.08-1.168C4.823,5.683,5.025,5.042,5.431,5.042z M29.559,22.931c0,0.192-0.159,0.396-0.479,0.608   s-0.886,0.319-1.696,0.319s-1.718-0.042-2.72-0.128c-1.003-0.085-1.573-0.145-1.712-0.176c-0.14-0.032-0.272-0.128-0.4-0.288   s-0.277-0.433-0.448-0.815c-0.447-1.131-1.141-1.953-2.079-2.465c-0.939-0.512-1.516-0.768-1.729-0.768   c-0.171,0-0.277,0.234-0.32,0.703c-0.106,1.324-0.191,2.257-0.256,2.801c-0.063,0.544-0.096,1.045-0.096,1.504   s0.074,0.858,0.224,1.2c0.149,0.341,0.225,0.597,0.225,0.768c0,0.448-0.277,0.673-0.832,0.673c-0.384,0-0.987-0.14-1.809-0.416   c-0.821-0.278-1.563-0.614-2.224-1.009c-0.661-0.396-0.992-0.688-0.992-0.88s0.117-0.256,0.353-0.191   c0.789,0.191,1.492,0.287,2.111,0.287s0.981-0.111,1.088-0.336c0.106-0.224,0.16-1.349,0.16-3.376c0-0.896-0.021-1.424-0.063-1.584   c-0.043-0.159-0.14-0.239-0.288-0.239c-0.32,0-0.715,0.234-1.185,0.703c-0.427,0.406-0.997,0.902-1.712,1.488   c-0.715,0.587-1.157,0.934-1.328,1.04c-0.469,0.299-0.8,0.587-0.991,0.864c-0.192,0.277-0.374,0.416-0.544,0.416   c-0.172,0-0.614-0.129-1.328-0.385c-0.715-0.256-1.072-0.458-1.072-0.607c0-0.148,0.25-0.267,0.752-0.352   c0.501-0.086,1.056-0.336,1.664-0.752s1.328-0.961,2.16-1.633s1.456-1.279,1.872-1.824c0.416-0.543,0.624-0.891,0.624-1.039   c0-0.149-0.08-0.225-0.24-0.225s-0.63,0.112-1.408,0.336c-0.779,0.225-1.274,0.4-1.488,0.528c-0.213,0.128-0.399,0.192-0.56,0.192   s-0.39-0.24-0.688-0.721s-0.447-0.853-0.447-1.119c0-0.268,0.17-0.433,0.512-0.496c0.597-0.107,1.131-0.251,1.6-0.433   c0.47-0.181,1.525-0.453,3.168-0.816c0.32-0.085,0.533-0.176,0.641-0.272c0.106-0.096,0.16-0.24,0.16-0.432l-0.064-0.608   c0-0.32,0.165-0.48,0.496-0.48c0.33,0,0.741,0.043,1.232,0.128c0.49,0.085,0.783,0.16,0.88,0.224   c0.096,0.064,0.144,0.187,0.144,0.368s0.053,0.272,0.16,0.272c0.106,0,0.56-0.112,1.36-0.336c0.8-0.224,1.413-0.336,1.84-0.336   s0.772,0.299,1.04,0.896c0.267,0.598,0.399,1.056,0.399,1.376c0,0.32-0.213,0.48-0.64,0.48c-0.171,0-0.368-0.026-0.592-0.08   c-0.225-0.053-0.518-0.08-0.88-0.08c-0.363,0-0.816,0.053-1.36,0.16c-0.544,0.107-0.854,0.197-0.928,0.271   c-0.075,0.076-0.112,0.166-0.112,0.273c0,0.362,0.512,1.071,1.536,2.127c1.023,1.057,2.271,1.809,3.744,2.256   c2.304,0.705,3.808,1.223,4.512,1.553S29.559,22.674,29.559,22.931z M20.567,4.05c0.575,0,1.071,0.128,1.487,0.384   s0.837,0.651,1.265,1.184c0.426,0.533,0.928,1.067,1.504,1.6c0.191,0.192,0.288,0.384,0.288,0.576s-0.128,0.352-0.385,0.48   c-0.256,0.128-0.709,0.246-1.359,0.352c-0.651,0.107-1.275,0.16-1.872,0.16c-0.812,0-1.216-0.16-1.216-0.48   c0-0.17,0.116-0.331,0.352-0.48c0.789-0.533,1.185-1.12,1.185-1.76c0-0.533-0.342-0.8-1.024-0.8c-0.277,0-0.624,0.032-1.04,0.096   c-0.416,0.064-0.661,0.155-0.736,0.272c-0.074,0.118-0.111,0.294-0.111,0.528c0,1.6,0.122,2.635,0.367,3.104   s0.678,0.704,1.297,0.704l0.544-0.032c0.319,0,0.479,0.166,0.479,0.496c0,0.331-0.293,0.651-0.88,0.96   c-0.587,0.31-1.088,0.464-1.504,0.464s-0.838-0.282-1.264-0.848c-0.428-0.565-0.641-1.317-0.641-2.256l0.032-1.632   c0-0.555-0.086-0.832-0.256-0.832c-0.043,0-0.149,0.038-0.32,0.112c-0.171,0.075-0.421,0.171-0.752,0.288   c-0.331,0.118-0.496,0.357-0.496,0.72c-0.063,0.619-0.154,1.109-0.271,1.472c-0.118,0.363-0.176,0.928-0.176,1.696   s-0.272,1.339-0.816,1.712c-0.544,0.374-1.36,0.56-2.448,0.56c-0.32,0-0.479-0.059-0.479-0.176c0-0.117,0.096-0.288,0.288-0.512   c0.191-0.224,0.458-0.421,0.8-0.592c0.341-0.17,0.629-0.56,0.863-1.168c0.235-0.608,0.353-1.269,0.353-1.984   c0-0.714-0.064-1.114-0.192-1.2S13.047,7.09,12.663,7.09s-0.683,0.208-0.896,0.624c-0.213,0.416-0.319,0.8-0.319,1.152   s0.021,0.613,0.063,0.784c0.043,0.171,0.064,0.336,0.064,0.496s-0.06,0.315-0.176,0.464c-0.118,0.15-0.272,0.224-0.465,0.224   c-0.191,0-0.522-0.133-0.991-0.4c-0.47-0.267-0.704-0.528-0.704-0.784c0-0.128,0.053-0.245,0.16-0.352   c0.341-0.341,0.64-0.746,0.896-1.216c0.49-0.917,1.131-1.525,1.92-1.824c0.341-0.149,0.57-0.272,0.688-0.368   c0.116-0.096,0.271-0.144,0.464-0.144c0.191,0,0.607-0.128,1.248-0.384c0.64-0.256,1.643-0.538,3.008-0.848   C18.988,4.206,19.97,4.05,20.567,4.05z" stroke-width="1"/>
</g>
</svg>