<svg xmlns="http://www.w3.org/2000/svg" xmlns:xlink="http://www.w3.org/1999/xlink" version="1.1" id="图层_1" x="0px" y="0px" width="28.68000030517578" height="27.397001266479492" viewBox="1.5250017642974854 0.6010003089904785 28.68000030517578 27.397001266479492" style="enable-background:new 0 0 30 30;" xml:space="preserve">
  <g>
    <g>
      <path style="fill:#0000FF;" d="M6.182,21.484c0.214-0.021,0.357-0.08,0.433-0.176c0.074-0.096,0.111-0.341,0.111-0.736&#13;&#10;&#9;&#9;c0-0.395-0.069-0.762-0.208-1.104c-0.139-0.341-0.362-0.778-0.671-1.313c-0.31-0.533-0.518-0.992-0.624-1.375&#13;&#10;&#9;&#9;c-0.107-0.385-0.171-0.678-0.192-0.88c-0.021-0.203-0.032-0.603-0.032-1.2c0-0.597-0.133-0.976-0.4-1.136&#13;&#10;&#9;&#9;c-0.267-0.16-0.4-0.282-0.4-0.368c0-0.085,0.069-0.192,0.208-0.32c0.138-0.128,0.325-0.192,0.56-0.192s0.709,0.08,1.424,0.24&#13;&#10;&#9;&#9;c0.715,0.16,1.137,0.283,1.265,0.368c0.128,0.086,0.191,0.219,0.191,0.4s-0.106,0.368-0.319,0.56&#13;&#10;&#9;&#9;c-0.513,0.448-0.769,1.067-0.769,1.856c0,0.639,0.112,1.295,0.336,1.967c0.225,0.672,0.48,1.152,0.769,1.44&#13;&#10;&#9;&#9;s0.484,0.522,0.592,0.704c0.106,0.182,0.176,0.416,0.208,0.704s0.096,0.464,0.192,0.528c0.096,0.063,0.282,0.106,0.56,0.127&#13;&#10;&#9;&#9;c1.92,0.15,3.339,0.459,4.256,0.929c0.448,0.235,0.891,0.374,1.328,0.416c0.437,0.043,0.901,0.165,1.392,0.368&#13;&#10;&#9;&#9;c0.491,0.203,1.237,0.4,2.24,0.592s1.877,0.299,2.624,0.32c2.667,0.148,4.49,0.341,5.472,0.576c0.257,0.063,0.48,0.096,0.673,0.096&#13;&#10;&#9;&#9;c1.045,0.085,1.69,0.234,1.936,0.447s0.368,0.416,0.368,0.608s-0.268,0.336-0.8,0.433c-0.534,0.096-1.046,0.224-1.536,0.383&#13;&#10;&#9;&#9;c-0.491,0.16-1.516,0.326-3.072,0.496c-1.558,0.171-2.806,0.256-3.744,0.256c-0.448,0-0.8-0.213-1.056-0.639&#13;&#10;&#9;&#9;c-0.363-0.619-0.64-1.014-0.832-1.185s-0.672-0.421-1.44-0.752c-0.768-0.331-1.487-0.544-2.159-0.64&#13;&#10;&#9;&#9;c-0.673-0.097-1.243-0.252-1.713-0.465c-0.768-0.362-2.613-0.543-5.535-0.543c-0.812,0-1.616,0.053-2.417,0.159&#13;&#10;&#9;&#9;c-0.8,0.106-1.312,0.235-1.536,0.384c-0.224,0.15-0.4,0.225-0.528,0.225c-0.277,0-0.565-0.245-0.864-0.736&#13;&#10;&#9;&#9;c-0.299-0.49-0.448-0.848-0.448-1.072c0-0.224,0.069-0.352,0.208-0.384c0.139-0.032,0.475-0.048,1.008-0.048&#13;&#10;&#9;&#9;c0.192,0,0.64-0.043,1.344-0.128L6.182,21.484z M5.318,5.869c0.256,0,0.448,0.16,0.576,0.48c0.128,0.32,0.298,0.576,0.512,0.768&#13;&#10;&#9;&#9;c0.362,0.299,0.666,0.667,0.912,1.104c0.245,0.438,0.367,0.763,0.367,0.976c0,0.299-0.159,0.448-0.479,0.448&#13;&#10;&#9;&#9;c-0.128,0-0.539-0.021-1.232-0.064C5.281,9.538,4.859,9.458,4.71,9.341C4.561,9.224,4.459,9.005,4.406,8.685&#13;&#10;&#9;&#9;c-0.054-0.32-0.08-0.656-0.08-1.008s0.09-0.741,0.272-1.168C4.779,6.082,5.019,5.869,5.318,5.869z M22.982,5.933&#13;&#10;&#9;&#9;c0.298,0,0.517,0.069,0.655,0.208c0.139,0.139,0.262,0.427,0.368,0.864c0.106,0.438,0.16,0.79,0.16,1.056&#13;&#10;&#9;&#9;c0,0.267-0.128,0.4-0.384,0.4s-0.587-0.016-0.992-0.048c-0.405-0.032-1.04-0.048-1.904-0.048c-0.863,0-1.707,0.112-2.527,0.336&#13;&#10;&#9;&#9;c-0.822,0.224-1.35,0.512-1.584,0.864c-0.235,0.352-0.353,0.582-0.353,0.688s0.043,0.16,0.128,0.16s0.182-0.01,0.288-0.032&#13;&#10;&#9;&#9;c1.152-0.256,2.026-0.384,2.624-0.384c0.427,0,0.971,0.107,1.632,0.32s0.992,0.438,0.992,0.672c0,0.235-0.085,0.533-0.256,0.896&#13;&#10;&#9;&#9;c-0.277,0.662-0.416,2.4-0.416,5.216c0,0.854,0.016,1.413,0.048,1.681c0.032,0.267,0.048,0.623,0.048,1.071&#13;&#10;&#9;&#9;s-0.043,0.838-0.128,1.168c-0.085,0.331-0.128,0.673-0.128,1.024s-0.096,0.527-0.288,0.527c-0.191,0-0.709-0.304-1.552-0.912&#13;&#10;&#9;&#9;c-0.843-0.607-1.44-1.061-1.792-1.359s-0.656-0.448-0.912-0.448s-0.758,0.106-1.504,0.32c-0.747,0.214-1.216,0.399-1.408,0.56&#13;&#10;&#9;&#9;c-0.191,0.16-0.352,0.24-0.479,0.24s-0.229-0.085-0.305-0.256c-0.074-0.17-0.213-0.763-0.416-1.775&#13;&#10;&#9;&#9;c-0.202-1.014-0.304-1.963-0.304-2.849c0-0.885,0.053-1.659,0.16-2.32c0.106-0.661,0.16-1.189,0.16-1.584&#13;&#10;&#9;&#9;c0-0.394,0.181-0.677,0.544-0.848c0.256-0.128,0.421-0.368,0.496-0.72c0.074-0.352,0.111-0.586,0.111-0.704&#13;&#10;&#9;&#9;c0-0.117-0.117-0.176-0.352-0.176l-1.313,0.096c-0.981,0.064-1.573,0.144-1.775,0.24c-0.203,0.096-0.357,0.144-0.464,0.144&#13;&#10;&#9;&#9;c-0.107,0-0.192-0.133-0.256-0.4C9.542,9.554,9.51,9.341,9.51,9.181s0.037-0.277,0.112-0.352c0.074-0.074,0.165-0.112,0.271-0.112&#13;&#10;&#9;&#9;h0.288c0.32,0,0.603-0.059,0.849-0.176c0.245-0.117,0.576-0.202,0.992-0.256c0.416-0.053,0.783-0.128,1.104-0.224&#13;&#10;&#9;&#9;c0.32-0.096,0.544-0.176,0.672-0.24c0.832-0.363,1.653-0.661,2.464-0.896c0.277-0.085,0.522-0.234,0.736-0.448&#13;&#10;&#9;&#9;c0.213-0.213,0.848-0.976,1.904-2.288c1.056-1.312,1.674-2.154,1.855-2.528c0.182-0.373,0.39-0.56,0.624-0.56&#13;&#10;&#9;&#9;s0.565,0.198,0.992,0.592c0.427,0.395,0.64,0.688,0.64,0.88s-0.159,0.363-0.479,0.512c-0.32,0.15-0.892,0.667-1.712,1.552&#13;&#10;&#9;&#9;c-0.821,0.885-1.232,1.371-1.232,1.456c0,0.085,0.064,0.128,0.192,0.128s0.309-0.021,0.544-0.064&#13;&#10;&#9;&#9;C21.478,6.008,22.363,5.933,22.982,5.933z M16.166,3.181c0,0.128-0.086,0.267-0.256,0.416c-0.533,0.427-1.291,1.227-2.272,2.4&#13;&#10;&#9;&#9;c-0.149,0.192-0.288,0.288-0.416,0.288s-0.464-0.234-1.008-0.704c-0.544-0.469-0.815-0.811-0.815-1.024&#13;&#10;&#9;&#9;c0-0.213,0.111-0.4,0.336-0.56c0.224-0.16,0.868-0.378,1.936-0.656c1.066-0.277,1.749-0.416,2.048-0.416S16.166,3.01,16.166,3.181z&#13;&#10;&#9;&#9; M18.566,19.693c0.213,0,0.352-0.097,0.416-0.289c0.063-0.191,0.096-0.74,0.096-1.647s-0.032-1.931-0.096-3.072&#13;&#10;&#9;&#9;c-0.064-1.141-0.149-1.893-0.257-2.256c-0.106-0.362-0.245-0.613-0.416-0.752c-0.171-0.139-0.501-0.208-0.991-0.208&#13;&#10;&#9;&#9;c-0.491,0-1.003,0.139-1.536,0.416c-0.534,0.277-0.8,0.598-0.8,0.96c0,0.128,0.154,0.192,0.464,0.192&#13;&#10;&#9;&#9;c0.309,0,0.576-0.021,0.8-0.064c0.224-0.042,0.432-0.064,0.624-0.064s0.288,0.149,0.288,0.448c0,0.533-0.283,0.875-0.849,1.024&#13;&#10;&#9;&#9;c-0.565,0.149-1.008,0.31-1.327,0.48c-0.32,0.171-0.534,0.325-0.641,0.464c-0.106,0.139-0.16,0.299-0.16,0.48&#13;&#10;&#9;&#9;c0,0.182,0.043,0.271,0.128,0.271c0.086,0,0.368-0.074,0.849-0.224c0.479-0.149,0.864-0.224,1.151-0.224&#13;&#10;&#9;&#9;c0.288,0,0.433,0.128,0.433,0.384c0,0.534-0.256,0.821-0.769,0.864c-0.256,0.021-0.613,0.154-1.071,0.4&#13;&#10;&#9;&#9;c-0.459,0.244-0.731,0.421-0.816,0.527c-0.085,0.107-0.128,0.31-0.128,0.607c0,0.3,0.128,0.449,0.384,0.449&#13;&#10;&#9;&#9;c0.085,0,0.16-0.012,0.225-0.033c1.621-0.469,2.549-0.703,2.783-0.703c0.235,0,0.363,0.128,0.385,0.384&#13;&#10;&#9;&#9;c0.021,0.256,0.101,0.518,0.239,0.784S18.31,19.693,18.566,19.693z" stroke-width="1"/>
    </g>
    <g/>
    <g/>
    <g/>
    <g/>
    <g/>
    <g/>
    <g/>
    <g/>
    <g/>
    <g/>
    <g/>
    <g/>
    <g/>
    <g/>
    <g/>
  </g>
</svg>