<svg xmlns="http://www.w3.org/2000/svg" xmlns:xlink="http://www.w3.org/1999/xlink" version="1.1" id="图层_1" x="0px" y="0px" width="25.764997482299805" height="26.471004486083984" viewBox="1.2220032215118408 2.0149998664855957 25.764997482299805 26.471004486083984" enable-background="new 0 0 30 30" xml:space="preserve">
<g>
	<path fill="#0000FF" d="M22.935,15.795c0.192,0,0.357,0.063,0.496,0.191c0.139,0.129,0.331,0.486,0.576,1.072   c0.245,0.587,0.368,1.04,0.368,1.359c0,0.32-0.203,0.48-0.608,0.48c-0.171,0-0.544-0.064-1.119-0.191   c-0.576-0.129-1.104-0.192-1.584-0.192c-0.48,0-0.918,0.017-1.313,0.048c-0.395,0.032-0.635,0.133-0.72,0.305   c-0.086,0.17-0.145,0.389-0.176,0.655c-0.032,0.267-0.044,0.576-0.032,0.929c0.01,0.352,0.016,0.57,0.016,0.655l-0.128,3.872   l0.032,2.176c0,0.299-0.038,0.512-0.112,0.641c-0.075,0.127-0.219,0.191-0.432,0.191c-1.536,0-3.317-1.077-5.344-3.232   c-0.086-0.085-0.166-0.127-0.24-0.127c-0.075,0-0.14,0.037-0.192,0.111c-0.054,0.074-0.165,0.208-0.336,0.4   c-0.171,0.191-0.331,0.459-0.479,0.8c-0.086,0.171-0.22,0.256-0.4,0.256c-0.182,0-0.518-0.229-1.008-0.688   c-0.491-0.459-0.736-0.783-0.736-0.975c0-0.193,0.384-0.684,1.152-1.473c0.768-0.789,1.45-1.418,2.048-1.889   c0.597-0.469,0.949-0.703,1.056-0.703s0.16,0.069,0.16,0.207c0,0.14-0.106,0.576-0.32,1.313c-0.213,0.736-0.384,1.238-0.512,1.504   c-0.128,0.268-0.191,0.422-0.191,0.465c0,0.191,0.352,0.432,1.056,0.719c0.704,0.289,1.29,0.433,1.76,0.433   c0.469,0,0.763-0.102,0.88-0.304c0.117-0.203,0.176-0.704,0.176-1.504c0-0.801-0.069-1.67-0.208-2.608s-0.239-1.461-0.304-1.567   c-0.063-0.107-0.16-0.16-0.288-0.16s-0.667,0.08-1.616,0.24c-0.949,0.159-1.589,0.314-1.92,0.463   c-0.331,0.15-0.575,0.225-0.735,0.225s-0.348-0.139-0.561-0.416c-0.021-0.021-0.091-0.032-0.208-0.032s-0.208,0.032-0.271,0.097   c-0.981,1.301-2.396,2.484-4.24,3.551c-1.846,1.067-2.891,1.601-3.136,1.601s-0.56-0.277-0.944-0.832   c-0.384-0.554-0.576-0.923-0.576-1.104c0-0.18,0.123-0.298,0.368-0.352c0.245-0.053,0.576-0.154,0.992-0.304   s0.645-0.267,0.688-0.353c0.042-0.084,0.042-0.202,0-0.352c-0.427-2.111-0.64-3.669-0.64-4.672c0-0.768,0.245-1.152,0.736-1.152   c0.192,0,0.443,0.064,0.752,0.192c0.309,0.128,0.464,0.267,0.464,0.416s-0.027,0.315-0.08,0.495   c-0.054,0.182-0.08,0.523-0.08,1.025c0,0.501,0.059,1.141,0.176,1.92c0.117,0.778,0.186,1.189,0.208,1.231   c0.021,0.043,0.064,0.063,0.128,0.063s0.218-0.059,0.464-0.176c0.245-0.117,0.384-0.25,0.416-0.4   c0.032-0.148,0.064-0.463,0.096-0.943c0.032-0.48,0.048-1.019,0.048-1.616c0-0.597-0.027-1.317-0.08-2.159   c-0.054-0.843-0.102-1.313-0.144-1.409c-0.043-0.096-0.128-0.187-0.256-0.272c-0.406-0.256-0.779-0.842-1.12-1.76   c-0.341-0.917-0.512-2.016-0.512-3.296c0-0.277,0.037-0.48,0.112-0.608c0.074-0.128,0.224-0.192,0.448-0.192   c0.224,0,0.805-0.16,1.744-0.48s1.707-0.48,2.304-0.48c0.597,0,1.312,0.149,2.144,0.448c0.832,0.299,1.248,0.598,1.248,0.896   c0,0.15-0.106,0.395-0.319,0.736c-0.214,0.341-0.448,0.64-0.704,0.896c-0.576,0.555-0.896,1.323-0.96,2.304   c-0.021,0.363-0.07,0.592-0.145,0.688c-0.075,0.096-0.293,0.198-0.656,0.304c-0.362,0.107-0.587,0.197-0.672,0.272   c-0.085,0.075-0.144,0.267-0.176,0.576c-0.032,0.31-0.048,0.539-0.048,0.688c0,0.149,0.074,0.224,0.224,0.224   c0.341,0,0.619-0.032,0.832-0.096s0.362-0.096,0.448-0.096c0.256,0,0.384,0.166,0.384,0.496s-0.032,0.555-0.096,0.672   c-0.064,0.117-0.277,0.336-0.64,0.656c-0.363,0.319-0.79,0.619-1.28,0.896c-0.235,0.149-0.353,0.39-0.353,0.72   c0,0.331,0.032,0.592,0.097,0.784c0.063,0.192,0.148,0.288,0.256,0.288c0.021,0,0.352-0.139,0.992-0.416   c0.64-0.277,0.97-0.459,0.991-0.544c0.043-0.149,0.165-0.267,0.368-0.353c0.203-0.084,0.837-0.234,1.904-0.447   c1.066-0.213,1.744-0.325,2.032-0.336s0.709-0.117,1.264-0.32s1.376-0.416,2.464-0.641c1.088-0.224,1.861-0.34,2.32-0.352   c0.458-0.01,1.019-0.09,1.68-0.24C22.7,15.806,22.828,15.795,22.935,15.795z M7.447,12.05c1.023,0,1.536-0.768,1.536-2.304   c0-0.619-0.246-0.928-0.736-0.928c-1.131,0-1.696,0.63-1.696,1.888c0,0.534,0.064,0.891,0.192,1.072   C6.871,11.96,7.105,12.05,7.447,12.05z M13.367,12.626c0,0.192,0.032,0.448,0.096,0.768c0.064,0.32,0.096,0.576,0.096,0.768   c0,0.427-0.154,0.64-0.464,0.64s-0.726-0.112-1.248-0.336c-0.522-0.224-0.783-0.474-0.783-0.752c0-0.277,0.111-0.603,0.336-0.976   c0.224-0.373,0.554-0.709,0.991-1.008c0.438-0.298,0.721-0.448,0.849-0.448c0.213,0,0.288,0.171,0.224,0.512   C13.399,12.136,13.367,12.414,13.367,12.626z M21.943,8.21c0.319,0,0.666,0.102,1.04,0.304C23.356,8.717,23.772,9,24.231,9.362   c0.458,0.363,0.81,0.704,1.056,1.024c0.245,0.32,0.507,0.736,0.784,1.248c0.276,0.512,0.416,0.875,0.416,1.088   s-0.315,0.443-0.944,0.688c-0.63,0.246-1.302,0.368-2.016,0.368c-0.716,0-1.339-0.037-1.872-0.112   c-0.534-0.075-0.844-0.112-0.929-0.112c-0.234,0-0.715,0.277-1.439,0.832c-1.088,0.789-2.251,1.184-3.488,1.184   c-0.256,0-0.522-0.277-0.8-0.832c-0.277-0.554-0.416-0.896-0.416-1.024c0-0.256,0.171-0.41,0.512-0.464   c0.341-0.053,0.886-0.181,1.632-0.384c0.747-0.203,1.297-0.368,1.648-0.496s0.73-0.192,1.136-0.192s0.709,0.064,0.912,0.192   s0.357,0.192,0.464,0.192c0.256,0,0.726-0.181,1.408-0.544c0.683-0.362,1.024-0.864,1.024-1.504c0-0.32-0.123-0.613-0.368-0.88   c-0.246-0.266-0.587-0.4-1.024-0.4s-1.35,0.31-2.735,0.928c-1.388,0.619-2.539,0.928-3.456,0.928c-0.342,0-0.576,0.021-0.704,0.064   c-0.128,0.043-0.235,0.064-0.32,0.064s-0.16-0.112-0.224-0.336c-0.064-0.224-0.097-0.405-0.097-0.544   c0-0.138,0.069-0.245,0.208-0.32c0.139-0.075,0.667-0.314,1.584-0.72c0.917-0.405,2.011-0.688,3.28-0.848   C20.732,8.291,21.559,8.21,21.943,8.21z M17.655,2.515c0.148,0,0.256,0.107,0.319,0.32c0.085,0.299,0.363,0.64,0.832,1.024   c0.938,0.79,1.408,1.59,1.408,2.4c0,0.278-0.069,0.47-0.208,0.576c-0.139,0.107-0.368,0.16-0.688,0.16   c-0.939,0-1.659-0.229-2.16-0.688c-0.502-0.458-0.752-0.955-0.752-1.488c0-0.533,0.042-0.912,0.128-1.136   c0.085-0.224,0.25-0.475,0.496-0.752C17.276,2.653,17.484,2.515,17.655,2.515z M25.591,23.154c0,0.15-0.096,0.47-0.288,0.961   c-0.191,0.49-0.31,0.874-0.352,1.151c-0.043,0.276-0.155,0.532-0.336,0.769c-0.182,0.234-0.396,0.352-0.641,0.352   s-0.56-0.385-0.943-1.152c-0.598-1.216-1.248-2.421-1.952-3.615c-0.214-0.363-0.32-0.635-0.32-0.816s0.123-0.271,0.368-0.271   s0.624,0.154,1.136,0.463c0.513,0.311,1.205,0.646,2.08,1.008C25.175,22.344,25.591,22.729,25.591,23.154z" stroke-width="1"/>
</g>
</svg>