<svg xmlns="http://www.w3.org/2000/svg" xmlns:xlink="http://www.w3.org/1999/xlink" version="1.1" id="图层_1" x="0px" y="0px" width="27.33599853515625" height="26.856000900268555" viewBox="-0.44499874114990234 1.0230000019073486 27.33599853515625 26.856000900268555" enable-background="new 0 0 30 30" xml:space="preserve">
<g>
	<path fill="#0000FF" d="M10.167,12.882c0.064-0.149,0.229-0.224,0.496-0.224c0.267,0,0.624-0.139,1.072-0.416   c0.447-0.277,0.672-0.629,0.672-1.056c0-0.213-0.097-0.32-0.288-0.32l-0.832,0.128c-0.214,0-0.368-0.165-0.464-0.496   c-0.097-0.331-0.145-0.64-0.145-0.928c0-0.288,0.192-0.432,0.576-0.432l0.353,0.032c0.298,0,0.495-0.09,0.592-0.272   c0.096-0.181,0.165-0.581,0.208-1.2c0.042-0.619,0.063-1.696,0.063-3.232c0-0.362,0.037-0.602,0.112-0.72   c0.074-0.117,0.213-0.176,0.416-0.176c0.202,0,0.597,0.096,1.184,0.288s0.938,0.336,1.057,0.432   c0.117,0.096,0.176,0.208,0.176,0.336s-0.043,0.256-0.128,0.384c-0.299,0.512-0.448,1.397-0.448,2.656   c0,0.213,0.021,0.363,0.064,0.448c0.042,0.085,0.267,0.128,0.672,0.128s0.692,0.085,0.864,0.256   c0.17,0.171,0.256,0.416,0.256,0.736c0,0.32-0.054,0.534-0.16,0.64c-0.107,0.107-0.416,0.224-0.928,0.352   c-0.513,0.128-0.769,0.374-0.769,0.736c0,0.107,0.048,0.171,0.145,0.192c0.096,0.021,0.336,0.032,0.72,0.032   c0.191,0,0.373,0.149,0.544,0.448c0.171,0.299,0.256,0.566,0.256,0.8c0,0.363-0.283,0.677-0.848,0.944   c-0.565,0.267-1.286,0.411-2.16,0.432c-0.875,0.021-1.531,0.107-1.968,0.256c-0.438,0.149-0.764,0.224-0.977,0.224l-0.352-0.032   c-0.107,0-0.171,0.032-0.192,0.096c-0.213,0.427-0.598,0.875-1.151,1.345C8.3,16.168,8.012,16.498,7.991,16.69l-0.192,1.696   c-0.106,0.939-0.16,1.515-0.16,1.729c0,0.746,0.037,1.797,0.112,3.151c0.074,1.354,0.133,2.213,0.176,2.575   c0.043,0.363,0.064,0.619,0.064,0.769c0,0.513-0.14,0.769-0.416,0.769c-0.128,0-0.374-0.107-0.736-0.32   c-0.363-0.213-0.805-0.406-1.328-0.576c-0.523-0.171-1.014-0.48-1.472-0.928c-0.459-0.448-0.688-0.726-0.688-0.832   c0-0.107,0.059-0.16,0.176-0.16s0.293,0.021,0.528,0.064c0.234,0.042,0.554,0.063,0.96,0.063c0.405,0,0.72-0.165,0.944-0.496   c0.224-0.33,0.309-0.858,0.256-1.584c-0.053-0.725-0.08-1.76-0.08-3.104c0-0.426-0.064-0.639-0.192-0.639s-0.363,0.266-0.704,0.799   c-0.341,0.534-0.854,1.109-1.536,1.729c-0.384,0.363-0.629,0.726-0.736,1.088c-0.107,0.32-0.251,0.48-0.432,0.48   c-0.182,0-0.64-0.283-1.376-0.848c-0.736-0.566-1.104-0.966-1.104-1.201c0-0.234,0.085-0.399,0.256-0.496   c0.17-0.096,0.576-0.432,1.216-1.008l2.048-1.92c0.725-0.682,1.291-1.194,1.696-1.535c0.405-0.342,0.634-0.555,0.688-0.641   c0.053-0.085,0.096-0.256,0.128-0.512c0.032-0.256,0.048-0.619,0.048-1.088c0-0.469-0.075-0.768-0.224-0.896   c-0.149-0.128-0.379-0.192-0.688-0.192c-0.31,0-0.699,0.107-1.168,0.32c-0.47,0.214-0.779,0.32-0.928,0.32   c-0.149,0-0.277-0.096-0.384-0.288c-0.107-0.192-0.224-0.608-0.352-1.248s-0.192-1.056-0.192-1.248   c0-0.426,0.245-0.608,0.736-0.544c0.49,0.064,0.896,0.096,1.216,0.096c0.32,0,0.688-0.101,1.104-0.304   c0.416-0.203,0.688-0.352,0.816-0.448c0.128-0.096,0.203-0.267,0.224-0.512c0.021-0.245,0.053-0.496,0.096-0.752   c0.149-0.96,0.224-2.005,0.224-3.136L6.551,2.099c0-0.384,0.112-0.576,0.336-0.576c0.224,0,0.619,0.118,1.184,0.352   c0.564,0.235,0.912,0.405,1.04,0.512S9.303,2.6,9.303,2.707c0,0.107-0.043,0.213-0.128,0.32c-0.277,0.278-0.507,0.95-0.688,2.016   c-0.182,1.067-0.272,2.187-0.272,3.36c0,0.15,0.064,0.224,0.192,0.224S8.684,8.61,8.855,8.579c0.17-0.032,0.341-0.048,0.512-0.048   c0.17,0,0.298,0.123,0.384,0.368c0.085,0.246,0.128,0.678,0.128,1.296c0,0.256-0.176,0.539-0.528,0.848   c-0.352,0.31-0.624,0.635-0.815,0.976c-0.192,0.341-0.288,0.688-0.288,1.04s0.048,0.528,0.144,0.528   c0.097,0,0.267-0.064,0.513-0.192c0.245-0.128,0.501-0.229,0.768-0.304C9.938,13.016,10.103,12.946,10.167,12.882z M25.975,10.002   c0,0.107-0.037,0.288-0.111,0.544c-0.075,0.256-0.112,0.928-0.112,2.016l0.064,3.809c0,2.518-0.054,4.165-0.16,4.943   c-0.107,0.779-0.348,1.168-0.721,1.168s-0.891-0.304-1.552-0.912c-0.661-0.607-0.992-0.965-0.992-1.072   c0-0.105,0.097-0.17,0.288-0.191c0.405-0.021,0.608-0.24,0.608-0.656s-0.069-1.652-0.208-3.712   c-0.139-2.059-0.24-3.376-0.304-3.952c-0.064-0.576-0.172-0.944-0.32-1.104c-0.149-0.16-0.448-0.24-0.896-0.24   c-1.066,0-1.775,0.288-2.128,0.864c-0.352,0.576-0.527,1.654-0.527,3.232l0.063,3.744c0,1.109-0.277,1.664-0.832,1.664   c-0.171,0-0.31-0.048-0.416-0.145c-0.106-0.096-0.224-0.399-0.352-0.912c-0.128-0.512-0.214-1.066-0.256-1.663   c-0.043-0.597-0.102-0.896-0.177-0.896c-0.074,0-0.251,0.191-0.527,0.575c-0.277,0.384-0.438,0.704-0.48,0.96   s-0.16,0.73-0.352,1.424c-0.192,0.693-0.326,1.078-0.4,1.152c-0.075,0.074-0.191,0.154-0.352,0.24s-0.379,0.128-0.656,0.128h-0.288   c-0.854,0-1.472,0.117-1.855,0.352c-0.172,0.107-0.305,0.16-0.4,0.16s-0.192-0.048-0.288-0.144s-0.363-0.539-0.8-1.328   c-0.438-0.789-0.747-1.482-0.928-2.08c-0.182-0.598-0.272-1.141-0.272-1.633c0-0.447,0.197-0.692,0.592-0.735   c0.395-0.042,0.849-0.16,1.36-0.352c1.344-0.448,2.399-0.672,3.168-0.672c0.768,0,1.45,0.203,2.048,0.608   c0.106,0.085,0.202,0.128,0.288,0.128c0.192,0,0.288-0.17,0.288-0.512c0-0.661,0.026-1.408,0.08-2.24   c0.053-0.832,0.096-1.333,0.128-1.504c0.032-0.17,0.122-0.325,0.271-0.464s0.385-0.272,0.704-0.4   c0.32-0.128,0.561-0.346,0.721-0.656c0.159-0.309,0.239-0.576,0.239-0.8c0-0.224-0.048-0.389-0.144-0.496   c-0.096-0.106-0.24-0.16-0.432-0.16h-0.385c-0.704,0-1.136-0.139-1.296-0.416c-0.16-0.277-0.24-0.555-0.24-0.832   c0-0.448,0.192-0.672,0.576-0.672c0.085,0,0.192,0.021,0.32,0.064c0.128,0.043,0.267,0.064,0.416,0.064   c0.576,0,2.464-0.522,5.664-1.568c0.405-0.128,0.725-0.192,0.96-0.192c0.234,0,0.496,0.224,0.784,0.672   c0.288,0.448,0.432,0.821,0.432,1.12c0,0.704-0.245,0.992-0.736,0.864c-0.171-0.064-0.379-0.096-0.624-0.096   s-0.715,0.054-1.407,0.16c-0.693,0.107-1.152,0.357-1.376,0.752c-0.225,0.395-0.336,0.709-0.336,0.944   c0,0.235,0.244,0.326,0.735,0.272s0.96-0.08,1.408-0.08s0.906,0.064,1.376,0.192c0.469,0.128,0.763,0.235,0.88,0.32   C25.916,9.736,25.975,9.854,25.975,10.002z M12.407,19.187c0.234,0,0.544-0.085,0.928-0.256s0.592-0.453,0.624-0.849   c0.032-0.395,0.048-0.762,0.048-1.104c0-0.341-0.037-0.581-0.112-0.721c-0.074-0.138-0.261-0.207-0.56-0.207   s-0.651,0.074-1.056,0.224c-0.406,0.149-0.608,0.522-0.608,1.12c0,0.213,0.026,0.527,0.08,0.943   c0.053,0.416,0.139,0.662,0.256,0.736C12.124,19.149,12.258,19.187,12.407,19.187z M21.655,14.707l0.096,2.144   c0,0.726-0.134,1.456-0.4,2.192c-0.267,0.735-0.603,1.493-1.008,2.271c-0.405,0.779-0.64,1.254-0.704,1.424   c-0.063,0.172-0.085,0.373-0.063,0.608v0.64c0,0.234-0.054,0.422-0.16,0.561c-0.107,0.139-0.411,0.346-0.912,0.623   s-1.024,0.502-1.568,0.672c-0.544,0.172-1.003,0.257-1.376,0.257s-0.677-0.06-0.911-0.177c-0.235-0.117-0.353-0.229-0.353-0.336   c0-0.106,0.085-0.224,0.256-0.352l2.624-1.951c0.192-0.15,0.433-0.438,0.72-0.865c0.288-0.426,0.624-1.018,1.009-1.775   c0.384-0.757,0.65-1.359,0.8-1.809c0.148-0.447,0.25-0.874,0.304-1.279c0.053-0.405,0.08-1.035,0.08-1.889   c0-1.472,0.032-2.484,0.096-3.04c0.064-0.555,0.257-0.832,0.576-0.832c0.32,0,0.576,0.054,0.769,0.16   c0.191,0.107,0.288,0.293,0.288,0.56c0,0.267-0.027,0.635-0.08,1.104C21.682,14.088,21.655,14.451,21.655,14.707z M26.391,24.754   c0,0.598-0.08,1.185-0.239,1.761c-0.16,0.575-0.411,0.864-0.752,0.864c-0.342,0-0.827-0.496-1.456-1.488   c-0.63-0.992-1.28-1.809-1.952-2.448s-1.008-1.108-1.008-1.407s0.213-0.449,0.64-0.449c0.768,0,1.963,0.513,3.584,1.537   c0.171,0.106,0.41,0.213,0.72,0.319S26.391,23.986,26.391,24.754z" stroke-width="1"/>
</g>
</svg>