<svg xmlns="http://www.w3.org/2000/svg" xmlns:xlink="http://www.w3.org/1999/xlink" version="1.1" id="图层_1" x="0px" y="0px" width="27.014999389648438" height="27.622997283935547" viewBox="2.7060012817382812 0.8250000476837158 27.014999389648438 27.622997283935547" style="enable-background:new 0 0 30 30;" xml:space="preserve">
  <g>
    <g>
      <path style="fill:#0000FF;" d="M16.358,16.076c0,0.107,0.063,0.214,0.191,0.32c0.469,0.363,0.949,0.848,1.44,1.456&#13;&#10;&#9;&#9;c0.49,0.608,1.429,1.388,2.815,2.336c1.387,0.95,2.561,1.579,3.521,1.888c0.96,0.311,2.016,0.736,3.168,1.281&#13;&#10;&#9;&#9;c1.152,0.543,1.728,0.932,1.728,1.168c0,0.127-0.171,0.244-0.512,0.352c-0.342,0.106-0.955,0.16-1.84,0.16&#13;&#10;&#9;&#9;c-0.886,0-1.696-0.086-2.432-0.256c-0.736-0.172-1.35-0.256-1.841-0.256c-0.49,0-0.869-0.092-1.136-0.272&#13;&#10;&#9;&#9;c-0.267-0.182-0.399-0.48-0.399-0.896c0-0.416-0.112-0.758-0.337-1.025c-0.224-0.266-0.661-0.714-1.312-1.344&#13;&#10;&#9;&#9;c-0.651-0.629-1.371-1.098-2.16-1.408c-0.789-0.309-1.243-0.463-1.36-0.463s-0.187,0.063-0.208,0.191s-0.043,0.464-0.063,1.008&#13;&#10;&#9;&#9;c-0.021,0.545-0.032,1.126-0.032,1.744l0.096,4.864c0,0.683-0.096,1.024-0.287,1.024c-0.086,0-0.235-0.06-0.448-0.177&#13;&#10;&#9;&#9;c-0.214-0.117-0.672-0.239-1.376-0.368c-1.473-0.277-2.507-0.645-3.104-1.104s-0.896-0.795-0.896-1.008&#13;&#10;&#9;&#9;c0-0.129,0.148-0.166,0.448-0.112c0.298,0.054,0.65,0.08,1.056,0.08c1.152,0,1.883-0.106,2.192-0.319&#13;&#10;&#9;&#9;c0.309-0.215,0.464-0.673,0.464-1.377c0-0.148-0.032-0.703-0.097-1.664c-0.063-0.959-0.106-1.984-0.128-3.072&#13;&#10;&#9;&#9;c0-0.213-0.054-0.319-0.16-0.319s-0.453,0.235-1.04,0.704s-1.039,0.88-1.359,1.232c-0.32,0.352-0.693,0.66-1.12,0.928&#13;&#10;&#9;&#9;c-0.427,0.267-0.838,0.629-1.232,1.088s-0.629,0.816-0.704,1.072c-0.074,0.256-0.208,0.453-0.399,0.592&#13;&#10;&#9;&#9;c-0.192,0.139-0.587,0.282-1.185,0.432c-0.597,0.148-1.104,0.225-1.52,0.225s-0.784-0.027-1.104-0.08&#13;&#10;&#9;&#9;c-0.32-0.055-0.48-0.123-0.48-0.209c0-0.085,0.16-0.203,0.48-0.352c1.834-0.896,3.147-1.717,3.936-2.464s1.728-1.739,2.816-2.976&#13;&#10;&#9;&#9;c1.088-1.237,1.632-1.932,1.632-2.08c0-0.064-0.043-0.096-0.128-0.096c-0.149,0-0.747,0.133-1.792,0.399&#13;&#10;&#9;&#9;c-1.046,0.267-1.782,0.476-2.208,0.624c-0.428,0.149-0.699,0.283-0.816,0.4s-0.208,0.176-0.271,0.176&#13;&#10;&#9;&#9;c-0.172,0-0.438-0.363-0.801-1.088c-0.363-0.726-0.543-1.195-0.543-1.408s0.117-0.32,0.352-0.32l0.544,0.064&#13;&#10;&#9;&#9;c0.469,0,1.104-0.085,1.903-0.256c0.801-0.17,1.525-0.378,2.177-0.624c0.65-0.245,1.248-0.458,1.792-0.64&#13;&#10;&#9;&#9;c0.544-0.181,0.837-0.282,0.88-0.304c0.042-0.021,0.063-0.096,0.063-0.224l-0.031-0.448c0-0.533,0.234-0.8,0.703-0.8&#13;&#10;&#9;&#9;c0.129,0,0.299,0.027,0.513,0.08c0.213,0.053,0.378,0.08,0.496,0.08c0.116,0,0.208-0.032,0.271-0.096l1.152-1.28&#13;&#10;&#9;&#9;c0.683-0.789,1.509-1.824,2.479-3.104c0.971-1.28,1.584-1.92,1.841-1.92c0.085,0,0.341,0.155,0.768,0.464&#13;&#10;&#9;&#9;c0.427,0.31,0.64,0.533,0.64,0.672c0,0.139-0.128,0.326-0.384,0.56c-0.811,0.726-1.718,1.68-2.72,2.864&#13;&#10;&#9;&#9;c-1.003,1.184-1.504,1.83-1.504,1.936c0,0.107,0.074,0.15,0.224,0.128c1.429-0.171,2.32-0.24,2.672-0.208&#13;&#10;&#9;&#9;c0.353,0.032,0.629,0.048,0.832,0.048s0.421-0.032,0.656-0.096c0.213,0,0.464,0.304,0.752,0.912s0.432,1.211,0.432,1.808&#13;&#10;&#9;&#9;c0,0.171-0.053,0.256-0.159,0.256c-0.107,0-0.252-0.026-0.433-0.08c-0.182-0.053-0.512-0.08-0.992-0.08&#13;&#10;&#9;&#9;c-0.479,0-0.971,0.021-1.472,0.064c-0.502,0.043-1.104,0.107-1.808,0.192c-0.704,0.085-1.132,0.144-1.28,0.176&#13;&#10;&#9;&#9;c-0.149,0.032-0.245,0.075-0.288,0.128c-0.043,0.054-0.091,0.134-0.144,0.24C16.385,15.928,16.358,16.013,16.358,16.076z&#13;&#10;&#9;&#9; M19.334,1.325c0.234,0,0.416,0.096,0.544,0.288c0.341,0.469,0.618,0.832,0.832,1.088c0.106,0.128,0.16,0.262,0.16,0.4&#13;&#10;&#9;&#9;c0,0.139-0.331,0.272-0.992,0.4c-0.661,0.128-1.243,0.272-1.744,0.432s-1.125,0.293-1.872,0.4&#13;&#10;&#9;&#9;c-0.747,0.107-1.402,0.262-1.968,0.464s-1.125,0.453-1.68,0.752c-0.556,0.299-0.896,0.523-1.024,0.672&#13;&#10;&#9;&#9;c-0.128,0.149-0.191,0.331-0.191,0.544v0.704c0,0.512-0.268,0.8-0.801,0.864C9.915,8.396,9.339,8.498,8.87,8.637&#13;&#10;&#9;&#9;C8.4,8.776,7.91,8.888,7.398,8.973C6.886,9.058,6.502,9.101,6.246,9.101S5.862,9.037,5.862,8.909c0-0.192,0.475-0.64,1.424-1.344&#13;&#10;&#9;&#9;C8.235,6.861,8.977,6.37,9.51,6.093c0.726-0.427,1.27-0.821,1.632-1.184c0.854-0.811,1.947-1.424,3.28-1.84&#13;&#10;&#9;&#9;s2.416-0.811,3.248-1.184C18.502,1.512,19.057,1.325,19.334,1.325z M10.886,9.741c0,0.107-0.123,0.4-0.368,0.88&#13;&#10;&#9;&#9;s-0.512,0.896-0.8,1.248s-0.442,0.656-0.464,0.912s-0.149,0.384-0.384,0.384c-0.235,0-0.704-0.224-1.408-0.672&#13;&#10;&#9;&#9;c-0.704-0.448-1.056-0.757-1.056-0.928c0-0.17,0.196-0.277,0.592-0.32c0.395-0.042,0.832-0.234,1.312-0.576&#13;&#10;&#9;&#9;c0.48-0.341,0.981-0.602,1.505-0.784c0.522-0.181,0.832-0.272,0.928-0.272S10.886,9.656,10.886,9.741z M16.358,8.109&#13;&#10;&#9;&#9;c0,0.149-0.112,0.347-0.336,0.592c-0.225,0.246-0.465,0.459-0.721,0.64s-0.453,0.454-0.592,0.816&#13;&#10;&#9;&#9;c-0.139,0.363-0.293,0.544-0.464,0.544c-0.299,0-0.587-0.261-0.864-0.784c-0.277-0.522-0.416-0.986-0.416-1.392&#13;&#10;&#9;&#9;c0-0.171,0.043-0.283,0.128-0.336c0.085-0.053,0.182-0.074,0.288-0.064c0.106,0.011,0.229,0.016,0.368,0.016&#13;&#10;&#9;&#9;s0.325-0.037,0.56-0.112c0.235-0.075,0.55-0.139,0.944-0.192s0.656-0.08,0.784-0.08C16.251,7.757,16.358,7.874,16.358,8.109z" stroke-width="1"/>
    </g>
    <g/>
    <g/>
    <g/>
    <g/>
    <g/>
    <g/>
    <g/>
    <g/>
    <g/>
    <g/>
    <g/>
    <g/>
    <g/>
    <g/>
    <g/>
  </g>
</svg>