<svg xmlns="http://www.w3.org/2000/svg" xmlns:xlink="http://www.w3.org/1999/xlink" version="1.1" width="28.87299919128418" height="23.24100112915039" viewBox="0.16600000858306885 -0.09000000357627869 28.87299919128418 23.24100112915039">
  <!-- Exported by Scratch - http://scratch.mit.edu/ -->
  <g id="ID0.09377404907718301">
    <path id="ID0.014806944411247969" fill="#0000FF" d="M 28.539 21.883 C 28.539 22.117 28.134 22.304 27.323 22.443 C 26.511 22.582 25.552 22.651 24.443 22.651 C 23.333 22.651 22.459 22.565 21.819 22.395 C 21.178 22.224 20.591 22.127 20.058 22.107 C 19.525 22.086 19.226 21.83 19.162 21.338 C 18.991 19.824 18.586 18.598 17.946 17.658 C 17.305 16.72 16.356 15.973 15.097 15.418 C 14.692 15.248 14.206 14.943 13.641 14.506 C 13.076 14.069 12.692 13.851 12.49 13.851 C 12.287 13.851 12.068 14 11.834 14.299 C 10.959 15.578 9.743 16.977 8.186 18.49 C 7.973 18.682 7.759 18.965 7.546 19.338 C 7.332 19.712 7.215 19.963 7.194 20.09 C 7.087 20.624 6.714 20.971 6.074 21.131 C 5.434 21.291 4.746 21.371 4.01 21.371 C 3.274 21.371 2.532 21.264 1.786 21.051 C 1.039 20.838 0.666 20.651 0.666 20.49 C 0.666 20.329 0.805 20.208 1.082 20.123 C 2.81 19.61 4.207 19.099 5.274 18.586 C 6.341 18.074 7.423 17.099 8.523 15.658 C 9.621 14.219 10.346 12.912 10.699 11.738 C 11.051 10.565 11.226 9.829 11.226 9.53 C 11.226 9.381 11.173 9.306 11.067 9.306 C 10.96 9.306 10.682 9.466 10.235 9.786 C 9.787 10.106 9.269 10.543 8.682 11.098 C 8.095 11.653 7.62 12.058 7.258 12.314 C 6.895 12.57 6.612 12.699 6.41 12.699 C 6.207 12.699 5.919 12.522 5.546 12.17 C 5.172 11.818 4.986 11.503 4.986 11.226 C 4.986 10.949 5.167 10.746 5.53 10.618 C 6.213 10.341 6.959 9.978 7.77 9.53 C 8.581 9.082 9.616 8.645 10.874 8.218 C 11.108 8.154 11.269 8.079 11.354 7.994 C 11.439 7.909 11.482 7.685 11.482 7.322 C 11.482 6.959 11.455 6.677 11.402 6.474 C 11.348 6.271 11.29 6.085 11.225 5.914 C 11.162 5.744 10.958 5.589 10.618 5.45 C 10.276 5.311 9.934 5.242 9.594 5.242 C 8.954 5.242 8.431 5.445 8.027 5.85 C 7.749 6.128 7.515 6.267 7.323 6.267 C 7.131 6.267 7.003 6.112 6.939 5.803 C 6.875 5.494 6.598 4.784 6.107 3.674 C 5.935 3.29 5.85 2.954 5.85 2.666 C 5.85 2.378 6.032 2.234 6.394 2.234 L 6.907 2.266 C 7.483 2.266 8.138 2.202 8.875 2.074 C 9.611 1.946 10.123 1.877 10.411 1.866 C 10.699 1.855 11.018 1.85 11.371 1.85 C 11.723 1.85 12.267 1.722 13.003 1.466 C 13.739 1.21 14.651 0.97 15.739 0.746 C 16.827 0.522 17.568 0.41 17.963 0.41 C 18.358 0.41 18.609 0.458 18.715 0.554 C 18.821 0.65 18.875 0.933 18.875 1.402 C 18.875 1.872 18.827 2.17 18.731 2.298 C 18.634 2.426 18.426 2.586 18.107 2.778 C 16.762 3.546 15.792 4.186 15.195 4.698 C 14.597 5.21 14.299 6.479 14.299 8.506 C 14.299 9.125 14.395 9.434 14.587 9.434 C 14.779 9.434 15.339 9.007 16.267 8.154 C 17.196 7.301 17.84 6.512 18.204 5.786 C 18.374 5.423 18.673 5.242 19.1 5.242 C 19.357 5.242 19.639 5.413 19.949 5.754 C 20.258 6.096 20.413 6.341 20.413 6.49 C 20.413 6.639 20.221 6.864 19.837 7.162 C 18.77 7.973 17.714 8.837 16.669 9.754 C 16.093 10.245 15.57 10.608 15.101 10.842 C 14.802 10.992 14.654 11.152 14.654 11.322 C 14.654 11.492 14.782 11.866 15.038 12.442 C 15.294 13.018 15.816 13.658 16.605 14.362 L 18.973 16.539 C 19.762 17.264 20.621 17.824 21.549 18.219 C 22.477 18.614 23.447 18.971 24.461 19.291 C 25.474 19.61 26.407 20.069 27.261 20.666 C 28.112 21.264 28.539 21.669 28.539 21.883 Z " stroke-width="1"/>
  </g>
</svg>