<svg xmlns="http://www.w3.org/2000/svg" xmlns:xlink="http://www.w3.org/1999/xlink" version="1.1" id="图层_1" x="0px" y="0px" width="28.26300048828125" height="24.23200035095215" viewBox="0.4200003147125244 3.2610020637512207 28.26300048828125 24.23200035095215" enable-background="new 0 0 30 30" xml:space="preserve">
<g>
	<path fill="#0000FF" d="M10.583,5.491c0.896,0,1.765,0.411,2.608,1.232c0.842,0.821,1.264,1.387,1.264,1.696   c0,0.31-0.128,0.491-0.384,0.544c-0.256,0.054-0.518,0.262-0.784,0.624c-0.268,0.363-1.051,0.811-2.353,1.344   c-0.085,0.043-0.128,0.102-0.128,0.176c0,0.075,0.021,0.166,0.064,0.272c0.042,0.107,0.063,0.363,0.063,0.768   c0,0.213,0.085,0.283,0.257,0.208c0.17-0.075,0.324-0.112,0.464-0.112c0.139,0,0.208,0.128,0.208,0.384   c0,0.512-0.342,1.142-1.024,1.888c-0.149,0.149-0.24,0.277-0.271,0.384c-0.032,0.107-0.054,0.427-0.064,0.96   c-0.011,0.534,0,0.929,0.032,1.185s0.048,0.65,0.048,1.184c0,1.558-0.117,3.008-0.352,4.352c-0.086,0.47-0.129,0.881-0.129,1.232   s0.032,0.672,0.097,0.96c0.063,0.288,0.096,0.507,0.096,0.656c0,0.469-0.16,0.704-0.479,0.704c-0.214,0-0.556-0.172-1.024-0.512   c-0.47-0.342-1.142-0.652-2.016-0.929c-0.576-0.192-1.227-0.603-1.952-1.231s-1.088-1.014-1.088-1.152s0.053-0.208,0.16-0.208   c0.106,0,0.203,0.011,0.288,0.032c1.258,0.49,2.213,0.736,2.864,0.736c0.65,0,1.045-0.049,1.185-0.145   c0.138-0.096,0.282-0.645,0.432-1.648c0.148-1.002,0.224-1.946,0.224-2.832c0-0.885-0.005-1.396-0.016-1.535   s-0.054-0.209-0.128-0.209c-0.075,0-0.16,0.033-0.256,0.097c-0.097,0.063-0.379,0.267-0.849,0.608   c-0.469,0.341-0.901,0.672-1.296,0.991c-0.395,0.32-1.003,0.763-1.824,1.328c-0.822,0.565-1.323,0.912-1.504,1.04   c-0.182,0.128-0.31,0.191-0.384,0.191s-0.166-0.053-0.272-0.159c-0.299-0.405-0.613-0.747-0.944-1.024   c-0.331-0.277-0.496-0.496-0.496-0.656s0.075-0.33,0.224-0.512c0.149-0.181,1.035-0.816,2.656-1.904   c1.621-1.087,3.179-2.026,4.672-2.815c0.234-0.128,0.353-0.314,0.353-0.56c0-0.245-0.075-0.576-0.225-0.992   s-0.336-0.725-0.56-0.928C7.815,11,7.703,10.84,7.703,10.723s0.128-0.176,0.384-0.176h0.32c0.341,0,0.634-0.112,0.88-0.336   c0.245-0.224,0.528-0.49,0.848-0.8c0.32-0.309,0.65-0.736,0.992-1.28c0.341-0.544,0.512-0.944,0.512-1.2   c0-0.256-0.117-0.384-0.352-0.384c-0.235,0-0.806,0.288-1.712,0.864C8.668,7.986,8.087,8.43,7.831,8.738   c-0.256,0.31-0.587,0.608-0.992,0.896c-0.405,0.288-0.672,0.534-0.8,0.736c-0.128,0.203-0.246,0.304-0.352,0.304   c-0.149,0-0.523-0.41-1.12-1.232C3.97,8.622,3.671,8.136,3.671,7.986c0-0.213,0.187-0.432,0.56-0.656   c0.373-0.224,1.387-0.586,3.04-1.088C8.924,5.742,10.028,5.491,10.583,5.491z M16.375,14.099c0,0.299-0.107,1.019-0.32,2.159   c-0.213,1.143-0.464,2.16-0.752,3.057s-0.442,1.541-0.464,1.936c-0.021,0.396-0.187,0.592-0.496,0.592s-0.778-0.127-1.408-0.383   c-0.629-0.256-1.077-0.385-1.344-0.385s-0.399-0.181-0.399-0.543c0-0.193,0.138-0.529,0.416-1.009c0.276-0.479,0.72-1.146,1.327-2   c0.608-0.853,1.232-1.669,1.872-2.448c0.641-0.779,1.014-1.216,1.12-1.312c0.106-0.096,0.208-0.144,0.305-0.144   C16.327,13.619,16.375,13.778,16.375,14.099z M21.175,18.738c0,0.768,0.096,1.531,0.288,2.288c0.192,0.758,0.304,1.627,0.336,2.608   c0.032,0.98,0.102,1.685,0.208,2.111s0.16,0.741,0.16,0.944c0,0.202-0.139,0.304-0.416,0.304s-0.934-0.207-1.968-0.623   c-1.035-0.416-2.097-1.057-3.185-1.92c-1.088-0.865-1.632-1.425-1.632-1.681c0-0.085,0.053-0.128,0.16-0.128   c0.106,0,0.224,0.021,0.352,0.064c1.365,0.533,2.262,0.799,2.688,0.799s0.688-0.196,0.784-0.592   c0.096-0.395,0.144-1.381,0.144-2.959c0-1.579-0.069-3.323-0.208-5.232s-0.208-3.536-0.208-4.88l0.032-2.944   c0-0.661-0.075-1.2-0.224-1.616c-0.149-0.416-0.225-0.773-0.225-1.072c0-0.298,0.171-0.448,0.513-0.448   c0.213,0,0.64,0.128,1.279,0.384c0.641,0.256,1.088,0.406,1.345,0.448c0.512,0.064,0.768,0.288,0.768,0.672   c0,0.256-0.128,0.427-0.384,0.512c-0.47,0.15-0.704,1.803-0.704,4.96c0,0.726,0.026,2.027,0.08,3.904   c0.053,1.877,0.068,2.971,0.048,3.279C21.186,18.232,21.175,18.504,21.175,18.738z M28.183,17.971c0,0.234-0.106,0.624-0.319,1.168   c-0.214,0.544-0.464,1.04-0.752,1.488c-0.288,0.447-0.513,0.672-0.672,0.672c-0.16,0-0.32-0.117-0.48-0.353   c-0.16-0.234-0.507-0.96-1.04-2.176s-0.901-2.192-1.104-2.929c-0.203-0.735-0.374-1.274-0.513-1.615   c-0.139-0.341-0.208-0.565-0.208-0.672c0-0.32,0.149-0.48,0.448-0.48c0.171,0,0.33,0.075,0.48,0.224   c0.148,0.15,0.501,0.395,1.056,0.736c0.148,0.085,0.704,0.613,1.664,1.584C27.703,16.59,28.183,17.373,28.183,17.971z" stroke-width="1"/>
</g>
</svg>