<svg xmlns="http://www.w3.org/2000/svg" xmlns:xlink="http://www.w3.org/1999/xlink" version="1.1" id="图层_1" x="0px" y="0px" width="30.055002212524414" height="27.303998947143555" viewBox="-0.22099986672401428 0.5750000476837158 30.055002212524414 27.303998947143555" enable-background="new 0 0 30 30" xml:space="preserve">
<g>
	<path fill="#0000FF" d="M16.951,19.955c0,0.17,0.106,0.319,0.319,0.447c1.941,1.195,3.131,1.957,3.568,2.288   s0.955,0.624,1.552,0.88c0.598,0.256,1.701,0.629,3.313,1.12c1.61,0.491,2.618,0.917,3.023,1.28   c0.405,0.362,0.608,0.656,0.608,0.88s-0.256,0.335-0.768,0.335c-0.064,0-0.251,0.033-0.561,0.098   c-0.31,0.063-0.646,0.096-1.008,0.096c-0.363,0-0.693-0.021-0.992-0.064s-0.576-0.064-0.832-0.064l-1.312,0.033   c-0.448,0-0.992-0.027-1.632-0.08c-0.641-0.055-1.072-0.129-1.297-0.225c-0.224-0.096-0.336-0.271-0.336-0.527   c-0.043-1.622-0.917-2.699-2.624-3.232c-1.194-0.363-2.091-0.746-2.688-1.152c-0.171-0.106-0.347-0.16-0.528-0.16   s-0.405,0.172-0.672,0.512c-0.267,0.342-0.448,0.705-0.544,1.088c-0.096,0.385-0.507,0.688-1.232,0.912   c-0.725,0.225-1.354,0.336-1.888,0.336s-0.949-0.043-1.248-0.127c-0.299-0.086-0.507-0.129-0.624-0.129s-0.203,0.117-0.256,0.353   c-0.054,0.234-0.08,0.624-0.08,1.168s-0.048,0.885-0.144,1.024c-0.097,0.139-0.396,0.207-0.896,0.207   c-0.501,0-0.752-0.17-0.752-0.512c0-0.107,0.042-0.256,0.128-0.447c0.192-0.406,0.288-1.313,0.288-2.721s0.021-2.453,0.064-3.136   l0.096-1.792c0-0.213-0.027-0.459-0.08-0.736S6.775,17.49,6.647,17.49c-0.192,0-0.534,0.256-1.024,0.768   c-0.491,0.513-0.763,0.902-0.816,1.169c-0.054,0.267-0.128,0.438-0.224,0.512c-0.096,0.075-0.421,0.24-0.976,0.496   c-0.555,0.256-1.019,0.438-1.392,0.544c-0.374,0.107-0.704,0.246-0.992,0.416c-0.288,0.171-0.518,0.256-0.688,0.256   c-0.171,0-0.256-0.085-0.256-0.256c0-0.064,0.085-0.203,0.256-0.416c0.17-0.213,0.448-0.475,0.832-0.784   c0.384-0.309,0.864-0.794,1.44-1.456l2.784-3.008c1.28-1.344,2.139-2.378,2.576-3.104c0.437-0.725,0.709-1.205,0.816-1.44   c0.106-0.234,0.159-0.4,0.159-0.496c0-0.096-0.069-0.144-0.208-0.144s-0.527,0.085-1.168,0.256c-0.64,0.171-1.056,0.32-1.248,0.448   s-0.363,0.192-0.512,0.192c-0.384,0-0.651-0.288-0.8-0.864c-0.149-0.576-0.224-0.949-0.224-1.12c0-0.17,0.101-0.293,0.304-0.368   c0.202-0.074,0.57-0.144,1.104-0.208c0.533-0.064,1.295-0.181,2.288-0.352s2.225-0.432,3.696-0.784s2.88-0.645,4.224-0.88   c1.345-0.235,2.219-0.432,2.624-0.592c0.405-0.16,0.721-0.24,0.944-0.24s0.4,0.117,0.528,0.352s0.352,0.571,0.672,1.008   c0.319,0.438,0.479,0.795,0.479,1.072c0,0.278-0.197,0.464-0.592,0.56C20.86,9.123,20.236,9.17,19.383,9.17l-1.088-0.032   c-0.427,0-1.088,0.085-1.984,0.256c-1.835,0.363-3.051,0.587-3.647,0.672c-0.277,0.043-0.48,0.118-0.608,0.224   c-0.128,0.107-0.319,0.363-0.576,0.768l-1.056,1.952c-0.32,0.533-0.539,0.987-0.656,1.36c-0.117,0.374-0.176,0.891-0.176,1.551   c0,0.257,0.048,0.433,0.145,0.529c0.096,0.096,0.298,0.207,0.607,0.336c0.31,0.127,0.522,0.191,0.641,0.191   c0.116,0,0.229-0.043,0.336-0.128c0.106-0.085,0.346-0.368,0.72-0.849c0.373-0.479,0.784-1.087,1.231-1.823   c0.448-0.736,0.939-1.488,1.473-2.256s0.853-1.2,0.96-1.296c0.106-0.096,0.245-0.144,0.416-0.144c0.17,0,0.399,0.144,0.688,0.432   s0.561,0.507,0.816,0.656c0.256,0.15,0.784,0.331,1.584,0.544s1.493,0.491,2.08,0.832c0.586,0.342,0.88,0.614,0.88,0.816   s-0.117,0.368-0.352,0.496c-0.534,0.278-1.004,0.726-1.408,1.344c-0.939,1.408-2.027,2.731-3.265,3.968   C17.015,19.699,16.951,19.826,16.951,19.955z M8.695,24.082c0.234,0,0.64-0.133,1.216-0.399s1.168-0.618,1.775-1.056   c0.608-0.438,1.067-0.811,1.377-1.121c0.309-0.309,0.464-0.516,0.464-0.623s-0.06-0.225-0.177-0.352   c-0.117-0.129-0.459-0.373-1.023-0.736c-0.565-0.363-1.115-0.65-1.648-0.864s-0.88-0.32-1.04-0.32s-0.267,0.048-0.319,0.144   c-0.054,0.097-0.214,0.801-0.48,2.113c-0.267,1.312-0.399,2.256-0.399,2.832C8.439,23.955,8.524,24.082,8.695,24.082z    M13.431,1.075c0.299,0,0.608,0.267,0.929,0.8c0.319,0.534,0.8,1.216,1.439,2.048c0.362,0.47,0.544,0.886,0.544,1.248   c0,0.363-0.224,0.544-0.672,0.544c-0.235,0-0.699-0.09-1.392-0.272c-0.693-0.181-1.2-0.395-1.521-0.64   c-0.319-0.245-0.479-0.672-0.479-1.28s0.128-1.168,0.384-1.68C12.919,1.331,13.175,1.075,13.431,1.075z M16.183,17.555   c0-0.148-0.299-0.459-0.896-0.928c-0.598-0.469-0.977-0.705-1.136-0.705c-0.16,0-0.357,0.118-0.593,0.353l-0.735,0.736   c-0.256,0.256-0.384,0.432-0.384,0.528c0,0.096,0.085,0.176,0.256,0.239c0.554,0.257,1.248,0.619,2.08,1.089   c0.106,0.063,0.224,0.096,0.352,0.096s0.336-0.197,0.624-0.592S16.183,17.704,16.183,17.555z M17.335,15.506   c0.128,0,0.229-0.036,0.304-0.111c0.075-0.075,0.219-0.331,0.433-0.768c0.213-0.437,0.319-0.741,0.319-0.912   c0-0.17-0.063-0.336-0.191-0.496c-0.128-0.16-0.256-0.24-0.384-0.24c-0.3,0-0.747,0.235-1.345,0.704s-0.896,0.768-0.896,0.896   c0,0.149,0.111,0.272,0.336,0.368c0.224,0.096,0.49,0.214,0.8,0.352C17.02,15.438,17.228,15.506,17.335,15.506z" stroke-width="1"/>
</g>
</svg>