<svg xmlns="http://www.w3.org/2000/svg" xmlns:xlink="http://www.w3.org/1999/xlink" version="1.1" id="图层_1" x="0px" y="0px" width="25.994001388549805" height="29.480998992919922" viewBox="1.600999355316162 0.5750000476837158 25.994001388549805 29.480998992919922" enable-background="new 0 0 30 30" xml:space="preserve">
<g>
	<path fill="#0000FF" d="M14.711,7.219c0,0.32-0.059,0.549-0.176,0.688s-0.405,0.288-0.864,0.448s-0.688,0.288-0.688,0.384   c0,0.096,0.085,0.219,0.256,0.368c0.17,0.149,0.41,0.299,0.72,0.448c0.309,0.149,0.464,0.379,0.464,0.688   c0,0.31-0.187,0.544-0.56,0.704c-0.374,0.16-0.63,0.342-0.769,0.544s-0.208,0.374-0.208,0.512c0,0.139,0.165,0.208,0.496,0.208   s0.549,0.064,0.656,0.192c0.106,0.128,0.16,0.342,0.16,0.64c0,0.299-0.128,0.549-0.384,0.752c-0.257,0.203-0.822,0.496-1.696,0.88   c-0.214,0.128-0.342,0.262-0.384,0.4c-0.043,0.139-0.064,0.309-0.064,0.511c0,0.203,0.064,0.305,0.192,0.305   s0.373-0.074,0.735-0.225c0.363-0.148,0.641-0.224,0.832-0.224c0.448,0,0.763,0.182,0.944,0.544   c0.181,0.363,0.272,0.656,0.272,0.881c0,0.223-0.134,0.389-0.4,0.495c-0.267,0.107-1.02,0.267-2.256,0.479   c-0.299,0.044-0.496,0.118-0.592,0.225c-0.097,0.107-0.145,0.246-0.145,0.416c0,0.171,0.096,0.288,0.288,0.352   c1.194,0.428,1.792,0.887,1.792,1.377c0,0.17-0.075,0.367-0.224,0.592c-0.149,0.224-0.331,0.336-0.544,0.336   c-0.214,0-0.443-0.032-0.688-0.096c-0.245-0.064-0.459-0.097-0.64-0.097c-0.182,0-0.272,0.107-0.272,0.32   c0,0.214,0.043,0.603,0.128,1.168s0.128,1.04,0.128,1.424c0,1.173-0.245,1.761-0.735,1.761c-0.171,0-0.641-0.177-1.408-0.529   c-0.769-0.352-1.525-0.911-2.272-1.68c-0.128-0.148-0.24-0.224-0.336-0.224c-0.096,0-0.229,0.16-0.4,0.479   c-0.171,0.32-0.277,0.555-0.32,0.705c-0.085,0.276-0.246,0.416-0.48,0.416c-0.235,0-0.603-0.14-1.104-0.416   c-0.501-0.277-0.752-0.523-0.752-0.736s0.042-0.395,0.128-0.545c0.085-0.148,0.437-0.655,1.056-1.52   c0.618-0.863,0.992-1.365,1.12-1.504c0.128-0.139,0.192-0.261,0.192-0.367c0-0.107-0.08-0.16-0.24-0.16   c-0.16,0-0.523,0.074-1.088,0.224c-0.565,0.149-0.965,0.288-1.2,0.416s-0.416,0.192-0.544,0.192s-0.283-0.155-0.464-0.465   c-0.182-0.309-0.272-0.56-0.272-0.752c0-0.191,0.16-0.33,0.48-0.416c2.347-0.682,3.738-1.131,4.176-1.344s1.093-0.448,1.968-0.704   c0.277-0.085,0.416-0.224,0.416-0.416c0-0.427-0.128-0.64-0.384-0.64c-0.106,0-0.539,0.069-1.296,0.207   c-0.757,0.14-1.195,0.252-1.312,0.337s-0.256,0.128-0.416,0.128c-0.16,0-0.331-0.182-0.512-0.544   c-0.182-0.363-0.272-0.64-0.272-0.832c0-0.277,0.085-0.432,0.256-0.464c0.17-0.032,0.613-0.208,1.328-0.528   c0.714-0.32,1.445-0.597,2.191-0.832c0.747-0.234,1.2-0.458,1.36-0.672c0.16-0.213,0.362-0.517,0.608-0.912   c0.245-0.395,0.368-0.72,0.368-0.976c0-0.256-0.032-0.485-0.097-0.688c-0.063-0.202-0.117-0.304-0.16-0.304   s-0.111,0.096-0.208,0.288c-0.096,0.192-0.261,0.358-0.496,0.496c-0.234,0.139-0.421,0.299-0.56,0.48   C9.404,11,9.1,11.475,8.631,12.243c-0.149,0.256-0.347,0.453-0.592,0.592c-0.245,0.139-0.427,0.208-0.544,0.208   s-0.229-0.059-0.336-0.176c-0.107-0.117-0.16-0.304-0.16-0.56c0-0.256,0.128-0.586,0.384-0.992c0.405-0.619,0.608-1.099,0.608-1.44   c0-0.149-0.128-0.224-0.384-0.224c-0.257,0-0.459,0.027-0.608,0.08C6.85,9.784,6.668,9.88,6.455,10.019   c-0.213,0.139-0.374,0.208-0.48,0.208c-0.107,0-0.24-0.187-0.4-0.56c-0.16-0.373-0.24-0.65-0.24-0.832   c0-0.181,0.181-0.293,0.544-0.336C6.54,8.414,7.586,8.136,9.015,7.667c1.941-0.661,3.467-0.992,4.576-0.992   c0.448,0,0.747,0.038,0.896,0.112C14.636,6.861,14.711,7.005,14.711,7.219z M9.623,20.179c0-0.299-0.011-0.63-0.032-0.992   s-0.085-0.544-0.191-0.544c-0.107,0-0.235,0.027-0.385,0.08s-0.464,0.139-0.943,0.256c-0.48,0.117-0.742,0.208-0.784,0.271   c-0.043,0.064-0.075,0.252-0.096,0.561c-0.021,0.31-0.064,0.715-0.128,1.216s-0.096,0.859-0.096,1.072   c0,0.214,0.155,0.399,0.464,0.56c0.31,0.16,0.65,0.24,1.024,0.24c0.373,0,0.635-0.053,0.784-0.16   c0.148-0.106,0.25-0.447,0.304-1.023C9.596,21.139,9.623,20.627,9.623,20.179z M11.255,1.075c0.213,0,0.389,0.144,0.528,0.432   c0.139,0.288,0.336,0.64,0.592,1.056s0.416,0.773,0.48,1.072c0.063,0.299,0.096,0.688,0.096,1.168s-0.064,0.784-0.192,0.912   s-0.363,0.192-0.704,0.192c-0.469,0-0.965-0.192-1.487-0.576c-0.523-0.384-0.784-0.949-0.784-1.696c0-0.49,0.176-1.04,0.527-1.648   C10.663,1.378,10.978,1.075,11.255,1.075z M25.271,11.827c0.171,0,0.299,0.038,0.385,0.112c0.085,0.075,0.293,0.379,0.624,0.912   c0.33,0.533,0.549,0.907,0.655,1.12s0.16,0.416,0.16,0.608c0,0.448-0.224,0.672-0.672,0.672c-0.085,0-0.171-0.01-0.256-0.032   c-0.384-0.107-1.014-0.16-1.888-0.16c-0.875,0-1.371,0.048-1.488,0.144c-0.117,0.096-0.272,0.677-0.464,1.744   c-0.192,1.067-0.288,1.974-0.288,2.72c0,0.748,0.021,1.403,0.063,1.969s0.064,1.174,0.064,1.824s-0.043,1.21-0.128,1.68   c-0.086,0.469-0.128,0.875-0.128,1.216s0.059,0.741,0.176,1.2s0.176,0.826,0.176,1.104c0,0.598-0.352,0.896-1.056,0.896   c-0.256,0-0.448-0.031-0.576-0.096s-0.235-0.203-0.32-0.416c-0.085-0.215-0.128-0.471-0.128-0.768l0.032-0.992   c0-0.79-0.048-2.609-0.144-5.457c-0.097-2.848-0.182-4.521-0.256-5.023c-0.075-0.501-0.14-0.843-0.192-1.024   c-0.054-0.181-0.155-0.272-0.304-0.272c-0.149,0-0.428,0.08-0.832,0.24c-0.406,0.16-0.726,0.32-0.96,0.48   c-0.235,0.16-0.406,0.336-0.513,0.527c-0.106,0.192-0.251,0.496-0.432,0.912c-0.182,0.416-0.272,0.795-0.272,1.137l0.064,1.023   c0,0.619-0.283,1.285-0.848,2c-0.565,0.715-1.132,1.164-1.696,1.344c-0.565,0.182-0.934,0.272-1.104,0.272   s-0.256-0.053-0.256-0.159c0-0.172,0.347-0.752,1.04-1.744s1.194-1.99,1.504-2.992c0.31-1.003,0.544-2.166,0.704-3.488   c0.16-1.323,0.24-2.453,0.24-3.392l-0.064-1.824c0-0.298,0.049-0.501,0.145-0.608c0.096-0.106,0.261-0.192,0.496-0.256   c1.237-0.298,2.187-0.586,2.848-0.864c1.429-0.576,2.464-0.864,3.104-0.864c0.341,0,0.612,0.112,0.815,0.336   s0.305,0.496,0.305,0.816c0,0.32-0.07,0.587-0.208,0.8c-0.14,0.213-0.385,0.352-0.736,0.416c-0.353,0.064-0.693,0.213-1.024,0.448   c-0.331,0.235-0.806,0.374-1.424,0.416c-0.96,0.085-1.669,0.459-2.128,1.12c-0.459,0.662-0.688,1.291-0.688,1.888   c0,0.171,0.074,0.256,0.224,0.256c0.085,0,0.816-0.224,2.192-0.672c1.376-0.448,2.474-0.768,3.296-0.96   C23.932,11.922,24.652,11.827,25.271,11.827z" stroke-width="1"/>
</g>
</svg>