<svg xmlns="http://www.w3.org/2000/svg" xmlns:xlink="http://www.w3.org/1999/xlink" version="1.1" id="图层_1" x="0px" y="0px" width="27.367000579833984" height="27.52899932861328" viewBox="0.2589995861053467 0.8629989624023438 27.367000579833984 27.52899932861328" enable-background="new 0 0 30 30" xml:space="preserve">
<g>
	<path fill="#0000FF" d="M25.655,13.106c0.555,0,0.938,0.368,1.151,1.104s0.32,1.232,0.32,1.489c0,0.256-0.182,0.383-0.544,0.383   c-0.363,0-0.736-0.063-1.12-0.191c-1.855-0.619-3.115-0.928-3.776-0.928s-1.53,0.059-2.607,0.176s-1.84,0.245-2.288,0.384   c-0.448,0.14-1.643,0.399-3.584,0.784C11.266,16.69,9.644,17,8.343,17.234c-0.319,0.064-0.527,0.176-0.624,0.336   c-0.096,0.16-0.182,0.571-0.256,1.232c-0.075,0.661-0.123,1.296-0.144,1.904c-0.021,0.607-0.032,1.754-0.032,3.439   c0,0.555-0.176,0.896-0.528,1.023c-0.352,0.129-0.619,0.192-0.8,0.192c-0.182,0-0.293-0.159-0.336-0.479   c-0.043-0.32-0.064-1.174-0.064-2.561l0.096-4.32c0-0.703-0.069-1.29-0.208-1.76c-0.139-0.469-0.235-0.736-0.288-0.8   c-0.054-0.064-0.134-0.096-0.24-0.096c-0.107,0-0.379,0.149-0.816,0.448c-0.438,0.299-0.965,0.619-1.584,0.959   c-0.619,0.342-1.035,0.513-1.248,0.513c-0.341,0-0.512-0.139-0.512-0.416c0-0.106,0.021-0.192,0.064-0.256l0.704-1.056   c0.427-0.619,0.832-1.147,1.216-1.584c0.384-0.437,0.858-1.093,1.424-1.968c0.565-0.875,0.933-1.493,1.104-1.856   c0.17-0.362,0.555-0.97,1.152-1.824c0.128-0.192,0.416-0.821,0.864-1.888c0.448-1.066,0.725-1.781,0.832-2.144   C8.226,3.912,8.418,3.73,8.695,3.73c0.106,0,0.469,0.182,1.088,0.544c0.618,0.363,0.928,0.651,0.928,0.864   s-0.096,0.395-0.288,0.544C9.89,6.109,9.431,6.931,9.047,8.146C8.833,8.83,8.375,9.48,7.671,10.099   c-0.854,0.747-1.28,1.6-1.28,2.56c0,0.299,0.09,0.555,0.272,0.768c0.181,0.213,0.475,0.4,0.88,0.56   c0.405,0.16,0.608,0.31,0.608,0.448c0,0.139-0.038,0.267-0.112,0.384c-0.075,0.118-0.112,0.24-0.112,0.368   c0,0.277,0.102,0.416,0.305,0.416c0.202,0,1.028-0.224,2.479-0.672c1.45-0.448,2.267-0.736,2.448-0.864   c0.181-0.128,0.271-0.32,0.271-0.576l-0.128-1.28c-0.021-0.426-0.069-0.683-0.144-0.768c-0.075-0.085-0.182-0.128-0.32-0.128   s-0.395,0.085-0.768,0.256c-0.374,0.171-0.593,0.326-0.656,0.464c-0.064,0.139-0.182,0.208-0.352,0.208   c-0.172,0-0.348-0.389-0.528-1.168c-0.182-0.779-0.272-1.232-0.272-1.36c0-0.384,0.182-0.533,0.544-0.448   c0.234,0.043,0.459,0.064,0.672,0.064c0.576,0,0.987-0.048,1.232-0.144s0.368-0.304,0.368-0.624l-0.096-4.032   c0-0.299,0.042-0.507,0.128-0.624c0.085-0.117,0.276-0.176,0.575-0.176c1.109,0,1.664,0.182,1.664,0.544   c0,0.149-0.08,0.374-0.239,0.672c-0.16,0.299-0.24,0.683-0.24,1.152s0.037,0.928,0.112,1.376c0.074,0.448,0.144,0.752,0.208,0.912   c0.063,0.16,0.17,0.24,0.319,0.24s0.603-0.074,1.36-0.224c0.757-0.149,1.184-0.261,1.28-0.336c0.096-0.074,0.165-0.17,0.208-0.288   c0.042-0.117,0.106-0.704,0.191-1.76s0.149-2.016,0.192-2.88c0.042-0.864,0.112-1.376,0.208-1.536s0.256-0.24,0.479-0.24   c0.225,0,0.624,0.112,1.2,0.336c0.576,0.224,0.864,0.464,0.864,0.72c0,0.128-0.06,0.283-0.176,0.464   c-0.118,0.182-0.22,0.475-0.305,0.88s-0.171,0.992-0.256,1.76s-0.128,1.248-0.128,1.44c0,0.47,0.277,0.672,0.832,0.608   c0.64-0.106,1.056-0.16,1.248-0.16s0.341,0.059,0.448,0.176c0.106,0.118,0.288,0.544,0.544,1.28   c0.256,0.736,0.384,1.232,0.384,1.488s-0.043,0.384-0.128,0.384c-0.086,0-0.16-0.01-0.224-0.032   c-1.067-0.405-1.904-0.608-2.513-0.608c-0.607,0-0.943,0.192-1.008,0.576l-0.288,1.728c0,0.278,0.08,0.464,0.24,0.56   c0.16,0.096,1.019,0.155,2.576,0.176l1.567,0.032c0.448,0,0.758-0.01,0.929-0.032L25.655,13.106z M13.623,26.035   c-0.107,0.105-0.203,0.159-0.288,0.159c-0.192,0-0.4-0.341-0.624-1.024c-0.224-0.683-0.416-1.717-0.576-3.104   s-0.283-2.229-0.368-2.527l-0.128-0.705c0-0.148,0.123-0.293,0.368-0.432s1.253-0.469,3.024-0.992   c1.771-0.521,3.023-0.783,3.76-0.783s1.456,0.102,2.16,0.304s1.104,0.362,1.2,0.479c0.096,0.117,0.144,0.268,0.144,0.448   c0,0.182-0.054,0.347-0.16,0.496s-0.16,0.544-0.16,1.185c0,0.404-0.043,0.826-0.128,1.264s-0.128,0.943-0.128,1.52l0.097,2.049   c0,0.234-0.021,0.517-0.064,0.848c-0.043,0.33-0.064,0.858-0.064,1.584c0,0.725-0.128,1.088-0.384,1.088s-0.875-0.293-1.855-0.88   c-0.981-0.587-1.813-1.126-2.496-1.616c-0.32-0.234-0.565-0.352-0.736-0.352s-0.635,0.148-1.392,0.447   C14.065,25.789,13.665,25.971,13.623,26.035z M18.871,25.011c0.341,0,0.512-0.347,0.512-1.04s-0.048-1.595-0.144-2.704   c-0.097-1.108-0.182-1.851-0.256-2.224c-0.075-0.373-0.283-0.641-0.624-0.801c-0.342-0.16-0.636-0.24-0.881-0.24   s-0.73,0.107-1.455,0.32c-0.726,0.214-1.163,0.453-1.313,0.721c-0.149,0.267-0.224,0.447-0.224,0.543   c0,0.097,0.074,0.145,0.224,0.145s0.448-0.037,0.896-0.111c0.447-0.075,0.794-0.113,1.04-0.113c0.244,0,0.399,0.027,0.464,0.08   c0.063,0.055,0.096,0.278,0.096,0.672c0,0.396-0.086,0.678-0.256,0.849c-0.171,0.171-0.949,0.501-2.336,0.992   c-0.214,0.085-0.357,0.176-0.433,0.272c-0.074,0.096-0.111,0.261-0.111,0.496c0,0.234,0.08,0.352,0.239,0.352   c0.16,0,0.603-0.074,1.328-0.225c0.726-0.148,1.173-0.224,1.345-0.224c0.17,0,0.276,0.043,0.319,0.128   c0.043,0.086,0.064,0.268,0.064,0.544c0,0.278,0.053,0.501,0.16,0.673c0.106,0.17,0.314,0.361,0.624,0.575   C18.46,24.903,18.7,25.011,18.871,25.011z M15.543,13.427c0.106,0,0.304-0.032,0.592-0.096s0.528-0.112,0.721-0.144   c0.191-0.032,0.356-0.112,0.495-0.24c0.139-0.128,0.251-0.48,0.336-1.056l0.129-0.832c0-0.256-0.107-0.363-0.32-0.32   c-0.704,0.15-1.185,0.235-1.44,0.256c-0.256,0.021-0.432,0.069-0.527,0.144c-0.097,0.075-0.155,0.166-0.177,0.272   c-0.021,0.107-0.043,0.352-0.063,0.736l-0.064,0.992C15.223,13.331,15.329,13.427,15.543,13.427z" stroke-width="1"/>
</g>
</svg>