<svg xmlns="http://www.w3.org/2000/svg" xmlns:xlink="http://www.w3.org/1999/xlink" version="1.1" id="图层_1" x="0px" y="0px" width="21.383995056152344" height="31.621997833251953" viewBox="2.819003105163574 -1.024999737739563 21.383995056152344 31.621997833251953" enable-background="new 0 0 30 30" xml:space="preserve">
<g>
	<path fill="#0000FF" d="M23.703,10.258c0,0.128-0.064,0.267-0.192,0.416c-0.128,0.15-0.224,0.406-0.288,0.768   c-0.063,0.363-0.085,0.726-0.063,1.088c0.021,0.363,0.032,1.125,0.032,2.288c0,1.163-0.027,2.054-0.08,2.672   c-0.054,0.619-0.08,1.238-0.08,1.856l0.063,3.008c0,0.598-0.054,1.36-0.16,2.288s-0.171,1.824-0.191,2.688   c-0.021,0.865-0.091,1.541-0.208,2.033c-0.117,0.49-0.277,0.734-0.48,0.734s-0.399-0.063-0.592-0.191   c-0.192-0.127-0.613-0.33-1.264-0.607c-0.651-0.277-1.291-0.518-1.92-0.721c-0.63-0.203-1.265-0.549-1.904-1.039   c-0.256-0.215-0.576-0.385-0.96-0.513s-0.875-0.331-1.472-0.608c-0.598-0.277-0.896-0.479-0.896-0.607s0.16-0.213,0.48-0.256   c0.725-0.064,1.178-0.188,1.359-0.368c0.182-0.182,0.272-0.667,0.272-1.456c0-1.173-0.08-2.453-0.24-3.84s-0.427-2.203-0.8-2.448   c-0.374-0.245-0.672-0.368-0.896-0.368c-0.224,0-0.357,0.049-0.399,0.145c-0.043,0.096-0.064,0.271-0.064,0.527   s0.017,0.428,0.048,0.512c0.032,0.086,0.097,0.135,0.192,0.145c0.096,0.012,0.197,0.016,0.304,0.016   c0.405,0,0.608,0.32,0.608,0.961c0,0.299-0.134,0.475-0.4,0.527c-0.267,0.054-0.442,0.112-0.527,0.176   c-0.086,0.064-0.128,0.235-0.128,0.513s0.031,0.438,0.096,0.479c0.063,0.043,0.271,0.064,0.624,0.064   c0.352,0,0.581,0.043,0.688,0.128s0.16,0.267,0.16,0.544s-0.054,0.475-0.16,0.592s-0.304,0.188-0.592,0.208   c-0.288,0.021-0.496,0.075-0.624,0.16s-0.214,0.267-0.256,0.544c-0.064,0.747-0.139,1.237-0.224,1.473   c-0.086,0.234-0.134,0.447-0.145,0.64s-0.016,0.549-0.016,1.071c0,0.523-0.171,0.785-0.513,0.785c-0.341,0-0.581-0.225-0.72-0.673   s-0.262-1.344-0.368-2.688c-0.043-0.319-0.128-0.479-0.256-0.479s-0.336,0.032-0.624,0.097c-0.288,0.063-0.815,0.139-1.584,0.224   c-0.171,0.021-0.288,0.106-0.352,0.256c-0.064,0.149-0.097,0.448-0.097,0.896c0,0.875-0.245,1.313-0.735,1.313   c-0.235,0-0.384-0.246-0.448-0.736s-0.096-1.056-0.096-1.695c0-0.641,0.021-1.397,0.064-2.272l0.064-2.399   c0.021-0.705,0.053-1.104,0.096-1.201c0.042-0.096,0.106-0.159,0.192-0.191c0.085-0.031,0.235-0.064,0.448-0.096   c0.214-0.032,0.731-0.171,1.553-0.416c0.82-0.245,1.296-0.389,1.424-0.432s0.192-0.229,0.192-0.561c0-0.33-0.054-0.496-0.16-0.496   c-0.107,0-0.256,0.027-0.448,0.08c-0.192,0.054-0.582,0.133-1.168,0.24c-0.587,0.107-1.02,0.245-1.296,0.416   c-0.149,0.086-0.268,0.128-0.353,0.128c-0.192,0-0.458-0.277-0.8-0.832c-0.128-0.192-0.261-0.288-0.4-0.288   c-0.139,0-0.374,0.053-0.704,0.16c-0.331,0.107-0.651,0.16-0.96,0.16c-0.31,0-0.56-0.043-0.752-0.129   c-0.192-0.084-0.288-0.191-0.288-0.319s0.106-0.219,0.32-0.272c0.213-0.053,0.672-0.352,1.376-0.896   c0.704-0.544,1.6-1.328,2.688-2.352s1.781-1.723,2.08-2.096c0.298-0.373,0.448-0.634,0.448-0.784c0-0.149-0.064-0.394-0.192-0.736   C9.911,7.87,9.767,7.699,9.607,7.699c-0.16,0-0.508,0.117-1.04,0.352C8.033,8.286,7.639,8.488,7.383,8.659S6.881,8.915,6.647,8.915   c-0.235,0-0.528-0.341-0.88-1.024C5.415,7.208,5.239,6.76,5.239,6.546c0-0.32,0.181-0.48,0.544-0.48l0.512,0.032   c0.384,0,0.667-0.032,0.848-0.096c0.181-0.064,0.592-0.16,1.232-0.288c0.256-0.042,0.384-0.133,0.384-0.272   c0-0.138-0.043-0.384-0.128-0.736S8.487,3.976,8.455,3.57C8.423,3.166,8.359,2.861,8.263,2.659   C8.167,2.456,8.119,2.264,8.119,2.083c0-0.181,0.08-0.347,0.24-0.496c0.159-0.149,0.404-0.224,0.735-0.224s0.789,0.091,1.376,0.272   c0.587,0.182,0.88,0.464,0.88,0.848c0,0.149-0.043,0.315-0.128,0.496c-0.085,0.182-0.128,0.501-0.128,0.96   c0,0.459,0.026,0.79,0.08,0.992c0.053,0.203,0.165,0.304,0.336,0.304l2.272-0.128c0.704-0.021,1.231-0.069,1.584-0.144   c0.352-0.074,0.581-0.154,0.688-0.24c0.106-0.085,0.225-0.267,0.353-0.544c0.768-1.621,1.269-2.619,1.504-2.992   c0.234-0.373,0.41-0.752,0.528-1.136c0.116-0.384,0.324-0.576,0.624-0.576c0.298,0,0.688,0.149,1.168,0.448   c0.479,0.299,0.72,0.56,0.72,0.784s-0.075,0.427-0.225,0.608c-0.149,0.182-0.304,0.485-0.464,0.912s-0.319,0.79-0.479,1.088   c-0.16,0.299-0.24,0.485-0.24,0.56c0,0.075,0.085,0.112,0.256,0.112s0.544-0.042,1.12-0.128c0.576-0.085,0.986-0.213,1.232-0.384   c0.244-0.17,0.442-0.256,0.592-0.256c0.148,0,0.267,0.213,0.352,0.64c0.085,0.427,0.128,0.896,0.128,1.408   c0,0.405-0.479,0.608-1.439,0.608c-0.448,0-1.051,0.075-1.809,0.224c-0.757,0.149-1.307,0.235-1.647,0.256   c-0.32,0.043-0.608,0.203-0.864,0.48c-1.023,1.173-1.824,1.76-2.399,1.76c-0.257,0-0.385-0.101-0.385-0.304   c0-0.203,0.059-0.437,0.177-0.704c0.116-0.267,0.176-0.49,0.176-0.672c0-0.181-0.14-0.314-0.416-0.4   c-0.277-0.085-0.528-0.128-0.752-0.128c-0.225,0-0.624,0.08-1.2,0.24s-0.923,0.277-1.04,0.352   c-0.117,0.075-0.176,0.187-0.176,0.336c0,0.149,0.021,0.32,0.063,0.512c0.043,0.192,0.176,0.352,0.4,0.48   c0.224,0.128,0.464,0.325,0.72,0.592c0.256,0.267,0.433,0.485,0.528,0.656s0.24,0.256,0.432,0.256c0.362,0,1.568-0.245,3.616-0.736   c0.49-0.128,1.188-0.192,2.096-0.192s1.867,0.134,2.88,0.4C23.196,9.549,23.703,9.875,23.703,10.258z M10.679,13.267   c0-0.597-0.106-0.896-0.319-0.896c-0.47,0-1.062,0.31-1.776,0.928c-0.715,0.619-1.072,0.998-1.072,1.136   c0,0.139,0.091,0.208,0.272,0.208c0.181,0,0.479-0.09,0.896-0.272c0.416-0.181,0.816-0.314,1.2-0.4   c0.384-0.085,0.613-0.176,0.688-0.272C10.642,13.603,10.679,13.458,10.679,13.267z M10.615,21.299c0-0.385-0.054-0.576-0.16-0.576   c-0.107,0-0.304,0.037-0.592,0.111c-0.288,0.076-0.598,0.129-0.929,0.16c-0.331,0.032-0.527,0.096-0.592,0.192   c-0.063,0.097-0.096,0.283-0.096,0.56c0,0.277,0.122,0.416,0.368,0.416c0.245,0,0.597-0.063,1.056-0.191   c0.459-0.129,0.73-0.225,0.816-0.288C10.572,21.619,10.615,21.49,10.615,21.299z M8.983,19.283c0.17,0,0.442-0.064,0.815-0.193   c0.373-0.127,0.597-0.244,0.672-0.352c0.075-0.106,0.112-0.304,0.112-0.592s-0.064-0.432-0.192-0.432   c-0.234,0-0.575,0.144-1.023,0.432s-0.672,0.592-0.672,0.912C8.695,19.208,8.791,19.283,8.983,19.283z M18.327,27.154   c0.938,0,1.515-0.117,1.728-0.352c0.213-0.235,0.353-0.508,0.416-0.816c0.064-0.309,0.123-1.199,0.177-2.672   c0.053-1.473,0.079-2.955,0.079-4.447c0-1.494-0.063-3.009-0.191-4.544c-0.128-1.536-0.39-2.597-0.784-3.184   c-0.395-0.586-1.094-0.88-2.096-0.88c-0.662,0-1.451,0.118-2.368,0.352c-0.918,0.235-1.638,0.459-2.16,0.672   c-0.523,0.213-0.784,0.347-0.784,0.4s0.102,0.149,0.305,0.288c0.202,0.139,0.304,0.315,0.304,0.528l-0.064,0.608   c0,0.149,0.075,0.224,0.225,0.224l1.567-0.192c0.513-0.064,0.806-0.139,0.88-0.224c0.075-0.085,0.155-0.357,0.24-0.816   c0.085-0.458,0.31-0.688,0.672-0.688s0.849,0.347,1.456,1.04c0.608,0.693,0.912,1.163,0.912,1.408c0,0.246-0.063,0.443-0.191,0.592   c-0.129,0.149-0.331,0.224-0.608,0.224s-0.715-0.234-1.313-0.704c-0.106-0.085-0.213-0.128-0.319-0.128   c-0.107,0-0.203,0.075-0.288,0.224c-0.256,0.448-0.769,0.704-1.536,0.768c-0.32,0.021-0.667,0.064-1.04,0.128   s-0.592,0.139-0.656,0.224c-0.063,0.085-0.096,0.235-0.096,0.448c0,0.213,0.021,0.347,0.064,0.4c0.042,0.053,0.111,0.08,0.208,0.08   c0.096,0,0.298-0.027,0.607-0.08c0.31-0.054,0.677-0.08,1.104-0.08c0.426,0,0.933,0.102,1.52,0.303   c0.587,0.203,0.88,0.422,0.88,0.656c0,0.107-0.037,0.277-0.111,0.513c-0.075,0.235-0.092,0.618-0.049,1.151   s0.064,1.739,0.064,3.616c0,1.878,0.016,3.125,0.048,3.744c0.032,0.618,0.096,0.976,0.192,1.072   C17.415,27.107,17.751,27.154,18.327,27.154z" stroke-width="1"/>
</g>
</svg>