<svg xmlns="http://www.w3.org/2000/svg" xmlns:xlink="http://www.w3.org/1999/xlink" version="1.1" id="图层_1" x="0px" y="0px" width="26.312000274658203" height="26.121999740600586" viewBox="-0.013999640941619873 2.009000301361084 26.312000274658203 26.121999740600586" style="enable-background:new 0 0 30 30;" xml:space="preserve">
  <g>
    <g>
      <path style="fill:#0000FF;" d="M14.854,7.661c0,0.128-0.06,0.304-0.177,0.528c-0.117,0.224-0.314,1.014-0.592,2.368&#13;&#10;&#9;&#9;c-0.277,1.355-0.416,2.678-0.416,3.968c0,1.291-0.075,2.383-0.224,3.28c-0.149,0.896-0.225,1.771-0.225,2.624&#13;&#10;&#9;&#9;c0,0.854,0.054,1.707,0.16,2.56c0.106,0.854,0.16,1.553,0.16,2.096c0,0.545-0.027,0.939-0.08,1.185&#13;&#10;&#9;&#9;c-0.054,0.245-0.08,0.581-0.08,1.009c0,0.234-0.155,0.352-0.464,0.352c-0.31,0-0.934-0.24-1.872-0.721&#13;&#10;&#9;&#9;c-0.938-0.479-1.787-1.023-2.544-1.631c-0.758-0.609-1.136-1.004-1.136-1.185S7.44,23.82,7.59,23.82s0.32,0.032,0.512,0.096&#13;&#10;&#9;&#9;c0.405,0.129,1.109,0.193,2.112,0.193c0.747,0,1.205-0.225,1.376-0.673s0.256-0.858,0.256-1.231s-0.011-0.688-0.031-0.944&#13;&#10;&#9;&#9;c-0.15-1.685-0.225-3.328-0.225-4.929c0-0.148-0.043-0.256-0.128-0.319c-0.085-0.064-0.208-0.059-0.368,0.017&#13;&#10;&#9;&#9;c-0.16,0.074-0.507,0.187-1.04,0.336c-0.299,0.106-0.447,0.256-0.447,0.447c0,0.512,0.287,0.992,0.863,1.44&#13;&#10;&#9;&#9;c0.299,0.192,0.448,0.47,0.448,0.831c0,0.812-0.192,1.366-0.576,1.664c-0.384,0.3-0.672,0.449-0.864,0.449&#13;&#10;&#9;&#9;c-0.191,0-0.325-0.069-0.399-0.209c-0.075-0.139-0.16-0.56-0.256-1.264c-0.097-0.704-0.155-1.482-0.176-2.336&#13;&#10;&#9;&#9;c0-0.299-0.129-0.447-0.385-0.447c-0.447,0-0.795,0.33-1.04,0.991s-0.367,1.253-0.367,1.776s0.021,0.854,0.063,0.992&#13;&#10;&#9;&#9;s0.064,0.319,0.064,0.543c0,0.225-0.07,0.459-0.208,0.705c-0.14,0.245-0.48,0.672-1.024,1.279&#13;&#10;&#9;&#9;c-0.544,0.608-1.045,1.045-1.504,1.313c-0.459,0.266-0.934,0.432-1.424,0.496c-0.491,0.063-0.843,0.096-1.056,0.096&#13;&#10;&#9;&#9;c-0.213,0-0.32-0.064-0.32-0.191c0-0.471,0.512-1.078,1.536-1.824c1.216-0.961,2.048-2.037,2.496-3.232&#13;&#10;&#9;&#9;c0.448-1.194,0.672-1.931,0.672-2.208c0-0.276-0.112-0.405-0.336-0.384s-0.539,0.031-0.944,0.031c-0.406,0-0.966,0.097-1.68,0.289&#13;&#10;&#9;&#9;c-0.715,0.191-1.142,0.357-1.28,0.496c-0.139,0.139-0.288,0.207-0.448,0.207c-0.16,0-0.277-0.154-0.352-0.464&#13;&#10;&#9;&#9;s-0.251-0.72-0.528-1.231c-0.064-0.129-0.096-0.246-0.096-0.353c0-0.298,0.331-0.48,0.992-0.544&#13;&#10;&#9;&#9;c1.515-0.17,2.517-0.325,3.008-0.464c0.491-0.139,1.024-0.283,1.6-0.432c0.32-0.064,0.517-0.314,0.592-0.752&#13;&#10;&#9;&#9;c0.075-0.437,0.112-1.189,0.112-2.256c0-1.066-0.021-1.648-0.064-1.744S6.625,9.912,6.55,9.869C6.475,9.826,6.4,9.81,6.326,9.821&#13;&#10;&#9;&#9;C6.251,9.832,6.15,9.837,6.022,9.837c-0.128,0-0.315-0.032-0.561-0.096c-0.246-0.064-0.368-0.17-0.368-0.32s0.32-0.64,0.959-1.472&#13;&#10;&#9;&#9;c0.641-0.832,1.445-1.845,2.416-3.04c0.971-1.194,1.558-1.893,1.761-2.096c0.202-0.202,0.41-0.304,0.624-0.304&#13;&#10;&#9;&#9;c0.213,0,0.522,0.192,0.928,0.576c0.405,0.384,0.607,0.742,0.607,1.072c0,0.331-0.144,0.629-0.432,0.896&#13;&#10;&#9;&#9;C11.67,5.32,11.174,5.751,10.47,6.349c-0.191,0.171-0.288,0.315-0.288,0.432c0,0.118,0.102,0.176,0.305,0.176&#13;&#10;&#9;&#9;c0.202,0,0.447-0.042,0.735-0.128c0.288-0.085,0.678-0.128,1.168-0.128c0.491,0,1.024,0.091,1.601,0.272&#13;&#10;&#9;&#9;C14.566,7.154,14.854,7.384,14.854,7.661z M11.718,10.861c0-1.088-0.059-1.797-0.176-2.128s-0.336-0.496-0.656-0.496&#13;&#10;&#9;&#9;c-0.319,0-0.72,0.128-1.2,0.384C9.206,8.876,8.881,9.197,8.71,9.581c-0.171,0.384-0.267,0.981-0.288,1.792&#13;&#10;&#9;&#9;c-0.021,0.811-0.054,1.376-0.096,1.696l-0.064,0.832c0,0.277,0.117,0.416,0.353,0.416c0.106,0,0.213-0.048,0.319-0.144&#13;&#10;&#9;&#9;c0.106-0.096,0.16-0.219,0.16-0.368c0.171-1.92,0.283-3.008,0.336-3.264c0.054-0.256,0.165-0.384,0.336-0.384&#13;&#10;&#9;&#9;s0.4,0.038,0.688,0.112c0.288,0.075,0.453,0.208,0.496,0.4c0.042,0.192,0.063,0.427,0.063,0.704c0,0.278-0.053,0.555-0.159,0.832&#13;&#10;&#9;&#9;c-0.257,0.555-0.385,1.045-0.385,1.472c0,0.235,0.213,0.352,0.641,0.352c0.276,0,0.447-0.117,0.512-0.352&#13;&#10;&#9;&#9;C11.686,13.442,11.718,12.504,11.718,10.861z M25.063,12.685c0.256,0,0.384,0.331,0.384,0.992c0,0.662-0.16,1.115-0.48,1.36&#13;&#10;&#9;&#9;c-0.319,0.246-0.735,0.427-1.248,0.544c-0.512,0.118-0.863,0.176-1.056,0.176c-0.683,0-1.248-0.331-1.696-0.992&#13;&#10;&#9;&#9;c-0.448-0.661-0.672-1.515-0.672-2.56c0-0.405,0.037-0.858,0.112-1.36c0.074-0.501,0.111-1.136,0.111-1.904&#13;&#10;&#9;&#9;c0-0.768-0.191-1.152-0.575-1.152c-0.149,0-0.3,0.07-0.448,0.208c-0.149,0.139-0.246,0.315-0.288,0.528&#13;&#10;&#9;&#9;c-0.149,0.619-0.373,1.227-0.672,1.824c-0.299,0.598-0.448,1.083-0.448,1.456c0,0.374,0.026,0.715,0.08,1.024&#13;&#10;&#9;&#9;c0.053,0.31,0.08,0.603,0.08,0.88c0,0.278-0.075,0.534-0.224,0.768c-0.15,0.235-0.433,0.587-0.849,1.056s-0.848,0.725-1.296,0.768&#13;&#10;&#9;&#9;l-1.216,0.225c-0.149,0-0.224-0.08-0.224-0.24s0.144-0.485,0.432-0.977c0.288-0.49,0.56-0.906,0.815-1.248&#13;&#10;&#9;&#9;c0.704-0.917,1.057-2.24,1.057-3.968L16.71,7.629c0-0.277,0.074-0.453,0.224-0.528c0.149-0.074,0.789-0.272,1.921-0.592&#13;&#10;&#9;&#9;c1.13-0.32,1.84-0.48,2.128-0.48s0.544,0.027,0.768,0.08s0.581,0.101,1.072,0.144c0.49,0.043,0.735,0.277,0.735,0.704&#13;&#10;&#9;&#9;c0,0.32-0.096,0.614-0.287,0.88c-0.192,0.267-0.374,0.624-0.545,1.072c-0.171,0.448-0.341,0.939-0.512,1.472&#13;&#10;&#9;&#9;s-0.256,0.939-0.256,1.216c0,1.088,0.427,1.632,1.28,1.632c0.362,0,0.73-0.09,1.104-0.272&#13;&#10;&#9;&#9;C24.715,12.776,24.955,12.685,25.063,12.685z M25.798,19.533c0,0.148-0.063,0.299-0.191,0.447&#13;&#10;&#9;&#9;c-0.342,0.385-0.779,1.109-1.313,2.176c-0.533,1.067-0.821,1.787-0.864,2.16s-0.128,0.608-0.256,0.704&#13;&#10;&#9;&#9;c-0.128,0.097-0.421,0.144-0.88,0.144s-1.174,0.043-2.144,0.129c-0.972,0.085-1.611,0.16-1.92,0.224&#13;&#10;&#9;&#9;c-0.31,0.063-0.576,0.097-0.801,0.097c-0.224,0-0.399-0.097-0.527-0.289c-0.277-0.533-0.598-1.002-0.96-1.408&#13;&#10;&#9;&#9;c-0.363-0.404-0.684-1.113-0.96-2.127c-0.278-1.014-0.416-1.776-0.416-2.289c0-0.768,0.389-1.199,1.168-1.295&#13;&#10;&#9;&#9;c0.778-0.096,1.461-0.225,2.048-0.385c0.586-0.16,1.264-0.293,2.032-0.399c0.768-0.106,1.354-0.16,1.76-0.16&#13;&#10;&#9;&#9;c0.576,0,1.424,0.272,2.544,0.815C25.238,18.621,25.798,19.105,25.798,19.533z M18.694,22.925c0.384,0,0.874-0.091,1.472-0.272&#13;&#10;&#9;&#9;c0.597-0.181,0.992-0.512,1.184-0.992c0.192-0.479,0.288-0.933,0.288-1.359c0-0.96-0.447-1.439-1.344-1.439&#13;&#10;&#9;&#9;c-0.427,0-0.901,0.123-1.424,0.367c-0.523,0.246-0.864,0.465-1.024,0.656s-0.239,0.507-0.239,0.943&#13;&#10;&#9;&#9;c0,0.438,0.079,0.896,0.239,1.377C18.006,22.685,18.288,22.925,18.694,22.925z" stroke-width="1"/>
    </g>
    <g/>
    <g/>
    <g/>
    <g/>
    <g/>
    <g/>
    <g/>
    <g/>
    <g/>
    <g/>
    <g/>
    <g/>
    <g/>
    <g/>
    <g/>
  </g>
</svg>