<svg xmlns="http://www.w3.org/2000/svg" xmlns:xlink="http://www.w3.org/1999/xlink" version="1.1" id="图层_1" x="0px" y="0px" width="29.03200340270996" height="25.50899887084961" viewBox="0.8519980907440186 1.2980024814605713 29.03200340270996 25.50899887084961" enable-background="new 0 0 30 30" xml:space="preserve">
<g>
	<path fill="#0000FF" d="M29.384,25.283c0,0.17-0.277,0.384-0.832,0.64s-1.333,0.384-2.336,0.384s-2.123-0.08-3.359-0.239   c-1.238-0.16-2.027-0.288-2.368-0.385c-0.342-0.096-0.565-0.229-0.672-0.399c-0.107-0.171-0.177-0.534-0.208-1.088   c-0.032-0.555-0.188-1.057-0.465-1.504c-0.277-0.448-0.688-0.875-1.231-1.28s-1.264-1.056-2.16-1.952   c-0.342-0.341-0.832-0.645-1.472-0.912c-0.641-0.267-1.04-0.4-1.2-0.4s-0.315,0.118-0.464,0.353   c-0.576,0.896-1.355,1.718-2.336,2.464c-0.981,0.747-1.584,1.26-1.809,1.536c-0.224,0.277-0.411,0.672-0.56,1.184   c-0.149,0.513-0.32,0.854-0.512,1.024c-0.192,0.171-0.55,0.325-1.072,0.464c-0.523,0.139-1.317,0.208-2.384,0.208   s-1.765-0.091-2.096-0.271c-0.331-0.182-0.496-0.331-0.496-0.448c0-0.118,0.16-0.229,0.48-0.336   c2.496-0.875,4.373-1.872,5.632-2.992s2.139-2.097,2.64-2.929c0.502-0.832,0.971-2.997,1.408-6.495s0.656-6.165,0.656-8   l-0.064-1.248c0-0.576,0.24-0.864,0.721-0.864c0.479,0,0.928,0.038,1.344,0.112s0.698,0.16,0.848,0.256   c0.149,0.096,0.225,0.224,0.225,0.384c0,0.16-0.064,0.406-0.192,0.736s-0.31,1.339-0.544,3.024   c-0.235,1.686-0.352,2.901-0.352,3.648c0,0.747-0.012,1.408-0.032,1.984l-0.064,1.472c0,0.299,0.048,0.539,0.145,0.72   c0.096,0.182,0.848,1.131,2.256,2.848c1.408,1.718,2.41,2.828,3.008,3.328c0.597,0.502,1.521,1.051,2.769,1.648   s2.181,1.003,2.8,1.216C27.933,24.216,29.384,24.92,29.384,25.283z M9.864,11.843c0,0.256-0.229,0.742-0.688,1.456   c-0.459,0.715-0.815,1.227-1.072,1.536c-0.256,0.31-0.442,0.672-0.56,1.088s-0.315,0.624-0.592,0.624   c-0.149,0-0.448-0.17-0.896-0.512c-0.448-0.342-0.853-0.763-1.216-1.264c-0.363-0.501-0.544-0.837-0.544-1.008   c0-0.277,0.149-0.416,0.448-0.416c0.128,0,0.442-0.085,0.944-0.256c0.501-0.17,0.981-0.378,1.44-0.624   c0.459-0.245,0.949-0.474,1.472-0.688c0.522-0.213,0.827-0.32,0.912-0.32C9.746,11.459,9.864,11.587,9.864,11.843z M19.688,7.907   c0.256,0,0.688,0.283,1.296,0.848c0.607,0.565,0.912,0.976,0.912,1.232c0,0.299-0.182,0.47-0.545,0.512   c-0.362,0.043-0.896,0.197-1.6,0.464c-0.704,0.267-1.317,0.56-1.84,0.88c-0.523,0.32-1.062,0.544-1.616,0.672   s-0.907,0.192-1.056,0.192c-0.299,0-0.448-0.149-0.448-0.448c0-0.192,0.144-0.41,0.432-0.656c0.288-0.245,0.646-0.586,1.072-1.024   c0.427-0.437,0.811-0.8,1.152-1.088c0.341-0.288,0.741-0.608,1.2-0.96c0.458-0.352,0.73-0.544,0.815-0.576   C19.549,7.923,19.624,7.907,19.688,7.907z" stroke-width="1"/>
</g>
</svg>