<svg xmlns="http://www.w3.org/2000/svg" xmlns:xlink="http://www.w3.org/1999/xlink" version="1.1" id="图层_1" x="0px" y="0px" width="28.711999893188477" height="25.097002029418945" viewBox="2.5639994144439697 1.9019980430603027 28.711999893188477 25.097002029418945" enable-background="new 0 0 30 30" xml:space="preserve">
<g>
	<path fill="#0000FF" d="M13.656,11.811v0.48c0,0.235-0.069,0.421-0.208,0.56c-0.14,0.139-0.411,0.293-0.816,0.464   c-1.579,0.598-2.518,1.142-2.815,1.632c-0.3,0.491-0.448,0.96-0.448,1.409c0,0.341,0.148,0.49,0.448,0.447   c0.298-0.042,0.618-0.064,0.96-0.064c0.341,0,0.772,0.08,1.296,0.24c0.522,0.16,0.906,0.311,1.151,0.448   c0.245,0.14,0.368,0.272,0.368,0.4c0,0.192-0.182,0.667-0.544,1.424c-0.363,0.757-0.736,1.328-1.12,1.712   c-0.277,0.277-0.416,0.875-0.416,1.792c0,0.214-0.075,0.363-0.224,0.448c-0.149,0.085-0.512,0.182-1.088,0.288   c-1.644,0.299-2.87,0.661-3.68,1.088c-0.064,0.042-0.139,0.063-0.224,0.063c-0.085,0-0.203-0.085-0.352-0.256   c-0.149-0.171-0.549-0.74-1.2-1.712c-0.651-0.97-1.094-1.712-1.328-2.224c-0.235-0.512-0.352-0.885-0.352-1.12   c0-0.234,0.075-0.421,0.224-0.56c0.149-0.139,0.586-0.342,1.312-0.608c0.725-0.267,1.397-0.485,2.016-0.656   c0.298-0.063,0.544-0.373,0.736-0.928s0.288-0.976,0.288-1.264c0-0.288-0.149-0.432-0.448-0.432c-0.704,0-1.6,0.363-2.688,1.088   c-0.043,0.021-0.085,0.032-0.128,0.032c-0.171,0-0.4-0.411-0.688-1.232s-0.432-1.344-0.432-1.568c0-0.224,0.042-0.363,0.128-0.416   s0.325-0.08,0.72-0.08c0.395,0,1.125-0.128,2.192-0.384c1.066-0.256,1.675-0.421,1.824-0.496c0.148-0.075,0.299-0.613,0.448-1.616   l0.704-5.344c0.042-0.341,0.224-0.512,0.544-0.512c0.319,0,0.709,0.085,1.168,0.256c0.458,0.171,0.752,0.31,0.88,0.416   c0.128,0.107,0.191,0.235,0.191,0.384c0,0.149-0.096,0.363-0.288,0.64c-0.597,0.854-0.896,2.347-0.896,4.48   c0,0.363,0.053,0.544,0.16,0.544c0.106,0,0.202-0.011,0.288-0.032c0.96-0.277,1.61-0.416,1.952-0.416   c0.17,0,0.276,0.091,0.319,0.272C13.635,11.081,13.656,11.384,13.656,11.811z M7.16,21.57c0.576,0,1.179-0.121,1.808-0.367   c0.629-0.245,0.944-0.826,0.944-1.744c0-0.725-0.268-1.088-0.8-1.088c-0.32,0-0.747,0.149-1.28,0.447   c-0.534,0.3-0.901,0.561-1.104,0.785c-0.203,0.224-0.304,0.453-0.304,0.688s0.037,0.475,0.112,0.721   c0.074,0.244,0.149,0.399,0.224,0.463C6.834,21.539,6.968,21.57,7.16,21.57z M30.776,25.635c0,0.192-0.257,0.384-0.769,0.576   s-1.083,0.288-1.712,0.288c-0.63,0-1.109-0.043-1.439-0.128c-0.331-0.086-0.881-0.139-1.648-0.16s-1.382-0.149-1.84-0.384   c-0.459-0.235-0.72-0.544-0.784-0.928c-0.128-0.769-0.32-1.302-0.576-1.601c-0.256-0.298-0.629-0.57-1.12-0.816   c-0.49-0.244-0.869-0.441-1.136-0.592c-0.267-0.148-0.443-0.224-0.528-0.224c-0.256,0-0.549,0.144-0.88,0.433   c-0.331,0.287-0.549,0.475-0.655,0.56c-0.428,0.342-0.907,0.949-1.44,1.824c-0.128,0.234-0.806,0.484-2.032,0.752   c-1.227,0.267-2.032,0.399-2.416,0.399c-0.747,0-1.12-0.149-1.12-0.448c0-0.149,0.128-0.277,0.385-0.384   c2.495-1.066,4.144-1.988,4.943-2.768s1.2-1.339,1.2-1.68c0-0.129-0.043-0.256-0.128-0.385c-0.086-0.128-0.353-0.4-0.8-0.816   c-0.448-0.416-0.854-0.74-1.216-0.975c-0.363-0.235-0.545-0.555-0.545-0.961c0-0.404,0.123-0.795,0.368-1.168   s0.485-0.56,0.721-0.56c0.191,0,0.373,0.187,0.544,0.56c0.17,0.373,0.549,0.779,1.136,1.217c0.586,0.438,0.933,0.655,1.04,0.655   c0.106,0,0.197-0.053,0.271-0.159c0.075-0.107,0.187-0.48,0.336-1.121c0.149-0.64,0.225-1.151,0.225-1.536   c0-0.384-0.021-0.613-0.064-0.688c-0.043-0.074-0.144-0.112-0.304-0.112s-0.299,0.043-0.416,0.128   c-0.117,0.085-0.224,0.128-0.32,0.128c-0.096,0-0.224-0.053-0.384-0.16c-0.16-0.106-0.271-0.224-0.336-0.352   c-0.171-0.32-0.373-0.48-0.608-0.48c-0.234,0-0.592,0.299-1.071,0.896c-0.48,0.598-0.901,1.019-1.265,1.264   c-0.362,0.246-0.698,0.369-1.008,0.369s-0.464-0.064-0.464-0.192s0.085-0.31,0.256-0.544c0.96-1.301,1.84-2.933,2.641-4.896   c0.8-1.962,1.306-3.349,1.52-4.16c0.213-0.811,0.416-1.531,0.608-2.16c0.191-0.629,0.324-1.04,0.399-1.232s0.176-0.325,0.305-0.4   c0.128-0.075,0.276-0.112,0.447-0.112c0.256,0,0.613,0.128,1.072,0.384c0.459,0.256,0.688,0.48,0.688,0.672   s-0.043,0.32-0.129,0.384c-0.384,0.299-0.672,1.024-0.863,2.176c-0.043,0.32-0.203,0.79-0.48,1.408   c-0.277,0.619-0.576,1.152-0.896,1.6c-0.32,0.448-0.518,0.795-0.592,1.04c-0.075,0.246-0.112,0.491-0.112,0.736   s0.016,0.405,0.048,0.48s0.112,0.112,0.24,0.112c0.512,0,2.218-0.683,5.12-2.048c0.725-0.363,1.21-0.544,1.456-0.544   c0.244,0,0.437,0.229,0.575,0.688c0.139,0.459,0.208,0.789,0.208,0.992c0,0.203-0.123,0.416-0.367,0.64   c-0.246,0.224-0.796,0.603-1.648,1.136c-0.491,0.32-0.806,0.566-0.944,0.736c-0.139,0.171-0.31,0.528-0.512,1.072   c-0.203,0.544-0.416,1.275-0.64,2.192c-0.225,0.917-0.428,1.638-0.608,2.16c-0.182,0.522-0.271,0.843-0.271,0.96   s0.031,0.234,0.096,0.352c0.063,0.118,0.442,0.476,1.136,1.072c0.693,0.598,1.354,1.051,1.984,1.36   c0.629,0.31,1.973,0.869,4.032,1.68C29.746,24.653,30.776,25.251,30.776,25.635z" stroke-width="1"/>
</g>
</svg>