<svg xmlns="http://www.w3.org/2000/svg" xmlns:xlink="http://www.w3.org/1999/xlink" version="1.1" id="图层_1" x="0px" y="0px" width="26.59600257873535" height="28.040000915527344" viewBox="0.565997838973999 0.7609987258911133 26.59600257873535 28.040000915527344" style="enable-background:new 0 0 30 30;" xml:space="preserve">
  <g>
    <g>
      <path style="fill:#0000FF;" d="M26.662,23.98c0,0.32-0.091,0.555-0.272,0.704c-0.181,0.149-0.362,0.224-0.544,0.224&#13;&#10;&#9;&#9;s-0.357-0.043-0.527-0.127c-0.854-0.385-1.878-0.576-3.072-0.576c-0.533,0-0.987,0.059-1.36,0.176s-1.328,0.176-2.863,0.176&#13;&#10;&#9;&#9;c-0.428,0-1.024,0.09-1.792,0.271c-0.769,0.182-1.28,0.32-1.536,0.416c-0.256,0.097-0.406,0.192-0.448,0.289&#13;&#10;&#9;&#9;c-0.043,0.096-0.064,0.324-0.064,0.688v0.96c0,0.747-0.362,1.12-1.088,1.12c-0.234,0-0.39-0.08-0.464-0.24&#13;&#10;&#9;&#9;c-0.075-0.16-0.112-0.485-0.112-0.977l0.257-10.559c0-0.277-0.06-0.416-0.177-0.416s-0.271,0.139-0.464,0.416&#13;&#10;&#9;&#9;c-0.191,0.277-0.352,0.682-0.479,1.215c-0.107,0.385-0.235,0.668-0.384,0.849c-0.15,0.181-0.47,0.416-0.961,0.704&#13;&#10;&#9;&#9;c-0.49,0.287-1.077,0.57-1.76,0.848c-0.362,0.149-0.581,0.262-0.656,0.336c-0.074,0.075-0.128,0.348-0.159,0.816&#13;&#10;&#9;&#9;c-0.032,0.469-0.049,1.019-0.049,1.648c0,0.629-0.079,1.172-0.239,1.631s-0.31,0.741-0.448,0.849&#13;&#10;&#9;&#9;c-0.139,0.106-0.304,0.159-0.496,0.159s-0.352-0.047-0.479-0.144c-0.128-0.096-0.198-0.294-0.208-0.592&#13;&#10;&#9;&#9;c-0.011-0.299-0.016-1.504-0.016-3.616l0.064-4.8c0-0.725-0.027-1.194-0.08-1.408c-0.054-0.213-0.139-0.32-0.256-0.32&#13;&#10;&#9;&#9;s-0.229,0.064-0.336,0.192c-1.856,1.898-3.147,2.848-3.872,2.848c-0.171,0-0.256-0.122-0.256-0.367s0.304-0.811,0.912-1.696&#13;&#10;&#9;&#9;c0.608-0.885,1.093-1.552,1.456-2c0.362-0.448,0.858-1.194,1.488-2.24c0.629-1.045,1.051-1.829,1.264-2.352&#13;&#10;&#9;&#9;c0.214-0.522,0.635-1.402,1.265-2.64c0.629-1.237,1.002-1.904,1.12-2c0.116-0.096,0.276-0.144,0.479-0.144&#13;&#10;&#9;&#9;c0.202,0,0.555,0.155,1.056,0.464c0.501,0.31,0.753,0.571,0.753,0.784c0,0.299-0.107,0.533-0.32,0.704&#13;&#10;&#9;&#9;C9.979,6.68,9.222,7.661,8.262,9.197s-1.439,2.56-1.439,3.072c0,0.299,0.128,0.48,0.384,0.544c0.597,0.192,0.954,0.347,1.072,0.464&#13;&#10;&#9;&#9;c0.117,0.117,0.176,0.272,0.176,0.464s-0.043,0.352-0.128,0.48c-0.192,0.277-0.288,1.27-0.288,2.977l-0.064,1.088&#13;&#10;&#9;&#9;c0,0.106,0.043,0.16,0.128,0.16c0.277,0,1.009-0.641,2.192-1.92c1.184-1.281,2.085-2.438,2.704-3.473&#13;&#10;&#9;&#9;c0.618-1.035,0.928-1.643,0.928-1.824c0-0.181-0.106-0.272-0.319-0.272c-0.064,0-0.145,0.038-0.24,0.112s-0.176,0.112-0.24,0.112&#13;&#10;&#9;&#9;c-0.192,0-0.544-0.347-1.056-1.04c-0.513-0.693-0.769-1.322-0.769-1.888s0.064-0.949,0.192-1.152&#13;&#10;&#9;&#9;c0.128-0.202,0.356-0.304,0.688-0.304s0.629,0.064,0.896,0.192c0.267,0.128,0.399,0.267,0.399,0.416&#13;&#10;&#9;&#9;c0,0.149-0.043,0.32-0.128,0.512c-0.085,0.192-0.128,0.406-0.128,0.64c0,0.235,0.149,0.352,0.448,0.352s0.561-0.053,0.784-0.16&#13;&#10;&#9;&#9;c0.224-0.106,0.479-0.197,0.768-0.272c0.288-0.074,0.475-0.16,0.561-0.256c0.085-0.096,0.139-0.208,0.16-0.336l0.319-4&#13;&#10;&#9;&#9;c0.085-1.002,0.128-1.616,0.128-1.84c0-0.224,0.054-0.411,0.16-0.56s0.256-0.224,0.448-0.224s0.485,0.069,0.88,0.208&#13;&#10;&#9;&#9;c0.395,0.139,0.65,0.251,0.769,0.336c0.116,0.085,0.176,0.187,0.176,0.304s-0.032,0.219-0.097,0.304&#13;&#10;&#9;&#9;c-0.106,0.128-0.208,0.629-0.304,1.504c-0.096,0.875-0.144,2.016-0.144,3.424c0,0.427,0.139,0.64,0.416,0.64l1.088-0.032&#13;&#10;&#9;&#9;c0.276,0,0.484-0.048,0.624-0.144c0.139-0.096,0.288-0.357,0.448-0.784c0.159-0.426,0.293-0.896,0.399-1.408&#13;&#10;&#9;&#9;c0.106-0.512,0.299-0.768,0.576-0.768c0.106,0,0.437,0.128,0.992,0.384c0.555,0.256,0.832,0.459,0.832,0.608&#13;&#10;&#9;&#9;s-0.075,0.315-0.225,0.496c-0.149,0.182-0.256,0.56-0.319,1.136c-0.064,0.576-0.214,1.067-0.448,1.472&#13;&#10;&#9;&#9;c-0.235,0.405-0.4,0.683-0.496,0.832c-0.096,0.15-0.24,0.224-0.432,0.224c-0.192,0-0.4-0.026-0.624-0.08&#13;&#10;&#9;&#9;c-0.225-0.053-0.619-0.08-1.185-0.08s-1.248,0.059-2.048,0.176c-0.8,0.118-1.264,0.357-1.392,0.72&#13;&#10;&#9;&#9;c-0.406,1.109-0.699,1.813-0.88,2.112c-0.182,0.299-0.272,0.565-0.272,0.8c0,0.235,0.149,0.352,0.448,0.352&#13;&#10;&#9;&#9;c0.661,0,1.258-0.272,1.792-0.816c0.533-0.544,0.98-1.274,1.344-2.192c0.171-0.405,0.357-0.608,0.56-0.608&#13;&#10;&#9;&#9;c0.203,0,0.491,0.102,0.864,0.304c0.373,0.203,0.561,0.4,0.561,0.592c0,0.192-0.075,0.427-0.225,0.704&#13;&#10;&#9;&#9;c-0.149,0.278-0.224,0.491-0.224,0.64c0,0.256,0.16,0.363,0.479,0.32c1.024-0.128,1.627-0.192,1.809-0.192&#13;&#10;&#9;&#9;c0.181,0,0.347,0.08,0.496,0.24c0.148,0.16,0.224,0.48,0.224,0.96s-0.47,0.72-1.408,0.72c-0.277,0-0.576,0.043-0.896,0.128&#13;&#10;&#9;&#9;c-0.32,0.085-0.48,0.299-0.48,0.64c0,0.342,0.182,0.512,0.544,0.512l0.641-0.064c0.341,0,0.576,0.182,0.704,0.544&#13;&#10;&#9;&#9;s0.191,0.598,0.191,0.704c0,0.107-0.117,0.225-0.352,0.352c-0.235,0.129-0.693,0.299-1.376,0.512&#13;&#10;&#9;&#9;c-0.32,0.086-0.48,0.272-0.48,0.561s0.165,0.416,0.496,0.385c0.331-0.033,0.677-0.049,1.04-0.049c0.362,0,0.613,0.049,0.752,0.145&#13;&#10;&#9;&#9;s0.208,0.229,0.208,0.399c0,0.534-0.245,0.907-0.736,1.12c-0.49,0.213-0.981,0.363-1.472,0.448c-0.213,0.021-0.32,0.171-0.32,0.448&#13;&#10;&#9;&#9;s0.054,0.459,0.16,0.543c0.106,0.086,0.267,0.118,0.48,0.097c0.213-0.021,0.427-0.032,0.64-0.032l1.376,0.064&#13;&#10;&#9;&#9;c0.533,0,0.96-0.021,1.28-0.064l0.832-0.128c0.362,0,0.683,0.245,0.96,0.735C26.523,23.16,26.662,23.597,26.662,23.98z&#13;&#10;&#9;&#9; M15.654,20.557c0-0.213,0.111-0.33,0.336-0.352c0.224-0.021,0.549-0.086,0.976-0.192s0.683-0.181,0.769-0.224&#13;&#10;&#9;&#9;c0.085-0.043,0.148-0.112,0.191-0.209c0.043-0.096,0.064-0.271,0.064-0.527c0-0.341-0.149-0.501-0.448-0.48&#13;&#10;&#9;&#9;c-0.299,0.021-0.603,0.032-0.912,0.032s-0.539-0.133-0.688-0.399c-0.149-0.268-0.225-0.475-0.225-0.625&#13;&#10;&#9;&#9;c0-0.276,0.251-0.441,0.752-0.496c0.501-0.053,0.864-0.127,1.088-0.223c0.225-0.097,0.336-0.293,0.336-0.593&#13;&#10;&#9;&#9;c0-0.512-0.139-0.768-0.416-0.768c-0.106,0-0.527,0.096-1.264,0.288s-1.136,0.326-1.2,0.4c-0.063,0.075-0.117,0.198-0.159,0.368&#13;&#10;&#9;&#9;c-0.044,0.171-0.086,0.416-0.129,0.736s-0.106,1.205-0.191,2.656c-0.086,1.451-0.128,2.299-0.128,2.543&#13;&#10;&#9;&#9;c0,0.246,0.059,0.449,0.176,0.608c0.117,0.16,0.261,0.24,0.432,0.24c0.021,0,0.416-0.101,1.185-0.304&#13;&#10;&#9;&#9;c0.768-0.203,1.21-0.325,1.328-0.369c0.116-0.042,0.208-0.133,0.271-0.271c0.064-0.139,0.096-0.336,0.096-0.592&#13;&#10;&#9;&#9;s-0.106-0.384-0.319-0.384c-0.214,0-0.47,0.075-0.769,0.224c-0.149,0.064-0.304,0.096-0.464,0.096s-0.314-0.148-0.464-0.447&#13;&#10;&#9;&#9;S15.654,20.748,15.654,20.557z" stroke-width="1"/>
    </g>
    <g/>
    <g/>
    <g/>
    <g/>
    <g/>
    <g/>
    <g/>
    <g/>
    <g/>
    <g/>
    <g/>
    <g/>
    <g/>
    <g/>
    <g/>
  </g>
</svg>