<svg xmlns="http://www.w3.org/2000/svg" xmlns:xlink="http://www.w3.org/1999/xlink" version="1.1" id="图层_1" x="0px" y="0px" width="23.494998931884766" height="28.743995666503906" viewBox="2.0199995040893555 -0.25699998438358307 23.494998931884766 28.743995666503906" enable-background="new 0 0 30 30" xml:space="preserve">
<g>
	<path fill="#0000FF" d="M25.015,18.931c0,0.726-0.171,1.088-0.512,1.088c-0.192,0-0.438-0.117-0.736-0.353   c-0.703-0.555-2.347-0.832-4.928-0.832c-0.768,0-1.354,0.021-1.76,0.064s-0.651,0.117-0.736,0.225   c-0.085,0.106-0.154,0.459-0.208,1.056s-0.165,1.142-0.336,1.632c-0.171,0.491-0.256,0.854-0.256,1.088s0.032,0.565,0.096,0.992   c0.064,0.426,0.097,0.928,0.097,1.504l-0.032,1.057l0.063,1.088c0,0.299-0.128,0.447-0.384,0.447c-0.085,0-0.256-0.043-0.512-0.127   c-0.256-0.086-0.613-0.166-1.072-0.24c-0.459-0.076-1.371-0.492-2.735-1.248c-1.366-0.758-2.049-1.286-2.049-1.584   c0-0.172,0.171-0.225,0.513-0.16c0.917,0.148,1.658,0.224,2.224,0.224s0.976-0.08,1.232-0.24c0.256-0.159,0.399-0.411,0.432-0.752   s0.048-0.757,0.048-1.248c0-0.49-0.027-1.034-0.08-1.632c-0.054-0.598-0.117-0.938-0.191-1.023c-0.075-0.086-0.31-0.08-0.704,0.016   c-0.396,0.096-0.87,0.145-1.424,0.145c-0.556,0-0.944,0.068-1.169,0.207c-0.224,0.139-0.438,0.566-0.64,1.28   c-0.203,0.715-0.438,1.344-0.704,1.888c-0.267,0.545-0.399,1.051-0.399,1.521v0.575c0,0.385-0.14,0.576-0.416,0.576   c-0.278,0-0.822-0.187-1.632-0.56c-0.811-0.374-1.216-0.636-1.216-0.784c0-0.149,0.085-0.331,0.256-0.544   c0.17-0.213,0.656-0.73,1.456-1.552s1.541-1.531,2.224-2.128c0.042-0.042,0.063-0.085,0.063-0.128c0-0.107-0.096-0.16-0.288-0.16   c-0.191,0-0.709,0.08-1.552,0.24s-1.904,0.56-3.184,1.199c-0.128,0.064-0.283,0.096-0.464,0.096c-0.182,0-0.374-0.201-0.576-0.607   c-0.203-0.404-0.304-0.725-0.304-0.96c0-0.234,0.192-0.362,0.576-0.384c0.17-0.021,0.88-0.208,2.128-0.561   c1.248-0.352,1.978-0.549,2.192-0.592c1.621-0.277,2.816-0.555,3.584-0.832s1.312-0.437,1.632-0.479s0.48-0.245,0.48-0.608   c0-0.362-0.054-0.603-0.16-0.72c-0.107-0.117-0.31-0.177-0.608-0.177c-0.683,0-1.6,0.268-2.752,0.801   c-0.405,0.171-0.741,0.256-1.008,0.256s-0.544-0.271-0.832-0.816c-0.288-0.543-0.432-0.922-0.432-1.136   c0-0.213,0.053-0.346,0.159-0.4c0.107-0.053,0.385-0.08,0.832-0.08c0.448,0,0.992-0.09,1.633-0.272   c0.64-0.181,1.364-0.362,2.176-0.544c0.811-0.181,1.445-0.426,1.904-0.736c0.458-0.309,0.858-0.784,1.199-1.424   c0.342-0.64,0.513-1.061,0.513-1.264s-0.032-0.395-0.097-0.576c-0.063-0.181-0.293-0.272-0.688-0.272   c-0.396,0-0.693,0.08-0.896,0.24c-0.203,0.16-0.464,0.507-0.784,1.04c-0.319,0.534-0.495,0.928-0.527,1.184   c-0.032,0.256-0.091,0.432-0.176,0.528c-0.086,0.096-0.331,0.235-0.736,0.416s-0.656,0.272-0.752,0.272s-0.197-0.08-0.304-0.24   c-0.107-0.16-0.16-0.389-0.16-0.688v-0.416c0-0.619-0.032-1.05-0.097-1.296c-0.063-0.245-0.191-0.368-0.384-0.368   c-0.191,0-0.522,0.032-0.992,0.096c-0.469,0.064-0.768,0.171-0.896,0.32c-0.128,0.149-0.235,0.224-0.32,0.224   c-0.234,0-0.512-0.298-0.832-0.896c-0.32-0.597-0.48-1.029-0.48-1.296c0-0.267,0.229-0.405,0.688-0.416s1.456-0.165,2.992-0.464   s2.769-0.581,3.696-0.848c0.928-0.267,1.749-0.432,2.464-0.496s1.402-0.149,2.063-0.256c0.661-0.106,1.072-0.197,1.232-0.272   s0.352-0.112,0.576-0.112c0.224,0,0.395,0.134,0.512,0.4s0.373,0.597,0.769,0.992c0.395,0.395,0.592,0.72,0.592,0.976   s-0.123,0.47-0.368,0.64c-0.245,0.171-0.571,0.261-0.976,0.272c-0.406,0.011-0.779,0.016-1.12,0.016c-0.79,0-1.185,0.16-1.185,0.48   c0,0.128,0.037,0.24,0.112,0.336c0.074,0.096,0.112,0.176,0.112,0.24s-0.155,0.352-0.465,0.864   c-0.309,0.512-0.544,0.869-0.703,1.072c-0.16,0.203-0.24,0.336-0.24,0.4c0,0.214,0.213,0.32,0.64,0.32   c0.981,0,1.589,0.069,1.824,0.208c0.234,0.139,0.352,0.448,0.352,0.928s-0.229,0.747-0.688,0.8   c-0.459,0.053-1.014,0.155-1.664,0.304c-0.651,0.149-1.067,0.256-1.248,0.32c-0.182,0.064-0.272,0.315-0.272,0.752   s0.08,0.655,0.24,0.655s0.347-0.017,0.561-0.048c0.213-0.032,0.672-0.048,1.376-0.048s1.877-0.106,3.52-0.32   c0.597-0.085,1.045-0.128,1.344-0.128s0.518,0.043,0.656,0.128s0.245,0.304,0.32,0.656c0.074,0.353,0.208,0.688,0.399,1.008   C24.919,18.258,25.015,18.59,25.015,18.931z M14.263,0.243c0.341,0,0.598,0.155,0.769,0.464c0.17,0.31,0.447,0.598,0.832,0.864   c0.384,0.267,0.714,0.592,0.992,0.976c0.276,0.384,0.415,0.715,0.415,0.992c0,0.277-0.043,0.491-0.128,0.64   S16.94,4.43,16.791,4.482c-0.149,0.054-0.432,0.08-0.848,0.08s-0.656-0.032-0.721-0.096c-0.341-0.213-0.854-0.32-1.536-0.32   c-0.213,0-0.41-0.149-0.592-0.448s-0.271-0.683-0.271-1.152c0-0.469,0.117-0.97,0.352-1.504   C13.409,0.509,13.772,0.243,14.263,0.243z M23.255,23.09v0.225c0,0.299-0.096,0.795-0.288,1.488   c-0.191,0.693-0.501,1.039-0.928,1.039c-0.235,0-0.533-0.17-0.896-0.512c-0.362-0.341-0.661-0.715-0.896-1.119   c-0.107-0.171-0.396-0.539-0.864-1.104c-0.47-0.565-0.789-1.003-0.96-1.312c-0.171-0.31-0.256-0.539-0.256-0.688   c0-0.298,0.288-0.448,0.864-0.448c0.319,0,0.73,0.054,1.231,0.16c0.501,0.107,1.066,0.379,1.696,0.816   c0.629,0.438,1.003,0.73,1.12,0.88S23.255,22.855,23.255,23.09z" stroke-width="1"/>
</g>
</svg>