<svg xmlns="http://www.w3.org/2000/svg" xmlns:xlink="http://www.w3.org/1999/xlink" version="1.1" id="图层_1" x="0px" y="0px" width="15.432999610900879" height="18.825000762939453" viewBox="7.585999488830566 6.749999523162842 15.432999610900879 18.825000762939453" enable-background="new 0 0 30 30" xml:space="preserve">
<g>
	<path fill="#0000FF" d="M22.519,9.139c0,0.128-0.117,0.277-0.352,0.448c-0.235,0.171-0.443,0.678-0.624,1.52   c-0.182,0.843-0.272,1.718-0.272,2.624c0,0.907-0.026,2.219-0.079,3.936c-0.054,1.718-0.112,3.057-0.177,4.017   c-0.063,0.96-0.096,1.579-0.096,1.856v0.735c0,0.533-0.117,0.8-0.352,0.8c-0.107,0-0.225-0.043-0.353-0.128   c-0.896-0.618-1.6-1.066-2.112-1.344c-0.512-0.276-1.179-0.692-2-1.248c-0.821-0.555-1.467-1.034-1.936-1.44   c-0.171-0.17-0.357-0.256-0.56-0.256c-0.203,0-0.796,0.166-1.776,0.496c-0.981,0.331-1.616,0.604-1.904,0.816   s-0.496,0.32-0.624,0.32c-0.384,0-0.683-0.57-0.896-1.713c-0.214-1.141-0.32-2.56-0.32-4.256c0-1.696,0.085-3.317,0.256-4.864   c0.171-1.546,0.32-2.432,0.448-2.656c0.128-0.224,0.347-0.347,0.656-0.368c0.309-0.021,0.586-0.069,0.832-0.144   c0.245-0.075,1.466-0.267,3.664-0.576c2.196-0.309,3.669-0.464,4.416-0.464c0.746,0,1.376,0.128,1.888,0.384   c0.512,0.256,1.019,0.528,1.52,0.816C22.268,8.738,22.519,8.968,22.519,9.139z M16.791,21.49c0.64,0,0.981-0.213,1.024-0.64   c0.042-0.427,0.063-1.983,0.063-4.672c0-2.688-0.048-4.437-0.144-5.248c-0.097-0.811-0.235-1.339-0.416-1.584   c-0.182-0.245-0.55-0.368-1.104-0.368s-1.359,0.176-2.416,0.528c-1.056,0.352-1.718,0.688-1.983,1.008   c-0.268,0.32-0.4,0.8-0.4,1.44c0,0.277,0.171,0.416,0.512,0.416l2.017-0.064c0.746,0,1.199,0.075,1.359,0.224   s0.24,0.501,0.24,1.056c0,0.32-0.091,0.576-0.272,0.768c-0.181,0.192-1.339,0.64-3.472,1.345c-0.299,0.106-0.496,0.213-0.592,0.319   s-0.171,0.353-0.224,0.735c-0.054,0.385-0.08,0.769-0.08,1.152c0,0.385,0.116,0.576,0.352,0.576c0.085,0,0.438-0.08,1.056-0.24   c0.619-0.16,1.029-0.24,1.232-0.24c0.202,0,0.389,0.017,0.56,0.049c0.171,0.031,0.32,0.048,0.448,0.048l0.353-0.032   c0.234,0,0.453,0.16,0.655,0.48c0.203,0.32,0.305,0.746,0.305,1.279c0,0.192-0.107,0.332-0.32,0.416   c-0.107,0.043-0.16,0.155-0.16,0.336c0,0.182,0.149,0.379,0.448,0.592C16.13,21.384,16.449,21.49,16.791,21.49z" stroke-width="1"/>
</g>
</svg>