<svg xmlns="http://www.w3.org/2000/svg" xmlns:xlink="http://www.w3.org/1999/xlink" version="1.1" id="图层_1" x="0px" y="0px" width="26.439002990722656" height="23.591001510620117" viewBox="2.0340003967285156 0.7610001564025879 26.439002990722656 23.591001510620117" style="enable-background:new 0 0 30 30;" xml:space="preserve">
  <g>
    <g>
      <path style="fill:#0000FF;" d="M11.206,16.557c0,0.277,0.048,0.416,0.144,0.416c0.097,0,0.208-0.031,0.336-0.096&#13;&#10;&#9;&#9;c1.579-0.768,2.48-1.152,2.704-1.152c0.225,0,0.336,0.128,0.336,0.385c0,0.66-0.618,1.471-1.855,2.432&#13;&#10;&#9;&#9;C11.633,19.5,9.776,20.6,7.302,21.837c-0.981,0.491-1.637,0.901-1.968,1.231c-0.331,0.332-0.582,0.496-0.752,0.496&#13;&#10;&#9;&#9;c-0.171,0-0.555-0.299-1.152-0.896c-0.598-0.596-0.896-1.023-0.896-1.279s0.218-0.453,0.656-0.592&#13;&#10;&#9;&#9;c0.437-0.139,0.891-0.309,1.36-0.512s0.736-0.336,0.8-0.4s0.096-0.213,0.096-0.448c0-0.234-0.101-0.714-0.304-1.44&#13;&#10;&#9;&#9;c-0.203-0.725-0.438-1.738-0.704-3.04c-0.267-1.301-0.4-2.064-0.4-2.288c0-0.224,0.144-0.378,0.432-0.464&#13;&#10;&#9;&#9;c0.288-0.085,0.8-0.128,1.536-0.128c0.736,0,1.104,0.203,1.104,0.608c0,0.107-0.027,0.24-0.08,0.4&#13;&#10;&#9;&#9;c-0.054,0.16-0.08,0.566-0.08,1.216c0,0.651,0.068,1.456,0.208,2.416c0.139,0.96,0.245,1.525,0.319,1.695&#13;&#10;&#9;&#9;c0.075,0.172,0.165,0.256,0.272,0.256c0.106,0,0.357-0.084,0.752-0.256c0.395-0.17,0.592-0.426,0.592-0.768l-0.096-2.848&#13;&#10;&#9;&#9;c-0.021-1.259-0.032-2.379-0.032-3.36L9.03,8.813c0-0.725-0.017-1.242-0.048-1.552C8.95,6.952,8.934,6.573,8.934,6.125&#13;&#10;&#9;&#9;c0-0.448,0.049-0.746,0.145-0.896C9.174,5.08,9.334,5.005,9.558,5.005c0.225,0,0.507,0.059,0.849,0.176&#13;&#10;&#9;&#9;c0.341,0.118,0.757,0.229,1.248,0.336c0.17,0.043,0.256,0.171,0.256,0.384s-0.06,0.427-0.176,0.64&#13;&#10;&#9;&#9;c-0.118,0.214-0.214,0.742-0.288,1.584c-0.075,0.843-0.112,1.712-0.112,2.608c0,0.192,0.021,0.315,0.064,0.368&#13;&#10;&#9;&#9;c0.042,0.054,0.133,0.08,0.271,0.08s0.427-0.032,0.864-0.096c0.437-0.064,0.772-0.138,1.008-0.224&#13;&#10;&#9;&#9;c0.234-0.085,0.405-0.128,0.512-0.128c0.256,0,0.416,0.235,0.48,0.704l0.063,0.672c0,0.32-0.159,0.533-0.479,0.64&#13;&#10;&#9;&#9;c-0.405,0.15-0.886,0.416-1.44,0.8c-0.555,0.384-0.938,0.688-1.151,0.912c-0.214,0.224-0.32,0.443-0.32,0.656V16.557z&#13;&#10;&#9;&#9; M17.318,17.517c-0.086,1.408,0.17,2.363,0.768,2.864c0.597,0.502,1.419,0.752,2.464,0.752s2.032-0.133,2.96-0.4&#13;&#10;&#9;&#9;c0.929-0.266,1.521-0.842,1.776-1.728s0.458-2.32,0.607-4.304c0.043-0.597,0.165-0.896,0.368-0.896s0.464,0.48,0.784,1.44&#13;&#10;&#9;&#9;c0.32,0.96,0.48,2.496,0.48,4.608c0,0.854,0.116,1.644,0.352,2.368c0.064,0.191,0.096,0.342,0.096,0.447&#13;&#10;&#9;&#9;c0,0.363-0.347,0.556-1.04,0.576c-0.693,0.021-1.429,0.113-2.208,0.272c-0.778,0.16-1.467,0.24-2.063,0.24l-0.864-0.063&#13;&#10;&#9;&#9;c-0.256,0-0.661,0.026-1.216,0.079c-0.555,0.054-0.907,0.08-1.056,0.08c-0.769,0-1.633-0.532-2.593-1.6s-1.439-2.538-1.439-4.416&#13;&#10;&#9;&#9;c0-0.042,0.026-0.688,0.08-1.936c0.053-1.248,0.08-2.512,0.08-3.792L15.59,8.493c0-1.088,0.08-2.09,0.24-3.008&#13;&#10;&#9;&#9;c0.16-0.917,0.261-2.091,0.304-3.52c0-0.256,0.091-0.437,0.272-0.544c0.181-0.107,0.512-0.16,0.992-0.16&#13;&#10;&#9;&#9;c0.479,0,0.789,0.027,0.928,0.08s0.208,0.166,0.208,0.336c0,0.171-0.102,0.448-0.304,0.832c-0.203,0.384-0.363,1.045-0.48,1.984&#13;&#10;&#9;&#9;c-0.117,0.939-0.176,2.021-0.176,3.248c0,1.227,0.021,1.947,0.063,2.16s0.171,0.32,0.385,0.32c0.213,0,0.837-0.17,1.871-0.512&#13;&#10;&#9;&#9;c1.035-0.341,1.648-0.597,1.841-0.768c0.191-0.171,0.319-0.347,0.384-0.528c0.063-0.181,0.17-0.272,0.32-0.272&#13;&#10;&#9;&#9;c0.148,0,0.287,0.096,0.416,0.288c0.362,0.576,0.64,0.981,0.831,1.216c0.192,0.235,0.288,0.448,0.288,0.64&#13;&#10;&#9;&#9;c0,0.427-0.202,0.64-0.607,0.64c-0.256,0-0.47,0.053-0.641,0.16c-0.447,0.342-1.003,0.63-1.663,0.864&#13;&#10;&#9;&#9;c-0.342,0.107-0.63,0.267-0.864,0.48c-0.641,0.534-1.408,0.981-2.305,1.344c-0.234,0.107-0.362,0.288-0.384,0.544L17.318,17.517z" stroke-width="1"/>
    </g>
    <g/>
    <g/>
    <g/>
    <g/>
    <g/>
    <g/>
    <g/>
    <g/>
    <g/>
    <g/>
    <g/>
    <g/>
    <g/>
    <g/>
    <g/>
  </g>
</svg>