<svg xmlns="http://www.w3.org/2000/svg" xmlns:xlink="http://www.w3.org/1999/xlink" version="1.1" id="图层_1" x="0px" y="0px" width="20.552000045776367" height="24.45600128173828" viewBox="4.034999847412109 2.97499942779541 20.552000045776367 24.45600128173828" enable-background="new 0 0 30 30" xml:space="preserve">
<g>
	<path fill="#0000FF" d="M5.591,10.546c0.171,0,0.411,0.091,0.72,0.272C6.62,11,7.116,11.229,7.799,11.506   c0.149,0.064,0.225,0.192,0.225,0.384s-0.086,0.384-0.257,0.576c-0.447,0.491-0.751,1.771-0.912,3.84s-0.24,3.766-0.24,5.088   l0.064,1.792c0,0.384-0.091,0.64-0.272,0.769c-0.182,0.127-0.502,0.191-0.96,0.191c-0.459,0-0.725-0.165-0.8-0.496   c-0.075-0.33-0.112-1.818-0.112-4.464c0-1.429,0.021-3.104,0.064-5.024c0.042-1.92,0.149-3.002,0.32-3.248   C5.089,10.669,5.313,10.546,5.591,10.546z M10.103,7.955c0,0.128-0.043,0.32-0.128,0.576C9.89,8.787,9.751,8.915,9.559,8.915   c-0.191,0-0.539-0.048-1.04-0.144s-0.943-0.24-1.327-0.432c-0.384-0.192-0.651-0.373-0.8-0.544c-0.149-0.17-0.224-0.437-0.224-0.8   c0-1.024,0.096-1.867,0.288-2.528c0.192-0.661,0.432-0.992,0.72-0.992c0.288,0,0.459,0.144,0.512,0.432   C7.74,4.194,7.852,4.509,8.023,4.851c0.17,0.341,0.447,0.72,0.832,1.136c0.384,0.416,0.688,0.79,0.911,1.12   C9.991,7.438,10.103,7.72,10.103,7.955z M24.087,6.099c0,0.192-0.096,0.411-0.288,0.656C23.607,7,23.468,7.25,23.383,7.506   c-0.085,0.256-0.128,0.651-0.128,1.184v1.728l-0.063,2.848c0,0.491,0.042,1.067,0.128,1.728c0.085,0.662,0.128,1.654,0.128,2.976   l-0.064,2.752c0,1.579,0.059,2.918,0.176,4.016c0.117,1.099,0.177,1.658,0.177,1.68c0,0.342-0.188,0.513-0.561,0.513   s-1.493-0.24-3.359-0.72c-1.867-0.48-3.318-1.029-4.353-1.648c-1.035-0.619-1.69-1.057-1.968-1.313s-0.416-0.5-0.416-0.735   c0-0.085,0.048-0.128,0.144-0.128c0.097,0,0.4,0.111,0.912,0.336c0.513,0.224,1.424,0.41,2.736,0.561   c1.312,0.148,2.208,0.223,2.688,0.223c0.48,0,0.811-0.111,0.992-0.336c0.182-0.224,0.272-0.805,0.272-1.743   c0-1.749-0.048-4.128-0.145-7.136c-0.096-3.008-0.208-4.922-0.336-5.744c-0.128-0.821-0.299-1.408-0.512-1.76   c-0.214-0.352-0.518-0.528-0.912-0.528s-1.275,0.192-2.64,0.576c-1.366,0.384-2.283,0.832-2.752,1.344   c-0.192,0.192-0.4,0.288-0.624,0.288c-0.225,0-0.406-0.282-0.544-0.848c-0.14-0.565-0.208-1.002-0.208-1.312   c0-0.309,0.037-0.469,0.111-0.48c0.075-0.011,0.32-0.016,0.736-0.016s1.131-0.144,2.144-0.432c1.014-0.288,1.941-0.517,2.784-0.688   c0.843-0.17,1.669-0.256,2.48-0.256c0.811,0,1.626,0.176,2.448,0.528C23.676,5.314,24.087,5.693,24.087,6.099z" stroke-width="1"/>
</g>
</svg>