<svg xmlns="http://www.w3.org/2000/svg" xmlns:xlink="http://www.w3.org/1999/xlink" version="1.1" id="图层_1" x="0px" y="0px" width="22.08799934387207" height="21.638999938964844" viewBox="2.8510000705718994 5.054999351501465 22.08799934387207 21.638999938964844" enable-background="new 0 0 30 30" xml:space="preserve">
<g>
	<path fill="#0000FF" d="M11.991,6.163c0,0.128-0.075,0.299-0.225,0.512c-0.512,0.726-0.88,1.483-1.104,2.272   c-0.224,0.79-0.496,1.462-0.816,2.016c-0.063,0.128-0.096,0.31-0.096,0.544c0,0.235,0.128,0.64,0.384,1.216   c0.256,0.576,0.442,1.077,0.561,1.504c0.116,0.427,0.176,0.816,0.176,1.168c0,0.352-0.021,0.684-0.064,0.992   s-0.063,0.741-0.063,1.296c0,0.299-0.128,0.448-0.384,0.448c-0.257,0-0.752-0.139-1.488-0.416s-1.478-0.672-2.224-1.184   c-0.171-0.107-0.31-0.16-0.416-0.16c-0.213,0-0.32,0.213-0.32,0.64c0,2.069-0.048,3.499-0.144,4.288   c-0.096,0.789-0.144,1.354-0.144,1.695l0.032,2.112c0,0.491-0.069,0.794-0.208,0.912c-0.139,0.117-0.4,0.176-0.784,0.176   c-0.384,0-0.608-0.043-0.672-0.128c-0.064-0.086-0.096-0.24-0.096-0.464s0.053-0.72,0.16-1.487c0.106-0.769,0.16-1.441,0.16-2.017   l-0.224-7.52c-0.086-2.816-0.155-4.544-0.208-5.184c-0.054-0.64-0.139-1.083-0.256-1.328C3.41,7.821,3.351,7.624,3.351,7.475   c0-0.149,0.224-0.256,0.672-0.32c1.13-0.149,2.256-0.453,3.376-0.912c1.119-0.458,1.946-0.688,2.479-0.688s1.019,0.043,1.456,0.128   C11.772,5.768,11.991,5.928,11.991,6.163z M7.767,11.506c0-0.341,0.097-0.704,0.288-1.088C8.332,9.821,8.471,9.16,8.471,8.435   c0-0.384-0.102-0.576-0.304-0.576c-0.203,0-0.512,0.176-0.928,0.528c-0.417,0.352-0.688,0.672-0.816,0.96   c-0.128,0.288-0.251,0.88-0.368,1.776c-0.118,0.896-0.176,1.589-0.176,2.08s0.048,0.8,0.144,0.928s0.373,0.293,0.832,0.496   c0.458,0.203,0.816,0.304,1.072,0.304s0.384-0.117,0.384-0.352c0-0.427-0.091-0.997-0.271-1.712   C7.857,12.152,7.767,11.699,7.767,11.506z M24.439,9.331c0,0.085-0.038,0.187-0.112,0.304c-0.075,0.118-0.145,0.438-0.208,0.96   c-0.064,0.523-0.149,1.872-0.256,4.048l-0.225,8.447c-0.021,0.896-0.139,1.345-0.352,1.345c-0.107,0-0.336-0.134-0.688-0.399   c-0.352-0.268-0.815-0.571-1.392-0.912c-1.237-0.705-2.24-1.408-3.008-2.112c-0.192-0.171-0.363-0.257-0.513-0.257   s-0.304,0.043-0.464,0.129c-0.159,0.086-0.592,0.245-1.296,0.479c-0.171,0.064-0.336,0.208-0.496,0.433   c-0.16,0.224-0.352,0.389-0.575,0.496c-0.225,0.106-0.422,0.16-0.593,0.16c-0.405,0-0.72-0.523-0.943-1.568   c-0.225-1.045-0.353-2.912-0.385-5.6c-0.031-2.688-0.085-4.235-0.159-4.64c-0.075-0.405-0.112-0.677-0.112-0.816   s0.053-0.245,0.16-0.32c0.106-0.074,0.522-0.154,1.248-0.24c0.725-0.085,1.386-0.213,1.983-0.384   c1.664-0.405,3.179-0.608,4.544-0.608s2.347,0.112,2.944,0.336C24.14,8.834,24.439,9.075,24.439,9.331z M20.471,20.338   c0.277,0,0.416-0.256,0.416-0.768c0-2.709-0.106-4.832-0.319-6.368c-0.214-1.536-0.433-2.475-0.656-2.816   c-0.225-0.341-0.544-0.512-0.96-0.512S18.05,9.96,17.495,10.13c-0.555,0.171-0.939,0.32-1.152,0.448s-0.352,0.325-0.416,0.592   c-0.063,0.267-0.096,0.592-0.096,0.976c0,0.384,0.026,0.624,0.08,0.72c0.053,0.096,0.139,0.144,0.256,0.144   s0.347-0.021,0.688-0.064c0.341-0.042,0.672-0.064,0.991-0.064c0.32,0,0.528,0.075,0.624,0.224   c0.097,0.149,0.145,0.421,0.145,0.816c0,0.395-0.032,0.64-0.097,0.736c-0.063,0.096-0.33,0.272-0.8,0.528s-1.023,0.513-1.664,0.769   c-0.362,0.17-0.544,0.778-0.544,1.823c0,0.278,0.021,0.459,0.064,0.544c0.042,0.086,0.117,0.129,0.224,0.129   s0.464-0.064,1.072-0.193c0.607-0.127,1.051-0.191,1.328-0.191c0.276,0,0.437,0.064,0.479,0.191   c0.043,0.129,0.075,0.342,0.097,0.641c0,0.576,0.165,0.96,0.495,1.152C19.602,20.242,20.002,20.338,20.471,20.338z" stroke-width="1"/>
</g>
</svg>