<svg xmlns="http://www.w3.org/2000/svg" xmlns:xlink="http://www.w3.org/1999/xlink" version="1.1" id="图层_1" x="0px" y="0px" width="26.794002532958984" height="26.756996154785156" viewBox="2.530000686645508 0.8949997425079346 26.794002532958984 26.756996154785156" enable-background="new 0 0 30 30" xml:space="preserve">
<g>
	<path fill="#0000FF" d="M9.527,14.194c0.085,0,0.128,0.128,0.128,0.384c0,1.195-0.086,2.304-0.256,3.328   c-0.172,1.024-0.396,2-0.673,2.928c-0.277,0.929-0.655,1.83-1.136,2.705c-0.48,0.874-0.837,1.45-1.072,1.728   c-0.235,0.276-0.464,0.469-0.688,0.575c-0.224,0.107-0.438,0.16-0.64,0.16c-0.203,0-0.39-0.074-0.56-0.224   c-0.171-0.149-0.416-0.592-0.736-1.327c-0.32-0.736-0.544-1.596-0.672-2.576c-0.128-0.981-0.192-2.049-0.192-3.201   c0-1.151,0.096-2.244,0.288-3.279c0.192-1.035,0.368-1.69,0.528-1.968c0.16-0.277,0.352-0.416,0.576-0.416   c0.224,0,0.608,0.123,1.152,0.368c0.544,0.246,0.816,0.528,0.816,0.848s-0.283,0.747-0.848,1.279   c-0.565,0.534-0.976,1.334-1.232,2.4c-0.256,1.067-0.384,2.145-0.384,3.232s0.267,1.632,0.8,1.632c0.277,0,0.645-0.196,1.104-0.592   c0.458-0.395,1.05-1.525,1.776-3.392c0.725-1.867,1.194-3.1,1.407-3.697C9.228,14.494,9.399,14.194,9.527,14.194z M6.999,4.946   c0.256,0,0.458,0.118,0.608,0.352c0.319,0.512,0.629,0.886,0.928,1.12c0.555,0.427,0.874,0.816,0.96,1.168   C9.58,7.938,9.623,8.168,9.623,8.274c0,0.363-0.176,0.64-0.528,0.832C8.743,9.298,8.391,9.395,8.039,9.395   c-0.353,0-0.726-0.069-1.12-0.208C6.524,9.048,6.29,8.894,6.215,8.723c-0.075-0.17-0.112-0.651-0.112-1.44S6.119,5.976,6.151,5.73   c0.032-0.245,0.123-0.437,0.272-0.576C6.572,5.016,6.764,4.946,6.999,4.946z M13.431,18.162c0,0.064-0.069,0.262-0.208,0.592   c-0.139,0.332-0.239,0.614-0.304,0.849c-0.063,0.235-0.096,0.518-0.096,0.849c0,0.33-0.069,0.645-0.208,0.943   c-0.14,0.299-0.229,0.624-0.272,0.977c-0.043,0.352-0.063,0.613-0.063,0.783l0.031,0.416c0,0.47-0.239,0.917-0.72,1.344   c-0.479,0.427-0.992,0.699-1.536,0.816s-0.88,0.203-1.008,0.256s-0.245,0.08-0.352,0.08c-0.107,0-0.16-0.064-0.16-0.191   c0-0.342,0.395-0.908,1.184-1.696c0.277-0.277,0.576-0.704,0.896-1.28c0.319-0.576,0.522-1.099,0.607-1.568   c0.085-0.469,0.192-1.631,0.32-3.488c0.043-0.319,0.181-0.479,0.416-0.479c0.085,0,0.325,0.086,0.72,0.257   c0.395,0.17,0.619,0.277,0.672,0.319C13.404,17.981,13.431,18.057,13.431,18.162z M19.863,10.643c0.49,0,0.997,0.208,1.52,0.624   s0.923,1.104,1.2,2.064s0.416,1.558,0.416,1.792c0,0.363-0.166,0.543-0.496,0.543c-0.331,0-0.603-0.139-0.816-0.416   c-0.213-0.277-0.469-0.539-0.768-0.784c-0.299-0.245-0.496-0.453-0.592-0.624c-0.096-0.17-0.145-0.341-0.145-0.512   c0-0.17,0.106-0.256,0.32-0.256c0.768-0.021,1.152-0.299,1.152-0.832c0-0.235-0.091-0.427-0.272-0.576   c-0.182-0.149-0.416-0.224-0.704-0.224s-0.598,0.08-0.928,0.24c-0.331,0.16-0.56,0.374-0.688,0.64   c-0.129,0.267-0.192,0.64-0.192,1.12s-0.054,0.752-0.16,0.816c-0.107,0.064-0.288,0.107-0.544,0.128   c-1.003,0.128-2.064,0.331-3.184,0.608c-1.12,0.277-1.937,0.544-2.448,0.8c-0.214,0.106-0.422,0.16-0.624,0.16   c-0.203,0-0.459-0.246-0.769-0.736c-0.31-0.491-0.464-0.811-0.464-0.96c0-0.149,0.187-0.293,0.561-0.432   c0.373-0.139,0.8-0.384,1.279-0.736c0.48-0.352,0.886-0.688,1.217-1.008c0.33-0.32,0.564-0.629,0.704-0.928   c0.138-0.298,0.208-0.517,0.208-0.656c0-0.139-0.092-0.224-0.272-0.256c-0.182-0.032-0.48-0.048-0.896-0.048   c-0.415,0-0.768,0.112-1.056,0.336c-0.288,0.224-0.518,0.336-0.688,0.336c-0.171,0-0.363-0.24-0.576-0.72   c-0.214-0.48-0.32-0.848-0.32-1.104s0.032-0.426,0.096-0.512c0.064-0.085,0.149-0.128,0.257-0.128c0.469,0,0.938-0.058,1.407-0.176   c0.47-0.117,0.917-0.192,1.345-0.224c0.426-0.032,0.811-0.112,1.151-0.24c1.473-0.533,2.629-0.837,3.473-0.912   c0.842-0.075,1.487-0.17,1.936-0.288c0.448-0.117,0.848-0.176,1.2-0.176c0.352,0,0.645,0.208,0.88,0.624   c0.234,0.416,0.352,0.779,0.352,1.088c0,0.31-0.037,0.587-0.111,0.832c-0.075,0.245-0.225,0.368-0.448,0.368   s-0.485-0.032-0.784-0.096s-0.747-0.096-1.344-0.096c-0.598,0-1.136,0.064-1.616,0.192c-0.479,0.128-0.811,0.246-0.992,0.352   c-0.182,0.107-0.304,0.272-0.368,0.496c-0.063,0.224-0.202,0.56-0.415,1.008c-0.214,0.448-0.32,0.726-0.32,0.832   c0,0.107,0.085,0.16,0.256,0.16c0.597,0,1.077-0.213,1.44-0.64C18.722,10.931,19.266,10.643,19.863,10.643z M17.015,17.971   c0,0.064-0.031,0.208-0.096,0.432c-0.063,0.225-0.096,0.443-0.096,0.656l0.032,0.641c0,0.447-0.044,0.938-0.129,1.471   c-0.085,0.534-0.181,0.908-0.287,1.121c-0.107,0.213-0.208,0.506-0.305,0.879c-0.096,0.374-0.24,0.662-0.432,0.865   c-0.192,0.201-0.374,0.303-0.544,0.303c-0.171,0-0.315-0.26-0.433-0.783c-0.117-0.522-0.176-1.082-0.176-1.68   s0.026-1.146,0.08-1.648c0.053-0.501,0.08-1.467,0.08-2.896c0-0.256,0.117-0.384,0.353-0.384c0.063,0,0.372,0.102,0.928,0.304   c0.555,0.203,0.864,0.342,0.928,0.416C16.983,17.742,17.015,17.842,17.015,17.971z M18.327,4.531c0,0.427-0.086,0.816-0.256,1.168   C17.9,6.05,17.714,6.227,17.511,6.227s-0.533-0.192-0.992-0.576c-0.459-0.384-0.688-0.864-0.688-1.44s0.074-1.189,0.224-1.84   c0.149-0.65,0.438-0.976,0.864-0.976c0.234,0,0.4,0.139,0.496,0.416c0.096,0.277,0.219,0.555,0.368,0.832   C18.146,3.24,18.327,3.87,18.327,4.531z M27.159,19.73c0.362,0,0.64,0.758,0.832,2.271c0.063,0.513,0.16,0.918,0.288,1.217   s0.202,0.661,0.224,1.088c0.021,0.426,0.08,0.826,0.176,1.199c0.097,0.373,0.145,0.619,0.145,0.736s-0.048,0.209-0.145,0.272   c-0.096,0.063-0.507,0.165-1.231,0.304c-0.726,0.139-1.355,0.229-1.889,0.271s-1.344,0.064-2.432,0.064s-1.771-0.037-2.048-0.111   c-0.277-0.076-0.656-0.412-1.136-1.008c-0.48-0.598-0.859-1.451-1.137-2.561s-0.416-1.855-0.416-2.24   c0-0.384,0.037-0.854,0.112-1.408c0.074-0.555,0.112-1.173,0.112-1.855l-0.032-1.6c0-0.363,0.139-0.545,0.416-0.545   c0.171,0,0.485,0.08,0.944,0.24c0.458,0.16,0.757,0.293,0.896,0.4s0.208,0.24,0.208,0.4c0,0.159-0.08,0.395-0.24,0.703   c-0.159,0.31-0.367,0.902-0.624,1.776c-0.256,0.875-0.384,1.675-0.384,2.399c0,0.727,0.096,1.286,0.288,1.681   s0.373,0.704,0.544,0.928s0.453,0.395,0.848,0.513c0.395,0.116,0.859,0.176,1.393,0.176c0.96,0,1.744-0.112,2.352-0.336   c0.608-0.225,0.997-0.545,1.168-0.961s0.299-1.53,0.385-3.344C26.796,19.955,26.924,19.73,27.159,19.73z" stroke-width="1"/>
</g>
</svg>