<svg xmlns="http://www.w3.org/2000/svg" xmlns:xlink="http://www.w3.org/1999/xlink" version="1.1" id="图层_1" x="0px" y="0px" width="24.808002471923828" height="27.753000259399414" viewBox="1.5709996223449707 0.9899998903274536 24.808002471923828 27.753000259399414" enable-background="new 0 0 30 30" xml:space="preserve">
<g>
	<path fill="#0000FF" d="M11.799,17.074c0,0.385,0.128,0.608,0.384,0.672c0.491,0.086,0.806,0.209,0.944,0.369   c0.139,0.159,0.208,0.404,0.208,0.735s-0.064,0.544-0.192,0.64s-0.341,0.145-0.64,0.145l-0.608-0.032   c-0.171,0-0.287,0.054-0.352,0.16s-0.123,0.55-0.176,1.327c-0.054,0.779-0.08,1.542-0.08,2.289c0,0.746,0.016,1.301,0.048,1.664   c0.032,0.361,0.048,0.564,0.048,0.607c0,1.344-0.182,2.016-0.544,2.016c-0.191,0-0.587-0.182-1.184-0.543   c-0.598-0.363-0.896-0.598-0.896-0.705c0-0.106,0.117-0.213,0.353-0.319c0.234-0.106,0.404-0.32,0.512-0.64   c0.106-0.32,0.16-0.715,0.16-1.185v-0.832l0.032-2.655c0-0.192-0.054-0.289-0.16-0.289c-0.107,0-0.214,0.043-0.32,0.129   C7.97,21.8,6.86,22.6,6.007,23.026c-0.533,0.278-0.949,0.56-1.248,0.849c-0.299,0.287-0.555,0.432-0.768,0.432   c-0.214,0-0.454-0.059-0.72-0.176c-0.267-0.117-0.534-0.256-0.8-0.416c-0.267-0.16-0.4-0.293-0.4-0.4   c0-0.362,0.522-0.704,1.568-1.023c0.277-0.064,0.603-0.251,0.976-0.561c0.373-0.309,0.858-0.641,1.456-0.992   s1.163-0.853,1.696-1.504c0.533-0.65,0.801-1.061,0.801-1.232c0-0.276-0.172-0.395-0.513-0.352s-0.917,0.086-1.728,0.128   c-0.811,0.043-1.333,0.097-1.568,0.16s-0.4,0.097-0.496,0.097c-0.096,0-0.176-0.021-0.24-0.064s-0.171-0.213-0.32-0.512   c-0.149-0.299-0.224-0.513-0.224-0.641s0.096-0.191,0.288-0.191l0.448,0.063c0.213,0,0.725-0.085,1.536-0.256   c0.811-0.171,1.536-0.362,2.176-0.576c0.641-0.213,1.099-0.356,1.376-0.432c0.277-0.075,0.464-0.176,0.561-0.304   c0.096-0.128,0.144-0.331,0.144-0.608l-0.063-0.896c0-0.277,0.096-0.416,0.288-0.416c0.191,0,0.474,0.059,0.848,0.176   c0.373,0.118,0.597,0.219,0.672,0.304c0.074,0.085,0.112,0.267,0.112,0.544c0,0.277,0.026,0.432,0.08,0.464   c0.053,0.032,0.133,0.048,0.239,0.048c0.363,0,0.544,0.224,0.544,0.672c0,0.363-0.181,0.64-0.544,0.832   C11.927,16.393,11.799,16.67,11.799,17.074z M5.911,9.491c0,0.171-0.032,0.336-0.096,0.496c-0.064,0.16-0.096,0.368-0.096,0.624   c0,0.256,0.027,0.448,0.08,0.576s0.08,0.267,0.08,0.416c0,0.405-0.213,0.608-0.64,0.608c-0.128,0-0.485-0.069-1.072-0.208   c-0.587-0.138-0.88-0.357-0.88-0.656c0-0.128,0.096-0.309,0.288-0.544c0.192-0.235,0.464-0.555,0.816-0.96   c0.352-0.405,0.576-0.64,0.672-0.704s0.229-0.096,0.4-0.096C5.762,9.042,5.911,9.192,5.911,9.491z M17.783,5.907   c1.983,0,3.402,0.16,4.256,0.48c0.853,0.32,1.706,1.141,2.56,2.464s1.28,2.176,1.28,2.56c0,0.555-0.598,0.832-1.792,0.832   c-0.896,0-2.027-0.149-3.392-0.448c-0.171-0.042-0.336-0.064-0.496-0.064s-0.379,0.054-0.656,0.16   c-0.277,0.107-0.491,0.16-0.64,0.16c-0.769,0-1.27-0.608-1.504-1.824c-0.043-0.341-0.155-0.8-0.336-1.376   c-0.182-0.576-0.315-0.922-0.4-1.04c-0.086-0.117-0.203-0.176-0.353-0.176c-0.49,0-0.757,0.278-0.8,0.832   c-0.085,1.046-0.191,1.92-0.319,2.624c-0.128,0.704-0.235,1.136-0.32,1.296c-0.086,0.16-0.262,0.283-0.528,0.368   c-0.267,0.085-0.555,0.128-0.864,0.128c-0.309,0-0.49-0.181-0.544-0.544c-0.053-0.362-0.079-1.44-0.079-3.232   c0-0.17-0.054-0.298-0.16-0.384c-0.107-0.085-0.22-0.106-0.336-0.064c-0.118,0.043-0.353,0.064-0.704,0.064   c-0.353,0-0.587,0.128-0.704,0.384c-0.118,0.256-0.176,0.534-0.176,0.832c0,0.299,0.031,0.512,0.096,0.64   c0.063,0.128,0.096,0.288,0.096,0.48s-0.043,0.374-0.128,0.544c-0.085,0.171-0.288,0.352-0.607,0.544   c-0.32,0.192-0.716,0.341-1.185,0.448c-0.47,0.107-0.779,0.16-0.928,0.16c-0.149,0-0.225-0.042-0.225-0.128   c0-0.085,0.102-0.325,0.305-0.72c0.202-0.395,0.399-0.747,0.592-1.056c0.192-0.309,0.288-0.677,0.288-1.104   S9.031,9.038,8.935,8.898C8.839,8.76,8.631,8.69,8.311,8.69L7.415,8.754c-0.192,0-0.336-0.048-0.432-0.144   C6.887,8.515,6.839,8.397,6.839,8.258c0-0.138,0.192-0.288,0.576-0.448c0.384-0.16,0.912-0.277,1.584-0.352   c0.672-0.075,1.381-0.203,2.128-0.384c0.746-0.181,1.227-0.288,1.44-0.32c0.213-0.032,0.346-0.288,0.399-0.768   c0.053-0.48,0.08-0.832,0.08-1.056c0-0.224-0.096-0.363-0.288-0.416c-0.191-0.053-0.527-0.08-1.008-0.08s-0.806,0.064-0.976,0.192   c-0.064,0.043-0.14,0.064-0.225,0.064c-0.277,0-0.453-0.117-0.527-0.352C9.948,4.104,9.81,3.784,9.607,3.378   c-0.203-0.405-0.305-0.65-0.305-0.736c0-0.234,0.262-0.352,0.784-0.352s1.797-0.096,3.824-0.288c2.026-0.192,3.307-0.325,3.84-0.4   c0.533-0.075,0.858-0.112,0.976-0.112s0.197,0.075,0.24,0.224c0.043,0.15,0.064,0.357,0.064,0.624c0,0.267-0.048,0.448-0.145,0.544   c-0.096,0.096-0.379,0.278-0.848,0.544c-0.47,0.267-0.843,0.443-1.12,0.528c-0.277,0.085-0.496,0.176-0.656,0.272   s-0.277,0.341-0.352,0.736c-0.075,0.395-0.112,0.694-0.112,0.896c0,0.203,0.128,0.283,0.384,0.24   C16.993,5.971,17.527,5.907,17.783,5.907z M22.359,14.771c0,0.128-0.032,0.304-0.097,0.528c-0.063,0.224-0.096,0.582-0.096,1.073   c0,0.49-0.048,1.019-0.144,1.584c-0.097,0.564-0.145,1.541-0.145,2.928l0.032,2.08c0,1.365-0.017,2.517-0.048,3.455   c-0.032,0.939-0.069,1.479-0.112,1.617s-0.123,0.207-0.24,0.207s-0.352-0.123-0.704-0.367c-0.352-0.246-1.573-1.223-3.664-2.929   c-0.191-0.128-0.395-0.192-0.607-0.192c-0.684,0-1.163,0.277-1.44,0.832c-0.085,0.192-0.191,0.289-0.319,0.289   c-0.278,0-0.544-0.391-0.801-1.168c-0.256-0.779-0.384-2.256-0.384-4.433c0-0.917,0.037-1.92,0.112-3.008   c0.074-1.088,0.133-1.744,0.176-1.968c0.043-0.224,0.117-0.373,0.224-0.448c0.107-0.075,0.32-0.128,0.641-0.16   c0.32-0.032,0.933-0.149,1.84-0.352c0.906-0.202,1.52-0.357,1.84-0.464c0.32-0.106,0.693-0.16,1.12-0.16s0.954,0.075,1.584,0.224   c0.629,0.149,0.992,0.277,1.088,0.384S22.359,14.579,22.359,14.771z M19.447,24.179l-0.064-1.024c-0.021-0.426-0.021-0.98,0-1.664   v-1.76c0-2.197-0.085-3.557-0.256-4.08c-0.171-0.522-0.485-0.784-0.944-0.784s-0.971,0.123-1.535,0.368   c-0.566,0.246-0.849,0.604-0.849,1.072c0,0.256,0.171,0.363,0.512,0.32c0.342-0.043,0.635-0.064,0.881-0.064   c0.244,0,0.416,0.069,0.512,0.208c0.096,0.14,0.144,0.405,0.144,0.8s-0.267,0.646-0.8,0.752c-0.235,0.043-0.518,0.15-0.848,0.32   c-0.331,0.171-0.496,0.422-0.496,0.752c0,0.331,0.165,0.453,0.496,0.368c0.33-0.085,0.629-0.128,0.896-0.128   s0.438,0.048,0.513,0.144c0.074,0.097,0.111,0.267,0.111,0.513c0,0.245-0.096,0.453-0.288,0.623   c-0.191,0.172-0.65,0.396-1.376,0.672c-0.319,0.086-0.479,0.289-0.479,0.608c0,0.47,0.202,0.667,0.607,0.593   c0.405-0.075,0.752-0.113,1.04-0.113s0.464,0.08,0.528,0.24s0.085,0.348,0.064,0.561v0.288c0,0.192,0.021,0.356,0.063,0.495   s0.102,0.235,0.176,0.289c0.075,0.053,0.203,0.111,0.385,0.176c0.181,0.064,0.346,0.096,0.495,0.096   C19.276,24.818,19.447,24.605,19.447,24.179z M20.855,11.25c0.256,0,0.549-0.085,0.88-0.256c0.33-0.17,0.592-0.368,0.783-0.592   c0.192-0.224,0.288-0.506,0.288-0.848c0-0.789-0.304-1.413-0.912-1.872c-0.607-0.458-1.242-0.688-1.903-0.688   c-0.277,0-0.47,0.16-0.576,0.48c-0.171,0.491-0.357,0.87-0.56,1.136c-0.203,0.267-0.305,0.55-0.305,0.848   c0,0.598,0.32,0.992,0.96,1.184c0.256,0.107,0.496,0.235,0.721,0.384C20.455,11.176,20.663,11.25,20.855,11.25z" stroke-width="1"/>
</g>
</svg>