<svg xmlns="http://www.w3.org/2000/svg" xmlns:xlink="http://www.w3.org/1999/xlink" version="1.1" id="图层_1" x="0px" y="0px" width="26.537002563476562" height="30.69600486755371" viewBox="0.11399650573730469 -0.13500022888183594 26.537002563476562 30.69600486755371" style="enable-background:new 0 0 30 30;" xml:space="preserve">
  <g>
    <g>
      <path style="fill:#0000FF;" d="M24.742,4.813c0.256,0,0.453,0.075,0.592,0.224c0.139,0.149,0.309,0.512,0.512,1.088&#13;&#10;&#9;&#9;c0.203,0.576,0.305,1.115,0.305,1.616c0,0.501-0.171,0.752-0.513,0.752c-0.171,0-0.416-0.085-0.735-0.256&#13;&#10;&#9;&#9;c-0.812-0.469-1.654-0.704-2.528-0.704c-0.875,0-1.867,0.118-2.976,0.352c-1.11,0.235-1.713,0.443-1.809,0.624&#13;&#10;&#9;&#9;c-0.096,0.182-0.187,0.635-0.271,1.36c-0.086,0.726-0.128,1.179-0.128,1.36c0,0.182,0.031,0.304,0.096,0.368&#13;&#10;&#9;&#9;c0.063,0.064,0.213,0.085,0.448,0.064c1.066-0.106,1.914-0.16,2.544-0.16c0.629,0,1.407,0.176,2.336,0.528&#13;&#10;&#9;&#9;c0.928,0.352,1.444,0.56,1.552,0.624c0.106,0.064,0.16,0.166,0.16,0.304c0,0.139-0.064,0.262-0.192,0.368&#13;&#10;&#9;&#9;c-0.319,0.32-0.479,0.806-0.479,1.456c0,0.651-0.235,1.696-0.704,3.135c-0.47,1.441-0.843,2.385-1.12,2.832&#13;&#10;&#9;&#9;c-0.277,0.449-0.475,0.849-0.592,1.201c-0.118,0.352-0.288,0.527-0.513,0.527c-0.224,0-0.495-0.068-0.815-0.208&#13;&#10;&#9;&#9;c-0.32-0.138-0.544-0.229-0.672-0.272c-0.513-0.148-1.291-0.607-2.336-1.375c-0.064-0.043-0.123-0.064-0.177-0.064&#13;&#10;&#9;&#9;c-0.053,0-0.101,0.054-0.144,0.16c-0.043,0.107-0.096,0.438-0.16,0.992c-0.063,0.555-0.096,1.141-0.096,1.76&#13;&#10;&#9;&#9;s0.059,1.707,0.176,3.264s0.176,2.443,0.176,2.656s-0.059,0.379-0.176,0.496s-0.384,0.176-0.8,0.176s-0.678-0.064-0.784-0.191&#13;&#10;&#9;&#9;c-0.107-0.129-0.16-0.305-0.16-0.529c0-0.223,0.017-0.458,0.048-0.703c0.032-0.246,0.049-0.646,0.049-1.2s-0.107-2.224-0.32-5.008&#13;&#10;&#9;&#9;c-0.214-2.784-0.342-5.509-0.384-8.176c0-0.384-0.07-0.576-0.208-0.576c-0.14,0-0.465,0.107-0.977,0.32&#13;&#10;&#9;&#9;c-0.512,0.213-0.815,0.39-0.912,0.528c-0.096,0.139-0.191,0.48-0.288,1.024c-0.096,0.544-0.144,1.003-0.144,1.376&#13;&#10;&#9;&#9;c0,0.374,0.042,0.944,0.128,1.712c0.085,0.768,0.128,1.184,0.128,1.248c0,0.363-0.096,0.607-0.288,0.736&#13;&#10;&#9;&#9;c-0.191,0.127-0.363,0.191-0.512,0.191c-0.427,0-0.843-0.544-1.248-1.632s-0.693-2.442-0.864-4.064&#13;&#10;&#9;&#9;c-0.063-0.491-0.165-0.736-0.304-0.736s-0.4,0.277-0.784,0.832s-0.598,0.928-0.64,1.119c-0.128,0.619-0.299,1.047-0.513,1.281&#13;&#10;&#9;&#9;c-0.213,0.234-0.843,0.581-1.888,1.039c-1.045,0.459-1.819,0.688-2.32,0.688c-0.501,0-0.944-0.054-1.328-0.16&#13;&#10;&#9;&#9;c-0.384-0.106-0.576-0.229-0.576-0.368s0.192-0.357,0.576-0.656c0.384-0.298,1.515-0.938,3.392-1.92&#13;&#10;&#9;&#9;c0.555-0.277,1.114-0.688,1.68-1.231s1.35-1.456,2.353-2.736c1.002-1.28,1.616-2.085,1.84-2.416&#13;&#10;&#9;&#9;c0.224-0.331,0.336-0.533,0.336-0.608c0-0.074-0.043-0.123-0.128-0.144C10.576,9.08,10.246,9.048,9.67,9.005&#13;&#10;&#9;&#9;C9.094,8.962,8.673,8.941,8.406,8.941c-0.268,0-0.502,0.048-0.704,0.144C7.499,9.181,7.12,9.245,6.566,9.277&#13;&#10;&#9;&#9;c-0.556,0.032-0.956,0.176-1.2,0.432c-0.246,0.256-0.486,0.384-0.72,0.384c-0.235,0-0.454-0.325-0.656-0.976&#13;&#10;&#9;&#9;c-0.203-0.65-0.304-1.173-0.304-1.568c0-0.395,0.213-0.592,0.64-0.592L6.47,7.053c0.341,0,0.891-0.042,1.648-0.128&#13;&#10;&#9;&#9;c0.757-0.085,1.664-0.16,2.72-0.224s1.664-0.149,1.824-0.256c0.16-0.106,0.57-0.827,1.231-2.16c0.661-1.333,1.142-2.448,1.44-3.344&#13;&#10;&#9;&#9;c0.149-0.384,0.304-0.576,0.464-0.576s0.353,0.059,0.576,0.176c0.224,0.118,0.459,0.208,0.704,0.272s0.368,0.15,0.368,0.256&#13;&#10;&#9;&#9;c0,0.107-0.08,0.288-0.24,0.544s-0.411,0.779-0.752,1.568c-0.342,0.79-0.656,1.435-0.944,1.936&#13;&#10;&#9;&#9;c-0.288,0.501-0.432,0.79-0.432,0.864c0,0.075,0.042,0.112,0.128,0.112c0.085,0,0.821-0.128,2.208-0.384&#13;&#10;&#9;&#9;c1.387-0.256,2.437-0.437,3.152-0.544c0.714-0.106,1.407-0.16,2.08-0.16c0.672,0,1.156-0.032,1.455-0.096&#13;&#10;&#9;&#9;S24.614,4.813,24.742,4.813z M10.342,12.876c0.341,0,0.741-0.058,1.2-0.176c0.459-0.117,1.146-0.261,2.064-0.432&#13;&#10;&#9;&#9;c0.426-0.085,0.64-0.341,0.64-0.768l0.032-0.832c0-0.618-0.021-1.04-0.064-1.264s-0.213-0.336-0.512-0.336&#13;&#10;&#9;&#9;s-0.496,0.043-0.592,0.128c-0.097,0.085-0.357,0.395-0.784,0.928c-0.427,0.534-0.896,1.088-1.408,1.664&#13;&#10;&#9;&#9;c-0.512,0.576-0.768,0.902-0.768,0.976C10.15,12.84,10.214,12.876,10.342,12.876z M20.198,15.053c0-0.704-0.188-1.253-0.561-1.648&#13;&#10;&#9;&#9;c-0.373-0.395-0.827-0.592-1.359-0.592c-0.534,0-0.854,0.032-0.96,0.096c-0.107,0.064-0.16,0.235-0.16,0.512&#13;&#10;&#9;&#9;s-0.043,1.035-0.128,2.272l-0.256,3.232c0,0.277,0.128,0.464,0.384,0.56s0.527,0.145,0.815,0.145s0.613-0.037,0.977-0.112&#13;&#10;&#9;&#9;c0.362-0.074,0.603-0.325,0.72-0.752s0.234-0.976,0.353-1.647C20.139,16.445,20.198,15.757,20.198,15.053z" stroke-width="1"/>
    </g>
    <g/>
    <g/>
    <g/>
    <g/>
    <g/>
    <g/>
    <g/>
    <g/>
    <g/>
    <g/>
    <g/>
    <g/>
    <g/>
    <g/>
    <g/>
  </g>
</svg>