<svg xmlns="http://www.w3.org/2000/svg" xmlns:xlink="http://www.w3.org/1999/xlink" version="1.1" id="图层_1" x="0px" y="0px" width="26.37900161743164" height="25.545001983642578" viewBox="0.6089982986450195 1.6629998683929443 26.37900161743164 25.545001983642578" enable-background="new 0 0 30 30" xml:space="preserve">
<g>
	<path fill="#0000FF" d="M12.279,9.555c0.49,0,0.735,0.405,0.735,1.216c0,0.277-0.213,0.576-0.64,0.896   c-0.832,0.576-1.302,0.923-1.408,1.04c-0.106,0.118-0.16,0.357-0.16,0.72c0,0.235,0.106,0.438,0.32,0.608   c0.618,0.405,0.928,0.8,0.928,1.184c0,0.149-0.074,0.367-0.224,0.656c-0.149,0.287-0.379,0.447-0.688,0.479   s-0.501,0.134-0.575,0.304c-0.075,0.172-0.145,0.748-0.208,1.729c-0.064,0.981-0.097,2.123-0.097,3.424s0.011,2.251,0.032,2.848   l0.032,1.408c0,0.427-0.107,0.641-0.32,0.641s-0.555-0.112-1.023-0.336c-0.47-0.225-0.752-0.4-0.849-0.529   c-0.096-0.127-0.144-0.282-0.144-0.463c0-0.182,0.053-0.342,0.16-0.48c0.106-0.139,0.181-0.395,0.224-0.768   s0.074-1.211,0.096-2.512l0.064-3.521c0-0.213-0.048-0.32-0.145-0.32c-0.096,0-0.208,0.054-0.336,0.16   c-1.621,1.472-2.901,2.491-3.84,3.056c-0.939,0.566-1.579,0.848-1.92,0.848c-0.149,0-0.384-0.074-0.704-0.223   c-0.32-0.149-0.48-0.31-0.48-0.48c0-0.17,0.469-0.598,1.408-1.28c1.749-1.259,3.002-2.432,3.76-3.521   c0.757-1.087,1.136-1.796,1.136-2.127c0-0.331-0.188-0.496-0.56-0.496c-0.374,0-0.704,0.059-0.992,0.176   c-0.288,0.117-0.709,0.389-1.264,0.816c-0.107,0.085-0.246,0.128-0.416,0.128c-0.171,0-0.336-0.096-0.496-0.288   s-0.277-0.501-0.352-0.928c-0.075-0.427-0.171-0.779-0.288-1.056c-0.117-0.277-0.176-0.491-0.176-0.64   c0-0.32,0.213-0.512,0.64-0.576c0.704-0.085,1.466-0.213,2.288-0.384c0.821-0.17,1.376-0.314,1.664-0.432s0.549-0.208,0.784-0.272   c0.234-0.064,0.389-0.17,0.464-0.32c0.074-0.149,0.154-0.901,0.24-2.256C9.036,6.328,9.143,5.16,9.271,4.179   c0.129-0.981,0.262-1.563,0.4-1.744c0.139-0.181,0.272-0.272,0.4-0.272s0.389,0.075,0.784,0.224   c0.394,0.149,0.592,0.299,0.592,0.448c0,0.149-0.032,0.299-0.097,0.448c-0.277,0.832-0.416,1.973-0.416,3.424   c0,1.451,0.011,2.293,0.032,2.528c0.021,0.235,0.245,0.352,0.672,0.352L12.279,9.555z M24.951,10.387   c0.298,0,0.522,0.235,0.672,0.704c0.171,0.534,0.357,0.998,0.56,1.392c0.203,0.395,0.305,0.656,0.305,0.784   c0,0.299-0.225,0.448-0.672,0.448c-0.129,0-0.443-0.042-0.944-0.128c-0.502-0.085-0.923-0.128-1.264-0.128   c-0.342,0-0.801,0.08-1.376,0.24c-0.576,0.16-1.035,0.277-1.376,0.352c-0.342,0.075-0.588,0.395-0.736,0.96   c-0.149,0.565-0.225,1.046-0.225,1.44s0.097,0.592,0.288,0.592c1.451,0.043,2.465,0.123,3.04,0.24   c0.576,0.117,1.083,0.341,1.521,0.672c0.437,0.33,0.656,0.576,0.656,0.735c0,0.16-0.054,0.283-0.16,0.368   c-0.342,0.256-0.587,0.604-0.736,1.04c-0.149,0.438-0.314,0.87-0.496,1.296c-0.182,0.427-0.31,0.684-0.384,0.768   c-0.075,0.086-0.139,0.235-0.192,0.448c-0.053,0.214-0.08,0.427-0.08,0.64l0.032,0.576c0,0.256-0.054,0.438-0.16,0.545   c-0.106,0.105-0.341,0.181-0.704,0.224c-2.091,0.213-3.429,0.362-4.016,0.448c-0.587,0.084-0.955,0.186-1.104,0.304   c-0.15,0.116-0.283,0.176-0.4,0.176s-0.4-0.187-0.848-0.56c-0.448-0.374-0.784-0.748-1.009-1.121   c-0.224-0.372-0.565-1.204-1.023-2.495c-0.459-1.29-0.688-2.032-0.688-2.224c0-0.47,0.427-0.779,1.28-0.929   c0.938-0.128,1.621-0.512,2.048-1.151c0.427-0.641,0.641-1.259,0.641-1.856c0-0.405-0.15-0.608-0.448-0.608   c-0.79,0-1.579,0.246-2.368,0.736c-0.214,0.128-0.363,0.191-0.448,0.191c-0.213,0-0.479-0.356-0.8-1.071   c-0.32-0.714-0.479-1.163-0.479-1.344c0-0.181,0.058-0.304,0.176-0.368c0.117-0.064,0.368-0.096,0.752-0.096   c0.576,0,1.396-0.112,2.464-0.336c1.066-0.224,1.632-0.432,1.696-0.624c0.063-0.192,0.229-1.344,0.496-3.456   c0.266-2.112,0.442-3.723,0.527-4.832c0.043-0.469,0.256-0.704,0.641-0.704c0.191,0,0.447,0.091,0.768,0.272   c0.32,0.182,0.683,0.342,1.088,0.48s0.608,0.299,0.608,0.48s-0.091,0.384-0.272,0.608c-0.182,0.224-0.432,0.901-0.752,2.032   c-0.32,1.131-0.479,1.984-0.479,2.56l-0.097,1.888c0,0.171,0.085,0.256,0.256,0.256c1.387-0.17,2.39-0.357,3.009-0.56   C24.354,10.488,24.759,10.387,24.951,10.387z M17.847,22.707c0.277,0,0.73-0.069,1.36-0.209c0.629-0.139,1.099-0.336,1.408-0.592   c0.309-0.256,0.464-0.682,0.464-1.279c0-0.939-0.374-1.408-1.12-1.408c-1.003,0-1.792,0.182-2.368,0.544s-0.864,0.8-0.864,1.312   c0,0.214,0.075,0.539,0.225,0.977C17.1,22.488,17.399,22.707,17.847,22.707z" stroke-width="1"/>
</g>
</svg>