<svg xmlns="http://www.w3.org/2000/svg" xmlns:xlink="http://www.w3.org/1999/xlink" version="1.1" id="图层_1" x="0px" y="0px" width="24.42799949645996" height="21.99200439453125" viewBox="1.794999361038208 3.7100000381469727 24.42799949645996 21.99200439453125" enable-background="new 0 0 30 30" xml:space="preserve">
<g>
	<path fill="#0000FF" d="M9.143,14.323c0,1.343-0.362,3.061-1.088,5.152s-1.418,3.436-2.08,4.031   c-0.384,0.342-0.683,0.673-0.896,0.992c-0.213,0.32-0.4,0.48-0.56,0.48s-0.363-0.145-0.608-0.432   c-0.246-0.289-0.518-0.789-0.816-1.504c-0.299-0.715-0.507-1.44-0.624-2.176c-0.118-0.736-0.176-1.766-0.176-3.089   c0-2.432,0.123-4.005,0.368-4.72c0.245-0.714,0.56-1.072,0.944-1.072c0.17,0,0.506,0.134,1.008,0.4   c0.501,0.267,0.752,0.491,0.752,0.672c0,0.182-0.182,0.518-0.544,1.008c-1.195,1.621-1.792,3.436-1.792,5.439   c0,0.812,0.112,1.44,0.336,1.889c0.224,0.447,0.528,0.672,0.912,0.672c0.789,0,1.643-0.934,2.56-2.8   c0.917-1.866,1.482-3.546,1.696-5.04c0.148-1.002,0.288-1.504,0.416-1.504S9.143,13.256,9.143,14.323z M6.295,4.21   c0.128,0,0.331,0.187,0.608,0.56C7.18,5.144,7.548,5.773,8.007,6.659s0.688,1.445,0.688,1.68c0,0.406-0.502,0.608-1.504,0.608   c-0.555,0-1.036-0.122-1.44-0.368C5.346,8.333,5.143,7.88,5.143,7.219c0-1.024,0.026-1.653,0.08-1.888   c0.053-0.234,0.208-0.48,0.464-0.736C5.943,4.338,6.146,4.21,6.295,4.21z M12.823,15.891c0-0.234,0.053-0.432,0.16-0.592   c0.106-0.16,0.261-0.24,0.464-0.24c0.202,0,0.522,0.048,0.96,0.144c0.437,0.096,0.688,0.187,0.752,0.272   c0.063,0.086,0.096,0.203,0.096,0.352c0,0.15-0.011,0.32-0.032,0.512c-0.128,0.748-0.191,1.654-0.191,2.721s0.037,1.707,0.111,1.92   c0.075,0.213,0.262,0.32,0.561,0.32s0.512-0.069,0.64-0.209c0.128-0.138,0.251-0.527,0.368-1.168   c0.117-0.639,0.176-1.29,0.176-1.951s0.059-1.254,0.177-1.776c0.116-0.522,0.176-0.944,0.176-1.264l-0.064-0.416   c0-0.277,0.171-0.416,0.512-0.416c0.342,0,0.769,0.069,1.28,0.208s0.769,0.336,0.769,0.592c0,0.107-0.032,0.246-0.097,0.416   c-0.063,0.171-0.133,0.496-0.208,0.977c-0.074,0.479-0.111,0.891-0.111,1.231c0,0.342,0.09,0.513,0.271,0.513   s0.629-0.39,1.344-1.168c0.715-0.779,1.157-1.275,1.328-1.489c0.171-0.213,0.363-0.32,0.576-0.32s0.464,0.112,0.752,0.336   c0.288,0.225,0.433,0.432,0.433,0.624s-0.182,0.421-0.545,0.688c-0.362,0.267-0.938,0.746-1.728,1.439s-1.483,1.189-2.08,1.488   c-0.491,0.299-0.736,0.672-0.736,1.119c0,0.172,0.085,0.305,0.257,0.4c0.17,0.096,0.564,0.145,1.184,0.145   c1.109,0,2.059-0.117,2.848-0.353c0.171-0.042,0.342-0.063,0.513-0.063c0.426,0,0.72,0.191,0.88,0.576   c0.16,0.383,0.384,0.811,0.672,1.279c0.288,0.47,0.432,0.844,0.432,1.12c0,0.405-0.213,0.608-0.64,0.608   c-0.192,0-0.453-0.075-0.784-0.225c-0.331-0.148-1.35-0.336-3.056-0.56c-1.707-0.224-2.987-0.336-3.84-0.336   c-0.854,0-2.049,0.085-3.584,0.256c-1.536,0.171-2.673,0.353-3.408,0.544c-0.736,0.191-1.195,0.416-1.376,0.672   c-0.182,0.256-0.336,0.385-0.464,0.385S8.284,25,8.103,24.595c-0.181-0.405-0.271-0.704-0.271-0.896   c0-0.193,0.181-0.31,0.544-0.353c0.362-0.042,1.152-0.24,2.368-0.593c1.216-0.352,1.931-0.617,2.144-0.799s0.32-0.48,0.32-0.896   s-0.043-0.869-0.128-1.359c-0.086-0.491-0.203-0.736-0.353-0.736s-0.715,0.33-1.695,0.992c-0.342,0.234-0.641,0.352-0.896,0.352   s-0.464-0.17-0.624-0.512s-0.24-0.641-0.24-0.896c0-0.447,0.235-0.672,0.704-0.672l0.448,0.031c0.299,0,0.726-0.111,1.28-0.336   c0.555-0.223,0.88-0.404,0.976-0.543c0.097-0.139,0.145-0.368,0.145-0.688V15.891z M19.319,4.499c1.236,0,2.276,0.246,3.12,0.736   c0.842,0.491,1.264,0.859,1.264,1.104c0,0.246-0.155,0.603-0.464,1.072c-0.31,0.469-0.998,1.931-2.064,4.384   c-0.256,0.64-0.491,1.099-0.704,1.376c-0.213,0.278-0.411,0.416-0.592,0.416c-0.182,0-0.373-0.026-0.576-0.08   c-0.203-0.053-0.336-0.101-0.399-0.144c-0.342-0.192-0.678-0.288-1.009-0.288c-0.33,0-0.885,0.053-1.663,0.16   c-0.779,0.107-1.456,0.288-2.032,0.544c-0.064,0.043-0.171,0.064-0.32,0.064s-0.325-0.085-0.528-0.256   c-0.202-0.17-0.331-0.4-0.384-0.688c-0.054-0.288-0.229-0.65-0.527-1.088c-0.3-0.437-0.539-0.928-0.721-1.472   s-0.325-1.232-0.432-2.064c-0.107-0.832-0.16-1.413-0.16-1.744s0.101-0.571,0.304-0.72c0.203-0.149,1.217-0.405,3.04-0.768   C16.295,4.68,17.911,4.499,19.319,4.499z M14.935,11.603c0.427,0,0.944-0.059,1.553-0.176c0.607-0.117,1.088-0.192,1.439-0.224   c0.353-0.032,0.641-0.181,0.864-0.448c0.224-0.267,0.437-0.757,0.64-1.472s0.305-1.365,0.305-1.952   c0-0.586-0.257-0.992-0.769-1.216c-0.512-0.224-1.077-0.336-1.696-0.336c-0.618,0-1.45,0.278-2.495,0.832   c-1.046,0.555-1.568,1.408-1.568,2.56c0,0.534,0.091,1.003,0.271,1.408c0.182,0.405,0.353,0.677,0.513,0.816   C14.151,11.534,14.466,11.603,14.935,11.603z M17.783,7.699c0.128,0,0.245,0.069,0.352,0.208s0.16,0.32,0.16,0.544   c0,0.224-0.165,0.469-0.496,0.736c-0.331,0.267-0.821,0.491-1.472,0.672c-0.651,0.182-1.083,0.272-1.296,0.272   c-0.214,0-0.39-0.176-0.528-0.528S14.295,9,14.295,8.851c0-0.491,0.448-0.736,1.344-0.736c0.171,0,0.501-0.069,0.992-0.208   C17.121,7.768,17.506,7.699,17.783,7.699z" stroke-width="1"/>
</g>
</svg>