<svg xmlns="http://www.w3.org/2000/svg" xmlns:xlink="http://www.w3.org/1999/xlink" version="1.1" id="图层_1" x="0px" y="0px" width="28.58200454711914" height="24.904001235961914" viewBox="1.252995252609253 3.00600004196167 28.58200454711914 24.904001235961914" enable-background="new 0 0 30 30" xml:space="preserve">
<g>
	<path fill="#0000FF" d="M29.335,25.555c0,0.191-0.155,0.33-0.464,0.416c-0.31,0.085-0.533,0.213-0.672,0.384   c-0.14,0.171-0.357,0.298-0.656,0.384s-1.072,0.219-2.32,0.4s-2.111,0.271-2.592,0.271c-0.479,0-0.795-0.021-0.944-0.064   s-0.287-0.063-0.416-0.063l-0.447,0.096c-0.342,0-0.63-0.289-0.864-0.864c-0.363-0.875-1.126-1.568-2.288-2.08   c-1.163-0.513-2.587-0.769-4.271-0.769c-0.576,0-1.126,0.027-1.648,0.08c-0.523,0.054-0.955,0.08-1.296,0.08   c-0.342,0-0.661-0.053-0.96-0.16c-0.619-0.213-1.547-0.319-2.784-0.319c-1.558,0-2.646,0.159-3.264,0.479   c-0.192,0.107-0.331,0.16-0.416,0.16c-0.213,0-0.48-0.314-0.8-0.943s-0.48-1.072-0.48-1.328c0-0.385,0.213-0.576,0.64-0.576   c0.106,0,0.256,0.027,0.448,0.08s0.491,0.08,0.896,0.08l1.344-0.096c1.045-0.064,1.568-0.129,1.568-0.192   c0-0.064-0.032-0.117-0.096-0.16c-0.469-0.405-0.907-0.88-1.312-1.424s-0.747-1.104-1.024-1.681s-0.459-1.082-0.544-1.52   c-0.085-0.438-0.128-0.763-0.128-0.976v-0.544c0-0.298-0.011-0.501-0.032-0.608c-0.022-0.106-0.032-0.192-0.032-0.256   c0-0.234,0.144-0.352,0.432-0.352s0.778,0.091,1.472,0.272s1.099,0.315,1.216,0.4c0.117,0.085,0.176,0.24,0.176,0.464   s-0.192,0.528-0.576,0.913c-0.32,0.319-0.48,0.703-0.48,1.151c0,1.174,0.651,2.177,1.952,3.009c0.64,0.404,1.109,0.789,1.408,1.151   c0.106,0.106,0.293,0.182,0.56,0.224c0.267,0.043,0.635,0.15,1.104,0.32c1.301,0.47,2.73,0.704,4.288,0.704   c1.387,0,3.082,0.448,5.088,1.344c0.384,0.171,1.29,0.31,2.72,0.416c2.646,0.171,4.389,0.427,5.232,0.769   C28.913,24.967,29.335,25.277,29.335,25.555z M5.143,6.035c0.192,0,0.331,0.128,0.416,0.384c0.085,0.32,0.437,0.704,1.056,1.152   c0.811,0.598,1.216,1.211,1.216,1.84c0,0.629-0.512,0.944-1.536,0.944c-0.598,0-1.12-0.16-1.568-0.48   c-0.448-0.32-0.672-1.056-0.672-2.208c0-0.512,0.133-0.912,0.4-1.2C4.722,6.179,4.951,6.035,5.143,6.035z M20.311,8.243   c0.235,0,0.522,0.213,0.864,0.64c0.341,0.427,0.512,0.859,0.512,1.296c0,0.438-0.053,0.709-0.159,0.816   c-0.107,0.107-0.331,0.16-0.672,0.16c-1.004,0-1.942,0.102-2.816,0.304c-0.875,0.203-1.397,0.379-1.568,0.528   c-0.405,0.384-0.832,0.992-1.279,1.824c-0.854,1.579-1.323,2.561-1.408,2.943c-0.128,0.705-0.656,1.281-1.584,1.729   c-0.929,0.448-1.563,0.672-1.904,0.672c-0.342,0-0.661-0.031-0.96-0.096s-0.448-0.165-0.448-0.305c0-0.138,0.16-0.361,0.48-0.672   c0.319-0.309,0.597-0.538,0.832-0.688c1.365-0.875,2.33-1.781,2.896-2.72c0.565-0.938,0.849-1.578,0.849-1.92   c0-0.064-0.038-0.096-0.112-0.096c-0.075,0-0.443,0.107-1.104,0.32c-0.661,0.213-1.071,0.368-1.231,0.464   c-0.16,0.096-0.304,0.144-0.432,0.144c-0.32,0-0.576-0.298-0.769-0.896c-0.021-0.064-0.106-0.197-0.256-0.4   c-0.149-0.203-0.224-0.405-0.224-0.608c0-0.203,0.116-0.363,0.352-0.48c0.234-0.117,0.704-0.229,1.408-0.336   c0.704-0.106,1.205-0.224,1.504-0.352c1.002-0.427,2.389-0.912,4.16-1.456C19.01,8.515,20.033,8.243,20.311,8.243z M18.839,3.506   c0.32,0,0.528,0.059,0.624,0.176s0.145,0.357,0.145,0.72c0,0.363-0.021,0.619-0.064,0.768C19.5,5.32,19.218,5.672,18.695,6.227   c-0.523,0.555-0.981,0.955-1.376,1.2c-0.396,0.245-0.752,0.368-1.072,0.368l-0.384-0.032c-0.235,0-0.523,0.032-0.864,0.096   c-0.342,0.064-0.555,0.128-0.64,0.192c-0.086,0.064-0.203,0.096-0.353,0.096s-0.32-0.16-0.512-0.48l-0.64-1.12   c-0.235-0.426-0.353-0.794-0.353-1.104c0-0.309,0.309-0.506,0.928-0.592c0.619-0.085,1.473-0.331,2.561-0.736   S18.028,3.506,18.839,3.506z M21.783,14.579c0.128,0,0.389,0.144,0.784,0.432c0.395,0.288,0.612,0.571,0.655,0.848   c0.043,0.278,0.128,0.544,0.256,0.8c0.129,0.256,0.24,0.592,0.337,1.008c0.096,0.416,0.144,0.742,0.144,0.977   s0.026,0.438,0.08,0.607c0.053,0.172,0.08,0.336,0.08,0.496s-0.112,0.299-0.336,0.416c-0.225,0.117-0.886,0.235-1.984,0.353   s-2.112,0.176-3.04,0.176s-1.621-0.411-2.08-1.231c-0.459-0.821-0.688-1.621-0.688-2.4s0.074-1.408,0.224-1.888   s0.229-1.072,0.24-1.776s0.048-1.093,0.112-1.168c0.063-0.075,0.208-0.112,0.432-0.112s0.565,0.085,1.024,0.256   c0.458,0.171,0.688,0.379,0.688,0.624c0,0.246-0.149,0.491-0.448,0.736c-0.299,0.246-0.485,0.598-0.56,1.056   c-0.075,0.459-0.171,0.79-0.288,0.992c-0.117,0.203-0.176,0.581-0.176,1.136c0,0.556,0.101,0.934,0.304,1.137   c0.202,0.203,0.528,0.304,0.976,0.304c0.448,0,0.929-0.063,1.44-0.192c0.512-0.127,0.843-0.25,0.992-0.367   c0.148-0.117,0.271-0.373,0.368-0.769c0.096-0.395,0.144-0.901,0.144-1.521C21.463,14.888,21.569,14.579,21.783,14.579z" stroke-width="1"/>
</g>
</svg>