<svg xmlns="http://www.w3.org/2000/svg" xmlns:xlink="http://www.w3.org/1999/xlink" version="1.1" id="图层_1" x="0px" y="0px" width="27.01599884033203" height="28.735280990600586" viewBox="2.7870001792907715 0.43099963665008545 27.01599884033203 28.735280990600586" enable-background="new 0 0 30 30" xml:space="preserve">
<g>
	<path fill="#0000FF" d="M9.463,6.867c0.49,0,0.928,0.096,1.313,0.288c0.384,0.192,0.575,0.384,0.575,0.576s-0.213,0.485-0.64,0.88   c-0.427,0.395-0.773,0.928-1.04,1.6s-0.4,1.253-0.4,1.744s0.064,0.875,0.192,1.152c0.469,1.003,0.704,1.899,0.704,2.688   c0,0.789-0.043,1.35-0.128,1.68c-0.086,0.331-0.214,0.496-0.384,0.496c-0.171,0-0.571-0.106-1.2-0.32   c-0.63-0.213-1.126-0.484-1.488-0.816c-0.363-0.33-0.582-0.496-0.656-0.496c-0.075,0-0.128,0.043-0.16,0.129   c-0.032,0.086-0.08,0.373-0.144,0.863l-0.256,2.209c-0.128,0.938-0.197,1.728-0.208,2.367c-0.011,0.641-0.016,1.26-0.016,1.856   c0,1.92-0.064,3.003-0.192,3.248s-0.501,0.368-1.12,0.368s-0.928-0.277-0.928-0.832c0-0.172,0.021-0.374,0.064-0.608   c0.362-1.622,0.544-5.45,0.544-11.488c0-0.875,0.021-2.042,0.064-3.504c0.042-1.461,0.085-2.314,0.128-2.56   c0.042-0.245,0.144-0.416,0.304-0.512c0.16-0.096,0.352-0.128,0.576-0.096c0.224,0.032,0.421,0.048,0.592,0.048   c0.512,0,1.099-0.16,1.76-0.48C7.98,7.026,8.695,6.867,9.463,6.867z M8.727,14.931c0-0.235-0.048-0.603-0.144-1.104   c-0.096-0.501-0.229-0.917-0.4-1.248c-0.171-0.331-0.256-0.747-0.256-1.248c0-0.501,0.048-0.986,0.145-1.456   c0.096-0.469,0.144-0.842,0.144-1.12c0-0.512-0.139-0.768-0.416-0.768S7.218,8.115,6.887,8.371c-0.331,0.256-0.496,0.8-0.496,1.632   l0.032,1.152c0,0.406-0.043,0.891-0.128,1.456c-0.085,0.565-0.128,1.078-0.128,1.536c0,0.459,0.064,0.742,0.192,0.848   c0.128,0.107,0.389,0.219,0.784,0.336c0.394,0.118,0.708,0.175,0.944,0.175C8.514,15.506,8.727,15.314,8.727,14.931z    M29.303,27.955c0,0.084-0.032,0.16-0.096,0.223c-0.064,0.064-0.188,0.133-0.368,0.209c-0.182,0.074-0.485,0.145-0.912,0.207   c-0.427,0.064-0.827,0.086-1.2,0.064s-0.688-0.031-0.943-0.031h-0.736c-0.576,0-1.072-0.123-1.488-0.369   c-0.416-0.244-0.655-0.527-0.72-0.848c-0.256-1.322-0.789-2.102-1.6-2.336c-0.171-0.043-0.518-0.176-1.04-0.4   c-0.523-0.223-0.929-0.416-1.216-0.575c-0.288-0.16-0.513-0.24-0.673-0.24c-0.159,0-0.293,0.038-0.399,0.112   c-0.107,0.074-0.384,0.367-0.832,0.88c-0.448,0.512-0.8,0.944-1.056,1.296c-0.257,0.352-0.396,0.592-0.416,0.721   c-0.172,0.66-0.864,0.992-2.08,0.992c-0.47,0-0.912-0.043-1.328-0.129s-0.624-0.213-0.624-0.385c0-0.17,0.181-0.362,0.544-0.575   c1.13-0.661,2.148-1.43,3.056-2.304c0.906-0.875,1.36-1.413,1.36-1.616c0-0.202-0.197-0.39-0.592-0.56   c-0.396-0.171-0.758-0.256-1.088-0.256c-0.331,0-0.593,0.053-0.784,0.159c-0.192,0.107-0.561,0.411-1.104,0.912   s-0.955,0.95-1.231,1.345c-0.278,0.395-0.556,0.666-0.832,0.815c-0.277,0.149-0.598,0.224-0.96,0.224   c-0.363,0-0.784-0.043-1.265-0.128c-0.479-0.085-0.72-0.229-0.72-0.432c0-0.203,0.746-0.741,2.24-1.616   c0.917-0.512,1.882-1.313,2.896-2.4s1.771-2.09,2.272-3.008c0.501-0.916,0.794-1.541,0.88-1.871   c0.085-0.331,0.229-0.496,0.432-0.496s0.427,0.117,0.672,0.352s0.47,0.469,0.673,0.704c0.202,0.235,0.372,0.396,0.512,0.479   c0.139,0.086,0.432,0.16,0.88,0.225c0.234,0.043,0.624,0.191,1.168,0.447s0.816,0.465,0.816,0.625s-0.086,0.367-0.257,0.623   s-0.421,0.715-0.752,1.377c-0.331,0.661-0.496,1.104-0.496,1.328c0,0.223,0.054,0.379,0.16,0.463l1.313,1.121   c0.768,0.66,1.387,1.135,1.855,1.424c0.47,0.287,1.051,0.58,1.744,0.879s1.521,0.678,2.48,1.137s1.509,0.752,1.647,0.879   C29.233,27.73,29.303,27.848,29.303,27.955z M22.231,10.867c0.276,0,0.447,0.064,0.512,0.192c0.063,0.128,0.219,0.341,0.464,0.64   s0.368,0.56,0.368,0.784s-0.192,0.336-0.576,0.336l-0.672-0.032c-1.494,0-2.24,0.182-2.24,0.544c0,0.149,0.096,0.267,0.288,0.352   c1.216,0.491,1.973,0.864,2.272,1.12c0.298,0.256,0.447,0.512,0.447,0.768s-0.117,0.624-0.352,1.104   c-0.235,0.48-0.448,0.721-0.641,0.721c-0.191,0-0.395-0.139-0.607-0.416c-0.619-0.768-1.216-1.482-1.792-2.144   c-0.576-0.661-0.934-1.04-1.072-1.136c-0.139-0.096-0.262-0.144-0.368-0.144s-0.357,0.069-0.752,0.208s-0.773,0.267-1.136,0.384   c-0.363,0.118-0.64,0.251-0.832,0.4c-0.192,0.149-0.459,0.432-0.8,0.848c-0.342,0.416-0.604,0.721-0.784,0.912   c-0.182,0.191-0.294,0.389-0.336,0.592c-0.043,0.203-0.064,0.502-0.064,0.896s-0.367,0.875-1.104,1.439   c-0.736,0.565-1.445,0.848-2.128,0.848c-0.277,0-0.416-0.117-0.416-0.352s0.618-0.971,1.855-2.208   c0.427-0.427,0.763-0.88,1.009-1.36c0.244-0.479,0.367-0.789,0.367-0.928c0-0.138-0.085-0.208-0.256-0.208   c-0.384,0-0.683,0.075-0.896,0.224c-0.214,0.149-0.396,0.224-0.544,0.224c-0.149,0-0.32-0.267-0.513-0.8   c-0.191-0.533-0.287-0.853-0.287-0.96c0-0.106,0.016-0.165,0.048-0.176c0.031-0.011,0.122-0.016,0.271-0.016   c0.49,0,1.216-0.181,2.176-0.544c0.513-0.192,0.966-0.336,1.36-0.432c0.395-0.096,0.64-0.197,0.736-0.304   c0.096-0.106,0.181-0.309,0.256-0.608c0.074-0.298,0.112-0.56,0.112-0.784s-0.129-0.336-0.385-0.336   c-0.49,0-1.003,0.117-1.536,0.352c-0.191,0.085-0.347,0.128-0.464,0.128s-0.288-0.128-0.512-0.384   c-0.224-0.256-0.336-0.603-0.336-1.04c0-0.437,0.074-0.656,0.224-0.656l0.225,0.032c0.276,0,0.789-0.101,1.536-0.304   c0.746-0.203,1.168-0.378,1.264-0.528s0.229-1.083,0.4-2.8c0.17-1.717,0.256-3.045,0.256-3.984c0-0.32,0.16-0.448,0.479-0.384   c0.405,0.086,0.795,0.128,1.168,0.128s0.561,0.139,0.561,0.416c0,0.085-0.032,0.171-0.097,0.256   c-0.191,0.277-0.288,1.2-0.288,2.768c0,1.568,0.027,2.443,0.08,2.624c0.054,0.181,0.155,0.251,0.305,0.208   c0.234-0.085,0.49-0.149,0.768-0.192c0.427-0.042,0.747-0.112,0.96-0.208c0.213-0.096,0.373-0.144,0.48-0.144   c0.362,0,0.618,0.224,0.768,0.672c0.149,0.448,0.224,0.795,0.224,1.04c0,0.246-0.144,0.368-0.432,0.368s-0.646,0.096-1.072,0.288   s-0.854,0.347-1.279,0.464c-0.428,0.118-0.678,0.224-0.752,0.32c-0.075,0.096-0.134,0.277-0.177,0.544   c-0.043,0.267-0.063,0.454-0.063,0.56c0,0.299,0.16,0.448,0.479,0.448c0.128,0,0.629-0.069,1.504-0.208   c0.875-0.138,1.456-0.245,1.744-0.32C21.927,10.904,22.124,10.867,22.231,10.867z M17.623,20.723c0.213,0,0.395-0.271,0.544-0.816   c0.149-0.544,0.224-0.922,0.224-1.136c0-0.213-0.085-0.39-0.256-0.528s-0.336-0.207-0.496-0.207s-0.384,0.256-0.672,0.768   s-0.432,0.838-0.432,0.976c0,0.14,0.148,0.331,0.448,0.576C17.281,20.6,17.495,20.723,17.623,20.723z" stroke-width="1"/>
</g>
</svg>