<svg xmlns="http://www.w3.org/2000/svg" xmlns:xlink="http://www.w3.org/1999/xlink" version="1.1" id="图层_1" x="0px" y="0px" width="24.68299674987793" height="30.569000244140625" viewBox="1.7730002403259277 -0.5509995967149734 24.68299674987793 30.569000244140625" style="enable-background:new 0 0 30 30;" xml:space="preserve">
  <g>
    <g>
      <path style="fill:#0000FF;" d="M16.166,8.141c1.963-1.707,3.146-2.72,3.552-3.04c0.405-0.32,0.789-0.704,1.152-1.152&#13;&#10;&#9;&#9;c0.148-0.213,0.33-0.32,0.544-0.32c0.213,0,0.522,0.224,0.928,0.672c0.405,0.448,0.608,0.773,0.608,0.976s-0.171,0.368-0.512,0.496&#13;&#10;&#9;&#9;c-0.918,0.299-2.049,0.907-3.393,1.824c-1.344,0.917-2.016,1.461-2.016,1.632c0,0.064,0.053,0.085,0.16,0.064&#13;&#10;&#9;&#9;c1.194-0.17,2.074-0.256,2.64-0.256s0.858,0.192,0.88,0.576c0.021,0.235,0.101,0.539,0.24,0.912&#13;&#10;&#9;&#9;c0.139,0.374,0.208,0.646,0.208,0.816c0,0.405-0.353,0.608-1.057,0.608c-0.703,0-1.525,0.053-2.464,0.16s-1.456,0.187-1.552,0.24&#13;&#10;&#9;&#9;c-0.096,0.054-0.144,0.198-0.144,0.432v1.888c0,0.235,0.128,0.342,0.384,0.32c2.496-0.341,4.176-0.549,5.04-0.624&#13;&#10;&#9;&#9;s1.637-0.112,2.319-0.112s1.115,0.037,1.297,0.112c0.181,0.075,0.298,0.293,0.352,0.656c0.053,0.363,0.171,0.699,0.352,1.009&#13;&#10;&#9;&#9;c0.182,0.309,0.272,0.613,0.272,0.912c0,0.49-0.245,0.735-0.736,0.735c-0.213,0-0.469-0.042-0.768-0.128&#13;&#10;&#9;&#9;c-0.939-0.234-2.021-0.352-3.248-0.352s-2.134,0.026-2.72,0.08c-0.587,0.053-1.147,0.09-1.681,0.111s-0.826,0.059-0.88,0.111&#13;&#10;&#9;&#9;c-0.054,0.055-0.096,0.492-0.128,1.313c-0.032,0.822-0.048,1.574-0.048,2.256l0.064,1.92c0,0.385-0.054,0.955-0.16,1.713&#13;&#10;&#9;&#9;c-0.107,0.756-0.16,1.818-0.16,3.184c0,0.533-0.08,0.938-0.24,1.216c-0.16,0.276-0.357,0.417-0.592,0.417&#13;&#10;&#9;&#9;c-0.235,0-0.422-0.141-0.561-0.417c-0.139-0.277-0.256-1.168-0.352-2.672s-0.144-2.949-0.144-4.336s-0.012-2.47-0.032-3.248&#13;&#10;&#9;&#9;c-0.021-0.778-0.054-1.194-0.097-1.248s-0.117-0.08-0.224-0.08c-0.299,0-1.499,0.187-3.6,0.56&#13;&#10;&#9;&#9;c-2.102,0.374-3.483,0.668-4.144,0.881c-0.662,0.213-1.206,0.49-1.632,0.832c-0.128,0.106-0.277,0.16-0.448,0.16&#13;&#10;&#9;&#9;c-0.171,0-0.406-0.262-0.704-0.785c-0.299-0.521-0.448-0.868-0.448-1.039s0.181-0.256,0.544-0.256c0.405,0,1.045-0.149,1.92-0.448&#13;&#10;&#9;&#9;c0.875-0.299,2.17-0.683,3.888-1.152c1.717-0.469,3.205-0.757,4.464-0.864c0.192,0,0.288-0.128,0.288-0.384&#13;&#10;&#9;&#9;c0-1.088-0.011-1.69-0.032-1.808s-0.096-0.165-0.224-0.144c-0.533,0.107-1.003,0.181-1.408,0.224&#13;&#10;&#9;&#9;c-1.023,0.086-1.792,0.299-2.304,0.64c-0.149,0.107-0.299,0.16-0.448,0.16c-0.256,0-0.438-0.117-0.544-0.352&#13;&#10;&#9;&#9;c-0.106-0.234-0.293-0.57-0.56-1.008c-0.268-0.437-0.4-0.715-0.4-0.832s0.064-0.219,0.192-0.304&#13;&#10;&#9;&#9;c0.128-0.085,0.725-0.283,1.792-0.592c1.066-0.309,2.239-0.624,3.52-0.944c0.234-0.064,0.353-0.224,0.353-0.48l0.063-3.04&#13;&#10;&#9;&#9;c0-0.106-0.043-0.16-0.128-0.16c-0.149,0-0.672,0.293-1.568,0.88c-0.896,0.587-1.61,1.307-2.144,2.16&#13;&#10;&#9;&#9;C9.307,9.805,9.099,9.997,8.918,9.997c-0.182,0-0.336-0.037-0.464-0.112S8.097,9.533,7.766,9.053S7.227,8.269,7.142,8.141&#13;&#10;&#9;&#9;S7.014,7.885,7.014,7.757c0-0.32,0.245-0.491,0.736-0.512C8.24,7.224,8.816,7.08,9.478,6.813c0.661-0.266,1.867-0.677,3.616-1.232&#13;&#10;&#9;&#9;c0.192-0.064,0.288-0.192,0.288-0.384l0.16-2.88c0.064-1.067,0.101-1.685,0.112-1.856c0.01-0.17,0.059-0.298,0.144-0.384&#13;&#10;&#9;&#9;c0.085-0.085,0.304-0.128,0.656-0.128c0.352,0,0.858,0.155,1.52,0.464c0.661,0.31,0.992,0.534,0.992,0.672&#13;&#10;&#9;&#9;c0,0.139-0.091,0.31-0.271,0.512c-0.182,0.203-0.357,1.104-0.528,2.704S15.91,7.106,15.91,7.917c0,0.171,0.053,0.256,0.16,0.256&#13;&#10;&#9;&#9;C16.112,8.173,16.145,8.162,16.166,8.141z" stroke-width="1"/>
    </g>
    <g/>
    <g/>
    <g/>
    <g/>
    <g/>
    <g/>
    <g/>
    <g/>
    <g/>
    <g/>
    <g/>
    <g/>
    <g/>
    <g/>
    <g/>
  </g>
</svg>