<svg xmlns="http://www.w3.org/2000/svg" xmlns:xlink="http://www.w3.org/1999/xlink" version="1.1" id="图层_1" x="0px" y="0px" width="29.47900390625" height="26.567996978759766" viewBox="0.3700000047683716 1.8810009956359863 29.47900390625 26.567996978759766" style="enable-background:new 0 0 30 30;" xml:space="preserve">
  <g>
    <g>
      <path style="fill:#0000FF;" d="M5.286,21.772c0.917-0.704,2.091-2.133,3.52-4.288c1.43-2.154,2.145-3.445,2.145-3.872&#13;&#10;&#9;&#9;c0-0.234-0.149-0.352-0.448-0.352c-0.555,0-1.248,0.246-2.08,0.736c-0.213,0.128-0.416,0.192-0.607,0.192&#13;&#10;&#9;&#9;c-0.192,0-0.443-0.261-0.752-0.784c-0.31-0.522-0.465-0.976-0.465-1.36c0-0.384,0.043-0.704,0.128-0.96&#13;&#10;&#9;&#9;c0.235-0.832,0.353-1.834,0.353-3.008c0-0.512,0.202-0.768,0.607-0.768c0.257,0,0.721,0.091,1.393,0.272&#13;&#10;&#9;&#9;c0.672,0.182,1.008,0.379,1.008,0.592S9.947,8.568,9.67,8.717c-1.088,0.597-1.632,1.355-1.632,2.272&#13;&#10;&#9;&#9;c0,0.469,0.277,0.704,0.832,0.704c0.32,0,0.891-0.106,1.712-0.32c0.821-0.213,1.317-0.384,1.488-0.512&#13;&#10;&#9;&#9;c0.17-0.128,0.475-0.896,0.912-2.304c0.437-1.408,0.911-3.264,1.424-5.568c0.106-0.448,0.341-0.629,0.704-0.544&#13;&#10;&#9;&#9;c0.128,0.021,0.267,0.032,0.416,0.032c0.148,0,0.293-0.016,0.432-0.048c0.139-0.032,0.272-0.048,0.4-0.048s0.234,0.037,0.319,0.112&#13;&#10;&#9;&#9;c0.085,0.075,0.128,0.144,0.128,0.208s-0.048,0.139-0.144,0.224c-0.096,0.085-0.224,0.325-0.384,0.72&#13;&#10;&#9;&#9;c-0.16,0.395-0.251,0.709-0.272,0.944c-0.106,0.96-0.405,2.037-0.896,3.232c-0.043,0.107-0.134,0.379-0.272,0.816&#13;&#10;&#9;&#9;c-0.139,0.438-0.208,0.742-0.208,0.912c0,0.363,0.16,0.544,0.48,0.544c0.063,0,0.298-0.069,0.704-0.208&#13;&#10;&#9;&#9;c0.404-0.139,0.735-0.24,0.991-0.304c1.174-0.32,1.851-0.57,2.032-0.752c0.181-0.181,0.336-0.272,0.464-0.272&#13;&#10;&#9;&#9;c0.299,0,0.587,0.336,0.864,1.008c0.277,0.672,0.416,1.158,0.416,1.456c0,0.299-0.149,0.448-0.448,0.448l-0.479-0.064&#13;&#10;&#9;&#9;c-0.534,0-1.35,0.133-2.448,0.4c-1.099,0.267-2.117,0.603-3.056,1.008c-0.363,0.171-0.636,0.352-0.816,0.544&#13;&#10;&#9;&#9;c-0.182,0.192-0.635,1.003-1.36,2.432c-0.191,0.384-0.288,0.651-0.288,0.8c0,0.171,0.134,0.396,0.4,0.672&#13;&#10;&#9;&#9;c0.267,0.277,0.688,0.598,1.264,0.96l1.44,0.928c0.427,0.277,0.683,0.416,0.768,0.416c0.299,0,0.544-0.341,0.736-1.023&#13;&#10;&#9;&#9;s0.288-1.195,0.288-1.536c0-0.533-0.208-0.8-0.624-0.8s-0.869,0.106-1.36,0.32c-0.49,0.213-0.821,0.319-0.991,0.319&#13;&#10;&#9;&#9;c-0.172,0-0.336-0.075-0.496-0.224c-0.16-0.149-0.24-0.305-0.24-0.465c0-0.16,0.16-0.346,0.479-0.56&#13;&#10;&#9;&#9;c0.32-0.213,0.912-0.458,1.776-0.736s1.568-0.416,2.112-0.416s1.104,0.091,1.68,0.272c0.576,0.182,0.864,0.411,0.864,0.688&#13;&#10;&#9;&#9;c0,0.128-0.054,0.272-0.16,0.432c-0.107,0.16-0.214,0.475-0.32,0.944c-0.213,1.045-0.726,2.207-1.536,3.487&#13;&#10;&#9;&#9;c-0.106,0.171-0.159,0.368-0.159,0.593c0,0.223,0.191,0.463,0.575,0.719c0.981,0.748,1.749,1.377,2.305,1.889&#13;&#10;&#9;&#9;c0.853,0.746,1.643,1.194,2.368,1.344c1.45,0.277,2.896,0.645,4.336,1.104c1.439,0.459,2.159,0.881,2.159,1.265&#13;&#10;&#9;&#9;c0,0.256-0.352,0.448-1.056,0.576s-1.493,0.192-2.368,0.192s-1.787-0.027-2.735-0.08c-0.95-0.054-1.574-0.155-1.872-0.305&#13;&#10;&#9;&#9;c-0.3-0.149-0.459-0.427-0.48-0.832c-0.085-0.939-0.789-1.791-2.112-2.56c-1.322-0.769-2.197-1.152-2.624-1.152&#13;&#10;&#9;&#9;c-0.149,0-0.341,0.128-0.575,0.384c-1.195,1.28-2.518,2.154-3.969,2.625c-1.45,0.469-2.373,0.703-2.768,0.703&#13;&#10;&#9;&#9;s-0.715-0.064-0.96-0.191c-0.245-0.129-0.368-0.268-0.368-0.416c0-0.15,0.139-0.246,0.416-0.288c1.557-0.214,2.971-0.87,4.24-1.968&#13;&#10;&#9;&#9;c1.269-1.1,1.904-1.776,1.904-2.032c0-0.106-0.129-0.267-0.385-0.479c-0.256-0.214-0.565-0.502-0.928-0.865&#13;&#10;&#9;&#9;c-0.363-0.361-0.789-0.64-1.28-0.832c-0.49-0.191-0.971-0.287-1.439-0.287c-0.47,0-1.083,0.395-1.84,1.184&#13;&#10;&#9;&#9;c-0.758,0.789-1.248,1.558-1.473,2.305c-0.224,0.746-0.501,1.29-0.832,1.631c-0.331,0.342-0.981,0.625-1.952,0.849&#13;&#10;&#9;&#9;c-0.971,0.224-1.717,0.336-2.24,0.336S0.87,25.602,0.87,25.453c0-0.15,0.123-0.299,0.368-0.448s0.592-0.405,1.04-0.769&#13;&#10;&#9;&#9;L5.286,21.772z M21.126,4.396c0.171,0,0.309,0.086,0.416,0.256c0.299,0.512,0.821,1.056,1.568,1.632&#13;&#10;&#9;&#9;c0.746,0.576,1.12,1.045,1.12,1.408c0,0.213-0.107,0.368-0.32,0.464c-0.214,0.096-0.433,0.144-0.656,0.144&#13;&#10;&#9;&#9;s-0.496-0.059-0.815-0.176c-0.32-0.117-0.608-0.176-0.864-0.176c-0.405,0-0.71-0.24-0.912-0.72c-0.203-0.48-0.304-1.093-0.304-1.84&#13;&#10;&#9;&#9;c0-0.341,0.085-0.592,0.256-0.752C20.784,4.477,20.955,4.396,21.126,4.396z" stroke-width="1"/>
    </g>
    <g/>
    <g/>
    <g/>
    <g/>
    <g/>
    <g/>
    <g/>
    <g/>
    <g/>
    <g/>
    <g/>
    <g/>
    <g/>
    <g/>
    <g/>
  </g>
</svg>