<svg xmlns="http://www.w3.org/2000/svg" xmlns:xlink="http://www.w3.org/1999/xlink" version="1.1" id="图层_1" x="0px" y="0px" width="21.001995086669922" height="26.059001922607422" viewBox="4.098999977111816 0.9580000638961792 21.001995086669922 26.059001922607422" enable-background="new 0 0 30 30" xml:space="preserve">
<g>
	<path fill="#0000FF" d="M7.991,16.754c-0.192,0-0.416-0.293-0.672-0.879c-0.256-0.587-0.384-1.008-0.384-1.265   c0-0.256,0.032-0.48,0.096-0.672c0.235-0.661,0.352-1.205,0.352-1.632s-0.08-0.8-0.24-1.12c-0.16-0.32-0.368-0.464-0.624-0.432   c-0.256,0.032-0.448,0.048-0.576,0.048c-0.405,0-0.731-0.25-0.976-0.752C4.722,9.549,4.599,9.213,4.599,9.042   c0-0.17,0.138-0.341,0.416-0.512C5.292,8.36,5.751,8.274,6.391,8.274c0.405,0,1.728-0.32,3.968-0.96   c0.64-0.17,1.173-0.256,1.6-0.256s0.64,0.171,0.64,0.512c0,0.171-0.074,0.416-0.224,0.736c-0.149,0.32-0.683,0.662-1.6,1.024   c-0.428,0.171-0.832,0.598-1.217,1.28c-0.384,0.683-0.575,1.328-0.575,1.936s0.138,0.912,0.416,0.912   c0.128,0,0.442-0.139,0.943-0.416c0.501-0.277,1.179-0.928,2.032-1.952c0.128-0.149,0.251-0.224,0.368-0.224   s0.176,0.117,0.176,0.352s-0.229,0.789-0.688,1.664c-0.459,0.875-1.206,1.739-2.24,2.592C8.956,16.328,8.289,16.754,7.991,16.754z    M10.039,16.658c0.063,0,0.144,0.016,0.24,0.049c0.096,0.031,0.25,0.047,0.464,0.047c0.213,0,0.746-0.101,1.6-0.303   c0.854-0.203,1.664-0.363,2.433-0.48c0.768-0.117,1.61-0.176,2.527-0.176c1.792,0,2.688,0.234,2.688,0.703   c0,0.214-0.171,0.4-0.513,0.561c-0.341,0.16-1.077,0.251-2.208,0.271c-0.64,0.021-1.039,0.102-1.199,0.24s-0.24,0.432-0.24,0.881   c0,0.17,0.059,0.299,0.176,0.383c0.117,0.086,0.304,0.123,0.561,0.112c0.256-0.011,0.469-0.016,0.64-0.016   c1.813,0,2.72,0.245,2.72,0.735c0,0.15-0.123,0.391-0.368,0.721s-0.821,0.544-1.728,0.64c-0.907,0.097-1.456,0.171-1.648,0.224   c-0.191,0.055-0.288,0.256-0.288,0.608s0.049,0.619,0.145,0.8c0.096,0.182,0.24,0.299,0.432,0.353   c0.192,0.054,0.736,0.128,1.632,0.224c0.896,0.096,1.67,0.145,2.32,0.145s1.136-0.011,1.456-0.032   c0.32-0.021,0.646-0.032,0.977-0.032c0.33,0,0.618,0.048,0.863,0.145c0.245,0.096,0.405,0.25,0.48,0.463   c0.074,0.214,0.16,0.513,0.256,0.896c0.096,0.385,0.144,0.693,0.144,0.928c0,0.342-0.106,0.512-0.319,0.512   c-0.214,0-0.47-0.053-0.769-0.159c-1.109-0.405-3.051-0.608-5.824-0.608c-1.472,0-3.482,0.107-6.031,0.32   c-2.55,0.213-4.145,0.384-4.784,0.512c-0.64,0.129-1.024,0.192-1.152,0.192c-0.469,0-0.752-0.229-0.848-0.688   c-0.096-0.459-0.144-0.783-0.144-0.976c0-0.47,0.17-0.704,0.512-0.704c0.085,0,0.267,0.043,0.544,0.128   c0.277,0.085,0.613,0.128,1.008,0.128c0.395,0,1.365-0.123,2.912-0.367c1.546-0.246,2.475-0.411,2.784-0.496   c0.309-0.086,0.532-0.326,0.672-0.721c0.139-0.395,0.208-0.672,0.208-0.832s-0.064-0.266-0.192-0.32   c-0.128-0.053-0.399-0.08-0.815-0.08s-0.832,0.123-1.248,0.369c-0.416,0.245-0.704,0.367-0.864,0.367s-0.342-0.271-0.544-0.816   c-0.203-0.543-0.304-0.922-0.304-1.135s0.282-0.385,0.848-0.513c0.564-0.128,1.125-0.208,1.68-0.239   c0.555-0.033,0.934-0.092,1.137-0.177c0.202-0.085,0.304-0.245,0.304-0.479c0-0.598-0.214-0.896-0.641-0.896   c-0.085,0-0.399,0.049-0.943,0.145s-0.892,0.191-1.04,0.287c-0.149,0.097-0.277,0.145-0.384,0.145   c-0.107,0-0.192-0.145-0.257-0.432c-0.063-0.289-0.144-0.507-0.239-0.656c-0.097-0.148-0.145-0.336-0.145-0.561   C9.719,16.771,9.825,16.658,10.039,16.658z M12.663,4.69c0,0.662-0.235,0.992-0.704,0.992c-0.064,0-0.149-0.016-0.256-0.048   c-0.107-0.032-0.379-0.048-0.816-0.048s-0.795-0.074-1.071-0.224C9.537,5.213,9.356,5.075,9.271,4.946   c-0.085-0.128-0.154-0.4-0.207-0.816c-0.054-0.416-0.08-0.848-0.08-1.296c0-0.448,0.096-0.789,0.287-1.024   c0.192-0.234,0.416-0.352,0.673-0.352c0.404,0,0.832,0.277,1.279,0.832c0.448,0.555,0.801,0.971,1.057,1.248   C12.535,3.816,12.663,4.2,12.663,4.69z M11.031,15.922c0-0.042,0.032-0.084,0.096-0.127c0.725-0.427,1.435-1.243,2.128-2.448   c0.693-1.205,1.072-2.768,1.136-4.688c0.064-1.92,0.075-2.992,0.032-3.216c-0.043-0.224-0.063-0.437-0.063-0.64   s0.042-0.357,0.128-0.464c0.085-0.106,0.256-0.16,0.512-0.16c0.448,0,1.173-0.213,2.176-0.64c0.171-0.085,0.592-0.165,1.265-0.24   c0.672-0.074,1.258-0.112,1.76-0.112c0.501,0,1.019,0.011,1.552,0.032c0.533,0.021,0.843,0.176,0.928,0.464   s0.128,0.491,0.128,0.608c0,0.118-0.069,0.246-0.208,0.384c-0.139,0.139-0.267,0.416-0.384,0.832S22.05,6.28,22.071,6.579   c0.021,0.299,0.031,0.747,0.031,1.344l-0.096,3.328c0,0.64,0.053,1.397,0.16,2.272l0.224,2.272c0,0.234-0.117,0.41-0.352,0.527   c-0.235,0.117-0.448,0.176-0.64,0.176c-0.363,0-1.115-0.271-2.257-0.815c-1.141-0.544-1.963-0.992-2.464-1.344   s-0.752-0.603-0.752-0.752c0-0.149,0.117-0.203,0.353-0.16c1.002,0.171,1.76,0.256,2.271,0.256c0.513,0,0.869-0.075,1.072-0.224   c0.202-0.149,0.304-0.373,0.304-0.672v-1.472l0.064-4.384c0-0.64-0.038-1.056-0.112-1.248c-0.075-0.192-0.304-0.411-0.688-0.656   c-0.385-0.245-0.779-0.368-1.185-0.368s-0.784,0.16-1.136,0.48c-0.353,0.32-0.528,0.779-0.528,1.376   c0,0.149,0.097,0.213,0.288,0.192c0.555-0.042,1.024-0.064,1.408-0.064s0.656,0.043,0.816,0.128   c0.159,0.085,0.239,0.246,0.239,0.48c0,0.363-0.128,0.576-0.384,0.64c-0.619,0.128-1.189,0.293-1.712,0.496   c-0.523,0.203-0.816,0.427-0.88,0.672c-0.064,0.246-0.096,0.464-0.096,0.656c0,0.192,0.106,0.288,0.319,0.288l2.4-0.192   c0.191,0,0.288,0.171,0.288,0.512c0,0.619-0.246,0.955-0.736,1.008c-0.491,0.053-1.136,0.176-1.936,0.368   c-0.801,0.192-1.243,0.416-1.328,0.672c-0.086,0.256-0.128,0.448-0.128,0.576c0,0.128,0.016,0.224,0.048,0.288   s0.048,0.187,0.048,0.368c0,0.182-0.054,0.416-0.16,0.704s-0.256,0.496-0.448,0.624c-0.191,0.128-0.539,0.32-1.04,0.575   c-0.501,0.257-0.891,0.412-1.168,0.465s-0.539,0.08-0.783,0.08C11.153,16.051,11.031,16.008,11.031,15.922z" stroke-width="1"/>
</g>
</svg>