<svg xmlns="http://www.w3.org/2000/svg" xmlns:xlink="http://www.w3.org/1999/xlink" version="1.1" id="图层_1" x="0px" y="0px" width="27.59000015258789" height="31.81599998474121" viewBox="0.30600011348724365 -1.0630000233650208 27.59000015258789 31.81599998474121" style="enable-background:new 0 0 30 30;" xml:space="preserve">
  <g>
    <g>
      <path style="fill:#0000FF;" d="M17.286,17.74c0.256-0.084,0.427-0.16,0.512-0.224s0.128-0.202,0.128-0.416l-0.032-1.536&#13;&#10;&#9;&#9;c0-0.128-0.031-0.213-0.096-0.256c-0.063-0.042-0.203-0.042-0.416,0l-1.184,0.128c-0.576,0.021-1.174,0.16-1.792,0.416&#13;&#10;&#9;&#9;c-0.619,0.257-1.04,0.522-1.265,0.8c-0.224,0.277-0.495,0.779-0.815,1.504c-0.32,0.727-0.491,1.365-0.512,1.92&#13;&#10;&#9;&#9;c-0.021,0.556-0.15,0.875-0.385,0.961c-0.234,0.085-0.869,0.229-1.903,0.432c-1.035,0.203-1.676,0.348-1.92,0.432&#13;&#10;&#9;&#9;c-0.246,0.086-0.47,0.192-0.673,0.32c-0.202,0.128-0.384,0.191-0.544,0.191c-0.159,0-0.293-0.105-0.399-0.319&#13;&#10;&#9;&#9;c-0.214-0.491-0.443-0.96-0.688-1.408c-0.246-0.448-0.48-1.05-0.704-1.808s-0.336-1.264-0.336-1.52&#13;&#10;&#9;&#9;c0-0.257,0.064-0.465,0.192-0.625s0.405-0.304,0.832-0.432c0.938-0.256,1.456-0.427,1.552-0.512&#13;&#10;&#9;&#9;c0.096-0.085,0.219-0.421,0.368-1.008c0.149-0.586,0.224-0.976,0.224-1.168c0-0.106-0.059-0.16-0.176-0.16s-0.72,0.192-1.808,0.576&#13;&#10;&#9;&#9;L3.43,14.701c-0.235,0.085-0.47,0.224-0.704,0.416c-0.235,0.192-0.443,0.288-0.624,0.288c-0.182,0-0.443-0.304-0.784-0.912&#13;&#10;&#9;&#9;s-0.512-1.04-0.512-1.296s0.395-0.458,1.184-0.608c1.514-0.299,2.592-0.587,3.232-0.864c0.64-0.277,1.163-0.49,1.568-0.64&#13;&#10;&#9;&#9;c0.405-0.149,0.64-0.256,0.704-0.32c0.063-0.064,0.096-0.203,0.096-0.416c0-0.213-0.037-0.49-0.112-0.832&#13;&#10;&#9;&#9;C7.403,9.176,7.339,8.968,7.286,8.893C7.232,8.818,7.169,8.781,7.094,8.781S6.918,8.813,6.79,8.876&#13;&#10;&#9;&#9;C5.851,9.24,5.008,9.421,4.262,9.421c-0.384,0-0.576-0.069-0.576-0.208S3.814,8.882,4.07,8.637c0.256-0.245,1.131-0.88,2.625-1.904&#13;&#10;&#9;&#9;c1.493-1.024,2.629-1.76,3.407-2.208c0.779-0.448,1.302-0.672,1.568-0.672s0.597,0.256,0.992,0.768&#13;&#10;&#9;&#9;c0.395,0.512,0.592,0.886,0.592,1.12c0,0.235-0.043,0.395-0.128,0.48c-0.086,0.085-0.224,0.128-0.416,0.128h-0.256&#13;&#10;&#9;&#9;c-0.576,0-1.313,0.198-2.208,0.592C9.35,7.336,8.902,7.64,8.902,7.853c0,0.32,0.288,0.565,0.863,0.736&#13;&#10;&#9;&#9;c0.405,0.128,0.641,0.469,0.704,1.024c0.021,0.277,0.149,0.384,0.385,0.32l1.088-0.224c0.704-0.128,1.162-0.192,1.376-0.192&#13;&#10;&#9;&#9;c0.213,0,0.362,0.123,0.447,0.368c0.085,0.246,0.128,0.528,0.128,0.848c0,0.32-0.053,0.533-0.159,0.64&#13;&#10;&#9;&#9;c-0.107,0.107-0.374,0.198-0.801,0.272c-0.427,0.075-0.971,0.214-1.632,0.416c-0.661,0.203-1.035,0.342-1.12,0.416&#13;&#10;&#9;&#9;c-0.085,0.075-0.165,0.224-0.239,0.448c-0.075,0.224-0.198,0.56-0.368,1.008c-0.171,0.448-0.256,0.715-0.256,0.8&#13;&#10;&#9;&#9;s0.09,0.117,0.271,0.096c0.182-0.021,0.39-0.032,0.624-0.032c0.769,0,1.504,0.149,2.208,0.448c0.128,0.064,0.229,0.096,0.304,0.096&#13;&#10;&#9;&#9;c0.075,0,0.112-0.064,0.112-0.192v-0.128c0-0.234,0.117-0.373,0.353-0.416c0.554-0.042,1.162-0.192,1.823-0.448&#13;&#10;&#9;&#9;s1.451-0.501,2.368-0.736s1.44-0.405,1.568-0.512c0.128-0.106,0.325-0.411,0.592-0.912c0.267-0.501,0.496-1.008,0.688-1.52&#13;&#10;&#9;&#9;c0.191-0.512,0.287-0.832,0.287-0.96c0-0.341-0.202-0.512-0.607-0.512s-0.843,0.251-1.313,0.752&#13;&#10;&#9;&#9;c-0.469,0.501-0.715,1.035-0.735,1.6c-0.021,0.565-0.177,0.955-0.464,1.168c-0.288,0.213-0.518,0.32-0.688,0.32&#13;&#10;&#9;&#9;s-0.368-0.24-0.592-0.72c-0.225-0.48-0.336-1.061-0.336-1.744c0-0.213-0.102-0.32-0.305-0.32c-0.202,0-0.373-0.053-0.512-0.16&#13;&#10;&#9;&#9;c-0.139-0.106-0.347-0.469-0.624-1.088c-0.277-0.618-0.416-1.034-0.416-1.248c0-0.213,0.16-0.32,0.48-0.32&#13;&#10;&#9;&#9;c0.319,0,0.672-0.064,1.056-0.192c3.712-1.13,5.963-1.776,6.752-1.936s1.285-0.24,1.488-0.24c0.202,0,0.341,0.048,0.416,0.144&#13;&#10;&#9;&#9;c0.074,0.096,0.112,0.347,0.112,0.752c0,0.406-0.06,0.694-0.177,0.864c-0.117,0.171-0.416,0.347-0.896,0.528&#13;&#10;&#9;&#9;c-0.48,0.182-0.773,0.31-0.88,0.384c-0.107,0.075-0.16,0.166-0.16,0.272c0,0.213,0.362,0.48,1.088,0.8&#13;&#10;&#9;&#9;c0.32,0.149,0.479,0.326,0.479,0.528s-0.063,0.368-0.191,0.496c-0.704,0.704-1.228,1.312-1.568,1.824&#13;&#10;&#9;&#9;c-0.341,0.512-0.512,0.811-0.512,0.896c0,0.085,0.048,0.128,0.144,0.128c0.097,0,0.197-0.01,0.305-0.032&#13;&#10;&#9;&#9;c0.661-0.128,1.482-0.261,2.464-0.4c0.98-0.138,1.563-0.208,1.744-0.208c0.181,0,0.319,0.102,0.416,0.304&#13;&#10;&#9;&#9;c0.096,0.203,0.229,0.379,0.399,0.528c0.171,0.149,0.299,0.336,0.385,0.56c0.085,0.224,0.128,0.411,0.128,0.56&#13;&#10;&#9;&#9;c0,0.149-0.086,0.288-0.257,0.416s-0.432,0.176-0.783,0.144c-0.353-0.032-0.972-0.048-1.856-0.048c-0.886,0-1.659,0.059-2.32,0.176&#13;&#10;&#9;&#9;c-0.661,0.118-1.056,0.203-1.184,0.256c-0.128,0.054-0.251,0.357-0.368,0.912c-0.117,0.555-0.176,0.908-0.176,1.056&#13;&#10;&#9;&#9;c0,0.149,0.048,0.225,0.144,0.225c0.097,0,0.459-0.059,1.088-0.177c0.63-0.117,1.131-0.196,1.505-0.239&#13;&#10;&#9;&#9;c0.373-0.043,0.703-0.107,0.991-0.193c0.288-0.084,0.513-0.127,0.673-0.127c0.159,0,0.304,0.106,0.432,0.32&#13;&#10;&#9;&#9;c0.277,0.49,0.522,0.832,0.736,1.023c0.213,0.191,0.319,0.384,0.319,0.576c0,0.512-0.171,0.768-0.512,0.768l-1.216-0.031&#13;&#10;&#9;&#9;c-1.024,0-1.724,0.021-2.097,0.063c-0.373,0.043-0.795,0.106-1.264,0.192c-0.47,0.085-0.736,0.16-0.8,0.224&#13;&#10;&#9;&#9;c-0.064,0.063-0.096,0.288-0.096,0.672v1.504c0,1.109-0.054,2.214-0.16,3.312c-0.107,1.1-0.16,1.84-0.16,2.225&#13;&#10;&#9;&#9;c0,0.875,0.037,1.477,0.112,1.809c0.074,0.33,0.111,0.549,0.111,0.656c0,0.49-0.405,0.734-1.216,0.734&#13;&#10;&#9;&#9;c-0.191,0-0.453-0.037-0.784-0.111s-0.496-0.188-0.496-0.336c0-0.15,0.097-0.342,0.288-0.576c0.234-0.277,0.353-0.863,0.353-1.76&#13;&#10;&#9;&#9;c0-2.475-0.021-4.111-0.064-4.912c-0.043-0.8-0.102-1.456-0.176-1.968c-0.075-0.513-0.139-0.806-0.192-0.88&#13;&#10;&#9;&#9;c-0.053-0.074-0.123-0.112-0.208-0.112s-0.512,0.038-1.279,0.112c-0.769,0.074-1.44,0.271-2.017,0.592&#13;&#10;&#9;&#9;c-0.213,0.107-0.379,0.16-0.496,0.16s-0.271-0.154-0.464-0.465c-0.191-0.309-0.288-0.58-0.288-0.815&#13;&#10;&#9;&#9;c0-0.234,0.032-0.378,0.097-0.433c0.063-0.053,0.191-0.08,0.384-0.08c0.191,0,0.501-0.063,0.928-0.191L17.286,17.74z M7.59,19.725&#13;&#10;&#9;&#9;c0.277,0,0.709-0.117,1.296-0.352s0.88-0.789,0.88-1.664c0-0.448-0.202-0.672-0.607-0.672c-0.533,0-1.046,0.154-1.536,0.463&#13;&#10;&#9;&#9;c-0.491,0.311-0.736,0.758-0.736,1.345S7.12,19.725,7.59,19.725z M18.502-0.563c0.448,0,0.709,0.091,0.784,0.272&#13;&#10;&#9;&#9;c0.074,0.182,0.309,0.512,0.704,0.992c0.395,0.48,0.709,0.987,0.943,1.52c0.235,0.534,0.353,0.928,0.353,1.184&#13;&#10;&#9;&#9;c0,0.533-0.342,0.8-1.024,0.8c-0.171,0-0.411-0.085-0.72-0.256c-0.31-0.17-0.646-0.331-1.008-0.48&#13;&#10;&#9;&#9;c-0.576-0.256-0.864-1.024-0.864-2.304c0-0.405,0.048-0.794,0.145-1.168C17.91-0.376,18.139-0.563,18.502-0.563z" stroke-width="1"/>
    </g>
    <g/>
    <g/>
    <g/>
    <g/>
    <g/>
    <g/>
    <g/>
    <g/>
    <g/>
    <g/>
    <g/>
    <g/>
    <g/>
    <g/>
    <g/>
  </g>
</svg>