<svg xmlns="http://www.w3.org/2000/svg" xmlns:xlink="http://www.w3.org/1999/xlink" version="1.1" id="图层_1" x="0px" y="0px" width="25.607999801635742" height="28.137004852294922" viewBox="1.2660003900527954 1.9769999980926514 25.607999801635742 28.137004852294922" style="enable-background:new 0 0 30 30;" xml:space="preserve">
  <g>
    <g>
      <path style="fill:#0000FF;" d="M10.022,12.205c0.106-0.426,0.33-0.64,0.672-0.64c0.106,0,0.208,0.016,0.304,0.048&#13;&#10;&#9;&#9;c0.096,0.032,0.165,0.048,0.208,0.048c0.149,0,0.624-0.667,1.424-2c0.8-1.333,1.36-2.533,1.68-3.6&#13;&#10;&#9;&#9;c0.129-0.405,0.353-0.608,0.673-0.608c0.17,0,0.469,0.144,0.896,0.432s0.64,0.496,0.64,0.624s-0.101,0.32-0.304,0.576&#13;&#10;&#9;&#9;c-0.203,0.256-0.576,0.843-1.12,1.76c-0.544,0.917-0.923,1.542-1.136,1.872c-0.214,0.331-0.32,0.507-0.32,0.528&#13;&#10;&#9;&#9;c0,0.107,0.203,0.16,0.608,0.16l0.512-0.032c0.299,0,0.518,0.224,0.656,0.672c0.139,0.448,0.208,0.827,0.208,1.136&#13;&#10;&#9;&#9;c0,0.31-0.102,0.528-0.304,0.656c-0.203,0.128-0.528,0.208-0.977,0.24c-0.448,0.032-0.832,0.096-1.151,0.192&#13;&#10;&#9;&#9;c-0.32,0.096-0.518,0.171-0.593,0.224c-0.074,0.054-0.111,0.166-0.111,0.336c0,0.171,0.042,0.293,0.128,0.368&#13;&#10;&#9;&#9;c0.085,0.075,0.362,0.229,0.832,0.464c0.469,0.235,0.815,0.395,1.04,0.48c0.224,0.086,0.384,0.229,0.479,0.432&#13;&#10;&#9;&#9;c0.097,0.203,0.145,0.528,0.145,0.977c0,0.447-0.043,0.763-0.128,0.943c-0.086,0.182-0.3,0.272-0.641,0.272&#13;&#10;&#9;&#9;s-0.938-0.245-1.792-0.735c-0.063-0.043-0.117-0.064-0.16-0.064s-0.074,0.027-0.096,0.08s-0.054,0.656-0.096,1.808&#13;&#10;&#9;&#9;c-0.043,1.152-0.064,2.102-0.064,2.849l0.064,2.432c0,0.725-0.118,1.088-0.353,1.088c-0.405,0-1.023-0.256-1.855-0.768&#13;&#10;&#9;&#9;s-1.248-0.928-1.248-1.248c0-0.192,0.191-0.299,0.576-0.32c0.384-0.021,0.645-0.191,0.783-0.512s0.208-0.741,0.208-1.264&#13;&#10;&#9;&#9;c0-0.523-0.016-1.334-0.048-2.433c-0.031-1.099-0.059-1.723-0.08-1.872c-0.021-0.148-0.074-0.225-0.159-0.225&#13;&#10;&#9;&#9;c-0.15,0-0.646,0.379-1.488,1.137s-1.286,1.439-1.328,2.048c-0.043,0.608-0.235,1.046-0.576,1.312&#13;&#10;&#9;&#9;c-0.342,0.268-0.779,0.556-1.312,0.865c-0.533,0.309-1.184,0.463-1.952,0.463c-0.768,0-1.2-0.01-1.296-0.031&#13;&#10;&#9;&#9;c-0.096-0.021-0.144-0.096-0.144-0.225c0-0.256,0.32-0.564,0.96-0.928c2.325-1.365,3.876-2.721,4.656-4.064&#13;&#10;&#9;&#9;c0.778-1.344,1.168-2.122,1.168-2.335c0-0.085-0.063-0.128-0.192-0.128c-0.384,0-1.008,0.096-1.871,0.288&#13;&#10;&#9;&#9;c-0.864,0.192-1.488,0.395-1.873,0.608c-0.384,0.214-0.72,0.464-1.008,0.752s-0.512,0.432-0.672,0.432&#13;&#10;&#9;&#9;c-0.16,0-0.422-0.276-0.784-0.831c-0.363-0.555-0.544-0.907-0.544-1.057c0-0.298,0.405-0.533,1.216-0.704&#13;&#10;&#9;&#9;c1.941-0.448,3.552-1.013,4.833-1.696c0.276-0.149,0.672-0.352,1.184-0.608c0.512-0.256,0.811-0.41,0.896-0.464&#13;&#10;&#9;&#9;C9.979,12.36,10.022,12.29,10.022,12.205z M8.966,10.573c0,0.085-0.128,0.293-0.384,0.624c-0.256,0.331-0.518,0.677-0.784,1.04&#13;&#10;&#9;&#9;s-0.527,0.544-0.784,0.544c-0.256,0-0.646-0.234-1.167-0.704c-0.523-0.469-0.784-0.773-0.784-0.912&#13;&#10;&#9;&#9;c0-0.138,0.362-0.336,1.088-0.592c0.725-0.256,1.376-0.384,1.951-0.384C8.678,10.188,8.966,10.317,8.966,10.573z M13.063,2.477&#13;&#10;&#9;&#9;c0.191,0,0.404,0.134,0.64,0.4c0.234,0.267,0.352,0.528,0.352,0.784c0,0.512-0.395,0.822-1.184,0.928&#13;&#10;&#9;&#9;c-0.79,0.107-1.424,0.395-1.904,0.864c-0.479,0.47-0.73,0.992-0.752,1.568c-0.021,0.406-0.16,0.683-0.416,0.832&#13;&#10;&#9;&#9;c-0.683,0.363-1.12,0.619-1.312,0.768C8.08,8.92,7.44,9.069,6.566,9.069c-0.598,0-0.896-0.117-0.896-0.352&#13;&#10;&#9;&#9;c0-0.234,0.229-0.56,0.688-0.976C6.816,7.325,7.28,6.957,7.75,6.637c0.875-0.597,1.541-1.125,2-1.584&#13;&#10;&#9;&#9;c0.459-0.458,1.061-0.981,1.808-1.568s1.163-0.901,1.248-0.944C12.891,2.498,12.977,2.477,13.063,2.477z M12.422,7.917&#13;&#10;&#9;&#9;c0,0.107-0.075,0.267-0.224,0.48c-0.149,0.214-0.288,0.475-0.416,0.784c-0.128,0.31-0.294,0.608-0.496,0.896&#13;&#10;&#9;&#9;c-0.203,0.288-0.374,0.432-0.512,0.432c-0.14,0-0.4-0.176-0.784-0.528c-0.384-0.352-0.576-0.645-0.576-0.88&#13;&#10;&#9;&#9;c0-0.234,0.405-0.533,1.216-0.896c0.811-0.362,1.313-0.544,1.504-0.544C12.326,7.661,12.422,7.746,12.422,7.917z M26.374,16.589&#13;&#10;&#9;&#9;c0,0.171-0.192,0.661-0.576,1.472s-0.923,1.553-1.616,2.225s-1.259,1.445-1.695,2.319c-0.438,0.875-0.656,1.547-0.656,2.017&#13;&#10;&#9;&#9;c0,0.341-0.192,0.656-0.576,0.943c-0.384,0.288-0.928,0.768-1.632,1.44c-0.704,0.672-1.611,1.274-2.72,1.808&#13;&#10;&#9;&#9;c-1.109,0.533-2.038,0.801-2.784,0.801c-0.214,0-0.422-0.027-0.624-0.08c-0.203-0.055-0.304-0.129-0.304-0.225&#13;&#10;&#9;&#9;s0.256-0.325,0.768-0.688c1.024-0.684,2.373-1.916,4.048-3.696c1.675-1.781,2.971-3.536,3.888-5.265&#13;&#10;&#9;&#9;c0.917-1.728,1.377-2.912,1.377-3.551c0-0.299,0.159-0.449,0.479-0.449c0.725,0,1.344,0.102,1.856,0.304&#13;&#10;&#9;&#9;C26.118,16.168,26.374,16.375,26.374,16.589z M24.454,4.205c0,0.085-0.054,0.171-0.16,0.256c-0.256,0.213-0.587,0.661-0.992,1.344&#13;&#10;&#9;&#9;c-0.405,0.683-1.216,1.669-2.432,2.96c-1.216,1.291-2.069,1.936-2.561,1.936c-0.256,0-0.384-0.154-0.384-0.464&#13;&#10;&#9;&#9;c0-0.309,0.106-0.683,0.32-1.12c0.213-0.437,0.73-1.354,1.552-2.752c0.821-1.397,1.371-2.501,1.648-3.312&#13;&#10;&#9;&#9;c0.085-0.32,0.261-0.48,0.527-0.48s0.598,0.069,0.992,0.208c0.395,0.139,0.741,0.368,1.04,0.688S24.454,4.034,24.454,4.205z&#13;&#10;&#9;&#9; M23.302,9.229c0.234,0,0.635,0.267,1.2,0.8s0.848,0.907,0.848,1.12s-0.197,0.491-0.592,0.832&#13;&#10;&#9;&#9;c-0.395,0.342-0.827,0.816-1.296,1.424c-0.47,0.608-1.195,1.328-2.176,2.16c-0.981,0.832-1.803,1.248-2.464,1.248&#13;&#10;&#9;&#9;c-0.256,0-0.384-0.106-0.384-0.32c0-0.404,0.549-1.418,1.647-3.04c1.099-1.621,1.818-2.634,2.16-3.04&#13;&#10;&#9;&#9;c0.341-0.405,0.57-0.704,0.688-0.896S23.174,9.229,23.302,9.229z" stroke-width="1"/>
    </g>
    <g/>
    <g/>
    <g/>
    <g/>
    <g/>
    <g/>
    <g/>
    <g/>
    <g/>
    <g/>
    <g/>
    <g/>
    <g/>
    <g/>
    <g/>
  </g>
</svg>