<svg xmlns="http://www.w3.org/2000/svg" xmlns:xlink="http://www.w3.org/1999/xlink" version="1.1" id="图层_1" x="0px" y="0px" width="25.8960018157959" height="24.809999465942383" viewBox="0.19499921798706055 2.813999652862549 25.8960018157959 24.809999465942383" enable-background="new 0 0 30 30" xml:space="preserve">
<g>
	<path fill="#0000FF" d="M10.903,12.115c0,0.256-0.235,0.512-0.704,0.768c-1.046,0.576-1.76,1.243-2.145,2   c-0.384,0.758-0.576,1.2-0.576,1.329c0,0.127,0.075,0.245,0.225,0.352c0.661,0.428,0.992,0.821,0.992,1.184   c0,0.107-0.032,0.225-0.097,0.353c-0.234,0.427-0.442,1.27-0.624,2.528c-0.181,1.259-0.271,2.475-0.271,3.647l0.096,1.856   c0,0.404-0.197,0.672-0.592,0.8c-0.395,0.128-0.672,0.192-0.832,0.192s-0.277-0.112-0.352-0.336   c-0.075-0.225-0.112-0.828-0.112-1.809s0.032-1.936,0.096-2.863c0.064-0.929,0.096-1.584,0.096-1.969   c0-0.725-0.085-1.088-0.256-1.088c-0.171,0-0.384,0.117-0.64,0.352c-1.131,1.046-2.229,1.568-3.296,1.568   c-0.299,0-0.576-0.053-0.832-0.16c-0.256-0.106-0.384-0.224-0.384-0.352c0-0.129,0.139-0.33,0.416-0.608   c2.24-2.091,3.739-3.637,4.496-4.64c0.757-1.003,1.701-2.56,2.833-4.672c0.128-0.234,0.341-0.352,0.64-0.352s0.677,0.267,1.136,0.8   S10.903,11.901,10.903,12.115z M8.503,4.274c0.384,0,0.778,0.251,1.184,0.752c0.405,0.501,0.709,0.854,0.912,1.056   c0.203,0.203,0.305,0.374,0.305,0.512s-0.288,0.453-0.864,0.944s-1.216,1.131-1.92,1.92c-0.107,0.128-0.587,0.523-1.44,1.184   c-0.854,0.662-1.387,0.992-1.6,0.992c-0.213,0-0.411-0.053-0.592-0.16c-0.181-0.106-0.272-0.197-0.272-0.272   s0.064-0.197,0.192-0.368c0.533-0.64,1.189-1.637,1.968-2.992c0.778-1.354,1.285-2.384,1.52-3.088   C8.002,4.435,8.204,4.274,8.503,4.274z M24.055,20.595c0.405,0,0.683,0.122,0.832,0.368c0.149,0.245,0.305,0.73,0.464,1.455   c0.16,0.727,0.24,1.206,0.24,1.44c0,0.32-0.08,0.479-0.24,0.479c-0.159,0-0.314-0.043-0.464-0.127   c-0.661-0.342-1.563-0.613-2.704-0.816s-2.191-0.305-3.151-0.305s-1.856,0.076-2.688,0.225c-0.832,0.149-1.701,0.234-2.607,0.256   c-0.907,0.021-2,0.225-3.28,0.608c-0.342,0.106-0.635,0.159-0.88,0.159c-0.246,0-0.411-0.256-0.496-0.768   c-0.086-0.512-0.128-0.8-0.128-0.863c0-0.277,0.213-0.428,0.64-0.449c0.448-0.021,1.45-0.186,3.008-0.495s2.433-0.501,2.624-0.576   c0.192-0.075,0.363-0.282,0.513-0.624c0.148-0.341,0.224-0.661,0.224-0.96c0-0.298-0.096-0.592-0.288-0.88   s-0.443-0.432-0.752-0.432c-0.31,0-0.619,0.074-0.928,0.224c-0.31,0.149-0.502,0.224-0.576,0.224c-0.075,0-0.16-0.09-0.256-0.271   s-0.24-0.603-0.433-1.264c-0.191-0.662-0.287-1.062-0.287-1.201c0-0.138,0.106-0.207,0.319-0.207h0.353   c0.426,0,1.099-0.074,2.016-0.225c0.917-0.149,1.781-0.362,2.592-0.64s1.568-0.416,2.272-0.416s1.136,0.027,1.296,0.08   s0.267,0.128,0.32,0.224c0.053,0.096,0.079,0.283,0.079,0.56c0,0.278,0.037,0.555,0.112,0.833c0.074,0.277,0.112,0.469,0.112,0.576   c0,0.106-0.027,0.187-0.08,0.239c-0.054,0.054-0.283,0.14-0.688,0.257s-0.768,0.207-1.088,0.271   c-0.319,0.064-0.518,0.16-0.592,0.287c-0.075,0.129-0.176,0.513-0.304,1.152c-0.128,0.641-0.192,1.063-0.192,1.264   c0,0.203,0.102,0.348,0.304,0.433c0.203,0.085,0.55,0.128,1.04,0.128c0.491,0,1.211-0.037,2.16-0.111   C23.42,20.632,23.948,20.595,24.055,20.595z M21.847,6.738h-0.128c-0.661,0-1.52,0.363-2.576,1.088   c-1.056,0.726-1.946,1.611-2.672,2.656c-0.726,1.045-1.088,2.048-1.088,3.008c0,0.341-0.496,0.683-1.488,1.024   c-0.991,0.341-1.658,0.512-2,0.512c-0.341,0-0.703-0.026-1.088-0.08c-0.384-0.053-0.603-0.096-0.655-0.128   c-0.054-0.032-0.08-0.096-0.08-0.192c0-0.096,0.148-0.229,0.447-0.4c1.579-0.917,2.896-2.123,3.952-3.616   c1.057-1.493,1.584-2.378,1.584-2.656c0-0.149-0.106-0.224-0.319-0.224c-0.3,0-0.614,0.08-0.944,0.24   c-0.331,0.16-0.518,0.24-0.56,0.24c-0.257,0-0.465-0.352-0.624-1.056c-0.16-0.704-0.24-1.312-0.24-1.824   c0-0.149,0.032-0.24,0.096-0.272c0.064-0.032,0.379-0.048,0.944-0.048c0.564,0,1.477-0.155,2.735-0.464   c1.259-0.309,2.208-0.656,2.849-1.04c0.213-0.128,0.427-0.192,0.64-0.192s0.4,0.096,0.561,0.288   c0.159,0.192,0.378,0.64,0.655,1.344c0.277,0.704,0.416,1.179,0.416,1.424C22.263,6.616,22.124,6.738,21.847,6.738z M24.055,11.922   c0,0.128-0.037,0.384-0.111,0.768c-0.075,0.384-0.155,0.864-0.24,1.44c-0.043,0.299-0.182,0.448-0.416,0.448   c-0.235,0-0.821-0.373-1.76-1.12c-0.939-0.747-1.616-1.482-2.032-2.208c-0.416-0.725-0.624-1.194-0.624-1.408   c0-0.213,0.091-0.32,0.271-0.32c0.182,0,0.715,0.112,1.601,0.336c0.885,0.224,1.589,0.448,2.112,0.672   c0.522,0.224,0.853,0.443,0.991,0.656C23.985,11.4,24.055,11.646,24.055,11.922z" stroke-width="1"/>
</g>
</svg>