<svg xmlns="http://www.w3.org/2000/svg" xmlns:xlink="http://www.w3.org/1999/xlink" version="1.1" id="图层_1" x="0px" y="0px" width="23.847999572753906" height="25.06700325012207" viewBox="2.658999443054199 2.651998996734619 23.847999572753906 25.06700325012207" enable-background="new 0 0 30 30" xml:space="preserve">
<g>
	<path fill="#0000FF" d="M14.007,7.763c0,0.235-0.171,0.501-0.512,0.8c-0.342,0.299-0.656,0.837-0.944,1.616   s-0.464,1.259-0.527,1.44c-0.064,0.181-0.118,0.331-0.16,0.448c-0.043,0.118-0.097,0.395-0.16,0.832   c-0.064,0.438-0.096,0.806-0.096,1.104l0.096,1.408c0,0.171-0.117,0.255-0.353,0.255c-0.234,0-0.693-0.234-1.376-0.704   c-0.085-0.064-0.149-0.096-0.191-0.096c-0.128,0-0.315,0.181-0.561,0.544s-0.442,0.768-0.592,1.216   c-0.191,0.598-0.758,1.189-1.696,1.775c-0.939,0.588-1.92,0.881-2.944,0.881c-0.555,0-0.832-0.117-0.832-0.353   c0-0.277,0.352-0.629,1.056-1.056c1.429-0.811,2.512-1.617,3.248-2.417c0.736-0.8,1.104-1.285,1.104-1.456   c0-0.085-0.054-0.16-0.16-0.224c-0.769-0.597-1.504-1.237-2.208-1.92c-0.086-0.085-0.16-0.128-0.224-0.128   s-0.128,0.021-0.192,0.064c-0.534,0.32-0.875,0.48-1.024,0.48s-0.224-0.064-0.224-0.192c0-0.256,0.261-0.917,0.784-1.984   c0.522-1.066,1.28-2.405,2.272-4.016c0.992-1.61,1.568-2.501,1.729-2.672c0.159-0.17,0.33-0.256,0.512-0.256   c0.181,0,0.533,0.262,1.056,0.784c0.522,0.523,0.784,0.87,0.784,1.04c0,0.171-0.106,0.363-0.32,0.576   c-0.683,0.683-1.023,1.099-1.023,1.248c0,0.064,0.053,0.096,0.16,0.096l1.151-0.032c0.405,0,0.736,0.059,0.992,0.176   c0.256,0.118,0.48,0.187,0.672,0.208C13.772,7.314,14.007,7.485,14.007,7.763z M7.127,20.051c0,0.086-0.032,0.251-0.096,0.496   c-0.064,0.245-0.096,0.56-0.096,0.943l0.032,1.057c0,0.683-0.107,1.413-0.32,2.191c-0.213,0.779-0.448,1.168-0.704,1.168   c-0.405,0-0.944-0.224-1.616-0.672c-0.672-0.447-1.008-0.816-1.008-1.104c0-0.289,0.549-1.077,1.648-2.368   c1.099-1.29,1.733-1.937,1.904-1.937C7.042,19.826,7.127,19.901,7.127,20.051z M9.527,11.634c0.085,0,0.148-0.026,0.191-0.08   s0.112-0.283,0.208-0.688c0.097-0.405,0.145-0.859,0.145-1.36c0-0.501-0.16-0.752-0.48-0.752c-0.085,0-0.256,0.032-0.512,0.096   S8.631,9.032,8.503,9.203c-0.555,0.747-1.024,1.301-1.408,1.664c-0.086,0.085-0.128,0.155-0.128,0.208s0.075,0.091,0.225,0.112   L9.527,11.634z M17.175,19.059c0,0.064,0.053,0.128,0.16,0.191c2.475,1.92,3.979,3.756,4.512,5.504   c0.171,0.576,0.32,0.981,0.448,1.217c0.128,0.234,0.192,0.416,0.192,0.544s-0.086,0.234-0.256,0.319   c-0.172,0.086-0.588,0.171-1.248,0.256c-0.662,0.086-1.408,0.129-2.24,0.129s-2.134-0.107-3.904-0.32s-2.779-0.4-3.023-0.561   c-0.246-0.159-0.486-0.404-0.721-0.735s-0.57-0.832-1.008-1.504s-0.726-1.616-0.864-2.832s-0.208-2.122-0.208-2.72   c0-0.234,0.075-0.353,0.225-0.353c0.789,0,1.248,0.06,1.376,0.177s0.191,0.234,0.191,0.352s-0.011,0.219-0.031,0.304   c-0.128,0.448-0.192,1.04-0.192,1.776s0.202,1.461,0.608,2.176c0.404,0.715,1.104,1.242,2.096,1.584   c0.992,0.341,1.771,0.512,2.336,0.512s1.259-0.102,2.08-0.304c0.821-0.203,1.231-0.592,1.231-1.168   c0-0.704-0.389-1.509-1.168-2.416c-0.778-0.907-1.221-1.36-1.327-1.36c-0.107,0-0.513,0.459-1.217,1.377   c-0.256,0.319-0.501,0.479-0.735,0.479c-0.235,0-0.411-0.097-0.528-0.288s-0.262-0.4-0.432-0.624   c-0.171-0.224-0.385-0.56-0.641-1.008s-0.384-0.806-0.384-1.072s0.053-0.399,0.16-0.399c0.106,0,0.208,0.123,0.304,0.367   c0.097,0.246,0.251,0.368,0.464,0.368c0.128,0,0.475-0.122,1.04-0.368c0.565-0.244,1.146-0.437,1.744-0.576   c0.597-0.139,0.992-0.207,1.185-0.207c0.191,0,0.287,0.09,0.287,0.271s-0.085,0.363-0.256,0.544   C17.26,18.872,17.175,18.994,17.175,19.059z M22.423,10.387c0.256,0,0.555,0.416,0.896,1.248c0.341,0.832,0.544,1.792,0.607,2.88   c0,0.128,0.032,0.374,0.097,0.736c0.063,0.363,0.128,0.619,0.191,0.768c0.064,0.149,0.096,0.304,0.096,0.464   s-0.074,0.271-0.224,0.336s-0.854,0.155-2.112,0.271c-1.259,0.118-2.154,0.177-2.688,0.177c-1.195,0-2.149-0.282-2.864-0.849   c-0.715-0.564-1.227-1.29-1.536-2.175s-0.464-1.616-0.464-2.192c0-0.576,0.069-1.21,0.208-1.904   c0.139-0.693,0.208-1.269,0.208-1.728c0-0.458-0.016-0.8-0.048-1.024s-0.048-0.347-0.048-0.368c0-0.277,0.181-0.458,0.544-0.544   c1.002-0.277,1.877-0.608,2.624-0.992c0.746-0.384,1.392-0.576,1.936-0.576s1.029,0.069,1.456,0.208   c0.427,0.139,0.693,0.24,0.8,0.304c0.107,0.064,0.16,0.155,0.16,0.272s-0.059,0.251-0.176,0.4   c-0.117,0.149-0.271,0.454-0.464,0.912c-0.192,0.459-0.331,0.88-0.416,1.264c-0.256,1.067-0.485,1.739-0.688,2.016   c-0.202,0.277-0.341,0.656-0.416,1.136c-0.074,0.48-0.57,0.72-1.487,0.72c-0.576,0-1.185-0.139-1.824-0.416   c-0.043-0.021-0.091-0.032-0.144-0.032c-0.054,0-0.086,0.053-0.097,0.16c-0.011,0.107-0.048,0.288-0.111,0.544   c-0.064,0.256-0.097,0.48-0.097,0.672c0,0.64,0.245,1.163,0.736,1.568c0.49,0.405,1.21,0.608,2.16,0.608   c0.949,0,1.632-0.096,2.048-0.288s0.688-0.469,0.815-0.832c0.129-0.362,0.192-0.938,0.192-1.728l-0.063-1.632   C22.231,10.515,22.295,10.387,22.423,10.387z M18.935,8.307c0-0.789-0.224-1.184-0.672-1.184c-0.213,0-0.49,0.085-0.832,0.256   c-0.341,0.171-0.555,0.534-0.64,1.088c-0.086,0.555-0.128,0.917-0.128,1.088l0.032,0.544l-0.032,0.448   c0,0.107,0.053,0.16,0.16,0.16c0.276,0,0.698-0.149,1.264-0.448C18.652,9.96,18.935,9.31,18.935,8.307z M21.303,18.803   c0.405,0,0.923,0.037,1.553,0.111c0.629,0.076,1.088,0.176,1.376,0.305c0.287,0.128,0.592,0.219,0.911,0.271   c0.32,0.054,0.544,0.182,0.673,0.385c0.128,0.203,0.191,0.64,0.191,1.312s-0.16,1.222-0.479,1.647   c-0.32,0.428-0.565,0.641-0.736,0.641s-0.331-0.106-0.48-0.32c-0.618-0.875-1.114-1.439-1.487-1.695   c-0.374-0.256-0.79-0.65-1.248-1.185c-0.459-0.532-0.688-0.912-0.688-1.136C20.887,18.914,21.025,18.803,21.303,18.803z" stroke-width="1"/>
</g>
</svg>