<svg xmlns="http://www.w3.org/2000/svg" xmlns:xlink="http://www.w3.org/1999/xlink" version="1.1" id="图层_1" x="0px" y="0px" width="30.280000686645508" height="22.98399543762207" viewBox="0.050000011920928955 3.897001266479492 30.280000686645508 22.98399543762207" style="enable-background:new 0 0 30 30;" xml:space="preserve">
  <g>
    <g>
      <path style="fill:#0000FF;" d="M13.926,14.221c0,0.149-0.102,0.885-0.304,2.208c-0.203,1.323-0.304,2.331-0.304,3.024&#13;&#10;&#9;&#9;s-0.048,1.199-0.145,1.52c-0.096,0.32-0.411,0.923-0.943,1.809c-0.534,0.885-0.96,1.338-1.28,1.359s-0.715,0.112-1.185,0.271&#13;&#10;&#9;&#9;c-0.469,0.16-0.741,0.283-0.815,0.369c-0.075,0.084-0.123,0.256-0.145,0.512c-0.106,0.725-0.331,1.088-0.672,1.088&#13;&#10;&#9;&#9;s-0.965-0.15-1.872-0.448c-0.907-0.299-1.691-0.731-2.352-1.296c-0.662-0.565-0.992-0.949-0.992-1.152&#13;&#10;&#9;&#9;c0-0.202,0.17-0.282,0.512-0.24c0.64,0.086,1.285,0.129,1.936,0.129c0.65,0,1.194-0.123,1.632-0.368&#13;&#10;&#9;&#9;c0.437-0.245,0.683-0.784,0.736-1.616c0.053-0.832,0.08-1.467,0.08-1.904c0-0.437-0.043-0.891-0.129-1.359&#13;&#10;&#9;&#9;c-0.085-0.469-0.144-0.736-0.176-0.801c-0.032-0.063-0.102-0.096-0.208-0.096c-0.299,0-0.607,0.235-0.928,0.704&#13;&#10;&#9;&#9;c-0.128,0.214-0.384,0.522-0.768,0.929c-0.384,0.404-0.693,0.693-0.928,0.863c-0.555,0.406-1.088,1.078-1.6,2.016&#13;&#10;&#9;&#9;c-0.107,0.214-0.256,0.32-0.448,0.32c-0.192,0-0.368-0.074-0.528-0.224s-0.459-0.362-0.896-0.64&#13;&#10;&#9;&#9;C0.769,20.92,0.55,20.637,0.55,20.349s0.245-0.726,0.736-1.312c0.49-0.587,1.104-1.189,1.84-1.809&#13;&#10;&#9;&#9;c0.736-0.618,1.28-1.088,1.632-1.408c0.352-0.32,0.688-0.624,1.008-0.912c0.32-0.288,0.645-0.56,0.976-0.816&#13;&#10;&#9;&#9;c0.33-0.256,0.522-0.421,0.576-0.496c0.053-0.075,0.096-0.17,0.128-0.288c0.031-0.117,0.048-0.229,0.048-0.336&#13;&#10;&#9;&#9;c0-0.661-0.149-1.227-0.448-1.696c-0.128-0.171-0.191-0.331-0.191-0.48c0-0.341,0.352-0.544,1.056-0.608&#13;&#10;&#9;&#9;c0.277-0.021,0.475-0.069,0.592-0.144s0.309-0.304,0.576-0.688c0.267-0.384,0.453-0.731,0.56-1.04s0.16-0.571,0.16-0.784&#13;&#10;&#9;&#9;c0-0.427-0.16-0.64-0.479-0.64c-0.128,0-0.385,0.048-0.769,0.144c-0.384,0.096-0.917,0.555-1.6,1.376&#13;&#10;&#9;&#9;c-0.684,0.822-1.078,1.36-1.184,1.616c-0.107,0.256-0.272,0.384-0.496,0.384s-0.576-0.373-1.056-1.12&#13;&#10;&#9;&#9;c-0.48-0.746-0.72-1.237-0.72-1.472c0-0.234,0.106-0.421,0.32-0.56c0.213-0.139,0.827-0.362,1.84-0.672&#13;&#10;&#9;&#9;C6.667,6.28,7.339,6.109,7.67,6.077c0.331-0.032,0.923-0.218,1.776-0.56c0.404-0.128,0.869-0.192,1.392-0.192&#13;&#10;&#9;&#9;s1.051,0.187,1.584,0.56c0.533,0.374,0.8,0.72,0.8,1.04c0,0.128-0.053,0.251-0.159,0.368c-0.107,0.118-0.31,0.432-0.608,0.944&#13;&#10;&#9;&#9;c-0.405,0.726-1.109,1.365-2.112,1.92c-0.384,0.235-0.576,0.598-0.576,1.088c0,0.256,0.139,0.384,0.416,0.384l0.448-0.096&#13;&#10;&#9;&#9;c0.234,0,0.353,0.288,0.353,0.864c0,0.342-0.14,0.635-0.416,0.88c-0.278,0.245-0.476,0.48-0.593,0.704&#13;&#10;&#9;&#9;c-0.117,0.224-0.176,0.464-0.176,0.72c0,1.452-0.037,2.731-0.112,3.84c-0.074,1.109-0.154,1.834-0.239,2.176&#13;&#10;&#9;&#9;c-0.32,1.131-0.48,2.006-0.48,2.624c0,0.277,0.064,0.416,0.192,0.416s0.442-0.353,0.943-1.056c0.501-0.705,0.955-1.733,1.36-3.088&#13;&#10;&#9;&#9;c0.405-1.355,0.608-2.896,0.608-4.625l-0.032-1.44c0-0.363,0.234-0.544,0.704-0.544C13.531,13.005,13.926,13.41,13.926,14.221z&#13;&#10;&#9;&#9; M21.35,6.381c0,0.256-0.277,0.592-0.832,1.008s-1.104,0.768-1.647,1.056s-1.296,0.891-2.256,1.808&#13;&#10;&#9;&#9;c-0.256,0.277-0.613,0.517-1.072,0.72c-0.459,0.203-1.146,0.656-2.064,1.36c-0.256,0.192-0.459,0.288-0.607,0.288&#13;&#10;&#9;&#9;c-0.149,0-0.277-0.08-0.384-0.24c-0.107-0.16-0.16-0.336-0.16-0.528c0-0.192,0.074-0.341,0.224-0.448&#13;&#10;&#9;&#9;c0.555-0.469,1.12-1.066,1.696-1.792c0.576-0.725,1.429-1.653,2.56-2.784c1.131-1.13,1.867-1.818,2.208-2.064&#13;&#10;&#9;&#9;c0.342-0.245,0.629-0.368,0.864-0.368c0.234,0,0.539,0.283,0.912,0.848C21.163,5.81,21.35,6.188,21.35,6.381z M21.67,21.357&#13;&#10;&#9;&#9;c0,0.404-0.134,0.773-0.399,1.104c-0.268,0.33-0.47,0.496-0.608,0.496s-0.283-0.096-0.432-0.289&#13;&#10;&#9;&#9;c-0.619-0.788-1.009-1.184-1.168-1.184c-0.16,0-0.315,0.16-0.465,0.48s-0.341,0.619-0.575,0.896&#13;&#10;&#9;&#9;c-0.428,0.469-0.758,0.959-0.992,1.471c-0.107,0.257-0.348,0.539-0.721,0.849s-0.661,0.464-0.863,0.464&#13;&#10;&#9;&#9;c-0.203,0-0.454-0.363-0.752-1.088c-0.299-0.725-0.448-1.418-0.448-2.08c0-2.048,0.128-3.472,0.384-4.271&#13;&#10;&#9;&#9;c0.256-0.801,0.384-1.766,0.384-2.896l-0.096-2.048c0-0.427,0.053-0.73,0.16-0.912c0.106-0.181,0.277-0.272,0.512-0.272&#13;&#10;&#9;&#9;s0.57,0.064,1.008,0.192s0.693,0.235,0.769,0.32c0.074,0.085,0.111,0.197,0.111,0.336s-0.085,0.56-0.256,1.264&#13;&#10;&#9;&#9;c-0.171,0.704-0.256,1.195-0.256,1.472c0,0.277,0.069,0.523,0.208,0.736c0.139,0.214,0.496,0.47,1.072,0.768&#13;&#10;&#9;&#9;c1.045,0.492,1.877,1.147,2.496,1.969C21.36,19.954,21.67,20.695,21.67,21.357z M16.262,21.677c0.192,0,0.513-0.256,0.96-0.769&#13;&#10;&#9;&#9;c0.448-0.512,0.672-0.949,0.672-1.312s-0.139-0.677-0.416-0.944c-0.277-0.266-0.501-0.399-0.672-0.399&#13;&#10;&#9;&#9;c-0.341,0-0.64,0.875-0.896,2.624C15.91,21.41,16.027,21.677,16.262,21.677z M29.83,24.492c0,0.256-0.31,0.385-0.928,0.385&#13;&#10;&#9;&#9;c-0.918,0-1.995-0.272-3.232-0.816s-1.915-0.917-2.032-1.119c-0.117-0.203-0.176-0.486-0.176-0.849c0-1.216-0.522-2.177-1.568-2.88&#13;&#10;&#9;&#9;c-0.469-0.342-0.896-0.832-1.279-1.473c-0.384-0.64-0.619-1.193-0.704-1.664c-0.086-0.468-0.192-0.826-0.32-1.071&#13;&#10;&#9;&#9;s-0.416-0.699-0.864-1.36c-0.234-0.341-0.352-0.784-0.352-1.328c0-0.544,0.096-1.083,0.288-1.616c0.192-0.533,0.378-0.8,0.56-0.8&#13;&#10;&#9;&#9;s0.405,0.107,0.672,0.32c0.267,0.213,0.438,0.496,0.513,0.848c0.074,0.352,0.139,0.805,0.191,1.36&#13;&#10;&#9;&#9;c0.054,0.555,0.283,1.195,0.688,1.92l1.696,2.849c0.725,1.194,1.444,2.148,2.159,2.863s2.032,1.872,3.952,3.473&#13;&#10;&#9;&#9;C29.585,23.959,29.83,24.279,29.83,24.492z" stroke-width="1"/>
    </g>
    <g/>
    <g/>
    <g/>
    <g/>
    <g/>
    <g/>
    <g/>
    <g/>
    <g/>
    <g/>
    <g/>
    <g/>
    <g/>
    <g/>
    <g/>
  </g>
</svg>