<svg xmlns="http://www.w3.org/2000/svg" xmlns:xlink="http://www.w3.org/1999/xlink" version="1.1" width="113.43299865722656" height="158.53399658203125" viewBox="0.28599995374679565 -0.3400000035762787 113.43299865722656 158.53399658203125">
  <!-- Exported by Scratch - http://scratch.mit.edu/ -->
  <path id="ID0.8327691247686744" fill="#FFFFFF" d="M 65.226 51.089 C 59.42 51.089 53.403 52.18 47.845 53.249 L 51.321 30.187 L 94.903 30.187 C 99.077 30.187 111.126 28.882 111.126 13.863 C 111.126 6.033 104.859 0.16 94.205 0.16 L 38.326 0.16 C 27.211 0.16 22.328 3.861 20.248 20.837 L 14.454 66.749 C 14.218 69.134 13.757 71.316 13.757 74.14 C 13.757 77.841 18.392 84.367 27.425 84.367 C 39.249 84.367 41.33 77.19 54.785 77.19 C 69.162 77.19 77.05 86.101 77.05 99.161 C 77.05 112.875 68.702 127.657 52.48 127.657 C 36.944 127.657 25.806 113.741 16.536 113.741 C 7.963 113.741 0.786 120.491 0.786 128.534 C 0.786 147.68 35.323 157.694 51.781 157.694 C 91.877 157.694 113.219 133.753 113.219 97.417 C 113.218 71.969 93.283 51.089 65.226 51.089 Z " stroke-width="1"/>
</svg>