<svg xmlns="http://www.w3.org/2000/svg" xmlns:xlink="http://www.w3.org/1999/xlink" version="1.1" id="图层_1" x="0px" y="0px" width="26.279996871948242" height="29.737001419067383" viewBox="0.75200355052948 -0.10300016403198242 26.279996871948242 29.737001419067383" style="enable-background:new 0 0 30 30;" xml:space="preserve">
  <g>
    <g>
      <path style="fill:#0000FF;" d="M14.438,6.573c0.554-0.085,0.917-0.17,1.088-0.256c0.17-0.085,0.309-0.245,0.416-0.48&#13;&#10;&#9;&#9;c0.554-1.472,1.071-2.667,1.552-3.584c0.479-0.917,0.811-1.456,0.992-1.616c0.181-0.16,0.368-0.24,0.56-0.24&#13;&#10;&#9;&#9;c0.192,0,0.49,0.107,0.896,0.32c0.404,0.213,0.607,0.432,0.607,0.656c0,0.224-0.154,0.48-0.464,0.768s-0.613,0.784-0.912,1.488&#13;&#10;&#9;&#9;c-0.299,0.704-0.448,1.152-0.448,1.344s0.091,0.288,0.272,0.288c0.181,0,0.362-0.026,0.544-0.08&#13;&#10;&#9;&#9;c0.181-0.053,0.57-0.144,1.168-0.272c0.597-0.128,1.04-0.192,1.328-0.192s0.501,0.187,0.64,0.56&#13;&#10;&#9;&#9;c0.139,0.374,0.208,0.667,0.208,0.88c0,0.491-0.239,0.736-0.72,0.736s-1.131,0.085-1.952,0.256s-1.419,0.347-1.792,0.528&#13;&#10;&#9;&#9;c-0.373,0.182-0.624,0.341-0.752,0.48c-0.128,0.139-0.363,0.629-0.704,1.472s-0.57,1.387-0.688,1.632&#13;&#10;&#9;&#9;c-0.118,0.246-0.331,0.4-0.641,0.464s-0.464,0.235-0.464,0.512s0.182,0.416,0.544,0.416c0.106,0,0.245-0.011,0.416-0.032&#13;&#10;&#9;&#9;c1.493-0.277,3.125-0.416,4.896-0.416l1.664,0.064c0.597,0,1.093-0.053,1.487-0.16s0.688-0.16,0.881-0.16&#13;&#10;&#9;&#9;c0.191,0,0.372,0.139,0.544,0.416c0.17,0.277,0.367,0.635,0.592,1.072c0.224,0.438,0.336,0.966,0.336,1.584&#13;&#10;&#9;&#9;c0,0.32-0.102,0.48-0.304,0.48c-0.203,0-0.433-0.042-0.688-0.128c-1.195-0.32-2.944-0.48-5.248-0.48&#13;&#10;&#9;&#9;c-1.365,0-2.363,0.048-2.992,0.144c-0.629,0.096-0.943,0.256-0.943,0.48s0.111,0.421,0.336,0.593&#13;&#10;&#9;&#9;c0.224,0.17,0.906,0.549,2.048,1.135c1.141,0.588,1.786,0.934,1.936,1.041c0.149,0.106,0.225,0.234,0.225,0.383&#13;&#10;&#9;&#9;c0,0.15-0.075,0.316-0.225,0.496c-0.149,0.182-0.598,1.425-1.344,3.729c-0.256,0.768-0.624,1.605-1.104,2.512&#13;&#10;&#9;&#9;c-0.48,0.906-0.859,1.525-1.137,1.856s-0.544,0.815-0.8,1.456c-0.128,0.277-0.31,0.416-0.544,0.416&#13;&#10;&#9;&#9;c-0.235,0-0.907-0.475-2.016-1.424c-1.109-0.949-1.872-1.766-2.288-2.448s-0.624-1.088-0.624-1.216&#13;&#10;&#9;&#9;c0-0.129,0.037-0.192,0.111-0.192c0.075,0,0.197,0.054,0.368,0.16c1.365,0.917,2.368,1.376,3.008,1.376&#13;&#10;&#9;&#9;c0.277,0,0.518-0.08,0.721-0.24c0.202-0.16,0.484-0.539,0.848-1.136c0.362-0.597,0.704-1.322,1.024-2.176&#13;&#10;&#9;&#9;c0.319-0.853,0.479-1.579,0.479-2.177c0-0.597-0.24-1.108-0.72-1.535c-0.48-0.427-0.971-0.641-1.472-0.641&#13;&#10;&#9;&#9;c-0.502,0-0.812,0.037-0.929,0.112s-0.277,0.283-0.479,0.624c-0.203,0.342-0.87,1.174-2,2.496l-1.856,2.176&#13;&#10;&#9;&#9;c-1.707,2.049-2.827,3.072-3.359,3.072c-0.149,0-0.363-0.086-0.641-0.256c-0.277-0.172-0.485-0.277-0.624-0.32&#13;&#10;&#9;&#9;c-0.139-0.043-0.208-0.149-0.208-0.32s0.064-0.277,0.192-0.32c0.533-0.256,1.296-0.896,2.288-1.92&#13;&#10;&#9;&#9;c0.992-1.023,1.952-2.218,2.88-3.584c0.928-1.364,1.392-2.229,1.392-2.592c0-0.362-0.165-0.543-0.496-0.543&#13;&#10;&#9;&#9;s-0.741,0.079-1.231,0.239c-0.491,0.16-1.179,0.353-2.064,0.576c-0.885,0.224-1.567,0.357-2.048,0.399&#13;&#10;&#9;&#9;c-0.48,0.043-1.088,0.176-1.824,0.4c-0.736,0.225-1.259,0.432-1.568,0.624c-0.31,0.192-0.528,0.288-0.656,0.288&#13;&#10;&#9;&#9;s-0.219-0.096-0.272-0.288c-0.054-0.192-0.139-0.421-0.256-0.688c-0.118-0.266-0.176-0.441-0.176-0.527&#13;&#10;&#9;&#9;c0-0.256,0.17-0.385,0.512-0.385c0.341,0,1.045-0.201,2.112-0.607c0.256-0.085,0.843-0.256,1.76-0.512&#13;&#10;&#9;&#9;c0.917-0.256,1.46-0.405,1.632-0.448c0.831-0.149,1.877-0.437,3.136-0.864c1.258-0.427,1.946-0.704,2.063-0.832&#13;&#10;&#9;&#9;s0.149-0.347,0.097-0.656c-0.054-0.309-0.08-0.683-0.08-1.12c0-0.437,0.085-0.789,0.256-1.056c0.17-0.267,0.378-0.4,0.624-0.4&#13;&#10;&#9;&#9;c0.245,0,0.427,0.08,0.544,0.24s0.219,0.24,0.304,0.24c0.213,0,0.4-0.352,0.561-1.056c0.159-0.704,0.239-1.093,0.239-1.168&#13;&#10;&#9;&#9;s-0.059-0.149-0.176-0.224c-0.117-0.075-0.347-0.112-0.688-0.112c-0.342,0-0.694,0.064-1.057,0.192S12.55,8.637,12.55,8.797&#13;&#10;&#9;&#9;c0,0.16,0.059,0.352,0.176,0.576c0.117,0.224,0.177,0.448,0.177,0.672c0,0.224-0.166,0.416-0.496,0.576&#13;&#10;&#9;&#9;c-0.331,0.16-0.608,0.24-0.832,0.24c-0.225,0-0.454-0.203-0.688-0.608s-0.438-0.608-0.607-0.608c-0.342,0-0.939,0.363-1.792,1.088&#13;&#10;&#9;&#9;c-0.235,0.192-0.476,0.288-0.721,0.288s-0.405-0.048-0.479-0.144c-0.075-0.096-0.304-0.458-0.688-1.088&#13;&#10;&#9;&#9;C6.214,9.16,6.022,8.802,6.022,8.717c0-0.192,0.144-0.288,0.432-0.288s0.794-0.123,1.52-0.368c0.726-0.245,1.131-0.405,1.217-0.48&#13;&#10;&#9;&#9;c0.085-0.074,0.128-0.187,0.128-0.336c0-0.149-0.043-0.331-0.128-0.544c-0.576-1.387-0.864-2.4-0.864-3.04&#13;&#10;&#9;&#9;c0-0.213,0.112-0.416,0.336-0.608s0.475-0.288,0.752-0.288c0.917,0,1.498,0.054,1.744,0.16c0.245,0.107,0.368,0.272,0.368,0.496&#13;&#10;&#9;&#9;c0,0.224-0.021,0.4-0.064,0.528s-0.063,0.32-0.063,0.576c0,0.256,0.026,0.688,0.079,1.296c0.054,0.608,0.155,0.949,0.305,1.024&#13;&#10;&#9;&#9;c0.148,0.075,0.298,0.102,0.448,0.08L14.438,6.573z" stroke-width="1"/>
    </g>
    <g/>
    <g/>
    <g/>
    <g/>
    <g/>
    <g/>
    <g/>
    <g/>
    <g/>
    <g/>
    <g/>
    <g/>
    <g/>
    <g/>
    <g/>
  </g>
</svg>