<svg xmlns="http://www.w3.org/2000/svg" xmlns:xlink="http://www.w3.org/1999/xlink" version="1.1" id="图层_1" x="0px" y="0px" width="22.24799919128418" height="24.518997192382812" viewBox="2.930000066757202 2.169003963470459 22.24799919128418 24.518997192382812" style="enable-background:new 0 0 30 30;" xml:space="preserve">
  <g>
    <g>
      <path style="fill:#0000FF;" d="M10.342,15.277c0,0.555-0.251,1.728-0.752,3.52s-1.051,2.965-1.647,3.52&#13;&#10;&#9;&#9;c-0.235,0.214-0.518,0.592-0.849,1.137c-0.331,0.543-0.555,0.986-0.672,1.328c-0.117,0.34-0.262,0.512-0.432,0.512&#13;&#10;&#9;&#9;c-0.363,0-0.88-0.545-1.552-1.633S3.43,21.282,3.43,19.789c0-0.811,0.245-2.283,0.736-4.417c0.149-0.64,0.224-1.178,0.224-1.616&#13;&#10;&#9;&#9;c0-0.437-0.032-0.794-0.096-1.072c-0.064-0.277-0.096-0.469-0.096-0.576c0-0.32,0.224-0.48,0.672-0.48&#13;&#10;&#9;&#9;c0.704,0,1.28,0.117,1.728,0.352c0.448,0.235,0.673,0.496,0.673,0.784s-0.182,0.518-0.545,0.688&#13;&#10;&#9;&#9;c-0.362,0.171-0.832,0.923-1.408,2.256c-0.576,1.333-0.864,2.395-0.864,3.184s0.117,1.334,0.352,1.633&#13;&#10;&#9;&#9;c0.234,0.299,0.48,0.447,0.736,0.447c0.832,0,2.24-1.813,4.224-5.44c0.214-0.362,0.363-0.544,0.448-0.544&#13;&#10;&#9;&#9;S10.342,15.084,10.342,15.277z M7.302,4.141c0.192,0,0.379,0.187,0.561,0.56c0.181,0.374,0.655,0.912,1.424,1.616&#13;&#10;&#9;&#9;c0.256,0.235,0.517,0.587,0.784,1.056c0.267,0.47,0.399,0.859,0.399,1.168c0,0.31-0.182,0.528-0.544,0.656s-0.65,0.192-0.863,0.192&#13;&#10;&#9;&#9;c-0.214,0-0.443-0.075-0.688-0.224c-0.245-0.149-0.592-0.309-1.04-0.48c-0.448-0.17-0.731-0.362-0.848-0.576&#13;&#10;&#9;&#9;C6.368,7.896,6.31,7.368,6.31,6.525s0.112-1.451,0.337-1.824C6.87,4.328,7.089,4.141,7.302,4.141z M24.678,11.405&#13;&#10;&#9;&#9;c0,0.192-0.069,0.384-0.208,0.576c-0.139,0.192-0.208,0.491-0.208,0.896c-0.021,1.878-0.123,3.403-0.304,4.577&#13;&#10;&#9;&#9;c-0.182,1.173-0.229,2.154-0.144,2.943c0.042,0.47,0.063,0.832,0.063,1.088s-0.016,0.571-0.048,0.944&#13;&#10;&#9;&#9;c-0.032,0.374-0.048,0.741-0.048,1.104l0.032,1.791c0,0.576-0.14,0.864-0.416,0.864c-0.15,0-0.544-0.202-1.185-0.608&#13;&#10;&#9;&#9;c-0.64-0.404-1.365-0.837-2.176-1.295c-0.812-0.459-1.59-1.02-2.336-1.681c-0.149-0.128-0.299-0.192-0.448-0.192&#13;&#10;&#9;&#9;s-0.533,0.102-1.152,0.305c-0.618,0.203-1.301,0.475-2.048,0.816c-0.213,0.085-0.384,0.127-0.512,0.127&#13;&#10;&#9;&#9;c-0.427,0-0.726-0.592-0.896-1.775c-0.172-1.184-0.257-2.533-0.257-4.048l0.097-3.04c0-0.427-0.027-0.677-0.08-0.752&#13;&#10;&#9;&#9;c-0.054-0.075-0.256-0.069-0.608,0.016c-0.352,0.085-0.72,0.128-1.104,0.128c-0.385,0-0.576-0.149-0.576-0.448&#13;&#10;&#9;&#9;c0-0.192,0.106-0.384,0.32-0.576c1.088-0.96,2.068-1.941,2.943-2.944c0.875-1.002,1.595-2.005,2.16-3.008s1.077-1.845,1.536-2.528&#13;&#10;&#9;&#9;c0.458-0.683,0.763-1.258,0.912-1.728c0.042-0.192,0.165-0.288,0.368-0.288c0.202,0,0.629,0.166,1.279,0.496&#13;&#10;&#9;&#9;c0.65,0.331,0.977,0.603,0.977,0.816c0,0.214-0.171,0.379-0.513,0.496c-0.341,0.118-0.629,0.278-0.863,0.48&#13;&#10;&#9;&#9;c-0.235,0.203-0.571,0.678-1.008,1.424c-0.438,0.747-0.934,1.44-1.488,2.08c-0.555,0.64-0.955,1.227-1.2,1.76&#13;&#10;&#9;&#9;c-0.245,0.534-0.368,0.854-0.368,0.96c0,0.192,0.117,0.246,0.353,0.16c2.389-0.725,4.416-1.088,6.08-1.088&#13;&#10;&#9;&#9;c0.917,0,1.658,0.112,2.224,0.336C24.396,10.813,24.678,11.084,24.678,11.405z M20.134,22.765c0.256,0,0.421-0.091,0.496-0.272&#13;&#10;&#9;&#9;c0.074-0.181,0.112-0.592,0.112-1.231s-0.021-1.136-0.064-1.488c-0.043-0.352-0.063-0.73-0.063-1.136l0.032-1.408&#13;&#10;&#9;&#9;c0-0.811-0.049-1.642-0.145-2.496c-0.096-0.853-0.176-1.397-0.24-1.632c-0.063-0.234-0.197-0.416-0.399-0.544&#13;&#10;&#9;&#9;c-0.203-0.128-0.476-0.192-0.816-0.192c-0.342,0-0.773,0.091-1.296,0.272c-0.523,0.182-1.062,0.421-1.616,0.72&#13;&#10;&#9;&#9;s-0.875,0.523-0.96,0.672c-0.085,0.149-0.128,0.357-0.128,0.624c0,0.267,0.096,0.4,0.288,0.4s0.57-0.037,1.136-0.112&#13;&#10;&#9;&#9;s1.003-0.112,1.313-0.112c0.309,0,0.527,0.038,0.656,0.112c0.128,0.075,0.191,0.32,0.191,0.736s-0.054,0.735-0.16,0.96&#13;&#10;&#9;&#9;s-0.341,0.379-0.704,0.464c-0.917,0.214-1.621,0.442-2.111,0.688c-0.491,0.245-0.784,0.427-0.88,0.543&#13;&#10;&#9;&#9;c-0.097,0.118-0.145,0.336-0.145,0.656s0.021,0.528,0.064,0.625c0.042,0.096,0.111,0.144,0.208,0.144&#13;&#10;&#9;&#9;c0.096,0,0.469-0.059,1.12-0.177c0.65-0.116,1.258-0.176,1.823-0.176s0.858,0.192,0.88,0.576c0.043,0.726,0.097,1.313,0.16,1.76&#13;&#10;&#9;&#9;c0.064,0.448,0.128,0.693,0.192,0.736c0.063,0.043,0.219,0.102,0.464,0.176C19.787,22.728,19.984,22.765,20.134,22.765z" stroke-width="1"/>
    </g>
    <g/>
    <g/>
    <g/>
    <g/>
    <g/>
    <g/>
    <g/>
    <g/>
    <g/>
    <g/>
    <g/>
    <g/>
    <g/>
    <g/>
    <g/>
  </g>
</svg>