<svg xmlns="http://www.w3.org/2000/svg" xmlns:xlink="http://www.w3.org/1999/xlink" version="1.1" id="图层_1" x="0px" y="0px" width="26.760000228881836" height="22.761001586914062" viewBox="3.1399993896484375 3.5819997787475586 26.760000228881836 22.761001586914062" enable-background="new 0 0 30 30" xml:space="preserve">
<g>
	<path fill="#0000FF" d="M25.687,14.099c0.235,0,0.736,0.773,1.505,2.319c0.768,1.547,1.248,3.206,1.439,4.977   c0.043,0.491,0.181,1.109,0.416,1.855c0.234,0.748,0.353,1.265,0.353,1.553c0,0.287-0.054,0.484-0.16,0.592   c-0.107,0.106-0.277,0.16-0.513,0.16h-0.672c-0.277,0-0.768,0.048-1.472,0.145c-0.704,0.096-1.878,0.143-3.52,0.143   c-1.644,0-2.902-0.133-3.776-0.399c-0.875-0.267-1.622-0.757-2.24-1.472c-0.619-0.715-1.109-1.84-1.472-3.376   c-0.363-1.536-0.544-3.067-0.544-4.593c0-1.524,0.059-2.688,0.176-3.487c0.117-0.8,0.176-1.856,0.176-3.168   S15.34,7.24,15.255,6.962c-0.085-0.277-0.262-0.416-0.528-0.416S14.13,6.61,13.735,6.738C13.34,6.867,13.058,7,12.887,7.139   s-0.421,0.416-0.752,0.832s-0.555,0.763-0.672,1.04s-0.214,0.827-0.288,1.648c-0.075,0.821-0.208,1.686-0.399,2.592   c-0.192,0.907-0.513,2.032-0.96,3.376c-0.3,0.896-0.448,1.717-0.448,2.463l0.032,1.281c0,0.426-0.092,0.773-0.272,1.039   c-0.182,0.268-0.55,0.63-1.104,1.088c-0.556,0.459-1.286,0.87-2.192,1.232c-0.907,0.363-1.499,0.544-1.776,0.544   c-0.278,0-0.416-0.106-0.416-0.319s0.272-0.619,0.816-1.217c0.544-0.597,1.136-1.322,1.776-2.176s1.061-1.509,1.264-1.968   c0.202-0.458,0.427-1.083,0.672-1.872s0.41-1.707,0.496-2.752c0.085-1.045,0.117-2.411,0.096-4.096V7.378   c0-0.469,0.074-0.789,0.225-0.96c0.148-0.17,0.549-0.309,1.199-0.416c0.65-0.106,1.157-0.234,1.521-0.384   c2.517-1.024,4.395-1.536,5.632-1.536c0.618,0,1.2,0.128,1.744,0.384c0.544,0.256,0.815,0.496,0.815,0.72s-0.181,0.518-0.544,0.88   c-0.362,0.363-0.667,0.827-0.911,1.392c-0.246,0.565-0.411,1.2-0.496,1.904l-0.48,4.224c-0.256,2.134-0.384,3.744-0.384,4.832   s0.314,2.156,0.944,3.201c0.629,1.045,2.063,1.567,4.304,1.567c0.98,0,1.797-0.091,2.448-0.272c0.65-0.181,1.061-0.389,1.231-0.623   s0.256-0.816,0.256-1.744s-0.085-1.989-0.256-3.185l-0.479-3.008C25.527,14.184,25.58,14.099,25.687,14.099z" stroke-width="1"/>
</g>
</svg>