<svg xmlns="http://www.w3.org/2000/svg" xmlns:xlink="http://www.w3.org/1999/xlink" version="1.1" id="图层_1" x="0px" y="0px" width="24.07200050354004" height="26.793001174926758" viewBox="2.178999185562134 0.8619999885559082 24.07200050354004 26.793001174926758" enable-background="new 0 0 30 30" xml:space="preserve">
<g>
	<path fill="#0000FF" d="M23.863,7.603c0.404,0,0.82,0.326,1.248,0.976c0.426,0.651,0.64,1.168,0.64,1.552   c0,0.512-0.235,0.768-0.704,0.768c-0.191,0-0.405-0.042-0.64-0.128c-0.662-0.213-1.659-0.389-2.992-0.528   c-1.334-0.139-2.64-0.208-3.92-0.208c-0.981,0-1.92,0.08-2.816,0.24c-0.896,0.16-1.855,0.24-2.88,0.24   c-1.023,0-2.384,0.181-4.08,0.544c-1.696,0.363-2.821,0.693-3.376,0.992c-0.213,0.107-0.4,0.16-0.56,0.16   c-0.16,0-0.384-0.261-0.672-0.784s-0.432-0.88-0.432-1.072c0-0.448,0.586-0.683,1.76-0.704C6.06,9.629,7.81,9.416,9.687,9.011   c1.109-0.235,2.513-0.437,4.208-0.608c1.696-0.17,2.949-0.256,3.761-0.256h1.952c0.938,0,1.845-0.09,2.72-0.272   C23.201,7.693,23.714,7.603,23.863,7.603z M21.207,20.627c0,0.17-0.08,0.352-0.24,0.543c-0.16,0.192-0.293,0.438-0.399,0.736   c-0.3,0.939-0.651,1.568-1.057,1.889c-0.191,0.17-0.325,0.404-0.399,0.703c-0.075,0.299-0.123,0.721-0.145,1.265   s-0.224,0.815-0.607,0.815c-0.064,0-0.149-0.011-0.257-0.031c-0.213-0.043-0.661-0.064-1.344-0.064s-1.547,0.059-2.592,0.176   c-1.046,0.117-1.648,0.229-1.808,0.336c-0.16,0.107-0.31,0.16-0.448,0.16s-0.251-0.053-0.336-0.16   c-0.641-0.768-1.248-1.413-1.824-1.936c-0.576-0.523-1.088-1.221-1.536-2.096s-0.672-1.553-0.672-2.032s0.213-0.72,0.64-0.72   c0.213,0,0.47-0.053,0.769-0.16c0.725-0.256,1.792-0.518,3.2-0.784c1.407-0.267,2.603-0.399,3.584-0.399   c1.6,0,2.912,0.191,3.936,0.575C20.695,19.826,21.207,20.222,21.207,20.627z M17.175,11.603c0.405,0,0.73,0.288,0.977,0.864   c0.244,0.576,0.367,0.95,0.367,1.12c0,0.384-0.224,0.576-0.672,0.576c-0.106,0-0.239-0.016-0.399-0.048   c-0.16-0.032-0.561-0.048-1.2-0.048s-1.27,0.075-1.888,0.224c-0.619,0.149-1.168,0.219-1.648,0.208   c-0.479-0.011-0.763-0.016-0.848-0.016c-0.832,0-1.328,0.038-1.488,0.112s-0.283,0.112-0.368,0.112   c-0.256,0-0.432-0.128-0.528-0.384c-0.096-0.256-0.197-0.48-0.304-0.672s-0.16-0.352-0.16-0.48c0-0.32,0.203-0.49,0.608-0.512   c0.938-0.042,1.866-0.181,2.784-0.416c0.917-0.235,1.546-0.389,1.888-0.464c0.341-0.074,0.65-0.112,0.928-0.112l0.832,0.032   L17.175,11.603z M18.743,16.402c0,0.619-0.192,0.928-0.576,0.928c-0.086,0-0.245-0.016-0.48-0.047   c-0.234-0.033-0.555-0.049-0.96-0.049c-1.003,0-1.829,0.092-2.479,0.271c-0.651,0.182-1.147,0.289-1.488,0.32   c-0.341,0.032-0.757,0.049-1.248,0.049s-0.832,0.043-1.023,0.127c-0.192,0.086-0.342,0.129-0.448,0.129   c-0.299,0-0.539-0.203-0.72-0.608c-0.182-0.405-0.272-0.709-0.272-0.912c0-0.202,0.043-0.331,0.128-0.384s0.277-0.08,0.576-0.08   c0.832,0,1.669-0.16,2.512-0.48c0.843-0.319,2.385-0.479,4.624-0.479c0.619,0,1.003,0.021,1.152,0.064   c0.149,0.043,0.304,0.166,0.464,0.369C18.663,15.821,18.743,16.082,18.743,16.402z M12.855,24.211c0.404,0,0.933-0.092,1.584-0.272   c0.65-0.181,1.136-0.453,1.455-0.815c0.32-0.363,0.48-0.699,0.48-1.008c0-0.31-0.112-0.571-0.336-0.785   c-0.224-0.213-0.496-0.319-0.816-0.319c-0.319,0-0.837,0.069-1.552,0.208s-1.205,0.251-1.472,0.336   c-0.268,0.086-0.476,0.245-0.624,0.48c-0.149,0.234-0.225,0.512-0.225,0.832C11.351,23.763,11.852,24.211,12.855,24.211z    M13.623,1.362c0.277,0,0.464,0.155,0.56,0.464c0.097,0.31,0.31,0.763,0.641,1.36c0.33,0.598,0.618,1.083,0.863,1.456   c0.245,0.374,0.368,0.773,0.368,1.2c0,0.598-0.277,0.896-0.832,0.896c-0.512,0-1.189-0.218-2.031-0.656   c-0.844-0.437-1.265-0.986-1.265-1.648c0-0.234,0.069-0.629,0.208-1.184c0.139-0.555,0.357-1.008,0.656-1.36   S13.367,1.362,13.623,1.362z" stroke-width="1"/>
</g>
</svg>