<svg xmlns="http://www.w3.org/2000/svg" xmlns:xlink="http://www.w3.org/1999/xlink" version="1.1" id="图层_1" x="0px" y="0px" width="22.53600311279297" height="25.54400062561035" viewBox="2.5309970378875732 2.5909996032714844 22.53600311279297 25.54400062561035" enable-background="new 0 0 30 30" xml:space="preserve">
<g>
	<path fill="#0000FF" d="M24.567,12.307c0,0.469-0.182,0.704-0.544,0.704c-0.086,0-0.288-0.021-0.608-0.064   c-0.32-0.042-0.864-0.064-1.632-0.064c-0.769,0-1.67,0.043-2.704,0.128c-1.035,0.085-1.664,0.155-1.888,0.208   c-0.225,0.053-0.374,0.133-0.448,0.24c-0.075,0.107-0.112,0.277-0.112,0.512c-0.043,2.283-0.112,4.453-0.208,6.512   s-0.224,3.516-0.384,4.368s-0.24,1.515-0.24,1.983c-0.021,0.533-0.234,0.801-0.64,0.801s-1.28-0.15-2.624-0.449   c-1.344-0.298-2.454-0.698-3.328-1.199c-0.875-0.502-1.313-0.848-1.313-1.04c0-0.128,0.24-0.176,0.721-0.144   c0.479,0.031,1.151,0.048,2.016,0.048s1.627-0.102,2.288-0.304c0.661-0.203,1.083-0.848,1.264-1.937   c0.182-1.088,0.272-2.074,0.272-2.96c0-0.885-0.027-2.016-0.08-3.393c-0.054-1.375-0.102-2.138-0.144-2.287   c-0.043-0.149-0.203-0.224-0.48-0.224c-0.149,0-0.363,0.032-0.64,0.096c-3.691,0.704-5.782,1.056-6.272,1.056   c-0.491,0-0.971,0.048-1.44,0.144s-0.811,0.208-1.024,0.336c-0.213,0.127-0.411,0.192-0.592,0.192   c-0.182,0-0.352-0.229-0.512-0.688c-0.16-0.458-0.24-0.794-0.24-1.008c0-0.213,0.107-0.32,0.32-0.32l0.576,0.032   c0.832,0,1.909-0.192,3.232-0.576c2.837-0.832,4.938-1.387,6.304-1.664c0.362-0.064,0.544-0.229,0.544-0.496   c0-0.267-0.043-0.64-0.128-1.12s-0.197-0.965-0.336-1.456c-0.139-0.49-0.277-0.784-0.416-0.88s-0.347-0.17-0.624-0.224   c-0.277-0.053-0.576-0.08-0.896-0.08c-1.152,0-2.038,0.246-2.656,0.736c-0.149,0.107-0.262,0.16-0.336,0.16   c-0.075,0-0.145-0.09-0.208-0.272C8.343,7.534,8.273,7.198,8.199,6.707c-0.075-0.491-0.112-0.811-0.112-0.96   c0-0.149,0.037-0.25,0.112-0.304c0.074-0.053,0.261-0.08,0.56-0.08s0.875-0.085,1.729-0.256c0.853-0.17,1.685-0.4,2.496-0.688   c0.811-0.288,1.509-0.458,2.096-0.512c0.586-0.053,1.316-0.171,2.191-0.352s1.419-0.304,1.633-0.368   c0.213-0.064,0.362-0.096,0.447-0.096c0.427,0,0.816,0.272,1.168,0.816c0.353,0.544,0.528,1.04,0.528,1.488   c0,0.448-0.182,0.651-0.544,0.608c-0.363-0.042-0.795-0.064-1.296-0.064c-0.502,0-0.976,0.059-1.424,0.176s-0.764,0.251-0.944,0.4   c-0.182,0.149-0.293,0.288-0.336,0.416s-0.063,0.384-0.063,0.768l0.128,1.856c0.042,0.555,0.096,0.88,0.159,0.976   c0.064,0.096,0.235,0.123,0.513,0.08c1.279-0.192,2.384-0.331,3.312-0.416c0.928-0.085,1.536-0.165,1.824-0.24   s0.464-0.112,0.528-0.112c0.256,0,0.479,0.182,0.672,0.544c0.191,0.363,0.405,0.715,0.64,1.056   C24.449,11.784,24.567,12.072,24.567,12.307z" stroke-width="1"/>
</g>
</svg>