<svg xmlns="http://www.w3.org/2000/svg" xmlns:xlink="http://www.w3.org/1999/xlink" version="1.1" id="图层_1" x="0px" y="0px" width="25.225000381469727" height="23.527997970581055" viewBox="3.8109989166259766 2.2230019569396973 25.225000381469727 23.527997970581055" enable-background="new 0 0 30 30" xml:space="preserve">
<g>
	<path fill="#0000FF" d="M13.432,8.323c0.106,0,0.234,0.064,0.385,0.192c0.148,0.128,0.224,0.288,0.224,0.48   c0,0.405-0.315,0.96-0.944,1.664c-0.629,0.704-1.066,1.168-1.312,1.392c-0.246,0.224-0.528,0.635-0.849,1.232   c-0.319,0.597-0.479,0.949-0.479,1.056c0,0.107,0.063,0.16,0.192,0.16c0.298,0,0.703-0.234,1.216-0.704   c0.17-0.149,0.309-0.224,0.416-0.224c0.319,0,0.479,0.566,0.479,1.696c0,0.469-0.111,0.811-0.336,1.024   c-0.224,0.213-0.678,0.447-1.359,0.704c-0.684,0.256-1.398,0.677-2.145,1.264c-0.747,0.587-1.206,1.009-1.376,1.265   c-0.171,0.256-0.374,0.384-0.608,0.384c-0.235,0-0.576-0.31-1.024-0.929C5.464,18.36,5.24,17.918,5.24,17.65   c0-0.266,0.154-0.41,0.464-0.432c0.309-0.021,0.816-0.533,1.52-1.535c0.704-1.003,1.056-1.601,1.056-1.792   c0-0.064-0.048-0.096-0.145-0.096c-0.096,0-0.352,0.085-0.768,0.256c-0.416,0.171-0.768,0.374-1.056,0.608   s-0.485,0.352-0.592,0.352c-0.256,0-0.555-0.4-0.896-1.2c-0.342-0.8-0.512-1.317-0.512-1.552c0-0.384,0.213-0.592,0.64-0.624   c0.426-0.032,0.747-0.112,0.96-0.24c0.213-0.128,0.512-0.4,0.896-0.816c0.384-0.416,0.677-0.768,0.88-1.056   c0.203-0.288,0.656-1.04,1.36-2.256l2.368-4.128c0.149-0.277,0.325-0.416,0.528-0.416c0.202,0,0.512,0.197,0.928,0.592   c0.416,0.395,0.624,0.715,0.624,0.96c0,0.246-0.107,0.475-0.32,0.688c-0.704,0.704-1.402,1.686-2.096,2.944s-1.04,1.989-1.04,2.192   s0.085,0.304,0.256,0.304c0.576,0,1.189-0.346,1.84-1.04C12.786,8.67,13.219,8.323,13.432,8.323z M12.248,17.891   c0.128,0,0.261,0.182,0.4,0.545c0.138,0.362,0.208,0.65,0.208,0.863c0,0.214-0.225,0.47-0.673,0.768   c-1.173,0.79-2.144,1.531-2.911,2.225C8.504,22.984,7.747,23.854,7,24.899c-0.171,0.234-0.331,0.352-0.48,0.352   c-0.149,0-0.277-0.064-0.384-0.192c-0.448-0.512-0.843-0.911-1.184-1.199C4.61,23.571,4.44,23.31,4.44,23.075   c0-0.235,0.181-0.448,0.544-0.64c1.643-0.896,3.152-1.781,4.528-2.656s2.16-1.408,2.353-1.6   C12.056,17.986,12.184,17.891,12.248,17.891z M28.536,21.955c0,0.49-0.117,0.736-0.353,0.736c-0.234,0-0.64-0.102-1.216-0.305   c-0.576-0.202-1.189-0.352-1.84-0.447c-0.651-0.097-1.595-0.145-2.832-0.145c-3.179,0-5.525,0.203-7.04,0.607   c-1.515,0.406-2.485,0.822-2.912,1.249c-0.191,0.171-0.373,0.256-0.544,0.256s-0.39-0.197-0.656-0.592s-0.399-0.704-0.399-0.929   c0-0.224,0.191-0.389,0.576-0.496c1.429-0.362,2.704-0.752,3.823-1.168c1.12-0.416,1.819-0.72,2.097-0.912   c0.276-0.191,0.527-1.039,0.752-2.543c0.224-1.504,0.336-2.705,0.336-3.601c0-0.362-0.102-0.603-0.304-0.72   c-0.203-0.117-0.448-0.176-0.736-0.176s-0.582,0.085-0.88,0.256c-0.299,0.171-0.539,0.256-0.72,0.256   c-0.182,0-0.294-0.171-0.337-0.512c-0.085-0.64-0.197-1.227-0.336-1.76s-0.208-0.896-0.208-1.088c0-0.448,0.203-0.65,0.608-0.608   c0.597,0.064,1.141,0.096,1.632,0.096c1.088,0,2.123-0.17,3.104-0.512c2.048-0.725,3.424-1.088,4.128-1.088   c0.276,0,0.464,0.166,0.56,0.496c0.096,0.331,0.145,0.773,0.145,1.328c0,0.363-0.14,0.667-0.416,0.912   c-0.278,0.246-0.981,0.72-2.112,1.424c-0.277,0.171-0.464,0.363-0.56,0.576c-0.097,0.214-0.252,1.056-0.465,2.528   c-0.213,1.472-0.319,2.677-0.319,3.616c0,0.17,0.037,0.293,0.111,0.367c0.075,0.075,0.305,0.134,0.688,0.176   c0.384,0.043,0.789,0.064,1.216,0.064l3.008-0.128c0.576,0,1.12,0.31,1.632,0.929C28.28,20.718,28.536,21.336,28.536,21.955z" stroke-width="1"/>
</g>
</svg>