<svg xmlns="http://www.w3.org/2000/svg" xmlns:xlink="http://www.w3.org/1999/xlink" version="1.1" id="图层_1" x="0px" y="0px" width="27.46500015258789" height="27.65599822998047" viewBox="1.5209994316101074 0.9530000686645508 27.46500015258789 27.65599822998047" style="enable-background:new 0 0 30 30;" xml:space="preserve">
  <g>
    <g>
      <path style="fill:#0000FF;" d="M28.486,27.404c0,0.192-0.331,0.357-0.992,0.496s-1.552,0.209-2.672,0.209s-2.075-0.129-2.864-0.385&#13;&#10;&#9;&#9;c-0.384-0.128-0.661-0.203-0.832-0.225s-0.496-0.031-0.976-0.031c-0.48,0-0.721-0.256-0.721-0.768c0-0.684-0.197-1.302-0.592-1.856&#13;&#10;&#9;&#9;c-0.395-0.556-0.827-0.896-1.296-1.024c-0.47-0.127-0.816-0.256-1.04-0.384s-0.411-0.192-0.56-0.192&#13;&#10;&#9;&#9;c-0.149,0-0.294,0.06-0.433,0.177s-0.405,0.272-0.8,0.464s-1.062,0.661-2,1.408c-0.47,0.384-1.019,0.576-1.647,0.576&#13;&#10;&#9;&#9;c-0.63,0-1.248-0.107-1.856-0.32c-0.608-0.214-0.912-0.406-0.912-0.576c0-0.171,0.309-0.331,0.928-0.48&#13;&#10;&#9;&#9;c0.619-0.148,1.531-0.517,2.736-1.104c1.205-0.586,1.808-1.008,1.808-1.264s-0.325-0.545-0.976-0.864&#13;&#10;&#9;&#9;c-0.651-0.319-1.291-0.479-1.92-0.479c-0.63,0-1.291,0.399-1.984,1.199c-0.693,0.801-1.109,1.408-1.248,1.824&#13;&#10;&#9;&#9;s-0.57,0.768-1.296,1.057c-0.725,0.287-1.413,0.432-2.064,0.432s-1.189-0.043-1.616-0.129c-0.427-0.085-0.64-0.17-0.64-0.256&#13;&#10;&#9;&#9;c0-0.191,0.811-0.629,2.432-1.312c1.322-0.555,2.661-1.567,4.016-3.04s2.032-2.347,2.032-2.624c0-0.106-0.032-0.213-0.096-0.319&#13;&#10;&#9;&#9;c-0.064-0.107-0.192-0.16-0.384-0.16c-0.192,0-0.368,0.053-0.528,0.16c-0.16,0.106-0.283,0.159-0.368,0.159&#13;&#10;&#9;&#9;c-0.214,0-0.479-0.309-0.8-0.928c-0.32-0.618-0.48-1.013-0.48-1.184c0-0.17,0.026-0.267,0.08-0.288&#13;&#10;&#9;&#9;c0.054-0.021,0.24-0.032,0.561-0.032c0.319,0,0.645-0.075,0.976-0.224c0.331-0.149,0.837-0.32,1.521-0.512&#13;&#10;&#9;&#9;c0.682-0.192,1.076-0.325,1.184-0.4c0.106-0.074,0.208-0.272,0.304-0.592c0.097-0.32,0.145-0.629,0.145-0.928&#13;&#10;&#9;&#9;c0-0.256-0.128-0.384-0.384-0.384c-0.534,0-1.195,0.133-1.984,0.4c-0.79,0.267-1.264,0.48-1.424,0.64&#13;&#10;&#9;&#9;c-0.16,0.16-0.374,0.24-0.641,0.24s-0.475-0.123-0.624-0.368s-0.224-0.437-0.224-0.576c0-0.139,0.059-0.256,0.176-0.352&#13;&#10;&#9;&#9;s0.433-0.256,0.944-0.48s1.509-0.565,2.992-1.024c1.482-0.458,2.416-0.73,2.8-0.816c0.384-0.085,1.152-0.848,2.304-2.288&#13;&#10;&#9;&#9;c1.152-1.44,1.797-2.309,1.937-2.608c0.139-0.299,0.347-0.448,0.624-0.448c0.276,0,0.581,0.166,0.912,0.496&#13;&#10;&#9;&#9;c0.33,0.331,0.495,0.613,0.495,0.848s-0.224,0.501-0.672,0.8l-0.896,0.8c-0.79,0.683-1.185,1.12-1.185,1.312&#13;&#10;&#9;&#9;c0,0.192,0.123,0.272,0.368,0.24s0.464-0.048,0.656-0.048c0.661,0,1.477,0.149,2.448,0.448c0.971,0.299,1.973,1.142,3.008,2.528&#13;&#10;&#9;&#9;c1.034,1.387,1.552,2.261,1.552,2.624c0,0.363-0.363,0.544-1.088,0.544c-0.491,0-0.896,0.032-1.216,0.096s-0.678,0.096-1.072,0.096&#13;&#10;&#9;&#9;s-0.901-0.064-1.52-0.192c-0.619-0.128-0.992-0.192-1.12-0.192s-0.246,0.032-0.353,0.096s-0.341,0.118-0.704,0.16&#13;&#10;&#9;&#9;c-1.365,0.107-2.597,0.347-3.695,0.72c-1.1,0.374-1.792,0.763-2.08,1.167c-0.288,0.406-0.433,0.758-0.433,1.057&#13;&#10;&#9;&#9;c0,0.447,0.272,0.816,0.816,1.104c0.544,0.289,0.954,0.518,1.232,0.688c0.276,0.171,0.501,0.256,0.672,0.256&#13;&#10;&#9;&#9;c0.17,0,0.314-0.181,0.432-0.544c0.117-0.362,0.176-0.693,0.176-0.992s-0.117-0.447-0.352-0.447c-0.043,0-0.123,0.026-0.24,0.08&#13;&#10;&#9;&#9;c-0.117,0.053-0.283,0.08-0.496,0.08s-0.427-0.07-0.64-0.209c-0.214-0.139-0.32-0.261-0.32-0.367c0-0.107,0.085-0.182,0.256-0.225&#13;&#10;&#9;&#9;s0.331-0.111,0.48-0.208c0.148-0.096,0.522-0.213,1.12-0.353c0.597-0.138,1.082-0.207,1.456-0.207c0.373,0,0.8,0.069,1.279,0.207&#13;&#10;&#9;&#9;c0.48,0.14,0.721,0.316,0.721,0.529s-0.118,0.475-0.353,0.783c-0.234,0.31-0.544,0.838-0.928,1.584&#13;&#10;&#9;&#9;c-0.384,0.747-0.576,1.222-0.576,1.424c0,0.203,0.091,0.385,0.272,0.545c0.181,0.16,0.475,0.432,0.88,0.815&#13;&#10;&#9;&#9;c0.404,0.384,0.88,0.72,1.424,1.008s1.269,0.56,2.176,0.816c0.906,0.256,2.043,0.65,3.408,1.184s2.219,0.907,2.56,1.12&#13;&#10;&#9;&#9;C28.315,27.105,28.486,27.277,28.486,27.404z M6.63,13.741c0,0.192-0.048,0.411-0.144,0.656c-0.097,0.246-0.145,0.656-0.145,1.232&#13;&#10;&#9;&#9;l0.032,0.96c0,0.341-0.107,0.512-0.32,0.512c-0.213,0-0.571-0.101-1.072-0.304c-0.501-0.203-0.875-0.395-1.12-0.576&#13;&#10;&#9;&#9;s-0.368-0.357-0.368-0.528c0-0.405,0.395-0.912,1.184-1.52c0.789-0.608,1.312-0.912,1.568-0.912S6.63,13.421,6.63,13.741z&#13;&#10;&#9;&#9; M17.734,1.453c0.426,0,0.772,0.208,1.04,0.624c0.266,0.416,0.399,0.731,0.399,0.944c0,0.214-0.16,0.32-0.479,0.32&#13;&#10;&#9;&#9;c-0.32,0-0.987,0.102-2,0.304c-1.014,0.203-1.91,0.47-2.688,0.8c-0.779,0.331-1.264,0.795-1.456,1.392&#13;&#10;&#9;&#9;c-0.063,0.192-0.149,0.32-0.256,0.384s-0.288,0.118-0.544,0.16C10.086,6.68,9.063,6.909,8.678,7.069&#13;&#10;&#9;&#9;c-0.384,0.16-0.726,0.24-1.023,0.24c-0.299,0-0.448-0.069-0.448-0.208c0-0.138,0.384-0.533,1.152-1.184&#13;&#10;&#9;&#9;c0.768-0.65,1.578-1.146,2.432-1.488c0.853-0.341,1.643-0.699,2.368-1.072c0.725-0.373,1.567-0.768,2.527-1.184&#13;&#10;&#9;&#9;c0.961-0.416,1.51-0.64,1.648-0.672C17.473,1.469,17.606,1.453,17.734,1.453z M11.238,8.077c0,0.107-0.043,0.224-0.128,0.352&#13;&#10;&#9;&#9;c-0.428,0.64-0.79,1.312-1.088,2.016c-0.064,0.171-0.192,0.256-0.385,0.256c-0.191,0-0.549-0.16-1.071-0.48&#13;&#10;&#9;&#9;c-0.523-0.32-0.779-0.586-0.769-0.8S7.899,9.063,8.07,8.989C8.24,8.914,8.417,8.77,8.598,8.557&#13;&#10;&#9;&#9;c0.182-0.213,0.491-0.411,0.929-0.592c0.437-0.181,0.832-0.272,1.184-0.272C11.063,7.693,11.238,7.821,11.238,8.077z M15.558,6.029&#13;&#10;&#9;&#9;c0,0.192-0.181,0.597-0.544,1.216l-0.735,1.216c-0.107,0.171-0.246,0.256-0.416,0.256c-0.171,0-0.406-0.181-0.704-0.544&#13;&#10;&#9;&#9;C12.859,7.81,12.71,7.554,12.71,7.405c0-0.149,0.08-0.25,0.24-0.304c0.16-0.053,0.325-0.133,0.496-0.24&#13;&#10;&#9;&#9;c1.066-0.661,1.685-0.992,1.855-0.992S15.558,5.922,15.558,6.029z M22.822,12.045c0-0.427-0.305-0.805-0.912-1.136&#13;&#10;&#9;&#9;c-0.608-0.331-1.339-0.496-2.192-0.496s-1.728,0.171-2.624,0.512c-0.896,0.341-1.478,0.699-1.744,1.072&#13;&#10;&#9;&#9;c-0.267,0.374-0.399,0.672-0.399,0.896s0.187,0.336,0.56,0.336s0.747-0.096,1.12-0.288c0.373-0.192,0.784-0.288,1.232-0.288&#13;&#10;&#9;&#9;c0.447,0,0.772,0.107,0.976,0.32c0.202,0.213,0.357,0.459,0.464,0.736c0.128,0.299,0.277,0.448,0.448,0.448&#13;&#10;&#9;&#9;c0.299,0,0.885-0.219,1.76-0.656C22.385,13.063,22.822,12.578,22.822,12.045z" stroke-width="1"/>
    </g>
    <g/>
    <g/>
    <g/>
    <g/>
    <g/>
    <g/>
    <g/>
    <g/>
    <g/>
    <g/>
    <g/>
    <g/>
    <g/>
    <g/>
    <g/>
  </g>
</svg>