<svg xmlns="http://www.w3.org/2000/svg" xmlns:xlink="http://www.w3.org/1999/xlink" version="1.1" id="图层_1" x="0px" y="0px" width="23.911998748779297" height="23.079002380371094" viewBox="2.211000919342041 2.783999443054199 23.911998748779297 23.079002380371094" enable-background="new 0 0 30 30" xml:space="preserve">
<g>
	<path fill="#0000FF" d="M9.975,14.066c0,0.619-0.352,2.054-1.056,4.305c-0.704,2.25-1.397,3.979-2.08,5.184   c-0.683,1.205-1.227,1.808-1.632,1.808c-0.235,0-0.587-0.299-1.056-0.896c-0.469-0.598-0.827-1.365-1.072-2.305   c-0.246-0.938-0.368-1.803-0.368-2.592s0.139-1.968,0.416-3.535c0.277-1.569,0.501-2.544,0.672-2.929   c0.171-0.384,0.357-0.576,0.56-0.576c0.203,0,0.533,0.139,0.992,0.416c0.458,0.278,0.736,0.48,0.832,0.608   c0.096,0.128,0.144,0.288,0.144,0.48c0,0.363-0.182,0.693-0.544,0.992c-0.576,0.427-1.099,1.222-1.568,2.384   c-0.469,1.164-0.704,2.172-0.704,3.024c0,1.194,0.33,1.792,0.992,1.792c1.387,0,3.029-2.592,4.928-7.776   c0.149-0.427,0.277-0.64,0.385-0.64C9.922,13.811,9.975,13.896,9.975,14.066z M9.495,9.075c0,0.277-0.043,0.491-0.128,0.64   c-0.086,0.15-0.396,0.224-0.928,0.224c-0.534,0-1.035-0.08-1.504-0.24c-0.47-0.16-0.79-0.357-0.96-0.592   C5.804,8.872,5.719,8.52,5.719,8.05c0-0.896,0.139-1.573,0.416-2.032C6.412,5.56,6.658,5.331,6.871,5.331   c0.213,0,0.395,0.144,0.544,0.432c0.149,0.288,0.533,0.741,1.152,1.36C9.186,7.742,9.495,8.392,9.495,9.075z M25.623,23.666   c0,0.555-0.182,0.832-0.544,0.832c-0.128,0-0.299-0.031-0.512-0.096c-2.518-0.682-4.4-1.023-5.648-1.023s-2.544,0.148-3.888,0.447   c-1.729,0.405-3.18,0.629-4.353,0.672l-0.896,0.129c-0.214,0-0.384-0.134-0.513-0.4c-0.128-0.267-0.191-0.533-0.191-0.8   s0.181-0.4,0.544-0.4c0.149,0,0.64-0.08,1.472-0.239c0.832-0.16,1.803-0.385,2.912-0.672c1.109-0.289,2.117-0.496,3.024-0.625   c0.906-0.128,1.732-0.191,2.479-0.191s1.558-0.043,2.433-0.129c0.874-0.084,1.424-0.159,1.647-0.224   c0.225-0.063,0.421-0.096,0.592-0.096s0.31,0.08,0.416,0.239c0.106,0.16,0.305,0.539,0.593,1.137   C25.479,22.824,25.623,23.305,25.623,23.666z M24.503,13.042c0,0.128-0.043,0.246-0.128,0.352c-0.214,0.277-0.47,0.891-0.768,1.84   c-0.3,0.949-0.646,1.819-1.04,2.607c-0.396,0.79-0.678,1.297-0.849,1.521s-0.319,0.337-0.448,0.337   c-0.128,0-0.287-0.021-0.479-0.064s-0.544-0.064-1.056-0.064c-0.513,0-1.302,0.075-2.368,0.225   c-1.067,0.148-1.718,0.277-1.952,0.384c-0.235,0.106-0.475,0.159-0.72,0.159c-0.246,0-0.464-0.068-0.656-0.207   s-0.539-0.57-1.04-1.297c-0.502-0.725-0.891-1.594-1.168-2.607c-0.277-1.013-0.416-1.739-0.416-2.176   c0-0.437,0.277-0.741,0.832-0.912c1.045-0.363,1.829-0.699,2.352-1.008c0.522-0.309,0.869-0.613,1.04-0.912   c0.641-1.088,1.285-1.92,1.937-2.496c0.65-0.576,0.976-1.131,0.976-1.664c0-0.298-0.091-0.549-0.271-0.752   c-0.182-0.203-0.331-0.304-0.448-0.304s-0.288,0.091-0.512,0.272c-0.225,0.182-0.565,0.507-1.024,0.976   c-0.459,0.47-0.773,0.854-0.944,1.152c-0.171,0.299-0.304,0.656-0.399,1.072s-0.246,0.741-0.448,0.976   c-0.203,0.235-0.635,0.56-1.296,0.976c-0.661,0.416-1.285,0.747-1.872,0.992c-0.587,0.246-1.014,0.368-1.28,0.368   s-0.399-0.075-0.399-0.224c0-0.085,0.068-0.234,0.208-0.448c0.139-0.213,0.576-0.699,1.312-1.456   c0.736-0.757,1.274-1.285,1.616-1.584c0.597-0.533,1.211-1.227,1.84-2.08c0.629-0.853,1.27-1.626,1.92-2.32   c0.65-0.693,1.057-1.098,1.216-1.216c0.16-0.117,0.325-0.176,0.496-0.176s0.416,0.123,0.736,0.368   c0.32,0.246,0.479,0.48,0.479,0.704s-0.128,0.416-0.384,0.576c-0.256,0.16-0.384,0.336-0.384,0.528s0.064,0.315,0.192,0.368   s0.341,0.08,0.64,0.08s0.522,0.032,0.672,0.096s0.368,0.229,0.656,0.496c0.288,0.267,0.458,0.438,0.512,0.512   c0.053,0.075,0.08,0.197,0.08,0.368c0,0.171-0.117,0.347-0.352,0.528c-0.235,0.181-0.485,0.453-0.752,0.816   c-0.268,0.363-0.544,0.672-0.832,0.928c-0.288,0.256-0.464,0.47-0.528,0.64c-0.064,0.171-0.096,0.31-0.096,0.416   c0,0.107,0.053,0.176,0.16,0.208c0.106,0.032,0.522,0.048,1.247,0.048c0.726,0,1.365,0.123,1.921,0.368   c0.554,0.246,1.071,0.518,1.552,0.816C24.263,12.445,24.503,12.744,24.503,13.042z M14.775,18.482c0.213,0,0.484-0.074,0.815-0.225   c0.331-0.148,0.496-0.441,0.496-0.879s-0.069-0.635-0.208-0.592s-0.251,0.063-0.336,0.063c-0.299,0-0.507-0.128-0.624-0.384   s-0.176-0.507-0.176-0.752s0.059-0.443,0.176-0.592c0.117-0.149,0.251-0.224,0.4-0.224c0.148,0,0.314-0.042,0.496-0.128   c0.181-0.085,0.271-0.267,0.271-0.544c0-0.277-0.037-0.485-0.112-0.624c-0.074-0.139-0.245-0.208-0.512-0.208   s-0.607,0.166-1.023,0.496c-0.416,0.331-0.624,0.891-0.624,1.68c0,0.385,0.053,0.907,0.159,1.568s0.225,1.051,0.353,1.168   S14.604,18.482,14.775,18.482z M20.823,14.163c0-1.066-0.587-1.6-1.76-1.6c-0.342,0-0.566,0.075-0.673,0.224   c-0.106,0.149-0.159,0.363-0.159,0.64s0.031,0.443,0.096,0.496c0.063,0.054,0.191,0.091,0.384,0.112   c0.427,0.043,0.64,0.192,0.64,0.448s-0.074,0.576-0.224,0.96s-0.336,0.608-0.56,0.673c-0.225,0.063-0.357,0.133-0.4,0.207   c-0.043,0.075-0.064,0.283-0.064,0.624c0,0.342,0.107,0.513,0.32,0.513s0.501-0.032,0.864-0.097   c0.362-0.063,0.592-0.149,0.688-0.256c0.097-0.106,0.214-0.31,0.353-0.608c0.139-0.298,0.256-0.677,0.352-1.136   C20.775,14.904,20.823,14.504,20.823,14.163z" stroke-width="1"/>
</g>
</svg>