<svg xmlns="http://www.w3.org/2000/svg" xmlns:xlink="http://www.w3.org/1999/xlink" version="1.1" id="图层_1" x="0px" y="0px" width="24.90399932861328" height="26.790000915527344" viewBox="1.8910000324249268 1.375 24.90399932861328 26.790000915527344" enable-background="new 0 0 30 30" xml:space="preserve">
<g>
	<path fill="#0000FF" d="M13.303,9.298c0.234,0,0.427,0.085,0.576,0.256s0.224,0.331,0.224,0.48c0,0.149-0.069,0.304-0.208,0.464   s-0.57,0.592-1.296,1.296c-1.066,1.045-1.621,1.6-1.664,1.664s-0.111,0.406-0.208,1.024c-0.096,0.619-0.144,0.981-0.144,1.088   c0,0.172,0.074,0.299,0.224,0.385c0.875,0.598,1.44,1.093,1.696,1.487c0.256,0.396,0.384,0.892,0.384,1.488   c0,0.341-0.091,0.512-0.271,0.512c-0.182,0-0.433-0.096-0.752-0.288c-0.726-0.404-1.339-0.607-1.84-0.607   c-0.502,0-0.827,0.048-0.977,0.144c-0.149,0.097-0.32,0.347-0.512,0.752c-0.192,0.405-0.304,0.832-0.336,1.28   c-0.032,0.447-0.14,0.747-0.32,0.896c-0.182,0.148-0.528,0.357-1.04,0.623c-0.512,0.268-1.211,0.491-2.096,0.672   c-0.886,0.182-1.563,0.272-2.032,0.272c-0.213,0-0.32-0.097-0.32-0.288s0.117-0.373,0.352-0.544   c1.707-1.259,2.794-2.101,3.264-2.528c0.469-0.426,0.912-1.034,1.328-1.824c0.416-0.789,0.789-1.77,1.12-2.943   c0.33-1.173,0.479-2.016,0.448-2.528c-0.032-0.512-0.048-0.971-0.048-1.376c0-0.405,0.031-0.821,0.096-1.248   C9.015,9.48,9.047,9.021,9.047,8.531S9.036,7.672,9.015,7.427S8.983,6.931,8.983,6.674c0-0.256,0.036-0.629,0.111-1.12   s0.112-0.832,0.112-1.024L9.079,3.57c0-0.405,0.405-0.608,1.216-0.608c0.555,0,0.832,0.171,0.832,0.512   c0,0.128-0.043,0.283-0.128,0.464c-0.086,0.182-0.128,0.56-0.128,1.136l0.032,1.28c0.021,0.448,0.031,1.483,0.031,3.104   c0,0.341,0.117,0.512,0.353,0.512c0.234,0,0.549-0.112,0.944-0.336C12.626,9.411,12.983,9.298,13.303,9.298z M6.999,11.922   c0,0.534-0.235,1.408-0.704,2.624c-0.171,0.512-0.283,1.024-0.336,1.536c-0.054,0.513-0.235,0.769-0.544,0.769   c-0.31,0-0.806-0.181-1.488-0.544s-1.024-0.699-1.024-1.008c0-0.309,0.341-0.842,1.024-1.6s1.296-1.301,1.84-1.632   c0.544-0.331,0.885-0.496,1.024-0.496C6.93,11.57,6.999,11.688,6.999,11.922z M26.295,10.099c0,0.128-0.085,0.293-0.256,0.496   s-0.32,0.485-0.448,0.848c-0.405,1.174-0.768,1.941-1.088,2.304c-0.128,0.128-0.224,0.347-0.288,0.656   c-0.063,0.31-0.096,0.582-0.096,0.816l0.032,0.607c0,0.299-0.054,0.508-0.16,0.625c-0.107,0.117-0.427,0.187-0.96,0.207   c-0.534,0.021-1.473,0.16-2.816,0.416s-2.16,0.453-2.448,0.592c-0.288,0.14-0.485,0.412-0.592,0.816   c-0.213,0.832-0.379,1.393-0.496,1.68c-0.117,0.289-0.352,0.672-0.704,1.152c-0.352,0.48-0.527,0.88-0.527,1.2   c0,0.319,0.016,0.613,0.048,0.88c0.032,0.268,0.048,0.502,0.048,0.704s-0.075,0.405-0.224,0.608   c-0.149,0.202-0.624,0.602-1.425,1.199c-0.8,0.598-1.541,1.04-2.224,1.328c-0.683,0.289-1.291,0.432-1.824,0.432   c-0.576,0-0.863-0.096-0.863-0.287c0-0.193,0.101-0.4,0.304-0.625c0.202-0.223,1.051-0.965,2.544-2.223   c2.475-2.027,3.712-5.621,3.712-10.785c0-0.832-0.117-1.429-0.352-1.792c-0.064-0.106-0.097-0.309-0.097-0.608   s0.043-0.491,0.128-0.576c0.085-0.085,0.421-0.234,1.009-0.448c0.586-0.213,1.69-0.533,3.312-0.96   c1.621-0.426,2.613-0.64,2.976-0.64c0.726,0,1.568,0.203,2.528,0.608c0.234,0.107,0.501,0.213,0.8,0.32   C26.146,9.757,26.295,9.907,26.295,10.099z M18.871,1.875c0.299,0,0.507,0.176,0.624,0.528s0.288,0.619,0.512,0.8   c0.225,0.181,0.48,0.475,0.769,0.88c0.288,0.405,0.549,0.795,0.783,1.168c0.235,0.374,0.353,0.64,0.353,0.8   c0,0.16-0.08,0.299-0.24,0.416c-0.16,0.118-0.368,0.176-0.624,0.176s-0.795-0.123-1.616-0.368c-0.821-0.245-1.296-0.48-1.424-0.704   c-0.128-0.224-0.191-0.517-0.191-0.88c0-0.362,0.085-0.858,0.256-1.488c0.17-0.629,0.309-1.008,0.416-1.136   C18.594,1.938,18.722,1.875,18.871,1.875z M18.231,15.026c0.042,0,0.372-0.074,0.991-0.224l1.568-0.32   c0.405-0.085,0.661-0.203,0.768-0.352c0.106-0.149,0.219-0.522,0.336-1.12s0.177-1.045,0.177-1.344   c0-0.555-0.246-0.832-0.736-0.832c-0.32,0-0.789,0.118-1.408,0.352c-0.619,0.235-1.035,0.432-1.248,0.592   c-0.213,0.16-0.405,0.523-0.576,1.088c-0.171,0.565-0.256,1.067-0.256,1.504C17.847,14.808,17.975,15.026,18.231,15.026z" stroke-width="1"/>
</g>
</svg>