<svg xmlns="http://www.w3.org/2000/svg" xmlns:xlink="http://www.w3.org/1999/xlink" version="1.1" id="图层_1" x="0px" y="0px" width="23.720001220703125" height="27.785001754760742" viewBox="3.5869994163513184 0.9909999370574951 23.720001220703125 27.785001754760742" enable-background="new 0 0 30 30" xml:space="preserve">
<g>
	<path fill="#0000FF" d="M12.599,5.106c0,0.277-0.139,0.464-0.416,0.56s-0.795,0.485-1.552,1.168   C9.873,7.518,9.378,8.019,9.143,8.338c-0.234,0.32-0.438,0.779-0.607,1.376c-0.086,0.299-0.523,0.688-1.313,1.168   s-1.621,0.72-2.496,0.72c-0.427,0-0.64-0.053-0.64-0.16c0-0.234,0.768-0.96,2.304-2.176c0.896-0.725,2.346-2.378,4.352-4.96   c0.191-0.235,0.395-0.352,0.607-0.352c0.214,0,0.475,0.112,0.784,0.336S12.599,4.787,12.599,5.106z M13.271,15.603   c0,0.896-0.106,1.644-0.319,2.239c-0.086,0.215-0.166,0.918-0.24,2.113c-0.075,1.194-0.112,2.282-0.112,3.264   c0,0.98,0.037,1.658,0.112,2.031c0.074,0.373,0.112,0.773,0.112,1.201c0,0.426-0.054,0.697-0.16,0.814   c-0.107,0.117-0.262,0.178-0.464,0.178c-0.203,0-0.576-0.086-1.12-0.258c-0.544-0.17-1.104-0.309-1.68-0.415   c-0.576-0.106-1.115-0.368-1.616-0.784c-0.502-0.416-0.752-0.667-0.752-0.752c0-0.086,0.107-0.128,0.32-0.128l1.889,0.063   c0.64,0,1.093-0.068,1.359-0.207s0.4-0.443,0.4-0.912l-0.16-1.729c-0.043-0.49-0.134-0.736-0.271-0.736   c-0.14,0-0.278,0.055-0.416,0.16c-0.14,0.107-0.411,0.299-0.816,0.576c-1.344,0.918-2.293,1.676-2.848,2.272   c-0.363,0.362-0.646,0.544-0.848,0.544c-0.203,0-0.486-0.192-0.848-0.576c-0.363-0.384-0.544-0.672-0.544-0.863   c0-0.172,0.149-0.326,0.448-0.465s0.693-0.373,1.184-0.703C6.37,22.2,7.244,21.65,8.503,20.883s1.931-1.179,2.016-1.232   c0.085-0.053,0.139-0.293,0.16-0.72s0.032-0.815,0.032-1.168s-0.08-0.698-0.24-1.04s-0.518-0.512-1.071-0.512   c-0.556,0-1.078,0.197-1.568,0.592c-0.491,0.395-0.837,0.592-1.04,0.592c-0.203,0-0.379-0.203-0.528-0.607   c-0.15-0.406-0.224-0.705-0.224-0.896s0.139-0.299,0.416-0.32c0.277-0.021,0.763-0.144,1.456-0.368   c0.692-0.224,1.264-0.437,1.712-0.64c0.448-0.203,0.923-0.304,1.424-0.304s0.977,0.048,1.424,0.144   c0.448,0.096,0.693,0.256,0.736,0.48C13.249,15.106,13.271,15.347,13.271,15.603z M8.503,18.035c0.854,0,1.28,0.256,1.28,0.768   c0,0.342-0.326,0.624-0.977,0.848c-0.65,0.225-1.179,0.368-1.584,0.432c-0.405,0.064-0.667,0.14-0.784,0.225   c-0.118,0.086-0.219,0.128-0.304,0.128c-0.213,0-0.405-0.245-0.576-0.735c-0.171-0.491-0.256-0.844-0.256-1.057   c0-0.385,0.245-0.544,0.736-0.48c0.213,0.021,0.416,0.032,0.608,0.032s0.48-0.026,0.864-0.079   C7.895,18.062,8.226,18.035,8.503,18.035z M16.119,8.21c0.17,0,0.395,0.139,0.672,0.416c0.277,0.277,0.427,0.491,0.448,0.64   c0.106,0.576,0.309,1.067,0.607,1.472c0.213,0.299,0.32,0.582,0.32,0.848c0,0.267-0.059,0.47-0.176,0.608   c-0.118,0.139-0.31,0.208-0.576,0.208s-0.678-0.202-1.232-0.608c-0.149-0.106-0.288-0.16-0.416-0.16s-0.917,0.208-2.367,0.624   c-1.451,0.416-2.32,0.704-2.608,0.864s-0.533,0.24-0.736,0.24s-0.522-0.234-0.96-0.704s-0.655-0.789-0.655-0.96   s0.239-0.347,0.72-0.528c0.479-0.181,1.227-0.826,2.24-1.936c1.013-1.109,1.658-2.026,1.936-2.752   c0.128-0.298,0.33-0.448,0.608-0.448c0.276,0,0.575,0.181,0.896,0.544s0.48,0.603,0.48,0.72c0,0.118-0.107,0.278-0.32,0.48   c-0.214,0.203-0.464,0.501-0.752,0.896c-0.288,0.395-0.72,0.816-1.296,1.264c-0.107,0.085-0.16,0.176-0.16,0.272   c0,0.096,0.069,0.144,0.208,0.144s0.485-0.069,1.04-0.208c0.555-0.139,0.88-0.24,0.976-0.304c0.097-0.064,0.16-0.181,0.192-0.352   s0.149-0.427,0.352-0.768C15.762,8.381,15.948,8.21,16.119,8.21z M18.775,16.787c-0.086-1.045-0.448-1.568-1.089-1.568   c-0.319,0-0.746,0.075-1.279,0.224c-0.534,0.149-0.864,0.288-0.992,0.416s-0.262,0.192-0.4,0.192s-0.31-0.203-0.512-0.608   c-0.203-0.405-0.304-0.698-0.304-0.88c0-0.181,0.213-0.293,0.64-0.336c1.131-0.149,2.219-0.427,3.264-0.832   c0.342-0.128,0.699-0.192,1.072-0.192s0.869,0.096,1.488,0.288c0.618,0.192,0.965,0.315,1.04,0.368   c0.074,0.054,0.112,0.171,0.112,0.352c0,0.182-0.07,0.587-0.208,1.216c-0.14,0.63-0.251,1.083-0.337,1.36   c-0.085,0.277-0.128,0.715-0.128,1.312c0,4.374,0.16,7.179,0.48,8.416c0.063,0.298,0.096,0.565,0.096,0.8   c0,0.641-0.229,0.961-0.688,0.961c-0.459,0-1.345-0.258-2.656-0.77s-2.331-1.002-3.056-1.471c-0.726-0.471-1.088-0.854-1.088-1.152   c0-0.107,0.053-0.16,0.159-0.16s0.225,0.021,0.353,0.064c0.256,0.105,0.891,0.159,1.904,0.159c1.013,0,1.7-0.091,2.063-0.272   c0.362-0.181,0.544-0.527,0.544-1.039l-0.128-2.528c0-0.276-0.107-0.416-0.32-0.416c-0.063,0-0.187,0.048-0.367,0.144   c-0.182,0.097-0.342,0.225-0.48,0.385s-0.598,0.56-1.376,1.199c-0.779,0.641-1.285,0.961-1.52,0.961   c-0.235,0-0.576-0.209-1.024-0.625s-0.672-0.756-0.672-1.023c0-0.267,0.117-0.421,0.352-0.464c0.234-0.042,0.726-0.229,1.473-0.56   c0.746-0.331,1.92-0.635,3.52-0.912c0.213-0.043,0.299-0.277,0.256-0.705L18.775,16.787z M14.551,17.074   c0.043,0,0.213,0.021,0.513,0.064c0.298,0.043,0.544,0.064,0.735,0.064c0.981,0.021,1.616,0.17,1.904,0.447   s0.432,0.533,0.432,0.768c0,0.235-0.123,0.438-0.368,0.608s-0.496,0.257-0.752,0.257s-0.49-0.017-0.704-0.049   c-0.213-0.031-0.447-0.048-0.703-0.048l-0.641,0.063c-0.234,0-0.438-0.218-0.607-0.655c-0.171-0.437-0.257-0.8-0.257-1.089   C14.103,17.219,14.252,17.074,14.551,17.074z M15.415,1.491c0.171,0,0.362,0.213,0.576,0.64c0.384,0.79,0.938,1.488,1.664,2.096   c0.725,0.608,1.674,1.595,2.848,2.96c0.854,1.003,1.904,1.83,3.152,2.48c1.248,0.651,2.026,1.067,2.336,1.248   c0.309,0.182,0.522,0.363,0.64,0.544c0.117,0.182,0.176,0.304,0.176,0.368c0,0.213-0.683,0.32-2.048,0.32   c-1.173,0-2.155-0.192-2.943-0.576c-0.556-0.277-0.992-0.437-1.313-0.48c-0.32-0.042-0.544-0.122-0.672-0.24   c-0.128-0.117-0.235-0.464-0.32-1.04s-0.203-1.045-0.352-1.408c-0.149-0.362-0.422-0.688-0.816-0.976   c-0.395-0.288-1.035-0.928-1.92-1.92c-0.886-0.992-1.435-1.557-1.647-1.696c-0.214-0.139-0.32-0.395-0.32-0.768   c0-0.373,0.112-0.725,0.336-1.056C15.015,1.656,15.223,1.491,15.415,1.491z" stroke-width="1"/>
</g>
</svg>