<svg xmlns="http://www.w3.org/2000/svg" xmlns:xlink="http://www.w3.org/1999/xlink" version="1.1" id="图层_1" x="0px" y="0px" width="16.552000045776367" height="25.67099952697754" viewBox="6.067998886108398 2.3289999961853027 16.552000045776367 25.67099952697754" style="enable-background:new 0 0 30 30;" xml:space="preserve">
  <g>
    <g>
      <path style="fill:#0000FF;" d="M22.022,15.213c0,0.192-0.102,0.389-0.305,0.592c-0.203,0.203-0.352,0.432-0.447,0.688&#13;&#10;&#9;&#9;c-0.097,0.256-0.24,0.779-0.433,1.568c-0.191,0.789-0.475,1.781-0.848,2.977c-0.374,1.195-0.742,2.24-1.104,3.136&#13;&#10;&#9;&#9;s-0.629,1.675-0.8,2.336S17.67,27.5,17.35,27.5c-0.128,0-0.277-0.043-0.447-0.127c-0.812-0.385-2.043-0.832-3.696-1.344&#13;&#10;&#9;&#9;c-1.653-0.513-2.96-1.084-3.92-1.713s-1.44-1.029-1.44-1.199c0-0.064,0.075-0.097,0.225-0.097c0.148,0,0.576,0.102,1.279,0.304&#13;&#10;&#9;&#9;c0.704,0.203,1.408,0.353,2.112,0.448c0.704,0.097,1.445,0.144,2.224,0.144c0.779,0,1.462-0.17,2.049-0.512&#13;&#10;&#9;&#9;c0.586-0.341,1.12-1.221,1.6-2.64c0.48-1.419,0.72-2.587,0.72-3.504c0-1.365-0.821-2.048-2.464-2.048&#13;&#10;&#9;&#9;c-1.066,0-2.39,0.235-3.968,0.704c-1.579,0.47-2.752,0.939-3.521,1.408c-0.256,0.15-0.479,0.225-0.672,0.225&#13;&#10;&#9;&#9;c-0.277,0-0.416-0.133-0.416-0.4c0-0.266,0.123-0.597,0.368-0.992c0.245-0.394,0.433-0.943,0.561-1.647s0.191-1.184,0.191-1.44&#13;&#10;&#9;&#9;c0-0.256-0.026-0.416-0.08-0.48c-0.053-0.064-0.208-0.096-0.464-0.096s-0.491-0.288-0.704-0.864&#13;&#10;&#9;&#9;c-0.213-0.576-0.319-0.933-0.319-1.072c0-0.139,0.085-0.218,0.256-0.24c0.938-0.107,1.86-0.309,2.768-0.608&#13;&#10;&#9;&#9;c0.906-0.298,2-0.581,3.28-0.848c1.28-0.267,2.197-0.421,2.752-0.464c0.555-0.042,0.971-0.106,1.248-0.192&#13;&#10;&#9;&#9;c0.277-0.085,0.485-0.373,0.624-0.864s0.208-0.88,0.208-1.168s-0.112-0.555-0.336-0.8c-0.225-0.245-0.656-0.368-1.296-0.368&#13;&#10;&#9;&#9;c-0.641,0-1.254,0.155-1.84,0.464c-0.588,0.31-1.212,0.528-1.872,0.656C10.971,6.381,10.075,6.68,9.67,7.021&#13;&#10;&#9;&#9;C9.606,7.084,9.521,7.117,9.414,7.117c-0.32,0-0.518-0.267-0.592-0.8C8.747,5.784,8.656,5.394,8.55,5.149S8.39,4.738,8.39,4.653&#13;&#10;&#9;&#9;c0-0.363,0.448-0.565,1.345-0.608c0.896-0.043,1.792-0.171,2.688-0.384c2.368-0.555,4.021-0.832,4.96-0.832&#13;&#10;&#9;&#9;c0.49,0,0.981,0.112,1.473,0.336c0.49,0.224,1.082,0.539,1.775,0.944s1.114,0.672,1.264,0.8s0.225,0.267,0.225,0.416&#13;&#10;&#9;&#9;c0,0.149-0.203,0.427-0.608,0.832c-0.96,0.96-1.558,1.638-1.792,2.032c-0.234,0.395-0.352,0.832-0.352,1.312&#13;&#10;&#9;&#9;s-0.054,0.774-0.16,0.88c-0.107,0.107-0.331,0.171-0.672,0.192c-0.854,0.021-2.225,0.182-4.112,0.48&#13;&#10;&#9;&#9;c-1.888,0.299-2.928,0.512-3.12,0.64c-0.191,0.128-0.399,0.448-0.624,0.96c-0.224,0.512-0.336,1.024-0.336,1.536&#13;&#10;&#9;&#9;c0,0.256,0.085,0.384,0.256,0.384s0.405-0.032,0.704-0.096c2.262-0.49,4.091-0.736,5.488-0.736s2.618,0.155,3.664,0.464&#13;&#10;&#9;&#9;C21.499,14.514,22.022,14.85,22.022,15.213z" stroke-width="1"/>
    </g>
    <g/>
    <g/>
    <g/>
    <g/>
    <g/>
    <g/>
    <g/>
    <g/>
    <g/>
    <g/>
    <g/>
    <g/>
    <g/>
    <g/>
    <g/>
  </g>
</svg>