<svg xmlns="http://www.w3.org/2000/svg" xmlns:xlink="http://www.w3.org/1999/xlink" version="1.1" id="图层_1" x="0px" y="0px" width="24.68000030517578" height="26.27899932861328" viewBox="0.49800002574920654 2.361001491546631 24.68000030517578 26.27899932861328" style="enable-background:new 0 0 30 30;" xml:space="preserve">
  <g>
    <g>
      <path style="fill:#0000FF;" d="M10.374,6.701c1.131,0,2.224,0.224,3.28,0.672c1.056,0.448,1.584,0.886,1.584,1.312&#13;&#10;&#9;&#9;c0,0.171-0.069,0.352-0.208,0.544c-0.14,0.192-0.502,0.534-1.088,1.024c-0.587,0.491-0.966,0.768-1.137,0.832&#13;&#10;&#9;&#9;c-0.427,0.171-0.64,0.587-0.64,1.248c0,0.32-0.197,0.501-0.592,0.544c-0.396,0.043-0.741,0.134-1.04,0.272&#13;&#10;&#9;&#9;s-0.448,0.293-0.448,0.464c0,0.171,0.064,0.405,0.192,0.704s0.256,0.491,0.384,0.576c0.128,0.085,0.293,0.123,0.496,0.112&#13;&#10;&#9;&#9;c0.202-0.011,0.347-0.016,0.432-0.016c0.576,0,1.259,0.128,2.048,0.384c0.789,0.256,1.185,0.576,1.185,0.959&#13;&#10;&#9;&#9;c0,0.193-0.075,0.556-0.225,1.089s-0.341,1.024-0.575,1.472c-0.235,0.448-0.48,1.014-0.736,1.696s-0.539,1.339-0.848,1.968&#13;&#10;&#9;&#9;c-0.31,0.629-0.588,1.104-0.832,1.424c-0.246,0.32-0.4,0.608-0.465,0.864c-0.128,0.362-0.293,0.544-0.495,0.544&#13;&#10;&#9;&#9;c-0.203,0-0.396-0.102-0.576-0.305c-0.182-0.202-0.47-0.421-0.864-0.655c-0.396-0.235-0.715-0.479-0.96-0.735&#13;&#10;&#9;&#9;c-0.245-0.257-0.491-0.582-0.736-0.977s-0.399-0.592-0.464-0.592c-0.063,0-0.182,0.074-0.352,0.224&#13;&#10;&#9;&#9;c-0.747,0.64-1.521,1.115-2.32,1.424c-0.8,0.31-1.445,0.464-1.936,0.464c-0.213,0-0.32-0.063-0.32-0.191&#13;&#10;&#9;&#9;c0-0.277,0.832-1.014,2.496-2.208c0.618-0.448,1.232-1.163,1.84-2.144c0.608-0.981,0.912-1.525,0.912-1.633&#13;&#10;&#9;&#9;c0-0.106-0.038-0.16-0.112-0.16c-0.075,0-0.197,0.032-0.368,0.096c-0.341,0.107-1.152,0.278-2.432,0.513&#13;&#10;&#9;&#9;C3.281,18.723,2.523,19,2.182,19.341C2.075,19.447,1.958,19.5,1.83,19.5s-0.299-0.223-0.512-0.672&#13;&#10;&#9;&#9;c-0.213-0.447-0.32-0.725-0.32-0.832c0-0.213,0.117-0.324,0.352-0.336c0.234-0.01,0.906-0.154,2.016-0.432&#13;&#10;&#9;&#9;c1.109-0.277,1.936-0.512,2.48-0.703c0.543-0.193,1.044-0.363,1.503-0.513c0.459-0.149,0.736-0.256,0.832-0.32&#13;&#10;&#9;&#9;c0.097-0.064,0.165-0.181,0.208-0.352c0.043-0.17,0.064-0.411,0.064-0.72c0-0.309-0.075-0.496-0.224-0.56&#13;&#10;&#9;&#9;c-0.235-0.106-0.454-0.357-0.656-0.752c-0.203-0.395-0.561-0.837-1.072-1.328c-0.512-0.49-0.88-1.141-1.104-1.952&#13;&#10;&#9;&#9;C5.174,9.218,5.062,8.701,5.062,8.477c0-0.224,0.149-0.389,0.448-0.496c0.554-0.17,1.221-0.426,2-0.768S9.243,6.701,10.374,6.701z&#13;&#10;&#9;&#9; M9.254,22.285c0.427,0,0.773-0.112,1.04-0.336c0.267-0.225,0.555-0.806,0.864-1.744c0.309-0.939,0.464-1.835,0.464-2.688&#13;&#10;&#9;&#9;c0-0.853-0.31-1.28-0.928-1.28c-0.299,0-0.544,0.182-0.736,0.545c-0.491,0.896-1.051,1.766-1.68,2.607&#13;&#10;&#9;&#9;c-0.63,0.844-0.944,1.478-0.944,1.904c0,0.149,0.069,0.287,0.208,0.416c0.139,0.128,0.379,0.256,0.72,0.384&#13;&#10;&#9;&#9;S8.934,22.285,9.254,22.285z M9.446,10.957c0.426,0,0.853-0.293,1.279-0.88c0.427-0.586,0.641-1.066,0.641-1.44&#13;&#10;&#9;&#9;c0-0.373-0.299-0.56-0.896-0.56s-1.136,0.187-1.615,0.56C8.374,9.01,8.134,9.442,8.134,9.933&#13;&#10;&#9;&#9;C8.134,10.616,8.571,10.957,9.446,10.957z M24.678,3.885c0,0.107-0.021,0.246-0.063,0.416c-0.043,0.171-0.118,0.928-0.225,2.272&#13;&#10;&#9;&#9;c-0.106,1.344-0.159,2.368-0.159,3.072l0.031,1.888c0,0.619-0.016,1.056-0.048,1.312s-0.048,0.742-0.048,1.456&#13;&#10;&#9;&#9;c0,0.715,0.026,1.253,0.08,1.616c0.053,0.363,0.106,1.281,0.16,2.751c0.053,1.473,0.08,2.711,0.08,3.713l-0.064,2.336l0.032,2.4&#13;&#10;&#9;&#9;c0,0.682-0.299,1.023-0.896,1.023c-0.597,0-1.515-0.262-2.752-0.783c-1.237-0.523-2.197-1.063-2.88-1.617s-1.023-0.917-1.023-1.088&#13;&#10;&#9;&#9;c0-0.063,0.048-0.096,0.144-0.096s0.229,0.032,0.4,0.096c1.066,0.363,2.01,0.545,2.832,0.545c0.82,0,1.344-0.172,1.567-0.513&#13;&#10;&#9;&#9;c0.225-0.341,0.336-1.142,0.336-2.399c0-0.129-0.037-0.843-0.111-2.145c-0.075-1.301-0.112-2.421-0.112-3.359l0.032-1.632&#13;&#10;&#9;&#9;c0-0.32-0.032-0.885-0.097-1.696c-0.063-0.811-0.096-1.898-0.096-3.264c0-1.365,0.026-2.592,0.08-3.68&#13;&#10;&#9;&#9;c0.053-1.088,0.08-2.123,0.08-3.104c0-0.363,0.112-0.544,0.336-0.544s0.48,0.069,0.769,0.208c0.287,0.139,0.629,0.219,1.023,0.24&#13;&#10;&#9;&#9;C24.48,3.33,24.678,3.522,24.678,3.885z M19.654,12.301c0,0.085-0.054,0.24-0.16,0.464c-0.107,0.224-0.176,0.592-0.208,1.104&#13;&#10;&#9;&#9;c-0.032,0.512-0.134,0.95-0.304,1.312c-0.149,0.47-0.246,0.95-0.288,1.44c-0.043,0.342-0.128,0.57-0.256,0.688&#13;&#10;&#9;&#9;c-0.129,0.117-0.288,0.176-0.48,0.176s-0.325-0.105-0.4-0.32c-0.074-0.213-0.202-0.943-0.384-2.191s-0.271-2.192-0.271-2.832&#13;&#10;&#9;&#9;s0.224-0.96,0.672-0.96c0.148,0,0.325,0.048,0.527,0.144c0.203,0.096,0.513,0.229,0.929,0.4&#13;&#10;&#9;&#9;C19.446,11.896,19.654,12.088,19.654,12.301z" stroke-width="1"/>
    </g>
    <g/>
    <g/>
    <g/>
    <g/>
    <g/>
    <g/>
    <g/>
    <g/>
    <g/>
    <g/>
    <g/>
    <g/>
    <g/>
    <g/>
    <g/>
  </g>
</svg>