<svg xmlns="http://www.w3.org/2000/svg" xmlns:xlink="http://www.w3.org/1999/xlink" version="1.1" id="图层_1" x="0px" y="0px" width="22.089000701904297" height="25.862998962402344" viewBox="3.330000400543213 2.559000015258789 22.089000701904297 25.862998962402344" enable-background="new 0 0 30 30" xml:space="preserve">
<g>
	<path fill="#0000FF" d="M24.919,18.227c0,0.662-0.149,0.992-0.448,0.992c-0.085,0-0.191-0.032-0.319-0.096   c-0.513-0.256-1.2-0.385-2.064-0.385s-2.117,0.107-3.76,0.32c-1.644,0.213-2.747,0.405-3.313,0.576s-1.008,0.287-1.328,0.352   c-0.319,0.064-0.565,0.16-0.735,0.288c-0.171,0.128-0.384,0.39-0.641,0.784c-0.256,0.395-0.447,0.768-0.575,1.12   s-0.198,0.677-0.208,0.976c-0.012,0.299-0.017,0.561-0.017,0.784s-0.054,0.395-0.16,0.513c-0.106,0.116-0.587,0.399-1.439,0.848   c-0.854,0.447-1.59,0.772-2.208,0.976c-0.619,0.202-1.115,0.304-1.488,0.304c-0.374,0-0.709-0.037-1.008-0.111   c-0.299-0.075-0.448-0.16-0.448-0.256s0.107-0.219,0.32-0.369c1.514-0.938,2.656-1.695,3.424-2.271s1.264-0.996,1.488-1.264   c0.224-0.267,0.458-0.635,0.704-1.104c0.245-0.47,0.368-0.769,0.368-0.896c0-0.213-0.086-0.32-0.257-0.32s-0.464,0.032-0.88,0.096   c-0.416,0.064-0.784,0.16-1.104,0.289c-0.32,0.127-0.684,0.213-1.088,0.256c-1.024,0.106-1.739,0.352-2.145,0.735   c-0.171,0.149-0.32,0.224-0.448,0.224s-0.235-0.084-0.32-0.256c-0.256-0.512-0.485-0.912-0.688-1.199   c-0.203-0.289-0.304-0.485-0.304-0.592c0-0.107,0.139-0.171,0.416-0.192c0.576-0.042,1.61-0.214,3.104-0.513   c0.576-0.148,1.92-0.383,4.032-0.703c0.341-0.043,0.576-0.219,0.704-0.528s0.192-0.837,0.192-1.584   c0-0.192-0.032-0.314-0.097-0.368c-0.063-0.053-0.319-0.08-0.768-0.08s-1.04,0.075-1.776,0.225   c-0.735,0.148-1.168,0.283-1.296,0.399c-0.128,0.118-0.224,0.177-0.288,0.177c-0.171,0-0.384-0.293-0.64-0.88   c-0.256-0.587-0.384-0.949-0.384-1.088c0-0.138,0.053-0.208,0.161-0.208l0.447,0.064c0.491,0,1.393-0.133,2.704-0.4   c1.313-0.267,2.715-0.624,4.208-1.072c1.493-0.448,2.528-0.747,3.104-0.896c0.576-0.149,1.231-0.277,1.968-0.384   c0.736-0.106,1.232-0.16,1.488-0.16s0.538,0.272,0.848,0.816c0.309,0.544,0.464,0.944,0.464,1.2c0,0.363-0.213,0.523-0.64,0.48   c-0.277-0.021-0.613-0.032-1.008-0.032c-0.396,0-1.228,0.118-2.496,0.352c-1.27,0.235-2.021,0.421-2.256,0.56   c-0.235,0.139-0.465,0.395-0.688,0.768c-0.224,0.374-0.336,0.683-0.336,0.927c0,0.246,0.042,0.433,0.128,0.561   c0.085,0.128,0.213,0.171,0.384,0.128c0.555-0.128,1.729-0.304,3.521-0.528c1.792-0.224,3.071-0.441,3.84-0.656   c0.192-0.042,0.378-0.063,0.56-0.063s0.368,0.214,0.561,0.64c0.191,0.428,0.427,0.801,0.704,1.121   C24.844,17.811,24.919,18.014,24.919,18.227z M16.887,3.059c1.152,0,2.219,0.341,3.2,1.024c0.981,0.683,1.472,1.115,1.472,1.296   c0,0.182-0.293,0.491-0.88,0.928c-0.587,0.438-0.981,0.864-1.184,1.28c-0.203,0.416-0.379,1.189-0.528,2.32   c-0.043,0.213-0.106,0.357-0.191,0.432c-0.086,0.075-0.385,0.134-0.896,0.176c-0.512,0.043-1.302,0.144-2.368,0.304   c-1.066,0.16-1.775,0.299-2.128,0.416c-0.352,0.118-0.587,0.246-0.704,0.384s-0.224,0.208-0.319,0.208   c-0.097,0-0.22-0.064-0.368-0.192c-0.149-0.128-0.518-0.581-1.104-1.36C10.3,9.496,9.873,8.851,9.607,8.338   C9.34,7.827,9.068,7.213,8.791,6.499C8.514,5.784,8.375,5.374,8.375,5.267c0-0.277,0.229-0.517,0.688-0.72   c0.458-0.202,1.658-0.501,3.6-0.896C14.604,3.256,16.012,3.059,16.887,3.059z M13.047,8.787c1.344,0,2.304-0.293,2.88-0.88   s0.864-1.253,0.864-2c0-0.32-0.155-0.581-0.464-0.784c-0.31-0.203-0.656-0.304-1.04-0.304s-0.934,0.166-1.648,0.496   c-0.715,0.331-1.227,0.603-1.536,0.816c-0.309,0.214-0.464,0.475-0.464,0.784c0,0.31,0.075,0.677,0.225,1.104   c0.148,0.427,0.33,0.662,0.544,0.704C12.62,8.766,12.833,8.787,13.047,8.787z M23.479,24.754c0,1.045-0.213,1.835-0.64,2.369   c-0.427,0.533-0.768,0.799-1.023,0.799c-0.15,0-0.315-0.176-0.496-0.527c-0.182-0.352-0.496-0.832-0.944-1.439   c-0.448-0.608-0.901-1.158-1.36-1.648s-0.848-0.992-1.168-1.504c-0.319-0.512-0.726-1.035-1.216-1.568   c-0.106-0.106-0.16-0.229-0.16-0.367s0.08-0.209,0.24-0.209s0.314,0.043,0.464,0.129c1.216,0.64,2.069,1.013,2.561,1.119   c0.404,0.107,1.04,0.443,1.903,1.008c0.864,0.566,1.387,0.912,1.568,1.041C23.388,24.082,23.479,24.35,23.479,24.754z" stroke-width="1"/>
</g>
</svg>