<svg xmlns="http://www.w3.org/2000/svg" xmlns:xlink="http://www.w3.org/1999/xlink" version="1.1" id="图层_1" x="0px" y="0px" width="27.529001235961914" height="25.126005172729492" viewBox="3.7479991912841797 2.1929993629455566 27.529001235961914 25.126005172729492" enable-background="new 0 0 30 30" xml:space="preserve">
<g>
	<path fill="#0000FF" d="M8.312,16.579c0,0.533,0.192,1.003,0.576,1.407c0.811,0.875,1.307,1.542,1.488,2   c0.181,0.459,0.341,0.748,0.48,0.865c0.138,0.117,0.324,0.187,0.56,0.207c1.173,0.15,3.317,0.672,6.432,1.568   c2.049,0.598,3.478,0.918,4.288,0.96c3.989,0.256,6.427,0.507,7.313,0.752c0.885,0.245,1.328,0.507,1.328,0.784   s-0.886,0.629-2.656,1.056c-1.771,0.427-3.424,0.641-4.96,0.641c-0.619,0-1.04-0.043-1.264-0.128   c-0.225-0.086-0.368-0.246-0.433-0.48c-0.106-0.405-0.533-0.763-1.28-1.072s-1.664-0.507-2.752-0.592   c-1.259-0.063-2.319-0.32-3.184-0.768c-0.864-0.448-2.043-0.672-3.536-0.672c-2.027,0-3.627,0.267-4.8,0.8   c-0.107,0.042-0.235,0.063-0.384,0.063c-0.149,0-0.277-0.096-0.384-0.288c-0.235-0.49-0.443-0.864-0.624-1.12   c-0.182-0.256-0.272-0.447-0.272-0.576c0-0.276,0.149-0.416,0.448-0.416c0.085,0,0.181,0.017,0.288,0.049   c0.106,0.031,0.331,0.048,0.672,0.048s0.821-0.085,1.44-0.256c0.618-0.171,1.061-0.282,1.328-0.336s0.4-0.197,0.4-0.433   c0-0.341-0.374-0.992-1.12-1.951c-0.619-0.811-0.928-1.771-0.928-2.881l0.032-0.832c0-0.619-0.213-1.066-0.64-1.344   c-0.064-0.042-0.096-0.106-0.096-0.192c0-0.277,0.149-0.416,0.448-0.416c0.256,0,0.778,0.139,1.568,0.416   c0.789,0.278,1.248,0.47,1.376,0.576c0.128,0.107,0.192,0.235,0.192,0.384c0,0.15-0.107,0.299-0.32,0.448   C8.653,15.299,8.312,15.875,8.312,16.579z M7.416,5.891c0.192,0,0.331,0.155,0.416,0.464c0.085,0.31,0.309,0.598,0.672,0.864   c0.362,0.267,0.747,0.677,1.152,1.232c0.404,0.555,0.607,0.949,0.607,1.184c0,0.235-0.128,0.4-0.384,0.496   c-0.256,0.096-0.512,0.144-0.768,0.144s-0.544-0.048-0.864-0.144c-0.32-0.096-0.656-0.16-1.008-0.192   c-0.352-0.032-0.582-0.16-0.688-0.384c-0.107-0.224-0.16-0.704-0.16-1.44c0-0.736,0.123-1.291,0.368-1.664   C7.005,6.078,7.224,5.891,7.416,5.891z M24.248,7.139c0.234,0,0.395,0.107,0.479,0.32c0.214,0.448,0.598,1.067,1.152,1.856   c0.106,0.149,0.16,0.293,0.16,0.432c0,0.139-0.069,0.256-0.208,0.352c-0.139,0.096-0.325,0.144-0.56,0.144H24.6   c-0.341,0-0.811,0.048-1.407,0.144c-0.598,0.096-0.934,0.219-1.009,0.368c-0.074,0.149-0.111,0.278-0.111,0.384   c-0.043,1.259-0.112,2.192-0.208,2.8c-0.097,0.608-0.145,1.579-0.145,2.913c0,1.333,0.037,2.303,0.112,2.912   c0.074,0.607,0.112,0.986,0.112,1.135c0,0.619-0.182,0.929-0.544,0.929c-0.149,0-0.411-0.08-0.784-0.24   c-0.374-0.16-1.057-0.384-2.048-0.672c-0.992-0.288-1.696-0.565-2.112-0.832s-0.864-0.64-1.344-1.12   c-0.48-0.48-0.721-0.783-0.721-0.912c0-0.128,0.075-0.191,0.225-0.191c0.148,0,0.298,0.031,0.448,0.096   c1.386,0.576,2.57,0.863,3.552,0.863c0.341,0,0.576-0.063,0.704-0.191s0.224-0.447,0.288-0.96c0.063-0.513,0.096-1.28,0.096-2.304   s-0.069-1.866-0.208-2.528c-0.139-0.661-0.294-1.093-0.464-1.296c-0.171-0.203-0.427-0.272-0.769-0.208   c-0.64,0.085-1.259,0.144-1.855,0.176c-0.598,0.032-0.896,0.187-0.896,0.464c0,0.107,0.043,0.208,0.128,0.304   c0.085,0.096,0.31,0.267,0.672,0.512c0.363,0.246,0.683,0.438,0.961,0.576c0.276,0.139,0.416,0.406,0.416,0.8   c0,0.395-0.235,0.821-0.704,1.28c-0.47,0.459-0.859,0.688-1.168,0.688c-0.31,0-0.476-0.213-0.496-0.64   c-0.043-0.747-0.22-1.456-0.528-2.128c-0.31-0.672-0.571-1.008-0.784-1.008s-0.416,0.059-0.607,0.176   c-0.192,0.118-0.353,0.176-0.48,0.176s-0.235-0.048-0.32-0.144s-0.229-0.485-0.432-1.168c-0.203-0.683-0.304-1.125-0.304-1.328   c0-0.203,0.037-0.325,0.111-0.368c0.075-0.042,0.197-0.064,0.368-0.064s0.619-0.064,1.345-0.192l2.943-0.576   c1.216-0.256,1.915-0.411,2.096-0.464c0.182-0.053,0.32-0.138,0.416-0.256c0.097-0.117,0.177-0.426,0.24-0.928   c0.064-0.501,0.097-1.099,0.097-1.792c0-0.693-0.032-1.21-0.097-1.552c-0.063-0.341-0.096-0.624-0.096-0.848   c0-0.224,0.181-0.336,0.544-0.336c0.362,0,0.853,0.07,1.472,0.208c0.619,0.139,0.986,0.24,1.104,0.304   c0.117,0.064,0.176,0.155,0.176,0.272s-0.043,0.229-0.128,0.336c-0.214,0.213-0.32,1.109-0.32,2.688   c0,0.512,0.021,0.816,0.064,0.912c0.042,0.096,0.128,0.144,0.256,0.144s0.347-0.032,0.656-0.096   c0.309-0.064,0.554-0.133,0.735-0.208C24.029,7.176,24.162,7.139,24.248,7.139z" stroke-width="1"/>
</g>
</svg>