<svg xmlns="http://www.w3.org/2000/svg" xmlns:xlink="http://www.w3.org/1999/xlink" version="1.1" id="图层_1" x="0px" y="0px" width="26.98400115966797" height="28.232999801635742" viewBox="3.268000602722168 1.0710006952285767 26.98400115966797 28.232999801635742" enable-background="new 0 0 30 30" xml:space="preserve">
<g>
	<path fill="#0000FF" d="M29.752,18.243c0,0.319-0.063,0.528-0.192,0.624c-0.128,0.096-0.287,0.145-0.479,0.145   s-0.528-0.134-1.008-0.4c-0.48-0.267-1.313-0.502-2.496-0.704c-1.185-0.202-1.904-0.304-2.16-0.304s-0.422,0.063-0.496,0.191   c-0.075,0.128-0.224,0.758-0.448,1.889c-0.224,1.131-0.336,1.732-0.336,1.808s0.085,0.139,0.256,0.192   c0.171,0.053,0.47,0.176,0.896,0.367c0.427,0.192,0.837,0.288,1.231,0.288s0.673,0.144,0.832,0.433   c0.16,0.287,0.24,0.741,0.24,1.359s-0.032,1.066-0.096,1.344c-0.064,0.277-0.182,0.416-0.353,0.416s-0.442-0.133-0.815-0.399   c-0.374-0.268-0.901-0.534-1.584-0.8c-0.684-0.268-1.104-0.4-1.264-0.4c-0.16,0-0.294,0.117-0.4,0.352   c-0.384,0.811-0.773,1.505-1.168,2.08c-0.396,0.576-0.651,1.066-0.769,1.473c-0.117,0.404-0.251,0.607-0.399,0.607   c-0.149,0-0.347-0.075-0.592-0.224c-0.246-0.149-0.699-0.39-1.36-0.72c-0.661-0.331-1.382-0.838-2.16-1.521   c-0.779-0.683-1.168-1.131-1.168-1.344c0-0.064,0.043-0.096,0.128-0.096s0.293,0.085,0.624,0.256   c0.331,0.17,0.789,0.314,1.376,0.432s0.977,0.176,1.168,0.176c0.513,0,0.977-0.341,1.393-1.023   c0.416-0.684,0.624-1.104,0.624-1.265c0-0.159-0.107-0.261-0.32-0.304l-2.976-0.64c-1.771-0.363-3.072-0.545-3.904-0.545   c-0.32,0-0.576,0.033-0.769,0.097c-0.191,0.063-0.362,0.097-0.512,0.097c-0.256,0-0.384-0.097-0.384-0.289   c0-0.191,0.08-0.49,0.24-0.896c0.159-0.405,0.399-0.726,0.72-0.96s0.661-0.65,1.024-1.248c0.362-0.598,0.544-0.944,0.544-1.04   c0-0.097-0.054-0.144-0.16-0.144c-0.107,0-0.502,0.063-1.185,0.191s-1.066,0.229-1.151,0.305c-0.086,0.074-0.149,0.207-0.192,0.399   c-0.491,2.325-1.168,4.048-2.032,5.168c-0.864,1.12-1.435,1.68-1.712,1.68c-0.107,0-0.24-0.091-0.4-0.271   c-0.16-0.182-0.454-0.684-0.88-1.504c-0.427-0.821-0.693-1.493-0.8-2.017c-0.107-0.521-0.16-1.594-0.16-3.216   c0-1.066,0.09-1.968,0.272-2.704c0.181-0.736,0.347-1.616,0.496-2.64c0.085-0.683,0.304-1.024,0.656-1.024s0.8,0.128,1.344,0.384   s0.816,0.544,0.816,0.864c0,0.299-0.283,0.667-0.848,1.104c-0.565,0.438-1.051,1.152-1.456,2.144   c-0.405,0.992-0.608,2.016-0.608,3.072s0.139,1.717,0.416,1.984c0.277,0.267,0.565,0.399,0.864,0.399   c0.512,0,1.066-0.437,1.664-1.312c0.598-0.875,0.992-1.633,1.185-2.272c0.96-3.306,1.589-4.96,1.888-4.96   c0.063,0,0.096,0.102,0.096,0.304c0,0.203-0.059,0.624-0.176,1.264c-0.117,0.64-0.176,0.982-0.176,1.024   c0,0.192,0.08,0.288,0.24,0.288c0.159,0,0.426-0.026,0.8-0.079c0.373-0.054,0.698-0.134,0.976-0.24   c0.277-0.107,0.561-0.188,0.849-0.24c0.287-0.053,0.479-0.145,0.575-0.272c0.097-0.128,0.234-0.453,0.416-0.976   c0.182-0.522,0.314-1.067,0.4-1.632c0.085-0.565,0.187-0.912,0.304-1.04c0.117-0.128,0.561-0.298,1.328-0.512l2.336-0.672   c0.769-0.235,1.473-0.352,2.112-0.352s1.333,0.069,2.08,0.208c0.746,0.139,1.2,0.256,1.359,0.352c0.16,0.096,0.24,0.203,0.24,0.32   c0,0.118-0.043,0.229-0.128,0.336c-0.235,0.299-0.395,0.917-0.479,1.856l-0.192,1.184c0,0.149,0.08,0.256,0.24,0.32   s0.65,0.166,1.472,0.304c0.821,0.139,1.488,0.208,2,0.208l0.96-0.096c0.213,0,0.405,0.059,0.576,0.176s0.277,0.251,0.32,0.399   c0.213,0.854,0.395,1.408,0.544,1.664C29.677,17.73,29.752,17.986,29.752,18.243z M10.072,8.355c0,0.598-0.054,0.976-0.16,1.136   c-0.107,0.16-0.288,0.24-0.544,0.24c-0.641,0-1.248-0.229-1.824-0.688C6.968,8.584,6.68,8.003,6.68,7.299   c0-0.213,0.058-0.624,0.176-1.232c0.117-0.608,0.32-1.008,0.608-1.2c0.288-0.192,0.48-0.288,0.576-0.288S8.296,4.707,8.52,4.963   C8.744,5.219,9.011,5.571,9.32,6.019c0.309,0.448,0.512,0.837,0.607,1.168C10.024,7.518,10.072,7.907,10.072,8.355z M22.584,5.219   c0.405,0,0.672,0.059,0.8,0.176c0.128,0.118,0.192,0.336,0.192,0.656c0,0.32-0.069,0.55-0.208,0.688   c-0.14,0.139-0.758,0.491-1.856,1.056c-1.099,0.565-1.877,0.96-2.336,1.184s-0.843,0.336-1.151,0.336c-0.31,0-0.977-0.277-2-0.832   c-0.128-0.064-0.246-0.096-0.353-0.096s-0.235,0.085-0.384,0.256c-1.387,1.728-2.71,2.592-3.968,2.592   c-0.192,0-0.288-0.053-0.288-0.16s0.117-0.299,0.352-0.576c1.131-1.258,2.325-2.827,3.584-4.704   c1.259-1.877,1.931-3.114,2.017-3.712c0.042-0.341,0.213-0.512,0.512-0.512s0.715,0.187,1.248,0.56   c0.533,0.374,0.8,0.672,0.8,0.896c0,0.224-0.219,0.55-0.656,0.976c-0.438,0.427-0.885,0.939-1.344,1.536   c-0.459,0.598-0.688,0.939-0.688,1.024c0,0.085,0.096,0.128,0.287,0.128c0.533,0,1.067-0.117,1.601-0.352   C20.408,5.592,21.688,5.219,22.584,5.219z M14.52,20.482c0.32,0,0.667-0.229,1.04-0.688s0.635-0.928,0.784-1.408   c0.149-0.479,0.225-0.8,0.225-0.96c0-0.159-0.118-0.239-0.353-0.239c-0.768,0-1.253,0.043-1.456,0.127   c-0.203,0.086-0.357,0.225-0.464,0.416c-0.427,0.875-0.741,1.43-0.944,1.664c-0.202,0.235-0.304,0.438-0.304,0.608   s0.192,0.294,0.576,0.368S14.307,20.482,14.52,20.482z M19.608,14.979c0.021,0,0.122-0.011,0.304-0.032   c0.181-0.021,0.389-0.032,0.624-0.032c0.234,0,0.352-0.181,0.352-0.544c0-1.002-0.102-1.675-0.304-2.016   c-0.203-0.341-0.587-0.512-1.152-0.512s-1.194,0.096-1.888,0.288c-0.693,0.192-1.104,0.357-1.232,0.496   c-0.128,0.139-0.239,0.406-0.336,0.8c-0.096,0.395-0.239,0.838-0.432,1.328c-0.043,0.107-0.063,0.219-0.063,0.336   c0,0.118,0.085,0.176,0.256,0.176l0.8-0.096c0.234-0.021,0.389-0.064,0.464-0.128c0.074-0.064,0.149-0.32,0.224-0.768   c0.075-0.448,0.235-0.805,0.48-1.072c0.245-0.267,0.442-0.4,0.592-0.4c0.064,0,0.31,0.117,0.736,0.352   c0.427,0.235,0.64,0.459,0.64,0.672s-0.037,0.416-0.112,0.608c-0.074,0.192-0.111,0.331-0.111,0.416   C19.448,14.937,19.501,14.979,19.608,14.979z M19.48,20.963c0.213,0,0.356-0.08,0.432-0.24c0.074-0.16,0.191-0.635,0.352-1.424   s0.24-1.285,0.24-1.488c0-0.202-0.059-0.336-0.176-0.399s-0.47-0.117-1.056-0.16c-0.588-0.042-1.024-0.063-1.313-0.063   s-0.432,0.085-0.432,0.256c0,0.17,0.053,0.342,0.16,0.512c0.106,0.171,0.266,0.304,0.479,0.4c0.213,0.096,0.32,0.283,0.32,0.56   c0,0.277-0.102,0.603-0.305,0.976c-0.202,0.374-0.304,0.592-0.304,0.656c0,0.149,0.091,0.229,0.272,0.24   c0.181,0.011,0.421,0.043,0.72,0.096C19.171,20.937,19.373,20.963,19.48,20.963z" stroke-width="1"/>
</g>
</svg>