<svg xmlns="http://www.w3.org/2000/svg" xmlns:xlink="http://www.w3.org/1999/xlink" version="1.1" id="图层_1" x="0px" y="0px" width="26.15199851989746" height="26.311002731323242" viewBox="1.5859997272491455 1.561000108718872 26.15199851989746 26.311002731323242" style="enable-background:new 0 0 30 30;" xml:space="preserve">
  <g>
    <g>
      <path style="fill:#0000FF;" d="M12.966,15.693c0,0.192-0.085,0.389-0.256,0.592s-0.405,0.304-0.704,0.304s-0.565-0.032-0.8-0.097&#13;&#10;&#9;&#9;l-0.672-0.16c-0.192,0-0.299,0.22-0.32,0.656c-0.021,0.438-0.096,1.35-0.224,2.736s-0.192,2.411-0.192,3.072&#13;&#10;&#9;&#9;c0,1.088,0.053,1.93,0.16,2.527l0.256,1.408c0,0.427-0.203,0.641-0.607,0.641c-0.406,0-0.806-0.145-1.2-0.432&#13;&#10;&#9;&#9;c-0.396-0.289-0.592-0.656-0.592-1.104c0-0.214,0.036-0.479,0.111-0.8s0.112-0.961,0.112-1.92c0-0.961,0.011-1.781,0.032-2.465&#13;&#10;&#9;&#9;l0.031-2.271c0-0.234-0.031-0.352-0.096-0.352c-0.063,0-0.16,0.063-0.288,0.191C6.992,19.01,6.07,19.885,4.95,20.845&#13;&#10;&#9;&#9;s-1.766,1.44-1.936,1.44c-0.171,0-0.368-0.097-0.592-0.289c-0.224-0.191-0.336-0.373-0.336-0.543c0-0.171,0.048-0.379,0.144-0.625&#13;&#10;&#9;&#9;c0.096-0.244,0.181-0.41,0.256-0.496c0.075-0.084,0.155-0.127,0.24-0.127h0.192c0.298,0,0.869-0.453,1.712-1.36&#13;&#10;&#9;&#9;s1.515-1.872,2.017-2.896c0.501-1.024,0.752-1.626,0.752-1.808c0-0.181-0.097-0.272-0.288-0.272c-1.088,0-2.112,0.448-3.072,1.344&#13;&#10;&#9;&#9;c-0.235,0.213-0.432,0.32-0.592,0.32c-0.16,0-0.293-0.128-0.4-0.384l-0.48-1.152c-0.213-0.512-0.32-0.981-0.32-1.408&#13;&#10;&#9;&#9;s0.026-0.672,0.08-0.736c0.053-0.064,0.208-0.106,0.464-0.128c0.789-0.042,1.802-0.256,3.04-0.64&#13;&#10;&#9;&#9;c1.237-0.384,1.989-0.661,2.256-0.832s0.4-0.384,0.4-0.64L8.454,7.629c0-1.28,0.042-2.448,0.128-3.504&#13;&#10;&#9;&#9;c0.085-1.056,0.165-1.664,0.24-1.824c0.074-0.16,0.271-0.24,0.592-0.24s0.715,0.075,1.184,0.224&#13;&#10;&#9;&#9;c0.47,0.149,0.704,0.326,0.704,0.528c0,0.203-0.106,0.411-0.319,0.624c-0.214,0.214-0.363,0.587-0.448,1.12&#13;&#10;&#9;&#9;c-0.086,0.534-0.128,1.43-0.128,2.688c0,1.259,0.005,1.952,0.016,2.08s0.102,0.192,0.272,0.192c0.17,0,0.368-0.016,0.592-0.048&#13;&#10;&#9;&#9;c0.224-0.032,0.405-0.048,0.544-0.048s0.24,0.037,0.304,0.112c0.064,0.075,0.097,0.262,0.097,0.56c0,0.726-0.203,1.248-0.608,1.568&#13;&#10;&#9;&#9;s-0.683,0.523-0.832,0.608c-0.149,0.085-0.245,0.214-0.288,0.384c-0.043,0.171-0.063,0.341-0.063,0.512&#13;&#10;&#9;&#9;c0,0.171,0.042,0.315,0.128,0.432c0.085,0.118,0.314,0.315,0.688,0.592c0.373,0.278,0.752,0.523,1.136,0.736&#13;&#10;&#9;&#9;C12.774,15.138,12.966,15.394,12.966,15.693z M20.23,17.164c0,0.15,0.048,0.252,0.144,0.305s0.843,0.213,2.24,0.48&#13;&#10;&#9;&#9;c1.396,0.267,2.458,0.41,3.184,0.432c0.405,0.021,0.693,0.111,0.864,0.271s0.277,0.582,0.32,1.264&#13;&#10;&#9;&#9;c0.042,0.684,0.096,1.185,0.159,1.505c0.064,0.319,0.097,0.597,0.097,0.832s-0.08,0.453-0.24,0.655&#13;&#10;&#9;&#9;c-0.16,0.203-0.31,0.305-0.448,0.305s-0.368-0.171-0.688-0.512c-0.918-0.961-2.032-1.873-3.345-2.736&#13;&#10;&#9;&#9;c-1.312-0.864-2.096-1.297-2.352-1.297c-0.107,0-0.187,0.076-0.24,0.225c-0.054,0.149-0.117,0.672-0.191,1.568&#13;&#10;&#9;&#9;c-0.075,0.896-0.112,1.775-0.112,2.64s0.032,1.524,0.096,1.983c0.064,0.459,0.097,0.785,0.097,0.977c0,0.192-0.097,0.325-0.288,0.4&#13;&#10;&#9;&#9;c-0.192,0.074-0.496,0.111-0.912,0.111s-0.684-0.053-0.8-0.16c-0.118-0.106-0.177-0.33-0.177-0.672l0.032-1.344&#13;&#10;&#9;&#9;c0.021-0.555,0.032-1.285,0.032-2.191s-0.021-1.856-0.064-2.848c-0.043-0.992-0.08-1.531-0.111-1.617&#13;&#10;&#9;&#9;c-0.032-0.084-0.086-0.127-0.16-0.127c-0.075,0-0.197,0.085-0.368,0.256c-0.661,0.683-1.344,1.333-2.048,1.951&#13;&#10;&#9;&#9;c-0.704,0.619-1.232,1.131-1.584,1.537c-0.353,0.404-0.662,0.607-0.928,0.607c-0.268,0-0.598-0.043-0.992-0.128&#13;&#10;&#9;&#9;c-0.396-0.085-0.592-0.192-0.592-0.32s0.213-0.353,0.64-0.672c0.746-0.513,1.877-1.632,3.392-3.36&#13;&#10;&#9;&#9;c1.515-1.728,2.272-2.751,2.272-3.072c0-0.213,0.09-0.384,0.271-0.512c0.182-0.128,0.368-0.405,0.561-0.832&#13;&#10;&#9;&#9;c0.191-0.427,0.288-0.688,0.288-0.784s-0.048-0.144-0.145-0.144c-0.096,0-0.459,0.123-1.088,0.368&#13;&#10;&#9;&#9;c-0.629,0.246-1.099,0.501-1.408,0.768s-0.592,0.4-0.848,0.4c-0.405,0-0.768-0.453-1.088-1.36s-0.48-1.451-0.48-1.632&#13;&#10;&#9;&#9;c0-0.181,0.085-0.293,0.256-0.336c0.171-0.042,0.353-0.059,0.545-0.048c0.191,0.011,0.33,0.016,0.416,0.016&#13;&#10;&#9;&#9;c0.853,0,2-0.245,3.439-0.736c1.44-0.49,2.667-0.864,3.68-1.12c1.014-0.256,1.605-0.384,1.776-0.384s0.299,0.038,0.384,0.112&#13;&#10;&#9;&#9;c0.085,0.075,0.272,0.352,0.561,0.832s0.469,0.822,0.544,1.024c0.074,0.203,0.111,0.416,0.111,0.64&#13;&#10;&#9;&#9;c0,0.224-0.053,0.374-0.159,0.448c-0.107,0.075-0.406,0.123-0.896,0.144c-0.896,0-1.76,0.416-2.592,1.248s-1.248,1.504-1.248,2.016&#13;&#10;&#9;&#9;c0,0.192,0.053,0.374,0.16,0.544c0.106,0.171,0.16,0.448,0.16,0.832L20.23,17.164z" stroke-width="1"/>
    </g>
    <g/>
    <g/>
    <g/>
    <g/>
    <g/>
    <g/>
    <g/>
    <g/>
    <g/>
    <g/>
    <g/>
    <g/>
    <g/>
    <g/>
    <g/>
  </g>
</svg>