<svg xmlns="http://www.w3.org/2000/svg" xmlns:xlink="http://www.w3.org/1999/xlink" version="1.1" id="图层_1" x="0px" y="0px" width="28.84000015258789" height="24.361995697021484" viewBox="-0.5100001096725464 3.2939999103546143 28.84000015258789 24.361995697021484" enable-background="new 0 0 30 30" xml:space="preserve">
<g>
	<path fill="#0000FF" d="M11.319,11.539c0,0.107-0.086,0.261-0.256,0.464c-0.172,0.203-0.337,0.459-0.496,0.768   c-0.16,0.31-0.4,0.678-0.721,1.104c-0.319,0.32-0.479,0.854-0.479,1.6c0,0.342,0.021,0.576,0.063,0.704s0.064,0.299,0.064,0.512   c0,0.534-0.139,1.12-0.416,1.761c-0.107,0.234-0.251,1.387-0.432,3.455c-0.182,2.07-0.272,3.531-0.272,4.385   c0,0.383-0.069,0.623-0.208,0.72s-0.379,0.144-0.72,0.144c-0.342,0-0.539-0.064-0.592-0.191c-0.054-0.129-0.069-0.332-0.048-0.608   c0.021-0.277,0.032-0.587,0.032-0.928l-0.224-4.769c0-0.469,0.026-0.891,0.08-1.264s0.08-0.875,0.08-1.504   s-0.085-0.944-0.256-0.944c-0.043,0-0.107,0.038-0.192,0.112c-0.085,0.074-0.288,0.229-0.608,0.464   c-0.32,0.235-0.56,0.544-0.72,0.929c-0.16,0.383-0.213,0.645-0.16,0.783s0.08,0.251,0.08,0.336c0,0.256-0.501,0.752-1.504,1.488   c-1.003,0.736-1.974,1.104-2.912,1.104c-0.341,0-0.512-0.09-0.512-0.271s0.128-0.4,0.384-0.656l3.2-3.136   c0.725-0.683,1.536-1.749,2.432-3.2l1.984-3.168c0.427-0.683,0.65-1.237,0.672-1.664c0.021-0.426,0.133-0.64,0.336-0.64   c0.202,0,0.64,0.288,1.312,0.864C10.983,10.867,11.319,11.283,11.319,11.539z M10.071,3.794c0.341,0,0.794,0.262,1.359,0.784   c0.565,0.523,0.849,0.944,0.849,1.264c0,0.32-0.128,0.544-0.385,0.672c-0.555,0.256-1.52,1.12-2.896,2.592s-2.272,2.39-2.688,2.752   c-0.416,0.363-0.709,0.544-0.88,0.544c-0.171,0-0.331-0.037-0.48-0.112c-0.15-0.075-0.224-0.187-0.224-0.336   c0-0.149,0.181-0.56,0.544-1.232C5.633,10.05,6.215,9.08,7.015,7.811c0.8-1.269,1.434-2.219,1.904-2.848   c0.469-0.629,0.752-0.981,0.848-1.056C9.863,3.832,9.964,3.794,10.071,3.794z M26.487,20.563c0.191,0,0.341,0.032,0.447,0.096   c0.106,0.064,0.283,0.48,0.528,1.248s0.368,1.334,0.368,1.696s-0.128,0.544-0.384,0.544c-0.149,0-0.464-0.102-0.944-0.305   c-0.479-0.201-1.291-0.383-2.432-0.543c-1.142-0.16-2.086-0.24-2.832-0.24c-0.747,0-1.504,0.027-2.272,0.08   c-0.768,0.053-1.237,0.123-1.408,0.208c-0.96,0.448-1.845,0.672-2.655,0.672l-0.929-0.063c-0.49,0-1.088,0.068-1.792,0.207   s-1.163,0.272-1.376,0.4s-0.421,0.191-0.624,0.191c-0.202,0-0.395-0.191-0.575-0.575c-0.182-0.384-0.272-0.661-0.272-0.832   c0-0.277,0.24-0.442,0.72-0.496c0.48-0.054,1.066-0.192,1.761-0.416c0.692-0.224,1.104-0.39,1.231-0.496s0.192-0.251,0.192-0.433   c0-0.18-0.021-0.356-0.064-0.527c-0.555-2.837-0.832-4.581-0.832-5.232c0-0.65,0.267-0.976,0.8-0.976   c0.299,0,0.683,0.064,1.152,0.192c0.469,0.128,0.736,0.251,0.8,0.368c0.064,0.118,0.097,0.277,0.097,0.48s-0.06,0.39-0.177,0.561   c-0.117,0.17-0.176,0.463-0.176,0.879s0.069,1.109,0.208,2.08c0.139,0.972,0.272,1.51,0.4,1.616   c0.128,0.107,0.282,0.14,0.464,0.097c0.181-0.043,0.464-0.097,0.848-0.16c0.384-0.064,0.635-0.154,0.752-0.272   c0.117-0.116,0.197-0.655,0.24-1.616l0.096-2.815c0.043-0.917,0.064-1.995,0.064-3.232c0-0.277-0.107-0.57-0.32-0.88   c-0.213-0.309-0.607-0.464-1.184-0.464s-0.96,0.085-1.152,0.256c-0.191,0.171-0.373,0.256-0.544,0.256   c-0.32,0-0.603-0.341-0.848-1.024c-0.246-0.682-0.368-1.354-0.368-2.016c0-0.277,0.106-0.411,0.32-0.4   c0.213,0.011,0.58,0.016,1.104,0.016c0.522,0,1.264-0.053,2.224-0.16s1.829-0.288,2.608-0.544c0.778-0.256,1.68-0.448,2.704-0.576   c1.023-0.128,1.626-0.192,1.808-0.192s0.299,0.059,0.353,0.176c0.053,0.118,0.08,0.427,0.08,0.928s-0.06,0.837-0.177,1.008   c-0.117,0.171-0.485,0.374-1.104,0.608c-0.619,0.235-1.237,0.427-1.856,0.576c-0.191,0.064-0.341,0.149-0.447,0.256   c-0.107,0.107-0.203,0.613-0.288,1.52c-0.086,0.907-0.128,1.467-0.128,1.68c0,0.363,0.085,0.544,0.256,0.544   c0.17,0,0.613-0.064,1.328-0.192c0.714-0.128,1.178-0.224,1.392-0.288c0.213-0.064,0.362-0.096,0.448-0.096   c0.085,0,0.165,0.038,0.24,0.112c0.074,0.075,0.154,0.262,0.239,0.56c0.085,0.299,0.128,0.598,0.128,0.896   c0,0.492-0.341,0.779-1.023,0.865c-0.299,0.063-0.812,0.207-1.536,0.432c-0.726,0.224-1.179,0.405-1.36,0.544   c-0.181,0.139-0.271,0.384-0.271,0.735c0,0.353,0.011,0.816,0.032,1.393c0.021,0.576,0.068,0.891,0.144,0.943   c0.074,0.055,0.187,0.08,0.336,0.08l4,0.097L26.487,20.563z" stroke-width="1"/>
</g>
</svg>