<svg xmlns="http://www.w3.org/2000/svg" xmlns:xlink="http://www.w3.org/1999/xlink" version="1.1" id="图层_1" x="0px" y="0px" width="26.984996795654297" height="25.350000381469727" viewBox="0.9630042314529419 1.9509999752044678 26.984996795654297 25.350000381469727" enable-background="new 0 0 30 30" xml:space="preserve">
<g>
	<path fill="#0000FF" d="M26.007,14.834c0.213,0,0.379,0.08,0.496,0.24c0.117,0.16,0.304,0.491,0.561,0.992   c0.256,0.502,0.384,0.886,0.384,1.152s-0.102,0.4-0.305,0.4c-0.202,0-0.539-0.043-1.008-0.129c-0.47-0.084-1.066-0.128-1.792-0.128   s-1.467,0.027-2.224,0.08c-0.758,0.054-1.531,0.123-2.32,0.208c-0.789,0.086-1.231,0.155-1.328,0.208   c-0.096,0.054-0.191,0.134-0.288,0.24c-0.096,0.106-0.165,0.214-0.208,0.319c-0.447,1.26-0.875,2.22-1.279,2.881   c-0.406,0.661-0.688,1.205-0.849,1.632s-0.245,0.763-0.256,1.008s-0.102,0.522-0.271,0.832c-0.171,0.31-0.678,0.65-1.521,1.024   c-0.843,0.373-1.589,0.635-2.24,0.783c-0.65,0.149-1.099,0.225-1.344,0.225s-0.368-0.064-0.368-0.192s0.192-0.341,0.576-0.64   c1.301-0.981,2.16-1.67,2.576-2.064s0.864-0.971,1.344-1.728c0.48-0.757,0.858-1.493,1.136-2.208s0.416-1.125,0.416-1.232   c0-0.32-0.139-0.48-0.416-0.48c-0.106,0-0.555,0.092-1.344,0.273c-0.789,0.181-1.461,0.389-2.016,0.623   c-0.555,0.235-0.892,0.438-1.008,0.608c-0.118,0.171-0.177,0.396-0.177,0.672c0,1.216,0.032,2.085,0.097,2.608   c0.063,0.522,0.096,0.795,0.096,0.815c0,0.362-0.139,0.544-0.416,0.544c-0.171,0-0.432-0.102-0.784-0.304   c-0.352-0.202-0.789-0.405-1.312-0.608c-0.523-0.202-1.308-0.72-2.352-1.552c-0.107-0.085-0.224-0.128-0.352-0.128   s-0.24,0.037-0.336,0.111c-0.096,0.076-0.331,0.4-0.704,0.977c-0.374,0.576-0.598,0.998-0.672,1.264   c-0.075,0.268-0.214,0.4-0.416,0.4c-0.203,0-0.64-0.246-1.312-0.736c-0.672-0.49-1.008-0.805-1.008-0.943s0.08-0.234,0.24-0.288   c0.16-0.054,0.4-0.251,0.72-0.593c0.32-0.34,0.709-0.719,1.168-1.135c0.458-0.416,0.688-0.773,0.688-1.072l-0.192-3.232   c-0.085-1.515-0.128-2.757-0.128-3.728c0-0.97,0.021-1.568,0.064-1.792c0.042-0.224,0.064-0.453,0.064-0.688L3.991,9.619   c0-0.299,0.224-0.544,0.672-0.736l2.656-1.088c1.322-0.512,2.458-0.768,3.407-0.768s1.425,0.192,1.425,0.576   c0,0.149-0.102,0.374-0.305,0.672c-0.203,0.299-0.411,0.875-0.624,1.728c-0.213,0.854-0.319,2.582-0.319,5.184   c0,0.917,0.031,1.478,0.096,1.681c0.064,0.202,0.224,0.303,0.479,0.303c0.107,0,0.357-0.063,0.753-0.191   c0.395-0.128,0.772-0.24,1.136-0.336c0.362-0.096,0.581-0.176,0.656-0.24c0.074-0.064,0.111-0.165,0.111-0.304   s-0.091-0.341-0.271-0.608c-0.182-0.267-0.422-0.933-0.721-2s-0.447-1.685-0.447-1.856c0-0.384,0.288-0.618,0.863-0.704   c0.277-0.042,0.773-0.165,1.488-0.368c0.715-0.203,1.264-0.362,1.648-0.48c0.384-0.117,0.575-0.357,0.575-0.72   c0-0.362,0.069-1.157,0.208-2.384c0.139-1.227,0.208-2.139,0.208-2.736c0-0.491-0.021-0.837-0.063-1.04   C17.58,3,17.559,2.867,17.559,2.803c0-0.235,0.225-0.352,0.673-0.352c0.96,0,1.439,0.117,1.439,0.352   c0,0.107-0.063,0.245-0.192,0.416c-0.128,0.171-0.191,1.152-0.191,2.944s0.048,2.79,0.144,2.992   c0.097,0.203,0.293,0.304,0.593,0.304l1.119-0.032c1.067,0,1.771,0.091,2.112,0.272c0.341,0.181,0.709,0.304,1.104,0.368   c0.395,0.064,0.592,0.224,0.592,0.48c0,0.192-0.118,0.374-0.353,0.544c-0.427,0.32-0.72,0.79-0.88,1.408   c-0.16,0.619-0.304,1.109-0.432,1.472s-0.192,0.587-0.192,0.672c0,0.32,0.139,0.48,0.416,0.48c0.085,0,0.427-0.026,1.024-0.08   c0.597-0.053,0.976-0.101,1.136-0.144C25.831,14.856,25.943,14.834,26.007,14.834z M6.391,18.354c0.085,0,0.224-0.075,0.416-0.224   c0.192-0.149,0.549-0.405,1.072-0.769c0.522-0.362,0.826-0.629,0.912-0.8c0.085-0.17,0.122-0.416,0.112-0.736   c-0.012-0.32-0.017-0.65-0.017-0.992l0.032-1.248c0-0.938-0.08-1.893-0.24-2.864S8.247,9.267,7.863,9.267   c-0.128,0-0.331,0.08-0.608,0.24c-0.277,0.16-0.469,0.683-0.576,1.568c-0.107,0.885-0.16,1.44-0.16,1.664   c0,0.224,0.117,0.336,0.352,0.336c0.427,0.021,0.709,0.085,0.848,0.192c0.139,0.107,0.208,0.4,0.208,0.88s-0.059,0.773-0.176,0.88   c-0.117,0.107-0.518,0.278-1.2,0.513c-0.085,0.021-0.192,0.17-0.32,0.447s-0.192,0.949-0.192,2.016   C6.039,18.237,6.156,18.354,6.391,18.354z M9.079,21.043l-0.096-2.145c0-0.256-0.086-0.384-0.257-0.384   c-0.106,0-0.495,0.353-1.168,1.056c-0.671,0.704-1.008,1.163-1.008,1.376c0,0.214,0.16,0.405,0.48,0.576s0.742,0.256,1.264,0.256   S9.079,21.533,9.079,21.043z M16.215,16.019c0.234,0,0.395-0.171,0.48-0.513c0.085-0.34,0.17-0.917,0.256-1.728   c0.085-0.81,0.128-1.354,0.128-1.632c0-0.277-0.123-0.416-0.368-0.416s-0.544,0.134-0.896,0.4   c-0.353,0.267-0.528,0.731-0.528,1.392c0,0.47,0.096,1.003,0.288,1.6C15.767,15.721,15.98,16.019,16.215,16.019z M19.447,15.475   c0.276,0,0.544-0.075,0.8-0.224c0.256-0.149,0.496-0.613,0.72-1.392c0.225-0.778,0.336-1.477,0.336-2.096s-0.373-0.928-1.12-0.928   c-0.299,0-0.518,0.054-0.655,0.16c-0.14,0.107-0.22,0.31-0.24,0.608c-0.043,0.896-0.107,1.622-0.192,2.176l-0.224,1.184   c0,0.149,0.053,0.272,0.16,0.368C19.138,15.427,19.276,15.475,19.447,15.475z M26.135,23.506c0,0.193-0.075,0.492-0.224,0.896   c-0.149,0.405-0.31,1.057-0.48,1.952c-0.063,0.256-0.219,0.384-0.464,0.384s-0.518-0.213-0.815-0.64   c-0.3-0.427-0.716-0.917-1.248-1.472c-0.534-0.555-1.163-1.275-1.889-2.16s-1.146-1.424-1.264-1.616s-0.176-0.347-0.176-0.464   s0.085-0.176,0.256-0.176s0.8,0.229,1.888,0.688s2.048,0.912,2.88,1.359c0.832,0.449,1.296,0.727,1.393,0.832   C26.087,23.197,26.135,23.336,26.135,23.506z" stroke-width="1"/>
</g>
</svg>