<svg xmlns="http://www.w3.org/2000/svg" xmlns:xlink="http://www.w3.org/1999/xlink" version="1.1" id="图层_1" x="0px" y="0px" width="28.007999420166016" height="21.257001876831055" viewBox="2.2039995193481445 4.270999908447266 28.007999420166016 21.257001876831055" enable-background="new 0 0 30 30" xml:space="preserve">
<g>
	<path fill="#0000FF" d="M9.2,14.755c0.148,0,0.224,0.534,0.224,1.601c0,1.066-0.421,2.459-1.264,4.176s-1.44,2.735-1.792,3.056   s-0.667,0.693-0.944,1.12c-0.171,0.213-0.352,0.32-0.544,0.32c-0.427,0-0.896-0.822-1.408-2.465   c-0.512-1.643-0.768-3.028-0.768-4.16c0-1.13,0.053-2.18,0.16-3.151c0.107-0.971,0.25-1.765,0.432-2.384   c0.181-0.619,0.331-1.003,0.448-1.152c0.117-0.149,0.272-0.224,0.464-0.224s0.586,0.171,1.184,0.512   c0.597,0.342,0.896,0.629,0.896,0.864s-0.246,0.555-0.736,0.96s-0.864,0.827-1.12,1.264c-0.256,0.438-0.48,1.009-0.672,1.712   c-0.192,0.704-0.288,1.451-0.288,2.24s0.09,1.371,0.272,1.744c0.181,0.373,0.501,0.561,0.96,0.561c0.458,0,1.024-0.406,1.696-1.217   c0.672-0.811,1.466-2.367,2.384-4.672C8.976,14.99,9.114,14.755,9.2,14.755z M7.568,4.771c0.319,0,0.538,0.155,0.655,0.464   C8.341,5.544,8.56,5.923,8.88,6.371C9.2,6.819,9.525,7.198,9.856,7.507c0.33,0.31,0.57,0.582,0.72,0.816   C10.725,8.558,10.8,8.835,10.8,9.155c0,0.32-0.054,0.523-0.16,0.608c-0.106,0.085-0.331,0.128-0.672,0.128s-0.901-0.069-1.68-0.208   c-0.779-0.139-1.296-0.405-1.552-0.8C6.48,8.488,6.352,8.024,6.352,7.491s0.021-0.987,0.064-1.36   c0.042-0.373,0.096-0.624,0.16-0.752s0.197-0.261,0.399-0.4C7.179,4.84,7.376,4.771,7.568,4.771z M29.712,24.387   c0,0.427-0.64,0.641-1.92,0.641c-1.621,0-3.307-0.31-5.056-0.929c-0.448-0.171-0.859-0.288-1.232-0.352   c-0.373-0.064-0.613-0.353-0.72-0.864c-0.256-1.066-0.646-1.984-1.168-2.752c-0.523-0.768-1.051-1.236-1.584-1.408   c-0.256-0.063-0.47-0.144-0.641-0.24c-0.171-0.096-0.304-0.144-0.399-0.144s-0.262,0.149-0.496,0.448   c-0.79,1.023-1.59,1.84-2.4,2.447c-0.811,0.608-1.499,1.014-2.063,1.217c-0.565,0.203-1.142,0.304-1.729,0.304   s-1.189-0.021-1.808-0.063c-0.619-0.043-0.966-0.096-1.04-0.16c-0.075-0.064-0.112-0.129-0.112-0.192   c0-0.192,0.288-0.368,0.864-0.528s1.312-0.426,2.208-0.799c0.896-0.373,1.536-0.693,1.92-0.961c0.384-0.266,0.795-0.65,1.232-1.152   c0.437-0.5,0.772-0.933,1.008-1.295c0.234-0.363,0.352-0.641,0.352-0.832c0-0.192-0.357-0.592-1.071-1.201   c-0.716-0.607-1.403-0.938-2.064-0.991S10.8,14.307,10.8,13.923c0-0.106,0.069-0.48,0.208-1.12c0.139-0.64,0.282-1.077,0.433-1.312   c0.148-0.235,0.271-0.395,0.367-0.48c0.097-0.085,0.197-0.128,0.305-0.128c0.256,0,0.597,0.272,1.023,0.816   c0.427,0.544,0.864,0.96,1.313,1.248c0.448,0.288,0.917,0.635,1.408,1.04c0.148,0.128,0.287,0.192,0.416,0.192   c0.298,0,0.602-0.544,0.911-1.632s0.465-1.925,0.465-2.512c0-0.586-0.123-0.928-0.368-1.024c-0.246-0.096-0.496-0.144-0.752-0.144   s-0.662,0.187-1.217,0.56c-0.555,0.374-0.954,0.56-1.199,0.56c-0.246,0-0.556-0.202-0.929-0.608c-0.373-0.405-0.56-0.672-0.56-0.8   S12.816,8.27,13.2,8.035s0.917-0.421,1.6-0.56s1.339-0.336,1.968-0.592c0.63-0.256,1.297-0.384,2-0.384   c0.704,0,1.456,0.208,2.257,0.624c0.8,0.416,1.199,0.768,1.199,1.056c0,0.288-0.128,0.496-0.384,0.624   c-0.256,0.128-0.533,0.405-0.832,0.832c-0.299,0.427-0.522,0.896-0.672,1.408c-0.448,1.472-1.014,2.88-1.696,4.224   c-0.128,0.235-0.191,0.48-0.191,0.736s0.128,0.518,0.384,0.784c0.256,0.268,0.49,0.561,0.704,0.88   c1.066,1.472,2.603,2.624,4.607,3.456c1.451,0.576,2.613,1.088,3.488,1.536s1.44,0.795,1.696,1.04S29.712,24.174,29.712,24.387z" stroke-width="1"/>
</g>
</svg>