<svg xmlns="http://www.w3.org/2000/svg" xmlns:xlink="http://www.w3.org/1999/xlink" version="1.1" id="图层_1" x="0px" y="0px" width="25.48000144958496" height="26.53600311279297" viewBox="1.3789973258972168 1.3739994764328003 25.48000144958496 26.53600311279297" enable-background="new 0 0 30 30" xml:space="preserve">
<g>
	<path fill="#0000FF" d="M24.407,16.658c0.148,0,0.319,0.225,0.512,0.672c0.192,0.448,0.48,1.387,0.864,2.816   s0.576,3.381,0.576,5.855c0,0.449-0.038,0.721-0.112,0.816c-0.075,0.096-0.336,0.145-0.784,0.145s-0.901,0.026-1.36,0.08   c-0.459,0.053-1.6,0.127-3.424,0.223c-1.823,0.098-3.237,0.145-4.239,0.145l-4.448-0.096l-1.057,0.031   c-0.49,0-0.971-0.143-1.439-0.432c-0.47-0.287-1.142-0.848-2.017-1.68c-0.875-0.832-1.418-1.648-1.631-2.447   c-0.214-0.801-0.32-1.568-0.32-2.305s0.091-1.461,0.272-2.176s0.272-1.424,0.272-2.128l-0.096-2.72c0-0.256,0.053-0.469,0.16-0.64   c0.107-0.17,0.299-0.245,0.576-0.224h0.416c0.384,0,0.885-0.144,1.504-0.432c0.618-0.288,1.435-0.848,2.448-1.68   c1.013-0.832,2.053-1.771,3.12-2.816c1.066-1.045,1.674-1.626,1.824-1.744c0.148-0.117,0.224-0.261,0.224-0.432   s-0.086-0.331-0.256-0.48c-0.171-0.149-0.357-0.224-0.561-0.224s-0.976,0.288-2.319,0.864c-1.345,0.576-2.4,1.125-3.168,1.648   c-0.769,0.523-1.28,0.939-1.536,1.248c-0.256,0.31-0.384,0.571-0.384,0.784c0,0.213,0.01,0.405,0.031,0.576   s0.032,0.336,0.032,0.496c0,0.16-0.075,0.315-0.224,0.464c-0.149,0.149-0.604,0.427-1.36,0.832   c-0.757,0.405-1.542,0.763-2.352,1.072c-0.811,0.31-1.307,0.518-1.488,0.624c-0.182,0.107-0.357,0.16-0.528,0.16   s-0.256-0.128-0.256-0.384c0-0.256,0.384-0.8,1.152-1.632c0.768-0.832,1.365-1.418,1.792-1.76C5.74,9.075,6.775,8.163,7.927,7.042   c1.152-1.12,2.171-1.979,3.057-2.576c0.885-0.597,1.792-1.114,2.72-1.552c0.928-0.437,1.467-0.72,1.616-0.848   c0.148-0.128,0.341-0.192,0.575-0.192c0.235,0,0.593,0.213,1.072,0.64c0.48,0.427,0.72,0.726,0.72,0.896   c0,0.171-0.063,0.31-0.191,0.416c-0.128,0.107-0.192,0.235-0.192,0.384c0,0.149,0.133,0.277,0.4,0.384   c0.267,0.107,0.442,0.171,0.528,0.192c0.512,0.128,0.922,0.331,1.231,0.608c0.31,0.277,0.464,0.603,0.464,0.976   c0,0.374-0.336,0.683-1.008,0.928c-0.672,0.246-1.472,0.704-2.4,1.376c-0.928,0.672-1.392,1.083-1.392,1.232   s0.277,0.224,0.832,0.224c1.387,0,2.507,0.208,3.36,0.624c0.853,0.416,1.279,0.795,1.279,1.136c0,0.235-0.288,0.805-0.863,1.712   c-0.576,0.907-0.992,1.472-1.248,1.696c-0.256,0.224-0.411,0.608-0.464,1.153c-0.054,0.543-0.129,0.9-0.225,1.071   s-0.219,0.267-0.368,0.288s-0.512,0.031-1.088,0.031s-1.142,0.055-1.695,0.16c-2.177,0.471-4.3,0.79-6.368,0.961   c-0.256,0.021-0.428,0.096-0.513,0.224s-0.165,0.374-0.239,0.735c-0.075,0.363-0.112,0.716-0.112,1.057   c0,0.832,0.208,1.553,0.624,2.16s1.013,1.04,1.792,1.296c0.778,0.256,2.181,0.384,4.208,0.384c2.026,0,3.776-0.08,5.248-0.24   s2.469-0.363,2.992-0.607c0.522-0.245,0.917-0.645,1.184-1.2c0.267-0.555,0.459-1.274,0.576-2.16   c0.117-0.885,0.176-2.021,0.176-3.407C24.215,16.84,24.279,16.658,24.407,16.658z M8.407,17.043c0.213,0,0.549-0.074,1.008-0.225   c0.458-0.148,0.757-0.32,0.896-0.512s0.293-0.561,0.465-1.104c0.17-0.544,0.256-1.013,0.256-1.408c0-0.395-0.075-0.592-0.225-0.592   s-0.49,0.064-1.023,0.192c-0.534,0.128-0.854,0.219-0.96,0.272c-0.107,0.054-0.192,0.149-0.256,0.288   c-0.064,0.139-0.107,0.416-0.128,0.832c-0.021,0.416-0.075,0.833-0.16,1.249c-0.086,0.416-0.128,0.688-0.128,0.815   S8.236,17.043,8.407,17.043z M13.175,15.795c0.085,0,0.331-0.049,0.736-0.145s0.811-0.145,1.216-0.145s0.752-0.426,1.04-1.279   c0.288-0.853,0.432-1.418,0.432-1.696c0-0.533-0.352-0.8-1.056-0.8c-0.235,0-0.598,0.059-1.088,0.176   c-0.491,0.117-0.784,0.208-0.88,0.272c-0.097,0.064-0.155,0.4-0.176,1.008c-0.021,0.608-0.107,1.131-0.257,1.568   c-0.149,0.438-0.224,0.72-0.224,0.848S13.004,15.795,13.175,15.795z" stroke-width="1"/>
</g>
</svg>