<svg xmlns="http://www.w3.org/2000/svg" xmlns:xlink="http://www.w3.org/1999/xlink" version="1.1" id="图层_1" x="0px" y="0px" width="21.288002014160156" height="30.118999481201172" viewBox="1.761998176574707 -0.0010012388229370117 21.288002014160156 30.118999481201172" enable-background="new 0 0 30 30" xml:space="preserve">
<g>
	<path fill="#0000FF" d="M22.295,15.603c0,0.235-0.224,0.726-0.672,1.472l-0.576,1.024c-0.256,0.384-0.416,0.655-0.479,0.815   c-0.064,0.16-0.097,0.391-0.097,0.688c0,0.299-0.037,0.501-0.111,0.608c-0.075,0.106-0.379,0.17-0.912,0.191   c-0.534,0.021-1.275,0.117-2.225,0.288s-1.76,0.288-2.432,0.353c-0.672,0.063-1.296,0.182-1.872,0.352   c-1.28,0.342-2.271,0.512-2.976,0.512c-0.385,0-0.944,0.55-1.681,1.648c-0.735,1.098-1.12,1.872-1.152,2.32   c-0.032,0.447-0.128,0.768-0.288,0.959c-0.16,0.192-0.603,0.598-1.328,1.217c-0.726,0.619-1.35,1.035-1.872,1.248   c-0.523,0.213-0.88,0.32-1.072,0.32c-0.192,0-0.288-0.061-0.288-0.176c0-0.119,0.149-0.326,0.448-0.625   c1.152-1.322,2.026-2.395,2.624-3.216c0.597-0.821,1.141-1.69,1.632-2.608c0.49-0.916,0.849-1.668,1.072-2.256   c0.224-0.586,0.368-1.119,0.432-1.6c0.064-0.48,0.097-1.189,0.097-2.128c0-0.341,0.048-0.56,0.144-0.656s0.459-0.187,1.088-0.272   c0.629-0.084,1.424-0.266,2.384-0.543c2.837-0.811,4.779-1.216,5.824-1.216s1.931,0.117,2.656,0.352   c0.725,0.235,1.179,0.4,1.36,0.496C22.204,15.267,22.295,15.411,22.295,15.603z M21.367,5.842c0.362,0,0.65,0.262,0.864,0.784   c0.213,0.523,0.319,0.901,0.319,1.136s-0.059,0.384-0.176,0.448s-0.646,0.096-1.584,0.096c-0.939,0-1.835,0.069-2.688,0.208   s-1.365,0.267-1.535,0.384c-0.172,0.118-0.257,0.315-0.257,0.592c0,0.619,0.139,0.928,0.416,0.928c0.085,0,0.32-0.032,0.704-0.096   c0.385-0.064,0.811-0.096,1.28-0.096c0.469,0,0.826,0.048,1.072,0.144c0.245,0.096,0.427,0.32,0.544,0.672s0.176,0.646,0.176,0.88   c0,0.427-0.256,0.651-0.768,0.672c-1.408,0.043-2.342,0.096-2.801,0.16s-1.184,0.235-2.176,0.512   c-0.992,0.277-1.898,0.416-2.72,0.416s-1.595,0.16-2.32,0.48c-0.319,0.128-0.57,0.192-0.752,0.192s-0.379-0.192-0.592-0.576   c-0.214-0.384-0.32-0.693-0.32-0.928c0-0.234,0.197-0.378,0.593-0.432c0.394-0.053,1.071-0.229,2.031-0.528s1.61-0.491,1.952-0.576   c0.341-0.085,0.539-0.165,0.592-0.24c0.054-0.075,0.08-0.25,0.08-0.528c0-0.277-0.026-0.464-0.08-0.56   c-0.053-0.096-0.133-0.144-0.239-0.144c-0.107,0-0.283,0.022-0.528,0.064c-0.245,0.043-0.533,0.048-0.864,0.016   c-0.331-0.032-0.613-0.048-0.848-0.048c-1.152,0-2.112,0.277-2.88,0.832c-0.385,0.277-0.646,0.416-0.784,0.416   c-0.139,0-0.235-0.075-0.288-0.224c-0.054-0.149-0.128-0.314-0.224-0.496c-0.096-0.181-0.219-0.395-0.368-0.64   C6.049,9.518,5.975,9.31,5.975,9.139c0-0.17,0.123-0.325,0.368-0.464c0.245-0.138,0.768-0.298,1.568-0.48   c0.8-0.181,1.472-0.304,2.016-0.368s1.093-0.181,1.648-0.352c0.555-0.17,0.949-0.277,1.184-0.32   c0.234-0.042,0.39-0.112,0.464-0.208c0.075-0.096,0.128-0.522,0.16-1.28c0.032-0.757,0.085-1.541,0.16-2.352   c0.074-0.811,0.112-1.269,0.112-1.376l-0.097-0.896c0-0.362,0.187-0.544,0.561-0.544c0.373,0,0.944,0.085,1.712,0.256   c0.768,0.171,1.152,0.326,1.152,0.464s-0.086,0.283-0.257,0.432c-0.171,0.149-0.287,0.459-0.352,0.928s-0.096,1.558-0.096,3.264   c0,0.278,0.063,0.416,0.191,0.416s0.379-0.026,0.752-0.08s0.912-0.096,1.616-0.128c0.704-0.032,1.274-0.074,1.712-0.128   C20.988,5.87,21.26,5.842,21.367,5.842z M10.839,19.826c0.106,0,0.272-0.048,0.496-0.144c0.224-0.097,0.667-0.24,1.328-0.433   c0.362-0.105,0.597-0.304,0.704-0.592c0.106-0.287,0.16-0.618,0.16-0.992c0-0.373-0.097-0.56-0.288-0.56   c-0.064,0-0.192,0.043-0.384,0.128c-0.192,0.086-0.539,0.208-1.04,0.368c-0.502,0.16-0.79,0.294-0.864,0.399   c-0.075,0.107-0.128,0.32-0.16,0.641s-0.059,0.555-0.08,0.704l-0.063,0.319C10.647,19.773,10.711,19.826,10.839,19.826z    M16.151,18.61c0.085,0,0.244-0.016,0.479-0.048c0.234-0.031,0.565-0.059,0.992-0.08s0.704-0.208,0.832-0.561   c0.128-0.352,0.192-0.768,0.192-1.248c0-0.479-0.48-0.719-1.44-0.719c-0.342,0-0.598,0.021-0.768,0.063   c-0.172,0.043-0.283,0.106-0.337,0.192c-0.053,0.085-0.117,0.309-0.191,0.672c-0.075,0.363-0.112,0.699-0.112,1.008   c0,0.31,0.021,0.507,0.064,0.592C15.905,18.568,16.002,18.61,16.151,18.61z" stroke-width="1"/>
</g>
</svg>