<svg xmlns="http://www.w3.org/2000/svg" xmlns:xlink="http://www.w3.org/1999/xlink" version="1.1" id="图层_1" x="0px" y="0px" width="29.224002838134766" height="25.41600227355957" viewBox="0.2909947633743286 2.0159974098205566 29.224002838134766 25.41600227355957" enable-background="new 0 0 30 30" xml:space="preserve">
<g>
	<path fill="#0000FF" d="M18.007,17.427c0,0.384,0.176,0.901,0.528,1.552c0.352,0.65,0.784,1.205,1.296,1.664   s0.901,0.854,1.168,1.184c0.267,0.332,0.635,0.635,1.104,0.912c0.47,0.277,1.227,0.613,2.272,1.008   c1.045,0.395,2.08,0.869,3.104,1.424c1.024,0.555,1.536,0.971,1.536,1.248c0,0.129-0.213,0.246-0.64,0.353s-0.907,0.16-1.44,0.16   s-1.291-0.054-2.271-0.16c-0.981-0.106-1.766-0.208-2.353-0.304s-0.938-0.209-1.056-0.336c-0.117-0.129-0.219-0.502-0.304-1.12   c-0.086-0.619-0.251-1.125-0.496-1.521c-0.245-0.395-0.758-0.869-1.536-1.424c-0.779-0.555-1.291-0.832-1.536-0.832   s-0.475,0.172-0.688,0.512c-0.214,0.342-0.571,0.822-1.072,1.44c-0.502,0.619-0.997,1.301-1.488,2.048   c-0.277,0.427-0.763,0.773-1.456,1.04s-1.376,0.399-2.048,0.399s-1.008-0.096-1.008-0.287c0-0.129,0.171-0.288,0.512-0.48   c1.387-0.725,2.427-1.451,3.12-2.176s1.28-1.813,1.76-3.264c0.48-1.451,0.721-2.581,0.721-3.393c0-0.256-0.032-0.618-0.097-1.088   c-0.063-0.469-0.203-0.704-0.416-0.704c-0.106,0-0.213,0.053-0.319,0.16c-0.812,0.683-1.676,1.195-2.593,1.536   c-0.128,0.064-0.191,0.352-0.191,0.863c0,0.513-0.145,1.308-0.433,2.385c-0.287,1.078-0.752,2.043-1.392,2.896   s-1.099,1.402-1.376,1.647s-0.523,0.501-0.736,0.769c-0.213,0.266-0.427,0.399-0.64,0.399c-0.214,0-0.395-0.134-0.544-0.399   c-0.149-0.268-0.347-0.71-0.592-1.328c-0.246-0.619-0.368-1.227-0.368-1.824s0.042-1.232,0.128-1.904   c0.085-0.672,0.128-1.313,0.128-1.92s-0.016-0.977-0.048-1.104c-0.032-0.129-0.096-0.192-0.192-0.192   c-0.096,0-0.198,0.043-0.304,0.128c-0.726,0.576-1.509,1.04-2.352,1.393c-0.843,0.352-1.573,0.527-2.192,0.527   c-0.277,0-0.416-0.068-0.416-0.208c0-0.138,0.234-0.453,0.704-0.944c0.469-0.49,0.938-0.928,1.408-1.312   c0.896-0.747,1.776-1.834,2.64-3.264c0.864-1.429,1.552-2.88,2.064-4.352C8.119,7.763,8.476,6.84,8.679,6.466   c0.203-0.373,0.368-0.634,0.496-0.784c0.128-0.149,0.293-0.224,0.496-0.224c0.202,0,0.555,0.118,1.056,0.352   c0.501,0.235,0.752,0.475,0.752,0.72s-0.106,0.432-0.319,0.56c-0.448,0.299-0.8,0.907-1.057,1.824   C10.018,9.192,9.948,9.39,9.895,9.506C9.842,9.624,9.815,9.742,9.815,9.858c0,0.118,0.031,0.198,0.096,0.24   c0.063,0.043,0.219,0.064,0.464,0.064s0.485-0.016,0.72-0.048c0.234-0.032,0.427-0.048,0.576-0.048   c0.555,0,1.083,0.182,1.584,0.544c0.501,0.363,0.752,0.667,0.752,0.912c0,0.246-0.176,0.416-0.528,0.512   c-0.352,0.096-0.618,0.293-0.8,0.592c-0.182,0.299-0.442,0.656-0.784,1.072c-0.341,0.416-0.646,0.709-0.911,0.88   c-0.268,0.171-0.624,0.438-1.072,0.8c-0.448,0.364-0.769,0.582-0.96,0.657c-0.192,0.074-0.336,0.159-0.433,0.256   c-0.096,0.096-0.154,0.197-0.176,0.304c-0.171,1.344-0.395,2.416-0.672,3.216s-0.416,1.381-0.416,1.744   c0,0.619,0.245,0.928,0.736,0.928c0.618,0,1.316-0.539,2.096-1.615c0.778-1.078,1.307-2.225,1.584-3.44   c0.085-0.448,0.213-0.778,0.384-0.992c1.771-2.133,3.029-4.469,3.776-7.008c0.746-2.539,1.216-4.533,1.408-5.984   c0.085-0.618,0.319-0.928,0.704-0.928c0.384,0,0.874,0.149,1.472,0.448c0.597,0.299,0.896,0.555,0.896,0.768   c0,0.213-0.106,0.363-0.319,0.448C19.5,4.392,19.159,4.92,18.967,5.763c-0.191,0.843-0.438,1.595-0.735,2.256   c-0.3,0.662-0.508,1.312-0.624,1.952c-0.118,0.64-0.177,1.045-0.177,1.216c0,0.363,0.128,0.544,0.385,0.544   c0.063,0,0.138-0.021,0.224-0.064c1.066-0.405,1.957-0.608,2.672-0.608s1.701,0.48,2.96,1.44s1.888,1.616,1.888,1.968   c0,0.352-0.245,0.592-0.735,0.72c-0.491,0.128-1.1,0.319-1.824,0.576c-0.726,0.256-1.397,0.384-2.016,0.384   c-0.875,0-1.313-0.096-1.313-0.288c0-0.106,0.154-0.234,0.464-0.384c0.31-0.149,0.635-0.442,0.977-0.88   c0.341-0.437,0.512-0.821,0.512-1.152c0-0.331-0.107-0.597-0.32-0.8c-0.213-0.203-0.491-0.304-0.832-0.304   s-1.045,0.251-2.111,0.752c-1.067,0.501-1.601,0.832-1.601,0.992s0.288,0.363,0.864,0.608c0.576,0.246,0.864,0.518,0.864,0.815   c0,0.043-0.08,0.326-0.24,0.849S18.007,17.234,18.007,17.427z M10.167,12.723c0-0.299-0.08-0.517-0.24-0.656   c-0.16-0.138-0.341-0.208-0.544-0.208s-0.507,0.128-0.912,0.384c-0.405,0.256-0.768,0.709-1.088,1.36   c-0.32,0.651-0.48,1.083-0.48,1.296c0,0.213,0.075,0.32,0.224,0.32l0.704,0.032c0.192,0,0.427-0.117,0.704-0.352l0.864-0.672   c0.298-0.256,0.501-0.506,0.607-0.752C10.113,13.229,10.167,12.979,10.167,12.723z" stroke-width="1"/>
</g>
</svg>