<svg xmlns="http://www.w3.org/2000/svg" xmlns:xlink="http://www.w3.org/1999/xlink" version="1.1" width="61.875762939453125" height="37.3330078125" viewBox="0.6291288137435913 0.16700005531311035 61.875762939453125 37.3330078125">
  <!-- Exported by Scratch - http://scratch.mit.edu/ -->
  <g id="ID0.13595858495682478">
    <path id="ID0.819302539806813" fill="#4D4D4D" stroke="#000000" stroke-width="0.6769" d="M 62.002 24.139 C 62.002 31.242 62.328 37.007 56.005 37 L 6.613 37 C 2.384 37 2.396 31.241 2.396 24.139 L 2.396 15.565 C 2.396 8.462 1.933 2.705 6.79 2.705 L 56.144 2.705 C 62.325 2.705 62.002 8.463 62.002 15.565 L 62.002 24.139 Z "/>
    <path id="ID0.09867569664493203" fill="#B2B2B2" stroke="#000000" stroke-width="0.6769" d="M 60.746 22.102 C 60.746 29.205 61.074 34.97 54.75 34.963 L 5.358 34.963 C 1.13 34.963 1.141 29.204 1.141 22.102 L 1.141 13.527 C 1.141 6.424 0.678 0.667 5.535 0.667 L 54.889 0.667 C 61.07 0.667 60.745 6.425 60.745 13.527 L 60.745 22.102 Z "/>
    <g id="ID0.4904809258878231">
      <path id="ID0.7708951500244439" fill="#4D4D4D" d="M 19.366 13.614 C 19.366 13.722 19.249 13.968 19.015 14.352 C 18.781 14.736 18.565 14.991 18.367 15.117 C 18.169 15.243 17.896 15.312 17.548 15.324 C 17.44 15.336 17.359 15.369 17.305 15.423 C 17.251 15.477 17.2 15.612 17.152 15.828 C 17.104 16.044 17.08 16.251 17.08 16.449 C 17.08 16.647 17.163 16.782 17.332 16.854 C 17.5 16.926 17.806 16.974 18.25 16.998 C 18.406 17.01 18.484 17.052 18.484 17.124 C 18.484 17.268 18.367 17.499 18.133 17.817 C 17.899 18.135 17.578 18.372 17.17 18.528 C 17.014 18.589 16.921 18.652 16.891 18.717 C 16.861 18.783 16.816 19.314 16.756 20.311 C 16.696 21.307 16.621 21.957 16.531 22.264 C 16.441 22.569 16.288 22.839 16.072 23.074 C 15.856 23.307 15.658 23.425 15.478 23.425 C 15.298 23.425 14.806 23.279 14.002 22.984 C 13.198 22.691 12.796 22.435 12.796 22.219 C 12.796 22.111 12.91 22.058 13.138 22.058 C 13.366 22.058 13.72 22.025 14.2 21.958 C 14.679 21.892 15.031 21.817 15.253 21.733 C 15.475 21.649 15.619 21.538 15.685 21.399 C 15.751 21.262 15.817 20.869 15.883 20.221 C 15.949 19.573 15.982 19.206 15.982 19.122 C 15.982 18.918 15.922 18.816 15.802 18.816 C 15.682 18.816 15.385 18.867 14.911 18.969 C 14.437 19.071 14.176 19.14 14.128 19.176 C 13.876 19.356 13.654 19.446 13.462 19.446 C 13.126 19.446 12.958 19.17 12.958 18.618 C 12.958 18.33 12.982 18.09 13.03 17.898 C 13.078 17.706 13.144 17.565 13.228 17.475 C 13.312 17.385 13.393 17.337 13.471 17.331 C 13.549 17.325 13.627 17.322 13.705 17.322 C 13.783 17.322 13.912 17.292 14.092 17.232 C 14.272 17.172 14.722 17.112 15.442 17.052 C 15.922 17.005 16.162 16.644 16.162 15.972 C 16.162 15.792 16.135 15.663 16.081 15.585 C 16.027 15.507 15.94 15.468 15.82 15.468 C 15.7 15.468 15.403 15.486 14.929 15.522 C 14.454 15.558 14.146 15.597 14.002 15.639 C 13.858 15.681 13.726 15.702 13.606 15.702 C 13.318 15.702 13.174 15.507 13.174 15.117 C 13.174 14.727 13.216 14.37 13.3 14.046 C 13.384 13.722 13.546 13.56 13.786 13.56 L 13.984 13.578 C 14.26 13.578 14.674 13.527 15.226 13.425 C 15.778 13.323 16.123 13.23 16.261 13.146 C 16.399 13.062 16.491 12.978 16.54 12.894 C 16.852 12.366 17.218 12.102 17.638 12.102 C 17.721 12.102 17.776 12.156 17.8 12.264 C 17.824 12.372 17.836 12.594 17.836 12.93 C 17.836 13.122 17.962 13.26 18.214 13.344 C 18.466 13.428 18.721 13.47 18.979 13.47 C 19.237 13.47 19.366 13.518 19.366 13.614 Z M 28.906 22.398 C 28.906 22.613 28.57 23.105 27.898 23.874 C 27.226 24.642 26.614 25.025 26.062 25.025 C 25.51 25.025 24.982 24.785 24.478 24.306 C 23.746 23.597 22.918 23.126 21.994 22.892 C 21.07 22.659 20.044 22.541 18.916 22.541 C 18.556 22.541 18.274 22.593 18.07 22.694 C 17.866 22.795 17.728 22.846 17.656 22.846 C 17.5 22.846 17.422 22.691 17.422 22.378 C 17.422 22.066 17.458 21.848 17.53 21.721 C 17.602 21.596 17.785 21.46 18.079 21.317 C 18.373 21.172 18.871 20.893 19.573 20.479 C 20.275 20.065 20.677 19.795 20.779 19.669 C 20.881 19.543 20.986 19.48 21.094 19.48 C 21.202 19.48 21.292 19.51 21.364 19.57 C 21.436 19.631 21.472 19.714 21.472 19.822 C 21.472 20.051 21.322 20.265 21.022 20.47 C 20.854 20.589 20.671 20.737 20.473 20.91 C 20.275 21.084 20.176 21.188 20.176 21.225 C 20.176 21.321 20.407 21.405 20.869 21.477 C 21.331 21.548 21.646 21.584 21.814 21.584 C 21.982 21.584 22.096 21.533 22.156 21.432 C 22.216 21.329 22.297 20.975 22.399 20.369 C 22.501 19.763 22.552 19.334 22.552 19.082 C 22.552 18.83 22.462 18.704 22.282 18.704 C 21.994 18.704 21.166 18.818 19.798 19.046 C 19.498 19.107 19.237 19.136 19.015 19.136 C 18.793 19.136 18.634 19.079 18.538 18.965 C 18.442 18.851 18.394 18.746 18.394 18.65 C 18.394 18.554 18.415 18.479 18.457 18.425 C 18.499 18.371 18.559 18.341 18.637 18.335 C 18.715 18.329 18.811 18.326 18.925 18.326 C 19.039 18.326 19.261 18.275 19.591 18.173 C 19.921 18.071 20.446 17.982 21.166 17.903 C 21.886 17.824 22.63 17.786 23.398 17.786 C 24.898 17.786 25.9 17.918 26.404 18.182 C 26.56 18.266 26.671 18.311 26.737 18.317 C 26.803 18.323 26.869 18.326 26.935 18.326 C 27.001 18.326 27.034 18.353 27.034 18.407 C 27.034 18.461 26.98 18.551 26.872 18.677 C 26.764 18.803 26.566 18.866 26.278 18.866 C 25.99 18.866 25.582 18.836 25.054 18.776 C 24.526 18.716 24.163 18.686 23.965 18.686 C 23.767 18.686 23.641 18.743 23.587 18.857 C 23.533 18.971 23.506 19.148 23.506 19.388 C 23.506 19.629 23.515 19.778 23.533 19.838 C 23.551 19.899 23.602 19.928 23.686 19.928 C 24.034 19.928 24.388 19.826 24.748 19.622 C 24.88 19.551 25.045 19.514 25.243 19.514 C 25.441 19.514 25.627 19.575 25.801 19.695 C 25.975 19.815 26.062 19.947 26.062 20.091 C 26.062 20.523 25.846 20.739 25.414 20.739 C 25.21 20.739 24.895 20.694 24.469 20.604 C 24.043 20.514 23.8 20.469 23.74 20.469 C 23.524 20.469 23.416 20.666 23.416 21.063 C 23.416 21.459 23.476 21.71 23.596 21.819 C 23.716 21.926 23.938 22.032 24.262 22.133 C 24.586 22.236 24.919 22.362 25.261 22.512 C 25.603 22.661 26.11 22.737 26.782 22.737 C 27.634 22.737 28.228 22.635 28.564 22.43 C 28.684 22.358 28.771 22.323 28.825 22.323 C 28.879 22.326 28.906 22.35 28.906 22.398 Z M 23.848 12.606 C 25 12.606 26.02 12.69 26.908 12.858 C 27.148 12.906 27.358 12.936 27.538 12.948 C 27.718 12.96 27.808 13.062 27.808 13.254 C 27.808 13.446 27.621 13.674 27.25 13.938 C 26.974 14.142 26.494 15.048 25.81 16.656 C 25.702 16.908 25.636 17.052 25.612 17.088 C 25.588 17.124 25.531 17.154 25.441 17.178 C 25.351 17.202 25.234 17.214 25.09 17.214 C 24.946 17.214 24.742 17.196 24.478 17.16 C 24.214 17.124 23.89 17.106 23.506 17.106 C 22.402 17.106 21.256 17.196 20.068 17.376 C 19.948 17.4 19.831 17.412 19.717 17.412 C 19.603 17.412 19.546 17.37 19.546 17.286 C 19.546 17.202 19.588 17.094 19.672 16.962 L 20.032 15.99 C 20.272 15.378 20.392 14.886 20.392 14.514 C 20.392 14.142 20.362 13.881 20.302 13.731 C 20.242 13.581 20.107 13.431 19.897 13.281 C 19.687 13.131 19.582 13.027 19.582 12.966 C 19.582 12.906 19.69 12.87 19.906 12.858 C 20.494 12.834 21.076 12.786 21.652 12.714 C 22.228 12.642 22.96 12.606 23.848 12.606 Z M 25.18 16.314 C 25.324 16.314 25.447 16.2 25.549 15.972 C 25.651 15.744 25.702 15.6 25.702 15.54 C 25.702 15.48 25.663 15.435 25.585 15.405 C 25.507 15.375 25.327 15.351 25.045 15.333 C 24.763 15.315 24.412 15.306 23.992 15.306 C 23.572 15.306 23.076 15.348 22.507 15.432 C 21.938 15.516 21.562 15.585 21.382 15.639 C 21.202 15.693 21.076 15.816 21.004 16.008 C 20.932 16.2 20.896 16.339 20.896 16.422 C 20.896 16.506 20.92 16.548 20.968 16.548 C 21.016 16.548 21.07 16.542 21.13 16.53 C 22.03 16.29 22.765 16.17 23.335 16.17 C 23.905 16.17 24.343 16.194 24.649 16.242 C 24.955 16.29 25.132 16.314 25.18 16.314 Z M 25.666 14.46 C 26.05 14.46 26.242 14.268 26.242 13.884 C 26.242 13.764 26.206 13.693 26.134 13.668 C 26.062 13.644 25.795 13.608 25.333 13.56 C 24.871 13.512 24.415 13.488 23.965 13.488 C 23.515 13.488 23.044 13.518 22.552 13.578 C 22.06 13.638 21.751 13.716 21.625 13.812 C 21.499 13.908 21.436 14.043 21.436 14.217 C 21.436 14.391 21.52 14.478 21.688 14.478 C 21.856 14.478 22.09 14.442 22.39 14.37 C 22.69 14.298 23.11 14.262 23.65 14.262 C 24.19 14.262 24.631 14.295 24.973 14.361 C 25.315 14.427 25.546 14.46 25.666 14.46 Z " stroke-width="1"/>
      <path id="ID0.6191724324598908" fill="#4D4D4D" d="M 50.974 16.116 C 50.974 16.296 50.698 16.704 50.146 17.34 C 49.594 17.976 48.976 18.294 48.292 18.294 C 47.933 18.294 47.44 18.189 46.816 17.979 C 46.192 17.769 45.565 17.664 44.935 17.664 C 44.305 17.664 43.946 17.679 43.855 17.709 C 43.765 17.739 43.702 17.793 43.667 17.871 C 43.63 17.949 43.601 18.216 43.577 18.672 C 43.552 19.129 43.54 19.641 43.54 20.211 C 43.54 20.781 43.564 21.366 43.612 21.966 C 43.66 22.567 43.684 22.987 43.684 23.227 C 43.684 23.85 43.561 24.225 43.315 24.352 C 43.069 24.477 42.874 24.54 42.73 24.54 C 42.586 24.54 42.493 24.423 42.452 24.189 C 42.409 23.955 42.389 23.669 42.389 23.334 C 42.389 22.999 42.41 22.389 42.452 21.507 C 42.493 20.625 42.515 19.986 42.515 19.59 C 42.515 19.194 42.509 18.861 42.497 18.591 C 42.484 18.321 42.472 18.144 42.46 18.06 C 42.448 17.976 42.415 17.91 42.362 17.862 C 42.307 17.814 42.219 17.79 42.1 17.79 C 41.489 17.79 40.079 18.126 37.87 18.798 C 37.499 18.906 37.133 18.96 36.772 18.96 C 36.413 18.96 36.124 18.918 35.909 18.834 C 35.692 18.75 35.599 18.642 35.63 18.51 C 35.659 18.378 35.675 18.261 35.675 18.159 C 35.675 18.057 35.663 17.949 35.639 17.835 C 35.615 17.721 35.603 17.652 35.603 17.628 C 35.603 17.484 35.69 17.34 35.865 17.196 C 36.039 17.052 36.188 16.98 36.314 16.98 C 36.44 16.98 36.544 16.998 36.628 17.034 C 36.712 17.07 36.82 17.088 36.952 17.088 C 37.085 17.088 37.21 17.064 37.331 17.016 C 37.835 16.824 38.81 16.575 40.255 16.269 C 41.702 15.963 42.796 15.81 43.54 15.81 C 44.548 15.81 45.634 15.888 46.798 16.044 C 47.194 16.104 47.843 16.134 48.743 16.134 C 49.642 16.134 50.194 16.11 50.398 16.062 C 50.602 16.014 50.749 15.99 50.838 15.99 C 50.929 15.99 50.974 16.032 50.974 16.116 Z M 49.695 13.722 C 49.695 13.854 49.578 14.091 49.344 14.433 C 49.111 14.775 48.753 14.946 48.273 14.946 C 48.044 14.946 47.646 14.91 47.076 14.838 C 46.506 14.766 45.693 14.73 44.638 14.73 C 43.583 14.73 42.407 14.826 41.11 15.018 C 39.814 15.21 38.68 15.474 37.708 15.81 C 37.433 15.906 37.192 15.954 36.989 15.954 C 36.364 15.954 36.052 15.576 36.052 14.82 C 36.052 14.616 36.061 14.475 36.078 14.397 C 36.097 14.319 36.141 14.256 36.213 14.208 C 36.285 14.16 36.748 14.037 37.6 13.839 C 38.452 13.641 39.325 13.476 40.219 13.344 C 41.113 13.212 41.992 13.11 42.856 13.038 C 43.72 12.966 44.608 12.93 45.52 12.93 C 46.432 12.93 47.257 12.984 47.995 13.092 C 48.733 13.2 49.202 13.302 49.399 13.398 C 49.597 13.494 49.695 13.602 49.695 13.722 Z M 41.326 19.482 C 41.326 19.782 41.088 20.295 40.615 21.022 C 40.14 21.748 39.67 22.299 39.201 22.677 C 38.733 23.055 38.328 23.244 37.986 23.244 C 37.644 23.244 37.32 22.963 37.014 22.398 C 36.708 21.833 36.555 21.453 36.555 21.254 C 36.555 21.055 36.632 20.957 36.788 20.957 C 36.849 20.957 36.948 20.976 37.085 21.011 C 37.224 21.047 37.364 21.066 37.509 21.066 C 37.821 21.066 38.132 20.946 38.445 20.706 C 39.045 20.262 39.57 19.902 40.02 19.626 C 40.47 19.35 40.744 19.212 40.839 19.212 C 41.164 19.212 41.326 19.302 41.326 19.482 Z M 45.357 18.906 C 45.441 18.906 45.525 18.969 45.609 19.095 C 45.693 19.221 45.798 19.317 45.924 19.383 C 46.05 19.449 46.337 19.551 46.788 19.69 C 47.237 19.828 47.667 19.993 48.075 20.184 C 48.482 20.376 48.818 20.553 49.083 20.715 C 49.347 20.877 49.523 20.991 49.614 21.057 C 49.704 21.123 49.749 21.199 49.749 21.283 C 49.749 21.463 49.503 21.768 49.011 22.201 C 48.519 22.633 48.032 22.848 47.553 22.848 C 47.216 22.848 46.913 22.741 46.644 22.524 C 46.374 22.309 46.005 21.784 45.537 20.95 C 45.07 20.116 44.836 19.612 44.836 19.438 C 44.836 19.264 44.899 19.132 45.024 19.042 C 45.149 18.952 45.262 18.906 45.357 18.906 Z " stroke-width="1"/>
    </g>
  </g>
</svg>