<svg xmlns="http://www.w3.org/2000/svg" xmlns:xlink="http://www.w3.org/1999/xlink" version="1.1" id="图层_1" x="0px" y="0px" width="24.551998138427734" height="27.4010009765625" viewBox="2.5950002670288086 0.4790000319480896 24.551998138427734 27.4010009765625" enable-background="new 0 0 30 30" xml:space="preserve">
<g>
	<path fill="#0000FF" d="M6.551,12.818c0,0.768,0.128,1.408,0.384,1.92c0.042,0.086,0.064,0.192,0.064,0.32   s-0.091,0.246-0.272,0.352c-0.182,0.107-0.432,0.144-0.752,0.112c-0.32-0.032-0.598-0.048-0.832-0.048   c-0.235,0-0.48,0.064-0.736,0.191c-0.064,0.021-0.182,0.033-0.352,0.033c-0.171,0-0.374-0.113-0.608-0.337   s-0.352-0.432-0.352-0.624c0-0.362,0.464-1.002,1.392-1.92c0.928-0.917,1.515-1.376,1.76-1.376c0.245,0,0.368,0.171,0.368,0.512   L6.551,12.818z M23.159,25.971c0,0.512-0.145,0.768-0.433,0.768c-0.287,0-0.672-0.086-1.151-0.256   c-0.48-0.171-1.302-0.256-2.464-0.256c-1.163,0-2.268,0.074-3.313,0.225c-2.667,0.361-4.352,0.5-5.056,0.416   c-0.555-0.043-1.126-0.064-1.712-0.064c-0.587,0-1.147,0.096-1.681,0.287c-0.533,0.193-0.864,0.289-0.992,0.289   s-0.213-0.049-0.256-0.145c-0.043-0.096-0.064-0.363-0.064-0.8c0-0.438,0.059-0.747,0.176-0.929   c0.117-0.181,0.592-0.299,1.424-0.352c0.832-0.053,1.478-0.128,1.937-0.224c0.458-0.097,0.874-0.24,1.248-0.433   c0.373-0.191,0.741-0.347,1.104-0.463c0.362-0.117,0.613-0.357,0.752-0.721c0.139-0.362,0.208-0.783,0.208-1.264   s-0.037-0.784-0.111-0.912c-0.075-0.128-0.235-0.192-0.48-0.192s-0.539,0.022-0.88,0.064c-0.342,0.043-0.565,0.112-0.672,0.208   c-0.107,0.096-0.203,0.144-0.288,0.144c-0.214,0-0.528-0.336-0.944-1.008s-0.624-1.157-0.624-1.456s0.171-0.447,0.513-0.447   l0.607,0.031c0.576,0,1.456-0.16,2.641-0.48c1.184-0.319,2.421-0.602,3.712-0.848c1.29-0.244,2.096-0.367,2.416-0.367   c0.319,0,0.532,0.063,0.64,0.191c0.106,0.128,0.16,0.459,0.16,0.992s-0.048,0.88-0.145,1.04c-0.096,0.159-0.352,0.272-0.768,0.336   s-0.864,0.277-1.344,0.64c-0.48,0.363-0.827,0.928-1.04,1.696c-0.214,0.769-0.32,1.231-0.32,1.392s0.149,0.24,0.448,0.24   l3.775-0.064c0.789,0,1.323,0.049,1.601,0.145c0.276,0.096,0.458,0.31,0.544,0.641c0.085,0.33,0.309,0.74,0.672,1.231   C23.105,25.438,23.159,25.672,23.159,25.971z M19.671,7.506c1.344,0,2.539,0.347,3.584,1.04c1.045,0.694,1.872,1.616,2.48,2.768   c0.607,1.152,0.912,1.941,0.912,2.368c0,0.192-0.07,0.347-0.208,0.464c-0.14,0.118-0.518,0.203-1.137,0.256   c-0.619,0.054-1.243,0.08-1.872,0.08s-1.189-0.037-1.68-0.112c-0.491-0.075-0.747-0.112-0.768-0.112   c-0.214,0-0.438,0.107-0.673,0.32c-0.618,0.576-1.354,0.864-2.208,0.864c-0.384,0-0.725-0.064-1.023-0.192   s-0.496-0.277-0.592-0.448c-0.097-0.171-0.225-0.517-0.385-1.04c-0.159-0.522-0.245-0.955-0.256-1.296   c-0.011-0.341-0.011-0.736,0-1.184c0.011-0.448-0.085-0.795-0.288-1.04c-0.202-0.245-0.405-0.368-0.607-0.368   c-0.203,0-0.518,0.059-0.944,0.176c-0.427,0.118-0.72,0.278-0.88,0.48s-0.331,0.592-0.512,1.168   c-0.182,0.576-0.272,1.067-0.272,1.472c0,0.406,0.032,0.731,0.097,0.976c0.063,0.246,0.096,0.411,0.096,0.496   c0,0.277-0.24,0.635-0.72,1.072c-0.48,0.438-1.078,0.805-1.792,1.104c-0.716,0.299-1.232,0.448-1.553,0.448   c-0.319,0-0.57-0.032-0.752-0.097c-0.182-0.063-0.271-0.154-0.271-0.271s0.17-0.25,0.512-0.4c0.746-0.34,1.397-0.971,1.952-1.888   s0.832-1.781,0.832-2.592c0-0.469-0.08-0.773-0.24-0.912c-0.16-0.138-0.544-0.208-1.152-0.208c-0.607,0-1.013,0.08-1.216,0.24   c-0.203,0.16-0.368,0.24-0.496,0.24s-0.191-0.128-0.191-0.384c0-0.661,0.319-1.013,0.96-1.056c0.576-0.042,1.338-0.229,2.288-0.56   c0.948-0.331,2.469-0.725,4.56-1.184C17.346,7.736,18.817,7.506,19.671,7.506z M14.359,0.979c0.234,0,0.437,0.144,0.607,0.432   s0.464,0.72,0.88,1.296s0.741,1.142,0.977,1.696c0.234,0.555,0.352,0.944,0.352,1.168c0,0.224-0.08,0.411-0.24,0.56   c-0.159,0.149-0.352,0.224-0.575,0.224c-0.225,0-0.508-0.106-0.849-0.32s-0.763-0.378-1.264-0.496   c-0.502-0.117-0.838-0.267-1.008-0.448c-0.171-0.181-0.256-0.448-0.256-0.8s0.063-0.875,0.191-1.568s0.282-1.157,0.464-1.392   C13.82,1.096,14.06,0.979,14.359,0.979z M23.319,10.803c0-0.469-0.251-0.912-0.752-1.328c-0.502-0.416-1.158-0.624-1.969-0.624   c-0.213,0-0.709,0.059-1.487,0.176c-0.779,0.118-1.222,0.214-1.328,0.288c-0.107,0.075-0.16,0.16-0.16,0.256   c0,0.096,0.016,0.219,0.048,0.368c0.032,0.149,0.048,0.352,0.048,0.608l-0.032,1.056c0,0.469,0.129,0.806,0.385,1.008   c0.256,0.203,0.666,0.315,1.231,0.336c0.565,0.022,0.944,0.112,1.137,0.272c0.191,0.16,0.352,0.24,0.479,0.24   c0.362,0,0.854-0.277,1.472-0.832C23.01,12.072,23.319,11.464,23.319,10.803z" stroke-width="1"/>
</g>
</svg>