<svg xmlns="http://www.w3.org/2000/svg" xmlns:xlink="http://www.w3.org/1999/xlink" version="1.1" id="图层_1" x="0px" y="0px" width="25.447999954223633" height="20.934001922607422" viewBox="1.4749996662139893 5.4070000648498535 25.447999954223633 20.934001922607422" enable-background="new 0 0 30 30" xml:space="preserve">
<g>
	<path fill="#0000FF" d="M26.423,15.57c0,0.619-0.149,0.928-0.448,0.928c-0.128,0-0.31-0.042-0.544-0.127   c-1.066-0.428-2.677-0.641-4.832-0.641c-1.749,0-3.104,0.075-4.063,0.225c-0.192,0.043-0.523,0.282-0.992,0.719   c-0.47,0.438-1.014,1.035-1.632,1.793c-0.619,0.758-1.216,1.595-1.792,2.512c-0.171,0.256-0.256,0.405-0.256,0.448   c0,0.106,0.08,0.159,0.239,0.159c0.16,0,0.433-0.09,0.816-0.271s0.858-0.299,1.424-0.352s1.104-0.209,1.616-0.465   s0.864-0.469,1.056-0.64c0.619-0.532,1.274-0.8,1.969-0.8c0.692,0,1.482,0.405,2.367,1.216c0.886,0.812,1.531,1.669,1.937,2.576   s0.607,1.541,0.607,1.903c0,0.363-0.079,0.608-0.239,0.736c-0.16,0.129-0.464,0.192-0.912,0.192c-1.024,0-1.952-0.374-2.784-1.12   s-1.248-1.242-1.248-1.488c0-0.244,0.282-0.367,0.848-0.367s0.987-0.091,1.265-0.272c0.276-0.181,0.416-0.437,0.416-0.769   c0-0.33-0.208-0.645-0.624-0.943s-0.843-0.448-1.28-0.448s-0.821,0.229-1.152,0.688s-0.527,1.082-0.592,1.871   c-0.021,0.342-0.213,0.513-0.576,0.513c-3.199,0-6.379,0.789-9.536,2.368c-0.171,0.084-0.309,0.127-0.416,0.127   s-0.213-0.096-0.32-0.287c-0.278-0.533-0.694-1.248-1.248-2.145c-0.128-0.213-0.192-0.395-0.192-0.543c0-0.15,0.16-0.257,0.48-0.32   c0.682-0.171,1.125-0.325,1.328-0.465c0.203-0.139,0.539-0.432,1.008-0.879c0.469-0.449,0.885-0.939,1.248-1.473   c0.362-0.533,0.683-1.051,0.96-1.552c0.276-0.501,0.416-0.795,0.416-0.88c0-0.086-0.107-0.117-0.32-0.096   c-0.661,0.085-1.312,0.127-1.952,0.127H7.927c-0.853,0-1.733,0.08-2.64,0.24c-0.907,0.16-1.499,0.331-1.776,0.512   c-0.278,0.182-0.491,0.272-0.64,0.272c-0.278,0-0.496-0.282-0.656-0.849c-0.16-0.564-0.24-0.943-0.24-1.135   c0-0.192,0.037-0.31,0.112-0.353c0.075-0.042,0.25-0.063,0.528-0.063c0.682,0,1.781-0.123,3.296-0.369   c1.515-0.245,2.88-0.538,4.096-0.879c1.216-0.341,3.259-0.757,6.128-1.248c2.869-0.49,4.827-0.747,5.872-0.768   c1.045-0.021,1.675-0.09,1.888-0.208c0.214-0.117,0.4-0.176,0.561-0.176s0.304,0.096,0.432,0.288   c0.641,1.088,1.057,1.765,1.248,2.032C26.327,14.894,26.423,15.208,26.423,15.57z M18.103,5.907c0.385,0,0.678,0.043,0.881,0.128   c0.202,0.085,0.367,0.4,0.495,0.944c0.129,0.544,0.192,0.928,0.192,1.152c0,0.224-0.117,0.4-0.352,0.528   c-0.235,0.128-0.678,0.261-1.328,0.4c-0.651,0.139-1.136,0.304-1.456,0.496c-0.812,0.469-1.558,0.704-2.24,0.704   s-1.323,0.08-1.92,0.24c-0.598,0.16-1.014,0.32-1.248,0.48c-0.235,0.16-0.427,0.24-0.576,0.24s-0.267-0.075-0.352-0.224   c-0.086-0.149-0.272-0.699-0.561-1.648S9.207,7.806,9.207,7.57c0-0.234,0.256-0.362,0.768-0.384   c1.045-0.021,3.189-0.384,6.433-1.088C17.004,5.971,17.569,5.907,18.103,5.907z" stroke-width="1"/>
</g>
</svg>