<svg xmlns="http://www.w3.org/2000/svg" xmlns:xlink="http://www.w3.org/1999/xlink" version="1.1" id="图层_1" x="0px" y="0px" width="24.23600196838379" height="25.4789981842041" viewBox="1.6309983730316162 2.621999979019165 24.23600196838379 25.4789981842041" enable-background="new 0 0 30 30" xml:space="preserve">
<g>
	<path fill="#0000FF" d="M25.367,14.002c0,0.363-0.097,0.544-0.288,0.544c-0.192,0-0.416-0.096-0.672-0.288   c-0.832-0.597-2.112-0.896-3.84-0.896c-0.619,0-1.328,0.048-2.128,0.144c-0.801,0.096-1.275,0.182-1.425,0.256   s-0.224,0.304-0.224,0.688l0.064,2.528c0,2.411-0.118,4.448-0.353,6.111c-0.149,1.281-0.245,2.465-0.288,3.553   c-0.021,0.641-0.197,0.959-0.528,0.959c-0.33,0-1.184-0.229-2.56-0.688s-2.373-0.848-2.992-1.168   c-0.619-0.319-1.056-0.603-1.312-0.848c-0.256-0.246-0.384-0.411-0.384-0.496c0-0.171,0.106-0.256,0.319-0.256   s0.416,0.032,0.608,0.096c1.216,0.299,2.165,0.448,2.848,0.448s1.125-0.054,1.328-0.159c0.202-0.107,0.341-0.337,0.416-0.689   c0.074-0.352,0.181-1.268,0.32-2.752c0.139-1.482,0.208-2.543,0.208-3.184c0-0.64-0.038-1.307-0.112-2   c-0.075-0.693-0.16-1.093-0.256-1.2c-0.096-0.106-0.219-0.16-0.368-0.16s-0.331,0.032-0.544,0.096   c-1.302,0.405-2.683,0.699-4.144,0.88c-1.462,0.182-2.667,0.448-3.617,0.8s-1.627,0.731-2.032,1.137   c-0.171,0.17-0.31,0.256-0.416,0.256c-0.107,0-0.203-0.203-0.288-0.608c-0.085-0.405-0.203-0.752-0.352-1.04   c-0.149-0.288-0.224-0.475-0.224-0.561c0-0.298,0.389-0.516,1.168-0.655c0.778-0.139,1.818-0.384,3.12-0.736   c1.301-0.352,2.272-0.64,2.912-0.864s1.866-0.613,3.68-1.168c0.427-0.106,0.641-0.331,0.641-0.672c0-0.17-0.069-0.421-0.208-0.752   c-0.14-0.331-0.31-0.613-0.513-0.848c-0.202-0.234-0.304-0.416-0.304-0.544c0-0.234,0.331-0.352,0.992-0.352s1.194-0.448,1.6-1.344   s0.608-1.546,0.608-1.952s-0.235-0.608-0.704-0.608c-0.47,0-1.67,0.549-3.6,1.648c-1.932,1.099-2.998,1.75-3.2,1.952   c-0.203,0.203-0.363,0.304-0.48,0.304S7.617,8.83,7.511,8.659C7.233,8.125,6.924,7.678,6.583,7.314   C6.434,7.123,6.359,6.925,6.359,6.723s0.203-0.347,0.608-0.432C7.372,6.206,7.89,5.965,8.519,5.57   c0.63-0.395,1.317-0.746,2.064-1.056c0.746-0.309,1.509-0.571,2.288-0.784c0.778-0.213,1.365-0.325,1.76-0.336   c0.395-0.011,0.726-0.016,0.992-0.016s0.501-0.042,0.704-0.128c0.202-0.085,0.399-0.128,0.592-0.128   c0.49,0,1.162,0.246,2.016,0.736c0.854,0.491,1.28,0.886,1.28,1.184c0,0.299-0.149,0.523-0.448,0.672   c-0.661,0.32-1.231,0.784-1.712,1.392c-0.479,0.608-1.071,1.104-1.775,1.488c-0.192,0.085-0.288,0.352-0.288,0.8   c0,1.28,0.288,1.888,0.864,1.824c1.13-0.149,1.983-0.224,2.56-0.224s1.131,0.021,1.664,0.064c0.533,0.043,1.051,0.064,1.552,0.064   s0.821-0.021,0.96-0.064c0.139-0.042,0.277-0.064,0.416-0.064s0.251,0.139,0.336,0.416s0.277,0.651,0.576,1.12   S25.367,13.491,25.367,14.002z" stroke-width="1"/>
</g>
</svg>