<svg xmlns="http://www.w3.org/2000/svg" xmlns:xlink="http://www.w3.org/1999/xlink" version="1.1" id="图层_1" x="0px" y="0px" width="26.952001571655273" height="27.0780029296875" viewBox="-0.1249997615814209 2.30299973487854 26.952001571655273 27.0780029296875" enable-background="new 0 0 30 30" xml:space="preserve">
<g>
	<path fill="#0000FF" d="M24.407,14.323c0.276,0,0.475,0.197,0.592,0.592c0.117,0.395,0.368,0.785,0.752,1.167   c0.384,0.385,0.576,0.864,0.576,1.44c0,0.235-0.102,0.353-0.304,0.353c-0.203,0-0.476-0.086-0.816-0.256   C23.948,17,22.071,16.69,19.575,16.69c-0.47,0-0.704,0.278-0.704,0.832l0.032,0.992l-0.128,3.231c0,2.73,0.063,4.405,0.191,5.024   c0.064,0.319,0.097,0.608,0.097,0.864c0,0.832-0.31,1.248-0.929,1.248c-0.213,0-0.427-0.049-0.64-0.145   c-0.214-0.096-0.72-0.283-1.521-0.561c-0.8-0.277-1.371-0.459-1.712-0.543c-1.131-0.342-2.053-0.784-2.768-1.328   s-1.072-0.886-1.072-1.023c0-0.14,0.16-0.209,0.48-0.209l4.544,0.288c0.362,0,0.586-0.085,0.672-0.256   c0.085-0.171,0.148-0.522,0.191-1.056s0.064-0.992,0.064-1.377l-0.032-2.239l0.032-1.761c0-0.276-0.021-0.596-0.064-0.959   s-0.096-0.576-0.159-0.641c-0.064-0.063-0.22-0.096-0.465-0.096s-0.597,0.059-1.056,0.176s-1.072,0.246-1.84,0.385   s-1.403,0.239-1.904,0.303c-0.501,0.064-0.789,0.113-0.863,0.145c-0.075,0.032-0.112,0.08-0.112,0.145   c0,0.063,0.042,0.127,0.128,0.191c0.362,0.363,0.603,0.811,0.72,1.344c0.117,0.534,0.176,0.939,0.176,1.217   s-0.133,0.555-0.399,0.832c-0.268,0.277-0.476,0.416-0.624,0.416c-0.149,0-0.299-0.129-0.448-0.385   c-0.32-0.555-0.73-1.21-1.231-1.968c-0.502-0.757-0.801-1.173-0.896-1.247c-0.096-0.075-0.224-0.113-0.384-0.113   c-0.16,0-0.358,0.033-0.592,0.097c-0.683,0.192-1.813,0.405-3.392,0.64c-0.939,0.15-1.483,0.326-1.632,0.528   c-0.149,0.203-0.277,0.304-0.384,0.304c-0.235,0-0.352-0.213-0.352-0.64c0-0.257-0.038-0.507-0.112-0.752s-0.112-0.421-0.112-0.528   c0-0.106,0.032-0.187,0.096-0.24c0.064-0.053,0.138-0.08,0.224-0.08h0.288c0.213,0,0.501-0.042,0.864-0.127   c0.682-0.192,1.333-0.314,1.952-0.369c0.619-0.053,1.12-0.133,1.504-0.239c3.499-1.024,6.741-1.739,9.728-2.144   c0.298-0.042,0.501-0.096,0.607-0.16s0.16-0.17,0.16-0.32s-0.043-0.379-0.128-0.688s-0.208-0.464-0.368-0.464   s-0.507,0.054-1.04,0.16c-0.533,0.107-0.854,0.182-0.96,0.224c-0.938,0.256-1.701,0.384-2.288,0.384s-0.986,0.064-1.199,0.192   c-0.15,0.064-0.288,0.096-0.416,0.096c-0.129,0-0.262-0.197-0.4-0.592c-0.139-0.395-0.208-0.741-0.208-1.04S8.94,12.21,9.239,12.21   c0.148,0,0.458-0.074,0.928-0.224c0.469-0.149,1.269-0.352,2.4-0.608c1.13-0.256,2.005-0.426,2.624-0.512   c0.618-0.085,1.04-0.256,1.264-0.512s0.427-0.842,0.608-1.76c0.181-0.917,0.271-1.856,0.271-2.816s-0.384-1.44-1.152-1.44   c-0.319,0-0.704,0.075-1.151,0.224c-1.216,0.427-2.411,0.768-3.584,1.024c-0.704,0.149-1.302,0.491-1.792,1.024   C9.506,6.782,9.361,6.867,9.223,6.867S9.015,6.69,9.015,6.338s-0.026-0.693-0.08-1.024C8.882,4.984,8.855,4.787,8.855,4.723   c0-0.256,0.116-0.389,0.352-0.4c0.234-0.011,0.587-0.08,1.056-0.208c3.137-0.875,5.227-1.312,6.272-1.312   c1.045,0,2.011,0.155,2.896,0.464c0.886,0.31,1.531,0.64,1.937,0.992c0.405,0.352,0.607,0.635,0.607,0.848   c0,0.213-0.123,0.416-0.367,0.608c-0.246,0.192-0.561,0.726-0.944,1.6c-0.235,0.534-0.544,1.173-0.928,1.92   c-0.385,0.747-0.672,1.248-0.864,1.504c-0.277,0.363-0.396,0.667-0.353,0.912c0.043,0.246,0.064,0.411,0.064,0.496   c0,0.406-0.294,0.629-0.88,0.672c-0.587,0.043-0.88,0.15-0.88,0.32c0,0.256,0.234,0.427,0.704,0.512   c0.746,0.149,1.227,0.331,1.439,0.544c0.213,0.214,0.501,0.32,0.864,0.32l1.92,0.032c0.981,0,1.643-0.037,1.984-0.112   C24.076,14.36,24.3,14.323,24.407,14.323z M15.095,6.771c0.341,0,0.513,0.256,0.513,0.768c0,0.64-0.07,1.045-0.208,1.216   c-0.14,0.171-0.651,0.411-1.536,0.72c-0.886,0.31-1.638,0.469-2.256,0.48c-0.619,0.011-1.057,0.144-1.313,0.4   c-0.128,0.128-0.277,0.192-0.448,0.192s-0.368-0.32-0.592-0.96S8.919,8.525,8.919,8.323s0.139-0.315,0.416-0.336   c0.277-0.021,1.093-0.181,2.448-0.48c1.354-0.298,2.197-0.496,2.527-0.592C14.642,6.818,14.903,6.771,15.095,6.771z" stroke-width="1"/>
</g>
</svg>