<svg xmlns="http://www.w3.org/2000/svg" xmlns:xlink="http://www.w3.org/1999/xlink" version="1.1" id="图层_1" x="0px" y="0px" width="23.817996978759766" height="24.16699981689453" viewBox="1.2490026950836182 4.350999355316162 23.817996978759766 24.16699981689453" enable-background="new 0 0 30 30" xml:space="preserve">
<g>
	<path fill="#0000FF" d="M24.567,5.619c0,0.192-0.102,0.438-0.305,0.736c-0.203,0.299-0.379,1.014-0.527,2.144   c-0.149,1.131-0.225,2.069-0.225,2.816c0,0.747,0.026,1.766,0.08,3.056c0.053,1.292,0.08,2.555,0.08,3.792l-0.096,3.776   c0,1.664,0.148,3.381,0.448,5.151c0.042,0.213,0.063,0.422,0.063,0.625s-0.063,0.303-0.192,0.303c-0.128,0-0.65-0.158-1.567-0.479   c-0.918-0.32-1.675-0.598-2.272-0.832c-0.598-0.235-1.243-0.55-1.936-0.944c-0.693-0.396-1.104-0.667-1.232-0.816   s-0.191-0.272-0.191-0.368s0.138-0.123,0.416-0.08c1.322,0.171,2.245,0.256,2.768,0.256s0.88-0.059,1.072-0.176   c0.191-0.117,0.304-0.299,0.336-0.543c0.032-0.246,0.048-0.816,0.048-1.713c0-0.896-0.054-2.197-0.16-3.904   c-0.106-1.706-0.16-3.626-0.16-5.759l0.032-4.064c0-1.493-0.491-2.24-1.472-2.24c-0.363,0-0.8,0.096-1.313,0.288   c-0.512,0.192-0.821,0.598-0.928,1.216c-0.107,0.619-0.16,1.104-0.16,1.456s0.139,0.485,0.416,0.4   c0.576-0.17,0.986-0.256,1.232-0.256c0.245,0,0.426,0.038,0.544,0.112c0.117,0.075,0.176,0.272,0.176,0.592   c0,0.32-0.043,0.544-0.128,0.672c-0.086,0.128-0.438,0.406-1.056,0.832c-0.619,0.427-1.003,0.704-1.152,0.832   s-0.245,0.395-0.288,0.8c-0.043,0.406-0.063,0.678-0.063,0.816s0.106,0.208,0.319,0.208c0.362,0,0.795-0.043,1.296-0.128   c0.501-0.085,0.821-0.128,0.96-0.128s0.24,0.08,0.305,0.24c0.063,0.16,0.096,0.448,0.096,0.864c0,0.416-0.059,0.683-0.176,0.8   c-0.118,0.117-0.348,0.219-0.688,0.304c-0.299,0.063-0.757,0.3-1.376,0.704c-0.938,0.641-1.515,1.088-1.728,1.344   c-0.086,0.107-0.288,0.523-0.608,1.248c-0.747,1.707-1.142,2.624-1.184,2.752c-0.128,0.428-0.192,0.811-0.192,1.152   c0,0.277-0.069,0.544-0.208,0.8c-0.139,0.257-0.507,0.576-1.104,0.96c-0.598,0.385-1.2,0.641-1.809,0.768   c-0.607,0.129-0.997,0.192-1.168,0.192s-0.256-0.069-0.256-0.208s0.074-0.271,0.224-0.4c0.875-0.832,1.482-1.477,1.824-1.936   c0.341-0.459,0.512-0.73,0.512-0.816c0-0.148-0.074-0.256-0.224-0.319c-1.344-0.64-2.384-1.274-3.12-1.904   c-0.735-0.629-1.104-1.019-1.104-1.168c0-0.063,0.037-0.096,0.111-0.096c0.075,0,0.145,0.011,0.208,0.032   c0.896,0.32,1.521,0.479,1.872,0.479c0.353,0,0.528-0.224,0.528-0.672l-0.032-1.76c0-0.384-0.054-0.576-0.16-0.576   s-0.234,0.063-0.384,0.192c-0.875,0.832-1.567,1.439-2.08,1.824c-0.512,0.383-1.168,0.98-1.968,1.791   c-0.8,0.812-1.232,1.26-1.296,1.344c-0.171,0.235-0.39,0.353-0.656,0.353s-0.64-0.196-1.12-0.592c-0.48-0.395-0.72-0.661-0.72-0.8   s0.192-0.293,0.576-0.465c0.384-0.17,0.832-0.496,1.344-0.976c0.512-0.479,0.853-0.772,1.024-0.88   c0.171-0.106,0.235-0.373,0.192-0.801c-0.256-2.41-0.384-3.978-0.384-4.703l0.128-3.52L4.599,8.595c0-0.32,0.106-0.549,0.32-0.688   c0.213-0.139,0.683-0.32,1.408-0.544c0.725-0.224,1.536-0.464,2.432-0.72c0.896-0.256,1.653-0.384,2.272-0.384   c0.618,0,1.2,0.075,1.744,0.224c0.544,0.149,0.815,0.31,0.815,0.48c0,0.171-0.096,0.363-0.288,0.576   c-0.191,0.213-0.373,0.582-0.544,1.104c-0.171,0.523-0.277,1.014-0.319,1.472c-0.044,0.459-0.064,1.067-0.064,1.824   c0,0.757-0.037,1.84-0.112,3.248c-0.074,1.408-0.154,2.299-0.239,2.672c-0.086,0.374-0.129,0.849-0.129,1.425   c0,0.575,0.049,1.098,0.145,1.567s0.171,0.752,0.224,0.849c0.054,0.096,0.123,0.143,0.208,0.143c0.043,0,0.085-0.031,0.128-0.096   c0.106-0.084,0.544-1.034,1.313-2.848c0.299-0.683,0.576-2.102,0.832-4.256c0.384-3.221,0.576-5.525,0.576-6.912   c0-0.469-0.043-0.896-0.128-1.28c0-0.405,0.341-0.608,1.023-0.608c0.256,0,0.704-0.053,1.344-0.16   c0.641-0.106,1.089-0.213,1.345-0.32c0.256-0.106,0.672-0.218,1.248-0.336c0.575-0.117,1.082-0.176,1.52-0.176   s0.96,0.059,1.568,0.176c0.607,0.118,0.98,0.208,1.12,0.272C24.497,5.362,24.567,5.47,24.567,5.619z M6.871,16.883   c0.042,0,0.085-0.011,0.128-0.032c0.853-0.64,1.771-1.237,2.752-1.792c0.192-0.128,0.314-0.267,0.368-0.416   c0.053-0.149,0.091-0.629,0.112-1.44l0.063-2.432c0-1.429-0.16-2.267-0.479-2.512c-0.32-0.245-0.614-0.368-0.881-0.368   S8.396,7.965,8.119,8.115C7.842,8.264,7.639,8.643,7.511,9.25s-0.191,1.029-0.191,1.264s0.074,0.374,0.224,0.416   c0.405,0.149,0.789,0.416,1.152,0.8c0.362,0.384,0.544,0.779,0.544,1.184s-0.107,0.64-0.32,0.704   c-0.661,0.192-1.152,0.363-1.472,0.512c-0.32,0.149-0.512,0.283-0.576,0.4s-0.118,0.411-0.16,0.88   c-0.043,0.469-0.064,0.832-0.064,1.087S6.722,16.883,6.871,16.883z" stroke-width="1"/>
</g>
</svg>