<svg xmlns="http://www.w3.org/2000/svg" xmlns:xlink="http://www.w3.org/1999/xlink" version="1.1" id="图层_1" x="0px" y="0px" width="28.582000732421875" height="27.397991180419922" viewBox="0.7740005254745483 1.118006944656372 28.582000732421875 27.397991180419922" enable-background="new 0 0 30 30" xml:space="preserve">
<g>
	<path fill="#0000FF" d="M19.831,12.115c0,0.235,0.373,0.747,1.12,1.536c0.746,0.79,1.6,1.344,2.56,1.664   c2.453,0.832,3.957,1.376,4.513,1.632c0.554,0.257,0.832,0.448,0.832,0.576c0,0.171-0.257,0.336-0.769,0.496   s-1.062,0.239-1.647,0.239c-0.588,0-1.174-0.058-1.761-0.176c-0.587-0.117-1.136-0.176-1.647-0.176c-0.513,0-0.8-0.224-0.864-0.672   c-0.064-0.533-0.331-1.045-0.8-1.535c-0.47-0.491-0.949-0.907-1.44-1.249s-0.832-0.512-1.023-0.512c-0.192,0-0.39,0.16-0.593,0.48   c-0.202,0.32-0.447,0.678-0.735,1.072c-0.288,0.395-0.433,0.646-0.433,0.751c0,0.107,0.192,0.16,0.576,0.16   c0.683,0,1.43,0.172,2.24,0.512c0.811,0.342,1.216,0.63,1.216,0.864c0,0.107-0.063,0.272-0.191,0.496s-0.192,0.646-0.192,1.265   s0.016,1.168,0.048,1.647s0.043,0.934,0.032,1.36s-0.016,0.811-0.016,1.152c0,0.341,0.031,0.928,0.096,1.76l0.128,1.887   c0,0.449-0.166,0.672-0.496,0.672c-0.331,0-1.008-0.201-2.032-0.607c-1.023-0.405-2.005-1.014-2.943-1.824   c-0.235-0.213-0.411-0.341-0.528-0.383c-0.117-0.043-0.283-0.064-0.496-0.064c-0.811,0-1.493,0.128-2.048,0.384   c-0.086,0.042-0.171,0.063-0.256,0.063c-0.385,0-0.726-0.533-1.024-1.6s-0.448-2.148-0.448-3.248c0-1.098,0.064-1.871,0.192-2.32   c0.128-0.447,0.341-0.676,0.64-0.688c0.299-0.01,0.581-0.074,0.849-0.191c0.267-0.117,0.805-0.293,1.615-0.528   c1.131-0.299,1.969-0.96,2.513-1.984c0.544-1.024,0.815-1.781,0.815-2.272c0-0.106-0.053-0.138-0.16-0.096   c-0.319,0.149-0.565,0.224-0.735,0.224c-0.171,0-0.288-0.053-0.353-0.16c-0.319-0.533-0.544-0.8-0.672-0.8   s-0.442,0.075-0.943,0.224c-0.502,0.149-0.822,0.262-0.96,0.336c-0.14,0.075-0.246,0.246-0.32,0.512   c-0.075,0.267-0.112,0.459-0.112,0.576c0,0.118,0.021,0.182,0.064,0.192c0.042,0.011,0.191,0.016,0.447,0.016   c1.259,0,1.889,0.31,1.889,0.928c0,0.277-0.075,0.539-0.225,0.784c-0.149,0.246-0.293,0.368-0.432,0.368s-0.384-0.08-0.736-0.239   c-0.352-0.161-0.667-0.331-0.943-0.513c-0.277-0.181-0.464-0.272-0.561-0.272c-0.096,0-0.251,0.128-0.464,0.384   c-0.213,0.256-0.715,0.736-1.504,1.439c-0.789,0.704-1.525,1.163-2.208,1.377c-0.256,0.085-0.427,0.17-0.512,0.256   c-0.086,0.085-0.16,0.267-0.225,0.543c-0.234,0.982-0.555,1.937-0.959,2.865c-0.406,0.928-0.8,1.61-1.184,2.047   c-0.384,0.438-0.651,0.838-0.8,1.2s-0.389,0.544-0.72,0.544c-0.331,0-0.704-0.293-1.12-0.88s-0.805-1.269-1.168-2.048   c-0.363-0.778-0.544-1.963-0.544-3.552s0.176-2.8,0.528-3.632c0.352-0.832,0.656-1.424,0.912-1.776s0.501-0.528,0.736-0.528   s0.458,0.075,0.672,0.224l0.896,0.576c0.128,0.064,0.192,0.171,0.192,0.32c0,0.32-0.277,0.704-0.832,1.152   c-0.555,0.448-1.008,1.173-1.36,2.176s-0.528,1.983-0.528,2.944c0,1.279,0.341,1.92,1.024,1.92c0.618,0,1.306-0.592,2.064-1.776   c0.757-1.184,1.424-2.757,2-4.72c0.191-0.661,0.368-0.992,0.527-0.992c0.16,0,0.24,0.182,0.24,0.544   c0,0.363-0.026,0.699-0.08,1.009c-0.053,0.309-0.08,0.522-0.08,0.639c0,0.118,0.043,0.177,0.128,0.177   c0.129,0,0.491-0.261,1.089-0.784c0.597-0.522,1.088-1.12,1.472-1.792s0.576-1.077,0.576-1.216s-0.038-0.208-0.112-0.208   c-0.075,0-0.251,0.059-0.528,0.176c-0.277,0.118-0.475,0.229-0.592,0.336c-0.117,0.107-0.262,0.16-0.432,0.16   c-0.171,0-0.368-0.197-0.592-0.592c-0.225-0.395-0.336-0.693-0.336-0.896s0.186-0.304,0.56-0.304c0.373,0,0.736-0.085,1.088-0.256   c0.353-0.17,0.667-0.299,0.944-0.384c0.276-0.085,0.437-0.192,0.479-0.32s0.064-0.331,0.064-0.608c0-0.277-0.054-0.416-0.16-0.416   c-0.107,0-0.267,0.032-0.48,0.096c-0.213,0.064-0.395,0.096-0.544,0.096s-0.282-0.123-0.399-0.368   c-0.118-0.245-0.262-0.458-0.433-0.64s-0.256-0.368-0.256-0.56s0.043-0.32,0.128-0.384s0.234-0.096,0.448-0.096   c0.213,0,0.549-0.059,1.008-0.176c0.459-0.117,0.704-0.261,0.736-0.432s0.048-0.741,0.048-1.712c0-0.97,0.037-1.61,0.112-1.92   c0.074-0.309,0.128-0.592,0.16-0.848c0.031-0.256,0.138-0.384,0.319-0.384s0.411,0.064,0.688,0.192   c0.276,0.128,0.442,0.214,0.496,0.256c0.053,0.043,0.08,0.101,0.08,0.176c0,0.075-0.049,0.256-0.145,0.544   s-0.144,0.534-0.144,0.736c0,0.203,0.021,0.63,0.063,1.28c0.043,0.651,0.085,1.014,0.128,1.088   c0.043,0.075,0.102,0.112,0.177,0.112c0.074,0,0.25-0.048,0.527-0.144c0.277-0.096,0.49-0.144,0.641-0.144   c0.148,0,0.282,0.144,0.399,0.432c0.117,0.288,0.299,0.432,0.544,0.432s0.518-0.064,0.816-0.192   c0.298-0.128,0.586-0.229,0.864-0.304c0.276-0.074,0.447-0.187,0.512-0.336c0.063-0.149,0.106-0.528,0.128-1.136   c0.021-0.608,0.091-1.381,0.208-2.32c0.117-0.938,0.219-1.488,0.304-1.648c0.085-0.16,0.213-0.24,0.384-0.24   s0.373,0.043,0.608,0.128c0.234,0.085,0.373,0.166,0.416,0.24c0.043,0.075,0.064,0.176,0.064,0.304s-0.038,0.267-0.112,0.416   c-0.075,0.149-0.145,0.736-0.208,1.76l-0.096,1.536c0,0.32,0.079,0.48,0.239,0.48s0.379-0.032,0.656-0.096s0.512-0.096,0.704-0.096   c0.49,0,0.736,0.171,0.736,0.512s-0.038,0.571-0.112,0.688c-0.075,0.117-0.277,0.229-0.608,0.336   c-0.331,0.107-0.677,0.251-1.04,0.432c-0.362,0.182-0.587,0.342-0.672,0.48c-0.085,0.139-0.128,0.352-0.128,0.64   s0.074,0.432,0.225,0.432c0.148,0,0.442-0.101,0.88-0.304c0.437-0.202,0.837-0.304,1.199-0.304c0.513,0,0.769,0.235,0.769,0.704   c0,0.277-0.06,0.496-0.176,0.656c-0.118,0.16-0.459,0.4-1.024,0.72c-0.565,0.32-1.104,0.544-1.616,0.672   C19.905,11.976,19.831,12.029,19.831,12.115z M5.655,6.002c0.299,0,0.48,0.144,0.544,0.432C6.263,6.723,6.327,6.92,6.391,7.026   c0.064,0.107,0.288,0.32,0.672,0.64c0.384,0.32,0.693,0.726,0.928,1.216c0.234,0.491,0.352,0.838,0.352,1.04   c0,0.203-0.075,0.342-0.224,0.416c-0.149,0.075-0.507,0.112-1.072,0.112s-1.056-0.085-1.472-0.256   c-0.416-0.17-0.699-0.426-0.848-0.768C4.578,9.085,4.503,8.558,4.503,7.842c0-0.714,0.133-1.2,0.4-1.456   C5.169,6.13,5.42,6.002,5.655,6.002z M17.559,25.234c0.32,0,0.513-0.203,0.576-0.607c0.064-0.406,0.097-1.168,0.097-2.289   c0-1.119-0.054-2.127-0.16-3.023c-0.107-0.896-0.342-1.424-0.704-1.584c-0.363-0.16-0.79-0.24-1.28-0.24   c-0.491,0-0.859,0.086-1.104,0.256c-0.246,0.172-0.534,0.305-0.864,0.4c-0.331,0.096-0.539,0.271-0.624,0.527   c-0.086,0.257-0.128,0.471-0.128,0.641c0,0.171,0.148,0.234,0.448,0.191c0.512-0.063,1.04-0.096,1.584-0.096   s0.874,0.06,0.991,0.176c0.117,0.118,0.177,0.283,0.177,0.496c0,0.214-0.049,0.374-0.145,0.48   c-0.096,0.107-0.262,0.191-0.496,0.256l-1.151,0.385c-0.939,0.319-1.499,0.527-1.681,0.623s-0.271,0.411-0.271,0.944   c0,0.214,0.085,0.319,0.256,0.319c0.448,0,0.912-0.047,1.392-0.144c0.48-0.096,0.886-0.144,1.216-0.144   c0.331,0,0.555,0.096,0.673,0.287c0.116,0.193,0.176,0.652,0.176,1.377c0,0.341,0.133,0.555,0.399,0.64   S17.409,25.234,17.559,25.234z M16.407,10.771c0.106,0,0.368-0.032,0.784-0.096s0.655-0.202,0.72-0.416   c0.063-0.213,0.096-0.389,0.096-0.528c0-0.139-0.171-0.218-0.512-0.24c-0.342-0.021-0.619-0.165-0.832-0.432   c-0.214-0.267-0.416-0.4-0.608-0.4c-0.191,0-0.512,0.107-0.96,0.32c-0.447,0.213-0.757,0.347-0.928,0.4   c-0.171,0.054-0.283,0.149-0.336,0.288c-0.054,0.139-0.08,0.331-0.08,0.576s0.059,0.368,0.176,0.368s0.31-0.037,0.576-0.112   c0.267-0.075,0.49-0.112,0.672-0.112s0.379,0.064,0.592,0.192C15.98,10.707,16.193,10.771,16.407,10.771z" stroke-width="1"/>
</g>
</svg>