<svg xmlns="http://www.w3.org/2000/svg" xmlns:xlink="http://www.w3.org/1999/xlink" version="1.1" id="图层_1" x="0px" y="0px" width="22.599002838134766" height="21.64000129699707" viewBox="5.188999652862549 4.125999450683594 22.599002838134766 21.64000129699707" enable-background="new 0 0 30 30" xml:space="preserve">
<g>
	<path fill="#0000FF" d="M26.007,15.506c0.106,0,0.208,0.064,0.304,0.193c0.097,0.127,0.225,0.725,0.385,1.791   c0.16,1.067,0.239,2.188,0.239,3.36s0.059,1.946,0.177,2.319c0.116,0.374,0.176,0.636,0.176,0.785c0,0.361-0.182,0.576-0.544,0.64   l-4.096,0.384c-2.348,0.191-4.641,0.288-6.881,0.288c-2.239,0-3.664-0.032-4.271-0.097c-0.608-0.063-1.365-0.309-2.272-0.735   c-0.906-0.427-1.567-0.869-1.983-1.328c-0.417-0.458-0.779-1.066-1.088-1.823c-0.31-0.758-0.464-1.617-0.464-2.576   c0-0.961,0.165-2.043,0.496-3.249c0.331-1.205,0.496-2.032,0.496-2.48c0-0.448-0.038-0.789-0.112-1.024   c-0.075-0.234-0.112-0.421-0.112-0.56c0-0.139,0.128-0.256,0.384-0.352c0.256-0.096,0.48-0.144,0.672-0.144   c0.576,0,0.949,0.384,1.12,1.152c0.043,0.192,0.123,0.288,0.24,0.288s0.219-0.01,0.304-0.032c2.347-0.768,4.149-1.248,5.408-1.44   c0.32-0.042,0.597-0.368,0.832-0.976c0.234-0.608,0.352-1.051,0.352-1.328c0-0.277-0.117-0.549-0.352-0.816   c-0.235-0.267-0.539-0.4-0.912-0.4s-0.741,0.053-1.104,0.16c-0.363,0.107-0.736,0.171-1.12,0.192   c-0.385,0.021-0.801,0.133-1.248,0.336c-0.448,0.203-1.237,0.635-2.368,1.296C8.449,9.458,8.284,9.522,8.167,9.522   S7.879,9.347,7.655,8.995C7.431,8.643,7.319,8.232,7.319,7.763S7.346,7,7.399,6.882c0.053-0.117,0.165-0.187,0.336-0.208   c1.173-0.256,3.284-0.842,6.336-1.76c0.618-0.192,1.279-0.288,1.983-0.288c0.938,0,1.931,0.203,2.977,0.608   c1.045,0.406,1.567,0.8,1.567,1.184c0,0.192-0.106,0.384-0.319,0.576c-0.513,0.427-0.892,0.96-1.137,1.6   c-0.245,0.64-0.56,1.227-0.943,1.76c-0.171,0.235-0.256,0.64-0.256,1.216v0.704c0,0.555-0.043,0.907-0.128,1.056   c-0.086,0.149-0.262,0.208-0.528,0.176c-0.268-0.032-0.539-0.048-0.816-0.048c-0.768,0-1.723,0.112-2.863,0.336   c-1.142,0.224-2.342,0.56-3.601,1.008c-1.259,0.448-1.952,0.795-2.08,1.039c-0.128,0.246-0.24,0.673-0.336,1.281   c-0.096,0.607-0.144,1.135-0.144,1.584c0,1.023,0.245,1.797,0.735,2.319c0.491,0.522,1.365,0.95,2.624,1.28   c1.259,0.331,2.752,0.496,4.48,0.496c1.728,0,3.744-0.267,6.048-0.801c0.618-0.148,1.077-0.234,1.376-0.256   c0.704-0.084,1.216-0.404,1.536-0.959s0.789-2.229,1.408-5.024C25.697,15.592,25.815,15.506,26.007,15.506z" stroke-width="1"/>
</g>
</svg>