<svg xmlns="http://www.w3.org/2000/svg" xmlns:xlink="http://www.w3.org/1999/xlink" version="1.1" id="图层_1" x="0px" y="0px" width="23.784000396728516" height="25.097999572753906" viewBox="3.1070001125335693 2.3340001106262207 23.784000396728516 25.097999572753906" enable-background="new 0 0 30 30" xml:space="preserve">
<g>
	<path fill="#0000FF" d="M5.559,11.634c0.106,0,0.245,0.134,0.416,0.4c0.17,0.267,0.256,0.731,0.256,1.392s-0.043,1.061-0.128,1.2   c-0.085,0.139-0.198,0.208-0.336,0.208c-0.139,0-0.534-0.069-1.184-0.208c-0.651-0.139-0.976-0.341-0.976-0.608   c0-0.267,0.197-0.597,0.592-0.992c0.394-0.395,0.693-0.725,0.896-0.992C5.297,11.768,5.452,11.634,5.559,11.634z M19.895,7.667   c0.769,0,1.393,0.064,1.872,0.192c0.48,0.128,1.019,0.448,1.616,0.96c0.598,0.512,1.066,1.088,1.408,1.728   c0.341,0.64,0.56,1.12,0.656,1.44c0.096,0.32,0.325,0.832,0.688,1.536c0.171,0.299,0.256,0.582,0.256,0.848   c0,0.267-0.251,0.448-0.752,0.544s-1.125,0.144-1.872,0.144s-1.552-0.053-2.416-0.16c-0.863-0.106-1.296-0.24-1.296-0.4   s0.347-0.272,1.04-0.336s1.285-0.293,1.776-0.688c0.49-0.395,0.736-0.917,0.736-1.568s-0.358-1.28-1.072-1.888   c-0.715-0.608-1.573-0.912-2.576-0.912c-0.363,0-0.661,0.123-0.896,0.368c-0.235,0.246-0.428,0.491-0.576,0.736   c-0.149,0.246-0.225,0.614-0.225,1.104c0,0.491,0.064,0.822,0.192,0.992c0.128,0.171,0.432,0.325,0.912,0.464   c0.479,0.139,0.72,0.379,0.72,0.72s-0.117,0.693-0.352,1.056c-0.235,0.363-0.651,0.544-1.248,0.544   c-0.598,0-1.035-0.17-1.313-0.512s-0.416-0.794-0.416-1.36s0.037-1.035,0.112-1.408c0.074-0.373,0.112-0.693,0.112-0.96   c0-0.267-0.075-0.512-0.225-0.736c-0.149-0.224-0.331-0.336-0.544-0.336c-0.491,0-0.784,0.182-0.88,0.544s-0.144,0.917-0.144,1.664   c0,0.747-0.043,1.616-0.128,2.608c-0.086,0.991-0.155,1.595-0.208,1.808c-0.054,0.214-0.214,0.363-0.48,0.448   s-0.528,0.128-0.784,0.128c-0.47,0-0.704-0.863-0.704-2.592l0.064-3.136c0-0.341-0.048-0.512-0.145-0.512   c-0.096,0-0.438,0.059-1.023,0.176c-0.587,0.118-0.928,0.261-1.024,0.432c-0.096,0.171-0.144,0.384-0.144,0.64   c0,0.576,0.181,0.982,0.544,1.216c0.17,0.128,0.256,0.283,0.256,0.464c0,0.182-0.054,0.368-0.16,0.56s-0.304,0.4-0.592,0.624   s-0.502,0.421-0.64,0.592c-0.14,0.171-0.411,0.357-0.816,0.56c-0.405,0.203-0.736,0.305-0.992,0.305   c-0.32,0-0.479-0.123-0.479-0.368s0.085-0.517,0.256-0.816c0.362-0.704,0.544-1.515,0.544-2.432c0-0.683-0.107-1.088-0.32-1.216   s-0.32-0.341-0.32-0.64c0-0.298,0.064-0.49,0.192-0.576c0.128-0.085,0.373-0.144,0.736-0.176c0.362-0.032,0.992-0.213,1.888-0.544   c0.896-0.331,1.499-0.528,1.808-0.592c0.31-0.064,0.465-0.213,0.465-0.448c0-0.341-0.06-0.693-0.177-1.056   c-0.117-0.362-0.325-0.544-0.624-0.544s-0.57,0.07-0.815,0.208c-0.246,0.139-0.454,0.208-0.624,0.208   c-0.405,0-0.635-0.245-0.688-0.736c-0.053-0.491-0.149-0.971-0.288-1.44S9.559,4.381,9.559,4.274c0-0.341,0.331-0.512,0.992-0.512   c1.365,0,3.328-0.224,5.889-0.672c1.002-0.17,1.706-0.256,2.111-0.256s0.646,0.118,0.72,0.352c0.075,0.235,0.112,0.496,0.112,0.784   c0,0.288-0.059,0.496-0.176,0.624c-0.117,0.128-0.342,0.293-0.672,0.496c-0.331,0.203-0.604,0.384-0.816,0.544   c-0.213,0.16-0.485,0.31-0.815,0.448c-0.331,0.139-0.534,0.251-0.608,0.336c-0.075,0.085-0.171,0.31-0.288,0.672   c-0.117,0.363-0.176,0.614-0.176,0.752c0,0.139,0.16,0.176,0.479,0.112C17.313,7.763,18.508,7.667,19.895,7.667z M22.935,19.09   c0,0.172-0.053,0.348-0.159,0.529c-0.107,0.181-0.251,0.533-0.433,1.055c-0.182,0.523-0.47,1.126-0.864,1.809   c-0.395,0.684-0.629,1.174-0.703,1.473c-0.075,0.298-0.112,0.688-0.112,1.168c0,0.479-0.027,0.777-0.08,0.896   c-0.054,0.117-0.139,0.176-0.256,0.176s-0.283-0.021-0.496-0.063c-0.768-0.172-1.974-0.256-3.616-0.256   c-0.917,0-1.749,0.053-2.496,0.16c-0.747,0.105-1.589,0.159-2.527,0.159c-0.939,0-1.611,0.181-2.017,0.544   c-0.149,0.129-0.288,0.192-0.416,0.192s-0.256-0.198-0.384-0.593s-0.192-0.672-0.192-0.832c0-0.159,0.037-0.287,0.112-0.383   c0.074-0.097,0.538-0.23,1.392-0.4c0.854-0.171,1.601-0.288,2.24-0.352c0.234-0.043,0.885-0.188,1.952-0.433   c1.066-0.245,1.957-0.378,2.672-0.399s1.211-0.129,1.488-0.32c0.277-0.192,0.507-0.603,0.688-1.232   c0.182-0.629,0.272-1.189,0.272-1.68c0-1.195-0.576-1.792-1.729-1.792c-0.299,0-1.247,0.171-2.848,0.512   c-1.174,0.278-2.176,0.47-3.008,0.576s-1.456,0.235-1.872,0.384c-0.416,0.15-0.704,0.225-0.864,0.225s-0.271-0.182-0.336-0.545   c-0.063-0.361-0.096-0.612-0.096-0.752c0-0.139,0.037-0.24,0.112-0.304c0.074-0.063,0.282-0.106,0.624-0.128   c0.341-0.021,0.943-0.102,1.808-0.24s1.604-0.282,2.224-0.432c1.835-0.448,3.488-0.672,4.96-0.672c1.473,0,2.806,0.384,4,1.152   c0.257,0.17,0.48,0.287,0.673,0.352C22.839,18.707,22.935,18.855,22.935,19.09z M15.703,20.051c0.32,0,0.635,0.037,0.944,0.111   c0.309,0.075,0.501,0.155,0.575,0.24c0.075,0.086,0.112,0.225,0.112,0.416c0,0.448-0.182,0.736-0.544,0.864   c-0.363,0.128-0.795,0.31-1.296,0.544c-0.502,0.234-1.014,0.422-1.536,0.561c-0.523,0.139-1.296,0.207-2.32,0.207   c-0.533,0-0.955,0.06-1.264,0.176c-0.31,0.118-0.576,0.177-0.8,0.177c-0.225,0-0.4-0.187-0.528-0.56s-0.191-0.672-0.191-0.896   s0.148-0.336,0.447-0.336c0.213,0,1.115-0.25,2.704-0.752C13.596,20.302,14.828,20.051,15.703,20.051z" stroke-width="1"/>
</g>
</svg>