<svg xmlns="http://www.w3.org/2000/svg" xmlns:xlink="http://www.w3.org/1999/xlink" version="1.1" id="图层_1" x="0px" y="0px" width="27.688997268676758" height="26.47100257873535" viewBox="2.179002523422241 0.8620002269744873 27.688997268676758 26.47100257873535" enable-background="new 0 0 30 30" xml:space="preserve">
<g>
	<path fill="#0000FF" d="M16.663,10.674c0,0.043,0.011,0.102,0.032,0.176c0.021,0.075,0.319,0.384,0.896,0.928   c0.576,0.544,1.307,1.125,2.192,1.744c0.885,0.619,1.732,1.115,2.544,1.488c0.811,0.373,1.439,0.613,1.888,0.72   c1.194,0.299,2.353,0.747,3.472,1.344c1.12,0.598,1.681,1.035,1.681,1.313s-0.582,0.416-1.744,0.416   c-1.163,0-2.396-0.117-3.696-0.352c-1.301-0.235-2.08-0.438-2.336-0.609c-0.256-0.17-0.427-0.469-0.512-0.896   c-0.149-0.788-0.896-1.616-2.24-2.48c-1.344-0.864-2.208-1.296-2.592-1.296c-0.171,0-0.277,0.064-0.32,0.192   c-0.043,0.128-0.096,0.619-0.16,1.472l-0.159,2.496c0,0.172,0.036,0.289,0.111,0.353s0.203,0.091,0.384,0.08   c0.182-0.011,0.337-0.017,0.465-0.017c1.749,0,3.13,0.332,4.144,0.992c1.013,0.662,1.521,1.163,1.521,1.504   c0,0.192-0.246,0.63-0.736,1.313c-0.491,0.683-0.854,1.136-1.088,1.359c-0.235,0.225-0.368,0.428-0.4,0.608   c-0.032,0.182-0.048,0.709-0.048,1.584c0,0.747-0.256,1.088-0.768,1.024c-0.214-0.021-0.678-0.032-1.393-0.032   s-1.701,0.063-2.96,0.192c-1.259,0.127-1.968,0.25-2.128,0.367s-0.336,0.176-0.528,0.176c-0.191,0-0.319-0.074-0.384-0.224   c-0.256-0.64-0.661-1.339-1.216-2.096s-0.971-1.53-1.248-2.32c-0.277-0.788-0.416-1.435-0.416-1.937c0-0.5,0.064-0.831,0.192-0.991   s0.373-0.251,0.735-0.272c0.363-0.021,0.997-0.144,1.904-0.367c0.906-0.225,1.456-0.395,1.648-0.512   c0.191-0.117,0.287-0.262,0.287-0.433s-0.016-0.624-0.048-1.36c-0.031-0.736-0.048-1.68-0.048-2.832   c0-0.235-0.085-0.352-0.256-0.352c-0.32,0-0.864,0.384-1.632,1.152c-0.769,0.768-1.387,1.323-1.856,1.665   c-1.023,0.768-1.6,1.402-1.728,1.903s-0.48,0.821-1.056,0.96c-0.576,0.139-1.168,0.208-1.776,0.208s-1.195-0.048-1.76-0.144   c-0.565-0.096-0.848-0.225-0.848-0.385s0.229-0.324,0.688-0.496c0.458-0.17,1.386-0.58,2.784-1.231   c1.397-0.65,2.491-1.338,3.28-2.064c0.789-0.725,1.44-1.387,1.952-1.984s0.769-0.987,0.769-1.168s-0.064-0.299-0.192-0.352   s-0.48-0.08-1.056-0.08c-0.576,0-0.896,0.021-0.96,0.064c-0.385,0.277-0.667,0.416-0.849,0.416s-0.304-0.064-0.368-0.192   c-0.063-0.128-0.187-0.475-0.367-1.04C8.178,9.806,8.087,9.454,8.087,9.314c0-0.139,0.059-0.245,0.176-0.32s0.32-0.112,0.608-0.112   s0.858-0.048,1.712-0.144c0.853-0.096,1.392-0.181,1.616-0.256c0.224-0.074,0.506-0.154,0.848-0.24   c0.341-0.085,0.539-0.181,0.592-0.288c0.054-0.106,0.091-0.277,0.112-0.512c0.256-3.242,0.432-5.066,0.528-5.472   c0.096-0.405,0.245-0.608,0.447-0.608c0.203,0,0.513,0.07,0.929,0.208c0.416,0.139,0.688,0.256,0.815,0.352   c0.128,0.096,0.192,0.214,0.192,0.352c0,0.139-0.043,0.283-0.128,0.432c-0.086,0.149-0.166,0.752-0.24,1.808   c-0.075,1.056-0.112,1.733-0.112,2.032c0,0.299,0.059,0.475,0.177,0.528c0.116,0.053,0.304,0.08,0.56,0.08   c1.173,0,1.963-0.149,2.368-0.448c0.17-0.128,0.33-0.192,0.479-0.192c0.363,0,0.726,0.31,1.089,0.928   c0.362,0.619,0.544,1.195,0.544,1.728c0,0.213-0.043,0.421-0.129,0.624c-0.085,0.203-0.219,0.304-0.399,0.304   c-0.182,0-0.357-0.053-0.528-0.16c-0.171-0.106-0.47-0.16-0.896-0.16c-0.428,0-0.929,0.043-1.504,0.128   c-0.576,0.085-0.907,0.149-0.992,0.192c-0.086,0.043-0.155,0.117-0.208,0.224C16.689,10.43,16.663,10.546,16.663,10.674z    M13.431,23.699c0.064,0,0.128-0.012,0.192-0.033c0.896-0.213,1.771-0.352,2.624-0.416c0.32-0.021,0.656-0.186,1.008-0.496   c0.353-0.309,0.528-0.868,0.528-1.68c0-0.811-0.145-1.312-0.433-1.504c-0.287-0.191-0.757-0.287-1.407-0.287   c-0.651,0-1.473,0.234-2.465,0.703c-0.991,0.47-1.487,0.982-1.487,1.536c0,0.319,0.16,0.763,0.479,1.328   C12.791,23.416,13.111,23.699,13.431,23.699z" stroke-width="1"/>
</g>
</svg>