<svg xmlns="http://www.w3.org/2000/svg" xmlns:xlink="http://www.w3.org/1999/xlink" version="1.1" id="图层_1" x="0px" y="0px" width="24.135000228881836" height="27.62599754333496" viewBox="2.913999319076538 0.7340009212493896 24.135000228881836 27.62599754333496" enable-background="new 0 0 30 30" xml:space="preserve">
<g>
	<path fill="#0000FF" d="M8.855,16.531c-0.044-0.086-0.123-0.129-0.24-0.129c-0.118,0-0.47,0.075-1.057,0.225   c-0.586,0.148-0.955,0.309-1.104,0.479c-0.149,0.171-0.283,0.476-0.4,0.912c-0.118,0.438-0.176,0.976-0.176,1.616   c0,1.131,0.139,2.069,0.416,2.816c0.085,0.234,0.128,0.442,0.128,0.623c0,0.182-0.08,0.357-0.24,0.528   c-0.16,0.171-0.283,0.256-0.368,0.256c-0.213,0-0.56-0.464-1.04-1.392s-0.827-1.952-1.04-3.072c-0.213-1.12-0.32-1.946-0.32-2.48   c0-0.533,0.181-0.916,0.544-1.151c0.362-0.235,0.997-0.427,1.904-0.576c0.907-0.149,1.648-0.314,2.224-0.496   c0.576-0.181,1.114-0.378,1.616-0.592c0.501-0.213,0.794-0.373,0.88-0.48c0.085-0.106,0.229-0.458,0.432-1.056   c0.203-0.597,0.305-0.976,0.305-1.136c0-0.16-0.097-0.24-0.288-0.24l-1.216-0.064c-0.257,0-0.539,0.069-0.849,0.208   c-0.31,0.139-0.512,0.208-0.607,0.208c-0.097,0-0.171-0.037-0.225-0.112s-0.197-0.443-0.432-1.104   c-0.235-0.661-0.353-1.088-0.353-1.28s0.16-0.288,0.48-0.288c0.341,0,1.12-0.101,2.336-0.304s1.866-0.379,1.952-0.528   c0.085-0.149,0.288-1.024,0.607-2.624c0.32-1.6,0.491-2.688,0.513-3.264c0.021-0.533,0.176-0.8,0.464-0.8s0.715,0.118,1.28,0.352   c0.564,0.235,0.848,0.512,0.848,0.832c0,0.171-0.112,0.379-0.336,0.624c-0.225,0.246-0.512,0.971-0.864,2.176   c-0.352,1.205-0.528,1.883-0.528,2.032c0,0.213,0.107,0.288,0.32,0.224c0.576-0.149,1.237-0.245,1.984-0.288   c0.746-0.042,1.307-0.112,1.68-0.208s0.624-0.144,0.752-0.144c0.427,0,0.8,0.384,1.12,1.152c0.32,0.768,0.48,1.243,0.48,1.424   s-0.075,0.304-0.225,0.368s-0.598,0.096-1.344,0.096c-0.747,0-1.478,0.043-2.192,0.128c-0.715,0.085-1.279,0.208-1.695,0.368   s-0.764,0.293-1.04,0.4c-0.278,0.107-0.454,0.208-0.528,0.304c-0.075,0.096-0.145,0.304-0.208,0.624l-0.16,1.056   c0,0.214,0.139,0.299,0.416,0.256c1.621-0.299,3.185-0.448,4.688-0.448s2.688,0.112,3.552,0.336s1.675,0.379,2.432,0.464   c0.757,0.086,1.35,0.267,1.776,0.544s0.64,0.555,0.64,0.832c0,0.491-0.31,1.803-0.928,3.936c-0.619,2.135-1.27,4.027-1.952,5.681   s-1.131,2.65-1.344,2.991c-0.214,0.342-0.374,0.514-0.48,0.514s-0.357-0.145-0.752-0.434c-0.395-0.287-1.008-0.607-1.84-0.959   s-1.482-0.827-1.952-1.424c-0.47-0.598-0.704-0.961-0.704-1.088c0-0.129,0.043-0.192,0.128-0.192s0.214,0.043,0.385,0.128   c0.768,0.404,1.738,0.607,2.912,0.607c0.469,0,0.842-0.144,1.119-0.432s0.641-1.173,1.089-2.656c0.447-1.482,0.672-2.8,0.672-3.951   c0-1.152-0.097-1.91-0.288-2.272c-0.192-0.362-0.528-0.645-1.008-0.848c-0.48-0.202-1.265-0.304-2.353-0.304   c-0.384,0-0.64,0.016-0.768,0.048s-0.246,0.155-0.353,0.368c-0.405,0.875-0.843,1.622-1.312,2.24   c-0.064,0.085-0.097,0.171-0.097,0.256c0,0.086,0.123,0.165,0.368,0.24s0.433,0.22,0.561,0.433s0.191,0.416,0.191,0.607   s-0.288,0.331-0.863,0.416c-1.238,0.171-1.984,0.293-2.24,0.368s-0.384,0.235-0.384,0.479c0,0.246,0.138,0.357,0.416,0.336   c1.002-0.127,1.664-0.191,1.983-0.191c0.32,0,0.539,0.037,0.656,0.111c0.117,0.075,0.267,0.315,0.448,0.721   c0.181,0.405,0.271,0.693,0.271,0.863c0,0.299-0.171,0.422-0.512,0.369c-0.342-0.054-0.773-0.08-1.296-0.08   c-0.523,0-0.981,0.01-1.376,0.031c-0.396,0.021-0.624,0.049-0.688,0.08c-0.063,0.032-0.111,0.091-0.144,0.176   c-0.032,0.086-0.048,0.225-0.048,0.416v0.672l-0.064,2.08c-0.043,0.683-0.102,1.099-0.176,1.248   c-0.075,0.149-0.229,0.225-0.464,0.225c-0.875,0-1.28-0.374-1.216-1.12c0.042-0.278,0.063-0.849,0.063-1.712   c0-0.864-0.032-1.371-0.096-1.521c-0.064-0.149-0.182-0.224-0.353-0.224s-0.565,0.064-1.184,0.191   c-0.619,0.129-1.072,0.246-1.36,0.353s-0.518,0.159-0.688,0.159c-0.171,0-0.336-0.116-0.496-0.352   c-0.16-0.234-0.24-0.421-0.24-0.56s0.059-0.24,0.176-0.304c0.117-0.064,0.518-0.197,1.2-0.4s1.504-0.41,2.464-0.624   c0.171-0.042,0.256-0.16,0.256-0.353c0-0.404-0.181-0.607-0.544-0.607c-0.021,0-0.389,0.059-1.104,0.176s-1.142,0.191-1.28,0.225   c-0.139,0.031-0.262,0.047-0.368,0.047s-0.191-0.074-0.256-0.223c-0.063-0.15-0.096-0.299-0.096-0.449   c0-0.148,0.106-0.244,0.32-0.287c0.703-0.192,1.056-0.379,1.056-0.561c0-0.181-0.075-0.459-0.224-0.832   C9.249,17.197,9.068,16.851,8.855,16.531z M11.575,17.555c0.063,0,0.213-0.027,0.448-0.08c0.234-0.053,0.532-0.106,0.896-0.16   c0.362-0.053,0.597-0.145,0.704-0.271c0.106-0.129,0.288-0.459,0.544-0.992s0.384-0.912,0.384-1.136s-0.075-0.336-0.224-0.336   c-0.149,0-0.624,0.107-1.424,0.32c-0.801,0.213-1.275,0.39-1.425,0.528s-0.224,0.491-0.224,1.056c0,0.565,0.016,0.886,0.048,0.96   C11.335,17.518,11.426,17.555,11.575,17.555z" stroke-width="1"/>
</g>
</svg>