<svg xmlns="http://www.w3.org/2000/svg" xmlns:xlink="http://www.w3.org/1999/xlink" version="1.1" id="图层_1" x="0px" y="0px" width="24.709001541137695" height="27.525999069213867" viewBox="1.8939988613128662 1.3109999895095825 24.709001541137695 27.525999069213867" enable-background="new 0 0 30 30" xml:space="preserve">
<g>
	<path fill="#0000FF" d="M26.103,11.73c0,0.47-0.106,0.704-0.319,0.704c-0.214,0-0.513-0.053-0.896-0.16   c-1.813-0.448-3.402-0.672-4.768-0.672s-2.651,0.059-3.856,0.176c-1.205,0.118-1.995,0.251-2.368,0.4s-0.677,0.389-0.911,0.72   c-0.235,0.331-0.353,0.555-0.353,0.672c0,0.118,0.053,0.176,0.16,0.176c0.106,0,0.202-0.011,0.288-0.032   c2.73-0.533,4.522-0.8,5.376-0.8c0.362,0,0.992,0.069,1.888,0.208c0.896,0.139,1.344,0.432,1.344,0.88   c0,0.107-0.021,0.235-0.063,0.384c-0.299,0.917-0.448,4-0.448,9.248l0.064,3.84c0,0.32-0.043,0.543-0.128,0.672   c-0.086,0.129-0.225,0.191-0.416,0.191c-0.534,0-1.393-0.293-2.576-0.879c-1.185-0.588-2.225-1.35-3.12-2.289   c-0.214-0.234-0.396-0.352-0.544-0.352c-0.149,0-0.555,0.106-1.216,0.32c-0.662,0.213-1.088,0.389-1.28,0.527   s-0.363,0.209-0.512,0.209c-0.342,0-0.576-0.353-0.704-1.057c-0.128-0.703-0.192-1.85-0.192-3.439s0.059-2.906,0.176-3.952   s0.177-1.61,0.177-1.696c0-0.085-0.043-0.128-0.128-0.128c-0.214,0-0.614,0.513-1.2,1.536c-0.587,1.023-0.88,1.707-0.88,2.048   s-0.08,0.635-0.24,0.88c-0.16,0.246-0.555,0.528-1.185,0.848c-0.629,0.32-1.333,0.561-2.111,0.721   c-0.779,0.16-1.478,0.24-2.096,0.24c-0.235,0-0.352-0.059-0.352-0.176s0.117-0.283,0.352-0.496c0.234-0.213,1.13-0.896,2.688-2.049   c1.344-1.002,2.507-2.234,3.488-3.696c0.98-1.461,1.472-2.283,1.472-2.464s-0.102-0.272-0.304-0.272   c-0.203,0-0.934,0.176-2.192,0.528s-2.304,0.72-3.136,1.104s-1.382,0.576-1.648,0.576c-0.267,0-0.507-0.17-0.72-0.512   c-0.213-0.341-0.32-0.619-0.32-0.832c0-0.213,0.133-0.32,0.4-0.32c0.267,0,0.57-0.096,0.912-0.288   c0.448-0.256,3.029-0.907,7.744-1.952c0.191-0.042,0.347-0.112,0.464-0.208c0.117-0.096,0.261-0.298,0.432-0.608   c0.171-0.309,0.256-0.496,0.256-0.56c0-0.234-0.203-0.352-0.607-0.352c-0.256,0-0.534,0.048-0.832,0.144   c-0.299,0.096-0.55,0.144-0.752,0.144c-0.203,0-0.368-0.218-0.496-0.656C9.783,8.494,9.719,8.206,9.719,8.066   c0-0.138,0.054-0.245,0.16-0.32s0.405-0.139,0.896-0.192c0.49-0.053,1.114-0.16,1.872-0.32c0.757-0.16,1.216-0.368,1.376-0.624   c0.159-0.256,0.314-0.613,0.464-1.072c0.148-0.458,0.298-0.688,0.447-0.688s0.39,0.085,0.721,0.256   c0.33,0.171,0.603,0.368,0.815,0.592c0.213,0.224,0.427,0.315,0.641,0.272c0.896-0.149,1.589-0.224,2.08-0.224   c0.256,0,0.442,0.043,0.56,0.128c0.117,0.085,0.256,0.283,0.416,0.592c0.16,0.31,0.24,0.55,0.24,0.72   c0,0.363-0.384,0.587-1.152,0.672l-2.208,0.544c-0.854,0.235-1.354,0.39-1.504,0.464s-0.304,0.251-0.464,0.528   c-0.16,0.277-0.24,0.485-0.24,0.624c0,0.139,0.085,0.208,0.256,0.208s0.353-0.011,0.544-0.032c1.898-0.256,3.675-0.384,5.328-0.384   s2.619-0.026,2.896-0.08c0.276-0.053,0.538-0.08,0.784-0.08c0.244,0,0.474,0.107,0.688,0.32c0.213,0.213,0.395,0.491,0.544,0.832   S26.103,11.454,26.103,11.73z M19.351,1.811c0.257,0,0.453,0.032,0.593,0.096c0.138,0.064,0.256,0.272,0.352,0.624   c0.096,0.352,0.145,0.581,0.145,0.688c0,0.277-0.251,0.464-0.753,0.56c-0.501,0.096-1.227,0.144-2.176,0.144   s-1.775,0.096-2.479,0.288s-1.152,0.427-1.345,0.704c-0.191,0.277-0.416,0.438-0.672,0.48c-0.555,0.043-1.104,0.123-1.647,0.24   c-0.544,0.118-0.998,0.176-1.36,0.176c-0.683,0-1.023-0.117-1.023-0.352c0-0.213,0.564-0.586,1.695-1.12   c1.131-0.533,2.251-0.981,3.36-1.344s2.011-0.576,2.704-0.64c0.692-0.064,1.216-0.17,1.567-0.32   C18.663,1.886,19.01,1.811,19.351,1.811z M17.847,25.586c0.32,0,0.522-0.063,0.608-0.191c0.085-0.128,0.128-0.47,0.128-1.023   l-0.032-4.449c-0.021-3.05-0.063-4.698-0.128-4.943c-0.063-0.245-0.213-0.448-0.448-0.608c-0.234-0.16-0.555-0.24-0.96-0.24   c-0.96,0-1.712,0.118-2.256,0.352c-0.544,0.235-0.965,0.432-1.264,0.592c-0.299,0.16-0.448,0.363-0.448,0.608   s0.117,0.347,0.353,0.304c0.98-0.191,1.717-0.287,2.208-0.287c0.404,0,0.607,0.176,0.607,0.527s-0.054,0.635-0.16,0.848   c-0.106,0.214-0.319,0.379-0.64,0.496s-0.816,0.336-1.488,0.656s-1.066,0.518-1.184,0.592c-0.117,0.075-0.203,0.188-0.256,0.336   c-0.054,0.15-0.08,0.283-0.08,0.4s0.059,0.176,0.176,0.176s0.256-0.026,0.416-0.08c0.16-0.053,0.549-0.139,1.168-0.256   c0.618-0.117,1.152-0.176,1.6-0.176c0.448,0,0.673,0.213,0.673,0.64c0,0.257-0.246,0.556-0.736,0.896   c-0.491,0.342-0.96,0.566-1.408,0.673s-0.88,0.261-1.296,0.464s-0.672,0.352-0.768,0.447c-0.097,0.097-0.145,0.23-0.145,0.4   c0,0.32,0.149,0.48,0.448,0.48c0.106,0,0.213-0.021,0.32-0.064c0.469-0.148,1.066-0.282,1.792-0.4   c0.725-0.116,1.194-0.176,1.407-0.176s0.357,0.038,0.433,0.112c0.074,0.075,0.111,0.24,0.111,0.496s-0.031,0.47-0.096,0.64   c-0.063,0.172-0.214,0.385-0.448,0.641c-0.063,0.085-0.096,0.176-0.096,0.271s0.202,0.262,0.608,0.496   C16.972,25.469,17.399,25.586,17.847,25.586z" stroke-width="1"/>
</g>
</svg>