<svg xmlns="http://www.w3.org/2000/svg" xmlns:xlink="http://www.w3.org/1999/xlink" version="1.1" id="图层_1" x="0px" y="0px" width="26.216001510620117" height="28.681001663208008" viewBox="2.819998025894165 0.062000393867492676 26.216001510620117 28.681001663208008" enable-background="new 0 0 30 30" xml:space="preserve">
<g>
	<path fill="#0000FF" d="M15.895,14.482c0,0.107,0.049,0.246,0.145,0.416c0.096,0.171,0.65,0.747,1.664,1.729   c1.013,0.98,2.069,1.813,3.168,2.496c1.099,0.683,2.213,1.215,3.344,1.6c2.88,1.003,4.32,1.76,4.32,2.271   c0,0.235-0.262,0.438-0.784,0.608c-0.523,0.171-1.216,0.256-2.08,0.256s-1.898-0.122-3.104-0.368   c-1.206-0.244-1.904-0.432-2.097-0.56c-0.191-0.128-0.325-0.373-0.399-0.736c-0.075-0.362-0.203-0.821-0.385-1.376   c-0.181-0.555-0.549-1.061-1.104-1.52s-1.099-0.801-1.632-1.024s-0.886-0.336-1.057-0.336s-0.256,0.224-0.256,0.672l0.097,2.433   l-0.097,2.848c0,0.641,0.059,1.354,0.177,2.145c0.116,0.789,0.176,1.354,0.176,1.695s-0.16,0.512-0.48,0.512   c-0.405,0-1.088-0.154-2.048-0.463c-0.96-0.311-1.733-0.646-2.32-1.009s-1.071-0.726-1.456-1.088   c-0.384-0.363-0.575-0.581-0.575-0.656s0.048-0.112,0.144-0.112s0.208,0.021,0.336,0.064c1.194,0.362,2.197,0.544,3.008,0.544   c0.342,0,0.581-0.085,0.721-0.256c0.138-0.171,0.229-0.528,0.271-1.072s0.064-1.162,0.064-1.856c0-0.692-0.021-1.444-0.064-2.256   c-0.043-0.811-0.091-1.269-0.144-1.375c-0.054-0.107-0.134-0.16-0.24-0.16c-0.107,0-0.342,0.127-0.704,0.384   c-1.43,1.046-2.544,1.776-3.344,2.192s-1.968,1.189-3.504,2.319c-0.277,0.192-0.581,0.288-0.912,0.288   c-0.331,0-0.651-0.068-0.96-0.208c-0.31-0.139-0.464-0.319-0.464-0.544s0.224-0.475,0.672-0.752   c2.538-1.515,4.677-3.057,6.416-4.624c1.738-1.567,2.607-2.512,2.607-2.832c0-0.149-0.182-0.224-0.544-0.224   s-1.066,0.118-2.111,0.352c-1.046,0.235-2.092,0.576-3.137,1.023c-0.106,0.043-0.219,0.064-0.335,0.064   c-0.118,0-0.283-0.181-0.496-0.544c-0.213-0.362-0.32-0.714-0.32-1.056s0.096-0.555,0.288-0.64c0.192-0.085,0.672-0.203,1.44-0.352   l2.464-0.64c1.707-0.426,2.624-0.688,2.752-0.784c0.128-0.096,0.192-0.336,0.192-0.72s-0.032-0.608-0.096-0.672   c-0.064-0.064-0.192-0.096-0.385-0.096l-1.312-0.096c-0.384,0-0.646,0.032-0.784,0.096s-0.267,0.096-0.384,0.096   s-0.245-0.059-0.384-0.176c-0.14-0.117-0.225-0.325-0.256-0.624C9.575,9.48,9.474,9.085,9.303,8.595S9.047,7.763,9.047,7.57   c0-0.597,0.267-0.842,0.8-0.736c0.234,0.043,0.555,0.064,0.96,0.064s0.912-0.032,1.521-0.096c0.607-0.064,0.943-0.144,1.008-0.24   s0.096-0.187,0.096-0.272c0.149-2.794,0.251-4.448,0.305-4.96c0.053-0.512,0.293-0.768,0.72-0.768c0.256,0,0.704,0.118,1.344,0.352   c0.641,0.235,0.96,0.501,0.96,0.8c0,0.128-0.054,0.31-0.16,0.544c-0.384,0.917-0.575,1.712-0.575,2.384s0.01,1.035,0.031,1.088   c0.021,0.054,0.097,0.08,0.225,0.08s0.399-0.048,0.815-0.144s0.778-0.144,1.088-0.144s0.576,0.016,0.801,0.048   c0.224,0.032,0.378,0.24,0.464,0.624c0.085,0.384,0.128,0.656,0.128,0.816c0,0.16-0.048,0.309-0.145,0.448   c-0.096,0.139-0.464,0.421-1.104,0.848c-0.641,0.427-1.216,0.779-1.729,1.056c-0.171,0.086-0.282,0.219-0.336,0.4   c-0.053,0.181-0.08,0.496-0.08,0.944c0,0.277,0.106,0.416,0.32,0.416c0.213,0,0.736-0.075,1.568-0.224   c0.832-0.149,1.37-0.256,1.615-0.32s0.433-0.096,0.561-0.096c0.299,0,0.635,0.278,1.008,0.832c0.373,0.555,0.561,0.981,0.561,1.28   c0,0.555-0.385,0.832-1.152,0.832c-0.256,0-0.544-0.032-0.864-0.096s-0.646-0.096-0.976-0.096c-0.331,0-0.838,0.102-1.521,0.304   c-0.683,0.203-1.088,0.357-1.216,0.464C15.959,14.109,15.895,14.27,15.895,14.482z" stroke-width="1"/>
</g>
</svg>