<svg xmlns="http://www.w3.org/2000/svg" xmlns:xlink="http://www.w3.org/1999/xlink" version="1.1" id="图层_1" x="0px" y="0px" width="24.584999084472656" height="26.69599723815918" viewBox="0.9300000667572021 1.4380000829696655 24.584999084472656 26.69599723815918" enable-background="new 0 0 30 30" xml:space="preserve">
<g>
	<path fill="#0000FF" d="M12.215,9.17c0.427,0,0.641,0.448,0.641,1.344c0,0.171-0.027,0.299-0.08,0.384   c-0.054,0.085-0.251,0.262-0.593,0.528c-0.341,0.267-0.667,0.496-0.976,0.688c-0.31,0.192-0.507,0.395-0.592,0.608   c-0.086,0.213-0.128,0.491-0.128,0.832s0.16,0.576,0.479,0.704c0.854,0.32,1.28,0.79,1.28,1.408c0,0.363-0.069,0.636-0.208,0.816   c-0.139,0.182-0.294,0.271-0.464,0.271c-0.684,0-1.072,0.021-1.168,0.064c-0.097,0.043-0.155,0.117-0.176,0.225   c-0.021,0.106-0.054,0.763-0.097,1.968s-0.063,2.491-0.063,3.856c0,1.364,0.026,2.287,0.08,2.768c0.053,0.48,0.08,0.816,0.08,1.008   c0,0.66-0.192,0.992-0.576,0.992c-0.171,0-0.368-0.049-0.592-0.145c-0.225-0.096-0.513-0.246-0.864-0.447   c-0.353-0.203-0.544-0.326-0.576-0.369s-0.048-0.122-0.048-0.239c0-0.118,0.059-0.319,0.176-0.608   c0.117-0.287,0.219-0.901,0.304-1.84s0.128-1.674,0.128-2.208l0.064-3.584c0-0.213-0.059-0.319-0.176-0.319   c-0.118,0-0.256,0.053-0.416,0.16c-0.16,0.106-0.822,0.719-1.984,1.84c-1.163,1.119-1.92,1.893-2.272,2.319s-0.651,0.64-0.896,0.64   c-0.246,0-0.485-0.08-0.72-0.239c-0.235-0.16-0.352-0.325-0.352-0.496s0.048-0.341,0.144-0.513c0.096-0.17,0.554-0.709,1.376-1.615   c0.821-0.906,1.589-1.749,2.304-2.528c0.715-0.778,1.296-1.493,1.744-2.144c0.448-0.65,0.672-1.05,0.672-1.2   c0-0.149-0.059-0.224-0.176-0.224s-0.31,0.032-0.576,0.096c-0.267,0.064-0.667,0.117-1.2,0.16c-0.555,0-0.971,0.107-1.248,0.32   c-0.278,0.192-0.518,0.288-0.72,0.288c-0.203,0-0.347-0.208-0.432-0.624c-0.085-0.416-0.208-0.928-0.368-1.536   c-0.16-0.608-0.24-0.955-0.24-1.04c0-0.234,0.112-0.352,0.336-0.352S3.5,11.208,3.735,11.25c0.235,0.043,0.48,0.064,0.736,0.064   c0.789,0,1.563-0.133,2.32-0.4c0.757-0.267,1.242-0.464,1.456-0.592c0.213-0.128,0.347-0.288,0.4-0.48   C8.7,9.65,8.764,8.888,8.839,7.555C8.913,6.222,8.972,4.84,9.015,3.411C9.036,2.43,9.303,1.938,9.815,1.938   c0.256,0,0.56,0.038,0.911,0.112c0.353,0.075,0.603,0.15,0.752,0.224c0.149,0.075,0.225,0.192,0.225,0.352s-0.08,0.331-0.24,0.512   s-0.304,0.539-0.432,1.072c-0.128,0.534-0.192,1.158-0.192,1.872c0,0.715-0.011,1.275-0.032,1.68l-0.031,1.088   c0,0.277,0.17,0.416,0.512,0.416L12.215,9.17z M25.015,10.707c0,0.192-0.063,0.485-0.191,0.88c-0.128,0.395-0.192,0.901-0.192,1.52   l0.032,1.152l-0.096,4.896c0,0.662,0.026,1.238,0.08,1.729c0.053,0.49,0.079,1.216,0.079,2.176l-0.031,1.504l0.031,0.864   c0,0.362-0.171,0.544-0.512,0.544c-0.342,0-1.019-0.299-2.032-0.896c-1.013-0.598-1.765-1.136-2.256-1.615   c-0.491-0.48-0.795-0.721-0.912-0.721s-0.399,0.092-0.848,0.272s-0.864,0.379-1.248,0.592c-0.384,0.214-0.832,0.319-1.344,0.319   s-0.821-0.047-0.928-0.144c-0.107-0.096-0.22-0.416-0.337-0.96s-0.229-1.572-0.336-3.088c-0.106-1.515-0.159-2.949-0.159-4.304   c0-1.355,0.058-2.277,0.176-2.768c0.117-0.491,0.176-0.821,0.176-0.992c0-0.17,0.053-0.304,0.16-0.4   c0.106-0.096,0.57-0.309,1.392-0.64c0.821-0.331,1.669-0.597,2.544-0.8s1.69-0.304,2.448-0.304c0.757,0,1.61,0.075,2.56,0.224   c0.949,0.149,1.478,0.299,1.585,0.448C24.962,10.344,25.015,10.515,25.015,10.707z M21.847,21.65l-0.031-2.464   c-0.021-0.726-0.032-1.888-0.032-3.487c0-1.601-0.128-2.822-0.384-3.665c-0.257-0.843-0.71-1.264-1.36-1.264   c-0.651,0-1.397,0.198-2.24,0.592c-0.843,0.395-1.264,0.912-1.264,1.552c0,0.149,0.048,0.267,0.144,0.352   c0.097,0.085,0.229,0.117,0.4,0.096c0.938-0.17,1.637-0.256,2.096-0.256s0.736,0.043,0.832,0.128   c0.096,0.085,0.145,0.278,0.145,0.576c0,0.299-0.171,0.555-0.513,0.768c-0.341,0.213-0.917,0.48-1.728,0.8   c-0.812,0.321-1.264,0.543-1.36,0.672c-0.096,0.128-0.144,0.309-0.144,0.544s0.117,0.352,0.352,0.352   c0.064,0,0.128-0.011,0.192-0.032c1.045-0.298,1.775-0.447,2.191-0.447s0.646,0.107,0.688,0.32c0.042,0.213,0.063,0.399,0.063,0.56   c0,0.159-0.063,0.31-0.191,0.448s-0.422,0.309-0.88,0.512c-0.459,0.203-1.029,0.49-1.712,0.863   c-0.684,0.374-1.067,0.63-1.152,0.769c-0.086,0.14-0.128,0.363-0.128,0.672c0,0.31,0.154,0.464,0.464,0.464   c0.309,0,0.773-0.084,1.392-0.256c0.619-0.17,1.003-0.256,1.152-0.256c0.448,0,0.72,0.268,0.816,0.8   c0.096,0.534,0.17,0.864,0.224,0.992c0.053,0.128,0.192,0.245,0.416,0.353c0.224,0.106,0.453,0.16,0.688,0.16   C21.559,22.867,21.847,22.461,21.847,21.65z" stroke-width="1"/>
</g>
</svg>