<svg xmlns="http://www.w3.org/2000/svg" xmlns:xlink="http://www.w3.org/1999/xlink" version="1.1" id="图层_1" x="0px" y="0px" width="30.18400001525879" height="23.52800178527832" viewBox="-0.1249997615814209 3.3899998664855957 30.18400001525879 23.52800178527832" enable-background="new 0 0 30 30" xml:space="preserve">
<g>
	<path fill="#0000FF" d="M29.559,19.795c0,0.405-0.949,0.607-2.848,0.607l-2.752-0.128l-1.344,0.063c-0.47,0-0.79-0.201-0.96-0.607   c-0.491-1.088-1.035-1.872-1.632-2.352c-0.598-0.48-1.553-0.912-2.864-1.297c-1.313-0.383-2.63-0.992-3.952-1.824   c-0.555-0.362-1.536-0.544-2.944-0.544c-0.384,0-0.667,0.07-0.848,0.208c-0.182,0.139-0.555,0.624-1.12,1.456   c-0.565,0.833-0.992,1.579-1.28,2.241c-0.288,0.66-0.432,1.151-0.432,1.471c0,0.32-0.118,0.556-0.352,0.705   C5.122,20.52,4.439,21,4.183,21.234c-0.256,0.235-0.683,0.422-1.28,0.561s-1.168,0.207-1.712,0.207s-0.816-0.025-0.816-0.08   c0-0.053,0.096-0.154,0.288-0.303c2.304-1.729,3.925-3.254,4.864-4.576c0.938-1.322,1.696-2.705,2.272-4.145   s0.864-3.077,0.864-4.912c0-0.704-0.032-1.194-0.096-1.472C8.503,6.237,8.471,6.045,8.471,5.938c0-0.298,0.283-0.533,0.849-0.704   c0.564-0.17,1.002-0.266,1.312-0.288c0.31-0.021,0.784-0.128,1.424-0.32c1.621-0.49,3.045-0.736,4.272-0.736   c1.227,0,2.341,0.246,3.344,0.736c1.003,0.491,1.504,0.854,1.504,1.088c0,0.107-0.106,0.24-0.319,0.4   c-0.214,0.16-0.496,0.475-0.849,0.944c-0.352,0.469-0.603,0.854-0.752,1.152c-0.149,0.299-0.336,0.56-0.56,0.784   c-0.225,0.224-0.336,0.454-0.336,0.688c0,0.235,0.016,0.416,0.048,0.544s0.048,0.251,0.048,0.368s-0.075,0.219-0.224,0.304   c-0.15,0.085-0.608,0.192-1.376,0.32c-0.769,0.128-1.536,0.235-2.305,0.32c-0.171,0.021-0.256,0.139-0.256,0.352   c0,0.277,0.341,0.672,1.024,1.184c0.683,0.512,1.333,0.907,1.951,1.184c1.43,0.662,2.635,1.259,3.616,1.792s1.957,0.96,2.929,1.279   c0.97,0.32,2.096,0.715,3.376,1.185c1.279,0.47,1.994,0.773,2.144,0.912S29.559,19.688,29.559,19.795z M16.535,6.738   c0-0.32-0.123-0.554-0.368-0.704c-0.245-0.149-0.571-0.224-0.976-0.224c-0.406,0-0.939,0.251-1.601,0.752   c-0.661,0.501-1.237,0.816-1.728,0.944c-0.576,0.128-0.864,0.747-0.864,1.856c0,0.406,0.085,0.608,0.256,0.608   s0.389-0.048,0.656-0.144c0.267-0.096,0.555-0.17,0.864-0.224c0.309-0.053,0.997-0.133,2.063-0.24   c0.533-0.064,0.949-0.325,1.248-0.784C16.386,8.12,16.535,7.506,16.535,6.738z M15.991,18.898c0,0.491-0.203,0.736-0.608,0.736   c-0.128,0-0.342-0.032-0.64-0.096c-0.299-0.064-0.662-0.102-1.088-0.112c-0.428-0.011-0.747-0.017-0.96-0.017   c-0.214,0-0.385-0.059-0.513-0.176s-0.31-0.464-0.544-1.04c-0.234-0.575-0.352-0.96-0.352-1.151c0-0.192,0.042-0.357,0.128-0.496   c0.085-0.139,0.181-0.209,0.288-0.209c0.106,0,0.224,0.055,0.352,0.16c0.234,0.192,1.045,0.534,2.433,1.024   c0.469,0.171,0.837,0.384,1.104,0.64S15.991,18.664,15.991,18.898z M11.703,21.33c0.128,0,0.288,0.118,0.479,0.353   c0.192,0.235,0.565,0.459,1.12,0.672c1.152,0.47,2.08,0.944,2.784,1.424s1.114,0.837,1.232,1.072   c0.116,0.234,0.176,0.554,0.176,0.96c0,0.404-0.075,0.607-0.225,0.607s-0.299-0.043-0.447-0.127c-0.363-0.192-1.029-0.438-2-0.736   c-0.972-0.299-1.616-0.47-1.937-0.512C12.418,25,12.05,24.69,11.783,24.115c-0.268-0.576-0.4-1.185-0.4-1.824   C11.383,21.65,11.489,21.33,11.703,21.33z" stroke-width="1"/>
</g>
</svg>