<svg xmlns="http://www.w3.org/2000/svg" xmlns:xlink="http://www.w3.org/1999/xlink" version="1.1" id="图层_1" x="0px" y="0px" width="29.992000579833984" height="29.35300064086914" viewBox="0.4190014600753784 -0.35400038957595825 29.992000579833984 29.35300064086914" enable-background="new 0 0 30 30" xml:space="preserve">
<g>
	<path fill="#0000FF" d="M15.255,18.963c0,0.085,0.069,0.267,0.208,0.543c0.139,0.278,0.442,0.556,0.912,0.832   c0.64,0.385,1.162,0.822,1.568,1.313c0.276,0.342,1.076,0.955,2.399,1.84c1.322,0.885,2.73,1.541,4.225,1.969   c3.563,1.045,5.344,1.834,5.344,2.367c0,0.213-0.433,0.379-1.296,0.496c-0.864,0.117-1.75,0.176-2.656,0.176   c-0.907,0-1.68-0.064-2.32-0.191c-0.64-0.129-1.643-0.191-3.008-0.191c-0.235,0-0.416-0.064-0.544-0.193   c-0.128-0.127-0.219-0.389-0.271-0.783c-0.054-0.395-0.283-0.918-0.688-1.568s-1.088-1.387-2.048-2.208s-1.781-1.397-2.464-1.728   c-0.684-0.33-1.131-0.496-1.345-0.496c-0.213,0-0.384,0.074-0.512,0.224c-0.619,0.79-1.589,1.749-2.912,2.88   c-0.427,0.363-0.885,0.981-1.376,1.856c-0.234,0.405-0.447,0.661-0.64,0.769c-0.192,0.105-0.453,0.159-0.784,0.159   s-0.816-0.037-1.456-0.112c-0.64-0.074-1.52-0.314-2.64-0.72c-1.12-0.405-1.739-0.651-1.856-0.735   c-0.118-0.086-0.176-0.172-0.176-0.256c0-0.192,0.208-0.257,0.624-0.192c0.416,0.063,0.848,0.096,1.296,0.096   c1.131,0,2.283-0.187,3.456-0.56c1.173-0.374,2.145-0.949,2.912-1.729c0.768-0.778,1.36-1.525,1.776-2.24   c0.416-0.714,0.624-1.119,0.624-1.216c0-0.096-0.054-0.144-0.16-0.144c-0.32,0-0.71,0.086-1.168,0.256   C9.82,19.646,9.506,19.73,9.335,19.73s-0.32-0.068-0.448-0.208c-0.128-0.139-0.432-0.64-0.912-1.504   c-0.479-0.864-0.896-1.803-1.248-2.816s-0.528-1.707-0.528-2.08c0-0.373,0.133-0.613,0.4-0.72c0.267-0.106,0.496-0.277,0.688-0.512   c0.853-1.024,1.493-1.536,1.92-1.536c0.171,0,0.357,0.048,0.56,0.144c0.203,0.096,0.491,0.176,0.864,0.24   c0.373,0.064,0.561,0.224,0.561,0.48c0,0.171-0.134,0.315-0.4,0.432c-0.267,0.118-0.656,0.347-1.168,0.688   c-0.512,0.342-0.821,0.587-0.928,0.736c-0.107,0.149-0.16,0.352-0.16,0.608c0,0.171,0.128,0.235,0.384,0.192   c0.555-0.106,0.96-0.16,1.216-0.16c0.598,0,0.896,0.374,0.896,1.12c0,0.406-0.16,0.671-0.48,0.8   c-0.96,0.384-1.387,0.709-1.28,0.976c0.107,0.267,0.171,0.433,0.192,0.496c0.064,0.214,0.208,0.32,0.432,0.32   c0.225,0,0.475-0.037,0.753-0.112c0.276-0.074,0.66-0.145,1.151-0.208c0.171-0.021,0.256-0.128,0.256-0.319   c0.064-2.475,0.145-4.07,0.24-4.785c0.096-0.714,0.145-1.253,0.145-1.616l-0.032-0.576c0-0.32,0.309-0.48,0.928-0.48l0.608,0.032   c0.128,0,0.208-0.138,0.239-0.416c0.032-0.277,0.091-0.549,0.177-0.816c0.085-0.266,0.128-0.41,0.128-0.432   c0-0.128-0.064-0.197-0.192-0.208s-0.336-0.069-0.624-0.176c-0.288-0.106-0.522-0.16-0.704-0.16s-0.549,0.08-1.104,0.24   c-0.556,0.16-0.87,0.267-0.944,0.32c-0.075,0.054-0.091,0.235-0.048,0.544c0.042,0.31,0.063,0.598,0.063,0.864   c0,0.267-0.043,0.459-0.128,0.576s-0.267,0.176-0.544,0.176S9.777,9.8,9.639,9.65C9.5,9.501,9.351,9.272,9.191,8.962   c-0.16-0.309-0.268-0.464-0.32-0.464c-0.054,0-0.304,0.107-0.752,0.32c-0.448,0.214-0.843,0.427-1.184,0.64   c-0.342,0.213-0.624,0.32-0.848,0.32S5.618,9.57,5.351,9.154C5.084,8.738,4.823,8.376,4.567,8.066   C4.311,7.757,4.183,7.555,4.183,7.458S4.231,7.293,4.327,7.25c0.096-0.042,0.533-0.149,1.312-0.32   c0.778-0.17,1.477-0.299,2.096-0.384C7.97,6.525,8.055,6.408,7.991,6.194c-0.149-0.49-0.283-0.997-0.4-1.52   c-0.117-0.522-0.245-0.96-0.384-1.312c-0.139-0.352-0.208-0.592-0.208-0.72c0-0.277,0.171-0.416,0.512-0.416   s0.778,0.027,1.313,0.08c0.533,0.053,0.943,0.139,1.231,0.256c0.288,0.118,0.433,0.267,0.433,0.448s-0.017,0.368-0.048,0.56   c-0.032,0.192-0.049,0.406-0.049,0.64c0,0.235,0.021,0.576,0.064,1.024c0.042,0.448,0.085,0.704,0.128,0.768   s0.33,0.054,0.864-0.032c0.533-0.085,1.114-0.139,1.744-0.16c0.629-0.021,1.136-0.08,1.52-0.176   c0.384-0.096,0.613-0.165,0.688-0.208c0.074-0.043,0.256-0.331,0.544-0.864c0.288-0.533,0.549-1.093,0.783-1.68   c0.235-0.586,0.55-1.189,0.944-1.808s0.683-0.928,0.864-0.928c0.181,0,0.442,0.118,0.784,0.352   c0.341,0.235,0.512,0.491,0.512,0.768c0,0.213-0.139,0.507-0.416,0.88c-0.277,0.374-0.518,0.8-0.72,1.28   c-0.203,0.48-0.305,0.779-0.305,0.896s0.117,0.155,0.353,0.112c0.746-0.213,1.456-0.378,2.128-0.496   c0.672-0.117,1.114-0.213,1.328-0.288c0.213-0.074,0.442-0.112,0.688-0.112s0.421,0.133,0.528,0.4   c0.106,0.267,0.16,0.549,0.16,0.848s-0.353,0.501-1.057,0.608c-0.703,0.107-1.663,0.405-2.88,0.896   c-1.216,0.491-2.037,0.8-2.464,0.928c-0.191,0.064-0.342,0.171-0.448,0.32c-0.725,0.917-1.387,1.589-1.983,2.016   c-0.086,0.064-0.123,0.149-0.112,0.256c0.011,0.107,0.017,0.182,0.017,0.224c0,0.235-0.044,0.491-0.129,0.768   s-0.128,1.344-0.128,3.2l-0.063,2.56c0,0.234,0.101,0.352,0.304,0.352c0.202,0,0.576-0.031,1.12-0.096s1.04-0.139,1.488-0.224   c0.447-0.085,0.709-0.155,0.784-0.208c0.074-0.053,0.165-0.267,0.271-0.641c0.106-0.373,0.16-0.628,0.16-0.768   c0-0.139-0.075-0.208-0.224-0.208c-0.406,0-0.929,0.128-1.568,0.384c-0.149,0.064-0.277,0.096-0.384,0.096   c-0.256,0-0.459-0.224-0.608-0.672c-0.149-0.448-0.224-0.8-0.224-1.056c0-0.426,0.224-0.64,0.672-0.64s0.965-0.09,1.552-0.272   c0.587-0.181,0.923-0.314,1.008-0.4c0.085-0.085,0.128-0.277,0.128-0.576c0-0.576-0.256-0.864-0.768-0.864   c-0.32,0-0.63,0.133-0.928,0.4c-0.3,0.267-0.55,0.4-0.752,0.4c-0.203,0-0.385-0.128-0.544-0.384c-0.16-0.256-0.24-0.485-0.24-0.688   c0-0.203,0.197-0.373,0.592-0.512c0.395-0.138,0.763-0.208,1.104-0.208c0.342,0,0.801-0.064,1.377-0.192   c0.575-0.128,1.056-0.192,1.439-0.192s0.912,0.133,1.584,0.4c0.672,0.267,1.008,0.56,1.008,0.88c0,0.128-0.053,0.246-0.16,0.352   c-0.405,0.363-0.703,0.822-0.896,1.376c-0.192,0.555-0.363,1.51-0.512,2.864c-0.149,1.354-0.342,2.325-0.576,2.912   c-0.235,0.587-0.565,0.88-0.992,0.88c-0.235,0-0.533-0.085-0.896-0.256c-0.129-0.043-0.331-0.064-0.608-0.064   s-0.736,0.012-1.376,0.032l-1.185,0.032C15.329,18.824,15.255,18.877,15.255,18.963z" stroke-width="1"/>
</g>
</svg>