<svg xmlns="http://www.w3.org/2000/svg" xmlns:xlink="http://www.w3.org/1999/xlink" version="1.1" id="图层_1" x="0px" y="0px" width="26.024999618530273" height="29.99100112915039" viewBox="0.19399982690811157 0.511002779006958 26.024999618530273 29.99100112915039" enable-background="new 0 0 30 30" xml:space="preserve">
<g>
	<path fill="#0000FF" d="M10.103,5.586c0,0.128,0.069,0.251,0.208,0.368s0.533,0.224,1.185,0.32c0.65,0.096,1.023,0.24,1.12,0.432   c0.096,0.192,0.144,0.443,0.144,0.752c0,0.31-0.208,0.619-0.624,0.928s-0.709,0.464-0.88,0.464s-0.427-0.17-0.768-0.512   c-0.342-0.341-0.624-0.565-0.849-0.672c-0.224-0.106-0.464-0.16-0.72-0.16s-0.47,0.07-0.64,0.208   C8.108,7.854,7.868,8.109,7.559,8.482c-0.31,0.374-0.581,0.715-0.815,1.024c-0.235,0.31-0.352,0.518-0.352,0.624   c0,0.107,0.069,0.219,0.208,0.336c0.138,0.118,0.346,0.176,0.624,0.176s0.854-0.133,1.729-0.4c0.874-0.267,1.509-0.4,1.904-0.4   c0.394,0,0.65,0.075,0.768,0.224c0.117,0.149,0.176,0.374,0.176,0.672c0,0.491-0.47,0.864-1.408,1.12   c-0.319,0.085-0.527,0.166-0.624,0.24c-0.096,0.075-0.213,0.171-0.352,0.288s-0.208,0.293-0.208,0.528   c0,0.384,0.042,0.629,0.128,0.736c0.085,0.107,0.234,0.139,0.448,0.096c0.811-0.192,1.45-0.288,1.92-0.288   c0.213,0,0.352,0.075,0.416,0.224c0.063,0.149,0.096,0.374,0.096,0.672c0,0.299-0.069,0.512-0.208,0.64s-0.576,0.395-1.312,0.8   C9.959,16.2,9.324,16.51,8.791,16.723c-0.363,0.149-0.603,0.347-0.72,0.592c-0.118,0.246-0.177,0.565-0.177,0.96   c0,0.396,0.086,0.716,0.257,0.96c0.17,0.246,0.373,0.368,0.607,0.368s0.624-0.192,1.168-0.576s0.938-0.772,1.185-1.168   c0.245-0.395,0.421-0.592,0.527-0.592s0.16,0.096,0.16,0.288c0,0.703-0.613,1.818-1.84,3.344s-2.086,2.288-2.576,2.288   c-0.277,0-0.523-0.251-0.736-0.752c-0.213-0.501-0.32-1.028-0.32-1.584c0-0.555,0.042-1.222,0.128-2   c0.085-0.778,0.128-1.248,0.128-1.408c0-0.159-0.032-0.261-0.096-0.304s-0.261-0.064-0.592-0.064c-0.331,0-0.629,0.064-0.896,0.192   c-0.267,0.128-0.464,0.192-0.592,0.192c-0.128,0-0.288-0.112-0.48-0.336c-0.192-0.225-0.288-0.496-0.288-0.816   s0.042-0.512,0.128-0.576c0.085-0.064,0.314-0.111,0.688-0.145c0.373-0.031,0.805-0.132,1.296-0.303   c0.491-0.171,0.773-0.299,0.848-0.384c0.074-0.085,0.123-0.245,0.144-0.48l0.064-0.832c0-0.64-0.166-1.157-0.496-1.552   c-0.331-0.395-0.571-0.592-0.72-0.592c-0.043,0-0.085,0.027-0.128,0.08c-0.043,0.054-0.107,0.166-0.192,0.336   c-0.085,0.171-0.123,0.331-0.112,0.48c0.01,0.149,0.016,0.246,0.016,0.288c0,0.512-0.176,0.837-0.528,0.976   c-0.352,0.139-0.683,0.326-0.992,0.56c-0.309,0.235-0.768,0.459-1.376,0.672c-0.608,0.213-1.024,0.32-1.248,0.32   c-0.224,0-0.336-0.064-0.336-0.192c0-0.341,0.843-1.429,2.528-3.264c0.469-0.533,1.184-1.509,2.144-2.928   c0.96-1.418,1.605-2.475,1.936-3.168C7.634,4.91,8.012,4.168,8.439,3.378c0.426-0.789,0.682-1.221,0.768-1.296   c0.085-0.075,0.202-0.112,0.352-0.112S9.9,2.094,10.135,2.338c0.234,0.246,0.485,0.491,0.752,0.736s0.4,0.48,0.4,0.704   c0,0.224-0.107,0.4-0.32,0.528C10.391,4.648,10.103,5.075,10.103,5.586z M25.719,14.418c0,0.043-0.021,0.224-0.063,0.544   c-0.043,0.32-0.075,0.694-0.097,1.12c-0.021,0.428-0.181,1.308-0.479,2.641c-0.299,1.334-0.533,2.149-0.704,2.447   c-0.171,0.3-0.336,0.598-0.496,0.896s-0.357,0.448-0.592,0.448c-0.064,0-0.214-0.037-0.448-0.112   c-0.235-0.074-0.427-0.123-0.576-0.145c-0.981-0.191-1.813-0.512-2.496-0.959c-0.085-0.043-0.159-0.064-0.224-0.064   c-0.256,0-0.384,1.227-0.384,3.68c0,1.088,0.011,1.92,0.032,2.496l0.128,1.408c0,0.789-0.363,1.184-1.088,1.184   c-0.491,0-0.736-0.182-0.736-0.543c0-0.107,0.011-0.219,0.032-0.336c0.021-0.117,0.031-0.283,0.031-0.496   c0-0.215-0.031-1.164-0.096-2.849l-0.192-8.063c-0.021-1.066-0.037-1.633-0.048-1.696s-0.031-0.112-0.063-0.144   c-0.032-0.033-0.096-0.049-0.192-0.049c-0.096,0-0.336,0.064-0.72,0.192s-0.64,0.256-0.769,0.384   c-0.128,0.129-0.256,0.475-0.384,1.04s-0.191,1.104-0.191,1.616l0.063,0.928c0,0.299-0.048,0.555-0.144,0.768   c-0.097,0.215-0.24,0.32-0.433,0.32c-0.405,0-0.735-0.432-0.991-1.296c-0.257-0.864-0.385-1.69-0.385-2.479   s0.043-1.339,0.128-1.648c0.085-0.309,0.197-0.549,0.336-0.72c0.139-0.17,0.251-0.267,0.337-0.288   c0.085-0.021,0.298-0.032,0.64-0.032c0.341,0,0.837-0.09,1.488-0.272c0.65-0.181,1.023-0.288,1.12-0.32   c0.096-0.032,0.144-0.123,0.144-0.272c0-0.448-0.182-0.672-0.544-0.672c-0.448,0-0.955-0.539-1.521-1.616   c-0.565-1.077-0.869-1.915-0.911-2.512c-0.043-0.789-0.08-1.242-0.112-1.36c-0.032-0.117-0.155-0.24-0.368-0.368   c-0.064-0.043-0.096-0.139-0.096-0.288c0-0.149,0.101-0.427,0.304-0.832c0.202-0.405,0.843-1.243,1.92-2.512   c1.077-1.269,1.712-2.016,1.904-2.24c0.191-0.224,0.432-0.336,0.72-0.336s0.592,0.144,0.912,0.432s0.479,0.55,0.479,0.784   c0,0.235-0.159,0.48-0.479,0.736c-1.75,1.302-2.624,2.091-2.624,2.368c0,0.149,0.16,0.224,0.479,0.224   c0.32,0,0.849-0.096,1.585-0.288c0.735-0.192,1.455-0.288,2.159-0.288s1.488,0.107,2.353,0.32c0.864,0.214,1.296,0.555,1.296,1.024   c0,0.171-0.075,0.373-0.224,0.608c-0.15,0.235-0.278,0.667-0.385,1.296c-0.106,0.629-0.347,1.456-0.72,2.48s-0.72,1.648-1.04,1.872   s-0.688,0.336-1.104,0.336s-0.838-0.139-1.265-0.416c-0.149-0.106-0.31-0.16-0.479-0.16c-0.171,0-0.256,0.139-0.256,0.416   c0,0.47,0.244,0.704,0.735,0.704c0.128,0,0.438-0.042,0.929-0.128c0.49-0.085,1.013-0.128,1.567-0.128   c0.512,0,1.189,0.117,2.032,0.352S25.719,14.078,25.719,14.418z M21.335,8.05c0-0.448-0.064-0.768-0.192-0.96   c-0.128-0.192-0.367-0.384-0.72-0.576c-0.352-0.192-0.704-0.288-1.056-0.288c-0.353,0-0.843,0.155-1.473,0.464   C17.266,7,16.951,7.298,16.951,7.586s0.16,0.406,0.479,0.352c0.32-0.053,0.704-0.08,1.152-0.08s0.746,0.054,0.896,0.16   c0.149,0.107,0.225,0.288,0.225,0.544s-0.268,0.523-0.8,0.8c-0.534,0.278-1.195,0.534-1.984,0.768   c-0.192,0.064-0.288,0.214-0.288,0.448c0,0.384,0.128,0.576,0.384,0.576s0.581-0.053,0.977-0.16c0.395-0.106,0.778-0.16,1.151-0.16   s0.608,0.032,0.704,0.096c0.097,0.064,0.197,0.096,0.305,0.096c0.276,0,0.544-0.373,0.8-1.12S21.335,8.542,21.335,8.05z    M22.583,17.746c0-0.384-0.032-0.891-0.096-1.52c-0.064-0.629-0.171-1.029-0.32-1.2c-0.149-0.17-0.384-0.256-0.704-0.256   s-0.64,0.038-0.96,0.112c-0.32,0.075-0.522,0.171-0.608,0.288c-0.085,0.118-0.176,0.544-0.271,1.281   c-0.096,0.735-0.145,1.445-0.145,2.127c0,0.684,0.011,1.104,0.032,1.264c0.021,0.16,0.187,0.283,0.496,0.369   c0.31,0.085,0.581,0.127,0.816,0.127c0.49,0,0.906-0.17,1.248-0.512C22.412,19.485,22.583,18.792,22.583,17.746z" stroke-width="1"/>
</g>
</svg>