<svg xmlns="http://www.w3.org/2000/svg" xmlns:xlink="http://www.w3.org/1999/xlink" version="1.1" id="图层_1" x="0px" y="0px" width="27.943998336791992" height="23.98200035095215" viewBox="2.2260022163391113 3.4759998321533203 27.943998336791992 23.98200035095215" style="enable-background:new 0 0 30 30;" xml:space="preserve">
  <g>
    <g>
      <path style="fill:#0000FF;" d="M29.67,25.229c0,0.641-0.048,1.088-0.144,1.344c-0.097,0.256-0.294,0.385-0.593,0.385&#13;&#10;&#9;&#9;c-0.512,0-1.339-0.134-2.479-0.4c-1.142-0.268-2.229-0.656-3.264-1.168c-1.035-0.512-1.926-1.158-2.673-1.936&#13;&#10;&#9;&#9;c-0.746-0.779-1.285-1.633-1.615-2.561c-0.331-0.928-0.496-2.17-0.496-3.729c0-1.556,0.068-3.258,0.208-5.104&#13;&#10;&#9;&#9;c0.139-1.845,0.208-3.13,0.208-3.856c0-0.725-0.097-1.285-0.288-1.68c-0.192-0.395-0.646-0.592-1.36-0.592&#13;&#10;&#9;&#9;s-1.936,0.395-3.664,1.184c-1.728,0.79-2.715,1.317-2.96,1.584c-0.245,0.267-0.368,0.656-0.368,1.168&#13;&#10;&#9;&#9;c0,0.32,0.171,0.512,0.513,0.576c1.279,0.149,2.304,0.512,3.071,1.088c0.106,0.064,0.203,0.096,0.288,0.096s0.155-0.08,0.208-0.24&#13;&#10;&#9;&#9;c0.054-0.16,0.123-0.794,0.208-1.904c0.021-0.512,0.16-0.768,0.416-0.768c0.149,0,0.539,0.123,1.168,0.368&#13;&#10;&#9;&#9;c0.629,0.246,0.944,0.518,0.944,0.816c0,0.128-0.075,0.299-0.224,0.512c-0.149,0.213-0.342,0.779-0.576,1.696&#13;&#10;&#9;&#9;c-0.235,0.917-0.353,1.472-0.353,1.664c0,0.192,0.043,0.374,0.128,0.544c0.342,0.64,0.587,1.211,0.736,1.712&#13;&#10;&#9;&#9;c0.149,0.501,0.325,0.854,0.528,1.055c0.202,0.203,0.304,0.561,0.304,1.072c0,1.024-0.155,1.798-0.464,2.32&#13;&#10;&#9;&#9;c-0.31,0.523-0.582,0.784-0.816,0.784s-0.416-0.251-0.544-0.752s-0.336-1.045-0.624-1.632s-0.479-0.965-0.576-1.137&#13;&#10;&#9;&#9;c-0.096-0.17-0.197-0.256-0.304-0.256s-0.213,0.064-0.32,0.192c-0.597,0.683-1.125,1.157-1.584,1.424s-0.997,0.485-1.615,0.656&#13;&#10;&#9;&#9;c-0.619,0.171-1.147,0.267-1.584,0.288c-0.438,0.021-0.678,0.107-0.721,0.256c-0.106,0.598-0.618,1.35-1.535,2.256&#13;&#10;&#9;&#9;c-0.918,0.907-1.835,1.359-2.752,1.359c-0.917,0-1.376-0.074-1.376-0.223c0-0.15,0.17-0.363,0.512-0.641&#13;&#10;&#9;&#9;c1.643-1.43,2.725-2.586,3.249-3.473c0.522-0.885,0.917-1.973,1.184-3.264c0.267-1.29,0.373-2.08,0.32-2.368&#13;&#10;&#9;&#9;c-0.054-0.288-0.08-1.066-0.08-2.336c0-1.269,0.026-2.288,0.08-3.056c0.053-0.768,0.122-1.291,0.208-1.568&#13;&#10;&#9;&#9;c0.085-0.277,0.213-0.416,0.384-0.416c0.405,0,0.843-0.096,1.312-0.288c0.107-0.042,0.678-0.176,1.713-0.4&#13;&#10;&#9;&#9;c1.034-0.224,1.722-0.357,2.063-0.4c0.981-0.149,2.197-0.48,3.648-0.992c0.96-0.341,1.728-0.512,2.304-0.512s1.221,0.16,1.936,0.48&#13;&#10;&#9;&#9;c0.715,0.32,1.072,0.693,1.072,1.12c0,0.214-0.096,0.384-0.288,0.512c-0.555,0.363-1.04,1.355-1.456,2.976&#13;&#10;&#9;&#9;c-0.416,1.622-0.624,3.584-0.624,5.888c0,3.734,0.555,6.256,1.664,7.569c1.109,1.312,2.293,1.967,3.552,1.967&#13;&#10;&#9;&#9;c0.299,0,0.561-0.053,0.784-0.16c0.225-0.106,0.379-0.25,0.464-0.432c0.085-0.181,0.129-0.629,0.129-1.344&#13;&#10;&#9;&#9;s-0.112-1.664-0.337-2.848c-0.224-1.184-0.453-2.032-0.688-2.545c-0.235-0.512-0.353-0.836-0.353-0.976&#13;&#10;&#9;&#9;c0-0.138,0.032-0.208,0.097-0.208c0.106,0,0.395,0.283,0.864,0.848c0.469,0.566,1.013,1.366,1.632,2.4&#13;&#10;&#9;&#9;c0.618,1.035,1.04,2.037,1.264,3.008S29.67,24.205,29.67,25.229z M8.742,18.861c0.17,0,0.698-0.357,1.584-1.072&#13;&#10;&#9;&#9;c0.885-0.715,1.515-1.328,1.888-1.84s0.561-0.875,0.561-1.088s-0.294-0.773-0.881-1.68c-0.587-0.906-0.96-1.44-1.119-1.6&#13;&#10;&#9;&#9;c-0.16-0.16-0.294-0.24-0.4-0.24c-0.107,0-0.165,0.171-0.176,0.512c-0.011,0.342-0.097,0.848-0.256,1.52&#13;&#10;&#9;&#9;c-0.16,0.672-0.518,1.776-1.072,3.312c-0.235,0.683-0.353,1.291-0.353,1.824C8.518,18.744,8.593,18.861,8.742,18.861z" stroke-width="1"/>
    </g>
    <g/>
    <g/>
    <g/>
    <g/>
    <g/>
    <g/>
    <g/>
    <g/>
    <g/>
    <g/>
    <g/>
    <g/>
    <g/>
    <g/>
    <g/>
  </g>
</svg>