<svg xmlns="http://www.w3.org/2000/svg" xmlns:xlink="http://www.w3.org/1999/xlink" version="1.1" id="图层_1" x="0px" y="0px" width="27.206998825073242" height="28.77199935913086" viewBox="-0.6359989643096924 0.47999852895736694 27.206998825073242 28.77199935913086" enable-background="new 0 0 30 30" xml:space="preserve">
<g>
	<path fill="#0000FF" d="M20.823,7.09c0,0.32-0.064,0.534-0.192,0.64c-0.128,0.107-0.448,0.192-0.96,0.256   c-1.408,0.192-2.565,0.518-3.472,0.976c-0.907,0.459-1.937,0.837-3.088,1.136c-0.171,0.043-0.305,0.096-0.4,0.16   c-0.096,0.064-0.187,0.16-0.271,0.288l-1.248,2.112c-0.428,0.747-0.801,1.349-1.12,1.808c-0.32,0.459-0.544,0.912-0.672,1.36   c-0.129,0.448-0.229,1.041-0.305,1.776s-0.133,1.883-0.176,3.44c-0.043,1.557-0.107,2.613-0.192,3.168s-0.128,1.119-0.128,1.695   s0.043,1.003,0.128,1.279c0.085,0.277,0.129,0.48,0.129,0.609c0,0.34-0.14,0.586-0.416,0.736c-0.278,0.148-0.518,0.223-0.721,0.223   s-0.347-0.053-0.432-0.16c-0.086-0.105-0.123-0.309-0.112-0.607s0.017-0.502,0.017-0.607c0-0.363-0.021-1.109-0.064-2.24   s-0.064-2.027-0.064-2.688v-1.889c0-1.301-0.149-1.952-0.448-1.952c-0.107,0-0.283,0.08-0.528,0.24   c-0.246,0.16-0.459,0.485-0.64,0.976c-0.181,0.491-0.272,0.896-0.272,1.217l0.032,0.384c0,0.341-0.192,0.651-0.576,0.928   c-0.384,0.277-0.992,0.656-1.824,1.136c-0.832,0.48-1.611,0.721-2.336,0.721c-0.406,0-0.608-0.102-0.608-0.305   c0-0.202,0.101-0.421,0.304-0.656c0.203-0.234,0.768-0.783,1.696-1.647c0.928-0.864,1.728-1.69,2.4-2.479   c0.672-0.789,1.157-1.397,1.456-1.824c0.469-0.704,0.992-1.371,1.568-2c0.576-0.629,1.023-1.264,1.344-1.904l0.864-1.76   c0.277-0.533,0.416-0.858,0.416-0.976s-0.182-0.176-0.544-0.176c-0.363,0-0.641,0.038-0.832,0.112   c-0.192,0.075-0.353,0.112-0.48,0.112c-0.277,0-0.438-0.16-0.479-0.48c-0.043-0.32-0.14-0.8-0.288-1.44   c-0.149-0.64-0.224-1.066-0.224-1.28c0-0.512,0.245-0.746,0.736-0.704c0.747,0.064,1.408,0.096,1.984,0.096   c1.066,0,1.771-0.074,2.111-0.224c0.342-0.149,0.779-0.885,1.313-2.208c0.32-1.13,0.624-1.994,0.912-2.592   c0.288-0.597,0.586-0.896,0.896-0.896s0.561,0.059,0.752,0.176c0.192,0.118,0.288,0.272,0.288,0.464s-0.043,0.395-0.128,0.608   c-0.832,1.92-1.248,3.062-1.248,3.424c0,0.128,0.043,0.192,0.128,0.192s0.182-0.021,0.288-0.064   c0.747-0.234,1.616-0.442,2.608-0.624c0.992-0.181,1.573-0.272,1.744-0.272c0.17,0,0.298,0.08,0.384,0.24   c0.085,0.16,0.224,0.326,0.416,0.496c0.192,0.171,0.336,0.395,0.432,0.672C20.775,6.568,20.823,6.834,20.823,7.09z M26.071,25.362   c0,0.171-0.038,0.373-0.112,0.608c-0.075,0.234-0.203,0.352-0.384,0.352c-0.182,0-0.405-0.059-0.672-0.176   c-0.268-0.117-1.18-0.277-2.736-0.48c-1.558-0.203-2.907-0.304-4.048-0.304c-1.142,0-2.342,0.101-3.601,0.304   s-2.079,0.379-2.464,0.528c-0.384,0.149-0.683,0.31-0.896,0.479c-0.214,0.172-0.374,0.257-0.48,0.257   c-0.319,0-0.479-0.534-0.479-1.601c0-0.319,0.063-0.479,0.191-0.479h0.673c0.896,0,1.717-0.16,2.464-0.479   c0.447-0.192,0.762-0.32,0.943-0.385s0.31-0.16,0.385-0.287c0.074-0.129,0.186-0.598,0.336-1.408   c0.148-0.811,0.224-1.328,0.224-1.553c0-0.224-0.16-0.336-0.48-0.336c-0.725,0-1.387,0.192-1.983,0.576   c-0.086,0.043-0.182,0.064-0.288,0.064c-0.107,0-0.203-0.032-0.288-0.097c-0.086-0.063-0.182-0.245-0.288-0.544l-0.416-1.184   c-0.149-0.49-0.224-0.821-0.224-0.992c0-0.17,0.048-0.277,0.144-0.32c0.096-0.042,0.304-0.064,0.624-0.064s0.843-0.068,1.568-0.207   c0.725-0.139,1.221-0.256,1.487-0.352c0.267-0.097,0.427-0.209,0.48-0.337c0.053-0.128,0.112-0.532,0.176-1.216l0.192-2.592   c0.042-0.555,0.112-0.955,0.208-1.2c0.096-0.245,0.24-0.368,0.432-0.368c0.192,0,0.65,0.102,1.376,0.304   c0.726,0.203,1.168,0.347,1.328,0.432c0.16,0.085,0.24,0.224,0.24,0.416s-0.091,0.635-0.272,1.328   c-0.182,0.694-0.271,1.318-0.271,1.872c0,0.257,0.074,0.385,0.224,0.385s0.475-0.053,0.977-0.16c0.501-0.106,0.848-0.16,1.04-0.16   c0.426,0,0.64,0.438,0.64,1.313c0,0.342-0.107,0.598-0.32,0.768c-0.213,0.171-0.981,0.587-2.304,1.248   c-0.256,0.128-0.416,0.271-0.48,0.432c-0.063,0.16-0.096,0.47-0.096,0.928c0,0.459,0.026,0.774,0.08,0.945   c0.053,0.17,0.117,0.453,0.192,0.848c0.074,0.395,0.154,0.619,0.239,0.672s0.314,0.091,0.688,0.111   c0.373,0.021,0.874,0.08,1.504,0.177c0.629,0.096,1.179,0.144,1.648,0.144l1.535-0.096c0.277,0,0.501,0.043,0.673,0.128   c0.17,0.085,0.324,0.353,0.464,0.8C26.002,24.851,26.071,25.17,26.071,25.362z" stroke-width="1"/>
</g>
</svg>