<svg xmlns="http://www.w3.org/2000/svg" xmlns:xlink="http://www.w3.org/1999/xlink" version="1.1" id="图层_1" x="0px" y="0px" width="23.784000396728516" height="26.34300422668457" viewBox="1.4429997205734253 2.816998243331909 23.784000396728516 26.34300422668457" enable-background="new 0 0 30 30" xml:space="preserve">
<g>
	<path fill="#0000FF" d="M12.407,10.451c0,0.171-0.203,0.518-0.608,1.04c-0.405,0.523-0.683,0.933-0.832,1.232   s-0.224,0.672-0.224,1.12l0.032,0.96c0,0.32-0.086,0.533-0.257,0.64s-0.603,0.182-1.296,0.224c-0.693,0.043-1.274,0.123-1.744,0.24   c-0.469,0.117-0.891,0.277-1.264,0.48C5.841,16.59,5.58,16.69,5.431,16.69c-0.384,0-0.886-0.405-1.504-1.216   s-1.104-1.685-1.456-2.624c-0.352-0.938-0.528-1.541-0.528-1.808c0-0.267,0.08-0.453,0.24-0.56c0.16-0.106,0.603-0.24,1.328-0.4   c0.725-0.16,1.418-0.368,2.08-0.624c1.152-0.448,2.182-0.672,3.088-0.672c0.907,0,1.755,0.208,2.544,0.624   S12.407,10.173,12.407,10.451z M6.071,13.875c0.427,0,0.901-0.181,1.424-0.544c0.522-0.362,0.784-1.013,0.784-1.952   c0-0.704-0.203-1.056-0.608-1.056c-0.192,0-0.582,0.107-1.168,0.32c-0.587,0.213-0.949,0.416-1.088,0.608   c-0.139,0.192-0.208,0.427-0.208,0.704c0,0.277,0.053,0.667,0.16,1.168C5.474,13.624,5.708,13.875,6.071,13.875z M24.727,12.659   c0,0.427-0.074,0.64-0.224,0.64s-0.384-0.042-0.704-0.128c-0.32-0.085-0.763-0.128-1.328-0.128s-1.099,0.064-1.6,0.192   c-0.502,0.128-0.8,0.246-0.896,0.352c-0.096,0.107-0.154,0.299-0.176,0.576c-0.085,1.088-0.197,2.064-0.336,2.927   c-0.139,0.865-0.208,1.58-0.208,2.145c0,0.565,0.011,1.014,0.032,1.344c0.021,0.332,0.032,0.769,0.032,1.313   s-0.032,1.189-0.097,1.936c-0.063,0.747-0.096,1.771-0.096,3.072c0,0.725-0.091,1.199-0.271,1.424   c-0.182,0.225-0.604,0.336-1.265,0.336c-0.342,0-0.512-0.068-0.512-0.207c0-0.141,0.053-0.316,0.16-0.529   c0.148-0.342,0.224-1.039,0.224-2.096c0-1.056-0.069-2.677-0.208-4.863c-0.139-2.188-0.219-4.219-0.24-6.096   c0-0.277-0.026-0.464-0.08-0.56c-0.053-0.096-0.224-0.144-0.512-0.144s-0.64,0.069-1.056,0.208s-0.747,0.299-0.992,0.48   c-0.245,0.182-0.432,0.272-0.56,0.272c-0.129,0-0.257-0.096-0.385-0.288c-0.384-0.512-0.683-0.875-0.896-1.088   c-0.214-0.213-0.32-0.4-0.32-0.56s0.064-0.277,0.192-0.352c0.128-0.074,0.282-0.101,0.464-0.08   c0.181,0.021,0.378,0.032,0.592,0.032c0.213,0,0.587-0.075,1.12-0.224l1.536-0.384c0.469-0.128,0.736-0.224,0.8-0.288   c0.064-0.064,0.096-0.224,0.096-0.48c0.043-2.133,0.106-3.546,0.192-4.24c0.085-0.693,0.128-1.328,0.128-1.904l-0.064-1.344   c0-0.405,0.182-0.608,0.545-0.608c0.362,0,0.933,0.085,1.712,0.256c0.778,0.171,1.168,0.342,1.168,0.512   c0,0.171-0.086,0.374-0.256,0.608c-0.172,0.235-0.315,0.646-0.433,1.232c-0.117,0.587-0.176,1.115-0.176,1.584   c0,0.47,0.021,0.854,0.063,1.152s0.064,0.971,0.064,2.016c0,0.32,0.064,0.48,0.192,0.48s0.33-0.026,0.607-0.08   s0.683-0.112,1.216-0.176s0.891-0.117,1.072-0.16c0.181-0.042,0.347-0.064,0.496-0.064s0.282,0.064,0.4,0.192   c0.116,0.128,0.276,0.395,0.479,0.8C24.626,12.072,24.727,12.402,24.727,12.659z" stroke-width="1"/>
</g>
</svg>