<svg xmlns="http://www.w3.org/2000/svg" xmlns:xlink="http://www.w3.org/1999/xlink" version="1.1" id="图层_1" x="0px" y="0px" width="23.591999053955078" height="26.183996200561523" viewBox="2.882999897003174 2.0000033378601074 23.591999053955078 26.183996200561523" enable-background="new 0 0 30 30" xml:space="preserve">
<g>
	<path fill="#0000FF" d="M13.688,8.931c0.362,0,0.602,0.229,0.72,0.688c0.117,0.459,0.24,0.832,0.368,1.12   c0.128,0.288,0.191,0.523,0.191,0.704c0,0.182-0.063,0.326-0.191,0.432c-0.128,0.107-0.31,0.16-0.544,0.16l-0.641-0.032   c-0.64,0-1.253,0.054-1.84,0.16c-0.587,0.107-0.923,0.224-1.008,0.352c-0.086,0.128-0.149,0.374-0.192,0.736l-0.16,1.088   c0,0.171,0.16,0.267,0.48,0.288c0.661,0.064,1.445,0.283,2.352,0.656c0.907,0.373,1.36,0.763,1.36,1.168   c0,0.149-0.064,0.299-0.192,0.447c-0.575,0.748-1.019,1.36-1.327,1.84c-0.31,0.48-0.491,0.812-0.545,0.992   c-0.053,0.182-0.079,0.449-0.079,0.801s-0.129,0.527-0.385,0.527c-0.447,0.021-1.199,0.145-2.256,0.368   c-1.056,0.224-1.686,0.396-1.888,0.513c-0.203,0.117-0.379,0.176-0.528,0.176s-0.421-0.251-0.816-0.752   c-0.395-0.502-0.875-1.275-1.44-2.32c-0.565-1.045-0.848-1.712-0.848-2s0.256-0.506,0.768-0.656   c0.512-0.148,1.056-0.341,1.632-0.576c0.576-0.234,0.917-0.41,1.024-0.527c0.106-0.117,0.187-0.389,0.24-0.816   c0.053-0.426,0.08-0.762,0.08-1.008c0-0.245-0.102-0.368-0.304-0.368c-0.203,0-0.598,0.112-1.184,0.336   c-0.587,0.224-0.96,0.438-1.12,0.64c-0.16,0.203-0.374,0.304-0.64,0.304c-0.267,0-0.485-0.234-0.656-0.704   c-0.085-0.213-0.229-0.533-0.432-0.96c-0.203-0.427-0.304-0.784-0.304-1.072c0-0.288,0.235-0.453,0.704-0.496   c0.747-0.064,1.643-0.24,2.688-0.528c1.045-0.288,1.616-0.464,1.712-0.528c0.096-0.064,0.165-0.234,0.208-0.512   c0.213-1.28,0.475-2.586,0.784-3.92c0.309-1.333,0.464-2.192,0.464-2.576c0-0.384,0.224-0.576,0.672-0.576   c0.298,0,0.8,0.123,1.504,0.368s1.056,0.469,1.056,0.672c0,0.203-0.117,0.347-0.352,0.432c-0.235,0.085-0.438,0.363-0.608,0.832   s-0.379,1.28-0.624,2.432c-0.245,1.152-0.368,1.798-0.368,1.936c0,0.139,0.069,0.208,0.208,0.208s0.73-0.128,1.776-0.384   C13.4,8.953,13.56,8.931,13.688,8.931z M8.088,19.459c0.213,0,0.65-0.111,1.313-0.336c0.66-0.225,1.066-0.586,1.216-1.088   c0.148-0.501,0.224-0.837,0.224-1.008c0-0.448-0.224-0.672-0.672-0.672s-1.046,0.176-1.792,0.527   c-0.747,0.352-1.12,0.773-1.12,1.264c0,0.235,0.064,0.513,0.192,0.832C7.576,19.299,7.789,19.459,8.088,19.459z M22.712,3.459   c0.576,0,1.264,0.198,2.064,0.592c0.8,0.395,1.199,0.752,1.199,1.072c0,0.149-0.139,0.374-0.416,0.672   c-0.171,0.213-0.319,1.531-0.447,3.952c-0.128,2.421-0.192,4.053-0.192,4.896s0.053,2.384,0.16,4.625   c0.106,2.239,0.16,3.755,0.16,4.543c0,0.789,0.074,1.515,0.224,2.177c0.149,0.661,0.225,1.108,0.225,1.344   c0,0.234-0.14,0.352-0.416,0.352c-0.534,0-1.633-0.475-3.297-1.424s-2.8-1.707-3.407-2.271c-0.608-0.565-0.912-0.934-0.912-1.104   c0-0.043,0.037-0.064,0.111-0.064c0.075,0,0.229,0.043,0.465,0.129c1.557,0.555,2.575,0.832,3.056,0.832   c0.479,0,0.805-0.106,0.976-0.32c0.171-0.213,0.256-0.512,0.256-0.896c0-0.383-0.011-2.016-0.031-4.896l-0.032-10.08   c0-1.429-0.512-2.144-1.536-2.144c-0.363,0-0.806,0.107-1.328,0.32s-0.821,0.613-0.896,1.2c-0.075,0.587-0.112,1.078-0.112,1.472   c0,0.395,0.048,0.592,0.144,0.592c0.097,0,0.267-0.032,0.513-0.096c0.245-0.064,0.538-0.096,0.88-0.096   c0.746,0,1.12,0.267,1.12,0.8c0,0.342-0.225,0.715-0.672,1.12c-0.448,0.406-1.088,0.875-1.92,1.408   c-0.235,0.149-0.385,0.384-0.448,0.704l-0.192,1.088c0,0.192,0.069,0.288,0.208,0.288s0.405-0.085,0.8-0.256   c0.395-0.17,0.773-0.256,1.137-0.256c0.362,0,0.624,0.091,0.783,0.272c0.16,0.182,0.24,0.357,0.24,0.528   c0,0.342-0.262,0.752-0.784,1.233c-0.522,0.479-1.056,0.795-1.6,0.943c-0.544,0.149-0.997,0.348-1.36,0.592   c-0.362,0.246-0.575,0.508-0.64,0.784c-0.021,0.043-0.054,0.128-0.096,0.256c-0.641,1.388-0.96,2.368-0.96,2.944   c0,0.191,0.031,0.363,0.096,0.512c0.064,0.149,0.096,0.305,0.096,0.464c0,0.16-0.085,0.358-0.256,0.593s-0.635,0.709-1.392,1.424   c-0.758,0.714-1.408,1.199-1.952,1.456c-0.544,0.256-1.136,0.384-1.776,0.384c-0.191,0-0.288-0.048-0.288-0.145   c0-0.096,0.16-0.325,0.48-0.688c1.045-1.152,2.059-2.4,3.04-3.744c0.319-0.427,0.613-1.029,0.88-1.809   c0.267-0.777,0.544-1.723,0.832-2.832c0.288-1.108,0.528-2.148,0.72-3.12c0.192-0.97,0.288-1.771,0.288-2.4   c0-0.629,0.059-1.349,0.176-2.16s0.165-1.675,0.145-2.592V5.763c0-0.363,0.016-0.619,0.048-0.768   c0.032-0.149,0.091-0.234,0.176-0.256c0.085-0.021,0.181-0.032,0.288-0.032c0.234,0,0.597-0.128,1.088-0.384l1.824-0.448   C21.421,3.598,22.242,3.459,22.712,3.459z" stroke-width="1"/>
</g>
</svg>