<svg xmlns="http://www.w3.org/2000/svg" xmlns:xlink="http://www.w3.org/1999/xlink" version="1.1" id="图层_1" x="0px" y="0px" width="24.553998947143555" height="23.783998489379883" viewBox="2.3200020790100098 3.7049999237060547 24.553998947143555 23.783998489379883" style="enable-background:new 0 0 30 30;" xml:space="preserve">
  <g>
    <g>
      <path style="fill:#0000FF;" d="M10.662,10.668c0.256,0,0.4,0.139,0.432,0.416c0.032,0.278,0.069,0.475,0.112,0.592&#13;&#10;&#9;&#9;c0.042,0.118,0.064,0.246,0.064,0.384c0,0.139-0.032,0.283-0.097,0.432c-0.063,0.149-0.283,0.4-0.656,0.752&#13;&#10;&#9;&#9;s-0.655,0.603-0.848,0.752c-0.192,0.149-0.314,0.31-0.368,0.48c-0.054,0.171-0.08,0.454-0.08,0.848c0,0.395,0.026,0.651,0.08,0.768&#13;&#10;&#9;&#9;s0.145,0.176,0.272,0.176s0.395-0.074,0.8-0.224s0.677-0.224,0.816-0.224c0.138,0,0.208,0.032,0.208,0.096s-0.134,0.23-0.4,0.496&#13;&#10;&#9;&#9;c-0.267,0.268-0.523,0.625-0.768,1.072c-0.246,0.448-0.55,0.848-0.912,1.2c-0.363,0.353-0.977,0.815-1.841,1.392&#13;&#10;&#9;&#9;c-0.863,0.576-1.472,1.029-1.824,1.36c-0.352,0.331-0.624,0.741-0.816,1.231c-0.107,0.236-0.251,0.353-0.432,0.353&#13;&#10;&#9;&#9;c-0.182,0-0.491-0.245-0.928-0.735c-0.438-0.49-0.656-0.811-0.656-0.961c0-0.148,0.117-0.298,0.352-0.447s0.608-0.453,1.12-0.912&#13;&#10;&#9;&#9;c0.512-0.459,1.301-1.051,2.368-1.776c0.171-0.128,0.277-0.245,0.32-0.352c0.042-0.106,0.063-0.353,0.063-0.736v-1.088&#13;&#10;&#9;&#9;c0-0.384-0.171-0.576-0.512-0.576c-0.149,0-0.433,0.048-0.848,0.144c-0.416,0.096-0.709,0.192-0.88,0.288&#13;&#10;&#9;&#9;c-0.171,0.096-0.352,0.144-0.544,0.144c-0.192,0-0.32-0.117-0.384-0.352c-0.171-0.64-0.374-1.178-0.608-1.616&#13;&#10;&#9;&#9;c-0.235-0.437-0.352-0.72-0.352-0.848c0-0.298,0.181-0.448,0.544-0.448c0.469,0,1.093-0.09,1.872-0.272&#13;&#10;&#9;&#9;c0.778-0.181,1.269-0.352,1.472-0.512c0.203-0.16,0.314-0.432,0.336-0.816C7.206,9.976,7.297,8.68,7.414,7.261&#13;&#10;&#9;&#9;c0.117-1.418,0.187-2.224,0.208-2.416C7.643,4.653,7.713,4.498,7.83,4.381s0.314-0.176,0.592-0.176s0.603,0.054,0.977,0.16&#13;&#10;&#9;&#9;c0.373,0.107,0.56,0.24,0.56,0.4S9.883,5.069,9.734,5.197c-0.342,0.341-0.513,2.059-0.513,5.152c0,0.363,0.059,0.544,0.177,0.544&#13;&#10;&#9;&#9;c0.116,0,0.309-0.037,0.575-0.112S10.47,10.668,10.662,10.668z M26.374,13.805c0,0.149-0.075,0.341-0.224,0.576&#13;&#10;&#9;&#9;c-0.342,0.512-0.576,1.067-0.704,1.664c-0.277,1.535-0.523,2.619-0.736,3.248c-0.214,0.629-0.678,1.621-1.392,2.976&#13;&#10;&#9;&#9;c-0.716,1.354-1.228,2.245-1.536,2.673c-0.31,0.426-0.539,0.874-0.688,1.344c-0.149,0.469-0.395,0.703-0.735,0.703&#13;&#10;&#9;&#9;c-0.342,0-1.052-0.293-2.128-0.879c-1.078-0.588-2.097-1.404-3.057-2.449c-0.191-0.191-0.347-0.287-0.464-0.287&#13;&#10;&#9;&#9;s-0.251,0.031-0.4,0.096c-0.597,0.256-1.083,0.384-1.455,0.384c-0.374,0-0.561-0.091-0.561-0.272c0-0.18,0.299-0.521,0.896-1.023&#13;&#10;&#9;&#9;c0.597-0.501,1.333-1.253,2.208-2.256c0.874-1.002,1.572-1.931,2.096-2.784c0.522-0.853,0.858-1.482,1.008-1.888&#13;&#10;&#9;&#9;s0.224-0.875,0.224-1.408c0-0.298-0.149-0.448-0.447-0.448c-0.491,0-0.864,0.288-1.12,0.864c-0.726,1.643-1.67,3.062-2.832,4.256&#13;&#10;&#9;&#9;c-1.163,1.195-2.096,1.792-2.8,1.792c-0.491,0-0.736-0.096-0.736-0.288c0-0.085,0.064-0.17,0.192-0.256&#13;&#10;&#9;&#9;c0.404-0.341,1.008-1.013,1.808-2.016s1.344-1.738,1.632-2.208c0.288-0.469,0.433-0.896,0.433-1.28c0-0.149-0.054-0.224-0.16-0.224&#13;&#10;&#9;&#9;c-0.107,0-0.385,0.123-0.832,0.368c-0.448,0.246-0.88,0.368-1.296,0.368s-0.624-0.128-0.624-0.384c0-0.362,0.213-0.704,0.64-1.024&#13;&#10;&#9;&#9;c2.112-1.728,3.168-3.04,3.168-3.936c0-0.213-0.117-0.362-0.352-0.448c-0.235-0.085-0.433-0.128-0.593-0.128&#13;&#10;&#9;&#9;c-0.159,0-0.319,0.038-0.479,0.112s-0.272,0.112-0.336,0.112c-0.192,0-0.39-0.32-0.592-0.96c-0.203-0.64-0.305-1.077-0.305-1.312&#13;&#10;&#9;&#9;c0-0.426,0.197-0.65,0.592-0.672c0.395-0.021,0.854-0.101,1.377-0.24c0.522-0.138,1.082-0.261,1.68-0.368&#13;&#10;&#9;&#9;c0.597-0.106,1.242-0.261,1.936-0.464c0.693-0.202,1.185-0.373,1.473-0.512s0.538-0.208,0.752-0.208&#13;&#10;&#9;&#9;c0.384,0,0.832,0.357,1.344,1.072c0.512,0.715,0.768,1.195,0.768,1.44c0,0.246-0.048,0.422-0.144,0.528&#13;&#10;&#9;&#9;c-0.096,0.107-0.224,0.166-0.384,0.176c-0.16,0.011-0.348,0.016-0.561,0.016s-0.539,0.043-0.976,0.128&#13;&#10;&#9;&#9;c-0.438,0.085-0.715,0.176-0.832,0.272c-0.117,0.096-0.268,0.203-0.448,0.32c-0.182,0.118-0.352,0.272-0.512,0.464&#13;&#10;&#9;&#9;s-0.272,0.363-0.336,0.512c-0.235,0.576-0.715,1.28-1.44,2.112c-0.128,0.128-0.191,0.256-0.191,0.384s0.138,0.192,0.416,0.192&#13;&#10;&#9;&#9;c0.276,0,0.74-0.058,1.392-0.176c0.65-0.117,1.515-0.176,2.592-0.176s2.145,0.214,3.2,0.64&#13;&#10;&#9;&#9;C25.846,13.048,26.374,13.442,26.374,13.805z M18.886,24.109c0.448,0,0.821-0.113,1.12-0.337s0.736-0.89,1.313-2&#13;&#10;&#9;&#9;c0.575-1.108,0.97-2.133,1.184-3.071c0.213-0.939,0.32-2.017,0.32-3.232s-0.331-1.824-0.992-1.824c-0.32,0-0.512,0.15-0.576,0.448&#13;&#10;&#9;&#9;c-0.256,1.003-0.661,1.877-1.216,2.624c-0.555,0.747-0.96,1.376-1.216,1.888c-0.256,0.513-0.396,0.912-0.416,1.2&#13;&#10;&#9;&#9;c-0.021,0.288-0.176,0.587-0.464,0.896c-0.288,0.309-1.052,0.955-2.288,1.936c-0.171,0.107-0.256,0.234-0.256,0.384&#13;&#10;&#9;&#9;c0,0.278,0.437,0.528,1.312,0.752S18.31,24.109,18.886,24.109z" stroke-width="1"/>
    </g>
    <g/>
    <g/>
    <g/>
    <g/>
    <g/>
    <g/>
    <g/>
    <g/>
    <g/>
    <g/>
    <g/>
    <g/>
    <g/>
    <g/>
    <g/>
  </g>
</svg>