<svg xmlns="http://www.w3.org/2000/svg" xmlns:xlink="http://www.w3.org/1999/xlink" version="1.1" id="图层_1" x="0px" y="0px" width="29.03399658203125" height="30.348007202148438" viewBox="1.2810006141662598 -0.1950017809867859 29.03399658203125 30.348007202148438" enable-background="new 0 0 30 30" xml:space="preserve">
<g>
	<path fill="#0000FF" d="M13.271,18.035c0.299-0.064,0.448-0.277,0.448-0.641c0-0.362-0.026-0.576-0.08-0.641   c-0.053-0.063-0.197-0.096-0.432-0.096c-0.235,0-0.56,0.043-0.976,0.129c-0.416,0.085-0.71,0.176-0.881,0.271   s-0.352,0.145-0.544,0.145c-0.191,0-0.379-0.134-0.56-0.4c-0.182-0.267-0.374-0.496-0.576-0.688   c-0.203-0.193-0.347-0.299-0.432-0.32c-0.171,0-0.576,0.347-1.216,1.039c-0.641,0.693-1.078,1.5-1.313,2.416   c-0.085,0.256-0.283,0.476-0.592,0.656c-0.31,0.182-0.832,0.357-1.568,0.528c-0.736,0.171-1.381,0.256-1.936,0.256   c-0.555,0-0.832-0.101-0.832-0.304s0.875-0.784,2.624-1.744c0.746-0.385,1.712-1.285,2.896-2.704   c1.185-1.418,1.941-2.549,2.272-3.392c0.33-0.842,0.496-1.36,0.496-1.552s-0.091-0.288-0.272-0.288s-0.603,0.133-1.264,0.4   c-0.662,0.267-1.28,0.491-1.856,0.672c-0.576,0.182-0.95,0.272-1.12,0.272c-0.171,0-0.342-0.154-0.512-0.464   c-0.171-0.309-0.256-0.539-0.256-0.688c0-0.149,0.128-0.256,0.384-0.32c0.768-0.17,1.621-0.448,2.561-0.832   c0.938-0.384,1.834-0.693,2.688-0.928l2.848-1.152c1.259-0.512,1.969-0.805,2.129-0.88c0.159-0.075,0.298-0.17,0.416-0.288   c0.116-0.117,0.49-0.709,1.119-1.776c0.63-1.066,1.051-1.861,1.265-2.384c0.213-0.522,0.347-0.992,0.399-1.408   c0.054-0.416,0.208-0.624,0.465-0.624c0.17,0,0.33,0.064,0.479,0.192l0.928,0.768c0.491,0.384,0.773,0.646,0.849,0.784   c0.074,0.139,0.111,0.288,0.111,0.448s-0.074,0.315-0.224,0.464l-0.864,0.928c-1.279,1.323-1.92,2.053-1.92,2.192   c0,0.139,0.085,0.208,0.256,0.208c1.387,0,2.4-0.139,3.04-0.416c0.149-0.042,0.277-0.064,0.384-0.064   c0.107,0,0.208,0.069,0.305,0.208c0.096,0.139,0.276,0.454,0.544,0.944c0.267,0.491,0.399,0.848,0.399,1.072   c0,0.224-0.091,0.421-0.271,0.592c-0.182,0.171-0.336,0.256-0.464,0.256s-0.246-0.01-0.353-0.032   c-0.106-0.021-0.299-0.032-0.576-0.032s-0.811,0.059-1.6,0.176s-1.227,0.192-1.312,0.224c-0.086,0.032-0.128,0.139-0.128,0.32   c0,0.182,0.266,0.603,0.8,1.264c0.533,0.661,0.954,1.109,1.264,1.344c0.309,0.235,0.891,0.779,1.744,1.632   c0.853,0.854,1.818,1.472,2.896,1.856c1.077,0.384,2.037,0.768,2.881,1.152c0.842,0.383,1.316,0.635,1.424,0.752   c0.106,0.117,0.16,0.245,0.16,0.383c0,0.14-0.049,0.257-0.145,0.353c-0.096,0.097-0.331,0.198-0.704,0.304   c-0.373,0.107-0.821,0.16-1.344,0.16c-0.523,0-1.147-0.09-1.872-0.271c-0.726-0.182-1.462-0.314-2.208-0.4   c-0.342-0.043-0.576-0.309-0.704-0.8c-0.277-1.024-0.592-1.776-0.944-2.256c-0.352-0.48-0.981-0.992-1.888-1.536   c-0.907-0.544-1.664-1.12-2.271-1.728c-0.608-0.608-1.067-1.008-1.376-1.2c-0.31-0.192-0.593-0.288-0.849-0.288   s-0.629,0.027-1.12,0.08c-0.49,0.054-0.837,0.144-1.04,0.272c-0.202,0.128-0.501,0.379-0.896,0.752   c-0.396,0.374-0.72,0.747-0.977,1.12c-0.256,0.374-0.495,0.795-0.72,1.264c-0.224,0.469-0.336,0.752-0.336,0.848   c0,0.096,0.145,0.144,0.433,0.144c0.287,0,0.725-0.101,1.312-0.304c0.587-0.203,0.965-0.325,1.136-0.368   c0.171-0.042,0.288-0.123,0.353-0.24c0.063-0.117,0.096-0.432,0.096-0.944c0-0.512-0.016-0.821-0.048-0.928   c-0.032-0.106-0.048-0.213-0.048-0.32c0-0.106,0.053-0.192,0.16-0.256c0.106-0.064,0.395-0.096,0.863-0.096   c0.47,0,0.891,0.043,1.265,0.128c0.373,0.085,0.522,0.272,0.447,0.56c-0.074,0.288-0.111,0.549-0.111,0.784   c0,0.235,0.096,0.352,0.288,0.352c0.512-0.064,0.811-0.096,0.896-0.096c0.341,0,0.522,0.139,0.544,0.416l0.16,1.184   c0,0.256-0.128,0.422-0.384,0.496c-0.256,0.075-0.539,0.203-0.849,0.384c-0.309,0.181-0.485,0.315-0.527,0.4   c-0.043,0.086-0.064,0.299-0.064,0.641c0,0.341,0.053,0.512,0.16,0.512c0.106,0,0.288-0.037,0.544-0.112s0.438-0.122,0.544-0.144   c1.131-0.192,1.92-0.373,2.368-0.545c0.106-0.042,0.192-0.063,0.256-0.063c0.213,0,0.438,0.325,0.672,0.976   c0.234,0.651,0.353,1.131,0.353,1.44s-0.102,0.464-0.305,0.464c-0.202,0-0.427-0.021-0.672-0.064   c-0.245-0.042-0.592-0.063-1.04-0.063c-0.447,0-1.051,0.085-1.808,0.256c-0.758,0.171-1.152,0.379-1.184,0.624   c-0.032,0.246-0.08,0.779-0.145,1.6c-0.063,0.822-0.155,1.633-0.271,2.432c-0.118,0.801-0.208,1.648-0.272,2.545   s-0.096,1.525-0.096,1.889l0.031,0.799c0,0.32-0.096,0.496-0.287,0.527c-0.192,0.033-0.374,0.049-0.544,0.049   c-0.385,0-0.576-0.25-0.576-0.752S14.039,27,13.975,24.707c-0.063-2.293-0.117-3.558-0.159-3.793   c-0.043-0.234-0.129-0.399-0.257-0.496c-0.128-0.096-0.319-0.122-0.575-0.08c-0.257,0.043-0.544,0.086-0.864,0.129   c-1.387,0.171-2.476,0.479-3.264,0.928c-0.15,0.086-0.294,0.128-0.433,0.128s-0.304-0.239-0.496-0.72   c-0.191-0.48-0.288-0.826-0.288-1.04s0.16-0.32,0.48-0.32c0.49,0,1.408-0.213,2.752-0.64L13.271,18.035z M12.823,6.931   c0,0.149-0.064,0.368-0.192,0.656s-0.342,0.432-0.64,0.432c-0.556,0-1.408-0.234-2.561-0.704C9.26,7.25,9.1,7.219,8.951,7.219   L8.567,7.283c-0.128,0-0.283-0.363-0.465-1.088c-0.181-0.725-0.271-1.258-0.271-1.6c0-0.704,0.171-1.056,0.512-1.056   c0.171,0,0.373,0.107,0.608,0.32c0.234,0.213,0.73,0.501,1.488,0.864c0.757,0.363,1.344,0.768,1.76,1.216   C12.615,6.387,12.823,6.717,12.823,6.931z M15.895,1.362c0.086-0.021,0.177-0.032,0.272-0.032s0.144,0.064,0.144,0.192   s-0.144,0.384-0.432,0.768s-0.522,0.773-0.704,1.168c-0.182,0.395-0.368,0.731-0.56,1.008c-0.192,0.278-0.384,0.416-0.576,0.416   s-0.315-0.064-0.368-0.192c-0.054-0.128-0.16-0.218-0.32-0.272c-0.159-0.053-0.304-0.197-0.432-0.432   c-0.128-0.234-0.262-0.469-0.4-0.704s-0.208-0.405-0.208-0.512c0-0.106,0.027-0.208,0.08-0.304   c0.054-0.096,0.102-0.154,0.145-0.176c0.042-0.021,0.197-0.032,0.464-0.032s0.698-0.106,1.296-0.32L15.895,1.362z" stroke-width="1"/>
</g>
</svg>