<svg xmlns="http://www.w3.org/2000/svg" xmlns:xlink="http://www.w3.org/1999/xlink" version="1.1" id="图层_1" x="0px" y="0px" width="27.177997589111328" height="26.760000228881836" viewBox="3.1370022296905518 1.1819995641708374 27.177997589111328 26.760000228881836" enable-background="new 0 0 30 30" xml:space="preserve">
<g>
	<path fill="#0000FF" d="M23.031,5.491c0.341,0,0.618,0.208,0.832,0.624c0.213,0.416,0.319,0.736,0.319,0.96   c0,0.224-0.282,0.357-0.848,0.4c-0.565,0.043-1.184,0.149-1.856,0.32c-0.672,0.171-1.071,0.293-1.199,0.368   s-0.192,0.176-0.192,0.304c0,0.299,0.224,0.699,0.672,1.2c0.448,0.501,0.672,0.944,0.672,1.328c0,0.384-0.191,0.576-0.575,0.576   c-0.385,0-0.881-0.122-1.488-0.368c-0.608-0.245-0.987-0.442-1.136-0.592c-0.15-0.149-0.268-0.49-0.353-1.024   c-0.063-0.384-0.214-0.576-0.448-0.576c-0.405,0-0.8,0.139-1.184,0.416c-0.896,0.661-1.59,0.992-2.08,0.992   c-0.149,0-0.224-0.074-0.224-0.224c0-0.149,0.288-0.554,0.863-1.216c0.085-0.106,0.128-0.203,0.128-0.288   c0-0.256-0.219-0.384-0.655-0.384c-0.438,0-0.981,0.133-1.632,0.4c-0.651,0.267-1.057,0.448-1.217,0.544s-0.239,0.213-0.239,0.352   c0,0.139,0.079,0.315,0.239,0.528c0.16,0.214,0.405,0.363,0.736,0.448c0.33,0.085,0.496,0.277,0.496,0.576   c0,0.299-0.251,0.539-0.752,0.72c-0.502,0.182-0.934,0.272-1.296,0.272c-0.363,0-0.63-0.106-0.8-0.32   c-0.172-0.213-0.315-0.501-0.433-0.864c-0.117-0.362-0.267-0.592-0.448-0.688c-0.181-0.096-0.352-0.144-0.512-0.144   s-0.379,0.107-0.656,0.32c-0.938,0.725-1.632,1.206-2.08,1.44c-0.448,0.235-0.901,0.352-1.36,0.352   c-0.459,0-0.688-0.112-0.688-0.336c0-0.224,0.208-0.507,0.624-0.848S5.207,10.2,5.847,9.506c0.64-0.693,1.296-1.754,1.968-3.184   c0.672-1.429,1.061-2.309,1.168-2.64c0.106-0.331,0.319-0.496,0.64-0.496c0.49,0,1.008,0.182,1.552,0.544   c0.544,0.363,0.816,0.651,0.816,0.864c0,0.107-0.149,0.245-0.448,0.416s-0.661,0.523-1.088,1.056c-0.427,0.534-0.64,0.88-0.64,1.04   s0.058,0.24,0.176,0.24c0.117,0,0.24-0.042,0.368-0.128c0.319-0.213,0.874-0.432,1.664-0.656c0.788-0.224,1.264-0.389,1.424-0.496   c0.16-0.106,0.304-0.16,0.432-0.16c0.299,0,0.747,0.544,1.344,1.632c0.106,0.213,0.213,0.32,0.32,0.32   c0.213,0,0.949-0.858,2.208-2.576s1.973-2.747,2.144-3.088c0.171-0.341,0.32-0.512,0.448-0.512s0.331,0.123,0.608,0.368   c0.276,0.246,0.533,0.432,0.768,0.56s0.353,0.256,0.353,0.384s-0.091,0.272-0.272,0.432c-0.182,0.16-0.485,0.507-0.912,1.04   C20.46,5,20.199,5.336,20.103,5.475c-0.096,0.139-0.144,0.267-0.144,0.384c0,0.118,0.08,0.176,0.24,0.176s0.479-0.042,0.96-0.128   c0.479-0.085,0.874-0.176,1.184-0.272C22.652,5.539,22.882,5.491,23.031,5.491z M15.543,17.971c0,0.149,0.085,0.384,0.256,0.703   c0.171,0.32,0.438,0.609,0.8,0.865c0.363,0.256,0.678,0.527,0.944,0.815s0.528,0.496,0.784,0.624   c0.853,0.448,1.536,0.901,2.048,1.359c0.512,0.459,1.061,0.807,1.648,1.041c0.586,0.234,1.717,0.613,3.392,1.136   s2.826,1.019,3.456,1.487c0.629,0.47,0.944,0.827,0.944,1.072c0,0.246-0.3,0.369-0.896,0.369c-0.598,0-1.382-0.033-2.352-0.098   c-0.972-0.063-1.691-0.143-2.16-0.238c-0.47-0.097-0.939-0.145-1.408-0.145c-0.47,0-0.811,0.021-1.024,0.063   c-0.213,0.042-0.379,0.063-0.496,0.063s-0.213-0.043-0.287-0.127c-0.075-0.086-0.155-0.268-0.24-0.545   c-0.256-0.703-0.604-1.279-1.04-1.728c-0.438-0.448-1.035-0.837-1.792-1.168c-0.758-0.331-1.467-0.869-2.128-1.616   c-0.363-0.404-0.79-0.682-1.28-0.832c-0.491-0.148-0.864-0.224-1.12-0.224s-0.491,0.14-0.704,0.416   c-0.619,0.79-1.151,1.365-1.6,1.728c-0.448,0.363-0.758,0.656-0.928,0.881c-0.171,0.224-0.326,0.517-0.465,0.879   c-0.139,0.363-0.325,0.641-0.56,0.832c-0.235,0.192-0.608,0.357-1.12,0.496s-1.088,0.209-1.728,0.209   c-0.64,0-1.216-0.064-1.728-0.192c-0.512-0.128-0.768-0.278-0.768-0.448c0-0.171,0.405-0.395,1.216-0.672   c0.811-0.277,1.472-0.561,1.984-0.848c0.512-0.289,1.279-0.881,2.304-1.776c1.023-0.896,1.712-1.632,2.063-2.208   c0.353-0.576,0.528-0.965,0.528-1.168s-0.208-0.305-0.624-0.305s-1.056,0.135-1.92,0.4c-0.864,0.268-1.424,0.512-1.68,0.736   s-0.47,0.336-0.641,0.336s-0.314-0.208-0.432-0.624c-0.118-0.416-0.251-0.747-0.4-0.991c-0.149-0.246-0.224-0.422-0.224-0.529   c0-0.105,0.048-0.181,0.144-0.224c0.096-0.042,0.192-0.058,0.288-0.048c0.096,0.012,0.187,0.016,0.272,0.016   c0.256,0,0.607-0.08,1.056-0.24c0.448-0.159,1.12-0.34,2.017-0.543c0.896-0.203,1.557-0.4,1.983-0.592   c0.427-0.192,0.693-0.379,0.8-0.561s0.16-0.501,0.16-0.96c0-0.458-0.128-0.688-0.384-0.688c-0.107,0-0.256,0.096-0.448,0.288   c-0.191,0.192-0.341,0.374-0.447,0.544c-0.107,0.171-0.257,0.283-0.448,0.336c-0.192,0.053-0.576,0.08-1.152,0.08   c-1.365,0-2.048-0.075-2.048-0.224c0-0.149,0.267-0.357,0.8-0.624c0.533-0.267,1.008-0.442,1.424-0.528   c0.416-0.085,0.73-0.224,0.944-0.416c0.448-0.363,1.509-0.875,3.184-1.536c1.675-0.661,2.63-0.992,2.864-0.992   c0.192,0,0.469,0.229,0.832,0.688c0.362,0.459,0.544,0.752,0.544,0.88s-0.24,0.192-0.72,0.192c-0.48,0-0.949,0.048-1.408,0.144   c-0.459,0.096-0.747,0.203-0.864,0.32c-0.117,0.118-0.213,0.31-0.288,0.576c-0.074,0.267-0.111,0.533-0.111,0.8   c0,0.267,0.074,0.4,0.224,0.4s0.299-0.021,0.448-0.064c1.002-0.277,1.898-0.416,2.688-0.416c0.448,0,0.763,0.075,0.944,0.224   c0.181,0.149,0.389,0.427,0.624,0.832c0.234,0.406,0.353,0.705,0.353,0.896s-0.086,0.31-0.257,0.352   c-0.171,0.043-0.347,0.06-0.527,0.049c-0.182-0.011-0.315-0.017-0.4-0.017c-0.661,0-1.445,0.102-2.352,0.304   C15.996,17.453,15.543,17.693,15.543,17.971z" stroke-width="1"/>
</g>
</svg>