<svg xmlns="http://www.w3.org/2000/svg" xmlns:xlink="http://www.w3.org/1999/xlink" version="1.1" id="图层_1" x="0px" y="0px" width="25.545997619628906" height="29.032001495361328" viewBox="1.6010043621063232 0.19000035524368286 25.545997619628906 29.032001495361328" enable-background="new 0 0 30 30" xml:space="preserve">
<g>
	<path fill="#0000FF" d="M25.207,19.475c0.362,0,0.597,0.086,0.704,0.256c0.106,0.171,0.256,0.523,0.448,1.057   c0.191,0.533,0.288,0.98,0.288,1.344s-0.14,0.543-0.416,0.543c-0.278,0-0.619-0.074-1.024-0.223   c-1.003-0.363-2.464-0.641-4.384-0.832c-1.92-0.192-3.1-0.289-3.536-0.289c-0.438,0-0.693,0.021-0.769,0.064   c-0.074,0.043-0.165,0.191-0.271,0.447c-0.107,0.257-0.235,0.496-0.384,0.721c-0.149,0.225-0.225,0.379-0.225,0.464   s0.171,0.224,0.513,0.416c0.341,0.192,1.21,0.47,2.607,0.832s2.288,0.565,2.672,0.608c0.385,0.042,0.646,0.164,0.784,0.367   s0.208,0.73,0.208,1.584c0,0.449-0.054,0.875-0.16,1.281c-0.106,0.404-0.245,0.607-0.416,0.607s-0.629-0.246-1.376-0.736   c-1.749-1.152-3.163-1.994-4.239-2.527c-1.078-0.534-1.75-0.801-2.017-0.801s-0.747,0.229-1.439,0.688   c-0.694,0.458-1.2,0.848-1.521,1.168c-0.32,0.319-0.56,0.517-0.72,0.593c-0.16,0.074-0.485,0.158-0.977,0.256   c-0.49,0.096-1.013,0.143-1.567,0.143c-0.556,0-1.12-0.176-1.696-0.527s-0.864-0.587-0.864-0.704s0.053-0.192,0.16-0.224   c0.106-0.032,0.363-0.049,0.768-0.049c1.451,0,2.773-0.303,3.968-0.912c1.194-0.607,1.792-1.018,1.792-1.231   c0-0.106-0.214-0.213-0.641-0.319c-0.427-0.107-0.768-0.16-1.023-0.16s-0.523,0.043-0.8,0.127   c-0.277,0.086-0.523,0.129-0.736,0.129c-0.32,0-0.479-0.096-0.479-0.288s0.159-0.448,0.479-0.769s0.48-0.533,0.48-0.64   s-0.06-0.16-0.177-0.16s-0.533,0.048-1.248,0.144c-0.715,0.097-1.509,0.236-2.384,0.416c-0.875,0.182-1.515,0.272-1.92,0.272   s-0.688,0.027-0.848,0.08c-0.16,0.054-0.32,0.08-0.48,0.08c-0.16,0-0.24-0.181-0.24-0.544c0-0.619,0.085-0.928,0.256-0.928   c0.064,0,0.139,0.016,0.224,0.048c0.085,0.032,0.197,0.048,0.336,0.048c0.139,0,0.56-0.064,1.264-0.191   c3.221-0.662,5.28-1.045,6.176-1.152c0.234-0.021,0.352-0.117,0.352-0.288s-0.016-0.282-0.048-0.336s-0.107-0.08-0.224-0.08   c-0.118,0-0.428,0.054-0.929,0.159c-0.501,0.107-0.858,0.16-1.071,0.16c-0.385,0-0.576-0.298-0.576-0.896   c0-0.256,0.117-0.378,0.352-0.368c0.234,0.012,0.362,0.016,0.384,0.016c0.234,0,0.533-0.059,0.896-0.176   c0.362-0.117,0.741-0.224,1.136-0.32c0.395-0.096,0.624-0.191,0.688-0.287c0.063-0.096,0.096-0.262,0.096-0.496   s-0.069-0.352-0.208-0.352s-0.565,0.063-1.28,0.191s-1.163,0.229-1.344,0.305c-0.182,0.074-0.342,0.111-0.48,0.111   s-0.293-0.133-0.464-0.4c-0.171-0.266-0.256-0.484-0.256-0.656c0-0.17,0.187-0.266,0.561-0.287c0.373-0.021,0.986-0.139,1.84-0.352   c0.853-0.214,1.381-0.363,1.584-0.449c0.202-0.085,0.304-0.277,0.304-0.576c0-0.17-0.096-0.256-0.288-0.256   c-0.191,0-0.55,0.069-1.072,0.208c-0.522,0.139-0.933,0.272-1.231,0.4s-0.539,0.192-0.72,0.192c-0.182,0-0.331-0.181-0.448-0.544   c-0.117-0.362-0.176-0.65-0.176-0.864c0-0.213,0.138-0.32,0.416-0.32l0.384,0.032c0.298,0,0.735-0.069,1.312-0.208   c0.576-0.139,1.035-0.24,1.376-0.304c0.342-0.064,0.544-0.144,0.608-0.24c0.063-0.096,0.096-0.234,0.096-0.416   c0-0.181-0.026-0.288-0.08-0.32c-0.053-0.032-0.191-0.037-0.416-0.016c-0.224,0.021-0.629,0.032-1.216,0.032   s-0.966,0.07-1.136,0.208c-0.171,0.139-0.336,0.208-0.496,0.208s-0.299-0.224-0.416-0.672c-0.117-0.448-0.176-0.778-0.176-0.992   c0-0.299,0.074-0.448,0.224-0.448s0.288,0.032,0.416,0.096s0.379,0.096,0.752,0.096s0.896-0.042,1.568-0.128   c0.672-0.085,1.008-0.176,1.008-0.272s-0.027-0.197-0.08-0.304c-0.054-0.106-0.144-0.16-0.271-0.16l-0.288,0.064   c-0.3,0-0.662-0.331-1.088-0.992C9.975,8.392,9.724,8.21,9.479,8.21S8.817,8.274,8.231,8.402C7.644,8.531,7.127,8.68,6.679,8.851   C6.231,9.021,5.863,9.106,5.575,9.106c-0.288,0-0.501-0.293-0.64-0.88C4.796,7.64,4.727,7.256,4.727,7.075S4.77,6.771,4.855,6.707   c0.085-0.064,0.24-0.09,0.464-0.08c0.224,0.011,0.522,0.016,0.896,0.016c0.373,0,0.843-0.032,1.408-0.096s0.912-0.128,1.04-0.192   s0.192-0.16,0.192-0.288s-0.032-0.32-0.097-0.576C8.481,4.445,8.343,3.667,8.343,3.154c0-0.512,0.288-0.768,0.864-0.768   c0.149,0,0.501,0.059,1.056,0.176c0.555,0.118,0.832,0.24,0.832,0.368s-0.043,0.288-0.128,0.48s-0.128,0.379-0.128,0.56   s0.037,0.48,0.112,0.896c0.074,0.416,0.154,0.646,0.24,0.688c0.085,0.043,0.176,0.064,0.271,0.064s0.347-0.032,0.752-0.096   s0.906-0.096,1.504-0.096l1.345,0.064c0.213,0,0.404-0.288,0.575-0.864c0.234-0.789,0.533-1.616,0.896-2.48   c0.362-0.864,0.581-1.322,0.656-1.376c0.074-0.053,0.218-0.08,0.432-0.08c0.213,0,0.57,0.08,1.072,0.24   c0.501,0.16,0.752,0.4,0.752,0.72c0,0.192-0.097,0.411-0.288,0.656C18.967,2.552,18.705,3,18.375,3.65   c-0.331,0.651-0.496,1.045-0.496,1.184c0,0.139,0.064,0.208,0.192,0.208s0.746-0.154,1.855-0.464   c1.109-0.309,1.824-0.656,2.145-1.04c0.128-0.149,0.229-0.224,0.304-0.224c0.074,0,0.245,0.123,0.512,0.368   c0.267,0.246,0.464,0.528,0.592,0.848c0.129,0.32,0.192,0.544,0.192,0.672s-0.192,0.235-0.576,0.32   c-2.133,0.512-3.818,1.067-5.056,1.664c-0.299,0.149-0.608,0.262-0.928,0.336c-0.32,0.075-0.518,0.283-0.593,0.624   c-0.074,0.341-0.111,0.523-0.111,0.544c0,0.171,0.191,0.235,0.576,0.192c0.384-0.042,0.725-0.064,1.023-0.064   c0.769,0,1.152,0.192,1.152,0.576c0,0.662-0.299,1.014-0.896,1.056c-0.405,0.021-1.093,0.176-2.063,0.464   c-0.972,0.288-1.521,0.496-1.648,0.624s-0.191,0.341-0.191,0.64c0,0.085,0.074,0.128,0.224,0.128s0.533-0.042,1.152-0.128   c0.618-0.085,1.136-0.128,1.552-0.128s1.029,0.112,1.84,0.336c0.811,0.224,1.216,0.427,1.216,0.608s-0.08,0.389-0.24,0.624   c-0.159,0.235-0.239,0.416-0.239,0.544c0,0.256,0.224,0.352,0.672,0.288c0.213-0.021,0.421-0.032,0.624-0.032   c0.202,0,0.405,0.139,0.607,0.416c0.203,0.277,0.305,0.549,0.305,0.816c0,0.268-0.075,0.428-0.225,0.48s-0.438,0.059-0.863,0.016   c-0.428-0.043-0.773-0.064-1.04-0.064c-0.268,0-0.443,0.06-0.528,0.176c-0.086,0.118-0.166,0.471-0.24,1.057   c-0.075,0.587-0.16,0.965-0.256,1.137c-0.096,0.17-0.214,0.266-0.352,0.287c-0.14,0.021-0.476,0.032-1.009,0.032   c-0.319,0-0.479,0.182-0.479,0.544c0,0.086,0.074,0.155,0.224,0.208c0.149,0.054,0.518,0.112,1.104,0.177   c0.586,0.063,1.157,0.096,1.712,0.096c1.408,0,2.555-0.053,3.439-0.16C24.444,19.527,24.993,19.475,25.207,19.475z M14.455,9.17   c0.128,0,0.213-0.187,0.256-0.56c0.043-0.373,0.091-0.698,0.145-0.976c0.053-0.277,0.079-0.448,0.079-0.512   c0-0.277-0.299-0.416-0.896-0.416c-0.598,0-1.12,0.091-1.568,0.272c-0.447,0.182-0.672,0.347-0.672,0.496   c0,0.149,0.037,0.352,0.112,0.608c0.074,0.256,0.148,0.416,0.224,0.48s0.373,0.128,0.896,0.192   c0.522,0.064,0.874,0.149,1.056,0.256C14.268,9.118,14.391,9.17,14.455,9.17z M13.239,22.547c0.298,0,0.576-0.154,0.832-0.465   c0.256-0.309,0.384-0.517,0.384-0.623c0-0.107-0.16-0.16-0.48-0.16c-0.96,0-1.52,0.069-1.68,0.207   c-0.16,0.14-0.24,0.311-0.24,0.513c0,0.203,0.117,0.341,0.353,0.416C12.642,22.51,12.919,22.547,13.239,22.547z M13.911,19.73   c0.597,0,1.013-0.043,1.248-0.128c0.234-0.085,0.352-0.245,0.352-0.479s-0.106-0.353-0.319-0.353c-0.214,0-0.528,0.026-0.944,0.08   s-0.646,0.128-0.688,0.224s-0.063,0.23-0.063,0.4C13.495,19.646,13.634,19.73,13.911,19.73z M14.007,17.362l1.632-0.128   c0.555-0.021,0.901-0.085,1.04-0.191c0.139-0.107,0.208-0.299,0.208-0.576s-0.133-0.416-0.399-0.416   c-0.268,0-0.742,0.043-1.424,0.128c-0.684,0.085-1.089,0.171-1.217,0.256s-0.191,0.299-0.191,0.64   C13.655,17.267,13.772,17.362,14.007,17.362z M14.263,14.898c0.043,0,0.475-0.021,1.296-0.064c0.821-0.042,1.28-0.074,1.376-0.096   c0.097-0.021,0.165-0.074,0.208-0.16c0.043-0.085,0.064-0.256,0.064-0.512c0-0.256-0.048-0.426-0.144-0.512   c-0.097-0.085-0.358-0.128-0.784-0.128c-0.428,0-0.864,0.059-1.313,0.176c-0.448,0.118-0.735,0.251-0.864,0.4   c-0.128,0.149-0.191,0.363-0.191,0.64C13.911,14.813,14.028,14.898,14.263,14.898z" stroke-width="1"/>
</g>
</svg>