<svg xmlns="http://www.w3.org/2000/svg" xmlns:xlink="http://www.w3.org/1999/xlink" version="1.1" id="图层_1" x="0px" y="0px" width="25.31999969482422" height="20.839000701904297" viewBox="2.609999895095825 4.824999809265137 25.31999969482422 20.839000701904297" style="enable-background:new 0 0 30 30;" xml:space="preserve">
  <g>
    <g>
      <path style="fill:#0000FF;" d="M27.43,7.885c0,0.363-0.021,0.613-0.063,0.752c-0.043,0.139-0.128,0.208-0.256,0.208&#13;&#10;&#9;&#9;s-0.385-0.08-0.769-0.24c-0.384-0.16-1.109-0.325-2.176-0.496c-1.067-0.171-2.091-0.256-3.072-0.256s-1.76,0.032-2.336,0.096&#13;&#10;&#9;&#9;s-1.003,0.155-1.28,0.272c-0.277,0.118-0.672,0.384-1.184,0.8s-0.966,0.859-1.36,1.328c-0.395,0.47-0.655,0.816-0.783,1.04&#13;&#10;&#9;&#9;s-0.192,0.379-0.192,0.464c0,0.085,0.16,0.128,0.48,0.128c0.319,0,0.783-0.069,1.392-0.208c0.608-0.138,1.227-0.208,1.855-0.208&#13;&#10;&#9;&#9;c0.63,0,1.408,0.182,2.337,0.544c0.928,0.363,1.392,0.693,1.392,0.992c0,0.128-0.069,0.278-0.208,0.448&#13;&#10;&#9;&#9;c-0.139,0.171-0.245,0.453-0.32,0.848c-0.075,0.395-0.165,1.403-0.271,3.024c-0.107,1.621-0.192,3.958-0.256,7.008&#13;&#10;&#9;&#9;c0,0.491-0.155,0.735-0.465,0.735c-0.309,0-0.854-0.244-1.632-0.735s-1.339-0.907-1.68-1.248c-0.342-0.341-0.811-0.513-1.408-0.513&#13;&#10;&#9;&#9;c-0.319,0-0.901,0.092-1.744,0.273c-0.843,0.181-1.595,0.41-2.256,0.688c-0.191,0.086-0.379,0.128-0.56,0.128&#13;&#10;&#9;&#9;c-0.182,0-0.384-0.197-0.608-0.593C9.782,22.77,9.59,21.992,9.43,20.828c-0.159-1.162-0.239-2.64-0.239-4.432&#13;&#10;&#9;&#9;s0.048-2.762,0.144-2.912c0.096-0.149,0.347-0.299,0.752-0.448c0.405-0.149,0.693-0.325,0.864-0.528&#13;&#10;&#9;&#9;c0.17-0.203,0.453-0.677,0.848-1.424c0.395-0.746,0.592-1.333,0.592-1.76c0-0.426-0.043-0.688-0.128-0.784&#13;&#10;&#9;&#9;c-0.085-0.096-0.234-0.144-0.447-0.144c-2.006,0-3.44,0.07-4.305,0.208C6.646,8.744,5.867,8.962,5.174,9.261&#13;&#10;&#9;&#9;C4.48,9.56,4.064,9.708,3.926,9.708s-0.245-0.048-0.32-0.144C3.531,9.469,3.43,9.197,3.302,8.749&#13;&#10;&#9;&#9;C3.174,8.301,3.11,7.959,3.11,7.725c0-0.234,0.203-0.352,0.608-0.352c0.576,0,1.136-0.059,1.68-0.176s1.52-0.208,2.928-0.272&#13;&#10;&#9;&#9;c0.597-0.021,1.45-0.112,2.56-0.272c1.109-0.16,1.846-0.293,2.208-0.4c0.896-0.235,2.293-0.448,4.192-0.64&#13;&#10;&#9;&#9;c1.898-0.192,3.488-0.288,4.768-0.288l1.824,0.032c0.64,0.021,1.109,0.021,1.408,0c0.299-0.021,0.522-0.032,0.672-0.032&#13;&#10;&#9;&#9;s0.267,0.032,0.352,0.096c0.086,0.064,0.245,0.261,0.48,0.592c0.234,0.331,0.4,0.635,0.496,0.912S27.43,7.522,27.43,7.885z&#13;&#10;&#9;&#9; M17.958,21.293l-0.064-3.008v-2.656c0-1.685-0.597-2.528-1.792-2.528c-0.811,0-1.557,0.096-2.239,0.288&#13;&#10;&#9;&#9;c-0.684,0.192-1.109,0.336-1.28,0.432c-0.171,0.096-0.299,0.261-0.384,0.496c-0.086,0.235-0.128,0.48-0.128,0.736&#13;&#10;&#9;&#9;s0.08,0.384,0.239,0.384c0.16,0,0.465-0.037,0.912-0.112c0.448-0.075,0.896-0.112,1.345-0.112c0.832,0,1.248,0.256,1.248,0.768&#13;&#10;&#9;&#9;c0,0.555-0.054,0.886-0.16,0.992c-0.107,0.107-0.518,0.31-1.232,0.607c-0.715,0.3-1.339,0.534-1.872,0.705&#13;&#10;&#9;&#9;c-0.427,0.127-0.715,0.283-0.864,0.463c-0.149,0.182-0.224,0.534-0.224,1.057c0,0.523,0.149,0.784,0.448,0.784&#13;&#10;&#9;&#9;c0.063,0,0.139-0.011,0.224-0.032c1.451-0.299,2.416-0.447,2.896-0.447c0.479,0,0.768,0.063,0.863,0.191&#13;&#10;&#9;&#9;c0.097,0.128,0.139,0.208,0.129,0.24c-0.012,0.031-0.017,0.256-0.017,0.672s0.037,0.715,0.112,0.896&#13;&#10;&#9;&#9;c0.074,0.181,0.224,0.319,0.448,0.416c0.224,0.096,0.421,0.143,0.592,0.143C17.691,22.668,17.958,22.21,17.958,21.293z" stroke-width="1"/>
    </g>
    <g/>
    <g/>
    <g/>
    <g/>
    <g/>
    <g/>
    <g/>
    <g/>
    <g/>
    <g/>
    <g/>
    <g/>
    <g/>
    <g/>
    <g/>
  </g>
</svg>