<svg xmlns="http://www.w3.org/2000/svg" xmlns:xlink="http://www.w3.org/1999/xlink" version="1.1" id="图层_1" x="0px" y="0px" width="24.65000343322754" height="21.384002685546875" viewBox="2.272998332977295 4.221995830535889 24.65000343322754 21.384002685546875" enable-background="new 0 0 30 30" xml:space="preserve">
<g>
	<path fill="#0000FF" d="M24.631,10.962c0.149,0,0.267,0.038,0.353,0.112c0.085,0.075,0.218,0.363,0.399,0.864   c0.182,0.501,0.341,0.891,0.48,1.168c0.139,0.277,0.267,0.619,0.384,1.024c0.117,0.406,0.176,0.694,0.176,0.864   c0,0.171-0.096,0.256-0.288,0.256c-0.191,0-0.603-0.165-1.231-0.496c-0.63-0.331-1.26-0.565-1.889-0.704   c-0.629-0.138-1.301-0.208-2.016-0.208s-1.499,0.032-2.352,0.096c-0.854,0.064-1.398,0.139-1.633,0.224   c-0.234,0.085-0.362,0.331-0.384,0.736l-0.256,3.68c-0.149,2.049-0.251,3.232-0.304,3.553c-0.054,0.32-0.097,0.832-0.128,1.535   c-0.032,0.705-0.102,1.121-0.208,1.248c-0.107,0.129-0.326,0.192-0.656,0.192c-0.331,0-0.539-0.021-0.624-0.063   c-0.086-0.043-0.128-0.15-0.128-0.32l0.032-0.576c0-0.619-0.06-1.291-0.177-2.016s-0.197-1.397-0.239-2.016l-0.097-4.416   c0-0.427-0.074-0.641-0.224-0.641s-0.485,0.085-1.008,0.256c-0.523,0.171-0.955,0.336-1.296,0.496   c-0.342,0.16-0.721,0.24-1.137,0.24s-0.789-0.021-1.119-0.064c-0.331-0.043-0.699-0.064-1.104-0.064s-0.992,0.07-1.76,0.209   c-0.768,0.139-1.328,0.287-1.68,0.447s-0.592,0.24-0.72,0.24c-0.277,0-0.518-0.362-0.72-1.088   c-0.203-0.725-0.304-1.184-0.304-1.376s0.085-0.288,0.256-0.288l0.736,0.096c0.747,0,1.808-0.091,3.184-0.272   s2.506-0.395,3.392-0.64c0.885-0.245,1.653-0.448,2.305-0.608c0.65-0.16,1.008-0.288,1.071-0.384   c0.064-0.096,0.097-0.304,0.097-0.624c0-1.877-0.021-3.21-0.064-4l-0.128-2.368c0-0.363,0.149-0.544,0.448-0.544   c0.532,0,1.002,0.128,1.407,0.384c0.342,0.213,0.896,0.406,1.664,0.576c0.363,0.085,0.544,0.229,0.544,0.432   s-0.069,0.405-0.208,0.608s-0.282,0.587-0.432,1.152c-0.149,0.565-0.229,1.232-0.24,2s-0.016,1.195-0.016,1.28   c0,0.278,0.074,0.416,0.224,0.416s0.475-0.042,0.977-0.128c0.501-0.085,1.04-0.144,1.616-0.176   c0.575-0.032,1.322-0.048,2.239-0.048s1.584-0.043,2-0.128C24.263,11.005,24.524,10.962,24.631,10.962z" stroke-width="1"/>
</g>
</svg>