<svg xmlns="http://www.w3.org/2000/svg" xmlns:xlink="http://www.w3.org/1999/xlink" version="1.1" id="图层_1" x="0px" y="0px" width="22.60000228881836" height="29.83300018310547" viewBox="5.410999774932861 -1.5529993772506714 22.60000228881836 29.83300018310547" enable-background="new 0 0 30 30" xml:space="preserve">
<g>
	<path fill="#0000FF" d="M11.608,19.523c0,0.106-0.054,0.25-0.16,0.432c-0.107,0.182-0.192,0.549-0.256,1.104   c-0.064,0.555-0.171,1.1-0.32,1.633s-0.224,0.875-0.224,1.023c0,0.149,0.01,0.299,0.031,0.448c0.021,0.148,0.032,0.267,0.032,0.352   c0,0.576-0.533,1.211-1.6,1.904c-1.067,0.693-2.016,1.04-2.848,1.04c-0.235,0-0.352-0.064-0.352-0.192   c0-0.256,0.693-1.099,2.08-2.527c1.13-1.152,1.696-2.869,1.696-5.152c0-0.213,0.074-0.399,0.224-0.56   c0.148-0.16,0.341-0.24,0.576-0.24c0.234,0,0.479,0.069,0.735,0.208C11.48,19.134,11.608,19.311,11.608,19.523z M22.36,3.715   c0.148,0,0.261,0.027,0.336,0.08c0.074,0.054,0.16,0.208,0.256,0.464c0.096,0.256,0.144,0.459,0.144,0.608   c0,0.363-0.213,0.565-0.64,0.608c-0.427,0.043-0.949,0.182-1.568,0.416c-0.619,0.235-1.157,0.384-1.615,0.448   c-0.459,0.064-0.736,0.134-0.832,0.208c-0.097,0.075-0.208,0.198-0.337,0.368c-0.299,0.469-1.131,1.045-2.495,1.728   c-0.32,0.171-0.48,0.31-0.48,0.416c0,0.107,0.048,0.246,0.145,0.416c0.096,0.171,0.159,0.395,0.191,0.672   c0.032,0.277,0.117,0.416,0.256,0.416s0.251-0.01,0.336-0.032c1.088-0.298,1.947-0.458,2.576-0.48   c0.629-0.021,1.088-0.069,1.376-0.144s0.485-0.112,0.592-0.112c0.385,0,0.683,0.224,0.896,0.672c0.213,0.448,0.32,0.811,0.32,1.088   s-0.08,0.491-0.24,0.64c-0.16,0.15-0.374,0.198-0.641,0.144c-0.267-0.053-0.592-0.08-0.976-0.08c-1.323,0-2.518,0.278-3.584,0.832   c-0.214,0.085-1.035,0.342-2.464,0.768c-0.661,0.213-0.992,0.565-0.992,1.056c0,0.363,0.304,0.544,0.912,0.544   s1.04-0.016,1.296-0.048c0.256-0.032,0.576-0.101,0.96-0.208c0.384-0.106,0.906-0.213,1.568-0.32   c0.661-0.106,1.088-0.16,1.279-0.16c0.192,0,0.315,0.069,0.368,0.208c0.054,0.139,0.08,0.405,0.08,0.799   c0,0.396-0.075,0.705-0.224,0.929c-0.149,0.224-0.427,0.384-0.832,0.479s-0.736,0.209-0.992,0.336   c-0.256,0.129-0.576,0.252-0.96,0.368c-0.384,0.118-0.672,0.177-0.864,0.177c-0.191,0-0.539,0.068-1.04,0.207   c-0.501,0.14-0.858,0.209-1.071,0.209c-0.576,0-1.035-0.32-1.376-0.961c-0.342-0.64-0.699-1.242-1.072-1.808   c-0.374-0.565-0.604-0.88-0.688-0.944s-0.191-0.096-0.319-0.096c-0.32,0-0.758,0.139-1.313,0.416   c-0.384,0.171-0.693,0.256-0.928,0.256c-0.235,0-0.432-0.309-0.592-0.928c-0.16-0.619-0.24-1.013-0.24-1.184   c0-0.17,0.059-0.288,0.176-0.352s0.378-0.106,0.784-0.128c0.405-0.021,1.051-0.112,1.936-0.272c0.886-0.16,1.638-0.352,2.257-0.576   c0.618-0.224,1.023-0.368,1.216-0.432c0.191-0.064,0.288-0.138,0.288-0.224c0-0.085-0.064-0.208-0.192-0.368   s-0.229-0.32-0.304-0.48c-0.075-0.16-0.112-0.352-0.112-0.576c0-0.224-0.032-0.432-0.096-0.624   c-0.064-0.192-0.149-0.288-0.256-0.288c-0.107,0-0.251,0.069-0.433,0.208s-0.325,0.208-0.432,0.208   c-0.214,0-0.63-0.363-1.248-1.088c-0.064-0.106-0.139-0.16-0.224-0.16c-0.086,0-0.192,0.032-0.32,0.096   C8.994,8.75,8.419,9.059,8.184,9.059c-0.149,0-0.309-0.117-0.479-0.352c-0.171-0.234-0.491-0.576-0.96-1.024   C6.595,7.534,6.52,7.374,6.52,7.203c0-0.17,0.149-0.272,0.448-0.304C7.267,6.867,7.677,6.771,8.2,6.611   c0.522-0.16,0.821-0.266,0.896-0.32c0.075-0.053,0.112-0.128,0.112-0.224c0-0.096-0.048-0.261-0.144-0.496   C8.968,5.336,8.877,4.979,8.792,4.499c-0.086-0.48-0.128-0.848-0.128-1.104S8.765,2.84,8.968,2.499   C9.171,2.158,9.448,1.987,9.8,1.987c0.353,0,0.869,0.139,1.552,0.416c0.683,0.278,1.024,0.619,1.024,1.024   c0,0.192-0.08,0.416-0.24,0.672c-0.16,0.256-0.239,0.619-0.239,1.088c0,0.235,0.074,0.352,0.224,0.352l3.552-0.608   c0.362-0.042,0.576-0.101,0.64-0.176c0.064-0.074,0.347-0.667,0.849-1.776c0.501-1.109,0.912-2.154,1.231-3.136   c0.085-0.256,0.229-0.469,0.433-0.64c0.202-0.17,0.416-0.256,0.64-0.256c0.225,0,0.544,0.123,0.96,0.368   c0.416,0.246,0.624,0.491,0.624,0.736c0,0.246-0.128,0.56-0.384,0.944C19.555,2.659,19,3.715,19,4.163   c0,0.107,0.043,0.16,0.128,0.16s0.49-0.069,1.216-0.208s1.222-0.24,1.488-0.304S22.274,3.715,22.36,3.715z M14.648,8.419   c0.148,0,0.25-0.106,0.304-0.32c0.053-0.213,0.165-0.522,0.336-0.928c0.171-0.405,0.256-0.64,0.256-0.704   c0-0.234-0.342-0.352-1.024-0.352c-0.319,0-0.789,0.101-1.407,0.304c-0.619,0.203-0.929,0.421-0.929,0.656   c0,0.107,0.08,0.293,0.24,0.56c0.16,0.267,0.282,0.4,0.368,0.4c0.085,0,0.192-0.021,0.32-0.064   c0.128-0.042,0.261-0.064,0.399-0.064s0.341,0.085,0.608,0.256C14.387,8.334,14.563,8.419,14.648,8.419z M15.832,19.747   c0,0.106-0.043,0.267-0.128,0.479c-0.427,1.152-0.64,2.752-0.64,4.801c0,0.532-0.118,0.933-0.353,1.199   c-0.235,0.267-0.443,0.4-0.624,0.4c-0.182,0-0.347-0.123-0.496-0.368s-0.256-1.359-0.319-3.344L13.208,20.1   c0-0.726,0.32-1.088,0.96-1.088c0.213,0,0.544,0.068,0.992,0.207S15.832,19.534,15.832,19.747z M25.368,19.268   c0.063,0,0.245,0.187,0.544,0.56c0.299,0.374,0.464,0.843,0.496,1.407c0.032,0.566,0.187,1.318,0.464,2.257   c0.128,0.448,0.202,0.874,0.224,1.28c0.021,0.404,0.075,0.778,0.16,1.119c0.085,0.342,0.149,0.565,0.192,0.673   c0.042,0.106,0.063,0.229,0.063,0.367s-0.096,0.256-0.288,0.353c-0.191,0.096-0.863,0.202-2.016,0.319s-2,0.177-2.544,0.177   s-1.126-0.043-1.744-0.128c-0.619-0.086-1.04-0.192-1.264-0.32c-0.225-0.128-0.464-0.363-0.721-0.704   c-0.256-0.342-0.522-0.779-0.8-1.312c-0.277-0.534-0.475-1.062-0.592-1.584s-0.176-0.997-0.176-1.425   c0-0.426,0.059-0.976,0.176-1.647c0.117-0.673,0.176-1.125,0.176-1.36v-0.512c0-0.32,0.154-0.581,0.464-0.784   c0.31-0.202,0.683-0.304,1.12-0.304s0.656,0.128,0.656,0.384c0,0.128-0.069,0.256-0.208,0.384   c-0.139,0.129-0.262,0.348-0.368,0.656c-0.106,0.31-0.203,0.768-0.288,1.376s-0.191,1.046-0.319,1.312   c-0.128,0.268-0.192,0.672-0.192,1.217c0,0.544,0.117,0.97,0.352,1.279c0.235,0.31,0.693,0.581,1.376,0.816   c0.683,0.234,1.323,0.352,1.921,0.352c0.597,0,1.108-0.053,1.535-0.159c0.427-0.107,0.741-0.272,0.944-0.496   c0.202-0.225,0.32-0.528,0.353-0.912c0.031-0.384,0.063-0.885,0.096-1.505c0.032-0.617,0.048-1.492,0.048-2.623   C25.208,19.438,25.261,19.268,25.368,19.268z" stroke-width="1"/>
</g>
</svg>