<svg xmlns="http://www.w3.org/2000/svg" xmlns:xlink="http://www.w3.org/1999/xlink" version="1.1" id="图层_1" x="0px" y="0px" width="26.631999969482422" height="24.10399627685547" viewBox="1.123000144958496 1.4070045948028564 26.631999969482422 24.10399627685547" enable-background="new 0 0 30 30" xml:space="preserve">
<g>
	<path fill="#0000FF" d="M12.727,8.338c0,0.149-0.128,0.352-0.384,0.608c-0.512,0.512-0.928,1.094-1.248,1.744   c-0.319,0.651-0.912,1.51-1.775,2.576c-0.864,1.067-1.296,1.75-1.296,2.048c0,0.149,0.063,0.225,0.191,0.225   c0.234,0,0.971-0.246,2.208-0.736c0.085-0.042,0.171-0.064,0.256-0.064c0.234,0,0.353,0.283,0.353,0.848   c0,0.566-0.32,0.967-0.96,1.201c-0.448,0.191-0.955,0.496-1.521,0.912s-1.035,0.693-1.408,0.832c-0.374,0.139-0.8,0.341-1.28,0.607   c-0.48,0.268-0.827,0.485-1.04,0.656c-0.213,0.17-0.379,0.256-0.496,0.256c-0.118,0-0.208-0.021-0.272-0.064   s-0.214-0.256-0.448-0.64c-0.235-0.384-0.432-0.73-0.592-1.04c-0.16-0.309-0.24-0.528-0.24-0.656c0-0.256,0.187-0.404,0.56-0.447   c0.373-0.043,0.72-0.16,1.04-0.353s0.629-0.513,0.928-0.96l0.832-1.216c0.256-0.362,0.384-0.586,0.384-0.672   c0-0.085-0.075-0.128-0.224-0.128c-0.149,0-0.56,0.085-1.232,0.256c-0.672,0.171-1.179,0.342-1.52,0.512   c-0.341,0.171-0.608,0.256-0.8,0.256c-0.192,0-0.331-0.149-0.416-0.448c-0.192-0.576-0.357-0.987-0.496-1.232   c-0.139-0.245-0.208-0.411-0.208-0.496c0-0.32,0.181-0.501,0.544-0.544c0.256-0.021,0.517-0.123,0.784-0.304   c0.266-0.181,0.533-0.453,0.8-0.816c0.267-0.363,1.099-1.728,2.496-4.096c1.396-2.368,2.299-3.936,2.704-4.704   c0.106-0.234,0.25-0.352,0.432-0.352s0.433,0.096,0.752,0.288c0.32,0.192,0.613,0.459,0.88,0.8s0.4,0.597,0.4,0.768   s-0.107,0.288-0.32,0.352c-0.213,0.064-0.479,0.283-0.8,0.656c-0.32,0.374-0.661,0.891-1.024,1.552   C8.908,6.984,8.449,7.768,7.895,8.674c-0.555,0.907-0.922,1.478-1.104,1.712c-0.182,0.235-0.272,0.438-0.272,0.608   c0,0.171,0.09,0.256,0.272,0.256c0.181,0,0.565-0.032,1.152-0.096c0.586-0.064,0.933-0.17,1.04-0.32   c0.106-0.149,0.324-0.496,0.655-1.04s0.678-1.178,1.04-1.904c0.213-0.427,0.427-0.64,0.641-0.64c0.213,0,0.501,0.139,0.863,0.416   C12.546,7.944,12.727,8.168,12.727,8.338z M11.031,18.707c0.191,0,0.288,0.352,0.288,1.056s-0.278,1.163-0.832,1.376   c-1.046,0.427-2.203,1.023-3.472,1.792c-1.27,0.769-2.214,1.397-2.832,1.888c-0.128,0.106-0.304,0.16-0.528,0.16   c-0.224,0-0.549-0.246-0.976-0.736c-0.427-0.49-0.64-0.805-0.64-0.943s0.234-0.314,0.704-0.528   c0.469-0.213,1.253-0.655,2.352-1.328c1.098-0.672,2.32-1.296,3.664-1.872S10.86,18.707,11.031,18.707z M27.255,10.867   c0,0.128-0.075,0.245-0.224,0.352c-0.363,0.256-0.619,1.056-0.769,2.4c-0.213,1.771-0.459,3.514-0.735,5.232   c-0.278,1.718-0.48,2.757-0.608,3.12c-0.277,0.896-0.438,1.627-0.479,2.191c-0.044,0.565-0.225,0.849-0.545,0.849   c-0.319,0-1.119-0.485-2.399-1.456s-2.123-1.658-2.528-2.064c-0.106-0.106-0.256-0.16-0.448-0.16c-0.191,0-0.667,0.118-1.424,0.353   c-0.757,0.235-1.264,0.479-1.52,0.735s-0.454,0.385-0.592,0.385c-0.14,0-0.278-0.074-0.416-0.225   c-0.14-0.148-0.438-0.635-0.896-1.455c-0.459-0.821-0.848-1.707-1.168-2.656s-0.539-1.818-0.656-2.608   c-0.117-0.789-0.176-1.824-0.176-3.104l-0.032-0.864c0-0.17,0.059-0.293,0.177-0.368c0.116-0.074,0.458-0.17,1.023-0.288   c0.565-0.117,1.499-0.346,2.8-0.688c3.393-0.896,5.589-1.344,6.593-1.344c1.002,0,1.93,0.139,2.783,0.416s1.44,0.512,1.761,0.704   C27.095,10.515,27.255,10.696,27.255,10.867z M15.447,19.955c0.191,0,0.496-0.054,0.912-0.16c0.416-0.107,0.714-0.293,0.896-0.561   c0.181-0.266,0.272-0.837,0.272-1.712c0-0.405-0.166-0.554-0.496-0.448c-0.331,0.107-0.641,0.16-0.929,0.16   c-0.287,0-0.517-0.244-0.688-0.736c-0.171-0.49-0.256-0.853-0.256-1.087c0-0.469,0.224-0.747,0.672-0.832   c0.853-0.149,1.333-0.283,1.439-0.4c0.107-0.117,0.16-0.603,0.16-1.456c0-0.448-0.299-0.672-0.896-0.672   c-0.704,0-1.296,0.171-1.776,0.512c-0.479,0.341-0.667,0.843-0.56,1.504c0.042,0.32,0.063,0.864,0.063,1.633l-0.031,1.92   c0,0.618,0.096,1.162,0.287,1.631C14.711,19.721,15.02,19.955,15.447,19.955z M21.399,21.715c0.319,0,0.57-0.096,0.752-0.288   c0.181-0.192,0.356-0.673,0.527-1.44s0.331-2.016,0.48-3.744c0.148-1.728,0.224-3.136,0.224-4.224c0-0.533-0.182-0.901-0.544-1.104   c-0.363-0.203-0.715-0.304-1.056-0.304c-0.342,0-0.72,0.064-1.136,0.192c-0.416,0.128-0.673,0.299-0.769,0.512   c-0.096,0.213-0.144,0.608-0.144,1.184s0.096,0.864,0.288,0.864c0.042,0,0.196-0.037,0.464-0.112   c0.267-0.075,0.549-0.112,0.848-0.112s0.448,0.192,0.448,0.576c0,0.704-0.112,1.195-0.336,1.472   c-0.225,0.277-0.688,0.534-1.393,0.769c-0.191,0.063-0.31,0.165-0.352,0.303c-0.043,0.14-0.064,0.492-0.064,1.057   c0,0.565,0.021,0.912,0.064,1.04c0.042,0.128,0.139,0.24,0.288,0.336c0.148,0.097,0.341,0.144,0.576,0.144l0.447-0.031   c0.234,0,0.353,0.149,0.353,0.447c0,0.299-0.038,0.608-0.112,0.929c-0.075,0.319-0.176,0.522-0.304,0.608   c-0.128,0.085-0.336,0.148-0.624,0.191s-0.433,0.111-0.433,0.208s0.197,0.208,0.593,0.336   C20.882,21.65,21.186,21.715,21.399,21.715z" stroke-width="1"/>
</g>
</svg>