<svg xmlns="http://www.w3.org/2000/svg" xmlns:xlink="http://www.w3.org/1999/xlink" version="1.1" id="图层_1" x="0px" y="0px" width="24.263999938964844" height="15.719998359680176" viewBox="3.170999526977539 8.574000358581543 24.263999938964844 15.719998359680176" enable-background="new 0 0 30 30" xml:space="preserve">
<g>
	<path fill="#0000FF" d="M26.935,11.858c0,0.149-0.069,0.283-0.208,0.4c-0.139,0.118-0.256,0.294-0.352,0.528   c-0.096,0.235-0.214,0.624-0.352,1.168c-0.14,0.544-0.608,1.792-1.408,3.745c-0.8,1.951-1.616,3.6-2.448,4.943   c-0.214,0.342-0.368,0.619-0.464,0.832s-0.208,0.32-0.336,0.32s-0.758-0.305-1.889-0.912c-1.131-0.608-1.883-1.072-2.256-1.393   s-0.619-0.656-0.735-1.008c-0.118-0.352-0.326-0.527-0.624-0.527c-0.214,0-0.747,0.043-1.601,0.127   c-0.854,0.086-1.419,0.16-1.695,0.225c-0.278,0.064-0.565,0.166-0.864,0.304c-0.299,0.14-0.715,0.208-1.248,0.208   s-1.099,0.235-1.696,0.704c-0.171,0.149-0.341,0.224-0.512,0.224c-0.299,0-0.71-0.33-1.232-0.992   c-0.523-0.66-0.992-1.295-1.408-1.903s-0.843-1.461-1.28-2.56c-0.438-1.099-0.656-2.182-0.656-3.249   c0-0.512,0.037-0.869,0.112-1.072c0.074-0.203,0.197-0.314,0.368-0.336c1.024-0.128,1.925-0.325,2.704-0.592   c0.779-0.267,2.688-0.661,5.728-1.184c3.04-0.522,5.61-0.784,7.712-0.784c2.101,0,3.733,0.352,4.896,1.056   C26.354,10.834,26.935,11.411,26.935,11.858z M19.319,21.011c0.789,0,1.328-0.208,1.615-0.624c0.288-0.416,0.678-1.488,1.168-3.217   c0.491-1.728,0.736-3.082,0.736-4.063c0-0.981-0.229-1.637-0.688-1.968c-0.459-0.331-1.104-0.496-1.937-0.496   s-1.359,0.027-1.584,0.08c-0.224,0.053-0.39,0.123-0.496,0.208c-0.106,0.085-0.262,0.368-0.464,0.848   c-0.203,0.48-0.304,0.854-0.304,1.12c0,0.267,0.111,0.475,0.336,0.624c0.224,0.149,0.645,0.267,1.264,0.352   c0.192,0.043,0.314,0.123,0.368,0.24c0.053,0.117,0.08,0.368,0.08,0.752c0,0.384-0.059,0.661-0.176,0.833   c-0.118,0.17-0.433,0.314-0.944,0.432s-0.944,0.176-1.296,0.176s-0.656-0.245-0.912-0.736c-0.256-0.49-0.491-1.061-0.704-1.712   c-0.213-0.65-0.427-1.163-0.64-1.536c-0.214-0.373-0.368-0.592-0.464-0.656c-0.097-0.064-0.225-0.096-0.385-0.096   c-0.159,0-0.389,0.038-0.688,0.112s-0.485,0.256-0.56,0.544c-0.075,0.288-0.145,0.613-0.208,0.976   c-0.064,0.363-0.097,0.662-0.097,0.896c0,0.235,0.032,0.405,0.097,0.512c0.063,0.107,0.096,0.256,0.096,0.448   s-0.203,0.48-0.608,0.863c-0.405,0.385-0.789,0.609-1.151,0.673l-1.601,0.319c-0.106,0-0.16-0.042-0.16-0.127   c0-0.086,0.043-0.192,0.128-0.32c0.619-0.789,1.035-1.365,1.248-1.729c0.213-0.362,0.32-0.693,0.32-0.992   c0-0.298-0.037-0.576-0.112-0.832c-0.074-0.256-0.187-0.384-0.336-0.384c-0.021,0-0.405,0.128-1.151,0.384l-1.761,0.544   c-0.384,0.149-0.624,0.299-0.72,0.448c-0.096,0.149-0.144,0.453-0.144,0.912c0,0.459,0.069,0.998,0.208,1.616   c0.139,0.619,0.347,1.157,0.625,1.616c0.276,0.459,0.501,0.73,0.672,0.816c0.17,0.085,0.448,0.127,0.832,0.127   s0.971-0.117,1.76-0.352c2.069-0.598,4.32-0.896,6.752-0.896c0.234,0,0.41,0.054,0.528,0.16c0.117,0.107,0.271,0.379,0.464,0.816   c0.191,0.438,0.288,0.73,0.288,0.88s-0.032,0.235-0.097,0.256c-0.063,0.021-0.234,0.032-0.512,0.032s-0.544,0.027-0.8,0.08   s-0.384,0.128-0.384,0.224c0,0.097,0.048,0.182,0.144,0.257c0.097,0.074,0.39,0.187,0.88,0.336   C18.338,20.936,18.828,21.011,19.319,21.011z" stroke-width="1"/>
</g>
</svg>