<svg xmlns="http://www.w3.org/2000/svg" xmlns:xlink="http://www.w3.org/1999/xlink" version="1.1" id="图层_1" x="0px" y="0px" width="27.206003189086914" height="29.288000106811523" viewBox="0.7719982862472534 0.2549999952316284 27.206003189086914 29.288000106811523" enable-background="new 0 0 30 30" xml:space="preserve">
<g>
	<path fill="#0000FF" d="M10.999,13.714c0,0.576-0.245,0.864-0.736,0.864l-0.576-0.096c-0.149,0-0.224,0.171-0.224,0.512   c-0.043,1.899-0.106,3.253-0.192,4.064c-0.085,0.811-0.128,1.733-0.128,2.768c0,1.035,0.017,1.686,0.049,1.952   c0.031,0.267,0.048,0.464,0.048,0.593c0,0.404-0.112,0.607-0.336,0.607c-0.225,0-0.571-0.171-1.04-0.512   c-0.47-0.342-0.704-0.704-0.704-1.088c0-0.149,0.042-0.299,0.128-0.448c0.17-0.277,0.256-0.96,0.256-2.048v-5.217   c0-0.105-0.054-0.16-0.16-0.16s-0.224,0.076-0.352,0.225c-0.917,1.045-1.824,1.92-2.72,2.624c-0.491,0.341-0.912,0.71-1.264,1.104   s-0.635,0.592-0.848,0.592c-0.214,0-0.422-0.049-0.624-0.145c-0.203-0.096-0.304-0.261-0.304-0.496   c0-0.384,0.234-0.768,0.704-1.152C3.554,17,4.743,15.624,5.543,14.13c0.8-1.493,1.2-2.389,1.2-2.688   c0-0.085-0.096-0.128-0.288-0.128c-0.534,0-1.104,0.166-1.712,0.496c-0.608,0.331-0.981,0.587-1.12,0.768   c-0.139,0.182-0.262,0.272-0.368,0.272c-0.277,0-0.608-0.411-0.992-1.232c-0.384-0.821-0.576-1.408-0.576-1.76   s0.218-0.528,0.656-0.528c0.437,0,1.045-0.069,1.824-0.208c0.778-0.139,1.301-0.272,1.568-0.4c0.267-0.128,0.624-0.267,1.072-0.416   C7.255,8.158,7.511,8.04,7.575,7.955C7.639,7.87,7.682,7.688,7.703,7.411c0.063-1.792,0.139-3.253,0.224-4.384   c0.085-1.13,0.165-1.792,0.24-1.984c0.074-0.192,0.192-0.288,0.352-0.288c0.16,0,0.47,0.07,0.929,0.208   c0.458,0.139,0.688,0.31,0.688,0.512c0,0.203-0.054,0.443-0.16,0.72c-0.213,0.534-0.319,1.44-0.319,2.72L9.623,6.962   c0,0.256,0.096,0.384,0.288,0.384l0.448-0.032c0.447,0,0.672,0.203,0.672,0.608c0,0.896-0.384,1.568-1.152,2.016   c-0.192,0.128-0.288,0.256-0.288,0.384l-0.032,0.864c0,0.405,0.24,0.795,0.721,1.168C10.759,12.728,10.999,13.182,10.999,13.714z    M16.855,4.563c0.213,0,0.378,0.096,0.495,0.288s0.177,0.438,0.177,0.736c0,0.299-0.118,0.598-0.353,0.896   c-0.234,0.299-0.693,0.998-1.376,2.096c-0.683,1.099-1.28,1.861-1.792,2.288c-0.063,0.064-0.134,0.171-0.208,0.32   c-0.075,0.149-0.112,0.256-0.112,0.32c-0.128,1.11-0.341,2.059-0.64,2.848c-0.043,0.128-0.063,0.246-0.063,0.352   c0,0.341,0.165,0.512,0.495,0.512c0.331,0,0.758-0.315,1.28-0.944c0.522-0.629,0.784-1.178,0.784-1.648l-0.096-1.536   c0-0.277,0.085-0.458,0.256-0.544c0.17-0.085,0.448-0.128,0.832-0.128c0.576,0,0.864,0.235,0.864,0.704   c0,0.107-0.027,0.235-0.08,0.384c-0.054,0.15-0.08,0.363-0.08,0.64v0.864c0,0.384-0.118,1.163-0.353,2.336   c-0.234,1.173-0.438,1.92-0.607,2.239c-0.171,0.32-0.277,0.598-0.32,0.832c-0.043,0.235-0.064,0.588-0.064,1.057   s-0.245,0.906-0.735,1.313c-0.491,0.404-1.057,0.795-1.696,1.168s-1.222,0.56-1.744,0.56s-0.784-0.075-0.784-0.224   c0-0.086,0.267-0.385,0.801-0.896c0.532-0.512,1.21-1.109,2.031-1.792s1.339-1.408,1.553-2.176   c0.213-0.769,0.319-1.302,0.319-1.601s-0.048-0.448-0.144-0.448s-0.166,0.032-0.208,0.096c-0.384,0.555-0.769,1.051-1.152,1.488   s-0.629,0.693-0.735,0.768c-0.107,0.075-0.214,0.111-0.32,0.111c-0.32,0-0.635-0.432-0.944-1.295   c-0.31-0.864-0.427-1.568-0.352-2.112c0.074-0.544,0.111-1.28,0.111-2.208c0-0.928-0.096-1.659-0.287-2.192   c-0.043-0.106-0.064-0.224-0.064-0.352c0-0.448,0.224-0.864,0.672-1.248c1.344-1.13,2.592-2.272,3.744-3.424   C16.258,4.712,16.556,4.563,16.855,4.563z M23.319,7.378c0.789,0,1.563,0.107,2.319,0.32s1.253,0.405,1.488,0.576   c0.234,0.171,0.352,0.357,0.352,0.56c0,0.203-0.191,0.496-0.575,0.88c-0.064,0.064-0.16,0.278-0.288,0.64   c-0.128,0.363-0.214,0.693-0.256,0.992c-0.363,2.091-0.716,3.414-1.057,3.968c-0.171,0.256-0.304,0.619-0.399,1.088   c-0.097,0.47-0.256,0.704-0.48,0.704c-0.224,0-0.528-0.085-0.912-0.256s-0.837-0.353-1.359-0.544   c-0.523-0.191-0.812-0.288-0.864-0.288c-0.054,0-0.102,0.026-0.145,0.08s-0.085,0.261-0.128,0.624l-0.159,1.504   c-0.086,0.641-0.14,1.301-0.16,1.984c-0.021,0.683-0.032,1.867-0.032,3.552s0.026,2.789,0.08,3.312   c0.053,0.523,0.08,0.859,0.08,1.008c0,0.641-0.331,0.961-0.992,0.961c-0.299,0-0.528-0.033-0.688-0.096   c-0.159-0.064-0.239-0.172-0.239-0.32c0-0.15,0.021-0.311,0.063-0.48c0.128-0.49,0.192-1.482,0.192-2.977l-0.096-7.424l0.031-4.928   c0-0.789-0.054-1.477-0.16-2.064c-0.106-0.586-0.224-0.938-0.352-1.056s-0.192-0.283-0.192-0.496c0-0.32,0.145-0.522,0.433-0.608   s0.655-0.235,1.104-0.448C20.951,7.634,22.081,7.378,23.319,7.378z M21.911,14.515c0.32,0,0.581-0.085,0.784-0.256   c0.202-0.17,0.41-0.752,0.624-1.744c0.213-0.992,0.319-1.701,0.319-2.128c0-0.789-0.373-1.184-1.12-1.184   c-0.405,0-0.735,0.24-0.991,0.72c-0.257,0.48-0.385,1.264-0.385,2.352s0.021,1.733,0.064,1.936   C21.249,14.414,21.484,14.515,21.911,14.515z" stroke-width="1"/>
</g>
</svg>