<svg xmlns="http://www.w3.org/2000/svg" xmlns:xlink="http://www.w3.org/1999/xlink" version="1.1" id="图层_1" x="0px" y="0px" width="26.343000411987305" height="26.85900115966797" viewBox="3.0439987182617188 1.708998441696167 26.343000411987305 26.85900115966797" enable-background="new 0 0 30 30" xml:space="preserve">
<g>
	<path fill="#0000FF" d="M20.888,11.203c0.192,0,0.555,0.203,1.088,0.608s0.886,0.811,1.057,1.216   c0.17,0.406,0.256,0.699,0.256,0.88s-0.048,0.315-0.145,0.4c-0.096,0.085-0.251,0.128-0.464,0.128h-0.544   c-0.64,0-1.686,0.102-3.136,0.304c-1.451,0.203-2.496,0.534-3.136,0.992c-0.641,0.459-1.206,1.126-1.696,2   c-0.491,0.875-1.248,1.74-2.271,2.593c-0.47,0.405-0.934,0.858-1.393,1.36c-0.459,0.501-0.73,0.848-0.815,1.039   c-0.086,0.192-0.14,0.454-0.16,0.784c-0.021,0.331-0.097,0.561-0.225,0.688s-0.49,0.346-1.088,0.655   c-0.597,0.31-1.227,0.555-1.888,0.736c-0.662,0.181-1.248,0.272-1.76,0.272c-0.683,0-1.024-0.118-1.024-0.353   s0.458-0.587,1.376-1.056c2.005-1.024,3.707-2.453,5.104-4.288c1.396-1.835,2.096-2.987,2.096-3.456c0-0.17-0.06-0.256-0.176-0.256   c-0.118,0-0.229,0.021-0.336,0.064c-0.513,0.148-1.062,0.223-1.648,0.223s-1.222,0.118-1.904,0.353   c-0.683,0.235-1.109,0.479-1.28,0.736c-0.128,0.192-0.293,0.288-0.496,0.288s-0.443-0.272-0.72-0.816   c-0.277-0.544-0.416-0.922-0.416-1.136c0-0.213,0.208-0.356,0.624-0.433c0.416-0.074,1.53-0.368,3.344-0.879   c1.962-0.576,3.05-0.917,3.264-1.024c0.256-0.128,0.49-0.277,0.704-0.448c0.192-0.17,0.341-0.48,0.448-0.928   c0.17-0.661,0.256-1.536,0.256-2.624c0-0.512-0.128-0.768-0.384-0.768c-0.385,0-1.388,0.896-3.009,2.688   c-0.234,0.256-0.438,0.384-0.607,0.384c-0.256,0-0.571-0.362-0.944-1.088c-0.373-0.725-0.56-1.227-0.56-1.504   c0-0.277,0.213-0.405,0.64-0.384c0.213,0.021,0.448,0.032,0.704,0.032s0.587-0.064,0.992-0.192   c1.301-0.405,2.229-0.683,2.784-0.832c0.256-0.064,0.384-0.203,0.384-0.416c0-1.834,0.032-3.136,0.096-3.904   c0.064-0.768,0.117-1.232,0.16-1.392c0.042-0.16,0.122-0.24,0.24-0.24c0.117,0,0.276,0.048,0.479,0.144s0.576,0.171,1.12,0.224   s0.901,0.139,1.072,0.256c0.17,0.118,0.256,0.235,0.256,0.352c0,0.118-0.054,0.24-0.16,0.368c-0.106,0.128-0.197,0.427-0.271,0.896   c-0.075,0.469-0.145,1.195-0.208,2.176c-0.064,0.981-0.097,1.643-0.097,1.984c0,0.342,0.097,0.512,0.288,0.512   c0.256,0,1.558-1.344,3.904-4.032c0.192-0.213,0.362-0.32,0.512-0.32s0.416,0.192,0.8,0.576c0.385,0.384,0.576,0.646,0.576,0.784   c0,0.139-0.096,0.283-0.288,0.432c-0.938,0.704-1.6,1.248-1.983,1.632c-0.981,0.981-2.102,1.899-3.36,2.752   c-0.405,0.256-0.608,0.63-0.608,1.12c0,0.256,0.129,0.384,0.385,0.384c0.085,0,0.49-0.117,1.216-0.352   c0.725-0.235,1.333-0.395,1.824-0.48c0.341-0.042,0.661-0.16,0.96-0.352C20.76,11.225,20.824,11.203,20.888,11.203z M26.872,17.795   c0.234,0,0.576,0.869,1.024,2.607c0.447,1.74,0.688,3.057,0.72,3.953c0.032,0.896,0.085,1.53,0.16,1.903   c0.074,0.373,0.111,0.641,0.111,0.8c0,0.16-0.096,0.288-0.288,0.385c-0.191,0.096-1.184,0.213-2.976,0.352   s-3.243,0.208-4.352,0.208l-1.505-0.032c-0.341,0-0.575,0.017-0.703,0.048c-0.129,0.032-0.225,0.049-0.288,0.049   c-0.428,0-1.142-0.582-2.145-1.744c-1.003-1.163-1.504-2.533-1.504-4.112c0-0.447,0.064-1.023,0.192-1.729   c0.128-0.703,0.202-1.652,0.224-2.848c0.021-0.426,0.117-0.709,0.288-0.848s0.544-0.208,1.12-0.208s0.864,0.117,0.864,0.353   c0,0.127-0.075,0.287-0.225,0.479s-0.256,0.416-0.319,0.672c-0.064,0.256-0.16,0.821-0.288,1.696s-0.192,1.59-0.192,2.144   c0,1.237,0.32,2.074,0.96,2.512s1.557,0.656,2.752,0.656c1.194,0,2.267-0.085,3.216-0.256s1.616-0.518,2-1.04   s0.661-2.021,0.832-4.496C26.616,18.297,26.723,17.795,26.872,17.795z" stroke-width="1"/>
</g>
</svg>