<svg xmlns="http://www.w3.org/2000/svg" xmlns:xlink="http://www.w3.org/1999/xlink" version="1.1" id="图层_1" x="0px" y="0px" width="29.029998779296875" height="28.459007263183594" viewBox="1.5430018901824951 0.5699954032897949 29.029998779296875 28.459007263183594" enable-background="new 0 0 30 30" xml:space="preserve">
<g>
	<path fill="#0000FF" d="M15.927,21.106c0,0.128,0.043,0.235,0.128,0.32s0.593,0.405,1.521,0.96s1.86,1.051,2.8,1.488   c0.938,0.437,1.664,0.709,2.176,0.815c1.28,0.276,2.854,0.757,4.72,1.44c1.867,0.682,2.801,1.162,2.801,1.439   c0,0.148-0.262,0.348-0.784,0.592c-0.523,0.246-1.382,0.369-2.576,0.369c-1.195,0-2.155-0.064-2.88-0.193   c-0.726-0.127-1.643-0.213-2.752-0.256c-0.427-0.021-0.699-0.102-0.816-0.24s-0.208-0.432-0.271-0.879   c-0.128-0.918-0.491-1.638-1.088-2.16c-0.598-0.523-1.644-0.986-3.137-1.393c-0.618-0.17-1.173-0.447-1.664-0.832   c-0.49-0.384-1.247-0.762-2.271-1.136c-1.024-0.373-1.643-0.56-1.856-0.56c-0.213,0-0.432,0.24-0.655,0.72   c-0.225,0.479-0.357,0.837-0.4,1.071c-0.043,0.236-0.144,0.438-0.304,0.609c-0.16,0.17-0.523,0.389-1.088,0.655   c-0.566,0.267-1.254,0.507-2.064,0.72c-0.811,0.213-1.467,0.32-1.968,0.32c-0.501,0-0.87-0.043-1.104-0.128   c-0.235-0.085-0.352-0.203-0.352-0.353c0-0.319,0.416-0.564,1.248-0.735s1.68-0.528,2.544-1.072c0.864-0.544,1.738-1.61,2.624-3.2   c0.885-1.589,1.328-2.544,1.328-2.863c0-0.129-0.069-0.24-0.208-0.336c-0.14-0.097-0.283-0.145-0.433-0.145   s-0.475,0.064-0.976,0.191c-0.502,0.129-1.2,0.236-2.096,0.32c-0.896,0.086-1.445,0.277-1.648,0.576s-0.469,0.448-0.8,0.448   c-0.331,0-0.576-0.197-0.736-0.593c-0.16-0.395-0.24-0.714-0.24-0.959s0.203-0.41,0.608-0.496c1.451-0.299,3.488-0.827,6.112-1.584   c2.624-0.757,5.056-1.285,7.296-1.584c0.213-0.021,0.32-0.106,0.32-0.256c0-0.149-0.348-0.458-1.04-0.928   c-0.694-0.469-1.12-0.704-1.28-0.704s-0.485,0.117-0.977,0.352c-0.49,0.235-0.858,0.48-1.104,0.736s-0.528,0.384-0.848,0.384   c-0.684,0-1.057-0.469-1.12-1.408c-0.043-0.448-0.128-1.035-0.256-1.76c-0.278-1.514-0.416-3.157-0.416-4.928   c0-1.173,0.426-1.76,1.279-1.76c0.385,0,0.949-0.106,1.696-0.32c1.877-0.533,3.521-0.8,4.928-0.8c0.726,0,1.387,0.08,1.984,0.24   c0.597,0.16,0.896,0.39,0.896,0.688c0,0.107-0.069,0.315-0.208,0.624c-0.139,0.31-0.229,0.693-0.271,1.152   c-0.043,0.459-0.107,1.072-0.192,1.84l-0.352,2.752c-0.149,1.109-0.225,1.941-0.225,2.496s0.021,0.896,0.064,1.024   s0.139,0.192,0.288,0.192c0.405,0,1.045-0.117,1.92-0.352c0.192-0.064,0.421-0.096,0.688-0.096c0.266,0,0.501,0.128,0.703,0.384   c0.203,0.256,0.305,0.587,0.305,0.992c0,0.661-0.069,1.088-0.208,1.28c-0.14,0.192-0.476,0.299-1.008,0.32   c-0.513,0-1.318,0.085-2.416,0.256c-1.1,0.171-2.054,0.288-2.864,0.352c-0.363,0.021-0.512,0.149-0.448,0.384   c0.021,0.063,0.053,0.182,0.096,0.353c0.043,0.17,0.106,0.271,0.192,0.303c0.085,0.033,0.309,0.049,0.672,0.049   c0.362,0,0.698-0.027,1.008-0.08s0.518-0.08,0.624-0.08c0.362,0,0.608,0.166,0.736,0.496c0.128,0.331,0.192,0.641,0.192,0.928   c0,0.288-0.07,0.48-0.208,0.576c-0.14,0.096-0.502,0.234-1.089,0.416s-1.242,0.348-1.968,0.496   c-0.171,0.043-0.304,0.123-0.399,0.24c-0.097,0.117-0.192,0.363-0.288,0.736C15.975,20.408,15.927,20.766,15.927,21.106z    M13.687,19.795c0.064,0,0.112-0.032,0.145-0.096c0.032-0.064,0.069-0.353,0.112-0.865c0.042-0.512,0.063-0.976,0.063-1.392   s-0.063-0.837-0.191-1.264c-0.129-0.427-0.331-0.64-0.608-0.64s-0.55,0.031-0.816,0.096s-0.469,0.314-0.607,0.752   c-0.14,0.438-0.208,0.891-0.208,1.359c0,0.32,0.117,0.576,0.352,0.769c0.641,0.47,1.072,0.8,1.296,0.991   C13.447,19.699,13.602,19.795,13.687,19.795z M16.055,10.066c0.171,0,0.31-0.074,0.416-0.224c0.106-0.149,0.16-0.32,0.16-0.512   c0-1.387,0.021-2.491,0.064-3.312c0.042-0.821,0.063-1.435,0.063-1.84s-0.059-0.73-0.176-0.976   c-0.117-0.245-0.331-0.368-0.64-0.368c-0.31,0-0.822,0.149-1.536,0.448c-0.715,0.299-1.072,0.725-1.072,1.28   c0,0.107,0.08,0.187,0.24,0.24s0.293,0.08,0.399,0.08s0.245-0.042,0.416-0.128c0.171-0.085,0.342-0.128,0.513-0.128   c0.404,0,0.607,0.235,0.607,0.704c0,0.854-0.416,1.44-1.248,1.76c-0.319,0.128-0.619,0.288-0.896,0.48   c-0.277,0.192-0.454,0.336-0.528,0.432c-0.075,0.096-0.112,0.267-0.112,0.512c0,0.246,0.182,0.368,0.544,0.368   c0.171,0,0.433-0.042,0.784-0.128c0.353-0.085,0.629-0.128,0.832-0.128s0.357,0.054,0.464,0.16c0.106,0.107,0.192,0.347,0.257,0.72   C15.671,9.88,15.82,10.066,16.055,10.066z" stroke-width="1"/>
</g>
</svg>