<svg xmlns="http://www.w3.org/2000/svg" xmlns:xlink="http://www.w3.org/1999/xlink" version="1.1" id="图层_1" x="0px" y="0px" width="28.009000778198242" height="26.857999801635742" viewBox="0.16200029850006104 1.1510006189346313 28.009000778198242 26.857999801635742" enable-background="new 0 0 30 30" xml:space="preserve">
<g>
	<path fill="#0000FF" d="M10.903,8.979c0.319,0,0.56,0.123,0.72,0.368s0.24,0.475,0.24,0.688c0,0.469-0.24,0.811-0.721,1.024   c-0.479,0.213-0.795,0.427-0.943,0.64c-0.149,0.213-0.225,0.507-0.225,0.88c0,0.374,0.027,0.597,0.08,0.672   c0.054,0.075,0.165,0.166,0.336,0.272c0.747,0.427,1.12,0.928,1.12,1.504c0,0.214-0.069,0.448-0.208,0.704   s-0.271,0.385-0.399,0.385s-0.294-0.037-0.496-0.113c-0.203-0.074-0.363-0.111-0.48-0.111s-0.197,0.074-0.24,0.225   c-0.043,0.148-0.091,0.495-0.144,1.039c-0.054,0.545-0.08,1.008-0.08,1.393l0.032,3.008c0,1.387-0.027,2.586-0.08,3.6   c-0.054,1.014-0.112,1.658-0.176,1.936c-0.064,0.277-0.22,0.416-0.464,0.416c-0.246,0-0.561-0.08-0.944-0.24   c-0.384-0.158-0.576-0.352-0.576-0.575s0.053-0.496,0.16-0.815c0.277-0.812,0.416-2.453,0.416-4.929   c0-0.469-0.016-1.013-0.048-1.632s-0.064-0.96-0.097-1.023c-0.031-0.064-0.079-0.097-0.144-0.097c-0.107,0-0.395,0.24-0.864,0.72   c-0.47,0.48-1.206,1.041-2.208,1.681c-1.003,0.64-1.643,1.062-1.92,1.264c-0.277,0.203-0.528,0.304-0.752,0.304   c-0.224,0-0.469-0.063-0.736-0.191c-0.267-0.129-0.4-0.25-0.4-0.368c0-0.117,0.149-0.245,0.448-0.384s0.704-0.459,1.216-0.961   c0.512-0.5,1.205-1.215,2.08-2.143c0.874-0.929,1.482-1.648,1.824-2.16c0.341-0.513,0.619-1.035,0.832-1.568s0.32-0.848,0.32-0.944   c0-0.096-0.054-0.144-0.16-0.144s-0.539,0.08-1.296,0.24s-1.205,0.256-1.344,0.288c-0.139,0.032-0.331,0.139-0.576,0.32   c-0.245,0.182-0.427,0.272-0.544,0.272s-0.203-0.042-0.256-0.128c-0.054-0.085-0.198-0.522-0.432-1.312   c-0.235-0.789-0.352-1.269-0.352-1.44c0-0.32,0.24-0.491,0.72-0.512c0.48-0.021,1.088-0.106,1.824-0.256   c0.736-0.149,1.264-0.298,1.584-0.448l0.832-0.416C7.639,9.8,7.788,9.619,7.831,9.362l0.128-1.248   c0.085-0.597,0.149-2.091,0.192-4.48c0-0.32,0.053-0.533,0.159-0.64c0.107-0.106,0.299-0.16,0.576-0.16   c0.832,0,1.248,0.203,1.248,0.608c0,0.085-0.032,0.262-0.096,0.528C9.975,4.237,9.943,4.616,9.943,5.106l0.096,3.328   c0,0.235,0.026,0.39,0.08,0.464c0.053,0.075,0.154,0.112,0.304,0.112L10.903,8.979z M26.103,17.011   c0.214,0,0.368,0.063,0.465,0.192c0.096,0.127,0.304,0.564,0.624,1.312c0.319,0.747,0.479,1.2,0.479,1.36s-0.063,0.24-0.192,0.24   c-0.128,0-0.287-0.043-0.479-0.129c-1.088-0.426-2.496-0.64-4.224-0.64c-0.576,0-0.918,0.032-1.024,0.096   c-0.107,0.063-0.31,0.315-0.608,0.752c-0.299,0.438-0.64,0.88-1.023,1.328c-0.171,0.214-0.256,0.374-0.256,0.479   c0,0.107,0.304,0.289,0.912,0.545c0.607,0.256,1.552,0.522,2.832,0.8c0.64,0.128,0.965,0.453,0.976,0.976   c0.011,0.523,0.053,0.992,0.128,1.408c0.074,0.416,0.112,0.709,0.112,0.88c0,0.341-0.102,0.513-0.305,0.513   c-0.202,0-0.527-0.172-0.976-0.513s-0.795-0.592-1.04-0.752c-0.245-0.159-0.763-0.396-1.552-0.704   c-0.79-0.309-1.632-0.73-2.528-1.264c-0.149-0.085-0.288-0.128-0.416-0.128s-0.459,0.171-0.992,0.512s-0.971,0.929-1.312,1.761   c-0.107,0.256-0.235,0.42-0.384,0.496c-0.149,0.074-0.576,0.111-1.28,0.111s-1.456-0.139-2.256-0.416s-1.2-0.523-1.2-0.736   s0.213-0.379,0.64-0.496s1.019-0.24,1.776-0.367c0.757-0.129,1.504-0.4,2.24-0.816c0.735-0.416,1.104-0.699,1.104-0.848   c0-0.107-0.229-0.24-0.688-0.4c-0.459-0.16-0.892-0.271-1.296-0.336c-0.385-0.064-0.576-0.191-0.576-0.385   c0-0.084,0.042-0.18,0.128-0.287c0.427-0.533,0.64-0.917,0.64-1.152c0-0.106-0.08-0.16-0.24-0.16c-0.159,0-0.655,0.054-1.487,0.16   c-0.832,0.107-1.388,0.24-1.664,0.4c-0.277,0.16-0.496,0.24-0.656,0.24s-0.299-0.154-0.416-0.465   C9.97,20.27,9.911,20.04,9.911,19.891c0-0.32,0.314-0.518,0.944-0.592c0.629-0.074,1.359-0.209,2.191-0.4l1.984-0.512   c0.49-0.107,0.82-0.245,0.992-0.416c0.17-0.171,0.352-0.501,0.544-0.992c0.191-0.49,0.288-1.002,0.288-1.536   c0-0.213-0.054-0.32-0.16-0.32c-0.149,0-0.886,0.543-2.208,1.631c-0.428,0.406-0.758,0.652-0.992,0.736   c-0.235,0.086-0.523,0.129-0.864,0.129c-0.342,0-0.512-0.064-0.512-0.192s0.106-0.277,0.32-0.448   c0.938-0.746,1.808-1.557,2.607-2.432c0.8-0.875,1.2-1.349,1.2-1.424c0-0.075-0.064-0.112-0.192-0.112s-0.427,0.091-0.896,0.272   c-0.47,0.181-0.843,0.352-1.12,0.512s-0.48,0.24-0.608,0.24c-0.191,0-0.427-0.304-0.704-0.912s-0.416-1.008-0.416-1.2   c0-0.192,0.171-0.331,0.513-0.416c0.96-0.192,1.803-0.378,2.527-0.56c0.726-0.181,1.125-0.314,1.2-0.4   c0.075-0.085,0.112-0.282,0.112-0.592c0-0.309-0.043-0.464-0.128-0.464c-0.086,0-0.262,0.043-0.528,0.128   c-0.267,0.085-0.522,0.128-0.768,0.128c-0.246,0-0.528-0.059-0.849-0.176c-0.319-0.117-0.512-0.432-0.575-0.944   c-0.064-0.512-0.097-0.853-0.097-1.024c0-0.512,0.128-0.768,0.384-0.768c0.086,0,0.229,0.085,0.433,0.256   c0.202,0.171,0.458,0.315,0.768,0.432c0.31,0.118,0.688,0.421,1.137,0.912c0.021,0.043,0.053,0.064,0.096,0.064   c0.106,0,0.181-0.32,0.224-0.96c0.106-2.048,0.213-3.397,0.32-4.048c0.106-0.651,0.224-1.12,0.352-1.408s0.363-0.432,0.704-0.432   c0.128,0,0.347,0.043,0.656,0.128c0.309,0.086,0.464,0.208,0.464,0.368s-0.043,0.347-0.128,0.56   c-0.235,0.619-0.352,1.696-0.352,3.232c0,1.088,0.068,1.632,0.208,1.632c0.138,0,0.517-0.298,1.136-0.896   c0.618-0.597,1.056-1.066,1.312-1.408c0.106-0.149,0.251-0.224,0.433-0.224c0.181,0,0.421,0.144,0.72,0.432   s0.448,0.507,0.448,0.656c0,0.149-0.107,0.293-0.32,0.432c-0.214,0.139-0.795,0.651-1.744,1.536s-1.488,1.397-1.616,1.536   c-0.128,0.139-0.191,0.23-0.191,0.272c0,0.043,0.037,0.064,0.111,0.064c0.075,0,0.229-0.042,0.465-0.128   c0.98-0.384,1.792-0.576,2.432-0.576c0.405,0,0.64,0.155,0.704,0.464c0.063,0.31,0.096,0.555,0.096,0.736   c0,0.182-0.048,0.315-0.144,0.4c-0.097,0.085-0.464,0.245-1.104,0.48c-0.64,0.235-1.259,0.438-1.855,0.608   c-0.598,0.171-0.934,0.288-1.008,0.352c-0.075,0.064-0.112,0.192-0.112,0.384s0.032,0.32,0.096,0.384   c0.064,0.064,0.49,0.101,1.28,0.112c0.789,0.011,1.392,0.054,1.808,0.128c0.416,0.075,0.704,0.235,0.864,0.48   c0.16,0.246,0.24,0.56,0.24,0.944c0,0.811-0.107,1.217-0.32,1.217c-0.214,0-0.63-0.188-1.248-0.561   c-0.619-0.373-1.04-0.656-1.264-0.848c-0.225-0.192-0.464-0.352-0.721-0.48c-0.256-0.128-0.453-0.192-0.592-0.192   s-0.208,0.149-0.208,0.448c0,0.619-0.011,1.163-0.031,1.632l-0.064,1.215c0,0.192,0.032,0.32,0.096,0.385   c0.064,0.064,0.24,0.096,0.528,0.096s0.522-0.043,0.704-0.128c0.181-0.085,0.325-0.234,0.432-0.448   c0.106-0.213,0.256-0.32,0.448-0.32s0.56,0.113,1.104,0.336c0.545,0.225,0.987,0.337,1.328,0.337c0.661,0,1.265-0.069,1.809-0.208   S25.932,17.011,26.103,17.011z M17.495,21.522c0.277,0,0.564-0.229,0.864-0.688c0.298-0.458,0.447-0.752,0.447-0.879   c0-0.129-0.144-0.192-0.432-0.192s-0.603,0.026-0.944,0.079c-0.341,0.055-0.555,0.123-0.64,0.209   c-0.086,0.086-0.192,0.262-0.32,0.527c-0.128,0.268-0.191,0.448-0.191,0.545c0,0.096,0.187,0.187,0.56,0.271   C17.212,21.48,17.431,21.522,17.495,21.522z" stroke-width="1"/>
</g>
</svg>