<svg xmlns="http://www.w3.org/2000/svg" xmlns:xlink="http://www.w3.org/1999/xlink" version="1.1" id="图层_1" x="0px" y="0px" width="26.088001251220703" height="22.66400146484375" viewBox="0.9309984445571899 3.550999641418457 26.088001251220703 22.66400146484375" enable-background="new 0 0 30 30" xml:space="preserve">
<g>
	<path fill="#0000FF" d="M26.519,24.179c0,0.661-0.181,0.991-0.544,0.991c-0.171,0-0.405-0.074-0.704-0.224   c-1.173-0.597-2.261-1.008-3.264-1.231c-1.003-0.225-2.187-0.336-3.552-0.336c-1.899,0-4.453,0.154-7.664,0.463   c-3.211,0.31-5.264,0.571-6.16,0.785c-0.896,0.213-1.579,0.5-2.048,0.863c-0.192,0.149-0.357,0.225-0.496,0.225   c-0.139,0-0.283-0.342-0.432-1.024s-0.224-1.093-0.224-1.231s0.037-0.225,0.112-0.256c0.075-0.033,0.219-0.049,0.432-0.049   c0.661,0,1.744-0.191,3.248-0.576c1.504-0.384,2.853-0.688,4.047-0.912c1.195-0.224,1.947-0.356,2.257-0.399   c0.309-0.042,0.506-0.149,0.592-0.32c0.085-0.171,0.187-0.991,0.304-2.464c0.117-1.472,0.176-2.304,0.176-2.496   c0-0.191-0.091-0.287-0.271-0.287c-0.182,0-0.539,0.063-1.072,0.191s-0.907,0.268-1.12,0.416c-0.213,0.149-0.373,0.225-0.479,0.225   c-0.277,0-0.576-0.395-0.896-1.185c-0.319-0.789-0.479-1.339-0.479-1.648s0.191-0.464,0.576-0.464c0.384,0,0.81-0.042,1.279-0.128   c0.448-0.106,1.216-0.203,2.305-0.288c0.128,0,0.202-0.069,0.224-0.208c0.021-0.138,0.032-0.56,0.032-1.264   c0-0.704-0.012-1.344-0.032-1.92c-0.021-0.576-0.043-0.88-0.064-0.912c-0.021-0.032-0.128-0.048-0.319-0.048   c-0.192,0-0.678,0.043-1.456,0.128c-0.779,0.085-1.36,0.192-1.744,0.32S8.338,9.106,8.007,9.106s-0.512-0.24-0.544-0.72   S7.335,7.47,7.175,7.075c-0.16-0.395-0.24-0.699-0.24-0.912c0-0.213,0.181-0.32,0.543-0.32l1.185,0.032   c1.131,0,3.21-0.25,6.24-0.752c3.028-0.501,4.677-0.805,4.943-0.912c0.267-0.106,0.433-0.16,0.496-0.16   c0.213,0,0.48,0.347,0.8,1.04c0.32,0.694,0.48,1.142,0.48,1.344c0,0.203-0.182,0.326-0.544,0.368   c-1.195,0.171-2.134,0.384-2.816,0.64c-0.683,0.256-1.344,0.459-1.983,0.608c-0.171,0.043-0.283,0.123-0.336,0.24   c-0.054,0.118-0.123,0.731-0.208,1.84c-0.086,1.11-0.128,1.686-0.128,1.728c0,0.192,0.154,0.256,0.464,0.192   c0.309-0.064,0.805-0.133,1.487-0.208c0.683-0.074,1.185-0.149,1.505-0.224c0.319-0.075,0.532-0.112,0.64-0.112   c0.299,0,0.448,0.182,0.448,0.544c0,0.363-0.017,0.71-0.049,1.04c-0.031,0.331-0.197,0.576-0.495,0.736   c-0.3,0.16-0.769,0.357-1.408,0.592c-0.641,0.235-1.44,0.48-2.4,0.736c-0.234,0.043-0.357,0.15-0.368,0.32   c-0.011,0.171-0.016,0.544-0.016,1.12c0,0.575,0.016,1.36,0.048,2.352c0.032,0.992,0.08,1.552,0.145,1.681   c0.063,0.127,0.293,0.187,0.688,0.176s0.795-0.016,1.2-0.016c1.621,0,3.056,0.074,4.304,0.224s2.272,0.239,3.072,0.272   c0.8,0.031,1.227,0.266,1.28,0.703c0.053,0.438,0.128,0.848,0.224,1.232C26.471,23.603,26.519,23.922,26.519,24.179z    M23.575,17.906c0,0.832-0.235,1.248-0.704,1.248c-0.128,0-0.304-0.043-0.528-0.128c-0.224-0.085-0.485-0.138-0.784-0.159   c-0.597-0.064-1.029-0.289-1.296-0.673s-0.399-0.96-0.399-1.728c0-1.109,0.33-1.664,0.992-1.664c0.298,0,0.506,0.149,0.623,0.448   s0.496,0.705,1.137,1.216C23.255,16.979,23.575,17.459,23.575,17.906z" stroke-width="1"/>
</g>
</svg>