<svg xmlns="http://www.w3.org/2000/svg" xmlns:xlink="http://www.w3.org/1999/xlink" version="1.1" id="图层_1" x="0px" y="0px" width="26.023000717163086" height="29.44900131225586" viewBox="1.6670002937316895 0.7659988403320312 26.023000717163086 29.44900131225586" enable-background="new 0 0 30 30" xml:space="preserve">
<g>
	<path fill="#0000FF" d="M11.415,8.851c0,0.107-0.075,0.235-0.224,0.384c-0.15,0.149-0.32,0.422-0.513,0.816   c-0.191,0.395-0.411,0.694-0.655,0.896c-0.246,0.203-0.396,0.411-0.448,0.624c-0.054,0.214-0.08,0.544-0.08,0.992   c0,0.448-0.054,0.747-0.16,0.896c-0.107,0.149-0.373,0.246-0.8,0.288c-0.427,0.043-1.008,0.171-1.744,0.384   c-0.736,0.214-1.195,0.384-1.376,0.512c-0.182,0.128-0.32,0.192-0.416,0.192s-0.288-0.106-0.576-0.32   c-0.288-0.213-0.619-0.661-0.992-1.344c-0.374-0.683-0.608-1.242-0.704-1.68c-0.096-0.437-0.213-0.853-0.352-1.248   c-0.139-0.395-0.208-0.73-0.208-1.008c0-0.277,0.16-0.448,0.48-0.512C3.18,8.595,3.692,8.43,4.183,8.227   c0.49-0.203,1.04-0.357,1.648-0.464C6.439,7.656,6.908,7.56,7.239,7.475c0.33-0.085,0.725-0.128,1.184-0.128s1.072,0.187,1.84,0.56   C11.031,8.28,11.415,8.595,11.415,8.851z M25.527,20.211c0.213,0,0.373,0.085,0.479,0.256c0.192,0.342,0.438,0.629,0.736,0.863   c0.298,0.235,0.448,0.844,0.448,1.824c0,0.385-0.128,0.576-0.385,0.576c-0.256,0-0.672-0.096-1.248-0.288   c-0.981-0.319-1.92-0.479-2.815-0.479c-0.896,0-2.235,0.111-4.017,0.336c-1.781,0.224-3.019,0.41-3.712,0.56   s-1.088,0.245-1.184,0.288s-0.155,0.117-0.176,0.225c-0.021,0.105-0.032,0.629-0.032,1.567s0.011,1.601,0.032,1.983l0.063,0.928   c0,0.576-0.368,0.865-1.104,0.865c-0.736,0-1.104-0.203-1.104-0.607c0-0.086,0.021-0.172,0.064-0.258   c0.106-0.256,0.16-0.672,0.16-1.248l-0.064-3.807c0-2.965,0.064-5.419,0.192-7.36l0.16-2.816c0-0.192-0.032-0.288-0.097-0.288   c-0.063,0-0.176,0.133-0.336,0.4c-0.16,0.267-0.442,0.704-0.848,1.312s-0.656,1.045-0.752,1.312   c-0.097,0.267-0.145,0.614-0.145,1.04c0,0.427-0.074,0.779-0.224,1.057s-0.576,0.693-1.28,1.248s-1.349,0.965-1.936,1.231   C5.82,21.197,5.308,21.33,4.871,21.33c-0.438,0-0.656-0.096-0.656-0.287c0-0.107,0.091-0.277,0.272-0.512   c0.181-0.235,0.667-0.773,1.456-1.617c0.789-0.842,1.397-1.455,1.824-1.84c0.641-0.576,1.686-2.154,3.137-4.736   c1.45-2.581,2.373-4.464,2.768-5.648s0.715-2.069,0.96-2.656c0.245-0.586,0.464-1.264,0.656-2.032   c0.106-0.49,0.341-0.736,0.704-0.736c0.362,0,0.752,0.102,1.168,0.304c0.416,0.203,0.629,0.384,0.64,0.544   c0.011,0.16-0.043,0.304-0.16,0.432s-0.271,0.443-0.464,0.944c-0.191,0.501-0.347,0.981-0.464,1.44   c-0.117,0.459-0.4,1.168-0.848,2.128c-0.448,0.96-0.844,1.632-1.185,2.016c-0.063,0.085-0.123,0.283-0.176,0.592   c-0.054,0.31-0.08,0.549-0.08,0.72s0.145,0.256,0.433,0.256c0.287,0,0.976-0.165,2.063-0.496c1.088-0.331,1.994-0.56,2.72-0.688   s1.627-0.24,2.704-0.336s1.738-0.144,1.984-0.144c0.245,0,0.448,0.059,0.607,0.176c0.16,0.118,0.24,0.342,0.24,0.672   c0,0.331-0.059,0.544-0.176,0.64c-0.117,0.096-0.48,0.224-1.088,0.384c-0.608,0.16-1.275,0.315-2,0.464   c-0.192,0.043-0.325,0.139-0.4,0.288c-0.075,0.149-0.111,0.341-0.111,0.576s0.021,0.368,0.063,0.4c0.043,0.032,0.181,0.032,0.416,0   c0.234-0.032,0.618-0.048,1.152-0.048c0.533,0,0.832,0.027,0.896,0.08c0.064,0.054,0.097,0.166,0.097,0.336   c0,0.171-0.032,0.368-0.097,0.592c-0.063,0.224-0.144,0.379-0.24,0.464c-0.096,0.085-0.379,0.229-0.848,0.432   c-0.47,0.203-0.832,0.336-1.088,0.4s-0.405,0.16-0.448,0.288s-0.063,0.326-0.063,0.592s0.016,0.427,0.048,0.479   c0.032,0.054,0.144,0.063,0.336,0.032c0.192-0.032,0.49-0.048,0.896-0.048s0.688,0.032,0.849,0.096s0.24,0.224,0.24,0.479   c0,0.662-0.102,1.057-0.305,1.185s-0.56,0.267-1.071,0.416c-0.513,0.149-0.822,0.256-0.929,0.319   c-0.106,0.064-0.16,0.619-0.16,1.664c0,0.215,0.106,0.32,0.32,0.32c0.213,0,0.789-0.048,1.729-0.144   c0.938-0.097,1.535-0.171,1.792-0.224C25.239,20.237,25.42,20.211,25.527,20.211z M5.783,11.858c0.213,0,0.528-0.123,0.944-0.368   s0.693-0.587,0.832-1.024c0.139-0.437,0.208-0.752,0.208-0.944c0-0.448-0.277-0.672-0.832-0.672c-0.555,0-0.965,0.166-1.232,0.496   c-0.267,0.331-0.4,0.891-0.4,1.68C5.303,11.582,5.463,11.858,5.783,11.858z M15.639,13.938c0.234,0,0.721-0.059,1.456-0.176   c0.736-0.117,1.157-0.229,1.265-0.336c0.106-0.107,0.159-0.411,0.159-0.912c0-0.501-0.101-0.73-0.304-0.688   c-0.203,0.043-0.581,0.069-1.136,0.08s-1.109,0.075-1.664,0.192s-0.886,0.224-0.992,0.32c-0.106,0.096-0.187,0.267-0.24,0.512   c-0.053,0.245-0.111,0.731-0.176,1.456c-0.063,0.725-0.134,1.915-0.208,3.568c-0.075,1.652-0.112,2.896-0.112,3.728   c0,0.319,0.129,0.448,0.385,0.384c1.236-0.299,2.181-0.512,2.832-0.64c0.65-0.128,1.008-0.229,1.071-0.304   c0.064-0.075,0.128-0.604,0.192-1.584c0-0.149-0.139-0.225-0.416-0.225c-0.704,0-1.216,0.075-1.536,0.225   c-0.32,0.148-0.522,0.224-0.607,0.224c-0.235,0-0.4-0.177-0.496-0.528c-0.097-0.352-0.145-0.725-0.145-1.119   s0.171-0.593,0.512-0.593l0.545,0.063c0.256,0,0.682-0.096,1.279-0.287c0.598-0.192,0.938-0.347,1.024-0.465   c0.085-0.117,0.128-0.373,0.128-0.768s-0.064-0.592-0.192-0.592s-0.49,0.069-1.088,0.208s-0.981,0.245-1.151,0.319   c-0.172,0.076-0.331,0.113-0.48,0.113s-0.277-0.235-0.384-0.705c-0.107-0.469-0.16-0.8-0.16-0.992s0.048-0.32,0.144-0.384   C15.239,13.971,15.404,13.938,15.639,13.938z M19.863,3.667c0.362,0,0.64,0.246,0.832,0.736c0.128,0.299,0.532,0.981,1.216,2.048   c0.234,0.363,0.352,0.629,0.352,0.8c0,0.363-0.427,0.544-1.279,0.544c-0.428,0-0.859-0.085-1.297-0.256   c-0.438-0.17-0.693-0.405-0.768-0.704c-0.075-0.298-0.112-0.65-0.112-1.056c0-0.405,0.08-0.858,0.24-1.36   C19.207,3.917,19.479,3.667,19.863,3.667z" stroke-width="1"/>
</g>
</svg>