<svg xmlns="http://www.w3.org/2000/svg" xmlns:xlink="http://www.w3.org/1999/xlink" version="1.1" id="图层_1" x="0px" y="0px" width="29.511999130249023" height="26.633996963500977" viewBox="0.7390000820159912 0.9580014944076538 29.511999130249023 26.633996963500977" enable-background="new 0 0 30 30" xml:space="preserve">
<g>
	<path fill="#0000FF" d="M29.751,16.371c0,0.319-0.581,0.479-1.744,0.479s-2.459-0.08-3.888-0.24   c-1.43-0.159-2.197-0.319-2.304-0.479c-0.107-0.16-0.172-0.496-0.192-1.008c-0.064-1.792-1.024-3.157-2.88-4.096   c-0.747-0.384-1.941-1.237-3.584-2.56c-0.684-0.576-1.228-0.864-1.632-0.864c-0.406,0-0.742,0.08-1.009,0.24   c-0.267,0.16-0.811,0.64-1.632,1.44c-0.821,0.8-1.285,1.275-1.392,1.424c-0.107,0.149-0.16,0.272-0.16,0.368   c0,0.096,0.069,0.144,0.208,0.144s0.475-0.064,1.008-0.192c3.093-0.832,4.896-1.248,5.408-1.248s0.811,0.075,0.896,0.224   c0.085,0.149,0.128,0.427,0.128,0.832c0,0.406-0.097,0.688-0.288,0.848c-0.192,0.16-0.641,0.421-1.345,0.784   c-0.49,0.235-0.735,0.736-0.735,1.504c0,0.299,0.085,0.448,0.256,0.448c0.17,0,0.629-0.09,1.376-0.272   c0.746-0.181,1.237-0.309,1.472-0.384s0.405-0.112,0.513-0.112c0.276,0,0.538,0.224,0.783,0.672   c0.245,0.448,0.368,0.837,0.368,1.168s-0.037,0.544-0.112,0.64c-0.074,0.096-0.251,0.144-0.527,0.144l-1.152-0.063   c-0.576,0-1.211,0.144-1.904,0.432s-1.104,0.475-1.231,0.561c-0.128,0.085-0.192,0.287-0.192,0.607s0.048,0.523,0.145,0.607   c0.096,0.086,0.325,0.097,0.688,0.033c0.362-0.064,0.843-0.097,1.44-0.097c0.597,0,1.312,0.171,2.144,0.513   c0.832,0.341,1.402,0.603,1.712,0.783c0.31,0.182,0.465,0.39,0.465,0.624c0,0.149-0.172,0.448-0.513,0.896   c-0.854,1.174-1.435,2.055-1.744,2.641s-0.475,1.099-0.496,1.536c-0.021,0.437-0.122,0.692-0.304,0.769   c-0.182,0.074-0.678,0.111-1.488,0.111c-1.535,0-2.811,0.145-3.823,0.432c-1.014,0.288-1.563,0.432-1.648,0.432   s-0.197-0.123-0.336-0.367c-0.139-0.246-0.432-0.539-0.88-0.881c-0.448-0.341-0.955-1.098-1.521-2.271   c-0.565-1.173-0.848-1.898-0.848-2.176s0.074-0.496,0.224-0.656s0.598-0.367,1.345-0.623c0.746-0.257,1.396-0.459,1.952-0.609   c0.64-0.17,0.96-0.692,0.96-1.567c0-0.213-0.086-0.319-0.257-0.319c-0.341,0-1.237,0.234-2.688,0.703   c-0.299,0.107-0.544,0.16-0.736,0.16c-0.191,0-0.411-0.219-0.655-0.656c-0.246-0.437-0.369-0.752-0.369-0.943   c0-0.385,0.298-0.619,0.896-0.704s1.322-0.261,2.176-0.528c0.854-0.267,1.354-0.416,1.505-0.448   c0.148-0.032,0.261-0.091,0.336-0.176c0.074-0.085,0.111-0.234,0.111-0.448c0-0.597-0.123-0.896-0.368-0.896   s-0.646,0.107-1.199,0.32c-0.107,0.043-0.192,0.064-0.256,0.064c-0.3,0-0.79-0.522-1.473-1.568   c-0.106-0.17-0.234-0.256-0.384-0.256c-0.235,0-0.624,0.448-1.168,1.344S6.38,15.038,6.359,15.25   c-0.021,0.213-0.096,0.406-0.224,0.576c-0.128,0.172-0.507,0.476-1.136,0.912c-0.629,0.438-1.168,0.736-1.616,0.896   c-0.448,0.16-0.875,0.24-1.28,0.24c-0.406,0-0.651-0.027-0.736-0.08c-0.086-0.053-0.128-0.133-0.128-0.24   c0-0.448,0.949-1.396,2.848-2.848c0.576-0.469,1.051-0.907,1.424-1.312c0.373-0.405,0.981-1.179,1.824-2.32s1.696-2.427,2.56-3.856   c0.864-1.429,1.648-2.693,2.353-3.792s1.109-1.701,1.216-1.808c0.106-0.106,0.256-0.16,0.448-0.16c0.191,0,0.507,0.091,0.944,0.272   c0.437,0.182,0.655,0.39,0.655,0.624c0,0.235-0.096,0.427-0.288,0.576c-0.362,0.299-0.544,0.667-0.544,1.104   c0,0.438,0.277,1.062,0.832,1.872s1.43,1.68,2.624,2.608c1.194,0.928,2.433,1.958,3.712,3.088c1.28,1.131,2.475,1.888,3.584,2.272   s2.106,0.832,2.992,1.344C29.308,15.73,29.751,16.115,29.751,16.371z M15.927,21.586c0-0.383-0.096-0.65-0.288-0.799   c-0.191-0.149-0.507-0.225-0.943-0.225c-0.438,0-0.96,0.117-1.568,0.352c-0.608,0.235-1.275,0.428-2,0.576   c-0.491,0.107-0.736,0.406-0.736,0.896c0,0.256,0.085,0.635,0.257,1.136c0.17,0.501,0.378,0.752,0.623,0.752   s0.907-0.134,1.984-0.399c1.077-0.268,1.792-0.604,2.145-1.008C15.751,22.461,15.927,22.035,15.927,21.586z" stroke-width="1"/>
</g>
</svg>