<svg xmlns="http://www.w3.org/2000/svg" xmlns:xlink="http://www.w3.org/1999/xlink" version="1.1" id="图层_1" x="0px" y="0px" width="27.465002059936523" height="24.236003875732422" viewBox="-0.5740008056163788 1.979996919631958 27.465002059936523 24.236003875732422" enable-background="new 0 0 30 30" xml:space="preserve">
<g>
	<path fill="#0000FF" d="M8.087,15.858c0,0.235,0.133,0.454,0.4,0.656c0.267,0.202,1.093,0.613,2.479,1.231   c0.469,0.192,0.704,0.758,0.704,1.696c0,0.683-0.165,1.265-0.496,1.744s-0.592,0.72-0.784,0.72c-0.191,0-0.362-0.17-0.512-0.512   c-0.277-0.661-0.704-1.402-1.28-2.225c-0.575-0.82-0.971-1.231-1.184-1.231c-0.214,0-0.523,0.304-0.928,0.912   s-0.608,1.131-0.608,1.567c0,0.438-0.096,0.773-0.288,1.009c-0.192,0.235-0.683,0.618-1.472,1.151   c-0.79,0.533-1.478,0.875-2.064,1.024c-0.587,0.149-1.168,0.224-1.744,0.224c-0.256,0-0.384-0.063-0.384-0.191   c0-0.213,0.853-0.981,2.56-2.305c1.088-0.853,2-1.94,2.736-3.264c0.736-1.322,1.227-3.093,1.472-5.312   c0.245-2.218,0.368-5.376,0.368-9.472c0-0.363,0.053-0.587,0.16-0.672c0.106-0.085,0.342-0.128,0.704-0.128s0.763,0.07,1.2,0.208   C9.564,2.83,9.783,2.979,9.783,3.139c0,0.16-0.086,0.357-0.256,0.592C9.441,3.858,9.372,4.307,9.319,5.075   c-0.054,0.768-0.08,1.653-0.08,2.656c0,0.384,0.111,0.582,0.336,0.592c0.224,0.011,0.496,0.016,0.815,0.016   c0.32,0,0.55,0.032,0.688,0.096s0.25,0.235,0.336,0.512c0.085,0.278,0.128,0.496,0.128,0.656s-0.16,0.368-0.479,0.624   c-0.32,0.256-0.747,0.667-1.28,1.232c-0.534,0.565-0.854,0.939-0.96,1.12c-0.107,0.182-0.192,0.475-0.256,0.88   c-0.064,0.406-0.16,0.87-0.288,1.392C8.151,15.374,8.087,15.709,8.087,15.858z M5.143,10.163c0,0.085-0.021,0.197-0.064,0.336   c-0.043,0.139-0.054,0.432-0.032,0.88v1.312c0,0.555-0.059,1.163-0.176,1.824c-0.118,0.661-0.224,1.071-0.32,1.231   c-0.096,0.16-0.32,0.24-0.672,0.24s-0.88-0.101-1.584-0.304c-0.704-0.203-1.056-0.475-1.056-0.816c0-0.192,0.117-0.379,0.352-0.56   s0.464-0.517,0.688-1.008c0.224-0.49,0.592-1.146,1.104-1.968c0.512-0.821,0.843-1.296,0.992-1.424   c0.149-0.128,0.288-0.192,0.416-0.192C5.025,9.714,5.143,9.864,5.143,10.163z M26.391,7.955c0,0.149-0.063,0.299-0.191,0.448   c-0.277,0.363-0.416,0.992-0.416,1.888c0,3.904-0.038,6.176-0.112,6.816c-0.075,0.64-0.112,1.333-0.112,2.08   c0,2.304,0.128,4.075,0.385,5.312c0.042,0.213,0.063,0.395,0.063,0.545c0,0.447-0.139,0.672-0.416,0.672   c-0.171,0-0.843-0.368-2.016-1.104c-1.174-0.735-2.219-1.552-3.136-2.448c-0.32-0.32-0.588-0.479-0.801-0.479   c-0.299,0-1.179,0.144-2.64,0.433c-1.462,0.287-2.396,0.58-2.8,0.879c-0.235,0.172-0.396,0.256-0.48,0.256   c-0.319,0-0.667-0.799-1.04-2.399s-0.56-3.381-0.56-5.345c0-0.383,0.011-0.682,0.032-0.896c0.148-1.088,0.234-2.667,0.256-4.736   c0-0.362,0.074-0.672,0.224-0.928c0.149-0.256,0.368-0.394,0.656-0.416s0.624-0.117,1.008-0.288c2.986-1.173,5.568-1.76,7.744-1.76   c0.725,0,1.632,0.144,2.72,0.432S26.391,7.549,26.391,7.955z M14.423,18.002c0.213,0,0.555-0.176,1.024-0.527   c0.469-0.352,0.837-0.88,1.104-1.584s0.4-1.152,0.4-1.344s-0.06-0.288-0.176-0.288c-0.118,0-0.326,0.038-0.624,0.112   c-0.3,0.075-0.598,0.112-0.896,0.112s-0.501,0.059-0.607,0.176c-0.107,0.117-0.22,0.491-0.337,1.12   c-0.117,0.63-0.176,1.157-0.176,1.584S14.231,18.002,14.423,18.002z M22.743,21.906c0.191,0,0.325-0.096,0.399-0.287   c0.075-0.192,0.112-0.613,0.112-1.265c0-0.65-0.032-2.272-0.096-4.864c-0.064-2.592-0.149-4.427-0.256-5.504   c-0.107-1.077-0.443-1.701-1.009-1.872s-1.013-0.256-1.344-0.256s-0.815,0.096-1.456,0.288c-0.64,0.192-0.96,0.363-0.96,0.512   c0,0.107,0.272,0.235,0.816,0.384c0.544,0.149,0.815,0.374,0.815,0.672c0,0.064-0.026,0.171-0.08,0.32   c-0.053,0.149-0.079,0.389-0.079,0.72c0,0.331,0.079,0.496,0.239,0.496s0.385-0.059,0.672-0.176   c0.288-0.117,0.491-0.235,0.608-0.352s0.245-0.176,0.384-0.176s0.314,0.214,0.528,0.64c0.213,0.427,0.32,0.768,0.32,1.024   c0,0.534-0.576,0.928-1.729,1.184c-0.683,0.149-1.099,0.299-1.248,0.448c-0.149,0.15-0.224,0.416-0.224,0.8   c0,0.149,0.053,0.256,0.16,0.32c0.106,0.064,0.458,0.166,1.056,0.304c0.597,0.139,1.008,0.277,1.232,0.416   c0.224,0.139,0.399,0.315,0.527,0.528s0.192,0.564,0.192,1.056s-0.08,0.858-0.24,1.104c-0.16,0.245-0.288,0.367-0.384,0.367   s-0.229-0.085-0.4-0.256c-0.619-0.683-1.146-1.184-1.584-1.504s-0.735-0.48-0.896-0.48s-0.348,0.118-0.561,0.353   c-0.598,0.619-1.142,1.067-1.632,1.344c-0.491,0.278-0.981,0.416-1.472,0.416c-0.491,0-0.779,0.038-0.864,0.112   s-0.128,0.197-0.128,0.367l0.064,0.513c0.042,0.448,0.202,0.672,0.479,0.672c0.085,0,0.202-0.011,0.353-0.032   c2.495-0.49,4.074-0.736,4.735-0.736c0.427,0,0.736,0.08,0.928,0.24c0.192,0.16,0.363,0.448,0.513,0.864   c0.148,0.416,0.267,0.678,0.352,0.784c0.085,0.107,0.256,0.219,0.512,0.336C22.359,21.848,22.572,21.906,22.743,21.906z    M15.223,12.754c0.213,0,0.55-0.064,1.009-0.192c0.458-0.128,0.74-0.234,0.848-0.32c0.106-0.085,0.176-0.245,0.208-0.48   s0.048-0.629,0.048-1.184s-0.027-0.938-0.08-1.152c-0.054-0.213-0.165-0.32-0.336-0.32s-0.448,0.08-0.832,0.24   c-0.384,0.16-0.64,0.288-0.768,0.384s-0.192,0.24-0.192,0.432v0.576c0,0.299-0.048,0.576-0.144,0.832   c-0.097,0.256-0.145,0.518-0.145,0.784C14.839,12.622,14.967,12.754,15.223,12.754z" stroke-width="1"/>
</g>
</svg>