<svg xmlns="http://www.w3.org/2000/svg" xmlns:xlink="http://www.w3.org/1999/xlink" version="1.1" id="图层_1" x="0px" y="0px" width="24.295000076293945" height="30.281999588012695" viewBox="1.7119946479797363 -0.42299944162368774 24.295000076293945 30.281999588012695" style="enable-background:new 0 0 30 30;" xml:space="preserve">
  <g>
    <g>
      <path style="fill:#0000FF;" d="M13.862,15.469c0-0.277-0.149-0.384-0.448-0.32c-0.299,0.064-0.64,0.112-1.024,0.144&#13;&#10;&#9;&#9;c-0.384,0.032-0.789,0.123-1.216,0.272c-1.173,0.448-2.026,0.672-2.56,0.672c-0.32,0-0.556-0.105-0.704-0.32&#13;&#10;&#9;&#9;c-0.405-0.597-0.71-0.997-0.912-1.2c-0.203-0.203-0.304-0.357-0.304-0.464s0.106-0.213,0.319-0.32&#13;&#10;&#9;&#9;c0.213-0.106,0.368-0.224,0.464-0.352c0.097-0.128,0.571-0.64,1.425-1.536c0.276-0.299,0.688-0.88,1.231-1.744&#13;&#10;&#9;&#9;c0.544-0.864,0.816-1.381,0.816-1.552c0-0.149-0.208-0.224-0.624-0.224s-0.72,0.091-0.912,0.272s-0.352,0.272-0.48,0.272&#13;&#10;&#9;&#9;c-0.277,0-0.527-0.325-0.752-0.976C7.958,7.442,7.846,6.93,7.846,6.557c0-0.373,0.192-0.56,0.576-0.56l0.384,0.032&#13;&#10;&#9;&#9;c0.257,0,0.864-0.101,1.824-0.304c0.96-0.203,1.515-0.331,1.664-0.384s0.256-0.128,0.32-0.224c0.063-0.096,0.304-0.645,0.72-1.648&#13;&#10;&#9;&#9;c0.416-1.002,0.741-1.818,0.976-2.448c0.235-0.629,0.485-0.944,0.753-0.944c0.266,0,0.58,0.075,0.943,0.224&#13;&#10;&#9;&#9;C16.368,0.45,16.55,0.6,16.55,0.749c0,0.149-0.054,0.283-0.16,0.4S16.07,1.81,15.75,2.781s-0.479,1.542-0.479,1.712&#13;&#10;&#9;&#9;c0,0.171,0.053,0.256,0.159,0.256s0.726-0.106,1.856-0.32c1.131-0.213,1.877-0.32,2.24-0.32c0.362,0,0.64,0.027,0.832,0.08&#13;&#10;&#9;&#9;c0.191,0.054,0.288,0.219,0.288,0.496c0,0.278-0.038,0.619-0.112,1.024c-0.075,0.406-0.229,0.667-0.464,0.784&#13;&#10;&#9;&#9;c-0.235,0.118-1.003,0.411-2.305,0.88c-1.301,0.47-2.399,0.822-3.296,1.056c-0.341,0.085-0.587,0.256-0.735,0.512&#13;&#10;&#9;&#9;c-0.534,0.896-1.088,1.771-1.664,2.624c-0.149,0.214-0.225,0.395-0.225,0.544s0.085,0.224,0.256,0.224s0.496-0.069,0.977-0.208&#13;&#10;&#9;&#9;c0.479-0.138,0.763-0.24,0.848-0.304s0.154-0.373,0.208-0.928c0.054-0.554,0.133-0.896,0.24-1.024&#13;&#10;&#9;&#9;c0.106-0.128,0.437-0.192,0.992-0.192c0.555,0,0.992,0.032,1.312,0.096c0.32,0.064,0.48,0.166,0.48,0.304&#13;&#10;&#9;&#9;c0,0.139-0.032,0.293-0.096,0.464c-0.064,0.171-0.097,0.32-0.097,0.448s0.117,0.182,0.353,0.16c0.64-0.064,1.264-0.096,1.872-0.096&#13;&#10;&#9;&#9;c0.607,0,0.976,0.027,1.104,0.08s0.192,0.219,0.192,0.496c0,0.811-0.118,1.285-0.353,1.424c-0.234,0.139-1.248,0.475-3.04,1.008&#13;&#10;&#9;&#9;c-0.213,0.085-0.352,0.198-0.416,0.336c-0.063,0.139-0.096,0.422-0.096,0.848l-0.064,1.184c0,0.149,0.037,0.239,0.112,0.272&#13;&#10;&#9;&#9;c0.074,0.031,0.229,0.037,0.464,0.016c2.325-0.385,3.889-0.598,4.688-0.641c0.8-0.042,1.349-0.09,1.647-0.144&#13;&#10;&#9;&#9;c0.299-0.053,0.518-0.08,0.656-0.08s0.251,0.043,0.336,0.128c0.085,0.086,0.234,0.31,0.448,0.672&#13;&#10;&#9;&#9;c0.213,0.363,0.373,0.699,0.479,1.008c0.106,0.311,0.16,0.593,0.16,0.849c0,0.533-0.128,0.8-0.384,0.8s-0.587-0.096-0.992-0.288&#13;&#10;&#9;&#9;c-0.832-0.405-1.787-0.608-2.863-0.608c-1.078,0-1.979,0.118-2.704,0.353c-0.726,0.235-1.388,0.427-1.984,0.576&#13;&#10;&#9;&#9;c-0.192,0.043-0.31,0.106-0.352,0.192c-0.043,0.085-0.129,0.655-0.257,1.711c-0.128,1.057-0.191,2.182-0.191,3.377&#13;&#10;&#9;&#9;c0,1.194,0.042,2.117,0.128,2.768c0.085,0.65,0.128,1.099,0.128,1.344s-0.069,0.41-0.208,0.496s-0.384,0.129-0.736,0.129&#13;&#10;&#9;&#9;c-0.352,0-0.587-0.08-0.704-0.24s-0.176-0.412-0.176-0.752V27.66c0-0.917-0.048-1.893-0.144-2.928&#13;&#10;&#9;&#9;c-0.097-1.034-0.166-2.49-0.208-4.367c0-0.277-0.128-0.416-0.385-0.416l-1.983,0.16c-0.875,0.063-2.145,0.106-3.809,0.127&#13;&#10;&#9;&#9;c-1.663,0.021-2.965,0.311-3.903,0.864c-0.384,0.235-0.672,0.353-0.864,0.353s-0.357-0.24-0.496-0.721&#13;&#10;&#9;&#9;c-0.139-0.479-0.208-0.805-0.208-0.976s0.059-0.282,0.176-0.336c0.117-0.054,0.389-0.08,0.816-0.08&#13;&#10;&#9;&#9;c0.426,0,1.499-0.139,3.216-0.416c1.717-0.277,2.944-0.522,3.68-0.736c0.736-0.213,1.499-0.399,2.288-0.56s1.232-0.277,1.328-0.352&#13;&#10;&#9;&#9;c0.097-0.075,0.145-0.219,0.145-0.433V15.469z" stroke-width="1"/>
    </g>
    <g/>
    <g/>
    <g/>
    <g/>
    <g/>
    <g/>
    <g/>
    <g/>
    <g/>
    <g/>
    <g/>
    <g/>
    <g/>
    <g/>
    <g/>
  </g>
</svg>