<svg xmlns="http://www.w3.org/2000/svg" xmlns:xlink="http://www.w3.org/1999/xlink" version="1.1" id="图层_1" x="0px" y="0px" width="26.5679988861084" height="28.39099884033203" viewBox="1.7000000476837158 -0.656999945640564 26.5679988861084 28.39099884033203" enable-background="new 0 0 30 30" xml:space="preserve">
<g>
	<path fill="#0000FF" d="M18.104,12.387c-0.597,0.107-0.896,0.448-0.896,1.024c0,0.171,0.106,0.246,0.32,0.224   c0.426-0.042,0.954-0.064,1.584-0.064c0.629,0,1.376,0.102,2.239,0.304c0.864,0.203,1.408,0.368,1.633,0.496   c0.224,0.128,0.336,0.267,0.336,0.416c0,0.149-0.064,0.325-0.192,0.528s-0.271,0.528-0.432,0.976   c-0.16,0.447-0.288,0.912-0.385,1.393c-0.096,0.479-0.267,1.029-0.512,1.647c-0.245,0.619-0.395,1.131-0.448,1.536   c-0.053,0.405-0.096,0.656-0.128,0.752c-0.031,0.096-0.048,0.191-0.048,0.288c0,0.096,0.106,0.176,0.32,0.239   c1.429,0.471,2.341,0.838,2.736,1.104c0.395,0.267,0.592,0.603,0.592,1.008c0,0.085-0.048,0.293-0.145,0.624   c-0.096,0.331-0.16,0.715-0.191,1.152c-0.032,0.437-0.118,0.746-0.256,0.928c-0.14,0.181-0.288,0.272-0.448,0.272   s-0.294-0.075-0.4-0.225c-0.789-1.109-1.558-2.111-2.304-3.008c-0.747-0.896-1.195-1.402-1.344-1.521   c-0.149-0.116-0.294-0.191-0.433-0.224s-0.373-0.122-0.704-0.272c-0.331-0.148-0.549-0.223-0.655-0.223   c-0.107,0-0.587,0.079-1.44,0.239s-1.712,0.288-2.576,0.384c-0.863,0.096-1.339,0.176-1.424,0.24s-0.208,0.096-0.368,0.096   s-0.331-0.105-0.512-0.32c-0.182-0.213-0.485-0.65-0.912-1.312s-0.784-1.626-1.072-2.896s-0.432-2.074-0.432-2.416   c0-0.341,0.224-0.555,0.672-0.64c0.597-0.106,1.376-0.267,2.336-0.48s1.515-0.341,1.664-0.384c0.149-0.042,0.224-0.267,0.224-0.672   c0-0.405-0.149-0.608-0.447-0.608c-0.107,0-0.336,0.032-0.688,0.096c-0.352,0.064-0.581,0.118-0.688,0.16   c-1.494,0.427-2.731,0.699-3.712,0.816c-0.982,0.118-1.92,0.293-2.816,0.528s-1.509,0.421-1.84,0.56   c-0.331,0.139-0.56,0.208-0.688,0.208s-0.229-0.037-0.304-0.112c-0.075-0.075-0.213-0.309-0.416-0.704   C2.301,14.152,2.2,13.864,2.2,13.683s0.138-0.283,0.416-0.304c0.853-0.085,1.605-0.224,2.256-0.416   c0.65-0.192,1.381-0.331,2.192-0.416c0.811-0.085,1.477-0.187,2-0.304c0.522-0.117,1.05-0.288,1.584-0.512   c0.532-0.224,0.954-0.389,1.264-0.496c0.309-0.106,0.464-0.24,0.464-0.4s-0.043-0.512-0.128-1.056   c-0.086-0.544-0.149-0.848-0.192-0.912s-0.123-0.096-0.239-0.096c-0.118,0-0.342,0.048-0.673,0.144   c-0.33,0.096-0.592,0.192-0.783,0.288c-0.192,0.096-0.331,0.144-0.416,0.144c-0.235,0-0.438-0.336-0.608-1.008   C9.165,7.667,9.08,7.262,9.08,7.123c0-0.139,0.048-0.234,0.144-0.288C9.32,6.782,9.512,6.755,9.8,6.755s0.656-0.026,1.104-0.08   c0.447-0.053,0.704-0.138,0.768-0.256c0.064-0.117,0.085-0.293,0.064-0.528c-0.149-1.323-0.225-2.314-0.225-2.976   c0-0.661,0.277-0.992,0.832-0.992c0.213,0,0.442,0.059,0.688,0.176c0.245,0.117,0.576,0.235,0.992,0.352s0.624,0.256,0.624,0.416   c0,0.16-0.06,0.325-0.177,0.496c-0.117,0.171-0.176,0.608-0.176,1.312c0,0.704,0.021,1.099,0.064,1.184   c0.042,0.085,0.165,0.128,0.367,0.128c0.203,0,0.646-0.053,1.328-0.16c0.683-0.106,1.072-0.203,1.168-0.288   c0.097-0.085,0.171-0.432,0.225-1.04c0.053-0.608,0.154-1.435,0.304-2.48c0.149-1.045,0.314-1.669,0.496-1.872   c0.181-0.203,0.464-0.304,0.848-0.304c0.385,0,0.757,0.054,1.12,0.16c0.362,0.107,0.544,0.251,0.544,0.432   c0,0.182-0.054,0.347-0.16,0.496c-0.256,0.405-0.475,1.12-0.655,2.144c-0.182,1.024-0.272,1.605-0.272,1.744   c0,0.139,0.085,0.208,0.256,0.208S20.322,5,20.6,4.947c0.277-0.053,0.47-0.08,0.576-0.08c0.32,0,0.603,0.267,0.849,0.8   c0.244,0.534,0.367,0.939,0.367,1.216c0,0.278-0.133,0.406-0.399,0.384c-0.268-0.021-0.502-0.032-0.704-0.032   c-0.203,0-0.539,0.027-1.008,0.08c-0.47,0.054-0.758,0.123-0.864,0.208c-0.107,0.085-0.203,0.384-0.288,0.896   C19.043,8.931,19,9.267,19,9.427c0,0.16,0.048,0.262,0.144,0.304c0.097,0.043,0.368,0.043,0.816,0   c0.448-0.042,0.938-0.064,1.472-0.064h1.504c0.896,0,1.547-0.042,1.952-0.128l0.96-0.192c0.213,0,0.587,0.288,1.12,0.864   s0.8,1.142,0.8,1.696s-0.117,0.832-0.352,0.832c-0.128,0-0.331-0.064-0.608-0.192c-0.789-0.341-2.016-0.512-3.68-0.512   c-0.896,0-1.653,0.032-2.271,0.096L18.104,12.387z M10.584,22.499c0,0.256-0.187,0.731-0.56,1.424   c-0.374,0.693-0.571,1.2-0.593,1.521c-0.063,0.768-0.331,1.151-0.8,1.151c-0.256,0-0.779-0.267-1.568-0.8   c-0.79-0.533-1.184-0.917-1.184-1.152c0-0.234,0.149-0.379,0.448-0.432c0.298-0.054,0.645-0.235,1.04-0.544   c0.395-0.309,0.954-0.629,1.68-0.96c0.726-0.33,1.163-0.496,1.313-0.496C10.509,22.211,10.584,22.307,10.584,22.499z    M14.232,16.066c0-0.234-0.049-0.352-0.145-0.352s-0.214,0.027-0.352,0.08c-0.14,0.054-0.433,0.155-0.88,0.305   c-0.448,0.148-0.736,0.277-0.864,0.383c-0.128,0.107-0.219,0.326-0.272,0.656c-0.054,0.332-0.08,0.838-0.08,1.521   s0.102,1.184,0.305,1.504c0.202,0.319,0.395,0.479,0.575,0.479c0.182,0,0.342-0.016,0.48-0.047c0.139-0.033,0.341-0.07,0.608-0.113   c0.266-0.042,0.437-0.127,0.512-0.256c0.074-0.127,0.112-0.304,0.112-0.527c0-0.225-0.118-0.33-0.353-0.32   c-0.235,0.012-0.363,0.016-0.384,0.016c-0.277,0-0.48-0.068-0.608-0.207s-0.234-0.369-0.319-0.688   c-0.086-0.319-0.128-0.544-0.128-0.672c0-0.299,0.17-0.448,0.512-0.448c0.341,0,0.624-0.026,0.848-0.08   c0.225-0.053,0.353-0.106,0.384-0.16c0.032-0.053,0.049-0.229,0.049-0.527V16.066z M14.424,10.499c0.064,0,0.267-0.037,0.608-0.112   c0.341-0.075,0.677-0.128,1.008-0.16c0.33-0.032,0.544-0.106,0.64-0.224c0.097-0.117,0.165-0.357,0.208-0.72l0.128-1.248   c0-0.171-0.059-0.256-0.176-0.256s-0.507,0.054-1.168,0.16c-0.661,0.107-1.04,0.187-1.136,0.24s-0.171,0.128-0.225,0.224   c-0.053,0.096-0.091,0.293-0.111,0.592l-0.064,1.12C14.136,10.371,14.232,10.499,14.424,10.499z M18.712,20.963   c0.256,0,0.496-0.432,0.72-1.296c0.225-0.864,0.336-1.776,0.336-2.735c0-0.961-0.117-1.579-0.352-1.856   c-0.235-0.277-0.635-0.416-1.2-0.416s-0.912,0.037-1.04,0.112c-0.128,0.075-0.213,0.299-0.256,0.672   c-0.043,0.374-0.063,0.64-0.063,0.8c0,0.159,0.116,0.239,0.352,0.239l0.928-0.096c0.213,0,0.353,0.08,0.416,0.24   c0.064,0.16,0.097,0.422,0.097,0.784s-0.043,0.592-0.129,0.688c-0.085,0.096-0.399,0.224-0.943,0.383   c-0.544,0.16-0.864,0.272-0.96,0.336c-0.097,0.064-0.182,0.236-0.256,0.513c-0.075,0.277-0.112,0.448-0.112,0.512   c0,0.192,0.149,0.267,0.448,0.224c0.341-0.063,0.704-0.096,1.088-0.096c0.256,0,0.389,0.102,0.399,0.305s0.08,0.367,0.208,0.496   C18.52,20.898,18.627,20.963,18.712,20.963z" stroke-width="1"/>
</g>
</svg>