<svg xmlns="http://www.w3.org/2000/svg" xmlns:xlink="http://www.w3.org/1999/xlink" version="1.1" id="图层_1" x="0px" y="0px" width="23.463998794555664" height="25.41600227355957" viewBox="2.802001476287842 2.424999237060547 23.463998794555664 25.41600227355957" style="enable-background:new 0 0 30 30;" xml:space="preserve">
  <g>
    <g>
      <path style="fill:#0000FF;" d="M25.766,26.381c0,0.49-0.117,0.736-0.352,0.736c-0.107,0-0.224-0.043-0.352-0.129&#13;&#10;&#9;&#9;c-0.363-0.213-1.43-0.496-3.2-0.848c-1.771-0.352-3.18-0.527-4.225-0.527s-2.102,0.053-3.168,0.159s-1.781,0.224-2.144,0.353&#13;&#10;&#9;&#9;c-0.363,0.128-1.163,0.256-2.4,0.384s-2.208,0.192-2.912,0.192s-1.461,0.17-2.271,0.512c-0.192,0.085-0.39,0.128-0.592,0.128&#13;&#10;&#9;&#9;s-0.395-0.203-0.576-0.608c-0.182-0.405-0.272-0.703-0.272-0.896s0.288-0.342,0.864-0.448c0.832-0.128,1.707-0.331,2.624-0.607&#13;&#10;&#9;&#9;c1.877-0.556,3.387-0.923,4.528-1.104c1.141-0.181,1.749-0.319,1.823-0.416c0.075-0.097,0.145-0.433,0.208-1.008&#13;&#10;&#9;&#9;c0.064-0.576,0.097-0.966,0.097-1.169c0-0.201-0.064-0.324-0.192-0.367s-0.629-0.064-1.504-0.064s-1.632,0.139-2.272,0.416&#13;&#10;&#9;&#9;c-0.128,0.043-0.239,0.064-0.336,0.064c-0.096,0-0.245-0.182-0.447-0.544c-0.203-0.362-0.305-0.64-0.305-0.832&#13;&#10;&#9;&#9;s0.155-0.405,0.465-0.64c0.309-0.234,1.082-0.427,2.319-0.576s1.915-0.262,2.032-0.336s0.176-0.262,0.176-0.561l-0.063-0.896&#13;&#10;&#9;&#9;c0-0.256,0.068-0.426,0.208-0.512c0.138-0.084,0.367-0.127,0.688-0.127c0.726,0,1.259,0.063,1.601,0.191&#13;&#10;&#9;&#9;c0.341,0.128,0.544,0.373,0.607,0.736c0.043,0.234,0.154,0.352,0.336,0.352s0.475-0.053,0.88-0.16&#13;&#10;&#9;&#9;c0.405-0.106,0.758-0.16,1.057-0.16c0.64,0,1.077,0.252,1.312,0.752c0.234,0.502,0.353,0.881,0.353,1.137s-0.203,0.384-0.608,0.384&#13;&#10;&#9;&#9;s-1.024,0.106-1.856,0.319c-0.831,0.214-1.327,0.348-1.487,0.4c-0.16,0.054-0.262,0.32-0.305,0.801&#13;&#10;&#9;&#9;c-0.043,0.479-0.063,0.906-0.063,1.279s0.021,0.607,0.063,0.704s0.203,0.149,0.48,0.16s0.576,0.016,0.896,0.016&#13;&#10;&#9;&#9;c1.408,0,2.299,0.069,2.673,0.208c0.373,0.139,0.692,0.225,0.96,0.256c0.267,0.032,0.581,0.049,0.943,0.049l1.024-0.033&#13;&#10;&#9;&#9;c0.49,0,0.912,0.097,1.264,0.289c0.353,0.191,0.561,0.441,0.624,0.752c0.064,0.309,0.213,0.607,0.448,0.896&#13;&#10;&#9;&#9;C25.648,25.725,25.766,26.039,25.766,26.381z M9.99,10.445c0,0.085-0.06,0.256-0.176,0.512c-0.118,0.256-0.214,0.55-0.288,0.88&#13;&#10;&#9;&#9;c-0.075,0.331-0.278,0.784-0.608,1.36c-0.331,0.576-0.64,1.035-0.928,1.376c-0.288,0.341-0.513,0.699-0.672,1.072&#13;&#10;&#9;&#9;c-0.16,0.373-0.326,0.561-0.496,0.561c-0.171,0-0.342-0.053-0.513-0.16c-0.747-0.491-1.307-0.816-1.68-0.976&#13;&#10;&#9;&#9;c-0.374-0.16-0.56-0.347-0.56-0.56c0-0.213,0.299-0.48,0.896-0.8c0.597-0.32,1.333-0.885,2.208-1.696&#13;&#10;&#9;&#9;c0.213-0.192,0.656-0.533,1.328-1.024s1.088-0.736,1.248-0.736S9.99,10.317,9.99,10.445z M16.934,4.077&#13;&#10;&#9;&#9;c0,0.107-0.059,0.31-0.176,0.608c-0.117,0.299-0.24,0.79-0.368,1.472c-0.128,0.683-0.191,1.552-0.191,2.608&#13;&#10;&#9;&#9;s-0.038,1.877-0.112,2.464c-0.075,0.587-0.112,1.275-0.112,2.064l0.032,1.376c0,0.491-0.134,0.736-0.399,0.736&#13;&#10;&#9;&#9;c-0.268,0-0.608-0.091-1.024-0.272s-0.726-0.378-0.928-0.592c-0.203-0.213-0.305-0.432-0.305-0.656s0.049-0.539,0.145-0.944&#13;&#10;&#9;&#9;s0.144-0.741,0.144-1.008c0-0.267-0.016-0.554-0.048-0.864c-0.032-0.309-0.048-0.72-0.048-1.232l0.032-1.504l-0.256-4.704&#13;&#10;&#9;&#9;c0-0.469,0.138-0.704,0.416-0.704c0.106,0,0.378,0.075,0.815,0.224s1.083,0.331,1.937,0.544&#13;&#10;&#9;&#9;C16.784,3.757,16.934,3.885,16.934,4.077z M24.422,11.533l-0.032,1.824c0,0.448-0.128,0.672-0.384,0.672&#13;&#10;&#9;&#9;c-0.149,0-0.299-0.069-0.448-0.208s-0.459-0.325-0.928-0.56c-0.917-0.448-1.707-1.024-2.368-1.728s-0.991-1.258-0.991-1.664&#13;&#10;&#9;&#9;c0-0.17,0.074-0.288,0.224-0.352c0.148-0.064,0.586-0.096,1.312-0.096s1.51,0.24,2.353,0.72S24.422,11.084,24.422,11.533z" stroke-width="1"/>
    </g>
    <g/>
    <g/>
    <g/>
    <g/>
    <g/>
    <g/>
    <g/>
    <g/>
    <g/>
    <g/>
    <g/>
    <g/>
    <g/>
    <g/>
    <g/>
  </g>
</svg>