<svg xmlns="http://www.w3.org/2000/svg" xmlns:xlink="http://www.w3.org/1999/xlink" version="1.1" id="图层_1" x="0px" y="0px" width="22.442001342773438" height="23.945003509521484" viewBox="3.6809988021850586 2.589996099472046 22.442001342773438 23.945003509521484" enable-background="new 0 0 30 30" xml:space="preserve">
<g>
	<path fill="#0000FF" d="M23.831,21.522c0.277,0,0.469,0.043,0.576,0.128c0.106,0.086,0.293,0.395,0.56,0.928   s0.442,0.896,0.528,1.088c0.085,0.192,0.128,0.453,0.128,0.785c0,0.33-0.064,0.495-0.192,0.495s-0.384-0.085-0.768-0.256   c-0.832-0.362-2.613-0.544-5.344-0.544c-2.24,0-4.721,0.165-7.44,0.496c-2.72,0.33-4.485,0.677-5.296,1.04   c-0.555,0.234-1.003,0.353-1.344,0.353s-0.597-0.215-0.768-0.641c-0.171-0.428-0.256-0.758-0.256-0.992   c0-0.362,0.25-0.544,0.752-0.544c0.501,0,1.237-0.08,2.208-0.239c0.971-0.16,2.074-0.385,3.313-0.673   c1.236-0.288,1.94-0.469,2.111-0.544c0.171-0.074,0.293-0.16,0.368-0.256c0.074-0.096,0.165-0.4,0.272-0.912   c0.106-0.512,0.16-1.013,0.16-1.504c0-0.191-0.08-0.288-0.24-0.288s-0.476,0.054-0.944,0.16c-0.47,0.106-0.832,0.16-1.088,0.16   s-0.453-0.091-0.592-0.272c-0.14-0.181-0.268-0.538-0.384-1.072c-0.118-0.532-0.177-0.97-0.177-1.312   c0-0.341,0.16-0.512,0.48-0.512l0.576,0.032c0.447,0,0.917-0.059,1.408-0.176c0.49-0.117,0.768-0.219,0.831-0.305   c0.064-0.085,0.097-0.245,0.097-0.48l0.032-1.184c0-0.192-0.07-0.288-0.208-0.288c-0.14,0-0.396,0.08-0.769,0.24   s-0.672,0.24-0.896,0.24c-0.225,0-0.428-0.208-0.608-0.624c-0.182-0.416-0.395-0.789-0.64-1.12   c-0.246-0.331-0.422-0.496-0.528-0.496c-0.214,0-0.544,0.288-0.992,0.864c-0.106,0.128-0.368,0.374-0.784,0.736   s-0.726,0.608-0.928,0.736c-0.203,0.128-0.784,0.715-1.744,1.761c-0.171,0.191-0.4,0.287-0.688,0.287   c-0.288,0-0.432-0.08-0.432-0.24s0.101-0.404,0.304-0.736c0.203-0.33,0.715-1.104,1.536-2.319c0.821-1.216,1.371-2.005,1.648-2.368   c0.277-0.362,0.747-1.056,1.408-2.08c0.213-0.299,0.41-0.448,0.592-0.448c0.181,0,0.421,0.091,0.72,0.272   c0.299,0.182,0.528,0.363,0.688,0.544c0.16,0.182,0.245,0.363,0.256,0.544c0.011,0.182,0.016,0.368,0.016,0.56   s0.16,0.342,0.48,0.448c0.32,0.107,0.597,0.16,0.832,0.16c0.64,0,1.034-0.133,1.184-0.4c0.149-0.267,0.385-2.49,0.704-6.672   c0.043-0.405,0.106-0.672,0.192-0.8c0.085-0.128,0.219-0.192,0.399-0.192c0.182,0,0.485,0.064,0.912,0.192   c0.427,0.128,0.693,0.256,0.801,0.384c0.106,0.128,0.159,0.315,0.159,0.56c0,0.246-0.111,0.827-0.336,1.744   c-0.224,0.917-0.336,2.048-0.336,3.392c0,0.406,0.017,0.662,0.048,0.768c0.032,0.107,0.102,0.16,0.208,0.16   s0.225-0.021,0.353-0.064c1.28-0.341,2.219-0.512,2.815-0.512c0.875,0,1.313,0.299,1.313,0.896c0,0.342-0.032,0.651-0.096,0.928   c-0.064,0.277-0.155,0.454-0.272,0.528c-0.117,0.075-0.363,0.139-0.736,0.192c-0.373,0.054-0.976,0.246-1.808,0.576   c-0.832,0.331-1.312,0.56-1.44,0.688c-0.128,0.128-0.191,0.395-0.191,0.8s0.032,0.672,0.096,0.8   c0.064,0.128,0.225,0.171,0.48,0.128c0.896-0.213,1.632-0.32,2.208-0.32c0.575,0,0.96,0.064,1.151,0.192   c0.192,0.128,0.288,0.411,0.288,0.848s-0.075,0.746-0.224,0.928c-0.149,0.182-0.608,0.422-1.376,0.721   c-1.473,0.555-2.288,0.885-2.448,0.991s-0.24,0.32-0.24,0.64c0,1.109,0.054,1.836,0.16,2.177s0.832,0.512,2.176,0.512   c0.789,0,1.761-0.069,2.912-0.208C22.871,21.592,23.575,21.522,23.831,21.522z" stroke-width="1"/>
</g>
</svg>