<svg xmlns="http://www.w3.org/2000/svg" xmlns:xlink="http://www.w3.org/1999/xlink" version="1.1" id="图层_1" x="0px" y="0px" width="22.503999710083008" height="29.57499885559082" viewBox="4.163000106811523 0.09499979019165039 22.503999710083008 29.57499885559082" enable-background="new 0 0 30 30" xml:space="preserve">
<g>
	<path fill="#0000FF" d="M26.167,8.915c0,0.256-0.123,0.432-0.368,0.528c-0.245,0.096-0.581,0.352-1.008,0.768   s-0.736,0.8-0.928,1.152c-0.192,0.352-0.342,0.603-0.448,0.752c-0.107,0.149-0.256,0.277-0.448,0.384   c-0.405,0.235-0.64,0.854-0.704,1.856c-0.021,0.406-0.069,0.667-0.144,0.784c-0.075,0.117-0.208,0.176-0.4,0.176   c-0.191,0-0.399-0.01-0.624-0.032c-0.224-0.021-0.565-0.032-1.023-0.032c-0.459,0-1.168,0.043-2.128,0.128   c-0.96,0.085-1.579,0.149-1.856,0.192s-0.422,0.326-0.432,0.848c-0.012,0.523-0.091,1.66-0.24,3.408   c-0.149,1.75-0.224,3.451-0.224,5.104s0.106,2.649,0.319,2.991c0.106,0.193,0.16,0.363,0.16,0.512c0,0.492-0.533,0.736-1.6,0.736   c-0.385,0-0.656-0.053-0.816-0.16c-0.16-0.105-0.24-0.283-0.24-0.527c0-0.246,0.043-0.561,0.128-0.943   c0.235-1.131,0.353-2.636,0.353-4.513c0-0.597-0.011-1.099-0.032-1.504l-0.128-2.815c-0.043-1.516-0.069-2.31-0.08-2.385   c-0.011-0.074-0.069-0.139-0.176-0.191c-0.107-0.053-0.235-0.08-0.384-0.08c-0.149,0-0.667,0.091-1.553,0.271   c-0.885,0.182-1.439,0.336-1.664,0.465c-0.224,0.127-0.432,0.191-0.623,0.191c-0.192,0-0.406-0.245-0.641-0.736   c-0.299-0.64-0.747-1.312-1.344-2.016c-0.598-0.704-1.115-1.648-1.552-2.832C4.881,10.21,4.663,9.458,4.663,9.139   c0-0.32,0.123-0.544,0.368-0.672c0.245-0.128,0.773-0.192,1.584-0.192c0.811,0,1.952-0.256,3.424-0.768   c0.362-0.128,1.152-0.352,2.368-0.672c0.341-0.085,0.512-0.448,0.512-1.088l-0.096-4.192c0-0.384,0.042-0.64,0.128-0.768   c0.085-0.128,0.336-0.192,0.752-0.192s0.976,0.085,1.68,0.256c0.704,0.171,1.125,0.304,1.265,0.4   c0.138,0.096,0.208,0.208,0.208,0.336s-0.107,0.267-0.32,0.416c-0.214,0.149-0.363,0.448-0.448,0.896   c-0.085,0.448-0.128,1.323-0.128,2.624c0,0.149,0.037,0.277,0.112,0.384c0.074,0.107,0.154,0.149,0.239,0.128   c1.43-0.17,2.635-0.256,3.616-0.256s1.941,0.219,2.88,0.656c0.938,0.438,1.733,0.859,2.385,1.264   C25.842,8.104,26.167,8.509,26.167,8.915z M13.143,12.915l-0.063-1.76c-0.043-1.216-0.064-1.92-0.064-2.112   s-0.091-0.288-0.271-0.288c-0.182,0-0.854,0.198-2.017,0.592c-1.162,0.395-1.855,0.704-2.079,0.928   c-0.225,0.224-0.337,0.507-0.337,0.848c0,0.341,0.075,0.88,0.225,1.616c0.148,0.736,0.298,1.184,0.448,1.344   c0.148,0.16,0.362,0.24,0.64,0.24s0.683-0.08,1.216-0.24s1.152-0.314,1.856-0.464c0.106-0.021,0.208-0.096,0.304-0.224   S13.143,13.106,13.143,12.915z M16.279,12.979l2.464-0.288c0.746-0.085,1.231-0.213,1.456-0.384   c0.224-0.17,0.448-0.592,0.672-1.264s0.336-1.264,0.336-1.776c0-0.512-0.176-0.891-0.528-1.136   c-0.352-0.245-0.912-0.368-1.68-0.368c-0.683,0-1.419,0.043-2.208,0.128c-0.342,0.043-0.55,0.096-0.624,0.16   c-0.075,0.064-0.128,0.128-0.16,0.192s-0.059,0.565-0.08,1.504l-0.096,2.624C15.831,12.776,15.98,12.979,16.279,12.979z" stroke-width="1"/>
</g>
</svg>