<svg xmlns="http://www.w3.org/2000/svg" xmlns:xlink="http://www.w3.org/1999/xlink" version="1.1" id="图层_1" x="0px" y="0px" width="26.92000389099121" height="27.0159969329834" viewBox="2.019996166229248 1.1049987077713013 26.92000389099121 27.0159969329834" enable-background="new 0 0 30 30" xml:space="preserve">
<g>
	<path fill="#0000FF" d="M21.72,19.234c0.619,0,1.019,0.055,1.2,0.16c0.181,0.107,0.314,0.299,0.4,0.576   c0.085,0.277,0.128,0.523,0.128,0.736s-0.118,0.373-0.353,0.48c-0.234,0.106-0.709,0.17-1.424,0.191s-1.36,0.112-1.936,0.271   c-0.576,0.16-1.254,0.24-2.032,0.24c-0.779,0-1.531,0.086-2.256,0.256c-0.299,0.086-0.534,0.129-0.704,0.129   c-0.384,0-0.672-0.192-0.864-0.576c-0.191-0.385-0.336-0.598-0.432-0.641c-0.097-0.042-0.411-0.063-0.944-0.063   s-1.125,0.054-1.776,0.159c-0.65,0.107-1.274,0.272-1.871,0.496c-0.598,0.225-0.987,0.4-1.168,0.529   c-0.182,0.127-0.293,0.277-0.336,0.447c-0.043,0.171-0.064,0.443-0.064,0.816s-0.07,0.612-0.208,0.72   c-0.139,0.106-0.416,0.16-0.832,0.16s-0.624-0.246-0.624-0.736c0-0.213,0.042-0.501,0.128-0.864   c0.192-0.896,0.288-2.475,0.288-4.736c0-0.469-0.011-0.762-0.032-0.879c-0.021-0.117-0.069-0.176-0.144-0.176   s-0.165,0.053-0.272,0.159c-1.003,0.812-1.888,1.216-2.656,1.216c-0.277,0-0.416-0.08-0.416-0.24c0-0.159,0.128-0.367,0.384-0.623   c1.195-1.152,2.208-2.283,3.04-3.393c0.832-1.109,1.467-2.138,1.904-3.088c0.437-0.949,0.656-1.499,0.656-1.648   c0-0.106-0.106-0.16-0.32-0.16c-0.213,0-0.378-0.106-0.496-0.32C7.57,8.622,7.512,8.409,7.512,8.195   c0-0.213,0.192-0.362,0.576-0.448C8.685,7.641,9.043,7.518,9.16,7.379c0.117-0.138,0.276-0.539,0.479-1.2s0.357-1.275,0.464-1.84   c0.107-0.565,0.214-0.917,0.32-1.056s0.251-0.208,0.433-0.208c0.181,0,0.442,0.043,0.783,0.128   c0.342,0.085,0.513,0.224,0.513,0.416c0,0.192-0.075,0.395-0.225,0.608c-0.149,0.213-0.283,0.56-0.399,1.04   c-0.118,0.48-0.177,0.832-0.177,1.056c0,0.224,0.08,0.336,0.24,0.336s0.362-0.042,0.608-0.128c0.245-0.085,0.484-0.128,0.72-0.128   c0.576,0,1.184,0.358,1.824,1.072c0.64,0.715,0.96,1.275,0.96,1.68c0,0.192-0.064,0.352-0.192,0.48   c-0.128,0.128-0.479,0.288-1.056,0.48c-0.576,0.192-1.237,0.309-1.984,0.352c-0.191,0.021-0.325,0.07-0.399,0.144   c-0.075,0.075-0.112,0.235-0.112,0.48c0,0.246,0.021,0.411,0.064,0.496c0.042,0.085,0.128,0.128,0.256,0.128   s0.282-0.016,0.464-0.048c0.181-0.032,0.314-0.048,0.399-0.048c0.342,0,0.513,0.235,0.513,0.704c0,0.128-0.06,0.235-0.176,0.32   c-0.118,0.085-0.31,0.182-0.576,0.288c-0.268,0.107-0.428,0.208-0.48,0.304c-0.054,0.096-0.08,0.262-0.08,0.496   c0,0.235,0.117,0.352,0.353,0.352l0.544-0.064c0.426,0,0.64,0.235,0.64,0.704c0,0.299-0.149,0.469-0.448,0.512   c-0.618,0.085-0.981,0.149-1.088,0.192c-0.106,0.043-0.16,0.224-0.16,0.544s0.075,0.48,0.225,0.48c0.148,0,0.298-0.011,0.448-0.032   c0.148-0.021,0.276-0.032,0.384-0.032c0.426,0,0.64,0.192,0.64,0.576c0,0.235-0.102,0.406-0.304,0.512   c-0.203,0.107-0.454,0.197-0.752,0.272c-0.299,0.075-0.485,0.171-0.561,0.288c-0.074,0.117-0.111,0.342-0.111,0.672   c0,0.331,0.202,0.464,0.607,0.4c0.128-0.021,0.31-0.032,0.544-0.032c0.533,0,0.854,0.272,0.96,0.815   c0.106,0.545,0.256,0.816,0.448,0.816s0.384-0.043,0.576-0.128c1.387-0.533,2.517-0.891,3.392-1.072   C19.555,19.326,20.568,19.234,21.72,19.234z M6.584,8.483c0,0.107-0.043,0.357-0.128,0.752c-0.085,0.395-0.128,0.87-0.128,1.424   S6.2,11.491,5.944,11.491c-0.341,0-0.779-0.112-1.312-0.336c-0.533-0.224-0.8-0.448-0.8-0.672s0.17-0.522,0.512-0.896   C4.685,9.214,5.08,8.899,5.528,8.643c0.448-0.256,0.736-0.384,0.864-0.384S6.584,8.334,6.584,8.483z M7.736,20.387   c0.298,0,0.656-0.063,1.072-0.191c0.416-0.129,0.688-0.262,0.816-0.4s0.192-0.357,0.192-0.656s-0.107-0.447-0.32-0.447   c-0.214,0-0.576,0.059-1.088,0.176s-0.806,0.24-0.88,0.367c-0.075,0.129-0.112,0.353-0.112,0.673   C7.416,20.227,7.522,20.387,7.736,20.387z M8.024,17.635c0.276,0,0.624-0.059,1.04-0.176s0.677-0.225,0.783-0.32   s0.16-0.24,0.16-0.432s-0.048-0.314-0.144-0.368c-0.097-0.053-0.336-0.08-0.721-0.08c-0.384,0-0.73,0.064-1.04,0.192   c-0.309,0.128-0.463,0.405-0.463,0.832C7.64,17.518,7.768,17.635,8.024,17.635z M8.408,15.171c0.17,0,0.453-0.053,0.848-0.16   s0.635-0.197,0.72-0.272c0.085-0.074,0.128-0.256,0.128-0.544c0-0.288-0.154-0.389-0.464-0.304   c-0.31,0.085-0.592,0.144-0.848,0.176c-0.256,0.032-0.438,0.085-0.544,0.16c-0.107,0.075-0.16,0.251-0.16,0.528   C8.088,15.033,8.194,15.171,8.408,15.171z M10.456,11.843c0-0.49-0.048-0.89-0.145-1.2c-0.096-0.309-0.229-0.464-0.399-0.464   c-0.171,0-0.432,0.293-0.784,0.88C8.776,11.646,8.6,12.041,8.6,12.243s0.128,0.304,0.385,0.304c0.256,0,0.527-0.037,0.815-0.112   s0.469-0.149,0.544-0.224C10.419,12.137,10.456,12.014,10.456,11.843z M13.56,8.547c0-0.298-0.106-0.608-0.319-0.928   c-0.214-0.32-0.476-0.48-0.784-0.48c-0.31,0-0.635,0.075-0.976,0.224c-0.342,0.15-0.561,0.368-0.656,0.656   c-0.097,0.288-0.203,0.528-0.32,0.72c-0.117,0.192-0.176,0.363-0.176,0.512c0,0.341,0.277,0.576,0.832,0.704   c0.213,0.021,0.356,0.064,0.432,0.128c0.074,0.064,0.165,0.096,0.272,0.096c0.319,0,0.683-0.171,1.088-0.512   C13.357,9.326,13.56,8.953,13.56,8.547z M28.44,17.123c0,0.149-0.075,0.379-0.225,0.688c-0.149,0.311-0.256,0.816-0.319,1.521   c-0.107,1.28-0.433,2.715-0.977,4.304s-1.029,2.65-1.456,3.185c-0.427,0.532-0.864,0.8-1.312,0.8c-0.448,0-1.195-0.219-2.24-0.656   c-1.046-0.438-1.852-0.886-2.416-1.344c-0.565-0.459-0.848-0.731-0.848-0.816s0.048-0.128,0.144-0.128s0.48,0.064,1.152,0.192   s1.284,0.191,1.84,0.191c1.237,0,2.122-0.661,2.656-1.983c0.532-1.323,0.8-2.667,0.8-4.032c0-0.746-0.197-1.279-0.592-1.6   c-0.396-0.32-1.009-0.48-1.841-0.48s-1.701,0.075-2.607,0.225c-0.907,0.148-1.558,0.325-1.952,0.527   c-0.396,0.203-0.763,0.475-1.104,0.816c-0.171,0.171-0.352,0.256-0.544,0.256c-0.191,0-0.367-0.197-0.527-0.592   s-0.24-1.254-0.24-2.576c0-3.2,0.245-5.771,0.736-7.712c0.042-0.171,0.063-0.309,0.063-0.416s-0.085-0.171-0.256-0.192   c-0.491-0.106-0.736-0.277-0.736-0.512c0-0.299,0.187-0.656,0.561-1.072c0.373-0.416,0.683-0.837,0.928-1.264   s0.667-1.008,1.264-1.744c0.598-0.736,1.077-1.104,1.44-1.104c0.362,0,0.768,0.149,1.216,0.448c0.448,0.299,0.672,0.539,0.672,0.72   c0,0.182-0.31,0.454-0.928,0.816c-0.235,0.128-0.795,0.624-1.68,1.488c-0.886,0.864-1.328,1.381-1.328,1.552   c0,0.107,0.165,0.16,0.496,0.16c0.33,0,0.863-0.128,1.6-0.384c0.736-0.256,1.424-0.384,2.064-0.384c0.64,0,1.199,0.118,1.68,0.352   c0.479,0.235,0.72,0.48,0.72,0.736c0,0.128-0.048,0.272-0.144,0.432c-0.097,0.16-0.188,0.603-0.272,1.328s-0.271,1.712-0.56,2.96   s-0.533,2.155-0.736,2.72c-0.203,0.565-0.304,0.907-0.304,1.023c0,0.118,0.106,0.177,0.32,0.177l1.279-0.032   c1.131,0,2.165,0.145,3.104,0.432C27.971,16.436,28.44,16.761,28.44,17.123z M18.136,16.579c0.47,0,0.934-0.069,1.393-0.208   c0.458-0.139,0.82-0.234,1.088-0.288c0.267-0.054,0.399-0.122,0.399-0.208c0-0.085-0.149-0.203-0.447-0.352   c-1.217-0.555-2.134-1.121-2.752-1.696c-0.128-0.128-0.246-0.192-0.353-0.192c-0.235,0-0.352,0.587-0.352,1.76   c0,0.448,0.068,0.757,0.208,0.928C17.459,16.494,17.73,16.579,18.136,16.579z M21.56,9.699c0-0.789-0.031-1.291-0.096-1.504   c-0.063-0.213-0.197-0.378-0.399-0.496c-0.203-0.117-0.528-0.176-0.977-0.176s-0.869,0.085-1.264,0.256   c-0.396,0.171-0.592,0.47-0.592,0.896c0,0.171,0.138,0.31,0.416,0.416c1.088,0.427,1.632,0.992,1.632,1.696   c0,0.363-0.16,0.544-0.48,0.544c-0.213,0-0.735-0.139-1.567-0.416c-0.129-0.042-0.24-0.064-0.336-0.064   c-0.097,0-0.177,0.144-0.24,0.432c-0.064,0.288-0.097,0.496-0.097,0.624c0,0.363,0.363,0.725,1.089,1.088   c0.725,0.363,1.204,0.544,1.439,0.544c0.512,0,0.885-0.389,1.12-1.168C21.442,11.592,21.56,10.702,21.56,9.699z" stroke-width="1"/>
</g>
</svg>