<svg xmlns="http://www.w3.org/2000/svg" xmlns:xlink="http://www.w3.org/1999/xlink" version="1.1" id="图层_1" x="0px" y="0px" width="23.881000518798828" height="24.4220027923584" viewBox="2.690999984741211 3.327000141143799 23.881000518798828 24.4220027923584" enable-background="new 0 0 30 30" xml:space="preserve">
<g>
	<path fill="#0000FF" d="M9.431,14.803c0,0.939-0.224,2.395-0.672,4.367c-0.448,1.975-1.099,3.44-1.952,4.4   c-0.555,0.641-0.95,1.217-1.184,1.729c-0.128,0.277-0.277,0.416-0.448,0.416c-0.32,0-0.731-0.566-1.232-1.696   c-0.501-1.13-0.752-2.612-0.752-4.448c0-1.834,0.192-3.828,0.576-5.984c0.106-0.618,0.16-1.099,0.16-1.44l-0.064-0.768   c0-0.277,0.112-0.416,0.336-0.416c0.224,0,0.693,0.149,1.408,0.448c0.714,0.299,1.152,0.512,1.312,0.64   c0.16,0.128,0.24,0.299,0.24,0.512c0,0.213-0.246,0.501-0.736,0.864c-0.811,0.597-1.445,1.477-1.904,2.64   c-0.459,1.163-0.688,2.496-0.688,4s0.298,2.256,0.896,2.256c0.17,0,0.352-0.08,0.544-0.24s0.533-0.607,1.024-1.344   s0.96-1.572,1.408-2.512c0.448-0.938,0.864-1.994,1.248-3.168c0.148-0.427,0.267-0.64,0.352-0.64S9.431,14.546,9.431,14.803z    M9.719,7.794c0,0.213-0.075,0.395-0.224,0.544C9.346,8.488,9.143,8.563,8.887,8.563c-0.598,0-1.301-0.208-2.112-0.624   S5.559,6.877,5.559,6.002c0-0.426,0.106-0.896,0.32-1.408C6.092,4.083,6.3,3.827,6.503,3.827c0.203,0,0.421,0.16,0.656,0.48   c0.512,0.747,1.066,1.387,1.664,1.92C9.42,6.76,9.719,7.283,9.719,7.794z M24.247,4.754c0.405,0,0.661,0.118,0.768,0.352   c0.234,0.555,0.47,1.008,0.704,1.36c0.234,0.352,0.353,0.582,0.353,0.688c0,0.278-0.315,0.374-0.944,0.288   c-0.63-0.085-1.408-0.128-2.336-0.128s-1.579,0.08-1.952,0.24c-0.373,0.16-0.661,0.603-0.864,1.328   c-0.202,0.726-0.304,1.248-0.304,1.568c0,0.128,0.117,0.181,0.353,0.16c0.426-0.042,0.911-0.064,1.455-0.064   c0.545,0,1.109,0.07,1.696,0.208c0.587,0.139,0.997,0.283,1.232,0.432c0.234,0.149,0.352,0.293,0.352,0.432   s-0.059,0.293-0.176,0.464c-0.117,0.171-0.188,0.39-0.208,0.656c-0.021,0.267-0.032,1.168-0.032,2.704v5.28l-0.032,3.296   c0,1.108,0.032,1.823,0.097,2.144c0.063,0.32,0.096,0.523,0.096,0.608c0,0.319-0.123,0.479-0.368,0.479s-0.73-0.224-1.456-0.672   c-0.726-0.447-1.259-0.746-1.6-0.896c-1.195-0.576-2.208-1.345-3.04-2.304c-0.086-0.107-0.188-0.16-0.304-0.16   c-0.118,0-0.544,0.043-1.28,0.128s-1.43,0.224-2.08,0.416c-0.651,0.192-1.189,0.315-1.616,0.368s-0.683,0.122-0.768,0.207   c-0.086,0.086-0.235,0.193-0.448,0.32c-0.214,0.129-0.363,0.192-0.448,0.192c-0.427,0-0.64-1.009-0.64-3.024s0.096-4.016,0.288-6   c0.191-1.984,0.347-3.066,0.464-3.248c0.117-0.181,0.336-0.272,0.656-0.272c0.597,0,1.12-0.091,1.567-0.272   c0.448-0.181,0.806-0.304,1.072-0.368s0.4-0.17,0.4-0.32c-0.214-0.832-0.374-1.36-0.48-1.584c-0.106-0.224-0.16-0.416-0.16-0.576   s0.128-0.24,0.385-0.24c0.256,0,0.612,0.043,1.071,0.128c0.459,0.085,0.736,0.208,0.832,0.368c0.097,0.16,0.128,0.374,0.097,0.64   c-0.032,0.267-0.049,0.48-0.049,0.64c0,0.16,0.005,0.267,0.017,0.32c0.011,0.054,0.059,0.08,0.144,0.08s0.267-0.026,0.544-0.08   c0.277-0.053,0.442-0.106,0.496-0.16c0.053-0.053,0.091-0.229,0.112-0.528c0.021-0.298,0.032-0.603,0.032-0.912   c0-0.309-0.032-0.57-0.097-0.784c-0.063-0.213-0.133-0.357-0.208-0.432c-0.074-0.075-0.187-0.112-0.336-0.112l-0.576,0.032   c-0.277,0-0.507-0.016-0.688-0.048c-0.182-0.032-0.464-0.048-0.848-0.048c-0.385,0-0.95,0.096-1.696,0.288   c-0.747,0.192-1.275,0.379-1.584,0.56c-0.31,0.182-0.555,0.272-0.736,0.272s-0.325-0.224-0.432-0.672   c-0.107-0.448-0.16-0.768-0.16-0.96c0-0.341,0.181-0.48,0.544-0.416c0.085,0.021,0.192,0.032,0.32,0.032   c0.469,0,1.285-0.165,2.447-0.496c1.163-0.331,2.373-0.619,3.633-0.864c1.258-0.245,2.389-0.421,3.392-0.528   c1.003-0.106,1.749-0.219,2.24-0.336C23.649,4.813,24.012,4.754,24.247,4.754z M21.271,23.955c0.299,0,0.491-0.155,0.576-0.465   c0.085-0.309,0.128-1.119,0.128-2.432s-0.016-2.469-0.048-3.473c-0.032-1.002-0.063-1.546-0.096-1.631   c-0.032-0.086-0.08-0.129-0.145-0.129c-0.063,0-0.128,0.032-0.191,0.096c-0.598,0.598-1.248,0.896-1.952,0.896   c-0.256,0-0.485-0.043-0.688-0.128c-0.203-0.085-0.363-0.224-0.48-0.416s-0.235-0.528-0.352-1.008   c-0.118-0.48-0.188-0.869-0.208-1.168c-0.021-0.299-0.032-0.907-0.032-1.824c0-0.128-0.064-0.192-0.192-0.192   s-0.331,0.038-0.607,0.112c-0.278,0.075-0.422,0.176-0.433,0.304s-0.075,0.4-0.191,0.816c-0.118,0.416-0.177,0.747-0.177,0.992   c0,0.246,0.032,0.454,0.097,0.624c0.063,0.171,0.096,0.288,0.096,0.352c0,0.235-0.294,0.677-0.88,1.328   c-0.587,0.651-1.563,1.009-2.928,1.072c-0.107,0-0.182,0.032-0.225,0.096s-0.08,0.416-0.111,1.056   c-0.032,0.641-0.049,1.345-0.049,2.112c0,0.769,0.021,1.179,0.064,1.232c0.042,0.054,0.139,0.059,0.288,0.016   c0.469-0.128,1.141-0.245,2.016-0.353l3.008-0.383c1.109-0.149,1.781-0.225,2.017-0.225c0.234,0,0.384,0.086,0.448,0.256   c0.063,0.172,0.096,0.448,0.096,0.832c0,0.385-0.277,0.608-0.832,0.672c-0.192,0.021-0.288,0.07-0.288,0.145   s0.261,0.229,0.784,0.464C20.306,23.838,20.802,23.955,21.271,23.955z M12.471,17.011c0.128,0,0.464-0.214,1.008-0.64   c0.545-0.428,0.929-0.965,1.152-1.617c0.225-0.65,0.336-1.21,0.336-1.68c0-0.149-0.063-0.224-0.191-0.224s-0.39,0.096-0.784,0.288   c-0.396,0.192-0.667,0.421-0.816,0.688c-0.149,0.267-0.319,0.784-0.512,1.552s-0.288,1.27-0.288,1.504   C12.375,16.969,12.407,17.011,12.471,17.011z M19.319,17.875c0.256,0,0.416,0.043,0.479,0.127c0.064,0.086,0.096,0.235,0.096,0.449   c0,0.362-0.191,0.597-0.575,0.703c-0.385,0.107-0.972,0.32-1.761,0.641s-1.493,0.479-2.111,0.479c-0.619,0-1.072,0.038-1.36,0.112   s-0.475,0.111-0.56,0.111c-0.3,0-0.448-0.276-0.448-0.832c0-0.213,0.074-0.383,0.224-0.512c0.149-0.128,0.507-0.277,1.072-0.447   c0.565-0.171,1.376-0.353,2.432-0.545C17.863,17.971,18.7,17.875,19.319,17.875z M21.783,15.026c0-0.192-0.048-0.64-0.145-1.344   c-0.096-0.704-0.251-1.205-0.464-1.504s-0.619-0.448-1.216-0.448c-0.149,0-0.267,0.005-0.352,0.016   c-0.086,0.011-0.145,0.197-0.177,0.56c-0.031,0.363-0.048,0.629-0.048,0.8c0,1.003,0.282,1.558,0.849,1.664   c0.564,0.107,0.933,0.208,1.104,0.304c0.171,0.096,0.288,0.144,0.352,0.144C21.751,15.219,21.783,15.154,21.783,15.026z" stroke-width="1"/>
</g>
</svg>