<svg xmlns="http://www.w3.org/2000/svg" xmlns:xlink="http://www.w3.org/1999/xlink" version="1.1" id="图层_1" x="0px" y="0px" width="24.7760009765625" height="22.121997833251953" viewBox="2.7549996376037598 3.390000343322754 24.7760009765625 22.121997833251953" enable-background="new 0 0 30 30" xml:space="preserve">
<g>
	<path fill="#0000FF" d="M10.263,16.435c0,0.917-0.203,2.085-0.607,3.504c-0.406,1.419-0.992,2.619-1.761,3.601   c-0.768,0.98-1.349,1.472-1.744,1.472c-0.395,0-0.976-0.63-1.744-1.888c-0.768-1.259-1.152-2.806-1.152-4.641   c0-0.641,0.042-1.316,0.128-2.031c0.085-0.715,0.219-1.446,0.4-2.193c0.181-0.746,0.341-1.296,0.48-1.648   c0.138-0.352,0.261-0.565,0.368-0.64c0.106-0.075,0.277-0.112,0.512-0.112c0.234,0,0.656,0.198,1.264,0.592   c0.608,0.395,0.912,0.72,0.912,0.976c0,0.256-0.427,0.821-1.28,1.696c-1.238,1.258-1.856,2.87-1.856,4.833   c0,1.322,0.362,1.983,1.088,1.983c0.426,0,1.019-0.368,1.776-1.104c0.757-0.735,1.669-2.244,2.736-4.527   c0.128-0.256,0.24-0.385,0.336-0.385S10.263,16.094,10.263,16.435z M10.487,7.794c0,0.235-0.06,0.496-0.177,0.784   S9.879,9.011,9.367,9.011s-1.02-0.128-1.521-0.384S7.031,8.125,6.903,7.891C6.775,7.656,6.711,7.144,6.711,6.354   c0-0.789,0.032-1.312,0.096-1.568s0.17-0.469,0.32-0.64c0.149-0.17,0.309-0.256,0.48-0.256c0.256,0,0.437,0.133,0.544,0.4   c0.106,0.267,0.239,0.501,0.399,0.704c0.16,0.203,0.522,0.613,1.088,1.232C10.204,6.846,10.487,7.368,10.487,7.794z M27.031,22.898   c0,0.406-0.118,0.607-0.353,0.607c-0.128,0-0.459-0.111-0.992-0.336c-0.533-0.224-1.071-0.383-1.615-0.479   c-0.544-0.096-1.168-0.144-1.872-0.144c-1.644,0-3.644,0.165-6,0.496c-2.357,0.33-4.048,0.709-5.072,1.136   c-0.405,0.171-0.741,0.256-1.008,0.256c-0.268,0-0.507-0.192-0.72-0.576c-0.214-0.384-0.32-0.661-0.32-0.832   s0.16-0.267,0.479-0.288c0.704-0.064,1.563-0.256,2.576-0.576s1.813-0.635,2.4-0.943c0.586-0.309,0.917-0.533,0.992-0.672   c0.074-0.139,0.17-0.576,0.288-1.313c0.116-0.736,0.176-1.236,0.176-1.504c0-0.267-0.128-0.438-0.384-0.512   c-0.257-0.074-0.544-0.112-0.864-0.112c-0.491,0-0.816,0.054-0.977,0.16c-0.159,0.106-0.271,0.16-0.336,0.16   c-0.234,0-0.438-0.315-0.607-0.944c-0.171-0.629-0.256-1.114-0.256-1.456c0-0.341,0.106-0.512,0.319-0.512   c0.405,0,0.977-0.08,1.712-0.24c0.736-0.16,1.163-0.277,1.28-0.352c0.117-0.074,0.197-0.202,0.24-0.384   c0.042-0.181,0.063-0.411,0.063-0.688c0-1.387-0.331-2.08-0.991-2.08c-0.235,0-0.476,0.054-0.721,0.16   c-0.245,0.107-0.421,0.16-0.527,0.16c-0.3,0-0.565-0.437-0.801-1.312c-0.234-0.875-0.352-1.418-0.352-1.632   c0-0.213,0.048-0.341,0.144-0.384c0.097-0.042,0.357-0.064,0.784-0.064c1.771,0,4.075-0.437,6.912-1.312   c0.683-0.213,1.125-0.32,1.328-0.32c0.202,0,0.33,0.08,0.384,0.24c0.053,0.16,0.08,0.496,0.08,1.008   c0,0.512-0.037,0.827-0.112,0.944c-0.074,0.118-0.367,0.352-0.88,0.704c-0.512,0.352-0.928,0.608-1.248,0.768   c-0.319,0.16-0.518,0.336-0.592,0.528c-0.075,0.192-0.16,0.528-0.256,1.008s-0.144,0.875-0.144,1.184   c0,0.31,0.148,0.464,0.447,0.464c0.085,0,0.171-0.011,0.256-0.032c1.024-0.213,1.67-0.32,1.937-0.32s0.4,0.192,0.4,0.576   c0,0.555-0.15,1.013-0.448,1.376c-0.299,0.363-1.078,0.875-2.336,1.536c-0.299,0.171-0.448,0.502-0.448,0.992l0.032,1.824   c0.021,0.618,0.053,0.986,0.096,1.104s0.128,0.197,0.256,0.24s0.581,0.063,1.36,0.063c0.778,0,1.563-0.053,2.352-0.159l2.112-0.225   c0.299,0,0.517,0.102,0.656,0.304c0.139,0.203,0.368,0.63,0.688,1.28C26.871,22.125,27.031,22.6,27.031,22.898z" stroke-width="1"/>
</g>
</svg>