<svg version="1.1" xmlns="http://www.w3.org/2000/svg" xmlns:xlink="http://www.w3.org/1999/xlink" width="146.79097" height="55.04748" viewBox="0,0,146.79097,55.04748"><g transform="translate(-175.52295,-242.2546)"><g data-paper-data="{&quot;isPaintingLayer&quot;:true}" fill-rule="nonzero" stroke="#000000" stroke-linecap="butt" stroke-linejoin="miter" stroke-miterlimit="10" stroke-dasharray="" stroke-dashoffset="0" style="mix-blend-mode: normal"><path d="M321.672,277.72902c0,10.459 0.782,18.949 -14.338,18.938h-118.095c-10.109,0 -10.081,-8.479 -10.081,-18.938v-12.625c0,-10.458 -1.109,-18.937 10.505,-18.937h118.004c14.778,0 14.005,8.479 14.005,18.937z" fill="#4d4d4d" stroke-width="1.2701"/><path d="M318.672,274.45165c0,10.459 0.782,18.949 -14.338,18.938h-118.095c-10.109,0 -10.081,-8.479 -10.081,-18.938v-12.625c0,-10.458 -1.109,-18.937 10.505,-18.937h118.004c14.778,0 14.005,8.479 14.005,18.937z" fill="#d5c095" stroke-width="1.2701"/><text transform="translate(206.84777,278.11195) scale(0.68634,0.672)" font-size="40" xml:space="preserve" fill="#000000" fill-rule="nonzero" stroke="#000000" stroke-width="0" stroke-linecap="butt" stroke-linejoin="miter" stroke-miterlimit="10" stroke-dasharray="" stroke-dashoffset="0" font-family="&quot;Microsoft YaHei&quot;, &quot;微软雅黑&quot;, STXihei, &quot;华文细黑&quot;" font-weight="normal" text-anchor="start" style="mix-blend-mode: normal"><tspan x="0" dy="0">下一题</tspan></text></g></g></svg>