<svg xmlns="http://www.w3.org/2000/svg" xmlns:xlink="http://www.w3.org/1999/xlink" version="1.1" id="图层_1" x="0px" y="0px" width="26.952999114990234" height="25.893997192382812" viewBox="1.34600031375885 1.2790024280548096 26.952999114990234 25.893997192382812" enable-background="new 0 0 30 30" xml:space="preserve">
<g>
	<path fill="#0000FF" d="M15.223,20.274c0.149-0.021,0.251-0.074,0.305-0.159c0.053-0.086,0.08-0.235,0.08-0.449l-0.032-2.111   c0-0.704,0.021-1.242,0.063-1.616c0.043-0.373,0.064-0.816,0.064-1.328c0-0.149-0.048-0.224-0.145-0.224   c-0.096,0-0.208,0.011-0.336,0.032c-0.128,0.021-0.277,0.032-0.447,0.032c-0.172,0-0.305-0.128-0.4-0.384   c-0.096-0.256-0.144-0.458-0.144-0.608c0-0.32,0.25-0.565,0.752-0.736c0.501-0.17,0.757-0.336,0.768-0.496s0.016-0.405,0.016-0.736   s0.192-0.496,0.576-0.496c0.192,0,0.459,0.064,0.8,0.192c0.342,0.128,0.561,0.24,0.656,0.336c0.096,0.096,0.203,0.144,0.32,0.144   s0.41-0.069,0.88-0.208c0.469-0.139,0.746-0.24,0.832-0.304c0.085-0.064,0.128-0.234,0.128-0.512c0-0.277-0.011-0.496-0.032-0.656   c-0.021-0.16-0.032-0.325-0.032-0.496s0.117-0.256,0.353-0.256c0.234,0,0.629,0.112,1.184,0.336   c0.555,0.224,0.832,0.486,0.832,0.784c0,0.107,0.106,0.16,0.32,0.16l0.672-0.064c0.32,0,0.48,0.16,0.48,0.48   c0,0.427-0.06,0.731-0.177,0.912c-0.117,0.182-0.325,0.304-0.624,0.368s-0.501,0.139-0.607,0.224   c-0.107,0.085-0.155,0.213-0.145,0.384c0.011,0.171,0.017,0.48,0.017,0.928c0,0.448-0.032,1.109-0.097,1.984   c-0.063,0.875-0.096,1.563-0.096,2.064c0,0.501,0.037,0.805,0.112,0.912c0.074,0.106,0.24,0.148,0.496,0.127   c0.256-0.021,0.56-0.031,0.912-0.031c0.352,0,0.772-0.043,1.264-0.129c0.49-0.084,0.88-0.176,1.168-0.271s0.512-0.145,0.672-0.145   s0.293,0.076,0.4,0.225c0.106,0.149,0.261,0.4,0.464,0.752c0.202,0.352,0.304,0.635,0.304,0.848c0,0.662-0.139,0.992-0.416,0.992   c-0.106,0-0.251-0.037-0.432-0.111c-0.182-0.074-0.55-0.149-1.104-0.225c-0.555-0.074-1.066-0.111-1.536-0.111l-1.728,0.063   c-0.726,0.043-1.355,0.063-1.888,0.063c-0.534,0-1.974,0.225-4.32,0.673s-3.643,0.731-3.888,0.848   c-0.246,0.118-0.464,0.177-0.656,0.177s-0.4-0.113-0.624-0.336c-0.224-0.225-0.368-0.337-0.432-0.337   c-0.257,0-0.907,0.716-1.952,2.144c-0.192,0.257-0.379,0.385-0.561,0.385s-0.619-0.305-1.312-0.912   c-0.694-0.607-1.12-1.099-1.28-1.473c-0.16-0.373-0.299-0.56-0.416-0.56s-0.283,0.097-0.496,0.288   c-0.491,0.428-0.917,0.641-1.28,0.641c-0.363,0-0.726-0.069-1.088-0.209c-0.363-0.139-0.544-0.352-0.544-0.64   s0.192-0.485,0.576-0.592c0.704-0.213,1.819-1.2,3.344-2.96c1.525-1.76,2.288-2.949,2.288-3.568c0-0.192-0.102-0.288-0.304-0.288   c-0.203,0-0.656,0.117-1.36,0.352s-1.152,0.443-1.344,0.624s-0.374,0.272-0.544,0.272c-0.171,0-0.475-0.245-0.912-0.736   c-0.438-0.49-0.656-0.864-0.656-1.12c0-0.256,0.213-0.416,0.64-0.48c2.645-0.384,4.683-0.933,6.111-1.648   c1.43-0.714,2.4-1.029,2.912-0.944c0.128,0.021,0.251,0.032,0.368,0.032s0.251-0.123,0.4-0.368c0.148-0.245,0.33-0.475,0.544-0.688   c0.555-0.555,1.589-2.496,3.104-5.824c0.513-1.152,0.949-1.728,1.313-1.728c0.17,0,0.469,0.155,0.896,0.464   c0.427,0.31,0.641,0.571,0.641,0.784c0,0.214-0.166,0.507-0.496,0.88C19.036,4.28,18.62,4.83,18.119,5.555   c-0.502,0.725-0.752,1.136-0.752,1.232c0,0.096,0.053,0.144,0.16,0.144c0.341,0,0.768-0.096,1.279-0.288   c0.448-0.17,1.163-0.395,2.145-0.672c0.98-0.277,1.589-0.416,1.824-0.416c0.234,0,0.352,0.192,0.352,0.576   c0,0.384-0.134,0.768-0.4,1.152c-0.267,0.384-0.613,0.672-1.04,0.864s-1.151,0.496-2.176,0.912   c-1.023,0.416-1.749,0.624-2.176,0.624c-0.171,0-0.39-0.064-0.656-0.192c-0.267-0.128-0.479-0.192-0.64-0.192   s-0.304,0.043-0.432,0.128c-0.129,0.085-0.32,0.32-0.576,0.704c-0.192,0.278-0.598,0.523-1.216,0.736   c-0.257,0.085-0.385,0.192-0.385,0.32s0.037,0.31,0.112,0.544c0.074,0.235,0.112,0.448,0.112,0.64c0,0.448-0.16,0.629-0.48,0.544   c-0.106-0.021-0.213-0.032-0.319-0.032c-0.726,0-1.18,0.203-1.36,0.608c-0.182,0.405-0.272,0.709-0.272,0.912   c0,0.203,0.102,0.416,0.305,0.64c0.202,0.224,0.73,0.709,1.584,1.456c0.148,0.129,0.224,0.311,0.224,0.545   c0,0.598-0.555,1.652-1.664,3.168c-0.214,0.299-0.32,0.49-0.32,0.576c0,0.148,0.225,0.224,0.673,0.224   c0.128,0,0.33-0.032,0.607-0.097L15.223,20.274z M7.575,21.811c0.533,0,1.194-0.629,1.983-1.889   c0.789-1.258,1.185-2.26,1.185-3.008c0-0.447-0.203-0.672-0.608-0.672c-0.128,0-0.288,0.117-0.479,0.353   c-0.576,0.683-1.664,1.823-3.264,3.424c-0.32,0.319-0.48,0.556-0.48,0.704c0,0.149,0.09,0.325,0.272,0.527   c0.181,0.203,0.432,0.348,0.752,0.433S7.468,21.811,7.575,21.811z M10.007,3.57c0.448,0,0.789,0.31,1.024,0.928   c0.191,0.491,0.49,1.04,0.896,1.648s0.608,1.136,0.608,1.584c0,0.534-0.214,0.8-0.641,0.8c-0.171,0-0.581-0.123-1.231-0.368   c-0.651-0.245-1.142-0.571-1.472-0.976C8.86,6.782,8.695,6.366,8.695,5.938c0-0.234,0.111-0.688,0.336-1.36   C9.255,3.907,9.58,3.57,10.007,3.57z M16.247,22.674c0,0.107-0.054,0.215-0.16,0.32c-0.427,0.428-0.709,0.864-0.848,1.313   c-0.14,0.447-0.39,0.854-0.752,1.216c-0.171,0.171-0.385,0.437-0.641,0.8c-0.149,0.213-0.325,0.32-0.527,0.32   c-0.203,0-0.523-0.197-0.96-0.592c-0.438-0.395-0.656-0.742-0.656-1.04c0-0.3,0.234-0.64,0.704-1.024   c0.469-0.384,1.114-0.74,1.936-1.072c0.821-0.33,1.344-0.496,1.568-0.496C16.135,22.418,16.247,22.504,16.247,22.674z    M17.559,19.699c0.064,0,0.416-0.064,1.057-0.193c0.64-0.127,1.002-0.213,1.088-0.256c0.085-0.042,0.128-0.256,0.128-0.64   l0.063-2.976c0-0.555-0.021-0.976-0.063-1.264c-0.043-0.288-0.064-0.603-0.064-0.944c0-0.171-0.069-0.256-0.208-0.256   s-0.459,0.07-0.96,0.208c-0.501,0.139-0.789,0.293-0.863,0.464c-0.075,0.171-0.112,0.352-0.112,0.544   c0,0.192,0.117,0.272,0.352,0.24c0.235-0.032,0.438-0.048,0.608-0.048c0.512,0,0.768,0.128,0.768,0.384   c0,0.128-0.037,0.293-0.111,0.496c-0.075,0.204-0.208,0.326-0.4,0.368c-0.661,0.214-1.062,0.368-1.2,0.465   c-0.139,0.096-0.208,0.245-0.208,0.447c0,0.203,0.026,0.326,0.08,0.368c0.054,0.043,0.165,0.054,0.336,0.032   s0.32-0.032,0.448-0.032c0.533,0,0.8,0.192,0.8,0.576s-0.234,0.655-0.704,0.815c-0.469,0.16-0.757,0.283-0.863,0.369   c-0.107,0.085-0.16,0.244-0.16,0.479S17.431,19.699,17.559,19.699z M25.463,23.826c0,0.15-0.037,0.496-0.112,1.041   c-0.074,0.543-0.165,0.9-0.271,1.071c-0.107,0.171-0.24,0.336-0.4,0.496s-0.314,0.239-0.464,0.239s-0.288-0.111-0.416-0.336   c-0.128-0.223-0.373-0.518-0.735-0.879c-0.363-0.363-0.832-0.934-1.408-1.713c-0.576-0.777-0.864-1.242-0.864-1.392   s0.101-0.224,0.304-0.224s0.907,0.171,2.112,0.512c1.205,0.342,1.883,0.565,2.032,0.672C25.388,23.422,25.463,23.592,25.463,23.826   z" stroke-width="1"/>
</g>
</svg>