<svg xmlns="http://www.w3.org/2000/svg" xmlns:xlink="http://www.w3.org/1999/xlink" version="1.1" id="图层_1" x="0px" y="0px" width="29.222000122070312" height="28.103002548217773" viewBox="0.6259996891021729 0.37699949741363525 29.222000122070312 28.103002548217773" style="enable-background:new 0 0 30 30;" xml:space="preserve">
  <g>
    <g>
      <path style="fill:#0000FF;" d="M21.063,9.229c0.384,0,0.72,0.304,1.008,0.912s0.432,1.045,0.432,1.312c0,0.267-0.235,0.4-0.704,0.4&#13;&#10;&#9;&#9;l-1.983-0.064c-0.32,0-0.518,0.054-0.593,0.16c-0.074,0.107-0.267,0.598-0.575,1.472c-0.31,0.875-0.476,1.355-0.496,1.44&#13;&#10;&#9;&#9;c-0.064,0.384-0.448,0.587-1.152,0.608c-0.939,0.043-1.781,0.203-2.528,0.48c-0.341,0.127-0.576,0.192-0.704,0.192&#13;&#10;&#9;&#9;c-0.277,0-0.607-0.325-0.991-0.976c-0.385-0.65-0.694-1.285-0.929-1.904c-0.106-0.298-0.245-0.448-0.416-0.448&#13;&#10;&#9;&#9;s-0.479,0.07-0.928,0.208c-0.448,0.139-0.741,0.272-0.88,0.4c-0.139,0.128-0.304,0.469-0.496,1.024s-0.63,1.579-1.312,3.072&#13;&#10;&#9;&#9;c-0.385,0.854-0.608,1.952-0.673,3.296C7.12,21.154,7.083,21.41,7.03,21.58c-0.054,0.172-0.342,0.556-0.864,1.152&#13;&#10;&#9;&#9;C5.643,23.33,5.088,23.8,4.502,24.141c-0.587,0.342-1.2,0.576-1.84,0.704s-1.056,0.192-1.248,0.192s-0.288-0.032-0.288-0.096&#13;&#10;&#9;&#9;c0-0.172,1.163-1.643,3.488-4.416c0.704-0.832,1.487-2.555,2.352-5.168c0.864-2.613,1.296-5.072,1.296-7.376&#13;&#10;&#9;&#9;c0-0.725,0.213-1.088,0.641-1.088c0.128,0,0.314,0.027,0.56,0.08c0.245,0.054,0.507,0.08,0.784,0.08&#13;&#10;&#9;&#9;c0.597,0,1.253-0.123,1.968-0.368c0.715-0.245,1.242-0.416,1.584-0.512c0.341-0.096,0.512-0.181,0.512-0.256&#13;&#10;&#9;&#9;c0-0.074-0.063-0.165-0.191-0.272c-1.216-0.981-1.824-1.738-1.824-2.272c0-0.213,0.112-0.432,0.336-0.656&#13;&#10;&#9;&#9;c0.225-0.224,0.512-0.586,0.864-1.088c0.352-0.501,0.666-0.752,0.944-0.752c0.276,0,0.495,0.091,0.655,0.272s0.24,0.421,0.24,0.72&#13;&#10;&#9;&#9;c0,0.491,0.187,1.04,0.56,1.648s0.561,1.189,0.561,1.744c0,0.213,0.224,0.288,0.672,0.224s0.843-0.096,1.184-0.096&#13;&#10;&#9;&#9;c0.342,0,0.699-0.042,1.072-0.128c0.373-0.085,0.726-0.128,1.057-0.128c0.33,0,0.592,0.224,0.783,0.672&#13;&#10;&#9;&#9;c0.192,0.448,0.288,0.779,0.288,0.992s-0.096,0.368-0.288,0.464c-0.191,0.096-0.501,0.155-0.928,0.176&#13;&#10;&#9;&#9;c-0.427,0.021-1.051,0.075-1.872,0.16c-0.821,0.085-1.296,0.139-1.424,0.16c-0.491,0.149-0.923,0.224-1.296,0.224&#13;&#10;&#9;&#9;c-0.374,0-0.667-0.01-0.88-0.032c-0.214-0.021-0.396-0.032-0.544-0.032c-0.448,0-1.062,0.112-1.84,0.336&#13;&#10;&#9;&#9;c-0.779,0.224-1.34,0.405-1.681,0.544s-0.565,0.459-0.672,0.96c-0.106,0.501-0.16,0.848-0.16,1.04c0,0.192,0.069,0.288,0.208,0.288&#13;&#10;&#9;&#9;s0.331-0.037,0.576-0.112c0.245-0.074,0.41-0.16,0.496-0.256c0.085-0.096,0.165-0.384,0.24-0.864c0.074-0.48,0.293-0.72,0.655-0.72&#13;&#10;&#9;&#9;c0.513,0,1.152,0.203,1.921,0.608c0.298,0.149,0.517,0.224,0.655,0.224s0.336-0.021,0.593-0.064&#13;&#10;&#9;&#9;c0.256-0.042,0.58-0.064,0.976-0.064c0.395,0,0.624-0.069,0.688-0.208c0.064-0.139,0.097-0.363,0.097-0.672&#13;&#10;&#9;&#9;c0-0.309,0.063-0.512,0.191-0.608c0.128-0.096,0.416-0.144,0.864-0.144c0.789,0,1.333,0.267,1.632,0.8&#13;&#10;&#9;&#9;c0.128,0.213,0.256,0.32,0.384,0.32c0.129,0,0.299-0.016,0.513-0.048C20.827,9.245,20.977,9.229,21.063,9.229z M17.99,20.685&#13;&#10;&#9;&#9;c0,0.171,0.068,0.331,0.208,0.479c0.139,0.15,0.73,0.572,1.775,1.265c1.045,0.693,1.638,1.104,1.776,1.231&#13;&#10;&#9;&#9;c0.139,0.129,0.843,0.4,2.112,0.816c1.269,0.416,2.389,0.864,3.359,1.344c0.971,0.48,1.568,0.821,1.792,1.024&#13;&#10;&#9;&#9;c0.225,0.202,0.336,0.399,0.336,0.592c0,0.362-0.655,0.544-1.968,0.544c-1.312,0-2.64-0.111-3.983-0.336&#13;&#10;&#9;&#9;c-1.345-0.224-2.177-0.427-2.496-0.607c-0.32-0.182-0.534-0.412-0.641-0.688c-0.384-1.109-0.715-1.866-0.991-2.272&#13;&#10;&#9;&#9;c-0.278-0.404-0.646-0.725-1.104-0.959s-0.8-0.353-1.024-0.353c-0.224,0-0.56,0.245-1.008,0.735&#13;&#10;&#9;&#9;c-0.448,0.492-1.259,1.067-2.432,1.729c-1.174,0.661-2.485,0.992-3.937,0.992c-0.726,0-1.45-0.08-2.176-0.24&#13;&#10;&#9;&#9;s-1.142-0.271-1.248-0.336s-0.16-0.16-0.16-0.287c0-0.129,0.128-0.215,0.385-0.257c2.474-0.256,4.474-0.778,6-1.567&#13;&#10;&#9;&#9;c1.524-0.789,2.288-1.355,2.288-1.696c0-0.128-0.097-0.261-0.288-0.4c-0.192-0.138-0.486-0.395-0.881-0.769&#13;&#10;&#9;&#9;c-0.395-0.372-0.741-0.645-1.039-0.815c-0.3-0.171-0.79-0.362-1.473-0.575c-0.341-0.129-0.56-0.31-0.656-0.545&#13;&#10;&#9;&#9;c-0.096-0.234-0.144-0.715-0.144-1.439c0-0.385,0.074-0.646,0.224-0.784s0.31-0.208,0.48-0.208c0.17,0,0.41,0.166,0.72,0.496&#13;&#10;&#9;&#9;c0.31,0.331,0.656,0.496,1.04,0.496c0.149,0,0.314-0.043,0.496-0.129c0.181-0.084,0.608-0.229,1.28-0.432&#13;&#10;&#9;&#9;c0.672-0.202,1.061-0.324,1.168-0.367c0.618-0.256,1.188-0.385,1.712-0.385c0.522,0,1.108,0.155,1.76,0.465&#13;&#10;&#9;&#9;c0.65,0.309,0.977,0.581,0.977,0.815c0,0.235-0.203,0.534-0.608,0.896c-0.405,0.363-0.667,0.63-0.784,0.801&#13;&#10;&#9;&#9;s-0.288,0.479-0.512,0.928C18.102,20.332,17.99,20.6,17.99,20.685z M14.534,13.869c0.148,0,0.458-0.064,0.928-0.192&#13;&#10;&#9;&#9;c0.469-0.128,0.773-0.363,0.912-0.704c0.139-0.341,0.208-0.586,0.208-0.736c0-0.149-0.139-0.224-0.416-0.224&#13;&#10;&#9;&#9;s-0.661,0.027-1.152,0.08c-0.49,0.053-0.763,0.139-0.815,0.256c-0.054,0.118-0.08,0.262-0.08,0.432&#13;&#10;&#9;&#9;c0,0.171,0.016,0.368,0.048,0.592c0.032,0.224,0.069,0.363,0.112,0.416C14.32,13.842,14.406,13.869,14.534,13.869z M16.422,19.853&#13;&#10;&#9;&#9;c0.149,0,0.299-0.208,0.448-0.624c0.148-0.416,0.224-0.709,0.224-0.88c0-0.532-0.277-0.8-0.832-0.8c-0.277,0-0.65,0.107-1.12,0.32&#13;&#10;&#9;&#9;c-0.469,0.213-0.703,0.395-0.703,0.543c0,0.129,0.298,0.4,0.896,0.816C15.931,19.645,16.294,19.853,16.422,19.853z" stroke-width="1"/>
    </g>
    <g/>
    <g/>
    <g/>
    <g/>
    <g/>
    <g/>
    <g/>
    <g/>
    <g/>
    <g/>
    <g/>
    <g/>
    <g/>
    <g/>
    <g/>
  </g>
</svg>