<svg xmlns="http://www.w3.org/2000/svg" xmlns:xlink="http://www.w3.org/1999/xlink" version="1.1" width="101.94600677490234" height="158.2880096435547" viewBox="0.14500004053115845 -0.448999997228384 101.94600677490234 158.2880096435547">
  <!-- Exported by Scratch - http://scratch.mit.edu/ -->
  <path id="ID0.5517100659199059" fill="#FFFFFF" d="M 76.572 71.86 C 87.856 64.389 93.39 52.634 93.39 39.168 C 93.39 22.507 79.228 0.051 49.684 0.051 C 26.913 0.051 4.955 18.018 4.955 34.68 C 4.955 42.588 9.882 50.487 18.297 50.487 C 32.248 50.487 29.581 29.549 49.067 29.549 C 58.303 29.549 63.838 35.748 63.838 43.86 C 63.838 67.588 34.701 52.411 34.701 74.853 C 34.701 100.065 69.586 78.06 69.586 107.974 C 69.586 119.302 60.958 127.853 50.293 127.853 C 27.105 127.853 30.392 102.843 16.441 102.843 C 9.049 102.843 0.645 108.829 0.645 117.165 C 0.645 134.052 19.523 157.339 49.886 157.339 C 79.023 157.339 101.591 135.751 101.591 110.111 C 101.593 93.235 91.332 78.925 76.572 71.86 Z " stroke-width="1"/>
</svg>