<svg xmlns="http://www.w3.org/2000/svg" xmlns:xlink="http://www.w3.org/1999/xlink" version="1.1" id="图层_1" x="0px" y="0px" width="22.56800079345703" height="22.503999710083008" viewBox="3.36299991607666 5.021999359130859 22.56800079345703 22.503999710083008" enable-background="new 0 0 30 30" xml:space="preserve">
<g>
	<path fill="#0000FF" d="M8.343,16.274c-0.341,0.106-0.607,0.24-0.8,0.399c-0.192,0.16-0.288,0.508-0.288,1.041   s-0.054,1.077-0.16,1.632c-0.107,0.555-0.16,1.104-0.16,1.647c0,0.545,0.032,0.992,0.096,1.344   c0.064,0.353,0.096,0.625,0.096,0.816c0,0.192-0.133,0.336-0.4,0.432C6.46,23.683,6.252,23.73,6.103,23.73   c-0.149,0-0.315-0.203-0.496-0.607c-0.182-0.406-0.39-1.211-0.624-2.416c-0.235-1.205-0.352-2.139-0.352-2.801   c0-0.66-0.032-1.173-0.096-1.535c-0.064-0.363-0.096-0.587-0.096-0.672c0-0.321,0.165-0.561,0.496-0.721   c0.331-0.16,0.976-0.325,1.936-0.496c0.96-0.17,2.059-0.405,3.296-0.704c1.237-0.298,1.893-0.48,1.968-0.544   s0.112-0.16,0.112-0.288c0-0.682-0.054-1.354-0.16-2.016s-0.197-1.029-0.271-1.104c-0.075-0.075-0.177-0.112-0.305-0.112   c-0.191,0-0.863,0.043-2.016,0.128c-1.152,0.086-2.086,0.208-2.8,0.368c-0.715,0.16-1.206,0.347-1.472,0.56   c-0.267,0.213-0.486,0.32-0.656,0.32c-0.171,0-0.331-0.25-0.48-0.752C3.938,9.837,3.863,9.31,3.863,8.754   c0-0.448,0.133-0.683,0.4-0.704c0.266-0.021,0.586-0.085,0.96-0.192c0.373-0.106,1.258-0.24,2.656-0.4s2.769-0.261,4.112-0.304   c1.344-0.042,2.885-0.234,4.624-0.576c1.738-0.341,3.173-0.544,4.304-0.608c0.661-0.064,1.131-0.155,1.408-0.272   c0.276-0.117,0.49-0.176,0.64-0.176s0.288,0.096,0.416,0.288s0.353,0.587,0.672,1.184c0.32,0.597,0.48,1.099,0.48,1.504   c0,0.405-0.075,0.608-0.225,0.608s-0.299-0.032-0.447-0.096c-0.598-0.256-1.376-0.384-2.336-0.384s-1.852,0.08-2.672,0.24   c-0.822,0.16-1.516,0.288-2.08,0.384c-0.565,0.096-0.886,0.171-0.96,0.224c-0.075,0.053-0.16,0.171-0.257,0.352   c-0.096,0.181-0.171,0.357-0.224,0.528c-0.054,0.171-0.102,0.549-0.144,1.136c-0.043,0.587-0.064,0.928-0.064,1.024   c0,0.096,0.074,0.144,0.224,0.144l1.473-0.128c0.576-0.043,1.221-0.133,1.936-0.272c0.715-0.138,1.504-0.208,2.368-0.208   s1.797,0.139,2.8,0.416c1.003,0.278,1.504,0.555,1.504,0.832c0,0.107-0.074,0.267-0.224,0.48c-0.299,0.427-0.485,1.392-0.56,2.896   c-0.075,1.505-0.214,3.132-0.416,4.881c-0.203,1.75-0.411,2.938-0.624,3.568c-0.214,0.629-0.358,1.104-0.433,1.424   c-0.075,0.32-0.187,0.479-0.336,0.479s-0.357-0.075-0.624-0.224c-0.267-0.15-0.683-0.348-1.248-0.592   c-0.565-0.246-1.253-0.641-2.063-1.185c-0.812-0.544-1.217-0.917-1.217-1.12c0-0.202,0.229-0.293,0.688-0.271   c0.458,0.021,0.917,0.031,1.376,0.031s0.826-0.059,1.104-0.176c0.276-0.117,0.458-0.309,0.544-0.576   c0.085-0.266,0.208-0.965,0.367-2.096c0.16-1.131,0.24-2.059,0.24-2.783c0-0.726-0.069-1.51-0.208-2.353s-0.581-1.387-1.328-1.632   c-0.747-0.245-1.392-0.368-1.936-0.368s-1.27,0.112-2.176,0.336c-0.907,0.224-1.408,0.368-1.504,0.432   c-0.097,0.064-0.22,0.709-0.368,1.936c-0.149,1.227-0.225,2.287-0.225,3.184l0.097,2.784c0,0.556-0.027,0.917-0.08,1.088   c-0.054,0.171-0.177,0.31-0.368,0.416c-0.192,0.106-0.502,0.16-0.928,0.16c-0.684,0-0.981-0.202-0.896-0.608   c0.085-0.404,0.128-0.82,0.128-1.248l-0.032-2.815l0.032-3.808c0-0.192-0.037-0.289-0.112-0.289c-0.074,0-0.165,0.011-0.271,0.032   L8.343,16.274z M10.231,19.986c0.213,0,0.372,0.102,0.479,0.305c0.106,0.203,0.16,0.389,0.16,0.56c0,0.341-0.166,0.576-0.496,0.704   c-0.331,0.128-0.678,0.31-1.04,0.544c-0.086,0.063-0.192,0.096-0.32,0.096s-0.336-0.144-0.624-0.432s-0.432-0.581-0.432-0.88   s0.192-0.465,0.576-0.496c0.384-0.032,0.73-0.107,1.04-0.225C9.884,20.045,10.103,19.986,10.231,19.986z M10.231,17.267   c0.256,0,0.452,0.102,0.592,0.304c0.139,0.203,0.208,0.438,0.208,0.704s-0.225,0.485-0.672,0.656   c-0.448,0.171-0.838,0.256-1.168,0.256c-0.331,0-0.582-0.181-0.752-0.544c-0.172-0.363-0.257-0.65-0.257-0.864   c0-0.341,0.128-0.495,0.385-0.464c0.256,0.032,0.469,0.048,0.64,0.048L10.231,17.267z M18.039,19.795   c0.533,0,0.912,0.133,1.136,0.399c0.225,0.267,0.336,0.513,0.336,0.736s-0.059,0.374-0.176,0.448s-0.39,0.148-0.816,0.224   s-0.854,0.112-1.279,0.112c-0.428,0-0.688-0.027-0.784-0.08s-0.288-0.293-0.576-0.721c-0.288-0.426-0.432-0.746-0.432-0.959   c0-0.299,0.181-0.449,0.544-0.449c0.106,0,0.373,0.049,0.8,0.145S17.634,19.795,18.039,19.795z M18.167,16.082   c0.618,0,1.024,0.172,1.216,0.513c0.192,0.341,0.288,0.618,0.288,0.832s-0.112,0.362-0.336,0.448   c-0.224,0.085-0.592,0.16-1.104,0.224l-1.152,0.159c-0.214,0-0.502-0.207-0.864-0.623c-0.363-0.416-0.544-0.73-0.544-0.944   c0-0.213,0.08-0.395,0.24-0.544c0.16-0.148,0.352-0.191,0.576-0.128c0.224,0.063,0.484,0.097,0.783,0.097L18.167,16.082z" stroke-width="1"/>
</g>
</svg>