<svg xmlns="http://www.w3.org/2000/svg" xmlns:xlink="http://www.w3.org/1999/xlink" version="1.1" id="图层_1" x="0px" y="0px" width="29.831003189086914" height="21.79900360107422" viewBox="0.2590012550354004 4.639998912811279 29.831003189086914 21.79900360107422" enable-background="new 0 0 30 30" xml:space="preserve">
<g>
	<path fill="#0000FF" d="M15.703,15.763c0,0.192,0.096,0.362,0.288,0.512c0.512,0.405,1.173,1.062,1.983,1.968   c0.811,0.907,1.376,1.483,1.696,1.729s0.773,0.518,1.36,0.816c0.586,0.299,1.242,0.575,1.968,0.832   c3.563,1.258,5.552,2.059,5.968,2.399s0.624,0.618,0.624,0.832c0,0.213-0.288,0.448-0.864,0.704   c-0.575,0.256-1.407,0.384-2.495,0.384c-0.896,0-2.305-0.182-4.225-0.544c-0.768-0.128-1.392-0.191-1.872-0.191   c-0.479,0-0.784-0.08-0.912-0.24s-0.251-0.63-0.367-1.408c-0.118-0.779-0.368-1.467-0.753-2.064   c-0.384-0.597-0.943-1.066-1.68-1.408c-0.736-0.34-1.616-0.832-2.64-1.472c-0.214-0.149-0.39-0.224-0.528-0.224   s-0.347,0.128-0.624,0.384c-1.643,1.472-2.944,2.47-3.904,2.992s-1.579,1.062-1.855,1.616c-0.149,0.277-0.342,0.463-0.576,0.56   c-0.235,0.097-0.683,0.144-1.344,0.144c-1.259,0-2.272-0.224-3.04-0.672c-0.768-0.447-1.152-0.8-1.152-1.056   c0-0.213,0.277-0.319,0.832-0.319c0.811,0,1.648-0.097,2.512-0.289c0.864-0.191,1.69-0.517,2.48-0.976   c0.789-0.458,1.632-1.071,2.528-1.84c0.896-0.769,1.435-1.265,1.615-1.488c0.182-0.224,0.272-0.448,0.272-0.672   s-0.294-0.587-0.88-1.088c-0.587-0.501-1.195-0.875-1.824-1.12c-0.63-0.245-1.046-0.347-1.248-0.304   c-0.203,0.043-0.405,0.064-0.608,0.064c-0.203,0-0.357-0.101-0.464-0.304c-0.107-0.203-0.192-0.491-0.256-0.864   c-0.064-0.373-0.096-0.81-0.096-1.312c0-0.501,0.032-0.81,0.096-0.928c0.064-0.117,0.155-0.176,0.272-0.176   c0.117,0,0.378,0.123,0.784,0.368c0.405,0.246,1.157,0.571,2.256,0.976c1.099,0.405,2.202,0.939,3.312,1.6   c0.362,0.213,0.624,0.32,0.784,0.32s0.32-0.101,0.48-0.304c0.159-0.203,0.458-0.741,0.896-1.616   c0.438-0.875,0.725-1.595,0.864-2.16c0.139-0.565,0.208-1.008,0.208-1.328c0-0.597-0.32-0.896-0.96-0.896   c-0.384,0-1.067,0.283-2.048,0.848c-0.981,0.565-1.654,1.062-2.017,1.488c-0.256,0.299-0.527,0.448-0.815,0.448   s-0.678-0.325-1.168-0.976c-0.491-0.65-0.736-1.152-0.736-1.504s0.171-0.549,0.512-0.592c0.896-0.064,2.698-0.693,5.408-1.888   c0.576-0.256,1.205-0.384,1.888-0.384s1.323,0.155,1.92,0.464c0.598,0.31,1.163,0.629,1.696,0.96c0.533,0.331,0.8,0.619,0.8,0.864   S19.953,7.88,19.751,8.05c-0.203,0.171-0.416,0.432-0.64,0.784c-0.225,0.352-0.528,0.992-0.912,1.92   c-0.384,0.928-0.704,1.648-0.96,2.16s-0.576,1.062-0.96,1.648C15.895,15.149,15.703,15.549,15.703,15.763z" stroke-width="1"/>
</g>
</svg>