<svg xmlns="http://www.w3.org/2000/svg" xmlns:xlink="http://www.w3.org/1999/xlink" version="1.1" id="图层_1" x="0px" y="0px" width="25.801002502441406" height="23.59100341796875" viewBox="2.224998712539673 3.321000099182129 25.801002502441406 23.59100341796875" style="enable-background:new 0 0 30 30;" xml:space="preserve">
  <g>
    <g>
      <path style="fill:#0000FF;" d="M27.494,25.389l0.032,0.48c0,0.17-0.112,0.256-0.336,0.256c-0.225,0-0.571-0.129-1.04-0.385&#13;&#10;&#9;&#9;c-0.854-0.49-2.268-0.843-4.24-1.056c-1.974-0.214-3.707-0.319-5.2-0.319s-3.125,0.276-4.896,0.832&#13;&#10;&#9;&#9;c-0.534,0.148-1.248,0.244-2.145,0.287c-2.688,0.129-4.619,0.395-5.792,0.801c-0.235,0.084-0.416,0.127-0.544,0.127&#13;&#10;&#9;&#9;s-0.261-0.197-0.4-0.592c-0.139-0.395-0.208-0.645-0.208-0.752c0-0.234,0.112-0.352,0.336-0.352s0.661-0.086,1.312-0.256&#13;&#10;&#9;&#9;c0.65-0.172,1.317-0.283,2-0.336c0.683-0.054,1.44-0.192,2.272-0.416c0.831-0.225,1.823-0.453,2.976-0.688&#13;&#10;&#9;&#9;c1.152-0.234,1.925-0.485,2.32-0.752c0.395-0.267,0.757-0.612,1.088-1.04c0.33-0.426,0.683-1.002,1.056-1.729&#13;&#10;&#9;&#9;c0.373-0.725,0.561-1.188,0.561-1.391c0-0.203-0.08-0.433-0.24-0.688c-0.16-0.257-0.405-0.384-0.736-0.384&#13;&#10;&#9;&#9;s-0.726,0.031-1.184,0.096c-0.459,0.064-0.827,0.219-1.104,0.464s-0.65,0.752-1.12,1.521c-0.469,0.768-0.768,1.387-0.896,1.855&#13;&#10;&#9;&#9;c-0.128,0.47-0.24,0.747-0.336,0.832c-0.097,0.086-0.268,0.128-0.513,0.128s-0.442,0.032-0.592,0.097&#13;&#10;&#9;&#9;c-0.149,0.063-0.245,0.096-0.288,0.096c-0.213,0-0.319-0.353-0.319-1.057c0-0.703,0.154-1.365,0.464-1.984&#13;&#10;&#9;&#9;c0.309-0.617,0.464-1.045,0.464-1.279s-0.096-0.459-0.288-0.672c-0.47-0.469-0.838-0.977-1.104-1.52&#13;&#10;&#9;&#9;c-0.268-0.544-0.47-1.136-0.608-1.776c-0.139-0.64-0.277-1.141-0.416-1.504c-0.139-0.362-0.208-0.608-0.208-0.736&#13;&#10;&#9;&#9;c0-0.341,0.224-0.528,0.672-0.56c0.448-0.032,1.131-0.144,2.048-0.336c3.285-0.725,5.717-1.088,7.296-1.088&#13;&#10;&#9;&#9;c1.473,0,2.688,0.341,3.648,1.024c0.469,0.341,0.778,0.555,0.928,0.64c0.149,0.085,0.225,0.197,0.225,0.336&#13;&#10;&#9;&#9;s-0.14,0.363-0.416,0.672c-0.278,0.31-0.496,0.624-0.656,0.944c-0.16,0.32-0.331,0.582-0.512,0.784&#13;&#10;&#9;&#9;c-0.182,0.203-0.348,0.347-0.496,0.432c-0.149,0.085-0.3,0.4-0.448,0.944c-0.149,0.544-0.225,0.918-0.225,1.12&#13;&#10;&#9;&#9;c0,0.203,0.043,0.353,0.129,0.448c0.085,0.096,0.244,0.219,0.479,0.367c0.234,0.15,0.353,0.294,0.353,0.433s-0.134,0.256-0.4,0.353&#13;&#10;&#9;&#9;c-0.267,0.096-0.544,0.527-0.832,1.295c-0.288,0.769-0.667,1.313-1.136,1.633c-0.171,0.106-0.256,0.24-0.256,0.399&#13;&#10;&#9;&#9;c0,0.16,0.138,0.294,0.416,0.4c0.276,0.106,0.72,0.155,1.327,0.144c0.608-0.01,1.125-0.016,1.553-0.016&#13;&#10;&#9;&#9;c0.426,0,0.891,0.021,1.392,0.064s0.971,0.063,1.408,0.063c0.437,0,0.821-0.017,1.152-0.048c0.33-0.032,0.506-0.049,0.527-0.049&#13;&#10;&#9;&#9;c0.341,0,0.544,0.156,0.608,0.465c0.063,0.309,0.352,0.838,0.864,1.584c0.17,0.234,0.256,0.49,0.256,0.768L27.494,25.389z&#13;&#10;&#9;&#9; M20.294,3.821c0.213,0,0.384,0.08,0.512,0.24c0.128,0.16,0.342,0.571,0.641,1.232c0.298,0.662,0.447,1.088,0.447,1.28&#13;&#10;&#9;&#9;s-0.171,0.326-0.512,0.4c-0.342,0.075-0.8,0.112-1.376,0.112s-1.371,0.091-2.384,0.272c-1.014,0.181-1.851,0.363-2.512,0.544&#13;&#10;&#9;&#9;c-0.662,0.181-1.094,0.272-1.296,0.272c-0.203,0-0.544-0.069-1.024-0.208s-1.008-0.208-1.584-0.208&#13;&#10;&#9;&#9;c-1.046,0-1.792,0.235-2.24,0.704c-0.299,0.32-0.512,0.48-0.64,0.48S8.075,8.84,7.958,8.637C7.841,8.434,7.664,8.013,7.43,7.373&#13;&#10;&#9;&#9;c-0.234-0.64-0.352-1.13-0.352-1.472c0-0.256,0.106-0.384,0.32-0.384l0.703,0.064c0.405,0,1.354-0.053,2.849-0.16&#13;&#10;&#9;&#9;c1.493-0.107,2.389-0.203,2.688-0.288c1.345-0.341,2.769-0.645,4.272-0.912C19.414,3.954,20.209,3.821,20.294,3.821z&#13;&#10;&#9;&#9; M11.814,14.829c0.085,0,0.725-0.096,1.92-0.288c1.194-0.192,2.176-0.32,2.943-0.384c0.47-0.042,0.795-0.229,0.977-0.56&#13;&#10;&#9;&#9;c0.181-0.331,0.271-0.64,0.271-0.928c0-0.288-0.117-0.533-0.352-0.736c-0.235-0.203-0.613-0.304-1.136-0.304&#13;&#10;&#9;&#9;c-0.523,0-1.152,0.08-1.889,0.24c-0.735,0.16-1.467,0.384-2.191,0.672c-0.726,0.288-1.132,0.475-1.217,0.56&#13;&#10;&#9;&#9;c-0.085,0.085-0.128,0.267-0.128,0.544c0,0.278,0.064,0.544,0.192,0.8C11.334,14.701,11.536,14.829,11.814,14.829z" stroke-width="1"/>
    </g>
    <g/>
    <g/>
    <g/>
    <g/>
    <g/>
    <g/>
    <g/>
    <g/>
    <g/>
    <g/>
    <g/>
    <g/>
    <g/>
    <g/>
    <g/>
  </g>
</svg>