<svg xmlns="http://www.w3.org/2000/svg" xmlns:xlink="http://www.w3.org/1999/xlink" version="1.1" id="图层_1" x="0px" y="0px" width="29.095998764038086" height="28.230998992919922" viewBox="1.2979998588562012 0.5049999952316284 29.095998764038086 28.230998992919922" style="enable-background:new 0 0 30 30;" xml:space="preserve">
  <g>
    <g>
      <path style="fill:#0000FF;" d="M29.894,23.789c0,0.106-0.069,0.203-0.208,0.287c-0.139,0.086-0.447,0.182-0.928,0.289&#13;&#10;&#9;&#9;c-0.479,0.105-0.96,0.16-1.439,0.16c-0.48,0-0.955-0.033-1.425-0.097c-2.133-0.362-3.439-0.555-3.92-0.576&#13;&#10;&#9;&#9;c-0.479-0.021-0.778-0.085-0.896-0.192c-0.117-0.105-0.188-0.319-0.208-0.64c-0.064-0.768-0.427-1.573-1.088-2.416&#13;&#10;&#9;&#9;c-0.662-0.843-1.339-1.435-2.032-1.776c-0.693-0.34-1.232-0.634-1.616-0.879c-0.384-0.246-0.613-0.369-0.688-0.369&#13;&#10;&#9;&#9;c-0.075,0-0.112,0.107-0.112,0.32c0,2.176,0.064,3.958,0.192,5.344c0.128,1.387,0.191,2.688,0.191,3.904&#13;&#10;&#9;&#9;c0,0.725-0.16,1.088-0.479,1.088c-0.214,0-0.769-0.207-1.664-0.623c-0.896-0.416-1.573-0.699-2.032-0.849s-1.131-0.518-2.016-1.104&#13;&#10;&#9;&#9;c-0.886-0.586-1.328-1.008-1.328-1.264c0-0.128,0.068-0.191,0.208-0.191c0.139,0,0.314,0.037,0.527,0.111&#13;&#10;&#9;&#9;c0.214,0.074,0.661,0.16,1.345,0.256c0.683,0.096,1.274,0.145,1.775,0.145s0.832-0.128,0.992-0.385&#13;&#10;&#9;&#9;c0.16-0.256,0.24-0.612,0.24-1.071c0-0.458-0.027-1.339-0.08-2.64c-0.054-1.301-0.069-2.117-0.048-2.448&#13;&#10;&#9;&#9;c0.021-0.331-0.011-0.496-0.096-0.496c-0.086,0-0.214,0.075-0.385,0.224c-1.322,1.217-2.581,2.176-3.775,2.881&#13;&#10;&#9;&#9;c-1.195,0.703-1.91,1.322-2.145,1.855c-0.043,0.128-0.224,0.293-0.544,0.496c-0.32,0.203-0.816,0.304-1.488,0.304&#13;&#10;&#9;&#9;S3.398,23.4,2.758,23.324c-0.64-0.074-0.96-0.202-0.96-0.383c0-0.182,0.16-0.326,0.48-0.433c0.725-0.234,1.675-0.714,2.848-1.44&#13;&#10;&#9;&#9;l3.808-2.24c0.854-0.554,1.664-1.236,2.433-2.047c0.938-0.981,1.504-1.707,1.696-2.177c0.063-0.17,0.096-0.469,0.096-0.896&#13;&#10;&#9;&#9;l0.063-3.072c0-0.362-0.133-0.512-0.399-0.448c-0.268,0.064-0.518,0.096-0.752,0.096c-0.235,0-0.4,0.064-0.496,0.192&#13;&#10;&#9;&#9;c-0.097,0.128-0.214,0.416-0.353,0.864c-0.139,0.448-0.208,0.88-0.208,1.296s0.037,0.709,0.112,0.88&#13;&#10;&#9;&#9;c0.074,0.171,0.192,0.24,0.352,0.208c0.16-0.032,0.294-0.048,0.4-0.048c0.299,0,0.448,0.107,0.448,0.32&#13;&#10;&#9;&#9;c0,0.213-0.08,0.459-0.24,0.736s-0.603,0.597-1.328,0.96c-1.6,0.79-2.763,1.471-3.487,2.047c-0.278,0.214-0.502,0.32-0.673,0.32&#13;&#10;&#9;&#9;s-0.384-0.187-0.64-0.561c-0.256-0.372-0.384-0.655-0.384-0.848c0-0.256,0.176-0.437,0.527-0.543&#13;&#10;&#9;&#9;c0.353-0.107,0.736-0.251,1.152-0.433c0.416-0.181,0.816-0.363,1.2-0.544s0.603-0.32,0.656-0.416c0.053-0.096,0.08-0.25,0.08-0.464&#13;&#10;&#9;&#9;s-0.06-0.32-0.177-0.32s-0.31,0.08-0.575,0.24c-0.268,0.16-0.486,0.24-0.656,0.24c-0.342,0-0.656-0.256-0.944-0.768&#13;&#10;&#9;&#9;c-0.288-0.512-0.432-0.853-0.432-1.024c0-0.17,0.08-0.282,0.24-0.336c0.159-0.053,0.826-0.133,2-0.24&#13;&#10;&#9;&#9;c0.298-0.021,0.447-0.107,0.447-0.256c0-0.213-0.048-0.458-0.144-0.736c-0.096-0.277-0.246-0.416-0.448-0.416&#13;&#10;&#9;&#9;c-0.203,0-0.485,0.054-0.848,0.16c-0.363,0.107-0.608,0.16-0.736,0.16s-0.235-0.042-0.32-0.128c-0.085-0.085-0.213-0.4-0.384-0.944&#13;&#10;&#9;&#9;s-0.256-0.944-0.256-1.2c0-0.256,0.106-0.384,0.32-0.384c0.213,0,0.437,0.032,0.672,0.096c0.234,0.064,0.538,0.096,0.912,0.096&#13;&#10;&#9;&#9;c0.373,0,0.954-0.053,1.744-0.16c0.789-0.106,1.584-0.24,2.384-0.4s1.236-0.272,1.312-0.336s0.128-0.176,0.16-0.336&#13;&#10;&#9;&#9;s0.048-0.389,0.048-0.688c0-0.298,0.043-0.496,0.128-0.592c0.085-0.096,0.31-0.186,0.672-0.272&#13;&#10;&#9;&#9;c0.363-0.085,0.651-0.128,0.864-0.128s0.362,0.043,0.448,0.128c0.085,0.086,0.133,0.229,0.144,0.432&#13;&#10;&#9;&#9;c0.011,0.203,0.017,0.4,0.017,0.592c0,0.192,0.048,0.288,0.144,0.288c0.097,0,0.229-0.021,0.4-0.064&#13;&#10;&#9;&#9;c0.299-0.085,1.179-0.261,2.64-0.528c1.461-0.267,2.256-0.4,2.384-0.4c0.363,0,0.693,0.336,0.992,1.008s0.448,1.115,0.448,1.328&#13;&#10;&#9;&#9;c0,0.341-0.256,0.512-0.768,0.512c-0.172,0-0.406-0.016-0.704-0.048c-0.3-0.032-0.624-0.048-0.977-0.048&#13;&#10;&#9;&#9;c-0.352,0-0.587,0.027-0.704,0.08s-0.224,0.197-0.319,0.432c-0.097,0.235-0.145,0.448-0.145,0.64s0.097,0.277,0.288,0.256&#13;&#10;&#9;&#9;c0.981-0.192,1.76-0.288,2.336-0.288c0.171,0,0.282,0.069,0.336,0.208s0.08,0.405,0.08,0.8c0,0.395-0.139,0.592-0.416,0.592&#13;&#10;&#9;&#9;c-0.405,0.021-0.955,0.15-1.647,0.384c-0.694,0.235-1.04,0.443-1.04,0.624c0,0.182,0.101,0.352,0.304,0.512&#13;&#10;&#9;&#9;c0.202,0.16,0.538,0.24,1.008,0.24h0.769c0.597,0,1.013,0.043,1.248,0.128c0.234,0.085,0.352,0.251,0.352,0.496&#13;&#10;&#9;&#9;c0,0.246-0.021,0.518-0.064,0.816c-0.043,0.299-0.149,0.48-0.319,0.544c-0.171,0.064-0.576,0.144-1.216,0.24&#13;&#10;&#9;&#9;c-0.641,0.096-1.26,0.144-1.856,0.144c-0.598,0-1.029-0.096-1.296-0.288s-0.48-0.507-0.64-0.944c-0.16-0.437-0.24-0.944-0.24-1.52&#13;&#10;&#9;&#9;l0.032-1.792c0-1.152-0.128-1.728-0.385-1.728c-0.256,0-0.518,0.053-0.783,0.16c-0.268,0.107-0.416,0.229-0.448,0.368&#13;&#10;&#9;&#9;c-0.032,0.139-0.069,0.704-0.112,1.696c-0.043,0.992-0.063,1.669-0.063,2.032c0,0.299,0.101,0.592,0.304,0.88&#13;&#10;&#9;&#9;c0.202,0.288,1.04,1.083,2.512,2.384c1.472,1.301,2.581,2.224,3.328,2.768c0.746,0.544,1.717,1.051,2.912,1.52&#13;&#10;&#9;&#9;c2.282,0.896,3.626,1.451,4.032,1.664l0.991,0.545C29.755,23.521,29.894,23.66,29.894,23.789z M19.174,1.005&#13;&#10;&#9;&#9;c0.213,0,0.469,0.229,0.769,0.688c0.298,0.459,0.447,0.795,0.447,1.008c0,0.32-0.277,0.438-0.832,0.352&#13;&#10;&#9;&#9;c-0.106-0.021-0.31-0.032-0.607-0.032c-0.299,0-0.752,0.054-1.36,0.16c-0.607,0.107-1.136,0.256-1.584,0.448&#13;&#10;&#9;&#9;c-0.448,0.192-0.891,0.299-1.328,0.32c-0.438,0.021-0.752,0.102-0.943,0.24c-0.192,0.139-0.353,0.358-0.48,0.656&#13;&#10;&#9;&#9;c-0.128,0.299-0.245,0.491-0.352,0.576c-0.107,0.085-0.3,0.149-0.576,0.192c-0.981,0.085-1.824,0.224-2.528,0.416&#13;&#10;&#9;&#9;s-1.344,0.288-1.92,0.288S7.014,6.274,7.014,6.188c0-0.085,0.16-0.256,0.48-0.512S8.507,5,9.574,4.413&#13;&#10;&#9;&#9;c1.066-0.586,2.197-1.114,3.392-1.584c1.194-0.469,2.282-0.8,3.265-0.992c0.98-0.192,1.834-0.437,2.56-0.736&#13;&#10;&#9;&#9;C18.961,1.037,19.089,1.005,19.174,1.005z" stroke-width="1"/>
    </g>
    <g/>
    <g/>
    <g/>
    <g/>
    <g/>
    <g/>
    <g/>
    <g/>
    <g/>
    <g/>
    <g/>
    <g/>
    <g/>
    <g/>
    <g/>
  </g>
</svg>