<svg xmlns="http://www.w3.org/2000/svg" xmlns:xlink="http://www.w3.org/1999/xlink" version="1.1" id="图层_1" x="0px" y="0px" width="20.39099884033203" height="24.45600128173828" viewBox="3.6200003623962402 2.9099972248077393 20.39099884033203 24.45600128173828" enable-background="new 0 0 30 30" xml:space="preserve">
<g>
	<path fill="#0000FF" d="M18.935,9.234c0.555,0,1.142,0.208,1.761,0.624c0.618,0.416,1.188,1.136,1.712,2.16   c0.522,1.024,0.794,1.755,0.815,2.192c0.021,0.438,0.075,0.747,0.16,0.928s0.128,0.315,0.128,0.4c0,0.256-0.277,0.383-0.832,0.383   s-1.168-0.223-1.84-0.671c-0.672-0.448-1.189-0.794-1.552-1.04c-0.363-0.245-0.544-0.458-0.544-0.64   c0-0.181,0.16-0.293,0.479-0.336c1.024-0.149,1.653-0.309,1.889-0.48c0.234-0.17,0.352-0.442,0.352-0.816   c0-0.373-0.214-0.763-0.64-1.168c-0.428-0.405-0.912-0.608-1.456-0.608s-1.083,0.229-1.616,0.688c-0.533,0.459-0.8,1.029-0.8,1.712   l0.032,0.608c0,0.32-0.064,0.55-0.192,0.688c-0.128,0.139-0.363,0.24-0.704,0.304c-1.92,0.341-4.054,0.773-6.4,1.296   c-2.347,0.523-3.583,0.848-3.711,0.976s-0.251,0.192-0.368,0.192c-0.118,0-0.229-0.149-0.336-0.448   c-0.277-0.811-0.539-1.435-0.784-1.872c-0.245-0.437-0.368-0.73-0.368-0.88s0.042-0.24,0.128-0.272   c0.085-0.032,0.288-0.048,0.608-0.048c0.362,0,0.848-0.085,1.456-0.256c0.608-0.17,0.997-0.352,1.167-0.544s0.433-0.512,0.784-0.96   c0.353-0.448,0.73-0.981,1.137-1.6c0.938-1.493,1.845-2.811,2.72-3.952c0.874-1.141,1.429-1.824,1.664-2.048   c0.234-0.224,0.427-0.336,0.576-0.336c0.362,0,0.928,0.256,1.695,0.768c0.769,0.512,1.152,0.896,1.152,1.152   c0,0.213-0.267,0.357-0.8,0.432c-0.534,0.075-1.152,0.427-1.856,1.056c-0.704,0.63-1.359,1.467-1.968,2.512   c-0.608,1.045-0.912,1.675-0.912,1.888s0.074,0.32,0.224,0.32c0.427,0,1.152-0.096,2.177-0.288   c1.023-0.192,1.914-0.576,2.672-1.152C17.5,9.522,18.231,9.234,18.935,9.234z M22.263,19.026c0,0.192-0.117,0.39-0.352,0.593   c-0.235,0.202-0.416,0.442-0.544,0.719c-0.32,0.705-0.864,1.548-1.632,2.529c-0.235,0.277-0.353,0.896-0.353,1.855l0.032,0.896   c0,0.319-0.059,0.538-0.176,0.655c-0.118,0.117-0.39,0.155-0.816,0.112s-1.088-0.064-1.983-0.064c-0.896,0-2.044,0.059-3.44,0.176   c-1.397,0.117-2.24,0.209-2.528,0.272s-0.501,0.097-0.64,0.097s-0.315-0.145-0.528-0.433s-0.549-0.972-1.008-2.048   c-0.459-1.077-0.747-1.84-0.864-2.288s-0.261-0.912-0.432-1.392c-0.171-0.48-0.326-0.843-0.464-1.088   c-0.139-0.246-0.208-0.475-0.208-0.688c0-0.533,0.49-0.747,1.472-0.64c0.192,0.021,0.373,0.031,0.544,0.031   c0.598,0,1.92-0.202,3.968-0.607c2.049-0.405,3.718-0.608,5.009-0.608c1.29,0,2.437,0.208,3.439,0.624S22.263,18.578,22.263,19.026   z M11.447,23.763c0.341,0,0.65-0.032,0.928-0.097c0.704-0.191,1.664-0.33,2.88-0.416c0.726-0.042,1.163-0.324,1.313-0.848   c0.148-0.522,0.224-1.034,0.224-1.535c0-0.502-0.08-0.849-0.24-1.041c-0.16-0.191-0.507-0.287-1.04-0.287s-1.435,0.144-2.704,0.432   c-1.27,0.287-2,0.646-2.191,1.072c-0.192,0.427-0.288,0.912-0.288,1.455c0,0.545,0.063,0.892,0.191,1.041   C10.647,23.688,10.956,23.763,11.447,23.763z" stroke-width="1"/>
</g>
</svg>