<svg xmlns="http://www.w3.org/2000/svg" xmlns:xlink="http://www.w3.org/1999/xlink" version="1.1" id="图层_1" x="0px" y="0px" width="26.91900062561035" height="29.83099937438965" viewBox="1.8919997215270996 -0.0020000338554382324 26.91900062561035 29.83099937438965" enable-background="new 0 0 30 30" xml:space="preserve">
<g>
	<path fill="#0000FF" d="M27.767,19.442c0.128,0,0.251,0.31,0.368,0.929s0.176,1.509,0.176,2.672c0,1.162-0.053,2.367-0.159,3.615   c-0.107,1.248-0.208,2.006-0.305,2.271c-0.096,0.268-0.213,0.4-0.352,0.4s-0.32-0.08-0.544-0.24   c-0.225-0.16-0.561-0.336-1.008-0.527c-1.516-0.598-2.972-1.653-4.368-3.168c-1.397-1.515-2.565-3.285-3.504-5.313   c-0.128-0.276-0.256-0.416-0.385-0.416c-0.128,0-0.352,0.076-0.672,0.225c-0.319,0.149-0.64,0.459-0.96,0.928   c-0.106,0.15-0.314,0.246-0.624,0.288c-0.31,0.043-0.8,0.069-1.472,0.08s-1.222,0.017-1.648,0.017c-0.191,0-0.314,0.09-0.367,0.271   c-0.054,0.182-0.097,0.592-0.128,1.232c-0.032,0.64-0.049,1.151-0.049,1.535l0.064,1.217c0,0.447-0.16,0.672-0.48,0.672   c-0.405,0-1.194-0.262-2.367-0.784c-1.174-0.522-2.07-0.966-2.688-1.328c-0.619-0.362-0.971-0.544-1.056-0.544   s-0.192,0.043-0.32,0.128S4.636,23.73,4.455,23.73c-0.182,0-0.518-0.234-1.008-0.704c-0.491-0.469-0.736-0.832-0.736-1.088   s0.16-0.442,0.48-0.56c0.32-0.117,0.779-0.357,1.376-0.721c1.941-1.131,3.659-1.994,5.152-2.592   c0.171-0.064,0.256-0.309,0.256-0.736c0-0.426-0.037-0.692-0.111-0.799c-0.075-0.107-0.208-0.16-0.4-0.16   c-0.448,0-1.376,0.207-2.784,0.623c-1.408,0.416-2.262,0.806-2.56,1.168c-0.107,0.15-0.24,0.225-0.4,0.225   c-0.16,0-0.32-0.165-0.48-0.496c-0.16-0.33-0.341-0.656-0.544-0.977c-0.203-0.319-0.304-0.64-0.304-0.959   c0-0.428,0.218-0.651,0.656-0.672c0.437-0.021,1.099-0.144,1.984-0.368s1.819-0.533,2.8-0.928c0.98-0.395,1.515-0.629,1.6-0.704   s0.128-0.171,0.128-0.288s-0.031-0.272-0.096-0.464c-0.063-0.192-0.155-0.315-0.271-0.368c-0.118-0.053-0.353-0.096-0.704-0.128   c-0.353-0.032-0.667-0.048-0.944-0.048s-0.582,0.027-0.912,0.08c-0.331,0.054-0.667,0.08-1.008,0.08   c-0.342,0-0.512-0.053-0.512-0.16c0-0.106,0.096-0.245,0.288-0.416c0.192-0.17,0.955-0.682,2.288-1.536   c1.333-0.853,2.821-1.696,4.465-2.528c0.298-0.128,0.506-0.266,0.624-0.416c0.116-0.149,0.229-0.224,0.336-0.224   c0.256,0,0.746,0.459,1.472,1.376c0.085,0.107,0.16,0.16,0.224,0.16c0.064,0,0.097-0.17,0.097-0.512S14.78,6.83,14.535,5.73   c-0.246-1.099-0.464-2.123-0.656-3.072s-0.288-1.456-0.288-1.52c0-0.427,0.362-0.64,1.088-0.64c0.299,0,0.501,0.102,0.608,0.304   c0.106,0.203,0.224,0.747,0.352,1.632s0.32,1.707,0.576,2.464c0.256,0.758,0.565,2.406,0.928,4.944   c0.085,0.576,0.177,0.95,0.272,1.12c0.096,0.171,0.271,0.229,0.528,0.176c0.256-0.053,0.464-0.08,0.624-0.08   c0.159,0,0.304,0.075,0.432,0.224s0.293,0.512,0.496,1.088c0.202,0.576,0.304,0.939,0.304,1.088c0,0.149-0.224,0.235-0.672,0.256   c-0.619,0.021-0.928,0.256-0.928,0.704c0,0.021,0.08,0.347,0.24,0.976c0.159,0.629,0.261,0.977,0.304,1.04   c0.042,0.063,0.117,0.097,0.224,0.097c0.085,0,0.353-0.166,0.8-0.496c0.448-0.331,0.769-0.593,0.96-0.785   c0.192-0.192,0.368-0.288,0.528-0.288s0.368,0.149,0.624,0.448c0.256,0.298,0.384,0.576,0.384,0.832s-0.128,0.453-0.384,0.592   c-0.256,0.14-0.518,0.336-0.784,0.593c-0.267,0.256-0.784,0.608-1.552,1.056c-0.128,0.086-0.192,0.24-0.192,0.464   s0.299,0.892,0.896,2c0.597,1.11,1.413,2.208,2.448,3.296c1.034,1.088,1.818,1.633,2.352,1.633c0.277,0,0.528-0.176,0.752-0.528   c0.225-0.353,0.459-0.773,0.704-1.265c0.245-0.49,0.517-1.588,0.816-3.295C27.489,19.891,27.639,19.442,27.767,19.442z    M9.111,23.347c0.384,0,0.64-0.139,0.768-0.416s0.192-0.784,0.192-1.521s-0.097-1.104-0.288-1.104c-0.192,0-0.565,0.182-1.12,0.544   l-1.568,1.056c-0.534,0.32-0.8,0.588-0.8,0.801s0.25,0.373,0.752,0.479C7.548,23.293,8.236,23.347,9.111,23.347z M15.511,10.931   c0-0.235-0.043-0.501-0.128-0.8c-0.085-0.298-0.171-0.501-0.256-0.608c-0.086-0.106-0.235-0.16-0.448-0.16   c-1.023,0-2.031,0.256-3.023,0.768c-0.992,0.512-1.488,1.003-1.488,1.472c0,0.171,0.117,0.293,0.352,0.368   c0.235,0.075,0.48,0.176,0.736,0.304s0.475,0.192,0.656,0.192c0.181,0,0.512-0.069,0.992-0.208   c0.479-0.138,1.188-0.314,2.128-0.528C15.351,11.646,15.511,11.378,15.511,10.931z M17.015,17.459c0-0.129-0.117-0.57-0.352-1.328   c-0.235-0.757-0.396-1.206-0.48-1.344s-0.251-0.208-0.496-0.208s-0.646,0.096-1.199,0.288c-0.556,0.192-1.078,0.352-1.568,0.48   c-0.342,0.107-0.512,0.459-0.512,1.056c0,0.299,0.128,0.508,0.384,0.624c0.256,0.118,0.384,0.288,0.384,0.513   c0,0.224-0.182,0.463-0.544,0.719c-0.363,0.257-0.544,0.652-0.544,1.185c0,0.278,0.139,0.416,0.416,0.416   c0.427,0,1.152-0.251,2.176-0.752c1.024-0.501,1.669-0.843,1.937-1.024C16.882,17.901,17.015,17.693,17.015,17.459z M23.255,9.075   c0,0.405-0.342,0.608-1.023,0.608c-0.129,0-0.235-0.011-0.32-0.032c-0.576-0.149-1.174-0.245-1.792-0.288   c-0.256-0.021-0.485-0.256-0.688-0.704c-0.203-0.448-0.304-1.019-0.304-1.712c0-0.693,0.117-1.04,0.352-1.04   c0.129,0,0.272,0.096,0.433,0.288c0.16,0.192,0.496,0.491,1.008,0.896c0.512,0.406,0.875,0.662,1.088,0.768   C22.839,8.264,23.255,8.669,23.255,9.075z" stroke-width="1"/>
</g>
</svg>