<svg xmlns="http://www.w3.org/2000/svg" xmlns:xlink="http://www.w3.org/1999/xlink" version="1.1" id="图层_1" x="0px" y="0px" width="23.878997802734375" height="24.967998504638672" viewBox="3.4599997997283936 2.895003080368042 23.878997802734375 24.967998504638672" enable-background="new 0 0 30 30" xml:space="preserve">
<g>
	<path fill="#0000FF" d="M8.28,22.563c0,0.107-0.054,0.203-0.16,0.289c-0.448,0.362-0.939,1.407-1.472,3.136   c-0.213,0.661-0.469,0.991-0.768,0.991c-0.171,0-0.533-0.187-1.088-0.56c-0.555-0.373-0.832-0.736-0.832-1.088   c0-0.353,0.245-0.779,0.736-1.28s1.061-0.943,1.712-1.328c0.65-0.384,1.066-0.576,1.248-0.576s0.331,0.043,0.448,0.129   C8.221,22.36,8.28,22.457,8.28,22.563z M24.824,5.603c0,0.192-0.097,0.374-0.288,0.544c-0.684,0.555-1.142,1.152-1.376,1.792   c-0.235,0.64-0.63,1.472-1.185,2.496s-0.938,1.856-1.151,2.496c-0.214,0.64-0.47,0.96-0.769,0.96c-0.106,0-0.267-0.069-0.479-0.208   c-0.214-0.139-0.619-0.208-1.216-0.208c-1.345,0-2.017,0.203-2.017,0.608c0,0.192,0.032,0.331,0.097,0.416   c0.063,0.085,0.148,0.128,0.256,0.128c0.576,0,1.12,0.021,1.632,0.064c0.512,0.043,0.864,0.091,1.056,0.144   c0.192,0.054,0.288,0.155,0.288,0.304c0,0.149-0.027,0.363-0.08,0.64c-0.054,0.277-0.117,0.469-0.191,0.576   c-0.075,0.106-0.4,0.224-0.977,0.352s-1.163,0.225-1.76,0.288c-0.214,0-0.32,0.235-0.32,0.704c0,0.191,0.037,0.33,0.112,0.416   c0.074,0.086,0.229,0.123,0.464,0.111c0.234-0.01,0.48-0.016,0.736-0.016l2.527,0.096c0.342,0,0.576-0.01,0.704-0.031   s0.245-0.032,0.353-0.032c0.404,0,0.741,0.315,1.008,0.944s0.4,1.066,0.4,1.312s-0.134,0.368-0.4,0.368s-0.667-0.096-1.2-0.288   c-0.896-0.32-1.872-0.479-2.928-0.479s-2.443,0.096-4.16,0.287c-1.718,0.192-2.901,0.32-3.552,0.385   c-0.651,0.063-1.078,0.133-1.28,0.207c-0.203,0.076-0.325,0.112-0.368,0.112c-0.213,0-0.427-0.159-0.64-0.479   c-0.214-0.32-0.32-0.604-0.32-0.848c0-0.246,0.128-0.369,0.384-0.369c0.257,0,0.859-0.111,1.809-0.336   c0.949-0.224,2.16-0.41,3.632-0.56c0.256-0.042,0.384-0.213,0.384-0.513c0-0.298-0.063-0.474-0.191-0.527   c-0.128-0.053-0.438-0.08-0.929-0.08c-0.49,0-1.003,0.128-1.536,0.385c-0.128,0.063-0.234,0.096-0.319,0.096   c-0.214,0-0.422-0.24-0.624-0.721c-0.203-0.479-0.305-0.815-0.305-1.008c0-0.191,0.069-0.336,0.208-0.432s0.528-0.187,1.169-0.272   l2.239-0.352c0.213-0.042,0.32-0.256,0.32-0.64c0-0.384-0.134-0.56-0.4-0.528c-0.267,0.032-0.607,0.048-1.023,0.048   s-0.699,0.032-0.849,0.096c-0.149,0.064-0.245,0.096-0.287,0.096c-0.3,0-0.736-0.395-1.313-1.184   c-0.576-0.789-1.125-1.946-1.648-3.472c-0.522-1.525-0.784-2.725-0.784-3.6c0-0.448,0.075-0.779,0.224-0.992   c0.149-0.213,0.389-0.32,0.72-0.32s0.757-0.037,1.28-0.112c0.522-0.074,0.923-0.154,1.2-0.24c1.259-0.363,2.512-0.592,3.76-0.688   c1.248-0.096,2.704-0.144,4.368-0.144s3.002,0.256,4.016,0.768C24.317,4.675,24.824,5.155,24.824,5.603z M10.968,8.931   c0-0.192,0.091-0.347,0.272-0.464c0.181-0.117,0.597-0.298,1.248-0.544c0.65-0.245,1.093-0.421,1.328-0.528   c0.234-0.106,0.352-0.277,0.352-0.512L14.2,5.891c0-0.106-0.048-0.192-0.145-0.256c-0.096-0.064-0.271-0.074-0.527-0.032   c-0.256,0.043-0.646,0.064-1.168,0.064c-0.523,0-0.955,0.16-1.296,0.48c-0.342,0.32-0.513,0.619-0.513,0.896   c0,0.277,0.102,1.003,0.305,2.176c0.202,1.173,0.356,1.883,0.464,2.128c0.106,0.245,0.256,0.448,0.447,0.608   c0.192,0.16,0.379,0.24,0.561,0.24c0.181,0,0.314-0.016,0.399-0.048c0.086-0.032,0.288-0.064,0.608-0.096   c0.32-0.032,0.522-0.074,0.608-0.128c0.085-0.053,0.128-0.165,0.128-0.336l0.031-2.272c0-0.085-0.053-0.128-0.159-0.128   c-0.107,0-0.198,0.043-0.272,0.128c-0.075,0.085-0.203,0.208-0.384,0.368c-0.182,0.16-0.283,0.272-0.304,0.336   c-0.171,0.32-0.379,0.48-0.624,0.48c-0.246,0-0.539-0.203-0.88-0.608C11.139,9.486,10.968,9.166,10.968,8.931z M14.424,24.291   c0,0.427-0.191,0.688-0.576,0.784c-0.384,0.096-0.735,0.144-1.056,0.144s-0.651-0.037-0.992-0.111   c-0.341-0.075-0.592-0.342-0.752-0.801c-0.16-0.458-0.24-0.826-0.24-1.104s0.08-0.564,0.24-0.864   c0.16-0.298,0.389-0.448,0.688-0.448c0.298,0,0.549,0.155,0.752,0.465c0.202,0.309,0.688,0.635,1.456,0.976   c0.148,0.063,0.267,0.187,0.352,0.368C14.381,23.88,14.424,24.077,14.424,24.291z M16.952,21.539c0.106,0,0.288,0.096,0.544,0.288   s0.704,0.448,1.344,0.769c1.003,0.469,1.504,1.034,1.504,1.695c0,0.427-0.347,0.64-1.04,0.64s-1.296-0.074-1.808-0.224   s-0.769-0.384-0.769-0.704c-0.043-0.362-0.117-0.683-0.224-0.96s-0.16-0.518-0.16-0.72s0.069-0.384,0.208-0.544   S16.824,21.539,16.952,21.539z M16.696,11.779c0.042,0,0.224-0.016,0.544-0.048c0.319-0.032,0.624-0.048,0.912-0.048   s0.512-0.085,0.672-0.256c0.16-0.17,0.352-0.56,0.576-1.168c0.224-0.608,0.336-0.981,0.336-1.12S19.65,8.931,19.48,8.931   c-0.172,0-0.454,0.064-0.849,0.192S17.8,9.454,17.32,9.731c-0.48,0.277-0.758,0.507-0.832,0.688   c-0.075,0.182-0.112,0.518-0.112,1.008C16.376,11.662,16.482,11.779,16.696,11.779z M20.12,7.363c0.106,0,0.191-0.192,0.256-0.576   c0.064-0.384,0.096-0.672,0.096-0.864c0-0.192-0.063-0.346-0.191-0.464c-0.128-0.117-0.374-0.24-0.736-0.368   c-0.363-0.128-0.72-0.192-1.072-0.192c-0.352,0-0.635,0.016-0.848,0.048c-0.214,0.032-0.363,0.102-0.448,0.208   c-0.085,0.107-0.203,0.427-0.352,0.96C16.675,6.648,16.6,7.033,16.6,7.267c0,0.235,0.064,0.352,0.192,0.352   s0.512-0.288,1.152-0.864c0.276-0.256,0.544-0.384,0.8-0.384s0.533,0.166,0.832,0.496C19.874,7.198,20.056,7.363,20.12,7.363z    M21.976,22.275c0.726,0,1.413,0.102,2.064,0.304c0.65,0.203,1.242,0.427,1.776,0.672c0.532,0.245,0.837,0.422,0.911,0.528   c0.075,0.106,0.112,0.453,0.112,1.04c0,0.586-0.155,1.156-0.464,1.712c-0.31,0.555-0.56,0.832-0.752,0.832s-0.39-0.112-0.592-0.336   c-0.203-0.225-0.624-0.822-1.265-1.792c-0.64-0.972-1.248-1.819-1.823-2.544c-0.086-0.107-0.128-0.203-0.128-0.289   C21.816,22.318,21.869,22.275,21.976,22.275z" stroke-width="1"/>
</g>
</svg>