<svg xmlns="http://www.w3.org/2000/svg" xmlns:xlink="http://www.w3.org/1999/xlink" version="1.1" id="图层_1" x="0px" y="0px" width="26.727001190185547" height="28.552000045776367" viewBox="1.3159995079040527 0.8310000896453857 26.727001190185547 28.552000045776367" enable-background="new 0 0 30 30" xml:space="preserve">
<g>
	<path fill="#0000FF" d="M25.943,10.867c0.341,0,0.554,0.059,0.64,0.176c0.085,0.118,0.267,0.4,0.544,0.848   c0.277,0.448,0.416,0.87,0.416,1.264c0,0.395-0.096,0.592-0.288,0.592c-0.191,0-0.459-0.053-0.8-0.16   c-1.088-0.341-2.475-0.512-4.16-0.512c-2.73,0-5.27,0.384-7.616,1.152c-1.216,0.405-2.123,0.64-2.72,0.704   c-0.598,0.064-0.944,0.139-1.04,0.224c-0.096,0.086-0.155,0.699-0.176,1.84c-0.021,1.143-0.032,1.84-0.032,2.096l0.064,2.945   c0,0.938-0.172,1.407-0.513,1.407c-0.191,0-0.438-0.133-0.735-0.399c-0.3-0.268-0.534-0.453-0.704-0.561   c-0.448-0.341-0.672-0.57-0.672-0.688s0.074-0.176,0.224-0.176c0.32,0,0.48-0.32,0.48-0.961l-0.097-2.656   c0-0.191-0.054-0.287-0.16-0.287S8.354,17.8,8.183,17.971s-0.31,0.352-0.416,0.544c-0.575,0.875-1.216,1.601-1.919,2.176   c-0.939,0.832-1.531,1.43-1.776,1.792c-0.245,0.363-0.475,0.544-0.688,0.544s-0.528-0.154-0.944-0.464   c-0.416-0.309-0.624-0.586-0.624-0.832c0-0.245,0.139-0.496,0.416-0.752c1.152-1.023,1.781-1.616,1.888-1.775   c0.106-0.16,0.123-0.582,0.048-1.265c-0.075-0.683-0.112-1.76-0.112-3.232s0.042-2.533,0.128-3.184   c0.085-0.65,0.144-1.221,0.176-1.712c0.032-0.491,0.085-0.869,0.16-1.136c0.074-0.266,0.347-0.48,0.816-0.64   c0.469-0.16,0.832-0.261,1.088-0.304c0.256-0.042,0.469-0.085,0.64-0.128c0.747-0.213,1.349-0.32,1.808-0.32   c0.458,0,0.986,0.085,1.584,0.256c0.597,0.171,0.98,0.32,1.152,0.448c0.17,0.128,0.256,0.283,0.256,0.464s-0.097,0.475-0.288,0.88   c-0.192,0.405-0.342,1.024-0.448,1.856c-0.107,0.832-0.16,1.387-0.16,1.664c0,0.277,0.112,0.416,0.336,0.416   c0.225,0,0.73-0.112,1.521-0.336c0.789-0.224,1.855-0.507,3.2-0.848c0.213-0.042,0.356-0.112,0.432-0.208   c0.074-0.096,0.112-0.24,0.112-0.432s-0.06-0.309-0.177-0.352c-0.117-0.042-0.304-0.064-0.56-0.064s-0.539,0.027-0.848,0.08   c-0.31,0.054-0.518,0.08-0.624,0.08c-0.385,0-0.576-0.267-0.576-0.8c0-0.213,0.032-0.368,0.096-0.464   c0.064-0.096,0.16-0.149,0.288-0.16s0.288-0.016,0.48-0.016c0.191,0,0.554-0.053,1.088-0.16c0.532-0.106,0.858-0.218,0.976-0.336   c0.117-0.117,0.176-0.309,0.176-0.576c0-0.266-0.054-0.421-0.16-0.464c-0.106-0.042-0.373-0.064-0.8-0.064   s-0.907,0.096-1.439,0.288c-0.192,0.064-0.353,0.096-0.48,0.096c-0.32,0-0.479-0.208-0.479-0.624s0.042-0.683,0.128-0.8   c0.085-0.117,0.218-0.181,0.399-0.192s0.513-0.09,0.992-0.24c0.48-0.149,0.917-0.277,1.313-0.384   c0.395-0.106,0.612-0.256,0.655-0.448c0.043-0.192,0.08-0.672,0.112-1.44S17.175,3,17.175,2.499c0-0.501,0.085-0.821,0.256-0.96   c0.171-0.139,0.47-0.208,0.896-0.208c1.023,0,1.536,0.256,1.536,0.768c0,0.149-0.032,0.283-0.097,0.4   c-0.063,0.118-0.123,0.379-0.176,0.784c-0.054,0.405-0.08,0.832-0.08,1.28c0,0.448,0.043,0.757,0.128,0.928   s0.256,0.245,0.513,0.224c0.256-0.021,0.612-0.032,1.071-0.032s0.784,0.059,0.977,0.176c0.191,0.118,0.288,0.31,0.288,0.576   c0,0.267-0.064,0.443-0.192,0.528c-0.128,0.085-0.411,0.144-0.848,0.176c-0.438,0.032-0.812,0.102-1.12,0.208   c-0.31,0.107-0.518,0.208-0.624,0.304c-0.107,0.096-0.16,0.24-0.16,0.432s0.026,0.326,0.08,0.4   c0.053,0.075,0.234,0.091,0.544,0.048c0.309-0.043,0.629-0.064,0.96-0.064c0.33,0,0.581,0.038,0.752,0.112s0.256,0.256,0.256,0.544   s-0.085,0.501-0.256,0.64s-0.528,0.24-1.072,0.304s-0.912,0.144-1.104,0.24c-0.192,0.096-0.288,0.288-0.288,0.576   c0,0.288,0.037,0.459,0.112,0.512c0.074,0.054,0.362,0.054,0.863,0c0.501-0.053,1.045-0.08,1.633-0.08   c0.586,0,1.028-0.037,1.327-0.112s0.747-0.149,1.345-0.224C25.292,10.904,25.708,10.867,25.943,10.867z M8.663,13.17l0.032-2.688   c0-0.96-0.246-1.44-0.736-1.44c-0.491,0-0.854,0.267-1.088,0.8c-0.235,0.534-0.352,1.12-0.352,1.76   c0,0.256,0.085,0.395,0.256,0.416c0.448,0.043,0.762,0.224,0.944,0.544s0.272,0.608,0.272,0.864c0,0.576-0.363,0.949-1.088,1.12   c-0.235,0.043-0.443,0.144-0.624,0.304s-0.293,0.363-0.336,0.608C5.9,15.704,5.879,16.2,5.879,16.946   c0,0.257,0.048,0.384,0.144,0.384s0.187-0.031,0.272-0.096l1.024-1.023c0.618-0.598,0.997-0.998,1.136-1.2s0.208-0.571,0.208-1.104   V13.17z M22.999,22.131c0,0.191,0.037,0.976,0.112,2.352c0.074,1.376,0.138,2.234,0.191,2.576s0.08,0.73,0.08,1.168   s-0.139,0.656-0.416,0.656c-0.405,0-1.424-0.459-3.056-1.377c-1.632-0.917-2.448-1.578-2.448-1.983c0-0.235,0.192-0.31,0.576-0.224   c0.746,0.191,1.301,0.287,1.664,0.287c0.362,0,0.586-0.111,0.672-0.336c0.085-0.224,0.128-0.783,0.128-1.68   c0-1.408-0.037-2.789-0.112-4.144c-0.074-1.354-0.159-2.24-0.256-2.656c-0.096-0.416-0.277-0.735-0.544-0.96   s-0.619-0.336-1.056-0.336c-0.438,0-0.912,0.096-1.424,0.288c-0.513,0.192-0.827,0.357-0.944,0.495   c-0.117,0.14-0.176,0.406-0.176,0.801s0.16,0.561,0.479,0.496c0.769-0.171,1.27-0.256,1.504-0.256c0.235,0,0.379,0.021,0.433,0.063   c0.053,0.044,0.08,0.182,0.08,0.416c0,0.235-0.086,0.427-0.256,0.576c-0.172,0.149-0.48,0.325-0.929,0.528   c-0.447,0.203-0.827,0.373-1.136,0.512c-0.31,0.139-0.464,0.4-0.464,0.784c0,0.128,0.063,0.192,0.191,0.192   c0.129,0,0.257-0.012,0.385-0.033c1.066-0.213,1.765-0.319,2.096-0.319c0.33,0,0.496,0.091,0.496,0.272s-0.027,0.362-0.08,0.543   c-0.054,0.182-0.139,0.332-0.256,0.449s-0.405,0.229-0.864,0.336c-0.459,0.106-0.934,0.256-1.424,0.447   c-0.491,0.191-0.779,0.342-0.864,0.448s-0.171,0.396-0.256,0.864c-0.086,0.469-0.171,1.018-0.256,1.647   c-0.086,0.63-0.224,1.089-0.416,1.376c-0.192,0.288-0.438,0.432-0.736,0.432s-0.496-0.074-0.592-0.224s-0.144-0.353-0.144-0.608   s0.058-0.746,0.176-1.471c0.117-0.726,0.208-1.185,0.271-1.377c0.171-0.597,0.325-1.563,0.464-2.896   c0.139-1.332,0.208-2.532,0.208-3.6c0-0.362,0.075-0.64,0.225-0.832c0.148-0.191,0.442-0.394,0.88-0.607   c0.437-0.213,0.869-0.352,1.296-0.416c0.427-0.064,1.003-0.192,1.729-0.384c0.725-0.192,1.354-0.288,1.888-0.288   s1.072,0.091,1.616,0.272c0.544,0.182,0.874,0.326,0.991,0.432c0.117,0.107,0.177,0.235,0.177,0.384s-0.032,0.367-0.097,0.656   c-0.063,0.287-0.08,0.592-0.048,0.912c0.032,0.319,0.08,1.039,0.145,2.159C22.967,20.066,22.999,21.128,22.999,22.131z" stroke-width="1"/>
</g>
</svg>