<svg xmlns="http://www.w3.org/2000/svg" xmlns:xlink="http://www.w3.org/1999/xlink" version="1.1" id="图层_1" x="0px" y="0px" width="26.248001098632812" height="29.897001266479492" viewBox="2.2749998569488525 0.09400022029876709 26.248001098632812 29.897001266479492" enable-background="new 0 0 30 30" xml:space="preserve">
<g>
	<path fill="#0000FF" d="M28.023,17.555c0,0.363-0.15,0.544-0.448,0.544c-0.149,0-0.396-0.042-0.736-0.128   c-1.003-0.277-2.149-0.416-3.439-0.416c-1.291,0-2.086,0.043-2.385,0.128s-0.447,0.896-0.447,2.433   c0,0.277,0.016,0.575,0.048,0.896c0.032,0.319,0.048,0.763,0.048,1.327c0,0.566-0.032,1.115-0.096,1.648   c-0.064,0.533-0.097,1.12-0.097,1.76l0.097,2.848c0,0.32-0.049,0.549-0.145,0.689c-0.096,0.139-0.39,0.207-0.88,0.207   c-0.491,0-0.736-0.127-0.736-0.383c0-0.064,0.011-0.141,0.032-0.225c0.106-0.277,0.16-0.715,0.16-1.313   c0-1.408-0.064-3.254-0.192-5.535c-0.128-2.283-0.224-3.525-0.288-3.729c-0.063-0.203-0.251-0.305-0.56-0.305   c-0.31,0-1.12,0.145-2.432,0.433c-1.313,0.288-2.092,0.507-2.336,0.655c-0.246,0.15-0.358,0.38-0.336,0.688   c0.021,0.31,0.031,0.619,0.031,0.929c0,0.309-0.021,0.549-0.063,0.72c-0.043,0.341-0.064,0.597-0.064,0.768l0.032,0.64   c0,0.256-0.091,0.385-0.272,0.385c-0.181,0-0.677-0.24-1.487-0.721c-0.812-0.479-1.568-0.986-2.272-1.52   c-0.149-0.106-0.314-0.16-0.496-0.16s-0.555,0.075-1.12,0.225c-0.565,0.148-1.163,0.293-1.792,0.432   c-0.629,0.139-1.003,0.251-1.12,0.336c-0.118,0.086-0.197,0.128-0.24,0.128c-0.299,0-0.523-0.405-0.672-1.216   c-0.149-0.811-0.224-1.754-0.224-2.832c0-1.077,0.026-2.24,0.08-3.488s0.096-2.037,0.128-2.368   c0.032-0.331,0.117-0.603,0.256-0.816c0.138-0.213,0.352-0.336,0.64-0.368c0.288-0.032,0.613-0.128,0.976-0.288   s0.576-0.298,0.64-0.416c0.064-0.117,0.096-0.389,0.096-0.816c0-0.405,0.309-0.608,0.928-0.608c0.341,0,0.533,0.224,0.576,0.672   c0.021,0.235,0.117,0.352,0.288,0.352c0.405,0,0.607-0.181,0.607-0.544c0-0.597-0.165-0.971-0.495-1.12   C7.484,7.934,7.153,7.858,6.823,7.858S6.098,7.944,5.639,8.115c-0.459,0.171-0.806,0.384-1.04,0.64   c-0.235,0.256-0.475,0.384-0.72,0.384c-0.246,0-0.491-0.373-0.736-1.12c-0.246-0.747-0.368-1.253-0.368-1.52   c0-0.267,0.192-0.411,0.576-0.432c0.683-0.042,1.808-0.224,3.376-0.544S9.74,4.84,11.063,4.435   c0.234-0.064,0.426-0.096,0.575-0.096c0.363,0,0.688,0.283,0.977,0.848c0.288,0.565,0.432,0.981,0.432,1.248   c0,0.267-0.224,0.4-0.672,0.4c-0.875,0-1.536,0.208-1.984,0.624C9.943,7.875,9.719,8.371,9.719,8.946c0,0.32,0.192,0.48,0.576,0.48   c0.555,0,1.072,0.032,1.552,0.096c0.48,0.064,0.763,0.149,0.849,0.256c0.085,0.107,0.128,0.251,0.128,0.432   c0,0.182-0.043,0.448-0.128,0.8c-0.086,0.352-0.128,0.981-0.128,1.888c0,0.907,0.016,1.419,0.048,1.536   c0.032,0.118,0.101,0.176,0.208,0.176c0.191,0,0.65-0.384,1.376-1.152c0.725-0.768,1.274-1.53,1.647-2.288   c0.373-0.757,0.561-1.264,0.561-1.52c0-0.256-0.08-0.384-0.24-0.384s-0.411,0.059-0.752,0.176c-0.342,0.118-0.608,0.24-0.8,0.368   c-0.192,0.128-0.39,0.192-0.592,0.192c-0.203,0-0.385-0.234-0.545-0.704c-0.159-0.469-0.239-0.864-0.239-1.184   c0-0.32,0.202-0.512,0.607-0.576c0.555-0.064,1.194-0.181,1.92-0.352c0.726-0.17,1.707-0.341,2.944-0.512   c1.237-0.17,2.72-0.448,4.448-0.832c0.384-0.085,0.677-0.128,0.88-0.128c0.202,0,0.368,0.08,0.496,0.24s0.298,0.405,0.512,0.736   c0.213,0.331,0.32,0.635,0.32,0.912c0,0.277-0.048,0.459-0.145,0.544c-0.096,0.085-0.293,0.128-0.592,0.128h-0.384   c-0.726,0-1.088,0.139-1.088,0.416c0,0.149,0.106,0.299,0.319,0.448c0.214,0.149,0.32,0.331,0.32,0.544   c0,0.128-0.096,0.336-0.288,0.624c-0.191,0.288-0.288,0.528-0.288,0.72c0,0.192,0.106,0.363,0.32,0.512   c0.981,0.683,1.472,1.365,1.472,2.048c0,0.299-0.139,0.448-0.416,0.448s-0.646-0.075-1.104-0.224   c-0.459-0.149-0.864-0.224-1.216-0.224c-0.353,0-0.63,0.085-0.832,0.256c-0.203,0.171-0.4,0.326-0.592,0.464   c-0.192,0.139-0.288,0.304-0.288,0.496c0,0.192,0.111,0.341,0.336,0.448c0.224,0.107,0.442,0.16,0.655,0.16l1.664-0.064   c0.683,0,1.265,0.021,1.744,0.064c0.48,0.043,0.806,0.064,0.977,0.064l0.704-0.032c0.341,0,0.655,0.304,0.943,0.912   S28.023,17.362,28.023,17.555z M10.167,20.307c0.299,0,0.485-0.154,0.56-0.465c0.075-0.309,0.112-0.868,0.112-1.68   c0-0.811-0.006-1.387-0.016-1.728c-0.012-0.341-0.038-0.555-0.08-0.64c-0.043-0.086-0.107-0.145-0.192-0.176   c-0.085-0.033-0.319-0.049-0.704-0.049c-0.384,0-0.757-0.208-1.12-0.624c-0.362-0.416-0.544-0.848-0.544-1.296   c0-0.448,0.027-0.88,0.08-1.296c0.054-0.416,0.08-0.768,0.08-1.056c0-0.288-0.106-0.432-0.319-0.432c-0.32,0-0.545,0.133-0.673,0.4   c-0.128,0.267-0.191,0.87-0.191,1.808l0.032,0.832c0,0.896-0.705,1.536-2.112,1.919c-0.278,0.086-0.416,0.268-0.416,0.545   s0.149,0.416,0.448,0.416c0.085,0,0.181-0.012,0.288-0.033c1.493-0.298,2.496-0.447,3.008-0.447c0.512,0,0.768,0.225,0.768,0.672   c0,0.448-0.267,0.736-0.8,0.863c-0.363,0.044-0.789,0.16-1.28,0.353c-0.491,0.192-1.142,0.331-1.952,0.416   c-0.342,0.021-0.512,0.22-0.512,0.593s0.176,0.56,0.528,0.56s0.917-0.122,1.696-0.368c0.779-0.245,1.323-0.368,1.632-0.368   c0.309,0,0.538,0.214,0.688,0.64C9.324,20.094,9.655,20.307,10.167,20.307z M4.983,14.707c0.149,0,0.357-0.224,0.624-0.672   c0.267-0.448,0.4-1.077,0.4-1.888c0-0.341-0.064-0.512-0.192-0.512s-0.331,0.123-0.608,0.368c-0.277,0.246-0.416,0.88-0.416,1.904   C4.791,14.44,4.855,14.707,4.983,14.707z M10.679,12.435c0-0.725-0.059-1.205-0.176-1.44c-0.117-0.234-0.325-0.352-0.624-0.352   c-0.128,0-0.219,0.118-0.271,0.352c-0.054,0.235-0.08,0.646-0.08,1.232c0,0.587,0.08,1.008,0.239,1.264   c0.16,0.256,0.353,0.384,0.576,0.384C10.567,13.875,10.679,13.395,10.679,12.435z M18.359,15.442c0-0.128-0.032-0.272-0.097-0.432   c-0.063-0.16-0.203-0.267-0.416-0.32c-0.213-0.053-0.464-0.144-0.752-0.272s-0.549-0.192-0.784-0.192   c-0.234,0-0.538,0.187-0.911,0.56c-0.374,0.374-1.104,0.603-2.192,0.688c-0.214,0.021-0.363,0.074-0.448,0.16   s-0.128,0.271-0.128,0.56s0.026,0.565,0.08,0.832c0.053,0.267,0.176,0.4,0.368,0.4c0.191,0,0.549-0.069,1.072-0.208   c0.522-0.139,1.034-0.309,1.535-0.512c0.502-0.203,1.211-0.443,2.129-0.721C18.178,15.88,18.359,15.699,18.359,15.442z    M20.695,3.986c0,0.299-0.038,0.63-0.112,0.992c-0.075,0.363-0.203,0.544-0.384,0.544c-0.182,0-0.565-0.181-1.152-0.544   c-0.587-0.362-0.955-0.645-1.104-0.848c-0.149-0.202-0.225-0.506-0.225-0.912s0.165-0.944,0.496-1.616s0.603-1.008,0.816-1.008   c0.213,0,0.544,0.347,0.992,1.04C20.471,2.328,20.695,3.112,20.695,3.986z M21.591,9.234c0-0.298-0.117-0.448-0.352-0.448   c-0.086,0-0.182,0.011-0.288,0.032c-0.704,0.214-1.536,0.331-2.496,0.352c-0.171,0-0.31,0.054-0.416,0.16   c-0.107,0.107-0.16,0.213-0.16,0.32c0,0.107,0.021,0.192,0.064,0.256c0.362,0.405,0.544,0.688,0.544,0.848   c0,0.16-0.075,0.331-0.225,0.512c-0.149,0.182-0.224,0.411-0.224,0.688c0,0.277,0.122,0.528,0.368,0.752   c0.245,0.224,0.421,0.405,0.527,0.544c0.106,0.139,0.229,0.208,0.368,0.208s0.234-0.026,0.288-0.08   c0.053-0.053,0.234-0.378,0.544-0.976c0.31-0.597,0.629-1.146,0.96-1.648C21.426,10.253,21.591,9.747,21.591,9.234z" stroke-width="1"/>
</g>
</svg>