<svg xmlns="http://www.w3.org/2000/svg" xmlns:xlink="http://www.w3.org/1999/xlink" version="1.1" id="图层_1" x="0px" y="0px" width="29.829999923706055" height="28.583003997802734" viewBox="0.5940001010894775 0.18400025367736816 29.829999923706055 28.583003997802734" style="enable-background:new 0 0 30 30;" xml:space="preserve">
  <g>
    <g>
      <path style="fill:#0000FF;" d="M9.35,13.965c0.491-0.149,0.806-0.4,0.944-0.752c0.139-0.352,0.208-0.587,0.208-0.704&#13;&#10;&#9;&#9;s-0.054-0.176-0.16-0.176s-0.341,0.054-0.704,0.16c-0.362,0.107-0.587,0.192-0.672,0.256s-0.219,0.096-0.399,0.096&#13;&#10;&#9;&#9;c-0.182,0-0.294-0.096-0.336-0.288c-0.107-0.555-0.229-1.04-0.368-1.456c-0.14-0.416-0.208-0.656-0.208-0.72&#13;&#10;&#9;&#9;c0-0.277,0.17-0.416,0.512-0.416l0.48,0.096c0.276,0,0.666-0.059,1.168-0.176c0.501-0.117,0.811-0.213,0.928-0.288&#13;&#10;&#9;&#9;c0.117-0.075,0.224-0.229,0.32-0.464c0.096-0.234,0.144-0.458,0.144-0.672s-0.117-0.32-0.352-0.32&#13;&#10;&#9;&#9;c-0.598,0-1.217,0.149-1.856,0.448C8.827,8.674,8.651,8.717,8.47,8.717S8.166,8.61,8.102,8.396&#13;&#10;&#9;&#9;c-0.213-0.81-0.379-1.354-0.495-1.632C7.488,6.488,7.43,6.296,7.43,6.188c0-0.298,0.16-0.448,0.48-0.448l0.384,0.032&#13;&#10;&#9;&#9;c0.384,0,1.04-0.096,1.968-0.288c0.929-0.192,1.451-0.325,1.568-0.4c0.117-0.074,0.208-0.202,0.271-0.384&#13;&#10;&#9;&#9;c0.064-0.181,0.182-0.741,0.353-1.68c0.171-0.938,0.256-1.563,0.256-1.872s0.059-0.464,0.176-0.464s0.219,0.021,0.305,0.064&#13;&#10;&#9;&#9;c0.512,0.214,0.991,0.32,1.439,0.32c0.256,0,0.384,0.128,0.384,0.384c0,0.149-0.043,0.267-0.128,0.352&#13;&#10;&#9;&#9;c-0.277,0.277-0.416,0.917-0.416,1.92c0,0.32,0.043,0.539,0.128,0.656s0.235,0.155,0.448,0.112c2.24-0.426,3.482-0.64,3.729-0.64&#13;&#10;&#9;&#9;c0.244,0,0.399,0.091,0.464,0.272c0.063,0.182,0.096,0.518,0.096,1.008s-0.288,0.832-0.864,1.024&#13;&#10;&#9;&#9;c-1.536,0.469-2.496,0.811-2.88,1.024c-0.384,0.213-0.72,0.384-1.008,0.512c-0.288,0.128-0.432,0.32-0.432,0.576&#13;&#10;&#9;&#9;c0,0.256,0.106,0.352,0.319,0.288c2.026-0.469,3.274-0.704,3.744-0.704c0.32,0,0.533,0.139,0.641,0.416&#13;&#10;&#9;&#9;c0.106,0.278,0.159,0.571,0.159,0.88s-0.048,0.523-0.144,0.64c-0.096,0.118-0.283,0.198-0.561,0.24&#13;&#10;&#9;&#9;c-0.277,0.043-0.677,0.155-1.199,0.336c-0.523,0.182-1.062,0.395-1.616,0.64s-1.062,0.427-1.521,0.544s-0.688,0.368-0.688,0.752&#13;&#10;&#9;&#9;c0,0.213,0.117,0.32,0.352,0.32c0.064,0,0.139-0.01,0.225-0.032c1.108-0.341,2.395-0.608,3.855-0.8s2.32-0.384,2.576-0.576&#13;&#10;&#9;&#9;c0.085-0.064,0.171-0.096,0.256-0.096c0.256,0,0.581,0.288,0.977,0.864c0.395,0.576,0.592,0.992,0.592,1.248&#13;&#10;&#9;&#9;c0,0.256-0.048,0.422-0.145,0.496c-0.096,0.075-0.239,0.112-0.432,0.112l-0.544-0.032c-0.491,0-1.051,0.064-1.68,0.192&#13;&#10;&#9;&#9;c-0.63,0.128-0.981,0.224-1.057,0.288c-0.074,0.064-0.111,0.139-0.111,0.224c0,0.085,0.026,0.176,0.08,0.272&#13;&#10;&#9;&#9;c0.053,0.096,0.65,0.704,1.792,1.824c1.141,1.12,2.074,1.964,2.8,2.528c0.725,0.565,1.387,0.986,1.983,1.264&#13;&#10;&#9;&#9;c2.155,1.024,3.547,1.734,4.177,2.129c0.629,0.395,0.943,0.725,0.943,0.991s-0.379,0.399-1.136,0.399&#13;&#10;&#9;&#9;c-0.758,0-1.723-0.09-2.896-0.271c-1.173-0.181-2.074-0.362-2.703-0.544c-0.63-0.181-0.992-0.341-1.089-0.479&#13;&#10;&#9;&#9;c-0.096-0.139-0.144-0.405-0.144-0.801c0-0.395-0.176-0.922-0.528-1.584c-0.352-0.66-0.965-1.301-1.84-1.92&#13;&#10;&#9;&#9;c-0.191-0.128-0.325-0.219-0.399-0.271c-0.075-0.053-0.134-0.08-0.177-0.08c-0.171,0-0.293,0.245-0.367,0.736&#13;&#10;&#9;&#9;c-0.075,0.49-0.112,1.43-0.112,2.815c0,1.388-0.027,2.421-0.08,3.104c-0.054,0.682-0.08,1.609-0.08,2.783&#13;&#10;&#9;&#9;c0,0.576-0.128,0.864-0.384,0.864c-0.128,0-0.582-0.245-1.36-0.735c-0.779-0.492-1.403-0.992-1.872-1.504&#13;&#10;&#9;&#9;c-0.149-0.15-0.352-0.225-0.607-0.225c-0.086,0-0.32,0.043-0.704,0.128s-0.79,0.208-1.216,0.368&#13;&#10;&#9;&#9;c-0.428,0.16-0.678,0.267-0.753,0.32c-0.074,0.053-0.191,0.16-0.352,0.32c-0.16,0.159-0.336,0.239-0.528,0.239&#13;&#10;&#9;&#9;c-0.533,0-0.955-0.571-1.264-1.712c-0.31-1.142-0.464-2.564-0.464-4.271l0.063-1.633c0-0.148-0.048-0.224-0.144-0.224&#13;&#10;&#9;&#9;s-0.48,0.396-1.152,1.185S6.63,21.816,6.63,22.029c0,0.256-0.069,0.475-0.208,0.655c-0.139,0.182-0.613,0.443-1.424,0.784&#13;&#10;&#9;&#9;c-0.811,0.342-1.675,0.512-2.592,0.512c-0.256,0-0.539-0.016-0.848-0.048c-0.31-0.032-0.464-0.128-0.464-0.288&#13;&#10;&#9;&#9;s0.096-0.282,0.288-0.367c0.747-0.299,1.712-0.822,2.896-1.568c1.184-0.746,2.181-1.701,2.993-2.864&#13;&#10;&#9;&#9;c0.81-1.163,1.216-1.829,1.216-2s-0.054-0.256-0.16-0.256c-0.107,0-0.565,0.075-1.376,0.224c-0.812,0.15-1.286,0.262-1.424,0.336&#13;&#10;&#9;&#9;c-0.139,0.075-0.256,0.112-0.352,0.112c-0.096,0-0.171-0.042-0.224-0.128c-0.054-0.085-0.15-0.352-0.288-0.801&#13;&#10;&#9;&#9;c-0.139-0.447-0.208-0.73-0.208-0.847s0.053-0.203,0.16-0.256c0.106-0.053,0.293-0.08,0.56-0.08s1.083-0.213,2.448-0.64&#13;&#10;&#9;&#9;L9.35,13.965z M16.582,16.492c0-0.148-0.294-0.361-0.88-0.64c-0.587-0.277-1.003-0.416-1.248-0.416s-0.71,0.07-1.392,0.208&#13;&#10;&#9;&#9;c-0.684,0.139-1.094,0.246-1.232,0.32c-0.139,0.074-0.331,0.288-0.576,0.64c-0.245,0.353-0.475,0.651-0.688,0.896&#13;&#10;&#9;&#9;c-0.214,0.246-0.32,0.406-0.32,0.48c0,0.075,0.053,0.112,0.16,0.112c0.256,0,0.965-0.219,2.128-0.656&#13;&#10;&#9;&#9;c1.162-0.437,2.352-0.677,3.567-0.72C16.422,16.717,16.582,16.643,16.582,16.492z M15.878,24.141l-0.063-1.695&#13;&#10;&#9;&#9;c-0.021-0.684-0.032-1.323-0.032-1.92v-1.377c0-0.66-0.31-0.992-0.928-0.992c-0.3,0-0.864,0.176-1.696,0.528&#13;&#10;&#9;&#9;s-1.334,0.651-1.504,0.896c-0.171,0.246-0.256,0.496-0.256,0.752c0,0.257,0.116,0.363,0.352,0.32&#13;&#10;&#9;&#9;c1.066-0.256,1.76-0.384,2.08-0.384s0.512,0.063,0.576,0.192c0.063,0.128,0.096,0.363,0.096,0.703c0,0.342-0.043,0.572-0.128,0.688&#13;&#10;&#9;&#9;c-0.086,0.118-0.331,0.224-0.736,0.32c-0.405,0.096-0.837,0.224-1.296,0.384s-0.73,0.299-0.815,0.416&#13;&#10;&#9;&#9;c-0.086,0.117-0.128,0.363-0.128,0.736s0.116,0.56,0.352,0.56c0.085,0,0.438-0.091,1.056-0.272c0.619-0.18,1.014-0.271,1.185-0.271&#13;&#10;&#9;&#9;c0.405,0,0.64,0.188,0.704,0.561c0.063,0.373,0.267,0.56,0.607,0.56C15.686,24.845,15.878,24.609,15.878,24.141z" stroke-width="1"/>
    </g>
    <g/>
    <g/>
    <g/>
    <g/>
    <g/>
    <g/>
    <g/>
    <g/>
    <g/>
    <g/>
    <g/>
    <g/>
    <g/>
    <g/>
    <g/>
  </g>
</svg>