<svg xmlns="http://www.w3.org/2000/svg" xmlns:xlink="http://www.w3.org/1999/xlink" version="1.1" id="图层_1" x="0px" y="0px" width="28.3590030670166" height="28.713001251220703" viewBox="-0.15600407123565674 1.0230011940002441 28.3590030670166 28.713001251220703" enable-background="new 0 0 30 30" xml:space="preserve">
<g>
	<path fill="#0000FF" d="M27.703,16.338c0,0.342-0.032,0.636-0.096,0.881c-0.064,0.245-0.198,0.367-0.4,0.367   c-0.203,0-0.438-0.042-0.704-0.127c-0.267-0.086-0.571-0.149-0.912-0.192c-0.342-0.042-0.741-0.122-1.2-0.24   c-0.459-0.116-0.971-0.276-1.535-0.479c-0.566-0.203-1.499-0.305-2.801-0.305c-0.234,0-0.395,0.027-0.479,0.08   c-0.086,0.054-0.14,0.176-0.16,0.368c-0.086,0.981-0.214,1.744-0.384,2.288c-0.171,0.544-0.256,1.062-0.256,1.553   c0,0.341,0.159,0.555,0.479,0.639c0.832,0.236,1.354,0.406,1.568,0.513c0.213,0.106,0.512,0.214,0.896,0.319   c0.555,0.129,0.832,0.641,0.832,1.537c0,1.088-0.245,1.631-0.735,1.631c-0.129,0-0.262-0.037-0.4-0.111   c-0.139-0.075-0.64-0.305-1.504-0.688c-0.864-0.385-1.355-0.576-1.472-0.576c-0.118,0-0.208,0.127-0.272,0.384   c-0.342,1.493-0.656,2.634-0.944,3.423s-0.485,1.26-0.592,1.408c-0.106,0.15-0.224,0.225-0.352,0.225   c-0.299,0-1.035-0.389-2.208-1.168c-1.174-0.779-1.952-1.43-2.336-1.951c-0.385-0.523-0.576-0.844-0.576-0.961   s0.032-0.176,0.096-0.176c0.064,0,0.251,0.074,0.561,0.225c0.309,0.148,0.762,0.324,1.359,0.527s0.981,0.305,1.152,0.305   c0.512,0,0.906-0.385,1.184-1.152s0.416-1.275,0.416-1.521s-0.08-0.41-0.24-0.495c-0.159-0.086-0.607-0.182-1.344-0.289   c-0.735-0.105-1.647-0.16-2.735-0.16c-2.092,0-3.894,0.192-5.408,0.576c-0.15,0.043-0.299,0.064-0.448,0.064   c-0.149,0-0.224-0.037-0.224-0.112c0-0.074,0.021-0.144,0.064-0.208c0.448-0.597,0.917-1.552,1.408-2.863   c0.49-1.313,0.736-2.059,0.736-2.24s-0.208-0.272-0.625-0.272c-0.416,0-1.312,0.177-2.688,0.528s-2.208,0.607-2.496,0.768   c-0.288,0.16-0.528,0.24-0.72,0.24s-0.384-0.219-0.576-0.656c-0.192-0.437-0.288-0.73-0.288-0.88s0.075-0.256,0.224-0.319   c0.149-0.064,0.96-0.246,2.432-0.545c1.472-0.298,2.411-0.469,2.816-0.512c1.408-0.128,2.24-0.266,2.496-0.416   c0.257-0.149,0.533-1.194,0.832-3.136c0.021-0.277,0.145-0.512,0.368-0.704c0.225-0.192,0.555-0.304,0.992-0.336   s0.933-0.165,1.488-0.4c1.983-0.853,3.595-1.28,4.832-1.28c0.469,0,1.12,0.102,1.952,0.304c0.832,0.203,1.248,0.432,1.248,0.688   c0,0.043-0.012,0.107-0.032,0.192c-0.043,0.192-0.064,0.598-0.064,1.216l-0.096,1.376c0,0.192,0.053,0.304,0.16,0.336   c0.106,0.032,0.714,0.059,1.824,0.08c1.108,0.021,2.484,0.032,4.128,0.032c0.768,0,1.156,0.075,1.168,0.224   c0.01,0.149,0.111,0.384,0.304,0.704C27.607,15.187,27.703,15.678,27.703,16.338z M19.127,5.075c0,0.619-0.054,1.029-0.16,1.232   s-0.416,0.464-0.928,0.784c-0.512,0.32-1.126,0.624-1.84,0.912c-0.715,0.288-1.216,0.438-1.504,0.448s-0.63,0.08-1.024,0.208   s-0.646,0.192-0.752,0.192c-0.363,0-0.896-0.288-1.6-0.864c-0.171-0.128-0.363-0.192-0.576-0.192c-0.214,0-0.544,0.229-0.992,0.688   C9.303,8.941,8.743,9.32,8.071,9.619s-1.067,0.448-1.184,0.448c-0.118,0-0.176-0.053-0.176-0.16s0.09-0.341,0.272-0.704   c0.181-0.363,0.368-0.661,0.56-0.896s0.464-0.65,0.816-1.248c0.352-0.597,0.597-1.072,0.735-1.424   c0.139-0.352,0.48-1.013,1.024-1.984c0.544-0.97,0.906-1.568,1.088-1.792c0.181-0.224,0.362-0.336,0.544-0.336   c0.181,0,0.49,0.155,0.928,0.464c0.438,0.31,0.656,0.55,0.656,0.72c0,0.171-0.086,0.363-0.256,0.576   c-0.619,0.768-1.051,1.339-1.296,1.712c-0.246,0.374-0.368,0.683-0.368,0.928c0,0.246,0.133,0.368,0.4,0.368   c0.266,0,0.874-0.128,1.823-0.384c0.949-0.256,2.011-0.651,3.185-1.184c0.597-0.277,1.077-0.416,1.439-0.416   c0.363,0,0.598,0.038,0.704,0.112C19.073,4.494,19.127,4.712,19.127,5.075z M10.839,20.242c0.405,0,0.661-0.244,0.769-0.736   c0.106-0.49,0.426-1.193,0.96-2.111c0.085-0.148,0.128-0.267,0.128-0.352c0-0.086-0.069-0.129-0.208-0.129   c-0.14,0-0.523,0.055-1.152,0.16c-0.63,0.107-0.976,0.219-1.04,0.336c-0.063,0.117-0.149,0.353-0.256,0.705   c-0.107,0.352-0.24,0.682-0.4,0.991s-0.239,0.556-0.239,0.735c0,0.182,0.148,0.295,0.447,0.337   C10.146,20.222,10.476,20.242,10.839,20.242z M15.383,14.258c0.043,0,0.123-0.01,0.24-0.032c0.117-0.021,0.357-0.059,0.72-0.112   s0.587-0.149,0.672-0.288s0.128-0.443,0.128-0.912c0-0.875-0.224-1.424-0.672-1.648c-0.447-0.224-0.869-0.336-1.264-0.336   c-0.396,0-1.067,0.251-2.016,0.752c-0.95,0.501-1.494,0.816-1.633,0.944s-0.267,0.475-0.384,1.04   c-0.117,0.565-0.191,0.901-0.224,1.008c-0.032,0.107-0.048,0.203-0.048,0.288c0,0.085,0.063,0.128,0.191,0.128l1.024-0.192   c0.32-0.064,0.544-0.149,0.672-0.256c0.128-0.106,0.261-0.357,0.4-0.752c0.138-0.395,0.208-0.752,0.208-1.072   c0-0.32,0.116-0.48,0.352-0.48c0.085,0,0.245,0.054,0.48,0.16c0.234,0.107,0.484,0.197,0.752,0.272   c0.266,0.075,0.399,0.213,0.399,0.416c0,0.203-0.032,0.395-0.096,0.576c-0.064,0.181-0.096,0.309-0.096,0.384   C15.191,14.222,15.255,14.258,15.383,14.258z M16.023,20.627c0.17,0,0.282-0.043,0.336-0.129c0.053-0.084,0.138-0.677,0.256-1.775   c0.117-1.099,0.176-1.766,0.176-2s-0.128-0.352-0.384-0.352l-1.216,0.127c-0.363,0.043-0.588,0.097-0.673,0.16   c-0.085,0.064-0.128,0.172-0.128,0.32c0,0.149,0.08,0.314,0.24,0.496s0.24,0.363,0.24,0.544c0,0.182-0.277,0.513-0.832,0.992   s-0.891,0.735-1.008,0.768c-0.118,0.032-0.225,0.086-0.32,0.16c-0.096,0.075-0.144,0.165-0.144,0.272   c0,0.106,0.196,0.165,0.592,0.176c0.395,0.011,0.96,0.053,1.696,0.128C15.591,20.59,15.98,20.627,16.023,20.627z" stroke-width="1"/>
</g>
</svg>