<svg version="1.1" xmlns="http://www.w3.org/2000/svg" xmlns:xlink="http://www.w3.org/1999/xlink" width="146.79097" height="54.77011" viewBox="0,0,146.79097,54.77011"><g transform="translate(-166.52295,-153.53195)"><g data-paper-data="{&quot;isPaintingLayer&quot;:true}" fill-rule="nonzero" stroke-linecap="butt" stroke-linejoin="miter" stroke-miterlimit="10" stroke-dasharray="" stroke-dashoffset="0" style="mix-blend-mode: normal"><path d="M312.672,188.729c0,10.459 0.782,18.949 -14.338,18.938h-118.095c-10.109,0 -10.081,-8.479 -10.081,-18.938v-12.625c0,-10.458 -1.109,-18.937 10.505,-18.937h118.004c14.778,0 14.005,8.479 14.005,18.937z" fill="#4d4d4d" stroke="#000000" stroke-width="1.2701"/><path d="M309.672,185.729c0,10.459 0.782,18.949 -14.338,18.938h-118.095c-10.109,0 -10.081,-8.479 -10.081,-18.938v-12.625c0,-10.458 -1.109,-18.937 10.505,-18.937h118.004c14.778,0 14.005,8.479 14.005,18.937z" fill="#d5c095" stroke="#000000" stroke-width="1.2701"/><text transform="translate(205.84089,189.01502) scale(0.78137,0.78137)" font-size="40" xml:space="preserve" fill="#6b333a" fill-rule="nonzero" stroke="none" stroke-width="1" stroke-linecap="butt" stroke-linejoin="miter" stroke-miterlimit="10" stroke-dasharray="" stroke-dashoffset="0" font-family="&quot;Microsoft YaHei&quot;, &quot;微软雅黑&quot;, STXihei, &quot;华文细黑&quot;" font-weight="normal" text-anchor="start" style="mix-blend-mode: normal"><tspan x="0" dy="0">完成</tspan></text></g></g></svg>