<svg xmlns="http://www.w3.org/2000/svg" xmlns:xlink="http://www.w3.org/1999/xlink" version="1.1" id="图层_1" x="0px" y="0px" width="27.624000549316406" height="24.42300033569336" viewBox="1.0920000076293945 3.2149999141693115 27.624000549316406 24.42300033569336" enable-background="new 0 0 30 30" xml:space="preserve">
<g>
	<path fill="#0000FF" d="M8.888,3.715c0.149,0,0.453,0.16,0.912,0.48c0.459,0.32,0.688,0.608,0.688,0.864s-0.097,0.48-0.288,0.672   C8.792,7.203,7.827,8.568,7.304,9.827c-0.523,1.259-0.784,2.069-0.784,2.432c0,0.15,0.048,0.278,0.144,0.384   C6.76,12.75,6.872,12.814,7,12.835c0.576,0.085,1.051,0.213,1.424,0.384s0.561,0.357,0.561,0.56c0,0.203-0.155,0.752-0.465,1.648   c-0.309,0.896-0.464,1.644-0.464,2.24c0,0.598,0.032,1.211,0.097,1.84c0.063,0.63,0.096,1.132,0.096,1.505s-0.054,0.837-0.16,1.391   c-0.106,0.556-0.267,0.859-0.48,0.913c-0.213,0.053-0.411,0.079-0.592,0.079c-0.182,0-0.395-0.058-0.64-0.176   c-0.246-0.117-0.368-0.475-0.368-1.072l0.096-3.584c0-1.301-0.027-2.224-0.08-2.768S5.896,14.942,5.8,14.867   c-0.096-0.075-0.192-0.112-0.288-0.112c-0.096,0-0.166,0.011-0.208,0.032c-0.598,0.555-1.2,1.023-1.808,1.408   c-0.608,0.384-1.019,0.576-1.232,0.576c-0.448,0-0.672-0.091-0.672-0.272c0-0.181,0.128-0.453,0.384-0.815   c1.984-2.795,3.093-4.47,3.328-5.024c0.832-2.005,1.499-3.52,2-4.544c0.501-1.024,0.858-1.68,1.072-1.968   C8.589,3.859,8.76,3.715,8.888,3.715z M28.216,8.483c0,0.534-0.139,0.8-0.416,0.8c-0.171,0-0.459-0.091-0.864-0.272   s-1.162-0.272-2.271-0.272c-0.192,0-0.331,0.08-0.416,0.24c-0.086,0.16-0.149,0.582-0.192,1.264s-0.063,1.851-0.063,3.504   c0,1.653,0.016,3.542,0.048,5.664c0.032,2.123,0.08,3.632,0.144,4.528l0.16,2.079c0,0.747-0.256,1.12-0.768,1.12   c-0.342,0-1.563-0.432-3.664-1.296c-2.102-0.864-3.436-1.525-4-1.983c-0.565-0.459-0.848-0.747-0.848-0.864   s0.063-0.177,0.191-0.177s0.395,0.075,0.8,0.225s1.146,0.331,2.225,0.544c1.077,0.214,1.775,0.32,2.096,0.32   c0.896,0,1.344-0.661,1.344-1.984c0-0.256-0.021-0.655-0.063-1.2c-0.043-0.543-0.097-1.236-0.16-2.08   c-0.064-0.842-0.096-1.908-0.096-3.2c0-1.291-0.038-2.341-0.112-3.152c-0.075-0.811-0.171-1.52-0.288-2.128   s-0.208-0.949-0.272-1.024C20.664,9.064,20.568,9,20.44,8.947c-0.129-0.053-0.288-0.08-0.48-0.08s-0.581,0.096-1.168,0.288   c-0.587,0.192-1.163,0.336-1.728,0.432c-0.566,0.096-1.217,0.144-1.952,0.144c-0.736,0-1.536,0.091-2.4,0.272   c-0.864,0.182-1.638,0.421-2.32,0.72c-0.191,0.085-0.373,0.128-0.544,0.128s-0.367-0.197-0.592-0.592   C9.032,9.864,8.92,9.587,8.92,9.427c0-0.16,0.08-0.282,0.24-0.368c0.16-0.085,0.746-0.229,1.76-0.432   c1.013-0.203,1.894-0.352,2.64-0.448c0.747-0.096,1.846-0.283,3.297-0.56c1.45-0.277,2.607-0.517,3.472-0.72   c0.864-0.203,1.744-0.378,2.64-0.528c0.896-0.149,1.53-0.224,1.904-0.224c0.373,0,0.772-0.059,1.2-0.176   c0.426-0.117,0.72-0.176,0.88-0.176s0.299,0.054,0.416,0.16c0.117,0.107,0.288,0.469,0.512,1.088   C28.104,7.662,28.216,8.142,28.216,8.483z M19.768,12.739c0,0.192-0.171,0.438-0.512,0.736c-0.342,0.299-0.629,0.651-0.864,1.056   c-0.234,0.406-0.432,0.896-0.592,1.472s-0.293,0.907-0.399,0.992c-0.107,0.085-0.348,0.128-0.721,0.128s-0.88,0.059-1.52,0.176   c-0.641,0.117-1.035,0.225-1.185,0.32s-0.299,0.145-0.447,0.145c-0.513,0-1.115-0.539-1.809-1.617   c-0.693-1.077-1.04-1.903-1.04-2.479c0-0.341,0.134-0.699,0.4-1.072s0.954-0.715,2.063-1.024c1.109-0.309,2.091-0.464,2.944-0.464   s1.68,0.192,2.48,0.576C19.368,12.067,19.768,12.419,19.768,12.739z M14.424,15.267c0.341,0,0.667-0.112,0.977-0.336   c0.309-0.224,0.464-0.528,0.464-0.912c0-0.384-0.086-0.667-0.256-0.848c-0.172-0.181-0.422-0.272-0.752-0.272   c-0.331,0-0.608,0.139-0.832,0.416c-0.225,0.277-0.336,0.64-0.336,1.088C13.688,14.979,13.933,15.267,14.424,15.267z" stroke-width="1"/>
</g>
</svg>