<svg xmlns="http://www.w3.org/2000/svg" xmlns:xlink="http://www.w3.org/1999/xlink" version="1.1" id="图层_1" x="0px" y="0px" width="24.93600082397461" height="27.656999588012695" viewBox="1.6669988632202148 1.148003101348877 24.93600082397461 27.656999588012695" enable-background="new 0 0 30 30" xml:space="preserve">
<g>
	<path fill="#0000FF" d="M21.975,10.674c0,0.235,0.811,0.374,2.433,0.416c0.597,0.043,1.028,0.358,1.296,0.944   c0.267,0.587,0.399,1.189,0.399,1.808c0,0.448-0.101,0.838-0.304,1.168s-0.373,0.495-0.512,0.495s-0.39-0.159-0.752-0.479   c-1.835-1.6-2.812-2.4-2.928-2.4c-0.118,0-0.229,0.139-0.337,0.416c-0.447,1.259-1.274,2.704-2.479,4.336   c-1.205,1.632-2.704,3.301-4.496,5.008c-0.299,0.299-0.565,0.725-0.8,1.279c-0.235,0.555-0.353,1.024-0.353,1.408   c0,0.385-0.079,0.661-0.239,0.832s-0.693,0.485-1.601,0.944c-0.907,0.458-1.744,0.815-2.512,1.071s-1.43,0.385-1.984,0.385   c-0.555,0-1.152-0.053-1.792-0.16c-0.64-0.107-0.96-0.225-0.96-0.352c0-0.129,0.117-0.256,0.352-0.385   c1.856-0.917,3.429-1.766,4.72-2.543c1.291-0.779,2.171-1.408,2.64-1.889c0.47-0.48,1.137-1.194,2-2.145   c0.864-0.948,1.451-1.685,1.761-2.207c0.309-0.523,0.544-0.912,0.704-1.168c0.159-0.256,0.239-0.469,0.239-0.641   c0-0.17-0.182-0.309-0.544-0.416c-1.301-0.384-2.603-0.854-3.903-1.408c-0.385-0.17-0.699-0.256-0.944-0.256   c-0.246,0-0.47-0.026-0.672-0.08c-0.203-0.053-0.357-0.08-0.464-0.08c-0.107,0-0.198,0.043-0.272,0.128   c-0.075,0.085-0.271,0.475-0.592,1.168s-0.582,1.322-0.784,1.888c-0.203,0.565-0.635,1.365-1.296,2.399   c-0.662,1.035-1.168,1.691-1.52,1.969s-0.576,0.564-0.672,0.863c-0.096,0.299-0.214,0.448-0.352,0.448   c-0.139,0-0.342-0.112-0.608-0.336c-0.267-0.224-0.566-0.772-0.896-1.647c-0.331-0.875-0.507-1.595-0.528-2.16   c-0.021-0.565-0.069-1.099-0.144-1.6c-0.075-0.502-0.112-0.987-0.112-1.457c0-0.469,0.048-1.157,0.144-2.063   s0.165-1.504,0.208-1.792c0.042-0.288,0.149-0.496,0.32-0.624c0.17-0.128,0.416-0.192,0.736-0.192c0.32,0,0.81,0.171,1.472,0.512   c0.661,0.341,0.992,0.683,0.992,1.024c0,0.342-0.107,0.523-0.32,0.544c-0.981,0.085-1.675,0.432-2.08,1.04   c-0.406,0.608-0.608,1.392-0.608,2.353c0,0.64,0.064,1.141,0.192,1.504s0.362,0.543,0.704,0.543s0.875-0.218,1.6-0.655   c0.725-0.437,1.509-1.205,2.352-2.304s1.264-1.787,1.264-2.064c0-0.085-0.106-0.24-0.319-0.464c-0.214-0.224-0.32-0.421-0.32-0.592   s0.128-0.304,0.384-0.4c0.256-0.096,0.65-0.357,1.185-0.784c1.664-1.323,3.188-2.219,4.576-2.688   c0.191-0.064,0.319-0.144,0.384-0.24c0.063-0.096,0.106-0.304,0.128-0.624c0.085-1.664,0.224-3.104,0.416-4.32   c0.191-1.216,0.347-1.904,0.464-2.064c0.117-0.16,0.267-0.24,0.448-0.24c0.181,0,0.416,0.043,0.704,0.128   c0.287,0.086,0.624,0.16,1.008,0.224s0.576,0.182,0.576,0.352c0,0.171-0.118,0.416-0.353,0.736   c-0.491,0.704-0.736,1.675-0.736,2.912c0,0.64-0.043,1.253-0.128,1.84c-0.085,0.587-0.154,1.328-0.208,2.224   c-0.053,0.896-0.08,1.605-0.08,2.128c0,0.523,0.054,1.067,0.16,1.632c0.106,0.565,0.24,0.848,0.4,0.848s0.453-0.432,0.88-1.296   c0.427-0.864,0.917-2.683,1.472-5.456c0.085-0.405,0.331-0.608,0.736-0.608c0.234,0,0.646,0.139,1.232,0.416   c0.586,0.277,0.88,0.534,0.88,0.768c0,0.235-0.086,0.491-0.256,0.768l-0.353,0.576C22.124,10.333,21.975,10.61,21.975,10.674z    M8.311,8.818c0,0.15-0.043,0.315-0.128,0.496C8.098,9.496,7.943,9.586,7.719,9.586c-0.224,0-0.821-0.112-1.792-0.336   S4.417,8.643,4.311,8.099c-0.107-0.544-0.16-1.04-0.16-1.488c0-0.448,0.096-0.864,0.288-1.248c0.192-0.384,0.373-0.576,0.544-0.576   c0.17,0,0.325,0.128,0.464,0.384c0.139,0.256,0.379,0.571,0.72,0.944C6.508,6.488,6.786,6.76,6.999,6.931   C7.873,7.613,8.311,8.243,8.311,8.818z M13.847,14.387c0.896,0,1.345-0.309,1.345-0.928l-0.032-3.264   c0-0.277-0.075-0.416-0.225-0.416s-0.464,0.262-0.943,0.784c-0.48,0.523-0.784,0.923-0.912,1.2   c-0.235,0.533-0.523,1.045-0.864,1.536c-0.106,0.15-0.16,0.299-0.16,0.448c0,0.149,0.213,0.293,0.641,0.432   C13.121,14.317,13.506,14.387,13.847,14.387z" stroke-width="1"/>
</g>
</svg>