<svg xmlns="http://www.w3.org/2000/svg" xmlns:xlink="http://www.w3.org/1999/xlink" version="1.1" id="图层_1" x="0px" y="0px" width="28.711997985839844" height="17.541000366210938" viewBox="0.9630002975463867 6.624999046325684 28.711997985839844 17.541000366210938" enable-background="new 0 0 30 30" xml:space="preserve">
<g>
	<path fill="#0000FF" d="M7.159,12.851c0,0.277-0.182,0.773-0.544,1.488c-0.363,0.715-0.64,1.488-0.832,2.32   c-0.192,0.832-0.288,1.467-0.288,1.904s-0.043,0.709-0.128,0.816c-0.086,0.106-0.262,0.16-0.528,0.16   c-0.267,0-0.592-0.08-0.976-0.24c-0.384-0.16-0.837-0.41-1.36-0.752c-0.523-0.342-0.827-0.565-0.912-0.672   c-0.085-0.107-0.128-0.225-0.128-0.353c0-0.384,0.437-1.034,1.312-1.952c0.875-0.917,1.717-1.653,2.528-2.208   c0.81-0.554,1.322-0.832,1.536-0.832C7.052,12.531,7.159,12.638,7.159,12.851z M19.255,11.603c0,0.064,0.021,0.139,0.064,0.224   c0.917,1.472,1.664,2.805,2.239,4c0.576,1.195,0.992,2.219,1.248,3.072c0.257,0.854,0.427,1.824,0.513,2.912l0.128,1.279   c0,0.385-0.225,0.576-0.672,0.576h-2.721c-0.362,0-1.339-0.133-2.928-0.399c-1.59-0.267-2.608-0.475-3.056-0.624   c-0.448-0.148-0.854-0.245-1.216-0.288c-1.024-0.171-1.819-1.013-2.385-2.528c-0.565-1.514-0.901-2.959-1.008-4.335   c-0.106-1.376-0.208-2.245-0.304-2.608c-0.096-0.362-0.145-0.608-0.145-0.736s0.097-0.304,0.288-0.528   c0.192-0.224,0.357-0.336,0.496-0.336s0.251,0.203,0.336,0.608c0.277,1.173,0.603,2.368,0.977,3.584   c0.373,1.216,0.677,2.031,0.912,2.447c0.234,0.416,0.522,0.742,0.863,0.977s1.088,0.502,2.24,0.801s2.074,0.447,2.768,0.447   s1.232-0.085,1.616-0.256c0.384-0.17,0.629-0.373,0.736-0.607c0.106-0.235,0.16-0.785,0.16-1.648c0-0.864-0.315-1.957-0.944-3.28   c-0.63-1.322-1.003-1.984-1.12-1.984s-0.432,0.24-0.943,0.72c-0.513,0.48-0.832,0.928-0.96,1.344   c-0.129,0.416-0.326,0.624-0.593,0.624s-0.598-0.144-0.991-0.432c-0.396-0.288-0.822-0.741-1.28-1.36   c-0.459-0.619-0.892-1.285-1.296-2c-0.406-0.714-0.608-1.307-0.608-1.776c0-0.64,0.234-1.195,0.704-1.664   c0.469-0.469,0.896-0.704,1.28-0.704c0.384,0,0.714,0.069,0.992,0.208c0.276,0.139,0.805,0.491,1.584,1.056   c0.778,0.565,1.29,0.992,1.535,1.28s0.411,0.432,0.496,0.432s0.385-0.053,0.896-0.16c0.512-0.106,0.874-0.16,1.088-0.16   c0.213,0,0.32,0.091,0.32,0.272c0,0.182-0.385,0.614-1.152,1.296C19.308,11.454,19.255,11.539,19.255,11.603z M17.143,10.354   c0-0.32-0.362-0.725-1.088-1.216s-1.397-0.736-2.016-0.736c-0.448,0-0.838,0.134-1.168,0.4c-0.331,0.267-0.496,0.565-0.496,0.896   s0.117,0.715,0.352,1.152c0.235,0.438,0.576,0.656,1.024,0.656s0.997-0.123,1.648-0.368c0.65-0.245,1.082-0.405,1.296-0.48   c0.213-0.075,0.341-0.133,0.384-0.176C17.121,10.44,17.143,10.397,17.143,10.354z M29.175,15.666c0,0.556-0.213,0.832-0.64,0.832   c-0.107,0-0.347-0.074-0.72-0.224c-0.374-0.149-0.966-0.356-1.776-0.624c-0.812-0.267-1.313-0.421-1.504-0.464   c-0.533-0.085-0.875-0.288-1.024-0.608c-0.149-0.32-0.224-1.013-0.224-2.08c0-1.066,0.117-1.738,0.352-2.016   c0.234-0.277,0.448-0.416,0.641-0.416c0.191,0,0.33,0.107,0.416,0.32c0.148,0.469,0.549,0.981,1.199,1.536   c0.651,0.555,1.328,1.206,2.032,1.952c0.704,0.747,1.088,1.189,1.152,1.328C29.143,15.341,29.175,15.496,29.175,15.666z" stroke-width="1"/>
</g>
</svg>