<svg xmlns="http://www.w3.org/2000/svg" xmlns:xlink="http://www.w3.org/1999/xlink" version="1.1" id="图层_1" x="0px" y="0px" width="23.304000854492188" height="25.25599479675293" viewBox="3.748000144958496 2.062002420425415 23.304000854492188 25.25599479675293" enable-background="new 0 0 30 30" xml:space="preserve">
<g>
	<path fill="#0000FF" d="M26.552,17.283c0,0.213-0.063,0.357-0.191,0.432c-0.128,0.075-0.305,0.112-0.528,0.112   s-0.432-0.011-0.624-0.032c-1.643-0.256-3.014-0.384-4.112-0.384s-1.829,0.038-2.191,0.112c-0.363,0.074-1.366,0.207-3.008,0.399   c-0.172,0.021-0.476,0.235-0.912,0.64c-0.438,0.406-1.035,1.088-1.792,2.049c-0.758,0.959-1.248,1.637-1.473,2.031   c-0.224,0.396-0.336,0.764-0.336,1.104l0.064,0.896c0,0.299-0.166,0.544-0.496,0.736c-0.331,0.192-1.035,0.448-2.112,0.769   c-1.077,0.319-1.92,0.479-2.528,0.479S5.4,26.52,5.4,26.307c0-0.405,1.141-1.461,3.424-3.168c1.045-0.789,1.855-1.621,2.432-2.496   c0.576-0.874,0.864-1.429,0.864-1.664c0-0.234-0.268-0.352-0.8-0.352c-0.534,0-1.584,0.155-3.152,0.464   C6.6,19.4,5.725,19.625,5.544,19.764c-0.182,0.139-0.357,0.207-0.528,0.207c-0.171,0-0.342-0.213-0.512-0.64   c-0.171-0.427-0.256-0.704-0.256-0.832c0-0.47,0.395-0.726,1.184-0.769c0.149,0,1.413-0.271,3.792-0.815   c2.379-0.544,3.648-0.843,3.809-0.896c0.16-0.054,0.314-0.289,0.464-0.705c0.148-0.416,0.224-0.891,0.224-1.424   c0-0.512-0.182-0.768-0.544-0.768c-0.171,0-0.699,0.118-1.584,0.352c-0.886,0.235-1.408,0.405-1.567,0.512   c-0.16,0.107-0.315,0.16-0.465,0.16s-0.245-0.085-0.287-0.256c-0.086-0.469-0.182-0.843-0.288-1.12   c-0.107-0.277-0.16-0.496-0.16-0.656c0-0.16,0.245-0.283,0.735-0.368c0.641-0.106,1.616-0.352,2.929-0.736   c1.312-0.384,2.048-0.635,2.208-0.752c0.16-0.117,0.426-0.389,0.8-0.816c0.373-0.426,0.912-1.168,1.616-2.224   c0.704-1.056,1.435-2.069,2.191-3.04s1.194-1.483,1.313-1.536c0.117-0.053,0.261-0.08,0.432-0.08c0.469,0,0.912,0.166,1.328,0.496   C22.792,3.39,23,3.726,23,4.067c0,0.149-0.128,0.267-0.384,0.352c-0.684,0.213-1.243,0.534-1.681,0.96   c-0.438,0.427-0.976,0.987-1.615,1.68c-0.641,0.693-0.96,1.232-0.96,1.616c0,0.384,0.191,0.534,0.575,0.448   c0.299-0.064,0.603-0.096,0.912-0.096s0.539,0.021,0.688,0.064c0.148,0.043,0.271,0.229,0.368,0.56   c0.096,0.331,0.144,0.603,0.144,0.816c0,0.214-0.037,0.406-0.112,0.576c-0.074,0.171-0.442,0.379-1.104,0.624   c-0.661,0.246-1.291,0.454-1.888,0.624c-1.131,0.32-1.696,1.056-1.696,2.208c0,0.534,0.16,0.8,0.479,0.8   c0.107,0,0.235-0.021,0.385-0.064c1.536-0.32,2.757-0.48,3.664-0.48c0.906,0,1.492,0.016,1.76,0.048   c0.267,0.032,0.485,0.048,0.656,0.048l1.439-0.128c0.32,0,0.581,0.187,0.784,0.56c0.202,0.373,0.442,0.715,0.72,1.023   C26.413,16.617,26.552,16.941,26.552,17.283z M14.904,4.803c0,0.341-0.353,0.854-1.057,1.536c-0.704,0.683-1.248,1.253-1.632,1.712   c-0.384,0.459-0.683,0.688-0.896,0.688c-0.149,0-0.336-0.133-0.561-0.4c-0.224-0.267-0.405-0.458-0.544-0.576   s-0.347-0.25-0.624-0.4C9.314,7.214,9.176,6.979,9.176,6.659c0-0.213,0.069-0.368,0.208-0.464c0.139-0.096,0.997-0.405,2.576-0.928   c1.578-0.522,2.464-0.784,2.656-0.784C14.808,4.483,14.904,4.59,14.904,4.803z M17.912,20.547c0.042,0,0.096,0.021,0.16,0.064   c0.704,0.384,1.344,0.619,1.92,0.703c0.384,0.043,0.784,0.15,1.2,0.32c0.416,0.172,0.815,0.373,1.199,0.608   c0.385,0.235,0.63,0.475,0.736,0.72c0.106,0.246,0.16,0.678,0.16,1.296c0,0.619-0.075,1.2-0.224,1.744   c-0.15,0.544-0.342,0.816-0.576,0.816c-0.128,0-0.256-0.086-0.385-0.256c-0.447-0.534-1.114-1.217-2-2.049   c-0.885-0.832-1.504-1.589-1.855-2.271s-0.528-1.136-0.528-1.36C17.72,20.659,17.784,20.547,17.912,20.547z" stroke-width="1"/>
</g>
</svg>