<svg xmlns="http://www.w3.org/2000/svg" xmlns:xlink="http://www.w3.org/1999/xlink" version="1.1" id="图层_1" x="0px" y="0px" width="30.95199966430664" height="29.511995315551758" viewBox="-0.27000004053115845 -0.07099997997283936 30.95199966430664 29.511995315551758" style="enable-background:new 0 0 30 30;" xml:space="preserve">
  <g>
    <g>
      <path style="fill:#0000FF;" d="M18.022,16.269c0,0.342,0.442,1.009,1.327,2c0.886,0.992,1.974,1.899,3.265,2.72&#13;&#10;&#9;&#9;c1.29,0.822,2.085,1.275,2.384,1.36c1.835,0.534,3.157,1.072,3.968,1.616s1.216,0.943,1.216,1.199c0,0.129-0.08,0.214-0.239,0.257&#13;&#10;&#9;&#9;c-0.16,0.042-0.619,0.063-1.376,0.063c-0.758,0-1.654-0.043-2.688-0.127c-1.035-0.086-1.846-0.182-2.432-0.289&#13;&#10;&#9;&#9;c-0.587-0.106-0.934-0.191-1.04-0.256c-0.107-0.064-0.188-0.154-0.24-0.271c-0.054-0.117-0.091-0.311-0.112-0.576&#13;&#10;&#9;&#9;c-0.021-0.267-0.191-0.741-0.512-1.424s-1.014-1.344-2.08-1.984s-1.675-0.96-1.824-0.96s-0.224,0.106-0.224,0.319l0.063,2.496&#13;&#10;&#9;&#9;c0,1.559-0.048,2.587-0.144,3.088c-0.096,0.502-0.144,0.998-0.144,1.488s0.016,0.827,0.048,1.008&#13;&#10;&#9;&#9;c0.032,0.182,0.048,0.336,0.048,0.465c0,0.32-0.112,0.48-0.336,0.48c-0.225,0-0.736-0.166-1.536-0.496&#13;&#10;&#9;&#9;c-0.8-0.332-1.691-0.748-2.672-1.248c-0.981-0.502-1.552-0.816-1.712-0.944s-0.24-0.224-0.24-0.288c0-0.172,0.16-0.225,0.48-0.16&#13;&#10;&#9;&#9;c0.426,0.106,1.173,0.16,2.239,0.16c0.513,0,0.869-0.086,1.072-0.256c0.202-0.172,0.357-0.486,0.464-0.944&#13;&#10;&#9;&#9;c0.106-0.459,0.16-1.114,0.16-1.968s-0.027-1.515-0.08-1.984c-0.054-0.469-0.08-0.971-0.08-1.504c0-0.085-0.043-0.128-0.128-0.128&#13;&#10;&#9;&#9;s-0.197,0.075-0.336,0.224c-0.139,0.15-0.219,0.256-0.24,0.32c-0.106,0.32-0.427,0.693-0.96,1.12&#13;&#10;&#9;&#9;c-1.003,0.769-1.92,1.61-2.752,2.528c-0.405,0.447-0.704,0.693-0.896,0.736c-0.192,0.042-0.385,0.159-0.576,0.352&#13;&#10;&#9;&#9;c-0.192,0.191-0.443,0.287-0.752,0.287c-0.31,0-0.704-0.063-1.185-0.191c-0.479-0.128-0.757-0.219-0.832-0.271&#13;&#10;&#9;&#9;c-0.074-0.055-0.111-0.145-0.111-0.272s0.139-0.245,0.416-0.353c0.896-0.34,2.021-1.082,3.376-2.224&#13;&#10;&#9;&#9;c1.354-1.141,2.187-2.026,2.496-2.655c0.309-0.629,0.464-1.045,0.464-1.248s-0.091-0.305-0.272-0.305s-0.421,0.086-0.72,0.256&#13;&#10;&#9;&#9;c-0.299,0.172-0.544,0.256-0.736,0.256c-0.191,0-0.496-0.282-0.912-0.848c-0.416-0.564-0.624-0.992-0.624-1.28&#13;&#10;&#9;&#9;s0.336-0.533,1.009-0.736c0.672-0.202,1.893-0.528,3.664-0.976c0.234-0.064,0.378-0.171,0.432-0.32&#13;&#10;&#9;&#9;c0.053-0.149,0.08-0.496,0.08-1.04s-0.027-0.992-0.08-1.344c-0.054-0.352-0.139-0.56-0.256-0.624&#13;&#10;&#9;&#9;c-0.118-0.064-0.272-0.096-0.464-0.096c-0.513,0-1.18,0.096-2,0.288c-0.822,0.192-1.323,0.411-1.504,0.656&#13;&#10;&#9;&#9;c-0.182,0.245-0.358,0.805-0.528,1.68c-0.171,0.875-0.411,1.648-0.72,2.32c-0.31,0.672-1.02,1.733-2.128,3.184&#13;&#10;&#9;&#9;c-1.11,1.451-1.665,2.464-1.665,3.04c0,0.086,0.032,0.214,0.096,0.385c0.064,0.17,0.096,0.341,0.096,0.512&#13;&#10;&#9;&#9;c0,0.469-0.592,1.189-1.776,2.16S1.84,26.156,1.03,26.156c-0.533,0-0.8-0.096-0.8-0.287c0-0.192,0.149-0.448,0.448-0.769&#13;&#10;&#9;&#9;c1.024-1.151,1.797-2.106,2.32-2.864c0.522-0.757,1.232-2,2.128-3.728c0.896-1.728,1.493-2.976,1.792-3.744&#13;&#10;&#9;&#9;s0.533-1.579,0.704-2.432c0.171-0.853,0.256-1.472,0.256-1.856c0-0.384-0.016-0.667-0.048-0.848S7.782,9.271,7.782,9.101&#13;&#10;&#9;&#9;c0-0.17,0.063-0.288,0.191-0.352s0.357-0.096,0.688-0.096c0.33,0,2.384-0.357,6.16-1.072c3.775-0.714,5.834-1.136,6.176-1.264&#13;&#10;&#9;&#9;c0.341-0.128,0.565-0.192,0.672-0.192c0.362,0,0.688,0.368,0.977,1.104c0.287,0.736,0.432,1.227,0.432,1.472&#13;&#10;&#9;&#9;c0,0.246-0.117,0.368-0.353,0.368l-0.607-0.096c-0.32,0-1.003,0.128-2.048,0.384c-1.046,0.256-1.632,0.438-1.761,0.544&#13;&#10;&#9;&#9;c-0.128,0.107-0.261,0.544-0.399,1.312c-0.139,0.768-0.208,1.205-0.208,1.312c0,0.32,0.16,0.48,0.479,0.48&#13;&#10;&#9;&#9;c0.085,0,0.182-0.011,0.288-0.032c1.408-0.341,2.288-0.512,2.641-0.512c0.352,0,0.575,0.139,0.672,0.416&#13;&#10;&#9;&#9;c0.096,0.278,0.144,0.63,0.144,1.056c0,0.427-0.117,0.72-0.352,0.88c-0.235,0.16-1.216,0.454-2.944,0.88&#13;&#10;&#9;&#9;C18.225,15.8,18.022,15.992,18.022,16.269z M15.142,0.429c0.235,0,0.422,0.149,0.561,0.448c0.139,0.299,0.479,0.752,1.023,1.36&#13;&#10;&#9;&#9;c0.545,0.608,0.901,1.077,1.072,1.408c0.171,0.331,0.256,0.656,0.256,0.976c0,0.32-0.267,0.48-0.8,0.48&#13;&#10;&#9;&#9;c-1.259,0-2.149-0.192-2.672-0.576c-0.523-0.384-0.784-0.938-0.784-1.664c0-0.725,0.145-1.312,0.433-1.76&#13;&#10;&#9;&#9;C14.518,0.653,14.822,0.429,15.142,0.429z" stroke-width="1"/>
    </g>
    <g/>
    <g/>
    <g/>
    <g/>
    <g/>
    <g/>
    <g/>
    <g/>
    <g/>
    <g/>
    <g/>
    <g/>
    <g/>
    <g/>
    <g/>
  </g>
</svg>