<svg xmlns="http://www.w3.org/2000/svg" xmlns:xlink="http://www.w3.org/1999/xlink" version="1.1" id="图层_1" x="0px" y="0px" width="24.519001007080078" height="26.792001724243164" viewBox="0.7720003128051758 1.9509997367858887 24.519001007080078 26.792001724243164" enable-background="new 0 0 30 30" xml:space="preserve">
<g>
	<path fill="#0000FF" d="M14.199,11.123c0.298,0,0.522,0.005,0.672,0.016c0.148,0.011,0.271,0.16,0.368,0.448   c0.096,0.288,0.144,0.518,0.144,0.688c0,0.427-0.219,0.651-0.656,0.672c-0.438,0.022-1.003,0.091-1.695,0.208   c-0.693,0.118-1.275,0.24-1.744,0.368c-0.726,0.213-1.846,0.448-3.36,0.704s-2.768,0.507-3.76,0.752   c-0.992,0.246-1.6,0.416-1.824,0.512c-0.224,0.095-0.421,0.144-0.592,0.144c-0.171,0-0.293-0.139-0.368-0.416   s-0.112-0.683-0.112-1.216c0-0.256,0.053-0.384,0.16-0.384l0.352,0.032c0.362,0,1.098-0.138,2.208-0.416l3.328-0.768   c1.13-0.277,1.754-0.453,1.872-0.528c0.116-0.074,0.176-0.197,0.176-0.368c0-0.448-0.14-0.672-0.416-0.672   c-0.277,0-0.485,0.043-0.624,0.128c-0.139,0.085-0.251,0.128-0.336,0.128c-0.299,0-0.502-0.176-0.608-0.528   S7.047,9.837,6.695,9.314c-0.352-0.522-0.592-1.157-0.72-1.904C5.847,6.664,5.783,6.152,5.783,5.875   c0-0.277,0.085-0.475,0.256-0.592c0.17-0.117,0.475-0.203,0.912-0.256c0.437-0.053,1.151-0.234,2.144-0.544   c0.992-0.309,1.877-0.464,2.656-0.464c0.778,0,1.552,0.213,2.32,0.64c0.768,0.427,1.151,0.79,1.151,1.088   c0,0.299-0.106,0.544-0.319,0.736c-0.428,0.406-0.886,1.238-1.376,2.496c-0.3,0.811-0.726,1.248-1.28,1.312   c-0.512,0.064-0.769,0.374-0.769,0.928c0,0.171,0.117,0.235,0.353,0.192C12.812,11.219,13.602,11.123,14.199,11.123z    M14.935,20.435c0,0.214-0.021,0.442-0.063,0.688c-0.043,0.245-0.182,0.367-0.416,0.367c-0.598,0-1.515-0.181-2.752-0.544   c-0.171-0.042-0.315-0.063-0.433-0.063s-0.202,0.123-0.256,0.367c-0.053,0.246-0.08,0.561-0.08,0.944s0.027,0.71,0.08,0.976   c0.054,0.268,0.08,0.465,0.08,0.593c0,0.362-0.182,0.544-0.544,0.544c-0.128,0-0.527-0.07-1.2-0.208   c-0.672-0.139-1.584-0.603-2.735-1.392c-0.278-0.192-0.48-0.289-0.608-0.289s-0.331,0.16-0.608,0.48   c-0.598,0.704-1.035,1.057-1.312,1.057c-0.277,0-0.576-0.107-0.896-0.32c-0.32-0.213-0.48-0.49-0.48-0.832s0.144-0.565,0.432-0.672   c0.288-0.107,0.917-0.496,1.888-1.168s1.563-1.109,1.776-1.313c0.213-0.202,0.32-0.346,0.32-0.432s-0.123-0.32-0.368-0.704   s-0.432-0.704-0.56-0.96c-0.128-0.256-0.251-0.48-0.368-0.672c-0.118-0.192-0.176-0.342-0.176-0.448c0-0.384,0.309-0.65,0.928-0.8   c1.216-0.299,2.229-0.608,3.04-0.928c0.811-0.32,1.498-0.48,2.063-0.48s1.125,0.112,1.681,0.336   c0.555,0.224,0.832,0.432,0.832,0.624s-0.155,0.485-0.464,0.88c-0.31,0.395-0.508,0.672-0.593,0.832s-0.171,0.4-0.256,0.721   c-0.128,0.426-0.491,0.778-1.088,1.055c-0.149,0.064-0.224,0.156-0.224,0.272c0,0.118,0.128,0.177,0.384,0.177h0.576   c0.832,0,1.439,0.08,1.824,0.239C14.743,19.522,14.935,19.88,14.935,20.435z M9.463,20.723c0-0.875-0.139-1.313-0.416-1.313   s-0.522,0.117-0.736,0.353l-0.863,0.96c-0.363,0.405-0.544,0.678-0.544,0.816s0.155,0.256,0.464,0.352   c0.309,0.096,0.586,0.145,0.832,0.145c0.245,0,0.506-0.049,0.784-0.145c0.276-0.096,0.426-0.288,0.447-0.576   S9.463,20.83,9.463,20.723z M8.695,9.331c0.298,0,0.826-0.085,1.584-0.256c0.757-0.171,1.269-0.507,1.536-1.008   c0.266-0.501,0.399-0.976,0.399-1.424c0-0.981-0.47-1.472-1.408-1.472c-0.384,0-0.938,0.123-1.664,0.368   C8.418,5.784,8.055,6.142,8.055,6.61c0,0.15,0.097,0.203,0.288,0.16c0.747-0.234,1.387-0.352,1.92-0.352   c0.256,0,0.385,0.144,0.385,0.432s-0.07,0.512-0.208,0.672c-0.14,0.16-0.411,0.326-0.816,0.496C8.748,8.36,8.311,8.664,8.311,8.931   C8.311,9.198,8.439,9.331,8.695,9.331z M8.791,17.65c0.32,0,0.789-0.117,1.408-0.352c0.618-0.234,0.928-0.629,0.928-1.184   c0-0.257-0.139-0.385-0.416-0.385s-0.704,0.096-1.28,0.288c-0.575,0.192-0.923,0.357-1.04,0.496s-0.176,0.362-0.176,0.672   S8.407,17.65,8.791,17.65z M24.791,16.563c0,0.171-0.203,0.527-0.608,1.072c-0.405,0.544-0.768,1.115-1.088,1.712   c-0.319,0.597-1.029,1.445-2.128,2.544c-1.099,1.1-1.926,2.404-2.479,3.92c-0.149,0.384-0.544,0.757-1.185,1.12   c-0.64,0.362-1.222,0.671-1.744,0.929c-0.522,0.256-1.104,0.383-1.743,0.383c-1.195,0-1.792-0.08-1.792-0.24   s0.352-0.496,1.056-1.008c1.706-1.237,2.992-2.24,3.855-3.008c0.864-0.768,1.525-1.461,1.984-2.08   c0.459-0.618,1.227-1.781,2.304-3.488c1.077-1.706,1.605-2.612,1.584-2.719c-0.021-0.107-0.031-0.172-0.031-0.193   c0-0.17,0.116-0.255,0.352-0.255c0.234,0,0.57,0.166,1.008,0.496C24.572,16.078,24.791,16.35,24.791,16.563z M22.839,4.371   c0,0.171-0.128,0.331-0.384,0.48c-0.981,0.576-2.315,1.781-4,3.616c-0.192,0.214-0.405,0.32-0.64,0.32   c-0.448,0-0.673-0.123-0.673-0.368c0-0.245,0.325-1.05,0.977-2.416c0.65-1.365,1.188-2.298,1.616-2.8   c0.426-0.501,0.848-0.752,1.264-0.752s0.826,0.267,1.232,0.8C22.636,3.784,22.839,4.158,22.839,4.371z M21.911,8.979   c0.427,0,0.864,0.256,1.312,0.768c0.448,0.512,0.672,0.875,0.672,1.088c0,0.213-0.117,0.368-0.352,0.464   c-0.235,0.096-0.72,0.491-1.456,1.184c-0.736,0.693-1.456,1.51-2.16,2.448c-0.319,0.427-0.603,0.64-0.848,0.64   c-0.246,0-0.523-0.031-0.832-0.096c-0.31-0.064-0.464-0.192-0.464-0.384c0-0.106,0.276-0.677,0.832-1.712   c0.555-1.034,1.104-1.952,1.647-2.752c0.544-0.8,0.907-1.274,1.088-1.424C21.532,9.054,21.719,8.979,21.911,8.979z" stroke-width="1"/>
</g>
</svg>