<svg xmlns="http://www.w3.org/2000/svg" xmlns:xlink="http://www.w3.org/1999/xlink" version="1.1" id="图层_1" x="0px" y="0px" width="26.856000900268555" height="26.95400047302246" viewBox="0.6109979152679443 1.1790003776550293 26.856000900268555 26.95400047302246" enable-background="new 0 0 30 30" xml:space="preserve">
<g>
	<path fill="#0000FF" d="M20.663,7.794c0.17,0,0.586,0.272,1.248,0.816c0.661,0.544,1.045,0.971,1.152,1.28   c0.106,0.31,0.202,0.501,0.287,0.576c0.085,0.075,0.325,0.15,0.721,0.224c0.395,0.075,0.848,0.134,1.359,0.176   c0.832,0.064,1.248,0.357,1.248,0.88c0,0.523,0.048,0.912,0.145,1.168c0.096,0.256,0.144,0.443,0.144,0.56   s-0.111,0.454-0.336,1.008c-0.224,0.555-0.432,0.832-0.624,0.832c-0.191,0-0.453-0.197-0.784-0.592   c-0.331-0.395-0.906-0.944-1.728-1.648c-0.821-0.704-1.35-1.056-1.584-1.056c-0.235,0-0.704,0.491-1.408,1.472   s-1.36,2.027-1.968,3.136c-0.608,1.109-1.36,2.011-2.256,2.703c-0.896,0.693-2.24,1.531-4.032,2.512   c-1.109,0.619-1.931,1.729-2.464,3.328c-0.107,0.32-0.31,0.608-0.608,0.865c-0.299,0.256-1.066,0.586-2.304,0.991   c-1.238,0.405-2.192,0.608-2.864,0.608c-0.672,0-1.323-0.129-1.952-0.385c-0.63-0.256-0.944-0.463-0.944-0.623   s0.16-0.305,0.48-0.433c2.005-0.683,3.413-1.216,4.224-1.6c0.811-0.384,1.829-1.04,3.056-1.968   c1.227-0.928,2.416-1.904,3.568-2.928c1.151-1.025,1.792-1.617,1.92-1.777c0.128-0.159,0.191-0.303,0.191-0.432   c0-0.128-0.203-0.224-0.607-0.287c-1.152-0.171-2.476-0.844-3.969-2.017c-0.191-0.149-0.347-0.224-0.464-0.224   s-0.277,0.24-0.479,0.72c-0.203,0.479-0.405,0.72-0.608,0.72s-0.709-0.133-1.52-0.4c-0.811-0.266-1.296-0.479-1.456-0.64   c-0.16-0.16-0.24-0.325-0.24-0.496s0.042-0.314,0.128-0.432c0.085-0.117,0.48-0.448,1.184-0.992c0.704-0.544,1.371-1.029,2-1.456   c0.63-0.426,1.237-0.826,1.824-1.2c0.587-0.373,0.923-0.56,1.008-0.56c0.171,0,0.257,0.096,0.257,0.288s-0.075,0.395-0.225,0.608   l-0.735,1.376c-0.513,0.939-0.769,1.488-0.769,1.648s0.08,0.283,0.24,0.368c0.16,0.085,0.469,0.166,0.928,0.24   c0.459,0.075,0.997,0.112,1.616,0.112c0.618,0,0.986-0.101,1.104-0.304c0.117-0.203,0.177-0.634,0.177-1.296   c0-0.661-0.054-1.424-0.16-2.288c-0.107-0.864-0.16-1.6-0.16-2.208s0.032-1.312,0.096-2.112c0.064-0.8,0.106-2.224,0.128-4.272   c0-0.277,0.037-0.464,0.112-0.56c0.074-0.096,0.299-0.144,0.672-0.144s0.912,0.059,1.616,0.176   c0.704,0.118,1.056,0.293,1.056,0.528c0,0.107-0.091,0.24-0.271,0.4c-0.182,0.16-0.336,0.501-0.464,1.024   c-0.128,0.523-0.192,1.115-0.192,1.776l0.032,2.08c0,1.536-0.032,2.693-0.097,3.472c-0.063,0.779-0.096,1.6-0.096,2.464   c0,0.864,0.021,1.403,0.064,1.616c0.042,0.213,0.116,0.32,0.224,0.32c0.106,0,0.314-0.262,0.624-0.785   c0.309-0.522,0.646-1.168,1.008-1.936s0.747-1.52,1.152-2.256s0.715-1.477,0.928-2.224C20.343,7.976,20.492,7.794,20.663,7.794z" stroke-width="1"/>
</g>
</svg>