<svg xmlns="http://www.w3.org/2000/svg" xmlns:xlink="http://www.w3.org/1999/xlink" version="1.1" id="图层_1" x="0px" y="0px" width="28.68100357055664" height="25.062007904052734" viewBox="0.48299646377563477 3.4719929695129395 28.68100357055664 25.062007904052734" enable-background="new 0 0 30 30" xml:space="preserve">
<g>
	<path fill="#0000FF" d="M28.664,16.035c0,0.598-0.16,0.896-0.48,0.896c-0.128,0-0.287-0.043-0.479-0.129   c-1.067-0.404-2.368-0.607-3.904-0.607c-0.384,0-0.624,0.006-0.72,0.016c-0.096,0.012-0.176,0.075-0.24,0.191   c-0.063,0.118-0.096,0.272-0.096,0.465l0.063,1.504c0.043,0.619,0.064,1.237,0.064,1.855c0,1.686-0.166,2.918-0.496,3.696   c-0.331,0.778-0.576,1.595-0.736,2.448c-0.159,0.853-0.282,1.344-0.367,1.472c-0.086,0.128-0.246,0.192-0.48,0.192   c-0.235,0-0.981-0.225-2.24-0.672c-1.259-0.448-2.182-0.912-2.768-1.393c-0.587-0.479-0.88-0.811-0.88-0.992   c0-0.181,0.063-0.271,0.191-0.271s0.245,0.011,0.353,0.032c1.108,0.319,1.973,0.479,2.592,0.479c0.618,0,1.034-0.096,1.248-0.288   c0.213-0.191,0.453-0.789,0.72-1.792c0.267-1.002,0.4-1.904,0.4-2.703c0-0.801-0.048-1.605-0.145-2.416   c-0.096-0.811-0.176-1.27-0.239-1.377c-0.064-0.105-0.182-0.16-0.353-0.16c-0.342,0-1.072,0.123-2.191,0.369   c-1.12,0.245-1.889,0.506-2.305,0.783s-0.704,0.416-0.864,0.416c-0.159,0-0.277-0.096-0.352-0.287   c-0.075-0.193-0.187-0.373-0.336-0.545c-0.149-0.17-0.315-0.256-0.496-0.256c-0.182,0-0.336,0.139-0.464,0.416   s-0.294,0.582-0.496,0.912c-0.203,0.331-0.304,0.544-0.304,0.641c0,0.096,0.037,0.176,0.111,0.239   c0.075,0.063,0.363,0.224,0.864,0.479c0.501,0.257,0.891,0.428,1.168,0.513s0.485,0.341,0.624,0.769   c0.139,0.426,0.208,0.885,0.208,1.375c0,0.491-0.063,0.966-0.191,1.425c-0.129,0.458-0.305,0.688-0.528,0.688   s-0.598-0.336-1.12-1.008c-0.523-0.673-1.019-1.265-1.488-1.776c-0.469-0.512-0.752-0.795-0.848-0.848s-0.224-0.08-0.384-0.08   s-0.416,0.213-0.769,0.641c-0.352,0.426-0.549,0.693-0.592,0.799c-0.149,0.363-0.453,0.656-0.912,0.881   c-0.459,0.224-1.024,0.336-1.696,0.336s-1.232-0.149-1.68-0.448c-0.448-0.298-0.672-0.533-0.672-0.704   c0-0.17,0.192-0.277,0.576-0.32c1.6-0.148,2.736-0.512,3.408-1.088c0.672-0.576,1.008-0.971,1.008-1.184   c0-0.342-0.704-0.715-2.112-1.12c-0.256-0.063-0.384-0.176-0.384-0.336s0.101-0.421,0.304-0.784   c0.203-0.362,0.304-0.641,0.304-0.832s-0.069-0.288-0.208-0.288c-0.139,0-0.827,0.24-2.064,0.72   c-1.237,0.48-1.947,0.79-2.128,0.929c-0.182,0.139-0.384,0.208-0.608,0.208c-0.224,0-0.379-0.139-0.464-0.416   c-0.149-0.512-0.288-0.896-0.416-1.152c-0.128-0.256-0.192-0.475-0.192-0.656c0-0.181,0.096-0.309,0.288-0.384   c0.192-0.074,0.48-0.144,0.864-0.208c0.384-0.064,1.125-0.25,2.224-0.56c1.099-0.309,2.032-0.613,2.8-0.912   c0.768-0.299,1.205-0.608,1.312-0.928c0.106-0.32,0.24-0.827,0.4-1.52c0.16-0.693,0.277-1.408,0.352-2.144   c0.075-0.736,0.197-1.488,0.368-2.256c0.106-0.491,0.16-1.115,0.16-1.872c0-0.757,0.202-1.136,0.608-1.136   c0.191,0,0.549,0.123,1.071,0.368c0.522,0.246,0.784,0.486,0.784,0.72c0,0.085-0.037,0.187-0.112,0.304   c-0.074,0.118-0.171,0.4-0.287,0.848c-0.118,0.448-0.225,1.056-0.32,1.824s-0.219,1.504-0.368,2.208l-0.32,1.76   c0,0.32,0.139,0.443,0.416,0.368s0.539-0.139,0.784-0.192s0.411-0.128,0.496-0.224c0.085-0.096,0.165-0.352,0.24-0.768   c0.074-0.416,0.128-0.778,0.16-1.088c0.031-0.309,0.122-0.464,0.271-0.464s0.448,0.091,0.896,0.272   c0.447,0.181,0.672,0.4,0.672,0.656c0,0.064-0.021,0.139-0.064,0.224c-0.277,0.576-0.533,1.568-0.768,2.976   c-0.086,0.555-0.155,0.901-0.208,1.04c-0.054,0.139-0.08,0.24-0.08,0.304c0,0.235,0.112,0.352,0.336,0.352s0.698-0.106,1.424-0.32   s1.376-0.448,1.952-0.704s1.173-0.458,1.792-0.608c0.234-0.064,0.353-0.267,0.353-0.608c0-0.192-0.107-0.565-0.32-1.12   c-0.214-0.555-0.464-0.923-0.752-1.104s-0.433-0.389-0.433-0.624c0-0.234,0.314-0.405,0.944-0.512   c0.629-0.106,1.056-0.218,1.28-0.336c0.224-0.117,0.469-0.442,0.735-0.976c0.267-0.533,0.4-0.965,0.4-1.296   c0-0.331-0.112-0.603-0.336-0.816c-0.224-0.213-0.502-0.32-0.832-0.32c-0.331,0-0.944,0.379-1.84,1.136   c-0.896,0.757-1.504,1.488-1.824,2.192c-0.106,0.235-0.251,0.352-0.432,0.352c-0.182,0-0.587-0.325-1.216-0.976   c-0.63-0.65-0.944-1.194-0.944-1.632c0-0.437,0.448-0.73,1.344-0.88c1.45-0.256,2.683-0.586,3.696-0.992   c1.013-0.405,1.872-0.608,2.576-0.608s1.461,0.192,2.271,0.576c0.811,0.384,1.313,0.651,1.504,0.8   c0.192,0.149,0.288,0.341,0.288,0.576s-0.133,0.411-0.399,0.528c-0.268,0.118-0.582,0.405-0.944,0.864   c-0.363,0.459-1.003,0.944-1.92,1.456c-0.192,0.107-0.315,0.246-0.368,0.416c-0.054,0.171-0.08,0.475-0.08,0.912   c0,0.438,0.059,0.843,0.176,1.216c0.117,0.374,0.197,0.662,0.24,0.864c0.043,0.203,0.128,0.352,0.256,0.448   c0.128,0.096,0.331,0.144,0.608,0.144c1.151,0,2.325-0.085,3.52-0.256c0.192-0.021,0.363-0.032,0.513-0.032   c0.148,0,0.276,0.043,0.384,0.128c0.106,0.085,0.24,0.347,0.399,0.784c0.16,0.438,0.314,0.773,0.465,1.008   C28.589,15.374,28.664,15.672,28.664,16.035z M10.264,17.955c0.256,0,0.565-0.453,0.929-1.359c0.362-0.907,0.544-1.451,0.544-1.633   c0-0.181-0.092-0.272-0.272-0.272c-0.182,0-0.464,0.08-0.848,0.24c-0.384,0.16-0.688,0.523-0.912,1.088   c-0.224,0.564-0.336,0.934-0.336,1.104c0,0.171,0.122,0.352,0.368,0.544C9.981,17.859,10.157,17.955,10.264,17.955z" stroke-width="1"/>
</g>
</svg>