<svg xmlns="http://www.w3.org/2000/svg" xmlns:xlink="http://www.w3.org/1999/xlink" version="1.1" id="图层_1" x="0px" y="0px" width="28.455997467041016" height="24.616003036499023" viewBox="0.22600096464157104 2.846998453140259 28.455997467041016 24.616003036499023" enable-background="new 0 0 30 30" xml:space="preserve">
<g>
	<path fill="#0000FF" d="M11.863,8.371c0,0.149-0.064,0.336-0.192,0.56c-0.128,0.224-0.267,0.613-0.416,1.168   s-0.214,1.12-0.191,1.696c0.021,0.576,0.031,1.366,0.031,2.368c0,1.003-0.031,1.867-0.096,2.591   c-0.064,0.727-0.096,1.457-0.096,2.192c0,0.736,0.042,1.222,0.128,1.456c0.085,0.235,0.128,0.63,0.128,1.184   c0,0.556-0.043,0.988-0.128,1.297c-0.086,0.309-0.171,0.464-0.256,0.464c-0.086,0-0.182-0.042-0.288-0.128   c-0.363-0.234-0.801-0.448-1.313-0.641c-0.512-0.191-1.094-0.533-1.744-1.023c-0.651-0.49-1.104-0.891-1.36-1.2   c-0.256-0.31-0.443-0.464-0.56-0.464c-0.118,0-0.603,0.373-1.456,1.12l-1.184,1.024c-0.107,0.17-0.246,0.256-0.416,0.256   c-0.256,0-0.608-0.129-1.056-0.385c-0.448-0.256-0.672-0.555-0.672-0.896c0-0.192,0.085-0.32,0.256-0.384   c0.17-0.064,0.613-0.411,1.328-1.041c0.714-0.629,1.13-1.023,1.248-1.184c0.117-0.16,0.165-0.4,0.144-0.72   c-0.256-2.645-0.384-4.528-0.384-5.648c0-1.12-0.016-1.771-0.048-1.952C3.239,9.901,3.223,9.73,3.223,9.57   c0-0.16,0.069-0.298,0.208-0.416c0.138-0.117,0.325-0.197,0.56-0.24C4.226,8.872,4.529,8.797,4.903,8.69   c0.373-0.106,0.603-0.181,0.688-0.224c1.045-0.512,2.197-0.768,3.456-0.768c0.405,0,0.938,0.032,1.601,0.096   c0.66,0.064,1.028,0.149,1.104,0.256C11.825,8.158,11.863,8.264,11.863,8.371z M5.239,16.498c0,0.342,0.042,0.513,0.128,0.513   c0.085,0,0.17-0.021,0.256-0.064c0.789-0.575,1.728-1.162,2.816-1.76c0.319-0.192,0.479-0.458,0.479-0.8   c0-0.064-0.043-0.629-0.128-1.696c-0.086-1.066-0.149-1.701-0.192-1.904c-0.043-0.203-0.144-0.405-0.304-0.608   S7.953,9.827,7.751,9.73C7.548,9.634,7.34,9.586,7.127,9.586c-0.512,0-0.917,0.299-1.216,0.896   c-0.299,0.598-0.448,1.019-0.448,1.264c0,0.246,0.139,0.368,0.416,0.368c0.768,0.021,1.274,0.123,1.521,0.304   c0.244,0.182,0.367,0.48,0.367,0.896s-0.341,0.678-1.023,0.784c-0.32,0.043-0.651,0.24-0.992,0.592   c-0.341,0.352-0.512,0.752-0.512,1.2V16.498z M8.055,20.627c0.32,0,0.576-0.096,0.769-0.289c0.191-0.191,0.288-0.447,0.288-0.768   l-0.032-2.367c0-0.257-0.043-0.385-0.128-0.385c-0.086,0-0.171,0.043-0.256,0.128c-0.769,0.769-1.525,1.462-2.272,2.08   c-0.171,0.149-0.256,0.288-0.256,0.416s0.218,0.357,0.656,0.688C7.26,20.461,7.671,20.627,8.055,20.627z M23.927,11.411   c0,0.277-0.245,0.821-0.735,1.632c-0.491,0.811-0.918,1.376-1.28,1.696c-0.363,0.32-0.604,0.619-0.72,0.896   c-0.118,0.277-0.411,0.416-0.881,0.416l-0.672-0.032c-0.469,0-0.949,0.08-1.439,0.239c-0.491,0.16-0.79,0.369-0.896,0.625   c-0.256,0.576-0.607,1.264-1.056,2.063s-0.758,1.413-0.928,1.841c-0.171,0.426-0.246,0.725-0.225,0.896v0.448   c0,0.555-0.57,1.211-1.712,1.968s-2.31,1.136-3.504,1.136c-0.256,0-0.384-0.069-0.384-0.208s0.16-0.325,0.479-0.56   c1.451-1.109,2.608-2.203,3.473-3.28c0.863-1.077,1.424-2,1.68-2.769c0.256-0.768,0.384-1.231,0.384-1.392   c0-0.159-0.048-0.239-0.144-0.239c-0.097,0-0.229,0.031-0.4,0.096c-0.171,0.063-0.336,0.096-0.496,0.096s-0.288-0.053-0.384-0.16   c-0.096-0.106-0.32-0.469-0.672-1.088c-0.352-0.619-0.656-1.274-0.912-1.968s-0.384-1.179-0.384-1.456   c0-0.427,0.17-0.672,0.512-0.736c0.704-0.106,1.365-0.272,1.984-0.496c0.618-0.224,1.028-0.395,1.231-0.512   c0.203-0.117,0.491-0.357,0.864-0.72c0.373-0.362,0.768-0.826,1.184-1.392c0.416-0.565,0.688-0.965,0.816-1.2   c0.128-0.234,0.192-0.437,0.192-0.608c0-0.17-0.07-0.309-0.208-0.416c-0.14-0.106-0.288-0.16-0.448-0.16s-0.411,0.139-0.752,0.416   c-0.491,0.363-0.875,0.64-1.152,0.832c-0.832,0.555-1.359,0.981-1.584,1.28c-0.224,0.299-0.442,0.448-0.656,0.448   c-0.213,0-0.416-0.064-0.607-0.192c-0.192-0.128-0.288-0.256-0.288-0.384c0-0.192,0.395-0.768,1.184-1.728l1.152-1.408   c0.384-0.32,0.864-0.864,1.44-1.632c0.148-0.235,0.336-0.352,0.56-0.352s0.501,0.085,0.832,0.256   c0.33,0.171,0.635,0.48,0.912,0.928c0.17,0.277,0.458,0.512,0.864,0.704c0.49,0.235,0.933,0.486,1.327,0.752   c0.395,0.267,0.593,0.496,0.593,0.688c0,0.192-0.149,0.363-0.448,0.512c-0.299,0.149-0.587,0.427-0.864,0.832   c-0.085,0.149-0.416,0.48-0.992,0.992c-0.575,0.512-0.863,0.805-0.863,0.88s0.096,0.112,0.288,0.112   c1.002,0,1.914,0.118,2.735,0.352c0.821,0.235,1.36,0.421,1.616,0.56C23.799,11.054,23.927,11.219,23.927,11.411z M15.447,14.898   c0.17,0,0.298-0.026,0.384-0.08c0.085-0.053,0.139-0.138,0.16-0.256c0.021-0.117,0.063-0.491,0.128-1.12   c0.063-0.629,0.096-1.019,0.096-1.168c0-0.149-0.08-0.224-0.24-0.224c-0.159,0-0.453,0.075-0.88,0.224   c-0.427,0.149-0.677,0.304-0.752,0.464c-0.075,0.16-0.111,0.406-0.111,0.736c0,0.331,0.074,0.651,0.224,0.96   C14.604,14.744,14.935,14.898,15.447,14.898z M27.959,23.763c0,0.235,0.021,0.634,0.064,1.2c0.042,0.564,0.079,0.896,0.111,0.992   c0.032,0.096,0.048,0.186,0.048,0.271c0,0.299-0.144,0.496-0.432,0.592s-1.467,0.145-3.536,0.145s-3.413-0.172-4.032-0.512   c-0.618-0.342-1.179-0.849-1.68-1.521c-0.501-0.673-0.752-1.851-0.752-3.536c0-0.746,0.059-1.584,0.176-2.512   s0.245-1.473,0.384-1.633s0.325-0.239,0.561-0.239c0.234,0,0.496,0.063,0.784,0.192c0.288,0.127,0.432,0.282,0.432,0.463   c0,0.182-0.112,0.416-0.336,0.705c-0.224,0.287-0.405,0.698-0.544,1.231c-0.139,0.534-0.208,1.189-0.208,1.968   c0,0.779,0.165,1.371,0.496,1.776c0.33,0.405,0.832,0.726,1.504,0.96s1.498,0.352,2.479,0.352s1.675-0.32,2.08-0.959   c0.405-0.641,0.661-1.521,0.769-2.641c0.106-1.12,0.16-1.941,0.16-2.464s0.074-0.784,0.224-0.784c0.256,0,0.528,0.485,0.816,1.456   S27.959,21.736,27.959,23.763z M18.295,14.354c0.106,0,0.373-0.09,0.8-0.272c0.427-0.181,0.721-0.437,0.88-0.768   c0.16-0.331,0.24-0.603,0.24-0.816c0-0.576-0.512-0.864-1.536-0.864c-0.277,0-0.427,0.15-0.447,0.448l-0.16,1.984   C18.071,14.258,18.146,14.354,18.295,14.354z" stroke-width="1"/>
</g>
</svg>