<svg xmlns="http://www.w3.org/2000/svg" xmlns:xlink="http://www.w3.org/1999/xlink" version="1.1" id="图层_1" x="0px" y="0px" width="25.446001052856445" height="30.44099998474121" viewBox="0.35500001907348633 -0.06600049138069153 25.446001052856445 30.44099998474121" enable-background="new 0 0 30 30" xml:space="preserve">
<g>
	<path fill="#0000FF" d="M12.087,8.626c0.277-0.085,0.469-0.17,0.576-0.256c0.106-0.085,0.16-0.288,0.16-0.608   c0-0.32-0.069-0.48-0.208-0.48c-0.14,0-0.305,0.021-0.496,0.064c-0.192,0.043-0.533,0.096-1.024,0.16   C10.22,7.549,9.655,7.646,9.399,7.794C9.143,7.944,8.94,8.019,8.791,8.019S8.497,7.784,8.359,7.314   C8.22,6.846,8.151,6.494,8.151,6.258c0-0.234,0.042-0.384,0.128-0.448c0.085-0.064,0.25-0.096,0.496-0.096   c0.244,0,0.703-0.058,1.376-0.176c0.672-0.117,1.274-0.256,1.808-0.416s0.837-0.293,0.912-0.4c0.074-0.106,0.128-0.363,0.16-0.768   s0.085-1.024,0.16-1.856c0.074-0.832,0.122-1.291,0.144-1.376c0.021-0.085,0.08-0.155,0.176-0.208   c0.097-0.053,0.325-0.08,0.688-0.08c0.362,0,0.661,0.043,0.896,0.128c0.234,0.085,0.353,0.198,0.353,0.336   c0,0.139-0.027,0.39-0.08,0.752c-0.054,0.363-0.08,0.747-0.08,1.152s0.026,0.715,0.08,0.928c0.053,0.213,0.16,0.32,0.319,0.32   c0.16,0,0.337-0.021,0.528-0.064c1.066-0.256,1.883-0.384,2.448-0.384c0.564,0,0.848,0.267,0.848,0.8   c0,0.171-0.037,0.293-0.111,0.368c-0.075,0.075-0.188,0.139-0.336,0.192c-0.15,0.054-0.496,0.208-1.04,0.464   c-0.545,0.256-1.078,0.469-1.601,0.64c-0.522,0.171-0.827,0.304-0.912,0.4c-0.085,0.096-0.128,0.299-0.128,0.608   s0.074,0.464,0.225,0.464c0.148,0,0.298-0.021,0.447-0.064c0.769-0.234,1.397-0.352,1.889-0.352c0.276,0,0.432,0.144,0.464,0.432   c0.032,0.288,0.048,0.485,0.048,0.592c0,0.107-0.037,0.208-0.112,0.304c-0.075,0.096-0.271,0.229-0.592,0.4l-1.6,0.736   c-0.47,0.213-0.752,0.395-0.849,0.544c-0.096,0.149-0.144,0.374-0.144,0.672s0.191,0.416,0.576,0.352   c1.364-0.298,2.709-0.469,4.031-0.512c1.323-0.042,2.149-0.101,2.48-0.176c0.33-0.074,0.635-0.112,0.912-0.112   c0.276,0,0.512,0.075,0.704,0.224c0.191,0.149,0.479,0.539,0.863,1.168c0.385,0.629,0.576,1.072,0.576,1.328   c0,0.256-0.191,0.384-0.576,0.384c-0.213,0-0.459-0.042-0.735-0.128c-0.854-0.277-2.017-0.416-3.488-0.416s-2.938,0.085-4.4,0.256   c-1.461,0.171-3.931,0.784-7.407,1.84c-3.478,1.056-5.462,1.68-5.952,1.872C2.252,17.074,1.89,17.17,1.655,17.17   s-0.427-0.154-0.576-0.463c-0.149-0.31-0.224-0.545-0.224-0.705s0.085-0.281,0.256-0.367c0.17-0.086,0.512-0.16,1.024-0.224   c0.213-0.021,0.725-0.192,1.536-0.512c0.811-0.32,1.968-0.683,3.472-1.088c1.504-0.405,2.656-0.763,3.456-1.072   c0.801-0.309,1.253-0.49,1.36-0.544c0.106-0.053,0.219-0.181,0.336-0.384c0.117-0.203,0.176-0.395,0.176-0.576   c0-0.181-0.219-0.272-0.655-0.272c-0.438,0-0.801,0.048-1.089,0.144c-0.287,0.096-0.495,0.144-0.624,0.144   c-0.128,0-0.224-0.106-0.287-0.32c-0.15-0.469-0.262-0.789-0.337-0.96C9.404,9.8,9.367,9.65,9.367,9.522s0.117-0.197,0.352-0.208   c0.234-0.01,0.48-0.059,0.736-0.144L12.087,8.626z M19.351,26.771c0,1.407-0.037,2.276-0.111,2.608   c-0.075,0.33-0.22,0.496-0.433,0.496s-0.438-0.07-0.672-0.209s-0.598-0.303-1.088-0.496c-1.195-0.447-2.182-0.959-2.96-1.535   c-0.779-0.576-1.168-0.961-1.168-1.152c0-0.064,0.059-0.096,0.176-0.096s0.421,0.043,0.912,0.128   c0.49,0.085,0.997,0.128,1.521,0.128c0.522,0,0.853-0.166,0.991-0.496c0.139-0.331,0.208-1.243,0.208-2.736   c0-1.492-0.053-2.996-0.159-4.512c-0.107-1.515-0.283-2.426-0.528-2.736c-0.245-0.309-0.571-0.463-0.976-0.463   c-0.406,0-0.955,0.133-1.648,0.399s-1.115,0.539-1.264,0.815c-0.149,0.277-0.225,0.486-0.225,0.625s0.16,0.176,0.48,0.111   c0.725-0.106,1.396-0.16,2.016-0.16c0.277,0,0.416,0.075,0.416,0.225s-0.027,0.347-0.08,0.592   c-0.054,0.246-0.139,0.416-0.256,0.512s-0.373,0.208-0.768,0.336c-0.396,0.129-0.849,0.31-1.36,0.545   c-0.512,0.234-0.821,0.395-0.928,0.479c-0.107,0.085-0.198,0.224-0.272,0.416c-0.075,0.192-0.111,0.374-0.111,0.544   c0,0.171,0.053,0.256,0.159,0.256s0.31-0.048,0.608-0.145c0.299-0.096,0.778-0.229,1.439-0.399s1.067-0.256,1.217-0.256   c0.319,0,0.479,0.176,0.479,0.528c0,0.352-0.08,0.607-0.24,0.768c-0.159,0.16-0.592,0.357-1.296,0.592s-1.242,0.448-1.615,0.641   c-0.374,0.191-0.619,0.379-0.736,0.56c-0.117,0.182-0.24,0.544-0.368,1.088s-0.214,1.04-0.256,1.487   c-0.128,1.004-0.438,1.504-0.928,1.504c-0.342,0-0.513-0.207-0.513-0.623s0.037-1.536,0.112-3.36   c0.074-1.823,0.165-3.296,0.272-4.416c0.106-1.12,0.159-1.914,0.159-2.384c0-0.469,0.08-0.778,0.24-0.928s0.507-0.277,1.04-0.385   c0.533-0.105,1.034-0.276,1.504-0.512c1.173-0.576,2.592-0.864,4.256-0.864c0.619,0,1.157,0.048,1.616,0.144   s0.747,0.182,0.864,0.256c0.117,0.075,0.176,0.219,0.176,0.432l-0.032,0.833c-0.021,0.362-0.031,1.173-0.031,2.432   s0.026,2.447,0.079,3.568C19.324,23.074,19.351,24.68,19.351,26.771z" stroke-width="1"/>
</g>
</svg>