<svg xmlns="http://www.w3.org/2000/svg" xmlns:xlink="http://www.w3.org/1999/xlink" version="1.1" id="图层_1" x="0px" y="0px" width="30.694000244140625" height="25.798999786376953" viewBox="0.4350016117095947 1.1120015382766724 30.694000244140625 25.798999786376953" style="enable-background:new 0 0 30 30;" xml:space="preserve">
  <g>
    <g>
      <path style="fill:#0000FF;" d="M15.686,9.708c0.513,0,0.838,0.086,0.977,0.256c0.139,0.171,0.208,0.448,0.208,0.832&#13;&#10;&#9;&#9;c0,0.299-0.565,0.79-1.696,1.472c-1.131,0.683-1.936,1.035-2.416,1.056c-0.479,0.021-0.806,0.054-0.976,0.096&#13;&#10;&#9;&#9;c-0.171,0.043-0.331,0.117-0.48,0.224c-0.149,0.107-0.256,0.16-0.319,0.16c-0.214,0-0.565-0.426-1.057-1.28&#13;&#10;&#9;&#9;c-0.106-0.192-0.224-0.288-0.352-0.288s-0.288,0.128-0.48,0.384c-0.64,0.917-1.344,1.792-2.111,2.624&#13;&#10;&#9;&#9;c-0.576,0.64-1.014,1.472-1.313,2.496c-0.171,0.556-0.629,1.029-1.376,1.424c-0.747,0.396-1.317,0.593-1.712,0.593&#13;&#10;&#9;&#9;c-0.395,0-0.768-0.037-1.12-0.112c-0.352-0.074-0.528-0.154-0.528-0.24c0-0.148,0.277-0.432,0.832-0.848&#13;&#10;&#9;&#9;c0.554-0.416,1.093-0.784,1.616-1.104c0.522-0.32,1.104-0.838,1.744-1.552c0.64-0.715,1.216-1.52,1.729-2.416&#13;&#10;&#9;&#9;c0.512-0.896,0.768-1.456,0.768-1.68s-0.075-0.336-0.224-0.336c-0.064,0-0.118,0.021-0.16,0.064c-0.363,0.256-0.764,0.48-1.2,0.672&#13;&#10;&#9;&#9;c-0.438,0.192-0.709,0.288-0.816,0.288c-0.214,0-0.448-0.25-0.704-0.752c-0.256-0.501-0.384-0.842-0.384-1.024&#13;&#10;&#9;&#9;c0-0.181,0.224-0.347,0.672-0.496c1.856-0.597,3.061-1.029,3.616-1.296c0.555-0.267,0.832-0.827,0.832-1.68&#13;&#10;&#9;&#9;c0-0.384-0.102-0.576-0.304-0.576c-0.203,0-0.422,0.15-0.656,0.448C8.166,7.288,8.011,7.373,7.83,7.373&#13;&#10;&#9;&#9;c-0.182,0-0.368-0.245-0.56-0.736c-0.192-0.491-0.288-0.864-0.288-1.12s0.25-0.469,0.752-0.64c0.501-0.17,0.954-0.277,1.359-0.32&#13;&#10;&#9;&#9;c0.405-0.042,0.752-0.112,1.04-0.208c0.288-0.096,0.619-0.144,0.992-0.144s0.715,0.096,1.024,0.288&#13;&#10;&#9;&#9;c0.309,0.192,0.464,0.406,0.464,0.64c0,0.235-0.08,0.491-0.24,0.768s-0.347,0.507-0.56,0.688c-0.214,0.181-0.368,0.389-0.465,0.624&#13;&#10;&#9;&#9;c-0.096,0.235-0.224,0.683-0.384,1.344c-0.16,0.662-0.325,1.184-0.496,1.568c-0.171,0.384-0.256,0.651-0.256,0.8&#13;&#10;&#9;&#9;c0,0.149,0.085,0.224,0.256,0.224c0.341,0,1.302-0.299,2.88-0.896C14.31,9.89,15.089,9.708,15.686,9.708z M19.942,22.188&#13;&#10;&#9;&#9;c0.319,0,0.688,0.315,1.104,0.944s0.624,1.104,0.624,1.424c0,0.448-0.277,0.672-0.832,0.672c-0.128,0-0.267-0.011-0.416-0.031&#13;&#10;&#9;&#9;c-2.134-0.363-3.584-0.545-4.352-0.545c-0.769,0-1.804,0.203-3.104,0.608c-0.363,0.106-0.635,0.171-0.815,0.192&#13;&#10;&#9;&#9;c-0.182,0.021-0.582,0.031-1.2,0.031c-1.237,0-2.325,0.277-3.265,0.832c-0.106,0.064-0.213,0.096-0.319,0.096&#13;&#10;&#9;&#9;c-0.32,0-0.613-0.197-0.88-0.592c-0.268-0.395-0.4-0.683-0.4-0.863c0-0.182,0.181-0.283,0.544-0.305&#13;&#10;&#9;&#9;c0.661-0.021,1.499-0.154,2.512-0.399c1.014-0.245,1.798-0.496,2.353-0.753l1.6-0.703c0.598-0.234,1.051-0.608,1.36-1.12&#13;&#10;&#9;&#9;c0.309-0.513,0.464-0.944,0.464-1.296s-0.149-0.528-0.448-0.528c-0.191,0-0.357,0.048-0.496,0.144&#13;&#10;&#9;&#9;c-0.139,0.097-0.416,0.272-0.832,0.529c-0.416,0.256-0.677,0.459-0.783,0.607c-0.513,0.684-0.902,1.045-1.168,1.088&#13;&#10;&#9;&#9;c-0.268,0.043-0.539,0.117-0.816,0.225c-0.277,0.106-0.459,0.159-0.544,0.159c-0.256,0-0.384-0.276-0.384-0.832&#13;&#10;&#9;&#9;c0-0.427,0.319-1.013,0.96-1.76c0.106-0.128,0.16-0.288,0.16-0.479c0-0.129-0.102-0.363-0.305-0.705&#13;&#10;&#9;&#9;c-0.203-0.34-0.438-0.82-0.704-1.439s-0.399-1.072-0.399-1.359c0-0.289,0.17-0.454,0.512-0.497c0.341-0.042,0.709-0.17,1.104-0.384&#13;&#10;&#9;&#9;c0.395-0.213,0.794-0.357,1.199-0.432s0.923-0.234,1.553-0.48c0.629-0.245,1.227-0.368,1.792-0.368&#13;&#10;&#9;&#9;c0.564,0,1.082,0.069,1.552,0.208c0.469,0.139,0.815,0.299,1.04,0.48c0.224,0.182,0.336,0.395,0.336,0.64&#13;&#10;&#9;&#9;c0,0.246-0.102,0.603-0.304,1.072c-0.203,0.47-0.368,0.795-0.496,0.976c-0.128,0.182-0.438,0.465-0.929,0.849&#13;&#10;&#9;&#9;c-0.171,0.128-0.256,0.256-0.256,0.384c0,0.256,0.31,0.523,0.929,0.801c0.426,0.213,0.64,0.426,0.64,0.639&#13;&#10;&#9;&#9;c0,0.172-0.166,0.539-0.496,1.104c-0.331,0.565-0.496,0.944-0.496,1.136c0,0.192,0.282,0.289,0.848,0.289s1.077-0.043,1.536-0.129&#13;&#10;&#9;&#9;C19.681,22.232,19.921,22.188,19.942,22.188z M12.326,18.285c0.256,0,0.672-0.139,1.248-0.416s0.96-0.582,1.151-0.912&#13;&#10;&#9;&#9;c0.192-0.331,0.288-0.604,0.288-0.816s-0.106-0.4-0.319-0.56c-0.214-0.16-0.518-0.24-0.912-0.24c-0.396,0-0.838,0.251-1.328,0.752&#13;&#10;&#9;&#9;c-0.491,0.501-0.736,0.991-0.736,1.472S11.921,18.285,12.326,18.285z M18.95,8.525c0,0.107,0.042,0.203,0.128,0.288&#13;&#10;&#9;&#9;c0.448,0.448,0.938,1.008,1.472,1.68s1.152,1.28,1.856,1.824c0.704,0.544,1.408,0.976,2.111,1.296&#13;&#10;&#9;&#9;c2.134,0.981,3.686,1.771,4.656,2.368c0.971,0.598,1.456,0.982,1.456,1.152c0,0.171-0.368,0.299-1.104,0.384&#13;&#10;&#9;&#9;c-0.736,0.085-1.238,0.128-1.504,0.128c-0.268,0-0.752-0.102-1.456-0.304s-1.36-0.347-1.969-0.433&#13;&#10;&#9;&#9;c-0.607-0.084-1.008-0.17-1.199-0.256c-0.619-0.299-1.1-0.479-1.44-0.543c-0.342-0.064-0.576-0.161-0.704-0.289&#13;&#10;&#9;&#9;s-0.191-0.288-0.191-0.48v-0.448c0-0.96-0.24-1.797-0.721-2.512c-0.479-0.715-0.912-1.179-1.296-1.392&#13;&#10;&#9;&#9;c-0.832-0.469-1.376-0.885-1.632-1.248c-0.427-0.619-0.838-1.083-1.232-1.392c-0.395-0.309-0.88-0.57-1.456-0.784&#13;&#10;&#9;&#9;c-0.575-0.213-0.863-0.672-0.863-1.376c0-1.173,0.276-1.76,0.832-1.76c0.085,0,0.154,0.011,0.208,0.032&#13;&#10;&#9;&#9;c0.053,0.021,0.116,0.032,0.191,0.032s0.154-0.064,0.24-0.192c0.384-0.576,0.821-1.061,1.313-1.456&#13;&#10;&#9;&#9;c0.49-0.395,0.906-0.763,1.247-1.104c0.086-0.085,0.219-0.128,0.4-0.128c0.181,0,0.438,0.246,0.769,0.736&#13;&#10;&#9;&#9;c0.33,0.491,0.495,0.864,0.495,1.12s-0.117,0.448-0.352,0.576L16.87,5.292c-0.256,0.128-0.384,0.32-0.384,0.576&#13;&#10;&#9;&#9;s0.16,0.549,0.479,0.88c0.32,0.331,0.565,0.496,0.736,0.496c0.384,0,1.429-0.714,3.136-2.144c0.234-0.192,0.433-0.288,0.592-0.288&#13;&#10;&#9;&#9;c0.16,0,0.411,0.214,0.752,0.64c0.342,0.427,0.513,0.731,0.513,0.912c0,0.182-0.145,0.341-0.433,0.48&#13;&#10;&#9;&#9;c-0.288,0.139-0.773,0.411-1.456,0.816c-0.362,0.235-0.896,0.406-1.6,0.512C19.035,8.216,18.95,8.333,18.95,8.525z" stroke-width="1"/>
    </g>
    <g/>
    <g/>
    <g/>
    <g/>
    <g/>
    <g/>
    <g/>
    <g/>
    <g/>
    <g/>
    <g/>
    <g/>
    <g/>
    <g/>
    <g/>
  </g>
</svg>