<svg xmlns="http://www.w3.org/2000/svg" xmlns:xlink="http://www.w3.org/1999/xlink" version="1.1" id="图层_1" x="0px" y="0px" width="23.206998825073242" height="26.055002212524414" viewBox="2.9790003299713135 3.0390000343322754 23.206998825073242 26.055002212524414" enable-background="new 0 0 30 30" xml:space="preserve">
<g>
	<path fill="#0000FF" d="M10.167,13.522c0.149,0,0.224,0.416,0.224,1.248c0,1.451-0.277,2.987-0.832,4.608s-1.248,2.98-2.08,4.08   c-0.832,1.098-1.408,1.647-1.728,1.647c-0.128,0-0.267-0.085-0.416-0.256c-0.149-0.171-0.427-0.63-0.832-1.376   s-0.677-1.536-0.816-2.368c-0.139-0.832-0.208-1.909-0.208-3.231s0.09-2.651,0.272-3.984c0.181-1.333,0.362-2.106,0.544-2.32   c0.181-0.213,0.437-0.32,0.768-0.32c0.331,0,0.763,0.166,1.296,0.496c0.533,0.331,0.8,0.635,0.8,0.912s-0.256,0.592-0.768,0.944   c-0.512,0.352-0.966,1.067-1.36,2.144c-0.395,1.078-0.592,2.102-0.592,3.072s0.101,1.605,0.304,1.904   c0.202,0.299,0.442,0.447,0.72,0.447s0.522-0.059,0.736-0.176c0.213-0.117,0.533-0.404,0.96-0.863   c0.427-0.459,0.815-1.066,1.168-1.824c0.352-0.758,0.837-2.128,1.456-4.112C9.932,13.747,10.06,13.522,10.167,13.522z M7.095,4.274   c0.212,0,0.4,0.134,0.56,0.4c0.16,0.267,0.432,0.582,0.815,0.944c0.938,0.917,1.408,1.803,1.408,2.656   c0,0.299-0.069,0.565-0.208,0.8S9.367,9.427,9.175,9.427c-1.151,0-1.968-0.229-2.448-0.688c-0.48-0.458-0.72-0.896-0.72-1.312   c0-0.416,0.085-0.987,0.256-1.712c0.17-0.725,0.32-1.146,0.448-1.264S6.967,4.274,7.095,4.274z M20.151,3.539   c1.344,0,2.603,0.31,3.775,0.928c1.173,0.619,1.76,1.152,1.76,1.6c0,0.235-0.149,0.491-0.447,0.768   c-0.598,0.534-1.259,1.792-1.984,3.776c-0.128,0.406-0.533,1.248-1.216,2.528c-0.086,0.149-0.128,0.277-0.128,0.384   c0,0.107,0.128,0.203,0.384,0.288c0.384,0.128,0.576,0.267,0.576,0.416c0,0.149-0.032,0.288-0.096,0.416   c-0.257,0.491-0.385,1.152-0.385,1.984s0.054,1.957,0.16,3.375c0.106,1.42,0.16,3.046,0.16,4.881l-0.032,1.664   c0,0.533,0.021,0.916,0.064,1.152c0.042,0.234,0.063,0.395,0.063,0.479c0,0.277-0.139,0.416-0.416,0.416s-1.088-0.299-2.432-0.895   c-1.344-0.598-2.384-1.244-3.12-1.937c-0.736-0.694-1.104-1.142-1.104-1.345s0.059-0.303,0.176-0.303s0.208,0.01,0.271,0.031   c1.43,0.469,2.357,0.704,2.784,0.704s0.693-0.091,0.8-0.272s0.16-0.597,0.16-1.248c0-0.65-0.054-2.084-0.16-4.304   c-0.106-2.218-0.261-3.487-0.464-3.808s-0.512-0.48-0.928-0.48s-0.907,0.086-1.472,0.256c-0.565,0.171-0.955,0.384-1.168,0.64   c-0.214,0.256-0.32,0.459-0.32,0.607c0,0.15,0.096,0.192,0.288,0.129c1.13-0.32,1.888-0.48,2.271-0.48   c0.385,0,0.576,0.277,0.576,0.832s-0.39,0.939-1.168,1.152c-0.779,0.213-1.413,0.484-1.904,0.815   c-0.49,0.331-0.735,0.581-0.735,0.752s0.085,0.257,0.256,0.257s0.32-0.021,0.448-0.064c1.002-0.234,1.723-0.352,2.16-0.352   c0.437,0,0.655,0.159,0.655,0.479c0,0.726-0.533,1.28-1.6,1.664c-0.661,0.235-1.206,0.507-1.632,0.815   c-0.428,0.311-0.672,0.721-0.736,1.232c-0.171,1.515-0.314,2.48-0.432,2.896c-0.118,0.416-0.305,0.623-0.561,0.623   c-0.128,0-0.347-0.069-0.655-0.207c-0.31-0.14-0.465-0.454-0.465-0.945c0-1.344,0.16-3.369,0.48-6.079   c0.32-2.709,0.538-4.251,0.656-4.624c0.116-0.373,0.906-0.752,2.367-1.136c1.462-0.384,2.683-0.608,3.664-0.672   c0.257-0.021,0.385-0.08,0.385-0.176c0-0.096-0.112-0.298-0.336-0.608c-0.225-0.309-0.416-0.464-0.576-0.464   s-0.294,0.021-0.4,0.064c-1.323,0.341-2.277,0.549-2.864,0.624c-0.587,0.075-0.955,0.16-1.104,0.256   c-0.149,0.096-0.267,0.144-0.353,0.144c-0.341,0-1.003-0.736-1.983-2.208c-0.981-1.472-1.472-3.083-1.472-4.832   c0-0.405,0.085-0.693,0.256-0.864c0.17-0.17,0.496-0.283,0.976-0.336c0.48-0.053,1.221-0.224,2.224-0.512s2.086-0.506,3.248-0.656   C18.514,3.613,19.447,3.539,20.151,3.539z M14.775,11.059c0.256,0,0.544-0.064,0.863-0.192c0.32-0.128,0.518-0.267,0.593-0.416   c0.074-0.149,0.111-0.336,0.111-0.56s-0.048-0.336-0.144-0.336c-0.097,0-0.214,0.043-0.353,0.128   c-0.139,0.085-0.31,0.128-0.512,0.128c-0.203,0-0.427-0.17-0.672-0.512c-0.245-0.341-0.368-0.672-0.368-0.992   c0-0.469,0.213-0.736,0.64-0.8c0.235-0.042,0.528-0.106,0.881-0.192c0.352-0.085,0.527-0.213,0.527-0.384   c0-0.17-0.032-0.378-0.096-0.624c-0.064-0.245-0.219-0.368-0.464-0.368c-0.246,0-0.576,0.107-0.992,0.32   c-0.416,0.214-0.704,0.448-0.864,0.704c-0.16,0.256-0.24,0.64-0.24,1.152c0,0.768,0.069,1.451,0.208,2.048   C14.033,10.76,14.327,11.059,14.775,11.059z M19.895,11.442c0.129,0,0.24-0.085,0.337-0.256c0.096-0.17,0.276-0.603,0.544-1.296   c0.266-0.693,0.474-1.435,0.624-2.224c0.148-0.789,0.224-1.322,0.224-1.6c0-0.789-0.416-1.184-1.248-1.184s-1.35,0.144-1.552,0.432   c-0.203,0.288-0.305,0.656-0.305,1.104c0,0.171,0.059,0.256,0.177,0.256c0.116,0,0.309-0.037,0.575-0.112   c0.267-0.075,0.507-0.112,0.721-0.112c0.213,0,0.319,0.139,0.319,0.416s-0.079,0.646-0.239,1.104   c-0.16,0.459-0.528,0.773-1.104,0.944c-0.213,0.064-0.357,0.139-0.432,0.224c-0.075,0.085-0.112,0.256-0.112,0.512   c0,0.256,0.037,0.421,0.112,0.496c0.074,0.075,0.245,0.128,0.512,0.16c0.267,0.032,0.427,0.229,0.48,0.592   C19.58,11.262,19.703,11.442,19.895,11.442z" stroke-width="1"/>
</g>
</svg>