<svg xmlns="http://www.w3.org/2000/svg" xmlns:xlink="http://www.w3.org/1999/xlink" version="1.1" id="图层_1" x="0px" y="0px" width="24.26199722290039" height="26.342998504638672" viewBox="1.667001485824585 0.9280023574829102 24.26199722290039 26.342998504638672" enable-background="new 0 0 30 30" xml:space="preserve">
<g>
	<path fill="#0000FF" d="M11.607,12.435c0.213,0,0.367,0.048,0.464,0.144c0.096,0.096,0.187,0.283,0.271,0.56   s0.128,0.496,0.128,0.656s-0.091,0.288-0.271,0.384c-0.182,0.096-0.539,0.32-1.072,0.672s-0.907,0.598-1.12,0.735   c-0.213,0.14-0.432,0.209-0.656,0.209c-0.224,0-0.475-0.182-0.752-0.544c-0.319-0.448-1.142-0.672-2.464-0.672   c-0.299,0-0.576,0.16-0.832,0.48c-1.238,1.408-2.219,2.111-2.944,2.111c-0.128,0-0.192-0.116-0.192-0.352   c0-0.234,0.17-0.677,0.512-1.328c0.341-0.651,0.752-1.264,1.232-1.84c0.48-0.576,0.986-1.221,1.52-1.936   c0.533-0.714,0.875-1.21,1.024-1.488c0.426-0.704,0.826-1.237,1.2-1.6c0.373-0.362,0.655-0.544,0.848-0.544   c0.362,0,0.768,0.187,1.216,0.56c0.448,0.374,0.672,0.688,0.672,0.944c0,0.149-0.224,0.331-0.672,0.544   c-0.448,0.214-0.934,0.592-1.456,1.136s-0.784,0.923-0.784,1.136c0,0.214,0.171,0.368,0.513,0.464   c0.341,0.096,0.618,0.144,0.832,0.144c0.213,0,0.437-0.042,0.672-0.128C10.391,12.584,11.095,12.435,11.607,12.435z M22.647,21.971   c0.597,0,1.076,0.219,1.439,0.656c0.362,0.438,0.677,0.875,0.944,1.312c0.267,0.437,0.399,0.923,0.399,1.456s-0.144,0.8-0.432,0.8   s-0.752-0.155-1.392-0.464c-0.641-0.31-1.238-0.539-1.792-0.688c-0.556-0.15-1.195-0.225-1.921-0.225l-2.079,0.064   c-1.644,0.063-2.662,0.16-3.057,0.287c-0.395,0.129-1.019,0.229-1.872,0.305c-0.854,0.074-1.638,0.123-2.352,0.145   C9.82,25.64,8.94,25.757,7.895,25.971c-1.045,0.213-1.829,0.4-2.352,0.561c-0.523,0.159-0.907,0.239-1.152,0.239   c-0.246,0-0.411-0.176-0.496-0.528c-0.085-0.352-0.128-0.613-0.128-0.783c0-0.172,0.026-0.268,0.08-0.289   c0.053-0.021,0.218-0.031,0.496-0.031c0.341,0,1.525-0.283,3.552-0.848c2.027-0.565,3.435-0.934,4.225-1.104   c0.17-0.042,0.282-0.112,0.336-0.208c0.053-0.096,0.106-0.475,0.16-1.137c0.053-0.66,0.08-1.071,0.08-1.231   c0-0.159-0.112-0.229-0.336-0.208c-0.225,0.021-0.476,0.032-0.752,0.032c-0.854,0.043-1.59,0.214-2.208,0.512   c-0.15,0.064-0.288,0.097-0.416,0.097s-0.251-0.08-0.368-0.24c-0.118-0.16-0.192-0.496-0.225-1.008   c-0.031-0.512-0.063-0.843-0.096-0.992s-0.048-0.293-0.048-0.432s0.074-0.209,0.224-0.209l0.385,0.032   c0.362,0,0.986-0.138,1.871-0.416c0.886-0.276,1.462-0.448,1.729-0.512s0.416-0.139,0.448-0.224   c0.031-0.086,0.096-1.072,0.191-2.96c0.097-1.888,0.145-3.12,0.145-3.696c0-3.371,0.063-5.6,0.191-6.688   c0.043-0.512,0.064-0.971,0.064-1.376s0.042-0.656,0.128-0.752c0.085-0.096,0.288-0.144,0.608-0.144   c1.216,0,1.823,0.128,1.823,0.384c0,0.107-0.074,0.256-0.224,0.448c-0.256,0.384-0.384,1.355-0.384,2.912l0.063,7.712l-0.032,3.329   c0,0.213,0.117,0.309,0.353,0.287c1.28-0.191,2.234-0.287,2.864-0.287c0.629,0,1.028,0.031,1.199,0.096s0.257,0.251,0.257,0.561   c0,0.309-0.032,0.655-0.097,1.039c-0.063,0.385-0.144,0.625-0.239,0.721c-0.097,0.096-0.283,0.187-0.561,0.271   c-2.347,0.598-3.584,0.912-3.712,0.943c-0.128,0.033-0.192,0.283-0.192,0.753s0.021,0.854,0.064,1.151   c0.042,0.299,0.101,0.476,0.176,0.528c0.074,0.054,0.229,0.069,0.464,0.048c0.854-0.128,1.643-0.191,2.368-0.191l1.376,0.031   c0.641,0,1.205-0.021,1.696-0.063L22.647,21.971z M21.079,11.283c0,0.107,0.042,0.229,0.128,0.368   c0.085,0.139,0.267,0.208,0.544,0.208c0.896,0,1.557,0.032,1.984,0.096c0.426,0.064,0.709,0.166,0.848,0.304   c0.139,0.139,0.208,0.464,0.208,0.976c0,0.342-0.245,0.683-0.736,1.024c-0.49,0.342-0.891,0.512-1.199,0.512   c-0.31,0-0.646-0.139-1.009-0.416c-0.683-0.576-1.163-0.938-1.439-1.088c-0.277-0.149-0.561-0.224-0.849-0.224   s-0.512,0.091-0.672,0.272c-0.16,0.182-0.527,0.534-1.104,1.056c-0.576,0.523-0.939,0.784-1.088,0.784   c-0.149,0-0.225-0.106-0.225-0.32c0-0.213,0.145-0.656,0.433-1.328c0.288-0.672,0.624-1.376,1.008-2.112s0.885-1.573,1.504-2.512   c0.618-0.938,0.96-1.44,1.024-1.504c0.063-0.064,0.144-0.096,0.239-0.096c0.097,0,0.336,0.08,0.721,0.24   c0.384,0.16,0.778,0.421,1.184,0.784s0.608,0.619,0.608,0.768s-0.15,0.272-0.448,0.368c-0.299,0.096-0.651,0.374-1.057,0.832   C21.281,10.733,21.079,11.069,21.079,11.283z" stroke-width="1"/>
</g>
</svg>