<svg xmlns="http://www.w3.org/2000/svg" xmlns:xlink="http://www.w3.org/1999/xlink" version="1.1" id="图层_1" x="0px" y="0px" width="30.152002334594727" height="24.518999099731445" viewBox="0.14599913358688354 2.6489975452423096 30.152002334594727 24.518999099731445" style="enable-background:new 0 0 30 30;" xml:space="preserve">
  <g>
    <g>
      <path style="fill:#0000FF;" d="M9.862,8.205c-0.363,0-0.987,0.112-1.872,0.336c-0.886,0.224-1.414,0.4-1.584,0.528&#13;&#10;&#9;&#9;C6.235,9.197,6.118,9.261,6.054,9.261c-0.235,0-0.458-0.288-0.672-0.864c-0.213-0.576-0.32-0.954-0.32-1.136&#13;&#10;&#9;&#9;c0-0.181,0.181-0.293,0.544-0.336c0.363-0.042,1.013-0.197,1.952-0.464s1.979-0.603,3.12-1.008c1.142-0.405,2.288-0.608,3.44-0.608&#13;&#10;&#9;&#9;c0.213,0,0.399,0.069,0.56,0.208c0.16,0.139,0.24,0.293,0.24,0.464c0,0.171-0.096,0.438-0.288,0.8&#13;&#10;&#9;&#9;c-0.191,0.363-0.342,0.603-0.448,0.72c-0.106,0.118-0.213,0.368-0.319,0.752c-0.107,0.384-0.214,0.955-0.32,1.712&#13;&#10;&#9;&#9;c-0.107,0.758-0.16,1.483-0.16,2.176c0,0.693,0.026,1.099,0.08,1.216c0.053,0.118,0.176,0.176,0.368,0.176&#13;&#10;&#9;&#9;c0.405,0,0.608,0.256,0.608,0.768c0,0.747-0.342,1.248-1.024,1.504c-0.192,0.064-0.315,0.128-0.368,0.192&#13;&#10;&#9;&#9;c-0.054,0.064-0.134,0.543-0.24,1.44s-0.187,1.707-0.239,2.432c-0.054,0.727-0.08,1.5-0.08,2.32c0,0.822-0.027,1.456-0.08,1.904&#13;&#10;&#9;&#9;c-0.054,0.447-0.08,0.906-0.08,1.376l0.032,1.28c0,0.256-0.07,0.383-0.208,0.383c-0.14,0-0.294-0.031-0.465-0.096&#13;&#10;&#9;&#9;c-0.427-0.17-1.216-0.314-2.367-0.432c-1.152-0.117-2.14-0.416-2.96-0.896c-0.822-0.479-1.232-0.805-1.232-0.976&#13;&#10;&#9;&#9;c0-0.063,0.048-0.096,0.144-0.096s0.197,0.011,0.304,0.032c0.448,0.105,1.002,0.16,1.664,0.16c0.661,0,1.349-0.097,2.063-0.289&#13;&#10;&#9;&#9;c0.715-0.191,1.157-0.549,1.328-1.071s0.256-1.243,0.256-2.16l-0.031-2.304l0.063-2.112c0-0.341-0.085-0.512-0.256-0.512&#13;&#10;&#9;&#9;s-0.544,0.08-1.12,0.24c-0.576,0.16-1.014,0.332-1.312,0.512c-0.3,0.182-0.832,0.326-1.601,0.433&#13;&#10;&#9;&#9;c-0.768,0.106-1.669,0.32-2.704,0.64c-1.035,0.32-1.696,0.588-1.984,0.801s-0.507,0.32-0.656,0.32c-0.149,0-0.293-0.16-0.432-0.48&#13;&#10;&#9;&#9;c-0.139-0.32-0.208-0.592-0.208-0.816c0-0.224,0.256-0.4,0.768-0.527c0.896-0.192,2.048-0.539,3.456-1.041&#13;&#10;&#9;&#9;c1.408-0.501,2.512-0.938,3.312-1.312c0.801-0.373,1.681-0.688,2.641-0.944c0.17-0.042,0.293-0.139,0.368-0.288&#13;&#10;&#9;&#9;c0.074-0.149,0.154-0.629,0.239-1.44c0.085-0.811,0.128-1.595,0.128-2.352c0-0.757-0.021-1.189-0.063-1.296&#13;&#10;&#9;&#9;c-0.043-0.106-0.149-0.16-0.32-0.16H9.862z M9.894,18.316c0,0.172-0.074,0.374-0.224,0.608c-0.384,0.618-0.576,1.291-0.576,2.017&#13;&#10;&#9;&#9;c0,0.575-0.331,0.906-0.992,0.991s-1.151,0.22-1.472,0.399c-0.32,0.182-0.576,0.272-0.768,0.272s-0.374-0.091-0.544-0.272&#13;&#10;&#9;&#9;c-0.171-0.18-0.459-0.602-0.864-1.264c-0.406-0.66-0.608-1.088-0.608-1.279c0-0.192,0.096-0.342,0.288-0.448&#13;&#10;&#9;&#9;c0.192-0.106,0.704-0.331,1.536-0.673l1.729-0.703c0.319-0.128,0.666-0.192,1.04-0.192c0.372,0,0.709,0.044,1.008,0.128&#13;&#10;&#9;&#9;C9.744,17.986,9.894,18.125,9.894,18.316z M10.566,10.093c0,0.128-0.064,0.277-0.192,0.448c-0.342,0.47-0.512,1.163-0.512,2.08&#13;&#10;&#9;&#9;c0,0.384-0.182,0.619-0.544,0.704c-1.131,0.277-1.83,0.501-2.097,0.672c-0.267,0.171-0.469,0.256-0.607,0.256&#13;&#10;&#9;&#9;c-0.14,0-0.357-0.171-0.656-0.512c-0.299-0.341-0.603-0.778-0.912-1.312c-0.31-0.533-0.464-0.891-0.464-1.072&#13;&#10;&#9;&#9;s0.059-0.304,0.176-0.368s0.432-0.219,0.944-0.464c0.512-0.245,0.98-0.405,1.408-0.48c0.426-0.075,0.832-0.181,1.216-0.32&#13;&#10;&#9;&#9;C8.71,9.586,9.063,9.517,9.382,9.517c0.32,0,0.598,0.054,0.832,0.16C10.448,9.784,10.566,9.922,10.566,10.093z M6.662,20.652&#13;&#10;&#9;&#9;c0.661,0,0.992-0.33,0.992-0.992c0-0.404-0.16-0.607-0.48-0.607c-0.191,0-0.399,0.091-0.624,0.271&#13;&#10;&#9;&#9;c-0.224,0.182-0.336,0.448-0.336,0.801C6.214,20.477,6.363,20.652,6.662,20.652z M7.078,12.429c0.085,0,0.288-0.064,0.607-0.192&#13;&#10;&#9;&#9;c0.32-0.128,0.48-0.378,0.48-0.752c0-0.373-0.112-0.56-0.336-0.56s-0.459,0.107-0.704,0.32c-0.245,0.213-0.368,0.464-0.368,0.752&#13;&#10;&#9;&#9;S6.864,12.429,7.078,12.429z M17.222,14.125c-0.063,0.15-0.144,0.315-0.239,0.496c-0.097,0.182-0.145,0.326-0.145,0.432&#13;&#10;&#9;&#9;c0,0.107,0.096,0.192,0.288,0.256c0.661,0.149,1.157,0.267,1.488,0.352c0.33,0.085,0.527,0.166,0.592,0.24s0.096,0.187,0.096,0.335&#13;&#10;&#9;&#9;v0.448c0,0.917,0.539,2.027,1.616,3.328c1.077,1.302,2.555,2.267,4.432,2.896c1.877,0.63,3.089,1.094,3.633,1.393&#13;&#10;&#9;&#9;s0.815,0.539,0.815,0.72s-0.251,0.353-0.752,0.513s-1.146,0.239-1.936,0.239c-1.26,0-2.699-0.159-4.32-0.479&#13;&#10;&#9;&#9;c-0.363-0.064-0.64-0.107-0.832-0.129s-0.315-0.068-0.368-0.144c-0.054-0.075-0.08-0.336-0.08-0.784&#13;&#10;&#9;&#9;c0-1.365-0.479-2.271-1.439-2.72c-0.662-0.298-1.195-0.575-1.601-0.832c-0.085-0.063-0.197-0.096-0.336-0.096&#13;&#10;&#9;&#9;s-0.262,0.106-0.368,0.319c-0.362,0.641-0.65,1.084-0.863,1.328c-0.214,0.246-0.448,0.678-0.704,1.297&#13;&#10;&#9;&#9;c-0.256,0.618-0.747,1.098-1.473,1.439c-0.725,0.341-1.231,0.512-1.52,0.512s-0.432-0.059-0.432-0.176s0.042-0.229,0.128-0.336&#13;&#10;&#9;&#9;c1.536-2.048,2.453-3.371,2.752-3.968c0.298-0.597,0.549-1.248,0.752-1.952c0.202-0.704,0.304-1.354,0.304-1.952&#13;&#10;&#9;&#9;c0-0.789-0.128-1.184-0.384-1.184c-0.149,0-0.299,0.096-0.448,0.289c-0.683,0.746-1.302,1.119-1.855,1.119&#13;&#10;&#9;&#9;c-0.235,0-0.353-0.08-0.353-0.24c0-0.159,0.074-0.336,0.224-0.527c0.619-0.811,1.285-2.026,2-3.648&#13;&#10;&#9;&#9;c0.715-1.621,1.499-4.512,2.353-8.672c0.128-0.725,0.336-1.088,0.624-1.088s0.698,0.128,1.231,0.384s0.801,0.485,0.801,0.688&#13;&#10;&#9;&#9;c0,0.203-0.097,0.421-0.288,0.656c-0.47,0.555-0.736,1.387-0.8,2.496c-0.021,0.491-0.406,1.547-1.152,3.168&#13;&#10;&#9;&#9;c-0.043,0.085-0.064,0.176-0.064,0.272c0,0.096,0.054,0.144,0.16,0.144c0.32,0,0.736-0.096,1.248-0.288&#13;&#10;&#9;&#9;c0.512-0.192,0.981-0.288,1.408-0.288s0.821,0.064,1.184,0.192c0.363,0.128,0.635,0.272,0.816,0.432&#13;&#10;&#9;&#9;c0.181,0.16,0.576,0.571,1.184,1.232c0.608,0.662,0.944,1.035,1.009,1.12c0.063,0.085,0.096,0.181,0.096,0.288&#13;&#10;&#9;&#9;c0,0.427-0.726,0.8-2.176,1.12c-1.451,0.32-2.357,0.48-2.721,0.48c-0.362,0-0.544-0.074-0.544-0.224&#13;&#10;&#9;&#9;c0-0.149,0.075-0.277,0.225-0.384c0.704-0.469,1.221-0.928,1.552-1.376c0.33-0.448,0.496-0.837,0.496-1.168&#13;&#10;&#9;&#9;c0-0.331-0.268-0.496-0.8-0.496c-0.79,0-1.483,0.299-2.08,0.896c-0.256,0.256-0.886,0.629-1.889,1.12&#13;&#10;&#9;&#9;C17.595,13.698,17.414,13.869,17.222,14.125z" stroke-width="1"/>
    </g>
    <g/>
    <g/>
    <g/>
    <g/>
    <g/>
    <g/>
    <g/>
    <g/>
    <g/>
    <g/>
    <g/>
    <g/>
    <g/>
    <g/>
    <g/>
  </g>
</svg>