<svg xmlns="http://www.w3.org/2000/svg" xmlns:xlink="http://www.w3.org/1999/xlink" version="1.1" id="图层_1" x="0px" y="0px" width="22.537002563476562" height="25.897998809814453" viewBox="2.44899845123291 1.8799986839294434 22.537002563476562 25.897998809814453" style="enable-background:new 0 0 30 30;" xml:space="preserve">
  <g>
    <g>
      <path style="fill:#0000FF;" d="M12.646,9.708c0.426,0,0.922,0.171,1.487,0.512c0.565,0.341,0.997,0.832,1.296,1.472&#13;&#10;&#9;&#9;c0.299,0.64,0.448,1.152,0.448,1.536c0,0.555-0.229,0.832-0.688,0.832c-0.459,0-0.96-0.144-1.505-0.432&#13;&#10;&#9;&#9;c-0.544-0.288-0.815-0.512-0.815-0.672c0-0.16,0.139-0.304,0.416-0.432c0.746-0.299,1.12-0.661,1.12-1.088&#13;&#10;&#9;&#9;c0-0.234-0.08-0.458-0.24-0.672c-0.16-0.213-0.4-0.32-0.72-0.32c-0.32,0-0.672,0.224-1.057,0.672&#13;&#10;&#9;&#9;c-0.384,0.448-0.629,0.875-0.735,1.28c-0.086,0.363-0.235,0.598-0.448,0.704c-0.32,0.171-0.528,0.379-0.624,0.624&#13;&#10;&#9;&#9;c-0.096,0.246-0.144,0.656-0.144,1.232c0,0.342,0.148,0.512,0.447,0.512l0.769-0.096c0.213,0,0.356,0.128,0.432,0.384&#13;&#10;&#9;&#9;c0.074,0.256,0.112,0.476,0.112,0.655c0,0.182-0.038,0.342-0.112,0.48c-0.075,0.139-0.262,0.342-0.56,0.607&#13;&#10;&#9;&#9;c-0.3,0.268-0.587,0.486-0.864,0.656c-0.277,0.172-0.453,0.385-0.528,0.641s-0.111,0.459-0.111,0.607&#13;&#10;&#9;&#9;c0,0.15,0.063,0.225,0.191,0.225c0.106,0,0.501-0.129,1.185-0.385c0.682-0.256,1.093-0.383,1.231-0.383s0.208,0.053,0.208,0.159&#13;&#10;&#9;&#9;c0,0.278-0.336,0.736-1.008,1.376c-0.672,0.641-1.696,1.313-3.072,2.016c-1.376,0.705-2.576,1.377-3.6,2.017&#13;&#10;&#9;&#9;c-0.363,0.213-0.651,0.319-0.864,0.319c-0.213,0-0.491-0.213-0.832-0.639c-0.341-0.428-0.512-0.73-0.512-0.912&#13;&#10;&#9;&#9;s0.128-0.326,0.384-0.433c2.56-1.088,3.952-1.749,4.176-1.983c0.225-0.234,0.336-0.571,0.336-1.009&#13;&#10;&#9;&#9;c0-0.437-0.133-0.655-0.399-0.655c-0.268,0-0.582,0.068-0.944,0.207c-0.363,0.14-0.592,0.209-0.688,0.209&#13;&#10;&#9;&#9;c-0.096,0-0.182-0.043-0.256-0.129c-0.075-0.084-0.229-0.341-0.464-0.768c-0.235-0.427-0.352-0.746-0.352-0.96&#13;&#10;&#9;&#9;c0-0.213,0.213-0.362,0.64-0.448c0.619-0.128,1.131-0.261,1.536-0.4c0.405-0.138,0.667-0.239,0.784-0.303&#13;&#10;&#9;&#9;c0.117-0.064,0.197-0.214,0.24-0.449c0.042-0.234,0.063-0.468,0.063-0.704c0-0.512-0.182-0.768-0.544-0.768&#13;&#10;&#9;&#9;c-0.128,0-0.448,0.123-0.96,0.368c-0.512,0.246-0.875,0.491-1.088,0.736c-0.213,0.246-0.384,0.368-0.512,0.368&#13;&#10;&#9;&#9;c-0.107,0-0.224-0.122-0.352-0.368c-0.128-0.245-0.288-0.453-0.48-0.624c-0.192-0.17-0.357-0.41-0.496-0.72&#13;&#10;&#9;&#9;c-0.139-0.309-0.208-0.549-0.208-0.72c0-0.17,0.266-0.331,0.8-0.48c0.832-0.234,1.424-0.506,1.776-0.816&#13;&#10;&#9;&#9;c0.352-0.309,0.779-0.891,1.28-1.744c0.501-0.853,0.752-1.36,0.752-1.52c0-0.16-0.096-0.24-0.288-0.24&#13;&#10;&#9;&#9;c-0.191,0-0.475,0.064-0.848,0.192S6.182,9.229,5.99,9.229c-0.192,0-0.31-0.138-0.352-0.416C5.553,8.13,5.446,7.564,5.318,7.117&#13;&#10;&#9;&#9;c-0.128-0.448-0.192-0.714-0.192-0.8c0-0.384,0.331-0.576,0.992-0.576l0.928,0.032c0.448,0,0.923-0.021,1.424-0.064&#13;&#10;&#9;&#9;c0.501-0.042,0.816-0.085,0.944-0.128c1.898-0.682,3.264-1.024,4.096-1.024c0.299,0,0.501,0.069,0.608,0.208&#13;&#10;&#9;&#9;c0.106,0.139,0.148,0.277,0.128,0.416c-0.021,0.139-0.032,0.256-0.032,0.352s0.021,0.176,0.064,0.24&#13;&#10;&#9;&#9;c0.042,0.064,0.063,0.118,0.063,0.16c0,0.192-0.219,0.438-0.656,0.736c-0.438,0.299-0.88,0.555-1.327,0.768&#13;&#10;&#9;&#9;c-0.406,0.235-0.79,0.55-1.152,0.944c-0.363,0.395-0.741,0.837-1.136,1.328C9.675,10.2,9.435,10.53,9.35,10.701&#13;&#10;&#9;&#9;c-0.085,0.171-0.128,0.32-0.128,0.448c0,0.128,0.112,0.192,0.336,0.192c0.225,0,0.646-0.272,1.265-0.816&#13;&#10;&#9;&#9;C11.44,9.98,12.049,9.708,12.646,9.708z M24.486,3.853c0,0.043-0.012,0.107-0.032,0.192c-0.107,0.384-0.176,0.891-0.208,1.52&#13;&#10;&#9;&#9;c-0.032,0.63-0.032,1.2,0,1.712c0.032,0.512,0.048,1.045,0.048,1.6l-0.096,2.944l0.096,3.616l-0.063,7.168l0.031,3.488&#13;&#10;&#9;&#9;c0,0.448-0.037,0.757-0.111,0.928c-0.075,0.171-0.22,0.257-0.433,0.257c-0.362,0-1.253-0.32-2.672-0.961&#13;&#10;&#9;&#9;c-1.419-0.64-2.581-1.333-3.488-2.08c-0.906-0.746-1.359-1.205-1.359-1.375c0-0.171,0.085-0.257,0.256-0.257&#13;&#10;&#9;&#9;s0.352,0.043,0.544,0.128c1.408,0.576,2.773,0.864,4.096,0.864c0.405,0,0.672-0.256,0.8-0.769c0.129-0.512,0.192-1.818,0.192-3.92&#13;&#10;&#9;&#9;c0-2.101-0.063-5.349-0.192-9.744l-0.191-6.048c0-0.491,0.144-0.736,0.432-0.736s0.752,0.197,1.393,0.592&#13;&#10;&#9;&#9;C24.166,3.368,24.486,3.661,24.486,3.853z M19.59,9.005c0,0.128-0.032,0.277-0.096,0.448c-0.107,0.299-0.182,0.731-0.224,1.296&#13;&#10;&#9;&#9;c-0.044,0.565-0.064,1.531-0.064,2.896c0,1.792-0.373,2.688-1.12,2.688c-0.171,0-0.31-0.042-0.416-0.127&#13;&#10;&#9;&#9;c-0.106-0.086-0.203-0.31-0.288-0.672c-0.085-0.362-0.128-0.992-0.128-1.888l0.032-2.144c0-0.725-0.011-1.291-0.032-1.696&#13;&#10;&#9;&#9;L17.19,8.781c0-0.427,0.256-0.64,0.768-0.64c0.277,0,0.618,0.069,1.024,0.208C19.387,8.488,19.59,8.706,19.59,9.005z" stroke-width="1"/>
    </g>
    <g/>
    <g/>
    <g/>
    <g/>
    <g/>
    <g/>
    <g/>
    <g/>
    <g/>
    <g/>
    <g/>
    <g/>
    <g/>
    <g/>
    <g/>
  </g>
</svg>