<svg xmlns="http://www.w3.org/2000/svg" xmlns:xlink="http://www.w3.org/1999/xlink" version="1.1" id="图层_1" x="0px" y="0px" width="26.983001708984375" height="28.840002059936523" viewBox="0.7720000743865967 0.7979998588562012 26.983001708984375 28.840002059936523" enable-background="new 0 0 30 30" xml:space="preserve">
<g>
	<path fill="#0000FF" d="M25.687,14.354c0.107,0,0.214,0.054,0.32,0.16c0.106,0.107,0.314,0.469,0.624,1.088   c0.31,0.619,0.49,1.008,0.544,1.168c0.053,0.16,0.08,0.396,0.08,0.704c0,0.31-0.096,0.464-0.288,0.464   c-0.191,0-0.512-0.144-0.96-0.433c-0.448-0.287-1.157-0.521-2.128-0.703s-1.819-0.271-2.544-0.271c-0.32,0-0.496,0.143-0.528,0.432   c-0.031,0.287-0.048,1.893-0.048,4.815s0.117,5.013,0.353,6.272c0.021,0.17,0.031,0.32,0.031,0.447   c0,0.428-0.117,0.641-0.352,0.641c-0.235,0-0.464-0.092-0.688-0.271c-0.224-0.182-0.565-0.316-1.023-0.4   c-0.459-0.086-1.174-0.357-2.145-0.816s-1.76-0.885-2.367-1.279c-0.608-0.396-0.912-0.656-0.912-0.785   c0-0.063,0.059-0.096,0.176-0.096s0.293,0.032,0.528,0.096c1.236,0.299,2.154,0.449,2.752,0.449c0.597,0,0.991-0.135,1.184-0.4   c0.192-0.268,0.288-0.752,0.288-1.456s-0.064-2.069-0.192-4.097c-0.128-2.025-0.208-3.104-0.239-3.231   c-0.032-0.128-0.149-0.192-0.353-0.192s-0.635,0.059-1.296,0.176c-0.661,0.118-1.029,0.198-1.104,0.24   c-0.075,0.043-0.112,0.096-0.112,0.16s0.053,0.139,0.16,0.225c0.938,0.64,1.408,1.077,1.408,1.312c0,0.085-0.054,0.171-0.16,0.256   c-0.107,0.085-0.288,0.368-0.544,0.849c-0.257,0.479-0.433,0.869-0.528,1.168s-0.251,0.447-0.464,0.447   c-0.064,0-0.149-0.016-0.256-0.048c-0.107-0.032-0.22-0.048-0.336-0.048c-0.118,0-0.262,0.016-0.433,0.048   s-0.299,0.048-0.384,0.048c-0.214,0-0.32-0.068-0.32-0.207s0.032-0.283,0.097-0.433c0.213-0.427,0.319-0.88,0.319-1.36   c0-0.479-0.043-0.891-0.128-1.232c-0.085-0.34-0.154-0.543-0.208-0.607s-0.182-0.096-0.384-0.096c-0.203,0-0.56,0.064-1.072,0.191   c-0.191,0.064-0.331,0.182-0.416,0.353c-0.191,0.319-0.31,0.608-0.352,0.864l-0.353,2.207c-0.085,0.684-0.106,1.104-0.063,1.265   c0.042,0.16,0.063,0.304,0.063,0.433c0,0.127-0.133,0.352-0.399,0.672c-0.268,0.319-0.63,0.703-1.088,1.151   c-0.459,0.448-0.907,0.806-1.345,1.072s-0.891,0.485-1.359,0.655c-0.47,0.171-0.806,0.256-1.008,0.256s-0.304-0.059-0.304-0.176   s0.138-0.325,0.416-0.623c0.896-0.982,1.573-1.856,2.032-2.625c0.459-0.768,0.811-1.658,1.056-2.672   c0.245-1.013,0.368-1.744,0.368-2.191c0-0.171-0.149-0.234-0.447-0.192c-0.747,0.107-1.526,0.171-2.336,0.192   c-0.811,0.021-1.616,0.191-2.416,0.512s-1.264,0.613-1.392,0.88s-0.272,0.4-0.432,0.4c-0.16,0-0.368-0.314-0.624-0.944   c-0.256-0.629-0.384-1.013-0.384-1.152c0-0.139,0.059-0.234,0.176-0.287s0.597-0.182,1.44-0.385   c0.842-0.202,1.488-0.336,1.936-0.399c0.448-0.064,1.136-0.219,2.064-0.464s1.579-0.448,1.952-0.608s0.592-0.298,0.656-0.416   c0.063-0.117,0.117-0.506,0.16-1.168c0.042-0.661,0.063-1.36,0.063-2.096c0-0.736-0.011-1.365-0.032-1.888   C9.665,9.848,9.639,9.539,9.607,9.442c-0.032-0.096-0.086-0.144-0.16-0.144c-0.075,0-0.155,0.011-0.24,0.032   C9.121,9.352,8.972,9.362,8.759,9.362c-0.363,0-0.544-0.112-0.544-0.336c0-0.224,0.102-0.512,0.304-0.864   c0.203-0.352,0.758-1.093,1.664-2.224c0.907-1.13,1.766-2.133,2.576-3.008c0.811-0.875,1.28-1.365,1.408-1.472   c0.128-0.106,0.234-0.16,0.32-0.16c0.148,0,0.564,0.278,1.248,0.832c0.683,0.555,1.023,0.928,1.023,1.12s-0.102,0.326-0.304,0.4   c-0.203,0.075-0.672,0.421-1.408,1.04c-0.736,0.619-1.515,1.312-2.336,2.08s-1.259,1.184-1.312,1.248   c-0.054,0.064-0.08,0.133-0.08,0.208c0,0.075,0.063,0.112,0.191,0.112s0.448-0.128,0.96-0.384c2.133-0.96,4.117-1.44,5.952-1.44   c0.981,0,1.813,0.166,2.496,0.496s1.024,0.592,1.024,0.784s-0.192,0.406-0.576,0.64c-0.128,0.085-0.251,0.806-0.368,2.16   c-0.117,1.355-0.176,2.405-0.176,3.152c0,0.235,0.063,0.39,0.191,0.464c0.128,0.075,0.234,0.112,0.32,0.112l1.313,0.064   c0.788,0.064,1.418,0.096,1.888,0.096c0.469,0,0.763-0.021,0.88-0.064C25.532,14.376,25.623,14.354,25.687,14.354z M16.279,14.194   c0.789,0,1.269-0.037,1.439-0.112c0.171-0.075,0.256-0.25,0.256-0.528l-0.031-3.328c0-0.576-0.145-1.035-0.433-1.376   s-0.678-0.512-1.168-0.512c-0.384,0-1.077,0.224-2.08,0.672c-1.003,0.448-1.621,0.816-1.855,1.104   c-0.235,0.288-0.353,0.784-0.353,1.488l0.097,2.56c0,0.405,0.068,0.608,0.208,0.608c0.138,0,0.464-0.053,0.976-0.16   c0.512-0.106,0.8-0.197,0.864-0.272c0.063-0.074,0.096-0.24,0.096-0.496c0-0.618-0.085-1.184-0.256-1.696   c-0.107-0.362-0.16-0.683-0.16-0.96c0-0.597,0.224-0.896,0.672-0.896c0.192,0,0.608,0.16,1.248,0.48   c0.641,0.32,0.96,0.555,0.96,0.704c0,0.149-0.063,0.288-0.191,0.416s-0.272,0.459-0.433,0.992c-0.16,0.534-0.24,0.886-0.24,1.056   C15.895,14.109,16.023,14.194,16.279,14.194z" stroke-width="1"/>
</g>
</svg>