<svg xmlns="http://www.w3.org/2000/svg" xmlns:xlink="http://www.w3.org/1999/xlink" version="1.1" id="图层_1" x="0px" y="0px" width="28.265003204345703" height="25.255001068115234" viewBox="-0.44600316882133484 3.421999931335449 28.265003204345703 25.255001068115234" enable-background="new 0 0 30 30" xml:space="preserve">
<g>
	<path fill="#0000FF" d="M25.431,18.258c0.448,0.021,0.752,0.086,0.912,0.193c0.16,0.106,0.362,0.379,0.608,0.815   c0.245,0.438,0.368,0.763,0.368,0.976c0,0.704-0.192,1.057-0.576,1.057c-0.149,0-0.363-0.064-0.641-0.192   c-1.493-0.64-3.552-0.96-6.176-0.96c-0.704,0-1.312,0.021-1.824,0.064c-0.512,0.043-0.821,0.102-0.928,0.176   s-0.314,0.357-0.624,0.848c-0.31,0.491-0.923,1.313-1.84,2.465c-0.299,0.341-0.533,0.832-0.704,1.471   c-0.32,1.109-1.344,1.664-3.072,1.664c-0.319,0-0.672-0.031-1.056-0.096s-0.576-0.16-0.576-0.287c0-0.129,0.208-0.305,0.624-0.529   c0.416-0.223,1.003-0.618,1.76-1.184c0.758-0.565,1.488-1.312,2.192-2.24c0.704-0.928,1.056-1.45,1.056-1.567   s-0.053-0.177-0.159-0.177c-0.107,0-0.528,0.076-1.265,0.225c-0.735,0.149-1.402,0.246-2,0.288   c-0.598,0.043-1.291,0.182-2.08,0.416c-0.789,0.235-1.227,0.399-1.312,0.496c-0.086,0.096-0.16,0.336-0.225,0.72   c-0.063,0.385-0.187,0.943-0.367,1.68c-0.182,0.736-0.272,1.179-0.272,1.328s-0.063,0.283-0.192,0.4   c-0.128,0.117-0.299,0.176-0.512,0.176s-0.384-0.4-0.512-1.199c-0.128-0.801-0.192-1.713-0.192-2.736   c0-1.024,0.037-1.931,0.112-2.721c0.075-0.789,0.112-1.594,0.112-2.416c0-0.82-0.117-1.231-0.352-1.231   c-0.128,0-0.331,0.096-0.608,0.288c-1.686,1.216-2.773,1.951-3.264,2.207c-0.491,0.257-0.96,0.385-1.408,0.385   c-0.256,0-0.384-0.074-0.384-0.225c0-0.426,0.949-1.674,2.848-3.744c0.789-0.896,1.248-1.499,1.376-1.808   c0.128-0.309,0.661-1.243,1.6-2.8c0.832-1.365,1.472-2.581,1.92-3.648C8.033,6.28,8.289,5.726,8.567,5.17   C8.844,4.616,9.01,4.296,9.063,4.21c0.053-0.085,0.144-0.154,0.271-0.208c0.128-0.053,0.314-0.08,0.56-0.08s0.63,0.149,1.152,0.448   s0.784,0.528,0.784,0.688s-0.128,0.4-0.384,0.72c-0.769,0.917-1.265,1.67-1.488,2.256c-0.224,0.587-0.646,1.381-1.264,2.384   c-0.619,1.003-1.094,1.691-1.425,2.064c-0.331,0.374-0.533,0.651-0.607,0.832c-0.075,0.182-0.112,0.485-0.112,0.912   s0.037,0.704,0.112,0.832c0.074,0.128,0.272,0.203,0.592,0.224c0.32,0.021,0.661,0.085,1.024,0.192   c0.362,0.107,0.544,0.262,0.544,0.464c0,0.203-0.086,0.442-0.256,0.72c-0.3,0.448-0.448,1.408-0.448,2.881   c0,0.362,0.096,0.543,0.288,0.543c0.021,0,0.763-0.16,2.224-0.479s2.256-0.507,2.384-0.56s0.192-0.188,0.192-0.4l-0.096-3.936   c0-2.026,0.106-3.754,0.319-5.184c0.213-1.429,0.405-2.325,0.576-2.688c0.171-0.362,0.389-0.576,0.656-0.64   c0.267-0.064,0.928-0.176,1.984-0.336c1.056-0.16,1.68-0.25,1.871-0.272c0.533-0.021,0.977-0.096,1.328-0.224   c0.353-0.128,0.73-0.192,1.137-0.192c0.404,0,0.842,0.112,1.312,0.336c0.469,0.224,0.704,0.55,0.704,0.976   c0,0.149-0.037,0.304-0.112,0.464c-0.075,0.16-0.149,0.502-0.224,1.024c-0.075,0.523-0.107,0.987-0.096,1.392   c0.01,0.406,0.016,0.672,0.016,0.8c0,1.152-0.043,2.443-0.128,3.872l-0.192,3.551c0,0.192,0.032,0.32,0.097,0.385   c0.063,0.064,0.224,0.107,0.479,0.128L25.431,18.258z M15.095,18.643c0.085,0,0.203-0.011,0.353-0.032   c0.426-0.085,1.578-0.256,3.456-0.512c0.362-0.042,0.575-0.122,0.64-0.24c0.064-0.116,0.096-0.239,0.096-0.368l0.032-1.791   c0.021-1.089,0.032-2.603,0.032-4.545c0-1.941-0.069-3.141-0.208-3.6c-0.139-0.458-0.528-0.688-1.168-0.688   c-0.299,0-0.736,0.096-1.313,0.288c-0.575,0.192-0.917,0.448-1.023,0.768c-0.107,0.32-0.16,0.582-0.16,0.784   c0,0.203,0.176,0.283,0.528,0.24c0.352-0.042,0.624-0.064,0.815-0.064c0.469,0,0.704,0.171,0.704,0.512   c0,0.341-0.037,0.587-0.112,0.736c-0.074,0.149-0.251,0.299-0.527,0.448c-0.79,0.405-1.275,0.677-1.456,0.816   c-0.182,0.139-0.272,0.352-0.272,0.64s0.097,0.432,0.288,0.432c0.362,0,0.704-0.032,1.024-0.096   c0.319-0.064,0.512-0.096,0.576-0.096c0.256,0,0.384,0.256,0.384,0.768c0,0.277-0.225,0.501-0.672,0.672   c-0.448,0.171-0.875,0.374-1.28,0.608s-0.656,0.432-0.752,0.592s-0.145,0.341-0.145,0.544c0,0.204,0.054,0.304,0.16,0.304   s0.234-0.021,0.384-0.063c0.661-0.172,1.217-0.257,1.664-0.257c0.257,0,0.416,0.123,0.48,0.368   c0.063,0.246,0.096,0.432,0.096,0.561c0,0.127-0.149,0.234-0.448,0.319c-0.683,0.171-1.231,0.347-1.647,0.528   s-0.667,0.325-0.752,0.432c-0.086,0.107-0.128,0.299-0.128,0.576S14.86,18.643,15.095,18.643z M19.543,22.322   c0.256,0,0.917,0.235,1.984,0.704c1.066,0.47,1.728,0.784,1.983,0.944s0.48,0.25,0.672,0.271c0.342,0.021,0.593,0.289,0.752,0.801   c0.16,0.512,0.24,0.996,0.24,1.455s-0.08,0.854-0.24,1.184c-0.159,0.332-0.314,0.496-0.464,0.496s-0.475-0.213-0.976-0.639   c-0.502-0.428-0.795-0.705-0.88-0.832c-0.405-0.576-0.816-1.014-1.232-1.313s-0.752-0.641-1.008-1.023   c-0.128-0.256-0.438-0.629-0.928-1.121c-0.192-0.191-0.288-0.336-0.288-0.432s0.032-0.202,0.096-0.32   C19.319,22.381,19.415,22.322,19.543,22.322z" stroke-width="1"/>
</g>
</svg>