<svg xmlns="http://www.w3.org/2000/svg" xmlns:xlink="http://www.w3.org/1999/xlink" version="1.1" id="图层_1" x="0px" y="0px" width="28.327999114990234" height="25.190000534057617" viewBox="-0.1899995505809784 2.1430001258850098 28.327999114990234 25.190000534057617" enable-background="new 0 0 30 30" xml:space="preserve">
<g>
	<path fill="#0000FF" d="M10.871,18.963c-0.235,0.213-0.438,0.32-0.608,0.32s-0.347-0.107-0.527-0.32   c-0.182-0.213-0.32-0.32-0.416-0.32c-0.097,0-0.145,0.064-0.145,0.191c-0.043,0.875-0.096,1.5-0.16,1.873   C8.951,21.08,8.93,21.715,8.951,22.61l0.032,1.28c0,0.917-0.043,1.637-0.128,2.16c-0.086,0.522-0.214,0.783-0.385,0.783   c-0.128,0-0.453-0.187-0.976-0.56c-0.523-0.374-0.784-0.63-0.784-0.769s0.08-0.256,0.24-0.352c0.16-0.096,0.267-0.347,0.319-0.752   c0.054-0.404,0.112-1.674,0.177-3.808c0.063-2.134,0.096-3.403,0.096-3.808c0-0.406-0.059-0.608-0.176-0.608   c-0.118,0-0.208,0.063-0.272,0.192c-0.96,1.621-2.086,3.135-3.376,4.543s-2.149,2.112-2.576,2.112   c-0.213,0-0.406-0.138-0.576-0.416c-0.171-0.276-0.256-0.517-0.256-0.72s0.096-0.33,0.288-0.385   c0.192-0.053,0.41-0.207,0.656-0.463c0.245-0.256,0.794-0.923,1.648-2c0.853-1.078,1.536-1.989,2.048-2.736   c0.512-0.746,0.885-1.387,1.12-1.92s0.352-0.864,0.352-0.992s-0.102-0.192-0.304-0.192c-0.203,0-0.592,0.117-1.168,0.352   c-0.576,0.235-1.12,0.587-1.632,1.056c-0.128,0.128-0.245,0.192-0.352,0.192s-0.272-0.123-0.496-0.368   c-0.224-0.245-0.395-0.667-0.512-1.264c-0.118-0.597-0.208-1.002-0.272-1.216c-0.064-0.213-0.096-0.395-0.096-0.544   c0-0.149,0.075-0.309,0.224-0.48c0.149-0.17,0.352-0.267,0.608-0.288c0.981-0.064,1.739-0.139,2.272-0.224   c0.533-0.085,1.067-0.229,1.6-0.432C6.828,9.784,7.17,9.634,7.319,9.539c0.148-0.096,0.267-0.234,0.352-0.416   c0.085-0.181,0.128-0.336,0.128-0.464c0.043-1.088,0.117-1.861,0.225-2.32C8.13,5.88,8.178,5.496,8.167,5.187   c-0.011-0.309-0.016-0.56-0.016-0.752s0.021-0.539,0.063-1.04c0.043-0.501,0.234-0.752,0.576-0.752   c0.149,0,0.464,0.112,0.944,0.336c0.479,0.224,0.72,0.438,0.72,0.64s-0.064,0.432-0.192,0.688C9.751,5.501,9.495,6.846,9.495,8.338   c0,0.235,0.074,0.374,0.224,0.416c0.149,0.043,0.341,0.064,0.576,0.064h0.256c0.234,0,0.379,0.08,0.433,0.24   c0.053,0.16,0.08,0.454,0.08,0.88c0,0.32-0.123,0.64-0.368,0.96c-0.246,0.32-0.582,0.662-1.009,1.024   c-0.106,0.107-0.159,0.219-0.159,0.336c0,0.118,0.053,0.208,0.159,0.272c0.726,0.448,1.089,0.96,1.089,1.536   c0,0.299-0.118,0.555-0.353,0.768c-0.234,0.213-0.475,0.326-0.72,0.336c-0.246,0.011-0.368,0.102-0.368,0.272   c0,0.171-0.048,0.396-0.144,0.673c-0.097,0.277-0.145,0.495-0.145,0.655s0.043,0.272,0.128,0.336s0.154,0.128,0.208,0.192   c0.053,0.063,0.112,0.096,0.176,0.096c0.064,0,0.277-0.106,0.641-0.32c0.362-0.213,0.965-0.656,1.808-1.328   c0.843-0.671,1.313-1.087,1.408-1.248s0.144-0.362,0.144-0.608c0-0.245-0.021-0.4-0.063-0.464   c-0.043-0.064-0.139-0.096-0.288-0.096c-0.789,0-1.302-0.123-1.536-0.368c-0.235-0.245-0.352-0.72-0.352-1.424   c0-0.213,0.068-0.389,0.208-0.528c0.138-0.139,0.276-0.208,0.416-0.208c0.138,0,0.25,0.032,0.336,0.096   c0.404,0.32,0.768,0.48,1.088,0.48c0.148,0,0.224-0.085,0.224-0.256l0.096-1.888l-0.063-0.8c0-0.298,0.139-0.448,0.416-0.448   c0.128,0,0.57,0.085,1.328,0.256c0.757,0.171,1.136,0.363,1.136,0.576c0,0.085-0.069,0.198-0.208,0.336   c-0.139,0.139-0.229,0.31-0.271,0.512c-0.043,0.203-0.064,0.582-0.064,1.136s-0.054,1.045-0.16,1.472   c-0.021,0.107-0.032,0.229-0.032,0.368c0,0.139,0.08,0.219,0.24,0.24c0.16,0.021,0.24,0.123,0.24,0.304   c0,0.182-0.134,0.485-0.4,0.912s-0.411,0.757-0.432,0.992c-0.086,0.683-0.235,1.269-0.448,1.76   c-0.341,0.683-0.512,1.589-0.512,2.72c0,0.406-0.353,1.062-1.056,1.969c-0.704,0.906-1.35,1.461-1.937,1.664   s-1.029,0.303-1.328,0.303s-0.448-0.096-0.448-0.287c0-0.086,0.117-0.288,0.353-0.608l1.088-1.6   c0.533-0.747,0.917-1.28,1.152-1.601c0.234-0.32,0.426-0.66,0.576-1.023c0.148-0.363,0.224-0.629,0.224-0.801   c0-0.17-0.038-0.256-0.112-0.256c-0.075,0-0.165,0.043-0.271,0.129L10.871,18.963z M25.911,17.011c0.17,0,0.405,0.491,0.704,1.472   c0.298,0.981,0.501,2.251,0.607,3.809c0.064,0.746,0.149,1.285,0.256,1.615c0.107,0.33,0.16,0.592,0.16,0.784   s-0.069,0.336-0.208,0.433c-0.139,0.096-0.64,0.196-1.504,0.304c-0.863,0.106-1.647,0.159-2.352,0.159l-2.176-0.063l-1.568,0.063   c-0.448,0-1.115-0.549-2-1.647c-0.886-1.099-1.328-2.341-1.328-3.728c0-0.684,0.123-1.516,0.368-2.496   c0.245-0.981,0.368-1.643,0.368-1.984c0-0.341-0.017-0.603-0.048-0.784c-0.032-0.181-0.049-0.341-0.049-0.48   c0-0.138,0.032-0.304,0.097-0.496c0.319-0.896,0.479-2.187,0.479-3.872c0-0.469-0.016-0.848-0.048-1.136s-0.048-0.576-0.048-0.864   s0.042-0.645,0.128-1.072c0.085-0.426,0.128-0.842,0.128-1.248l-0.032-0.544c0-0.192,0.097-0.288,0.288-0.288   c0.192,0,0.598,0.048,1.216,0.144c0.619,0.096,0.929,0.251,0.929,0.464c0,0.085-0.054,0.192-0.16,0.32   c-0.32,0.405-0.587,1.163-0.8,2.272c-0.214,1.109-0.32,2.123-0.32,3.04c0,0.149,0.048,0.224,0.144,0.224   c0.097,0,0.182-0.042,0.257-0.128c0.074-0.085,0.266-0.283,0.575-0.592c0.31-0.309,0.598-0.57,0.864-0.784s0.49-0.32,0.672-0.32   s0.421,0.208,0.721,0.624c0.298,0.416,0.447,0.699,0.447,0.848c0,0.149-0.128,0.24-0.384,0.272   c-0.256,0.032-0.528,0.139-0.816,0.32c-0.287,0.182-0.661,0.454-1.119,0.816c-0.459,0.363-0.721,0.587-0.784,0.672   c-0.064,0.085-0.097,0.197-0.097,0.336s0.235,0.357,0.704,0.656c0.47,0.299,0.901,0.501,1.296,0.608   c0.395,0.107,0.651,0.235,0.769,0.384c0.117,0.149,0.133,0.357,0.048,0.624c-0.085,0.268-0.144,0.598-0.176,0.992   s-0.123,0.71-0.272,0.944c-0.149,0.235-0.299,0.353-0.447,0.353c-0.15,0-0.31-0.086-0.48-0.257   c-1.195-1.259-1.931-1.888-2.208-1.888c-0.085,0-0.149,0.059-0.192,0.176s-0.096,0.48-0.159,1.088   c-0.064,0.608-0.097,1.158-0.097,1.648c0,1.535,0.357,2.539,1.072,3.008s1.408,0.704,2.08,0.704s1.392-0.101,2.16-0.304   c0.768-0.203,1.285-0.587,1.552-1.152c0.267-0.564,0.442-1.732,0.528-3.504C25.676,17.191,25.762,17.011,25.911,17.011z" stroke-width="1"/>
</g>
</svg>