<svg xmlns="http://www.w3.org/2000/svg" xmlns:xlink="http://www.w3.org/1999/xlink" version="1.1" id="图层_1" x="0px" y="0px" width="27.270998001098633" height="28.10601043701172" viewBox="2.4500021934509277 1.1409900188446045 27.270998001098633 28.10601043701172" style="enable-background:new 0 0 30 30;" xml:space="preserve">
  <g>
    <g>
      <path style="fill:#0000FF;" d="M17.798,22.285c0,1.215,0.064,1.908,0.192,2.08c0.128,0.17,0.65,0.404,1.567,0.703&#13;&#10;&#9;&#9;s1.749,0.48,2.496,0.545c1.323,0.084,2.849,0.287,4.576,0.607c1.729,0.32,2.592,0.635,2.592,0.943c0,0.31-0.575,0.651-1.728,1.024&#13;&#10;&#9;&#9;s-2.539,0.56-4.16,0.56l-1.248-0.031l-0.8,0.031c-0.512,0-0.859-0.17-1.04-0.512c-0.182-0.342-0.416-0.656-0.704-0.943&#13;&#10;&#9;&#9;c-0.288-0.288-0.651-0.571-1.088-0.848c-0.438-0.278-0.918-0.518-1.44-0.721s-1.387-0.379-2.592-0.527&#13;&#10;&#9;&#9;c-1.205-0.15-2.619-0.294-4.24-0.433c-1.621-0.14-2.768-0.208-3.439-0.208s-1.307,0.17-1.904,0.512&#13;&#10;&#9;&#9;c-0.213,0.129-0.432,0.192-0.656,0.192s-0.486-0.229-0.784-0.688c-0.299-0.459-0.448-0.783-0.448-0.976s0.042-0.304,0.128-0.336&#13;&#10;&#9;&#9;c0.085-0.032,0.378-0.048,0.88-0.048c0.501,0,1.205-0.096,2.112-0.288c0.906-0.192,1.359-0.437,1.359-0.736&#13;&#10;&#9;&#9;c0-0.128-0.123-0.399-0.367-0.815c-0.246-0.416-0.502-0.981-0.769-1.696c-0.267-0.714-0.443-1.302-0.528-1.761&#13;&#10;&#9;&#9;c-0.085-0.458-0.128-0.896-0.128-1.312s-0.038-0.746-0.112-0.992c-0.075-0.245-0.112-0.416-0.112-0.512&#13;&#10;&#9;&#9;c0-0.096,0.032-0.16,0.096-0.192c0.064-0.032,0.277-0.048,0.64-0.048c0.362,0,0.826,0.096,1.392,0.288&#13;&#10;&#9;&#9;c0.565,0.192,0.848,0.373,0.848,0.544s-0.085,0.363-0.256,0.576c-0.533,0.661-0.8,1.323-0.8,1.984s0.24,1.376,0.72,2.144&#13;&#10;&#9;&#9;c0.48,0.768,0.912,1.334,1.296,1.696c0.385,0.362,0.886,0.565,1.505,0.608c1.258,0.063,2.848,0.373,4.768,0.928&#13;&#10;&#9;&#9;c0.149,0.043,0.271,0.064,0.368,0.064c0.096,0,0.16-0.08,0.191-0.24c0.032-0.16,0.049-0.635,0.049-1.424s-0.021-1.285-0.064-1.488&#13;&#10;&#9;&#9;s-0.128-0.305-0.256-0.305s-0.619,0.054-1.472,0.16c-0.854,0.107-1.659,0.268-2.416,0.48c-0.758,0.213-1.2,0.32-1.328,0.32&#13;&#10;&#9;&#9;c-0.556,0-0.832-0.416-0.832-1.248c0-0.256,0.085-0.385,0.256-0.385c0.789-0.064,1.909-0.309,3.359-0.736&#13;&#10;&#9;&#9;c1.451-0.426,2.24-0.676,2.368-0.752c0.128-0.074,0.192-0.202,0.192-0.383c0-0.182-0.037-0.299-0.112-0.353s-0.24-0.08-0.496-0.08&#13;&#10;&#9;&#9;c-0.896,0-1.478,0.054-1.744,0.16s-0.453,0.159-0.56,0.159c-0.299,0-0.448-0.352-0.448-1.055c0-0.428,0.106-0.657,0.32-0.688&#13;&#10;&#9;&#9;c0.213-0.032,0.587-0.144,1.12-0.336c0.533-0.192,0.971-0.325,1.312-0.4c0.342-0.074,0.513-0.25,0.513-0.528&#13;&#10;&#9;&#9;c0-0.277-0.134-0.416-0.4-0.416s-0.592,0.043-0.976,0.128l-0.864,0.192c-0.277,0-0.432-0.101-0.464-0.304s-0.107-0.304-0.225-0.304&#13;&#10;&#9;&#9;s-0.245,0.112-0.384,0.336s-0.373,0.384-0.704,0.48c-0.331,0.096-0.843,0.144-1.536,0.144s-1.131-0.037-1.312-0.112&#13;&#10;&#9;&#9;c-0.182-0.075-0.272-0.181-0.272-0.32c0-0.138,0.049-0.245,0.145-0.32c0.096-0.075,0.618-0.368,1.567-0.88&#13;&#10;&#9;&#9;c0.949-0.512,1.638-0.896,2.064-1.152c0.427-0.256,1.024-0.8,1.792-1.632s1.152-1.365,1.152-1.6c0-0.128-0.166-0.277-0.496-0.448&#13;&#10;&#9;&#9;c-0.331-0.17-0.582-0.309-0.752-0.416c-0.171-0.106-0.348-0.16-0.528-0.16c-0.182,0-0.416,0.112-0.704,0.336&#13;&#10;&#9;&#9;c-0.288,0.224-0.464,0.379-0.528,0.464c-0.213,0.235-0.389,0.352-0.527,0.352c-0.14,0-0.262-0.048-0.368-0.144&#13;&#10;&#9;&#9;c-0.107-0.096-0.16-0.208-0.16-0.336c0-0.256,0.293-0.896,0.88-1.92s1.339-2.096,2.256-3.216s1.558-1.68,1.92-1.68&#13;&#10;&#9;&#9;c0.192,0,0.459,0.144,0.801,0.432c0.341,0.288,0.544,0.496,0.607,0.624c0.192,0.448,0.384,0.704,0.576,0.768&#13;&#10;&#9;&#9;c0.555,0.149,1.12,0.421,1.696,0.816c0.576,0.395,0.864,0.688,0.864,0.88c0,0.192-0.123,0.368-0.368,0.528&#13;&#10;&#9;&#9;c-0.246,0.16-0.667,0.587-1.265,1.28c-0.597,0.693-0.896,1.179-0.896,1.456c0,0.107,0.059,0.219,0.176,0.336&#13;&#10;&#9;&#9;c0.117,0.118,0.512,0.368,1.184,0.752c0.673,0.384,1.265,0.672,1.776,0.864c2.325,0.854,3.738,1.397,4.24,1.632&#13;&#10;&#9;&#9;c0.501,0.235,0.752,0.438,0.752,0.608c0,0.171-0.336,0.326-1.008,0.464c-0.672,0.139-1.494,0.208-2.464,0.208&#13;&#10;&#9;&#9;c-0.972,0-1.611-0.074-1.92-0.224c-0.31-0.149-0.502-0.378-0.576-0.688c-0.075-0.309-0.353-0.73-0.832-1.264&#13;&#10;&#9;&#9;c-0.48-0.533-0.992-0.933-1.536-1.2c-0.544-0.266-0.892-0.4-1.04-0.4c-0.149,0-0.32,0.107-0.512,0.32&#13;&#10;&#9;&#9;c-0.662,0.704-1.44,1.483-2.336,2.336c-0.129,0.128-0.192,0.229-0.192,0.304c0,0.075,0.117,0.112,0.352,0.112&#13;&#10;&#9;&#9;c0.235,0,0.518-0.059,0.849-0.176c0.33-0.117,0.506-0.336,0.527-0.656c0.085-0.555,0.513-0.832,1.28-0.832&#13;&#10;&#9;&#9;c0.341,0,0.549,0.085,0.624,0.256c0.074,0.171,0.154,0.283,0.24,0.336c0.085,0.054,0.282,0.096,0.592,0.128&#13;&#10;&#9;&#9;c0.309,0.032,0.538,0.123,0.688,0.272c0.148,0.15,0.224,0.411,0.224,0.784c0,0.374-0.182,0.624-0.544,0.752&#13;&#10;&#9;&#9;c-0.619,0.235-0.928,0.427-0.928,0.576c0,0.341,0.116,0.501,0.352,0.48c0.234-0.021,0.581-0.032,1.04-0.032&#13;&#10;&#9;&#9;s0.688,0.182,0.688,0.544c0,0.363-0.049,0.614-0.145,0.752c-0.096,0.139-0.363,0.283-0.8,0.433&#13;&#10;&#9;&#9;c-0.438,0.148-0.726,0.299-0.864,0.447c-0.139,0.15-0.208,0.374-0.208,0.672c0,0.235,0.187,0.353,0.561,0.353&#13;&#10;&#9;&#9;c0.373,0,0.848-0.042,1.424-0.128l1.279-0.16c0.277,0,0.545,0.262,0.801,0.784s0.384,0.976,0.384,1.36&#13;&#10;&#9;&#9;c0,0.383-0.16,0.576-0.48,0.576c-0.128,0-0.267-0.021-0.416-0.064s-0.757-0.064-1.823-0.064c-1.067,0-1.691,0.049-1.872,0.145&#13;&#10;&#9;&#9;C17.889,20.221,17.798,20.941,17.798,22.285z M5.67,6.925c0.064,0,0.139,0.048,0.224,0.144C5.979,7.165,6.16,7.304,6.438,7.485&#13;&#10;&#9;&#9;c0.276,0.181,0.629,0.357,1.056,0.528c0.427,0.171,0.763,0.421,1.008,0.752C8.747,9.096,8.87,9.352,8.87,9.533&#13;&#10;&#9;&#9;c0,0.182-0.128,0.384-0.384,0.608s-0.721,0.336-1.393,0.336s-1.125-0.096-1.36-0.288C5.499,9.997,5.318,9.661,5.19,9.181&#13;&#10;&#9;&#9;S4.998,8.317,4.998,8.029s0.085-0.544,0.256-0.768C5.424,7.037,5.563,6.925,5.67,6.925z M16.774,7.053&#13;&#10;&#9;&#9;c0.148,0,0.33-0.245,0.544-0.736c0.213-0.491,0.319-0.816,0.319-0.976c0-0.16-0.059-0.288-0.176-0.384&#13;&#10;&#9;&#9;c-0.117-0.096-0.267-0.144-0.448-0.144c-0.181,0-0.411,0.134-0.688,0.4c-0.277,0.267-0.416,0.496-0.416,0.688&#13;&#10;&#9;&#9;c0,0.192,0.112,0.432,0.336,0.72S16.646,7.053,16.774,7.053z" stroke-width="1"/>
    </g>
    <g/>
    <g/>
    <g/>
    <g/>
    <g/>
    <g/>
    <g/>
    <g/>
    <g/>
    <g/>
    <g/>
    <g/>
    <g/>
    <g/>
    <g/>
  </g>
</svg>