<svg xmlns="http://www.w3.org/2000/svg" xmlns:xlink="http://www.w3.org/1999/xlink" version="1.1" id="图层_1" x="0px" y="0px" width="24.328001022338867" height="27.175996780395508" viewBox="0.9629998207092285 1.9830031394958496 24.328001022338867 27.175996780395508" enable-background="new 0 0 30 30" xml:space="preserve">
<g>
	<path fill="#0000FF" d="M17.879,7.57c0,0.15-0.063,0.31-0.192,0.48c-0.319,0.427-0.565,1.232-0.735,2.416   c-0.171,1.184-0.256,3.91-0.256,8.176c0,2.283,0.048,3.611,0.144,3.984s0.145,0.623,0.145,0.752c0,0.234-0.123,0.352-0.368,0.352   c-0.246,0-0.604-0.043-1.072-0.128c-0.47-0.085-0.773-0.181-0.912-0.288c-0.139-0.106-0.187-0.341-0.144-0.704   c0.106-0.769,0.16-1.487,0.16-2.159c0-0.673-0.027-1.318-0.08-1.937c-0.054-0.618-0.08-1.259-0.08-1.92l0.063-1.824   c0-0.106-0.043-0.16-0.128-0.16s-0.229,0.102-0.432,0.304c-0.203,0.203-0.396,0.304-0.576,0.304c-0.182,0-0.432-0.149-0.752-0.448   c-0.107-0.085-0.336-0.187-0.688-0.304c-0.352-0.117-0.607-0.176-0.768-0.176s-0.277,0.219-0.352,0.656   c-0.075,0.438-0.229,0.944-0.465,1.521c-0.234,0.576-0.661,1.408-1.279,2.496c-0.619,1.088-0.929,2.059-0.929,2.912   c0,0.319-0.053,0.543-0.159,0.672C7.916,22.674,7.436,23,6.583,23.522c-0.854,0.522-1.638,0.907-2.352,1.151   c-0.715,0.246-1.355,0.369-1.92,0.369c-0.565,0-0.848-0.107-0.848-0.32c0-0.128,0.075-0.235,0.224-0.32   c0.149-0.086,0.357-0.229,0.624-0.432c0.267-0.203,0.56-0.459,0.88-0.768c0.32-0.31,0.747-0.667,1.28-1.072   c0.533-0.405,0.917-0.725,1.152-0.961c0.234-0.234,0.496-0.602,0.784-1.104c0.288-0.501,0.629-1.034,1.023-1.6   s0.779-1.317,1.152-2.256c0.373-0.939,0.56-1.813,0.56-2.625c0-0.811,0.017-2.176,0.049-4.096c0.031-1.92,0.063-2.981,0.096-3.184   s0.122-0.352,0.271-0.448c0.149-0.096,0.385-0.144,0.704-0.144c0.661,0,1.152,0.075,1.473,0.224   c0.319,0.149,0.479,0.272,0.479,0.368c0,0.096-0.117,0.192-0.352,0.288c-0.235,0.096-0.396,0.347-0.48,0.752   s-0.128,1.088-0.128,2.048l-0.032,2.624c0,0.171,0.026,0.283,0.08,0.336c0.054,0.054,0.208,0.08,0.464,0.08   c0.257,0,0.576-0.069,0.96-0.208c0.385-0.139,0.789-0.341,1.217-0.608c0.426-0.267,0.692-0.464,0.8-0.592   c0.106-0.128,0.176-0.25,0.208-0.368s0.101-0.725,0.208-1.824c0.106-1.099,0.187-1.733,0.24-1.904   c0.053-0.17,0.196-0.256,0.432-0.256c0.192,0,0.581,0.096,1.168,0.288S17.879,7.357,17.879,7.57z M7.703,12.723   c0,0.299-0.145,0.693-0.433,1.184c-0.288,0.491-0.469,0.944-0.543,1.36c-0.075,0.416-0.24,0.726-0.496,0.928   c-0.256,0.203-0.534,0.304-0.832,0.304c-0.299,0-0.72-0.244-1.264-0.735c-0.544-0.491-0.816-0.816-0.816-0.976   c0-0.16,0.059-0.304,0.176-0.432c0.117-0.128,0.448-0.384,0.992-0.768c0.544-0.384,1.072-0.73,1.584-1.04   c0.512-0.309,0.864-0.464,1.056-0.464C7.511,12.083,7.703,12.296,7.703,12.723z M23.991,12.626c0,2.134,0.08,4.87,0.24,8.208   c0.159,3.339,0.287,5.339,0.384,6c0.096,0.662,0.144,1.057,0.144,1.184c0,0.428-0.182,0.641-0.544,0.641   c-0.363,0-0.88-0.145-1.552-0.432s-1.008-0.486-1.008-0.592c0-0.107,0.08-0.219,0.239-0.336c0.16-0.117,0.277-0.283,0.353-0.496   c0.074-0.214,0.112-0.619,0.112-1.217c0-2.218-0.134-4.164-0.4-5.84c-0.267-1.674-0.475-3.322-0.624-4.943   c-0.021-0.256-0.075-0.384-0.16-0.384s-0.149,0.021-0.191,0.064c-0.619,0.619-1.04,0.928-1.265,0.928   c-0.224,0-0.459-0.219-0.704-0.656c-0.245-0.437-0.581-0.826-1.008-1.168c-0.234-0.213-0.352-0.453-0.352-0.72   s0.25-0.416,0.752-0.448c0.501-0.032,1.002-0.176,1.504-0.432c0.501-0.256,0.858-0.485,1.072-0.688   c0.213-0.202,0.33-0.672,0.352-1.408c0.021-0.736,0.112-1.904,0.272-3.504c0.159-1.6,0.239-2.613,0.239-3.04   s0.032-0.677,0.097-0.752c0.063-0.075,0.202-0.112,0.416-0.112c0.213,0,0.612,0.064,1.199,0.192   c0.587,0.128,0.938,0.246,1.057,0.352c0.117,0.107,0.176,0.224,0.176,0.352s-0.048,0.272-0.144,0.432   c-0.097,0.16-0.16,0.357-0.192,0.592c-0.032,0.235-0.048,0.672-0.048,1.312c0,1.259-0.118,2.88-0.353,4.864   C24.012,10.941,23.991,11.624,23.991,12.626z" stroke-width="1"/>
</g>
</svg>