<svg xmlns="http://www.w3.org/2000/svg" xmlns:xlink="http://www.w3.org/1999/xlink" version="1.1" id="图层_1" x="0px" y="0px" width="23.880998611450195" height="26.85599708557129" viewBox="2.2420005798339844 1.3420006036758423 23.880998611450195 26.85599708557129" enable-background="new 0 0 30 30" xml:space="preserve">
<g>
	<path fill="#0000FF" d="M9.527,14.834c0,2.24-0.561,4.572-1.681,6.992c-1.12,2.422-2.042,3.633-2.768,3.633   c-0.363,0-0.843-0.598-1.44-1.793c-0.598-1.193-0.896-2.976-0.896-5.344c0-0.896,0.133-2.01,0.4-3.344   c0.267-1.333,0.522-2.218,0.768-2.656c0.245-0.437,0.49-0.656,0.736-0.656c0.245,0,0.586,0.102,1.024,0.304   c0.437,0.203,0.656,0.421,0.656,0.656c0,0.235-0.085,0.48-0.256,0.736c-0.747,1.152-1.317,2.257-1.712,3.312   c-0.395,1.057-0.592,2.049-0.592,2.977s0.074,1.67,0.224,2.225c0.149,0.555,0.368,0.832,0.656,0.832s0.8-0.449,1.536-1.345   c0.736-0.896,1.659-3.05,2.768-6.464c0.106-0.341,0.229-0.512,0.368-0.512C9.457,14.387,9.527,14.536,9.527,14.834z M6.743,4.435   c0.106,0,0.213,0.107,0.32,0.32C7.17,4.968,7.457,5.219,7.927,5.506c0.469,0.288,0.849,0.667,1.137,1.136   c0.287,0.469,0.432,0.88,0.432,1.232S9.394,8.499,9.191,8.69C8.988,8.882,8.737,8.979,8.439,8.979c-0.3,0-0.678-0.09-1.137-0.272   C6.844,8.525,6.551,8.35,6.423,8.179S6.199,7.667,6.135,7.154C6.071,6.643,6.039,6.2,6.039,5.827c0-0.373,0.074-0.699,0.224-0.976   C6.412,4.574,6.572,4.435,6.743,4.435z M25.623,16.914c0,0.107-0.069,0.283-0.208,0.528s-0.24,0.614-0.304,1.104   c-0.171,1.216-0.459,2.619-0.864,4.207c-0.405,1.59-0.726,2.646-0.96,3.168c-0.235,0.523-0.374,0.949-0.416,1.281   c-0.043,0.33-0.171,0.496-0.384,0.496c-0.086,0-0.208-0.043-0.368-0.129s-0.357-0.148-0.592-0.191   c-0.726-0.15-1.664-0.592-2.816-1.328s-1.728-1.18-1.728-1.328c0-0.149,0.128-0.191,0.384-0.128   c0.896,0.213,1.68,0.319,2.352,0.319s1.125-0.068,1.36-0.207c0.234-0.14,0.442-0.486,0.624-1.041   c0.181-0.555,0.347-1.412,0.496-2.576c0.148-1.162,0.224-2.053,0.224-2.672c0-1.344-0.896-2.016-2.688-2.016   c-0.214,0-0.353,0.032-0.416,0.096c-0.064,0.064-0.155,0.268-0.272,0.608c-0.117,0.342-0.176,0.603-0.176,0.784   s0.148,0.373,0.448,0.576c0.298,0.203,0.757,0.443,1.376,0.72c0.447,0.214,0.672,0.47,0.672,0.769s-0.069,0.698-0.208,1.199   c-0.14,0.502-0.304,0.752-0.496,0.752c-0.128,0-0.357-0.176-0.688-0.527c-0.331-0.353-0.667-0.641-1.008-0.864   s-0.592-0.336-0.752-0.336s-0.304,0.117-0.432,0.353c-0.384,0.66-1.003,1.205-1.856,1.631c-0.854,0.428-1.354,0.641-1.504,0.641   s-0.224-0.043-0.224-0.129c0-0.084,0.096-0.234,0.288-0.447c0.853-0.98,1.279-1.568,1.279-1.76c0-0.192-0.299-0.288-0.896-0.288   c-0.32,0-0.565,0.085-0.736,0.256c-0.683,0.769-1.482,1.302-2.399,1.601c-0.257,0.085-0.385,0.213-0.385,0.383   c0,0.727,0.021,1.228,0.064,1.504c0.042,0.277,0.063,0.47,0.063,0.576c0,0.427-0.213,0.641-0.64,0.641   c-0.171,0-0.31-0.092-0.416-0.271c-0.106-0.182-0.256-0.912-0.448-2.193c-0.191-1.279-0.288-2.293-0.288-3.039   s0.037-1.227,0.112-1.44c0.074-0.213,0.192-0.368,0.353-0.464c0.159-0.096,0.645-0.293,1.456-0.592   c0.811-0.299,1.37-0.496,1.68-0.592c0.309-0.096,0.501-0.229,0.576-0.4c0.074-0.17,0.111-0.564,0.111-1.184   c0-0.341-0.181-0.512-0.544-0.512c-0.063,0-0.341,0.037-0.832,0.112c-0.49,0.075-0.837,0.149-1.04,0.224   c-0.202,0.075-0.389,0.112-0.56,0.112c-0.363,0-0.544-0.267-0.544-0.8c0-0.32,0.139-0.48,0.416-0.48   c0.148,0,0.666-0.17,1.552-0.512c0.885-0.341,1.328-0.619,1.328-0.832c0-0.042-0.069-0.325-0.208-0.848s-0.235-0.827-0.288-0.912   c-0.054-0.085-0.134-0.128-0.24-0.128s-0.533,0.203-1.279,0.608c-0.3,0.192-0.55,0.288-0.752,0.288c-0.203,0-0.443-0.24-0.721-0.72   S9.847,9.73,9.847,9.506c0-0.224,0.177-0.336,0.528-0.336s0.805-0.085,1.36-0.256c0.554-0.17,0.88-0.309,0.976-0.416   c0.096-0.106,0.122-0.357,0.08-0.752c-0.043-0.395-0.064-1.243-0.064-2.544c0-0.256,0.08-0.475,0.24-0.656   c0.16-0.181,0.314-0.272,0.464-0.272s0.448,0.102,0.896,0.304C14.775,4.782,14.999,5,14.999,5.234c0,0.235-0.021,0.427-0.064,0.576   c-0.043,0.149-0.085,0.507-0.128,1.072c-0.043,0.566-0.063,0.88-0.063,0.944c0,0.341,0.128,0.512,0.384,0.512   c0.106,0,0.538-0.059,1.296-0.176c0.757-0.117,1.194-0.213,1.313-0.288c0.116-0.075,0.239-0.368,0.367-0.88   c0.129-0.512,0.357-1.354,0.688-2.528c0.33-1.173,0.533-1.85,0.608-2.032c0.074-0.181,0.176-0.325,0.304-0.432   c0.128-0.106,0.271-0.16,0.432-0.16s0.395,0.102,0.704,0.304c0.31,0.203,0.464,0.4,0.464,0.592c0,0.192-0.063,0.438-0.191,0.736   s-0.3,0.891-0.513,1.776c-0.213,0.886-0.319,1.392-0.319,1.52c0,0.235,0.144,0.352,0.432,0.352s0.677-0.053,1.168-0.16   c0.49-0.106,0.778-0.192,0.864-0.256c0.085-0.064,0.202-0.096,0.352-0.096s0.293,0.155,0.433,0.464   c0.138,0.309,0.208,0.571,0.208,0.784c0,0.213-0.086,0.368-0.257,0.464c-0.171,0.096-0.592,0.203-1.264,0.32   c-0.672,0.118-1.2,0.235-1.584,0.352s-0.65,0.246-0.8,0.384c-0.149,0.139-0.299,0.416-0.448,0.832s-0.224,0.683-0.224,0.8   s0.059,0.187,0.176,0.208c0.117,0.021,0.57,0.032,1.36,0.032c0.789,0,1.274-0.016,1.456-0.048c0.181-0.032,0.336-0.048,0.464-0.048   c0.341,0,0.57,0.224,0.688,0.672c0.117,0.448,0.176,0.752,0.176,0.912c0,0.16-0.053,0.288-0.159,0.384   c-0.107,0.096-0.363,0.144-0.769,0.144h-0.352c-0.299,0-0.693,0.021-1.185,0.064c-0.49,0.043-0.805,0.107-0.943,0.192   c-0.14,0.085-0.256,0.336-0.353,0.752c-0.096,0.416-0.144,0.678-0.144,0.784c0,0.107,0.042,0.197,0.128,0.272   c0.085,0.075,0.213,0.112,0.384,0.112h0.608c1.151,0,2.261,0.177,3.328,0.528C25.09,16.322,25.623,16.638,25.623,16.914z    M11.607,21.362c0.191,0,0.49-0.239,0.896-0.72s0.698-0.986,0.88-1.52s0.272-0.869,0.272-1.008s-0.075-0.209-0.225-0.209   s-0.453,0.15-0.912,0.448c-0.459,0.299-0.768,0.614-0.928,0.944s-0.24,0.869-0.24,1.615C11.351,21.213,11.436,21.362,11.607,21.362   z M15.479,11.922c0.129,0,0.379-0.069,0.753-0.208c0.372-0.138,0.66-0.474,0.863-1.008c0.203-0.533,0.305-0.864,0.305-0.992   s-0.049-0.213-0.145-0.256c-0.096-0.042-0.331-0.064-0.704-0.064s-0.763,0.043-1.168,0.128c-0.405,0.085-0.607,0.31-0.607,0.672   c0,0.085,0.026,0.347,0.08,0.784c0.053,0.438,0.128,0.704,0.224,0.8C15.175,11.875,15.308,11.922,15.479,11.922z M16.567,18.931   c0.063,0,0.116-0.017,0.159-0.048c0.043-0.032,0.182-0.347,0.416-0.944c0.235-0.597,0.353-0.965,0.353-1.104   c0-0.139-0.075-0.207-0.225-0.207c-0.362,0-0.795,0.085-1.296,0.256s-0.752,0.49-0.752,0.959c0,0.3,0.171,0.556,0.513,0.769   C16.076,18.824,16.354,18.931,16.567,18.931z M15.991,15.826c0.021,0,0.276-0.031,0.768-0.096c0.49-0.064,0.763-0.106,0.816-0.128   c0.053-0.021,0.122-0.091,0.208-0.208c0.085-0.117,0.128-0.331,0.128-0.64c0-0.309-0.027-0.544-0.08-0.704   c-0.054-0.16-0.166-0.24-0.336-0.24c-0.171,0-0.405,0.027-0.704,0.08s-0.496,0.128-0.592,0.224   c-0.097,0.096-0.188,0.325-0.272,0.688s-0.128,0.624-0.128,0.783C15.799,15.746,15.863,15.826,15.991,15.826z" stroke-width="1"/>
</g>
</svg>