<svg xmlns="http://www.w3.org/2000/svg" xmlns:xlink="http://www.w3.org/1999/xlink" version="1.1" id="图层_1" x="0px" y="0px" width="27.306001663208008" height="26.823999404907227" viewBox="0.1459999680519104 2.104999542236328 27.306001663208008 26.823999404907227" style="enable-background:new 0 0 30 30;" xml:space="preserve">
  <g>
    <g>
      <path style="fill:#0000FF;" d="M13.35,9.933c0,0.256-0.202,0.544-0.607,0.864c-0.405,0.32-0.688,0.88-0.849,1.68&#13;&#10;&#9;&#9;c-0.159,0.8-0.677,2-1.552,3.6c-0.063,0.129-0.096,0.268-0.096,0.416c0,0.15,0.037,0.294,0.112,0.433&#13;&#10;&#9;&#9;c0.074,0.139,0.314,0.384,0.72,0.735c0.405,0.353,0.64,0.539,0.704,0.561c0.298,0.086,0.448,0.277,0.448,0.576&#13;&#10;&#9;&#9;c0,0.086-0.049,0.24-0.145,0.464s-0.144,0.421-0.144,0.592c0,0.875-0.14,1.451-0.416,1.728c-0.278,0.278-0.454,0.496-0.528,0.656&#13;&#10;&#9;&#9;c-0.075,0.16-0.165,0.24-0.272,0.24c-0.171,0-0.362-0.271-0.575-0.816c-0.214-0.543-0.508-1.076-0.88-1.6&#13;&#10;&#9;&#9;c-0.374-0.522-0.619-0.826-0.736-0.912c-0.117-0.085-0.24-0.128-0.368-0.128s-0.245,0.032-0.352,0.097&#13;&#10;&#9;&#9;c-0.107,0.063-0.368,0.314-0.784,0.752s-0.715,0.799-0.896,1.088c-0.181,0.287-0.299,0.619-0.352,0.992&#13;&#10;&#9;&#9;c-0.054,0.373-0.166,0.607-0.336,0.703s-0.512,0.203-1.024,0.32C3.91,23.09,3.44,23.148,3.014,23.148&#13;&#10;&#9;&#9;c-0.427,0-0.928-0.08-1.504-0.24c-0.576-0.16-0.864-0.304-0.864-0.432s0.187-0.256,0.56-0.384c0.373-0.128,0.992-0.421,1.856-0.88&#13;&#10;&#9;&#9;s1.69-1.109,2.48-1.952c0.789-0.843,1.242-1.354,1.36-1.536c0.116-0.182,0.176-0.362,0.176-0.544c0-0.181-0.155-0.597-0.464-1.248&#13;&#10;&#9;&#9;c-0.31-0.65-0.464-1.088-0.464-1.312s0.096-0.336,0.288-0.336c0.191,0,0.692,0.246,1.504,0.736&#13;&#10;&#9;&#9;c0.128,0.085,0.256,0.128,0.384,0.128c0.341,0,0.613-0.325,0.815-0.976c0.203-0.651,0.305-1.291,0.305-1.92&#13;&#10;&#9;&#9;s-0.225-0.944-0.672-0.944c-0.704,0-1.995,0.907-3.873,2.72c-0.171,0.171-0.325,0.256-0.464,0.256c-0.139,0-0.277-0.133-0.416-0.4&#13;&#10;&#9;&#9;c-0.139-0.267-0.315-0.549-0.528-0.848c-0.213-0.298-0.39-0.512-0.528-0.64c-0.139-0.128-0.208-0.272-0.208-0.432&#13;&#10;&#9;&#9;c0-0.16,0.208-0.277,0.624-0.352s1.077-0.304,1.984-0.688c0.906-0.384,1.669-0.757,2.288-1.12c1.088-0.64,2.25-0.96,3.487-0.96&#13;&#10;&#9;&#9;c0.619,0,1.142,0.118,1.568,0.352C13.137,9.432,13.35,9.677,13.35,9.933z M18.15,13.741c-0.491-0.021-1.147,0.059-1.969,0.24&#13;&#10;&#9;&#9;c-0.821,0.182-1.413,0.363-1.775,0.544c-0.363,0.181-0.592,0.272-0.688,0.272c-0.096,0-0.176-0.048-0.24-0.144&#13;&#10;&#9;&#9;c-0.063-0.096-0.133-0.357-0.207-0.784c-0.075-0.426-0.112-0.789-0.112-1.088c0-0.298,0.059-0.491,0.176-0.576&#13;&#10;&#9;&#9;c0.117-0.085,0.24-0.112,0.368-0.08c0.128,0.032,0.304,0.048,0.528,0.048c0.224,0,0.692-0.064,1.407-0.192&#13;&#10;&#9;&#9;c0.715-0.128,1.482-0.282,2.305-0.464c0.82-0.181,1.29-0.314,1.407-0.4c0.117-0.085,0.208-0.181,0.272-0.288&#13;&#10;&#9;&#9;c0.063-0.106,0.096-0.298,0.096-0.576V9.197l0.064-3.968l-0.064-2.176c0-0.298,0.069-0.448,0.208-0.448s0.57,0.091,1.296,0.272&#13;&#10;&#9;&#9;c0.726,0.182,1.12,0.299,1.185,0.352c0.063,0.054,0.096,0.128,0.096,0.224c0,0.096-0.021,0.198-0.063,0.304&#13;&#10;&#9;&#9;c-0.064,0.171-0.15,1.045-0.257,2.624s-0.159,2.763-0.159,3.552c0,0.149,0.058,0.267,0.176,0.352&#13;&#10;&#9;&#9;c0.117,0.085,0.25,0.107,0.399,0.064c1.195-0.298,1.974-0.448,2.336-0.448c0.363,0,0.63,0.171,0.801,0.512&#13;&#10;&#9;&#9;c0.17,0.342,0.522,0.896,1.056,1.664c0.106,0.149,0.16,0.299,0.16,0.448c0,0.363-0.288,0.523-0.864,0.48&#13;&#10;&#9;&#9;c-0.235-0.021-0.571-0.032-1.008-0.032c-0.438,0-1.014,0.043-1.729,0.128c-0.715,0.085-1.125,0.203-1.231,0.352&#13;&#10;&#9;&#9;c-0.107,0.149-0.16,0.331-0.16,0.544V15.5c0.043,2.709,0.021,4.694-0.064,5.953c-0.085,1.259-0.128,2.314-0.128,3.168&#13;&#10;&#9;&#9;c0,0.853,0.043,1.572,0.128,2.16c0.086,0.586,0.129,1.008,0.129,1.264s-0.16,0.384-0.48,0.384s-1.211-0.235-2.672-0.704&#13;&#10;&#9;&#9;c-1.462-0.469-2.752-1.125-3.872-1.968s-1.68-1.36-1.68-1.552c0-0.064,0.063-0.096,0.191-0.096s0.277,0.021,0.448,0.063&#13;&#10;&#9;&#9;c2.304,0.64,3.781,0.96,4.432,0.96s1.125-0.225,1.425-0.672c0.298-0.448,0.447-1.301,0.447-2.561c0-0.512-0.059-1.316-0.176-2.416&#13;&#10;&#9;&#9;c-0.117-1.098-0.208-2.789-0.271-5.072c0-0.298-0.043-0.485-0.129-0.56c-0.085-0.074-0.319-0.112-0.703-0.112H18.15z&#13;&#10;&#9;&#9; M18.022,17.037c0,0.17-0.097,0.299-0.288,0.384c-0.406,0.171-0.752,0.379-1.04,0.624s-0.693,0.533-1.217,0.863&#13;&#10;&#9;&#9;c-0.522,0.332-0.869,0.496-1.039,0.496c-0.172,0-0.257-0.047-0.257-0.144s0.011-0.177,0.032-0.24&#13;&#10;&#9;&#9;c0.085-0.192,0.256-0.65,0.512-1.376c0.257-0.725,0.405-1.184,0.448-1.376c0.106-0.426,0.293-0.64,0.561-0.64&#13;&#10;&#9;&#9;c0.267,0,0.714,0.144,1.344,0.432C17.707,16.349,18.022,16.674,18.022,17.037z" stroke-width="1"/>
    </g>
    <g/>
    <g/>
    <g/>
    <g/>
    <g/>
    <g/>
    <g/>
    <g/>
    <g/>
    <g/>
    <g/>
    <g/>
    <g/>
    <g/>
    <g/>
  </g>
</svg>