<svg xmlns="http://www.w3.org/2000/svg" xmlns:xlink="http://www.w3.org/1999/xlink" version="1.1" id="图层_1" x="0px" y="0px" width="25.287002563476562" height="23.142000198364258" viewBox="1.4439992904663086 3.677999973297119 25.287002563476562 23.142000198364258" enable-background="new 0 0 30 30" xml:space="preserve">
<g>
	<path fill="#0000FF" d="M26.231,10.258c0,0.576-0.182,0.864-0.545,0.864c-0.149,0-0.384-0.037-0.703-0.112   c-0.32-0.075-1.024-0.139-2.112-0.192c-1.088-0.053-1.798-0.08-2.128-0.08c-0.331,0-0.582,0.038-0.752,0.112   c-0.171,0.075-0.31,0.272-0.416,0.592c-0.107,0.32-0.16,0.672-0.16,1.056l0.063,1.216c0,0.406-0.059,0.694-0.176,0.864   c-0.117,0.171-0.373,0.267-0.768,0.288c-0.396,0.021-1.109,0.102-2.145,0.24c-1.034,0.139-1.792,0.262-2.271,0.368   c-0.48,0.107-1.008,0.197-1.584,0.271c-0.576,0.075-0.977,0.32-1.2,0.736s-0.336,0.758-0.336,1.023c0,0.268,0.096,0.4,0.288,0.4   c0.191,0,0.794-0.128,1.808-0.384s1.974-0.453,2.88-0.592c0.907-0.139,1.809-0.208,2.704-0.208c0.896,0,1.568,0.123,2.017,0.367   c0.447,0.246,0.917,0.556,1.407,0.929c0.491,0.374,0.736,0.693,0.736,0.96c0,0.268-0.134,0.507-0.399,0.721   c-0.268,0.213-0.641,0.811-1.12,1.791c-0.48,0.982-0.747,1.809-0.801,2.48c-0.053,0.672-0.149,1.088-0.287,1.248   c-0.14,0.16-0.315,0.24-0.528,0.24c-0.214,0-0.464-0.021-0.752-0.064s-0.613-0.064-0.977-0.064c-0.362,0-0.752,0.069-1.168,0.209   c-0.416,0.139-0.773,0.207-1.071,0.207c-0.3,0-0.662,0.053-1.088,0.16c-0.428,0.107-0.716,0.203-0.864,0.288   c-0.149,0.085-0.288,0.128-0.416,0.128s-0.262-0.133-0.4-0.4c-0.139-0.266-0.544-0.815-1.216-1.647s-1.189-1.78-1.552-2.848   c-0.086-0.277-0.219-0.416-0.4-0.416s-0.357,0.075-0.528,0.224c-0.896,0.811-1.803,1.456-2.72,1.936   c-0.917,0.48-1.707,0.721-2.368,0.721c-0.278,0-0.416-0.08-0.416-0.24s0.181-0.41,0.544-0.752c1.771-1.643,2.88-2.736,3.328-3.279   c0.448-0.545,0.886-1.146,1.313-1.809c0.427-0.661,0.64-1.141,0.64-1.439s-0.075-0.428-0.224-0.385   c-0.149,0.043-0.268,0.064-0.353,0.064c-0.234,0-0.438-0.209-0.607-0.624c-0.171-0.416-0.256-0.731-0.256-0.944   c0-0.426,0.267-0.672,0.8-0.736c0.725-0.106,1.2-0.203,1.424-0.288c0.224-0.085,0.395-0.256,0.512-0.512   c0.117-0.256,0.177-0.544,0.177-0.864s-0.268-0.437-0.801-0.352c-0.533,0.085-1.109,0.149-1.728,0.192   c-0.619,0.043-1.456,0.229-2.512,0.56c-1.056,0.331-1.755,0.629-2.096,0.896c-0.341,0.267-0.571,0.4-0.688,0.4   s-0.283-0.176-0.496-0.528c-0.214-0.352-0.4-0.619-0.56-0.8c-0.16-0.181-0.24-0.357-0.24-0.528c0-0.405,0.288-0.629,0.864-0.672   c0.917-0.085,2.154-0.331,3.712-0.736l3.616-0.96c0.875-0.235,1.35-0.405,1.424-0.512c0.075-0.106,0.112-0.32,0.112-0.64   c0-0.448-0.214-0.672-0.64-0.672c-0.235,0-0.464,0.059-0.688,0.176c-0.224,0.117-0.399,0.176-0.527,0.176   c-0.342,0-0.624-0.272-0.849-0.816C8.743,6.723,8.631,6.344,8.631,6.13c0-0.213,0.08-0.368,0.24-0.464s0.442-0.154,0.848-0.176   c0.405-0.021,1.632-0.245,3.681-0.672c2.048-0.426,3.563-0.64,4.544-0.64c0.98,0,1.872,0.166,2.672,0.496   c0.8,0.331,1.2,0.688,1.2,1.072c0,0.235-0.134,0.491-0.4,0.768s-0.4,0.544-0.4,0.8s0.049,0.432,0.145,0.528   c0.096,0.096,0.336,0.139,0.72,0.128s0.65-0.005,0.8,0.016c0.149,0.021,0.373,0.032,0.672,0.032l1.568-0.096   c0.213,0,0.379,0.048,0.496,0.144c0.117,0.096,0.282,0.384,0.496,0.864C26.124,9.411,26.231,9.854,26.231,10.258z M14.327,22.994   c0.49,0,1.146-0.117,1.968-0.352s1.424-0.693,1.808-1.376c0.385-0.683,0.576-1.216,0.576-1.601c0-0.703-0.479-1.056-1.439-1.056   c-0.598,0-1.339,0.155-2.225,0.464c-0.885,0.31-1.478,0.604-1.775,0.881c-0.299,0.277-0.448,0.672-0.448,1.184   s0.122,0.949,0.368,1.313C13.404,22.813,13.794,22.994,14.327,22.994z M13.559,12.754c0.085,0,0.576-0.09,1.473-0.272   c0.896-0.181,1.424-0.437,1.584-0.768c0.16-0.331,0.24-0.576,0.24-0.736s-0.118-0.24-0.353-0.24c-0.235,0-0.709,0.048-1.424,0.144   c-0.715,0.096-1.152,0.182-1.313,0.256c-0.159,0.075-0.299,0.251-0.416,0.528c-0.117,0.277-0.176,0.528-0.176,0.752   S13.303,12.754,13.559,12.754z M14.391,8.563c0.128,0,0.336-0.026,0.624-0.08c0.288-0.053,0.693-0.106,1.217-0.16   c0.522-0.053,0.853-0.117,0.991-0.192c0.139-0.074,0.262-0.229,0.368-0.464c0.106-0.234,0.16-0.437,0.16-0.608   c0-0.491-0.416-0.736-1.248-0.736c-0.448,0-0.981,0.128-1.6,0.384c-0.619,0.256-0.929,0.726-0.929,1.408   C13.975,8.414,14.113,8.563,14.391,8.563z" stroke-width="1"/>
</g>
</svg>