<svg xmlns="http://www.w3.org/2000/svg" xmlns:xlink="http://www.w3.org/1999/xlink" version="1.1" id="图层_1" x="0px" y="0px" width="25.064001083374023" height="26.56899642944336" viewBox="2.545999526977539 1.0790026187896729 25.064001083374023 26.56899642944336" style="enable-background:new 0 0 30 30;" xml:space="preserve">
  <g>
    <g>
      <path style="fill:#0000FF;" d="M22.534,6.125c0.213,0,0.469,0.171,0.768,0.512c0.299,0.341,0.448,0.667,0.448,0.976&#13;&#10;&#9;&#9;c0,0.31-0.165,0.539-0.496,0.688c-0.331,0.149-0.779,0.4-1.344,0.752c-0.565,0.352-1.264,0.667-2.096,0.944&#13;&#10;&#9;&#9;c-0.278,0.085-0.48,0.24-0.608,0.464c-0.128,0.224-0.192,0.432-0.192,0.624c0,0.192,0.059,0.347,0.177,0.464&#13;&#10;&#9;&#9;c0.116,0.117,0.437,0.293,0.96,0.528c0.522,0.235,0.906,0.443,1.151,0.624c0.245,0.182,0.608,0.347,1.088,0.496&#13;&#10;&#9;&#9;c0.48,0.149,0.784,0.299,0.912,0.448c0.128,0.15,0.225,0.395,0.288,0.736c0.064,0.341,0.096,0.693,0.096,1.056&#13;&#10;&#9;&#9;c0,0.363-0.111,0.763-0.336,1.2c-0.224,0.438-0.485,0.656-0.783,0.656c-0.385,0-0.769-0.314-1.152-0.944&#13;&#10;&#9;&#9;c-0.384-0.629-0.8-1.157-1.248-1.584c-0.448-0.426-0.806-0.821-1.072-1.184c-0.267-0.362-0.603-0.544-1.008-0.544&#13;&#10;&#9;&#9;c-0.106,0-0.182,0.048-0.224,0.144c-0.043,0.096-0.069,0.235-0.08,0.416c-0.011,0.182-0.017,0.357-0.017,0.528&#13;&#10;&#9;&#9;c0,0.683-0.341,1.152-1.023,1.408c-0.32,0.128-0.693,0.32-1.12,0.577c-1.046,0.682-2.283,1.066-3.712,1.151&#13;&#10;&#9;&#9;c-0.214,0.021-0.353,0.06-0.416,0.112c-0.064,0.053-0.096,0.154-0.096,0.304c0,0.683-0.172,1.024-0.513,1.024&#13;&#10;&#9;&#9;c-0.128,0-0.379-0.049-0.752-0.145s-0.607-0.219-0.704-0.368c-0.096-0.149-0.219-0.256-0.367-0.319&#13;&#10;&#9;&#9;c-0.15-0.064-0.225-0.133-0.225-0.209c0-0.074,0.096-0.17,0.288-0.287s0.314-0.4,0.368-0.848c0.053-0.449,0.08-1.014,0.08-1.697&#13;&#10;&#9;&#9;c0-0.192-0.064-0.288-0.192-0.288s-0.491,0.187-1.088,0.56c-0.598,0.374-1.109,0.742-1.536,1.104&#13;&#10;&#9;&#9;c-0.939,0.832-1.632,1.248-2.08,1.248c-0.448,0-0.832-0.053-1.152-0.16c-0.32-0.107-0.48-0.251-0.48-0.432&#13;&#10;&#9;&#9;c0-0.182,0.229-0.433,0.688-0.752c0.458-0.321,0.885-0.571,1.28-0.752c0.395-0.181,0.784-0.469,1.167-0.864&#13;&#10;&#9;&#9;c0.385-0.395,0.811-0.752,1.28-1.072c0.469-0.32,0.816-0.661,1.04-1.024c0.224-0.362,0.336-0.618,0.336-0.768&#13;&#10;&#9;&#9;s-0.106-0.224-0.32-0.224c-0.213,0-0.613,0.096-1.199,0.288c-0.587,0.192-0.972,0.374-1.152,0.544&#13;&#10;&#9;&#9;c-0.182,0.171-0.491,0.395-0.928,0.672c-0.438,0.277-0.752,0.416-0.944,0.416s-0.416-0.234-0.672-0.704&#13;&#10;&#9;&#9;c-0.256-0.469-0.384-0.821-0.384-1.056c0-0.405,0.245-0.65,0.736-0.736c0.149-0.021,0.373-0.106,0.672-0.256&#13;&#10;&#9;&#9;c0.298-0.149,0.667-0.267,1.104-0.352c0.438-0.085,1.019-0.24,1.744-0.464c0.725-0.224,1.205-0.4,1.439-0.528&#13;&#10;&#9;&#9;c0.235-0.128,0.353-0.288,0.353-0.48c0-0.405-0.16-0.608-0.48-0.608c-0.085,0-0.352,0.054-0.8,0.16&#13;&#10;&#9;&#9;c-0.448,0.107-0.938,0.16-1.472,0.16c-0.79,0-1.184-0.128-1.184-0.384c0-0.17,0.256-0.475,0.768-0.912&#13;&#10;&#9;&#9;C6.63,6.728,7.104,6.418,7.542,6.237s0.912-0.432,1.424-0.752c0.512-0.32,1.152-0.699,1.92-1.136&#13;&#10;&#9;&#9;c0.769-0.437,1.194-0.672,1.28-0.704c0.085-0.032,0.219-0.048,0.4-0.048c0.181,0,0.421,0.144,0.72,0.432s0.448,0.597,0.448,0.928&#13;&#10;&#9;&#9;c0,0.331-0.054,0.534-0.16,0.608c-0.107,0.075-0.507,0.171-1.2,0.288c-0.693,0.118-1.264,0.336-1.712,0.656&#13;&#10;&#9;&#9;C10.214,6.829,9.99,7.09,9.99,7.292c0,0.203,0.176,0.4,0.527,0.592c0.353,0.192,0.608,0.288,0.769,0.288s0.368-0.032,0.624-0.096&#13;&#10;&#9;&#9;S12.4,7.98,12.614,7.98c0.746,0,1.173,0.278,1.279,0.832c0.043,0.278,0.177,0.416,0.4,0.416s0.533-0.09,0.928-0.272&#13;&#10;&#9;&#9;c0.395-0.181,0.699-0.272,0.912-0.272s0.32,0.112,0.32,0.336c0,0.224-0.134,0.587-0.4,1.088c-0.267,0.501-0.469,0.917-0.607,1.248&#13;&#10;&#9;&#9;c-0.14,0.331-0.326,0.496-0.561,0.496s-0.479-0.176-0.735-0.528c-0.257-0.352-0.491-0.613-0.704-0.784&#13;&#10;&#9;&#9;c-0.214-0.17-0.363-0.256-0.448-0.256c-0.086,0-0.203,0.038-0.352,0.112c-0.15,0.075-0.342,0.144-0.576,0.208&#13;&#10;&#9;&#9;c-0.235,0.064-0.353,0.203-0.353,0.416c0,0.214,0.106,0.352,0.32,0.416c0.576,0.235,0.98,0.48,1.216,0.736&#13;&#10;&#9;&#9;c0.234,0.256,0.353,0.459,0.353,0.608c0,0.149-0.07,0.315-0.208,0.496c-0.14,0.181-0.4,0.272-0.784,0.272l-0.832-0.032&#13;&#10;&#9;&#9;c-0.235,0-0.39,0.128-0.464,0.384c-0.075,0.256-0.112,0.597-0.112,1.024c0,1.045,0.096,1.567,0.288,1.567&#13;&#10;&#9;&#9;c0.063,0,0.224-0.068,0.479-0.207c0.257-0.139,0.501-0.305,0.736-0.497c0.234-0.192,0.683-0.517,1.344-0.976&#13;&#10;&#9;&#9;c0.661-0.458,1.137-0.832,1.424-1.12c0.288-0.288,0.581-0.683,0.881-1.184c0.298-0.501,0.538-1.061,0.72-1.68&#13;&#10;&#9;&#9;c0.181-0.619,0.282-1.285,0.304-2c0.021-0.714,0.074-1.52,0.16-2.416c0.085-0.896,0.128-1.6,0.128-2.112l-0.096-1.92&#13;&#10;&#9;&#9;c0-0.533,0.181-0.8,0.544-0.8c0.17,0,0.41,0.059,0.72,0.176s0.507,0.235,0.592,0.352s0.128,0.315,0.128,0.592l-0.063,1.568&#13;&#10;&#9;&#9;c0,0.342,0.026,0.88,0.08,1.616c0.053,0.736,0.08,1.27,0.08,1.6c0,0.331,0.068,0.496,0.208,0.496c0.139,0,0.395-0.138,0.768-0.416&#13;&#10;&#9;&#9;c0.373-0.277,0.73-0.586,1.072-0.928C22.043,6.296,22.32,6.125,22.534,6.125z M7.526,19.5c0,0.172-0.049,0.513-0.145,1.025&#13;&#10;&#9;&#9;c-0.096,0.512-0.144,1.045-0.144,1.6v0.384c0,0.448-0.054,0.875-0.16,1.28c-0.107,0.404-0.16,0.836-0.16,1.295&#13;&#10;&#9;&#9;s-0.096,0.688-0.288,0.688c-0.191,0-0.405-0.117-0.64-0.352c-0.235-0.235-0.48-0.416-0.736-0.544&#13;&#10;&#9;&#9;c-0.939-0.491-1.408-0.961-1.408-1.408c0-0.234,0.24-0.699,0.72-1.393c0.48-0.692,0.811-1.193,0.992-1.504&#13;&#10;&#9;&#9;c0.181-0.309,0.458-0.645,0.832-1.008c0.373-0.362,0.656-0.544,0.849-0.544C7.43,19.021,7.526,19.181,7.526,19.5z M19.078,19.053&#13;&#10;&#9;&#9;c0,0.086,0.032,0.16,0.096,0.225c0.789,0.896,1.643,2.09,2.561,3.584c0.917,1.492,1.376,2.612,1.376,3.359&#13;&#10;&#9;&#9;c0,0.213-0.054,0.379-0.16,0.496c-0.107,0.117-0.304,0.203-0.592,0.256s-0.614,0.068-0.977,0.048h-0.928&#13;&#10;&#9;&#9;c-0.235,0-0.598,0.021-1.088,0.063c-0.491,0.043-1.003,0.064-1.536,0.064c-1.707,0-2.869-0.096-3.488-0.287&#13;&#10;&#9;&#9;c-0.234-0.064-0.512-0.118-0.832-0.16c-0.96-0.086-1.509-0.225-1.647-0.416c-0.14-0.192-0.379-0.48-0.721-0.864&#13;&#10;&#9;&#9;c-0.341-0.384-0.677-1.132-1.008-2.24s-0.581-1.882-0.752-2.319s-0.256-0.806-0.256-1.104s0.267-0.448,0.8-0.448&#13;&#10;&#9;&#9;c0.789,0,1.152,0.31,1.088,0.928c-0.043,0.363-0.063,0.684-0.063,0.961c0,2.346,1.973,3.52,5.92,3.52c1.023,0,1.69-0.043,2-0.128&#13;&#10;&#9;&#9;c0.309-0.085,0.56-0.262,0.752-0.528c0.192-0.266,0.288-0.57,0.288-0.912c0-0.341-0.166-0.816-0.496-1.424&#13;&#10;&#9;&#9;c-0.331-0.607-0.598-1.082-0.8-1.424c-0.203-0.342-0.4-0.512-0.592-0.512c-0.107,0-0.39,0.17-0.849,0.512s-0.821,0.684-1.088,1.023&#13;&#10;&#9;&#9;c-0.267,0.342-0.528,0.513-0.784,0.513s-0.655-0.31-1.2-0.929c-0.544-0.618-0.815-1.162-0.815-1.631&#13;&#10;&#9;&#9;c0-0.172,0.059-0.257,0.176-0.257s0.272,0.048,0.464,0.144c0.192,0.097,0.513,0.145,0.96,0.145c0.299,0,0.73-0.096,1.296-0.288&#13;&#10;&#9;&#9;s0.849-0.356,0.849-0.495s-0.225-0.369-0.672-0.688c-0.448-0.32-0.673-0.56-0.673-0.72s0.102-0.24,0.305-0.24&#13;&#10;&#9;&#9;c0.202,0,0.512,0.133,0.928,0.4c0.416,0.266,0.73,0.49,0.944,0.672c0.213,0.182,0.368,0.271,0.464,0.271s0.208-0.016,0.336-0.048&#13;&#10;&#9;&#9;s0.277-0.048,0.448-0.048c0.17,0,0.256,0.059,0.256,0.176s-0.048,0.246-0.145,0.384C19.126,18.824,19.078,18.946,19.078,19.053z&#13;&#10;&#9;&#9; M22.694,18.701c0.256,0,0.922,0.182,2,0.543c1.077,0.363,1.749,0.705,2.016,1.024c0.267,0.32,0.4,0.72,0.4,1.2&#13;&#10;&#9;&#9;s-0.145,0.88-0.433,1.199c-0.288,0.32-0.479,0.582-0.576,0.785c-0.096,0.203-0.219,0.304-0.367,0.304&#13;&#10;&#9;&#9;c-0.149,0-0.268-0.08-0.353-0.24c-0.085-0.159-0.299-0.464-0.64-0.912c-0.342-0.448-0.656-0.843-0.944-1.184&#13;&#10;&#9;&#9;s-0.603-0.806-0.943-1.392c-0.342-0.587-0.513-0.934-0.513-1.041C22.342,18.797,22.459,18.701,22.694,18.701z" stroke-width="1"/>
    </g>
    <g/>
    <g/>
    <g/>
    <g/>
    <g/>
    <g/>
    <g/>
    <g/>
    <g/>
    <g/>
    <g/>
    <g/>
    <g/>
    <g/>
    <g/>
  </g>
</svg>