<svg xmlns="http://www.w3.org/2000/svg" xmlns:xlink="http://www.w3.org/1999/xlink" version="1.1" id="图层_1" x="0px" y="0px" width="26.345003128051758" height="21.89600372314453" viewBox="1.9219977855682373 3.741997718811035 26.345003128051758 21.89600372314453" enable-background="new 0 0 30 30" xml:space="preserve">
<g>
	<path fill="#0000FF" d="M27.767,22.482c0,1.152-0.031,1.846-0.096,2.08c-0.063,0.234-0.411,0.389-1.04,0.464   s-1.605,0.112-2.928,0.112c-3.136,0-5.029-0.102-5.68-0.305c-0.651-0.203-1.34-0.842-2.064-1.92   c-0.726-1.076-1.088-2.34-1.088-3.791c0-0.961,0.133-1.898,0.399-2.816c0.267-0.917,0.4-1.962,0.4-3.136   c0-1.322-0.373-1.984-1.12-1.984c-0.234,0-0.453,0.069-0.656,0.208c-0.202,0.139-0.336,0.304-0.399,0.496   c-0.299,0.896-0.678,1.723-1.136,2.48c-0.459,0.757-0.87,1.295-1.232,1.616c-0.363,0.32-0.752,1.029-1.168,2.129   c-0.416,1.098-0.656,1.967-0.72,2.607c-0.064,0.64-0.71,1.334-1.937,2.08s-2.256,1.119-3.088,1.119   c-0.491,0-0.736-0.053-0.736-0.159s0.075-0.245,0.224-0.416l2.176-2.208c0.768-0.768,1.307-1.381,1.616-1.84   c0.309-0.459,0.757-1.307,1.344-2.545c0.587-1.236,0.88-2.016,0.88-2.335c0-0.234-0.117-0.352-0.352-0.352   c-0.235,0-0.646,0.171-1.232,0.512s-1.184,0.656-1.792,0.944c-0.608,0.288-1.093,0.479-1.456,0.576   c-0.363,0.096-0.715,0.294-1.056,0.592c-0.149,0.128-0.31,0.192-0.48,0.192c-0.171,0-0.368-0.24-0.592-0.721   c-0.224-0.479-0.336-0.89-0.336-1.231s0.224-0.544,0.672-0.608c0.192-0.021,0.896-0.272,2.112-0.752s2.352-1.018,3.408-1.616   c1.056-0.597,1.712-0.949,1.968-1.056c0.256-0.106,0.427-0.298,0.512-0.576c0.256-1.088,0.549-2.261,0.88-3.52   s0.522-1.957,0.576-2.096c0.053-0.139,0.133-0.25,0.24-0.336c0.106-0.085,0.267-0.128,0.479-0.128c0.214,0,0.593,0.171,1.137,0.512   c0.544,0.342,0.815,0.587,0.815,0.736s-0.096,0.331-0.288,0.544c-0.085,0.085-0.202,0.587-0.352,1.504l-0.224,1.376   c0,0.299,0.17,0.448,0.512,0.448c0.085,0,0.336-0.053,0.752-0.16c0.416-0.106,0.832-0.16,1.248-0.16s0.848,0.075,1.296,0.224   c0.448,0.149,0.73,0.261,0.848,0.336c0.117,0.075,0.177,0.197,0.177,0.368s-0.208,0.752-0.624,1.744   c-0.416,0.992-0.854,2.235-1.313,3.728c-0.459,1.493-0.688,3.126-0.688,4.896c0,0.705,0.09,1.168,0.271,1.393   c0.181,0.225,0.587,0.422,1.216,0.592c0.629,0.172,1.35,0.256,2.16,0.256s1.738-0.09,2.784-0.271   c1.045-0.182,1.68-0.363,1.904-0.544c0.224-0.181,0.404-0.533,0.544-1.056c0.139-0.523,0.293-2.117,0.464-4.785   c0.021-0.447,0.16-0.671,0.416-0.671c0.191,0,0.373,0.144,0.544,0.432c0.17,0.288,0.362,1.173,0.576,2.655   C27.66,19.821,27.767,21.203,27.767,22.482z" stroke-width="1"/>
</g>
</svg>