<svg xmlns="http://www.w3.org/2000/svg" xmlns:xlink="http://www.w3.org/1999/xlink" version="1.1" id="图层_1" x="0px" y="0px" width="22.374000549316406" height="29.030000686645508" viewBox="2.851999521255493 0.3190004825592041 22.374000549316406 29.030000686645508" enable-background="new 0 0 30 30" xml:space="preserve">
<g>
	<path fill="#0000FF" d="M13.719,13.331c0,0.171-0.165,0.416-0.496,0.736c-0.331,0.32-0.821,0.934-1.472,1.84   c-0.651,0.907-1.12,1.5-1.408,1.776c-0.288,0.277-0.432,0.512-0.432,0.704c0,0.191,0.096,0.287,0.288,0.287   c0.063,0,0.181-0.031,0.352-0.096c0.171-0.063,0.31-0.144,0.416-0.24c0.106-0.096,0.225-0.144,0.353-0.144s0.25,0.16,0.367,0.479   c0.117,0.32,0.177,0.588,0.177,0.801s-0.16,0.373-0.48,0.48c-0.854,0.277-1.813,0.635-2.88,1.071   c-1.067,0.438-1.675,0.726-1.824,0.864c-0.15,0.139-0.336,0.208-0.56,0.208c-0.224,0-0.55-0.219-0.976-0.656   c-0.427-0.437-0.64-0.73-0.64-0.88c0-0.148,0.106-0.277,0.32-0.384c0.597-0.214,1.301-0.656,2.112-1.328   c0.81-0.672,1.216-1.077,1.216-1.216s-0.08-0.208-0.24-0.208s-0.512,0.075-1.056,0.224c-0.544,0.149-0.981,0.305-1.312,0.465   c-0.331,0.159-0.549,0.239-0.656,0.239c-0.235,0-0.55-0.234-0.944-0.704c-0.395-0.469-0.592-0.768-0.592-0.896   c0-0.127,0.138-0.244,0.416-0.352c0.747-0.256,1.21-0.447,1.392-0.576c0.181-0.127,0.448-0.442,0.8-0.944   c0.352-0.501,0.581-0.805,0.688-0.912c0.597-0.619,1.024-1.173,1.28-1.664c0.341-0.555,0.736-0.832,1.185-0.832   c0.256,0,0.597,0.176,1.023,0.528s0.641,0.614,0.641,0.784c0,0.171-0.14,0.315-0.416,0.432c-0.278,0.117-0.651,0.427-1.12,0.928   c-0.47,0.501-0.704,0.859-0.704,1.072s0.128,0.32,0.384,0.32c0.469,0,0.805-0.048,1.008-0.145s0.442-0.283,0.721-0.56   c0.276-0.277,0.58-0.693,0.911-1.248c0.331-0.554,0.608-0.832,0.832-0.832c0.225,0,0.501,0.054,0.832,0.16   C13.554,13.021,13.719,13.16,13.719,13.331z M11.511,21.139c0.149,0,0.277,0.123,0.384,0.367c0.107,0.246,0.16,0.454,0.16,0.625   s-0.123,0.367-0.368,0.592c-0.245,0.224-0.831,0.619-1.76,1.184c-0.928,0.565-1.531,0.896-1.808,0.992   c-0.277,0.096-0.684,0.293-1.216,0.592c-0.533,0.299-0.971,0.576-1.312,0.832c-0.128,0.107-0.325,0.16-0.592,0.16   c-0.267,0-0.603-0.271-1.008-0.816c-0.406-0.543-0.608-0.922-0.608-1.135c0-0.172,0.176-0.257,0.528-0.257s0.816-0.159,1.392-0.479   c0.576-0.32,1.269-0.613,2.08-0.881c0.811-0.266,1.866-0.73,3.168-1.392C11.063,21.267,11.383,21.139,11.511,21.139z M21.431,4.754   c0.342,0,0.561,0.048,0.656,0.144c0.096,0.096,0.202,0.347,0.32,0.752c0.117,0.406,0.176,0.726,0.176,0.96   c0,0.235-0.117,0.352-0.352,0.352c-1.644,0-2.726,0.064-3.248,0.192c-0.523,0.128-0.859,0.229-1.009,0.304   c-0.149,0.075-0.304,0.235-0.464,0.48c-0.16,0.246-0.341,0.656-0.544,1.232c-0.203,0.576-0.39,0.917-0.56,1.024   c-0.171,0.107-0.459,0.16-0.864,0.16s-0.608-0.069-0.608-0.208c0-0.139,0.182-0.677,0.544-1.616   c0.043-0.107,0.064-0.203,0.064-0.288c0-0.235-0.096-0.352-0.288-0.352c-0.191,0-0.592-0.08-1.2-0.24   c-0.607-0.16-1.051-0.24-1.328-0.24s-0.479,0.048-0.607,0.144c-0.128,0.096-0.203,0.288-0.225,0.576s-0.031,0.646-0.031,1.072   l0.031,1.056c0,0.427-0.224,0.64-0.672,0.64c-0.234,0-0.411-0.138-0.527-0.416c-0.118-0.277-0.336-0.938-0.656-1.984   C9.953,8.243,9.836,8.115,9.687,8.115S9.132,8.2,8.471,8.371c-0.661,0.171-1.062,0.288-1.2,0.352S6.988,8.818,6.839,8.818   c-0.149,0-0.325-0.325-0.528-0.976c-0.203-0.65-0.304-1.045-0.304-1.184s0.176-0.245,0.528-0.32   c0.352-0.074,1.125-0.165,2.32-0.272c0.404-0.042,0.607-0.202,0.607-0.48c0-0.042-0.048-0.32-0.144-0.832   c-0.097-0.512-0.192-0.89-0.288-1.136C8.935,3.374,8.887,3.166,8.887,2.995c0-0.448,0.234-0.672,0.704-0.672   c0.234,0,0.496,0.059,0.784,0.176c0.288,0.118,0.618,0.203,0.992,0.256c0.373,0.054,0.56,0.155,0.56,0.304   c0,0.149-0.021,0.293-0.063,0.432c-0.043,0.139-0.064,0.416-0.064,0.832c0,0.416,0.021,0.757,0.064,1.024   c0.042,0.267,0.191,0.4,0.447,0.4c0.257,0,0.944-0.09,2.064-0.272c1.12-0.181,1.738-0.304,1.856-0.368   c0.116-0.064,0.224-0.314,0.319-0.752c0.097-0.437,0.234-0.976,0.416-1.616c0.182-0.64,0.272-1.12,0.272-1.44   c0-0.32,0.181-0.48,0.544-0.48c0.384,0,0.698,0.096,0.943,0.288s0.571,0.363,0.977,0.512c0.405,0.149,0.607,0.315,0.607,0.496   s-0.096,0.363-0.287,0.544c-0.192,0.181-0.38,0.496-0.561,0.944c-0.182,0.448-0.271,0.757-0.271,0.928s0.159,0.256,0.479,0.256   L21.431,4.754z M20.695,14.163c1.023,0,1.952,0.123,2.783,0.368c0.832,0.245,1.248,0.496,1.248,0.752   c0,0.149-0.096,0.352-0.287,0.608c-0.192,0.256-0.337,0.544-0.433,0.863c-0.096,0.32-0.256,1.393-0.479,3.217   c-0.225,1.824-0.396,3.014-0.513,3.568s-0.304,1.188-0.56,1.903s-0.544,1.659-0.864,2.833c-0.106,0.383-0.245,0.574-0.416,0.574   s-0.373-0.053-0.607-0.158c-0.619-0.32-1.456-0.656-2.513-1.01c-1.056-0.352-2.005-0.874-2.848-1.566   c-0.843-0.694-1.264-1.115-1.264-1.265s0.063-0.224,0.191-0.224s0.256,0.031,0.384,0.096c0.405,0.213,1.137,0.41,2.192,0.592   s1.712,0.271,1.968,0.271s0.513-0.096,0.769-0.287c0.256-0.192,0.522-0.625,0.8-1.297s0.512-1.732,0.704-3.184   c0.191-1.45,0.288-2.432,0.288-2.943c0-0.961-0.225-1.633-0.672-2.017c-0.448-0.384-1.03-0.576-1.744-0.576   c-0.715,0-1.323,0.133-1.824,0.4c-0.502,0.267-0.939,0.454-1.313,0.56c-0.373,0.107-0.688,0.256-0.943,0.448   s-0.555,0.336-0.896,0.433c-0.341,0.096-0.64,0.144-0.896,0.144c-0.384,0-0.576-0.106-0.576-0.32c0-0.171,0.224-0.448,0.672-0.831   c0.448-0.385,1.163-1.174,2.145-2.369c0.98-1.194,1.6-1.995,1.855-2.4s0.4-0.736,0.432-0.992c0.032-0.256,0.165-0.384,0.4-0.384   c0.234,0,0.608,0.171,1.12,0.512c0.512,0.342,0.768,0.736,0.768,1.184c0,0.128-0.085,0.256-0.256,0.384   c-0.384,0.256-0.848,0.656-1.392,1.2s-0.816,0.875-0.816,0.992s0.139,0.155,0.416,0.112C18.913,14.227,19.905,14.163,20.695,14.163   z M18.295,20.146c0,0.555-0.608,0.832-1.824,0.832c-0.619,0-1.062-0.106-1.328-0.32c-0.267-0.213-0.479-0.527-0.64-0.943   s-0.24-0.73-0.24-0.944c0-0.213,0.054-0.433,0.16-0.655c0.106-0.225,0.225-0.337,0.353-0.337s0.304,0.091,0.527,0.272   c0.225,0.182,0.513,0.347,0.864,0.496c0.352,0.148,0.763,0.357,1.232,0.623c0.469,0.268,0.735,0.471,0.8,0.608   C18.263,19.918,18.295,20.04,18.295,20.146z" stroke-width="1"/>
</g>
</svg>