<svg xmlns="http://www.w3.org/2000/svg" xmlns:xlink="http://www.w3.org/1999/xlink" version="1.1" id="图层_1" x="0px" y="0px" width="25.54400062561035" height="23.464998245239258" viewBox="1.8259999752044678 3.101003885269165 25.54400062561035 23.464998245239258" enable-background="new 0 0 30 30" xml:space="preserve">
<g>
	<path fill="#0000FF" d="M25.239,20.787c0.17,0,0.293,0.031,0.368,0.096c0.074,0.063,0.154,0.224,0.239,0.479   c0.085,0.257,0.234,0.565,0.448,0.929c0.384,0.619,0.576,1.365,0.576,2.24c0,0.34-0.086,0.512-0.256,0.512   c-0.171,0-0.342-0.032-0.513-0.097c-2.41-0.981-4.832-1.472-7.264-1.472s-4.592,0.188-6.479,0.561   c-1.889,0.373-3.696,0.666-5.424,0.879s-2.709,0.459-2.944,0.736c-0.235,0.277-0.427,0.416-0.576,0.416   c-0.149,0-0.368-0.256-0.656-0.768c-0.288-0.512-0.432-0.864-0.432-1.057c0-0.191,0.138-0.287,0.416-0.287   c0.277,0,1.2-0.166,2.768-0.496c1.568-0.331,3.013-0.684,4.335-1.057c1.323-0.373,2.145-0.592,2.464-0.656   c0.32-0.063,0.513-0.244,0.576-0.543c0.064-0.299,0.097-0.635,0.097-1.009c0-0.373-0.203-0.56-0.608-0.56   c-0.214,0-0.619,0.069-1.216,0.207c-0.598,0.14-0.992,0.257-1.185,0.353c-0.191,0.097-0.341,0.144-0.447,0.144   c-0.3,0-0.486-0.144-0.561-0.432c-0.075-0.287-0.191-0.592-0.352-0.912s-0.24-0.512-0.24-0.576c0-0.213,0.192-0.34,0.576-0.383   s1.104-0.209,2.16-0.496c1.056-0.289,1.647-0.459,1.775-0.513c0.128-0.053,0.192-0.474,0.192-1.264   c0-0.512-0.235-0.768-0.704-0.768c-0.149,0-0.47,0.085-0.96,0.256c-0.491,0.171-0.789,0.293-0.896,0.369   c-0.106,0.074-0.267,0.111-0.479,0.111c-0.214,0-0.384-0.17-0.512-0.512c-0.128-0.341-0.374-0.741-0.736-1.2   c-0.363-0.458-0.72-1.099-1.072-1.92c-0.352-0.821-0.715-1.904-1.088-3.248c-0.374-1.344-0.56-2.187-0.56-2.528   s0.267-0.565,0.8-0.672c1.131-0.213,2.25-0.485,3.36-0.816c1.108-0.331,2.426-0.619,3.951-0.864s2.789-0.368,3.792-0.368   c1.152,0,2.373,0.347,3.664,1.04c1.291,0.693,1.937,1.222,1.937,1.584c0,0.128-0.102,0.272-0.305,0.432   c-0.202,0.16-0.357,0.368-0.464,0.624c-0.106,0.256-0.399,1.152-0.88,2.688c-0.479,1.536-0.917,2.763-1.312,3.68   c-0.396,0.917-0.742,1.376-1.04,1.376c-0.192,0-0.502-0.176-0.928-0.528c-0.428-0.352-0.886-0.528-1.377-0.528   c-0.171,0-0.438,0.032-0.8,0.096s-0.598,0.16-0.704,0.288s-0.159,0.438-0.159,0.928s0.048,0.805,0.144,0.944   s0.293,0.188,0.592,0.145c1.003-0.149,1.701-0.225,2.097-0.225c0.394,0,0.645,0.021,0.752,0.064   c0.106,0.043,0.159,0.133,0.159,0.271s-0.043,0.385-0.128,0.736s-0.224,0.603-0.416,0.752c-0.191,0.149-0.56,0.304-1.104,0.464   s-1.003,0.277-1.376,0.353c-0.374,0.074-0.592,0.176-0.656,0.303c-0.063,0.129-0.096,0.416-0.096,0.865   c0,0.447,0.053,0.735,0.16,0.863c0.106,0.128,0.395,0.166,0.863,0.112c0.47-0.054,1.077-0.08,1.824-0.08l3.712,0.096   c1.152,0,1.931-0.026,2.336-0.079C24.876,20.813,25.132,20.787,25.239,20.787z M13.047,12.083c0-0.32-0.037-0.56-0.112-0.72   c-0.074-0.16-0.261-0.213-0.56-0.16s-0.539,0.08-0.72,0.08c-0.182,0-0.331-0.053-0.448-0.16c-0.117-0.106-0.283-0.347-0.496-0.72   c-0.214-0.373-0.32-0.688-0.32-0.944s0.245-0.416,0.736-0.48c0.49-0.064,0.858-0.154,1.104-0.272   c0.244-0.117,0.426-0.187,0.544-0.208c0.116-0.021,0.176-0.17,0.176-0.448c0-1.13-0.182-1.696-0.544-1.696   c-0.149,0-0.641,0.16-1.473,0.48s-1.317,0.587-1.456,0.8c-0.139,0.214-0.187,0.48-0.144,0.8c0.213,1.451,0.32,2.619,0.32,3.504   c0,0.886,0.404,1.328,1.216,1.328c0.148,0,0.41-0.032,0.784-0.096c0.373-0.064,0.698-0.16,0.976-0.288   C12.908,12.754,13.047,12.488,13.047,12.083z M17.911,13.139c0.085,0,0.197-0.144,0.336-0.432s0.352-1.146,0.64-2.576   c0.288-1.429,0.433-2.49,0.433-3.184c0-0.693-0.188-1.157-0.561-1.392s-0.934-0.352-1.68-0.352c-0.981,0-1.472,0.555-1.472,1.664   c0,0.469,0.096,0.704,0.287,0.704c0.064,0,0.192-0.021,0.385-0.064c0.191-0.042,0.384-0.064,0.576-0.064   c0.618,0,0.928,0.139,0.928,0.416c0,0.107-0.06,0.395-0.176,0.864c-0.118,0.469-0.39,0.763-0.816,0.88   c-0.427,0.118-0.741,0.293-0.944,0.528c-0.203,0.235-0.304,0.63-0.304,1.184c0,0.555,0.149,0.832,0.448,0.832   c0.042,0,0.17-0.01,0.384-0.032c0.213-0.021,0.405-0.032,0.576-0.032c0.17,0,0.304,0.027,0.399,0.08   c0.097,0.053,0.182,0.229,0.257,0.528C17.682,12.99,17.783,13.139,17.911,13.139z" stroke-width="1"/>
</g>
</svg>