<svg xmlns="http://www.w3.org/2000/svg" xmlns:xlink="http://www.w3.org/1999/xlink" version="1.1" id="图层_1" x="0px" y="0px" width="27.68800163269043" height="22.31500244140625" viewBox="-0.1890019178390503 2.17099666595459 27.68800163269043 22.31500244140625" enable-background="new 0 0 30 30" xml:space="preserve">
<g>
	<path fill="#0000FF" d="M14.839,10.738c0,0.128-0.271,0.955-0.815,2.48c-0.545,1.525-0.977,2.623-1.297,3.296   c-0.319,0.672-0.735,1.317-1.248,1.937c-0.128,0.148-0.191,0.303-0.191,0.463s0.128,0.294,0.384,0.4   c0.256,0.107,0.613,0.213,1.072,0.32c0.458,0.107,0.858,0.41,1.2,0.912c0.341,0.501,0.512,1.008,0.512,1.52s-0.08,0.96-0.24,1.344   c-0.16,0.385-0.331,0.576-0.512,0.576c-0.182,0-0.347-0.074-0.496-0.224c-1.237-1.109-2.123-1.877-2.656-2.304   s-0.875-0.641-1.023-0.641c-0.214,0-0.508,0.208-0.88,0.624c-0.374,0.416-0.63,0.773-0.769,1.072s-0.283,0.491-0.432,0.575   c-0.149,0.086-0.448,0.182-0.896,0.289c-0.448,0.106-1.035,0.16-1.76,0.16c-0.726,0-1.52-0.123-2.384-0.369   c-0.864-0.244-1.296-0.469-1.296-0.672c0-0.202,0.139-0.314,0.416-0.336c1.493-0.063,2.928-0.373,4.304-0.928   s2.063-1.013,2.063-1.376c0-0.106-0.059-0.202-0.176-0.288c-0.117-0.085-0.384-0.213-0.8-0.384s-0.757-0.261-1.024-0.272   c-0.267-0.01-0.523-0.016-0.768-0.016c-0.246,0-0.368-0.074-0.368-0.225c0-0.148,0.096-0.372,0.288-0.672   c0.512-0.703,0.768-1.125,0.768-1.264s-0.08-0.207-0.24-0.207c-0.16,0-0.667,0.063-1.52,0.191   c-0.854,0.128-1.451,0.271-1.792,0.432c-0.342,0.16-0.582,0.24-0.72,0.24c-0.139,0-0.272-0.139-0.4-0.416   c-0.256-0.512-0.459-0.88-0.608-1.104c-0.15-0.225-0.224-0.379-0.224-0.464c0-0.256,0.144-0.4,0.432-0.432   c0.288-0.032,0.645-0.101,1.072-0.208c1.344-0.384,2.581-0.683,3.712-0.896c1.131-0.213,1.75-0.378,1.856-0.496   c0.106-0.117,0.336-0.645,0.688-1.584c0.352-0.938,0.661-2.005,0.928-3.2s0.56-2.427,0.88-3.696   c0.32-1.269,0.517-1.957,0.592-2.064c0.075-0.106,0.165-0.16,0.272-0.16c0.276,0,0.698,0.192,1.264,0.576s0.849,0.726,0.849,1.024   c0,0.107-0.07,0.235-0.208,0.384c-0.14,0.149-0.3,0.432-0.48,0.848c-0.182,0.416-0.528,1.333-1.04,2.752   c-0.512,1.419-0.869,2.48-1.072,3.184s-0.304,1.12-0.304,1.248s0.122,0.192,0.368,0.192c0.245,0,0.555-0.048,0.928-0.144   c0.373-0.096,0.618-0.202,0.736-0.32c0.117-0.117,0.282-0.389,0.496-0.816c0.213-0.427,0.373-0.88,0.479-1.36   s0.261-0.72,0.464-0.72s0.522,0.144,0.96,0.432S14.839,10.504,14.839,10.738z M9.175,18.066c0.32,0,0.661-0.367,1.024-1.104   c0.362-0.736,0.544-1.163,0.544-1.28s-0.096-0.177-0.288-0.177s-0.533,0.055-1.024,0.16c-0.49,0.107-0.854,0.348-1.088,0.721   s-0.352,0.667-0.352,0.88c0,0.214,0.154,0.399,0.464,0.56C8.764,17.986,9.004,18.066,9.175,18.066z M26.999,15.09   c0,0.171-0.166,0.517-0.496,1.041c-0.331,0.522-0.619,0.928-0.864,1.216s-0.533,0.757-0.863,1.407   c-0.331,0.652-0.496,1.217-0.496,1.697c0,0.479-0.171,0.719-0.513,0.719l-1.888-0.096c-0.854,0-1.573,0.086-2.16,0.256   c-0.587,0.172-0.965,0.256-1.136,0.256s-0.357-0.144-0.56-0.432c-0.203-0.287-0.38-0.496-0.528-0.623   c-0.448-0.406-0.901-1.062-1.36-1.969c-0.459-0.906-0.715-1.701-0.768-2.384c-0.054-0.683-0.102-1.093-0.145-1.232   c-0.043-0.138-0.063-0.293-0.063-0.464c0-0.17,0.096-0.298,0.288-0.384c0.191-0.085,1.146-0.229,2.863-0.432   c1.718-0.203,2.971-0.304,3.761-0.304c0.789,0,1.45,0.064,1.983,0.192s1.094,0.336,1.681,0.624   c0.586,0.288,0.943,0.485,1.071,0.592C26.935,14.877,26.999,14.984,26.999,15.09z M19.415,18.451c0.811,0,1.504-0.145,2.08-0.433   s0.864-0.794,0.864-1.521c0-1.044-0.428-1.567-1.28-1.567c-0.427,0-0.918,0.16-1.472,0.48c-0.556,0.32-0.929,0.576-1.12,0.768   c-0.192,0.192-0.288,0.555-0.288,1.088s0.122,0.864,0.368,0.991C18.812,18.387,19.095,18.451,19.415,18.451z" stroke-width="1"/>
</g>
</svg>