<svg xmlns="http://www.w3.org/2000/svg" xmlns:xlink="http://www.w3.org/1999/xlink" version="1.1" id="图层_1" x="0px" y="0px" width="29.095998764038086" height="27.625003814697266" viewBox="0.8989994525909424 1.1499990224838257 29.095998764038086 27.625003814697266" enable-background="new 0 0 30 30" xml:space="preserve">
<g>
	<path fill="#0000FF" d="M18.295,14.515c0,0.405,0.704,1.333,2.112,2.784s3.552,2.795,6.432,4.031   c0.49,0.214,1.056,0.528,1.696,0.944c0.64,0.416,0.96,0.752,0.96,1.009c0,0.383-0.688,0.575-2.064,0.575s-2.544-0.159-3.504-0.479   c-0.448-0.149-0.806-0.225-1.071-0.225c-0.268,0-0.443-0.048-0.528-0.144c-0.086-0.097-0.149-0.261-0.192-0.496   c-0.171-0.832-0.475-1.61-0.912-2.336s-0.971-1.312-1.6-1.761c-0.63-0.447-1.035-0.672-1.216-0.672   c-0.182,0-0.305,0.06-0.368,0.176c-0.064,0.118-0.128,0.977-0.192,2.576c-0.063,1.601-0.096,2.934-0.096,4s0.026,1.793,0.08,2.176   c0.053,0.385,0.08,0.641,0.08,0.77c0,0.553-0.16,0.832-0.48,0.832c-0.171,0-0.341-0.064-0.512-0.193   c-0.171-0.127-0.576-0.314-1.216-0.559c-0.64-0.246-1.1-0.391-1.376-0.434c-0.812-0.148-1.462-0.495-1.952-1.039   c-0.491-0.545-0.736-0.912-0.736-1.104c0-0.085,0.054-0.128,0.16-0.128s0.411,0.059,0.912,0.176s1.029,0.176,1.584,0.176   s0.965-0.133,1.232-0.399c0.267-0.267,0.426-0.757,0.479-1.472c0.053-0.715,0.08-1.393,0.08-2.032s-0.037-1.397-0.112-2.272   c-0.074-0.874-0.123-1.354-0.144-1.439c-0.021-0.085-0.059-0.128-0.112-0.128s-0.24,0.128-0.56,0.384l-2.017,1.632   c-1.023,0.832-1.669,1.397-1.936,1.696s-0.475,0.65-0.624,1.056s-0.336,0.71-0.56,0.912c-0.225,0.203-0.561,0.363-1.009,0.479   c-0.447,0.118-0.938,0.177-1.472,0.177c-0.981,0-1.472-0.171-1.472-0.513c0-0.213,0.171-0.404,0.512-0.576   c2.219-1.002,4.106-2.378,5.664-4.127c1.557-1.75,2.336-2.826,2.336-3.232c0-0.213-0.107-0.32-0.32-0.32s-0.726,0.123-1.536,0.368   c-0.811,0.245-1.291,0.427-1.439,0.544c-0.149,0.117-0.268,0.176-0.353,0.176c-0.234,0-0.512-0.469-0.832-1.408   c-0.063-0.128-0.122-0.192-0.176-0.192s-0.111,0.021-0.176,0.064c-0.256,0.192-0.598,0.342-1.024,0.448   c-0.277,0.064-0.416,0.267-0.416,0.608c0,0.726,0.097,1.088,0.288,1.088c0.021,0,0.075-0.021,0.16-0.063   c0.341-0.171,0.587-0.256,0.736-0.256c0.148,0,0.224,0.047,0.224,0.144c0,0.096-0.069,0.214-0.208,0.353S9.09,17.41,8.663,18.082   S7.639,19.4,6.871,20.019c-0.768,0.619-1.515,1.28-2.24,1.983c-0.726,0.705-1.142,1.088-1.248,1.152   c-0.107,0.064-0.267,0.096-0.48,0.096s-0.518-0.176-0.912-0.527c-0.395-0.352-0.592-0.607-0.592-0.768s0.064-0.305,0.192-0.433   s0.645-0.532,1.552-1.216c0.906-0.683,1.712-1.259,2.416-1.729c0.192-0.127,0.288-0.352,0.288-0.672l0.032-1.664   c0-0.341-0.085-0.512-0.256-0.512c-0.171,0-0.454,0.048-0.848,0.145c-0.395,0.096-0.688,0.213-0.88,0.352s-0.357,0.208-0.496,0.208   c-0.139,0-0.299-0.261-0.48-0.784c-0.182-0.522-0.272-0.858-0.272-1.008c0-0.149,0.09-0.24,0.272-0.272   c0.181-0.032,0.635-0.101,1.36-0.208c0.725-0.106,1.184-0.229,1.376-0.368c0.192-0.138,0.288-0.378,0.288-0.72   c0-0.768-0.032-1.216-0.096-1.344s-0.187-0.192-0.368-0.192c-0.182,0-0.357,0.027-0.528,0.08c-0.171,0.053-0.32,0.08-0.448,0.08   s-0.224-0.048-0.288-0.144c-0.064-0.096-0.251-0.586-0.56-1.472C3.346,9.198,3.191,8.68,3.191,8.531s0.08-0.24,0.24-0.272   C3.591,8.227,4.049,8.21,4.807,8.21c0.757,0,1.349-0.026,1.776-0.08c0.426-0.053,0.891-0.165,1.392-0.336   c0.501-0.17,1.253-0.256,2.257-0.256c0.17,0,0.287,0.032,0.352,0.096c0.064,0.064,0.122,0.251,0.176,0.56   c0.053,0.31,0.08,0.571,0.08,0.784c0,0.213-0.102,0.421-0.304,0.624c-0.203,0.203-0.72,0.603-1.552,1.2   c-0.192,0.128-0.336,0.373-0.433,0.736c-0.096,0.363-0.144,0.662-0.144,0.896c0,0.235,0.08,0.352,0.24,0.352   c0.159,0,0.362-0.042,0.607-0.128c0.245-0.085,0.442-0.128,0.592-0.128s0.245,0.224,0.288,0.672   c0.043,0.448,0.182,0.672,0.416,0.672c0.598,0,1.53-0.154,2.8-0.464c1.27-0.309,1.969-0.485,2.097-0.528   c0.128-0.042,0.191-0.288,0.191-0.736c0-0.448-0.016-0.725-0.048-0.832c-0.032-0.106-0.096-0.16-0.191-0.16   c-0.097,0-0.262-0.048-0.496-0.144c-0.235-0.096-0.433-0.208-0.593-0.336c-0.159-0.128-0.282-0.192-0.367-0.192   c-0.086,0-0.229,0.155-0.433,0.464c-0.203,0.31-0.491,0.651-0.863,1.024c-0.374,0.374-0.636,0.608-0.784,0.704   c-0.149,0.096-0.299,0.144-0.448,0.144c-0.384,0-0.576-0.138-0.576-0.416c0-0.128,0.032-0.245,0.096-0.352   c0.854-1.493,1.473-2.869,1.856-4.128c0.064-0.256,0.24-0.384,0.528-0.384s0.597,0.123,0.928,0.368   c0.33,0.245,0.597,0.368,0.8,0.368c0.202,0,0.395-0.026,0.576-0.08c0.181-0.053,0.282-0.25,0.304-0.592l0.192-2.272   c0.106-1.173,0.16-2.026,0.16-2.56c0-0.533,0.031-0.853,0.096-0.96c0.064-0.106,0.192-0.16,0.384-0.16   c0.192,0,0.624,0.118,1.296,0.352c0.672,0.235,1.009,0.48,1.009,0.736c0,0.107-0.075,0.24-0.225,0.4   c-0.149,0.16-0.283,0.752-0.399,1.776c-0.118,1.024-0.177,1.792-0.177,2.304c0,0.235,0.128,0.32,0.385,0.256   c0.597-0.128,1.088-0.192,1.472-0.192c0.341,0,0.512,0.384,0.512,1.152c0,0.448-0.134,0.768-0.399,0.96   c-0.268,0.192-0.796,0.448-1.584,0.768c-0.257,0.085-0.385,0.39-0.385,0.912c0,0.523,0.106,0.784,0.32,0.784   c0.064,0,0.25-0.042,0.56-0.128c0.31-0.085,0.779-0.17,1.408-0.256c0.629-0.085,0.997-0.181,1.104-0.288   c0.063-0.064,0.165-0.096,0.304-0.096s0.373,0.224,0.704,0.672c0.33,0.448,0.496,0.869,0.496,1.264   c0,0.395-0.038,0.646-0.112,0.752c-0.075,0.107-0.251,0.16-0.528,0.16l-1.023-0.064c-0.427,0-1.035,0.043-1.824,0.128   c-0.789,0.085-1.216,0.176-1.28,0.272C18.327,14.371,18.295,14.451,18.295,14.515z" stroke-width="1"/>
</g>
</svg>