<svg xmlns="http://www.w3.org/2000/svg" xmlns:xlink="http://www.w3.org/1999/xlink" version="1.1" id="图层_1" x="0px" y="0px" width="20.61600112915039" height="22.53499984741211" viewBox="4.754000186920166 4.280999660491943 20.61600112915039 22.53499984741211" style="enable-background:new 0 0 30 30;" xml:space="preserve">
  <g>
    <g>
      <path style="fill:#0000FF;" d="M24.87,24.941c0,0.512-0.069,0.868-0.208,1.071c-0.139,0.202-0.379,0.304-0.72,0.304&#13;&#10;&#9;&#9;c-0.79,0-1.984-0.16-3.584-0.479c-1.601-0.32-3.02-0.939-4.257-1.856s-2.122-2.244-2.655-3.984c-0.534-1.738-0.8-3.865-0.8-6.383&#13;&#10;&#9;&#9;c0-1.002,0.031-1.92,0.096-2.752l0.16-2.048c0-0.618-0.288-0.928-0.864-0.928c-0.256,0-0.864,0.155-1.824,0.464&#13;&#10;&#9;&#9;c-0.96,0.31-1.632,0.587-2.016,0.832c-0.384,0.246-0.693,0.534-0.928,0.864c-0.235,0.331-0.448,0.496-0.641,0.496&#13;&#10;&#9;&#9;c-0.32,0-0.544-0.245-0.672-0.736C5.894,9.613,5.798,9.432,5.67,9.261c-0.277-0.32-0.416-0.757-0.416-1.312&#13;&#10;&#9;&#9;c0-0.234,0.069-0.395,0.208-0.48C5.601,7.384,5.953,7.32,6.518,7.277c0.565-0.042,1.014-0.144,1.345-0.304&#13;&#10;&#9;&#9;c0.33-0.16,0.826-0.309,1.487-0.448s1.393-0.395,2.192-0.768c0.8-0.373,1.44-0.629,1.92-0.768c0.48-0.139,0.917-0.208,1.313-0.208&#13;&#10;&#9;&#9;c0.395,0,0.896,0.048,1.504,0.144c0.607,0.096,0.912,0.261,0.912,0.496c0,0.128-0.118,0.384-0.353,0.768&#13;&#10;&#9;&#9;c-0.235,0.384-0.533,1.014-0.896,1.888c-0.363,0.875-0.565,1.558-0.608,2.048c-0.043,0.491-0.128,0.896-0.256,1.216&#13;&#10;&#9;&#9;c-0.128,0.32-0.245,0.715-0.353,1.184c-0.106,0.469-0.144,0.8-0.111,0.992s0.048,0.4,0.048,0.624s-0.032,0.523-0.096,0.896&#13;&#10;&#9;&#9;c-0.064,0.374-0.097,0.763-0.097,1.168c0,1.109,0.229,2.256,0.688,3.439c0.458,1.184,1.253,2.139,2.384,2.864&#13;&#10;&#9;&#9;s2.133,1.088,3.008,1.088c0.405,0,0.769-0.08,1.088-0.239c0.32-0.16,0.555-0.369,0.704-0.625s0.261-0.65,0.336-1.184&#13;&#10;&#9;&#9;s0.112-1.045,0.112-1.536v-1.345c0-0.256,0.064-0.383,0.192-0.383s0.352,0.33,0.672,0.992c0.319,0.66,0.603,1.53,0.848,2.607&#13;&#10;&#9;&#9;C24.747,22.963,24.87,23.98,24.87,24.941z M18.566,13.517c0.426,0,0.976,0.085,1.647,0.256c0.672,0.171,1.077,0.406,1.216,0.704&#13;&#10;&#9;&#9;c0.139,0.299,0.208,0.619,0.208,0.96c0,0.342-0.111,0.741-0.336,1.2c-0.224,0.459-0.442,0.688-0.655,0.688&#13;&#10;&#9;&#9;c-0.129,0-0.476-0.17-1.04-0.512c-0.566-0.341-1.126-0.74-1.681-1.2c-0.555-0.458-1.014-0.784-1.376-0.976s-0.544-0.378-0.544-0.56&#13;&#10;&#9;&#9;c0-0.181,0.064-0.325,0.192-0.432c0.128-0.106,0.261-0.16,0.399-0.16s0.314,0.027,0.528,0.08c0.213,0.054,0.448,0.059,0.704,0.016&#13;&#10;&#9;&#9;C18.086,13.538,18.331,13.517,18.566,13.517z M19.622,7.117c0.448,0,1.008,0.251,1.68,0.752c0.672,0.501,1.008,0.923,1.008,1.264&#13;&#10;&#9;&#9;c0,0.448-0.522,0.885-1.567,1.312c-0.128,0.043-0.528,0.246-1.2,0.608c-0.672,0.363-1.083,0.598-1.232,0.704&#13;&#10;&#9;&#9;c-0.149,0.107-0.287,0.16-0.416,0.16c-0.128,0-0.191-0.085-0.191-0.256c0-0.17,0.037-0.336,0.112-0.496&#13;&#10;&#9;&#9;c0.074-0.16,0.138-0.373,0.191-0.64c0.053-0.267,0.208-0.592,0.464-0.976c0.106-0.17,0.177-0.448,0.208-0.832&#13;&#10;&#9;&#9;c0.032-0.384,0.123-0.747,0.272-1.088C19.099,7.288,19.323,7.117,19.622,7.117z" stroke-width="1"/>
    </g>
    <g/>
    <g/>
    <g/>
    <g/>
    <g/>
    <g/>
    <g/>
    <g/>
    <g/>
    <g/>
    <g/>
    <g/>
    <g/>
    <g/>
    <g/>
  </g>
</svg>