<svg xmlns="http://www.w3.org/2000/svg" xmlns:xlink="http://www.w3.org/1999/xlink" version="1.1" id="图层_1" x="0px" y="0px" width="30.98499870300293" height="25.09500503540039" viewBox="-1.1170000433921814 1.3429973125457764 30.98499870300293 25.09500503540039" enable-background="new 0 0 30 30" xml:space="preserve">
<g>
	<path fill="#0000FF" d="M13.847,13.907v0.608c0,0.405-0.096,0.608-0.288,0.608c-0.191,0-0.395-0.064-0.607-0.192   c-1.579-0.981-2.88-1.472-3.904-1.472c-0.214,0-0.421,0.075-0.624,0.224c-0.203,0.149-0.491,0.454-0.864,0.912   c-0.373,0.459-0.773,0.859-1.2,1.2c-0.555,0.555-0.832,0.943-0.832,1.168c0,0.224,0.139,0.336,0.416,0.336   c0.213,0,0.933-0.176,2.16-0.528s2.107-0.528,2.641-0.528c0.384,0,0.917,0.134,1.6,0.4c0.683,0.268,1.024,0.518,1.024,0.752   s-0.064,0.453-0.192,0.656s-0.277,0.496-0.448,0.88l-0.479,1.088c-0.149,0.341-0.229,0.587-0.24,0.735   c-0.011,0.15-0.016,0.3-0.016,0.449c0,0.447-0.396,0.778-1.185,0.991c-1.664,0.427-2.592,0.678-2.783,0.752   c-0.192,0.075-0.348,0.171-0.465,0.288S7.313,23.41,7.175,23.41s-0.341-0.17-0.608-0.512c-0.267-0.341-0.523-0.74-0.768-1.199   s-0.453-1.02-0.624-1.681s-0.363-0.992-0.576-0.992c-0.214,0-0.683,0.31-1.408,0.929c-0.96,0.789-1.984,1.184-3.072,1.184   c-0.491,0-0.736-0.064-0.736-0.192c0-0.063,0.053-0.159,0.16-0.288c0.106-0.127,0.416-0.421,0.928-0.88   c0.512-0.458,1.173-0.986,1.984-1.584c0.811-0.597,1.541-1.274,2.192-2.032c0.65-0.756,1.237-1.61,1.76-2.56   c0.522-0.949,1.056-1.808,1.6-2.576s0.885-1.205,1.024-1.312c0.139-0.106,0.276-0.16,0.416-0.16c0.139,0,0.356,0.128,0.655,0.384   s0.448,0.475,0.448,0.656s-0.021,0.347-0.063,0.496c-0.043,0.15-0.064,0.278-0.064,0.384c0,0.107,0.117,0.208,0.353,0.304   c0.234,0.096,0.853,0.176,1.855,0.24c0.49,0.021,0.816,0.149,0.977,0.384C13.767,12.638,13.847,13.139,13.847,13.907z M8.535,7.667   c0,0.171-0.038,0.299-0.112,0.384C8.348,8.136,7.932,8.472,7.175,9.059c-0.757,0.587-1.339,1.062-1.744,1.424   c-0.406,0.363-0.758,0.587-1.056,0.672c-0.299,0.086-0.523,0.128-0.672,0.128c-0.149,0-0.224-0.069-0.224-0.208   s0.165-0.512,0.496-1.12c0.331-0.608,0.773-1.338,1.328-2.192c0.554-0.853,0.933-1.387,1.136-1.6c0.203-0.213,0.389-0.32,0.56-0.32   s0.469,0.235,0.896,0.704C8.321,7.016,8.535,7.39,8.535,7.667z M7.831,20.498c0.213,0,0.564-0.117,1.056-0.352   s0.789-0.447,0.896-0.641c0.106-0.191,0.16-0.512,0.16-0.959c0-0.641-0.246-0.961-0.736-0.961c-0.256,0-0.619,0.102-1.088,0.305   c-0.47,0.203-0.704,0.752-0.704,1.648c0,0.426,0.026,0.693,0.08,0.799C7.548,20.445,7.66,20.498,7.831,20.498z M11.319,4.818   c0.811,0,1.498,0.112,2.063,0.336c0.565,0.224,0.906,0.4,1.024,0.528c0.117,0.128,0.176,0.347,0.176,0.656   c0,0.31-0.123,0.773-0.368,1.392c-0.245,0.619-0.453,0.928-0.624,0.928s-0.565-0.277-1.184-0.832   c-0.619-0.555-1.057-1.066-1.313-1.536c-0.256-0.469-0.384-0.832-0.384-1.088C10.711,4.946,10.913,4.818,11.319,4.818z    M18.487,16.402c0,0.277,0.139,0.646,0.416,1.104c0.276,0.459,0.805,1.147,1.584,2.064c0.778,0.918,1.477,1.584,2.096,2   c0.618,0.416,1.648,0.912,3.088,1.488c1.44,0.576,2.416,1.061,2.928,1.456c0.513,0.395,0.769,0.672,0.769,0.832   c0,0.159-0.188,0.298-0.561,0.416c-0.373,0.116-0.709,0.176-1.008,0.176s-0.773-0.06-1.424-0.176   c-0.651-0.118-1.227-0.187-1.728-0.208c-0.502-0.021-1.11-0.123-1.824-0.305c-0.715-0.182-1.142-0.357-1.28-0.527   c-0.139-0.171-0.245-0.598-0.32-1.28c-0.074-0.683-0.229-1.21-0.464-1.584c-0.234-0.373-0.741-0.832-1.52-1.376   c-0.779-0.544-1.339-0.816-1.681-0.816c-0.234,0-0.447,0.203-0.64,0.608c-0.832,1.686-1.76,2.992-2.784,3.92   c-1.023,0.929-1.974,1.392-2.848,1.392c-0.128,0-0.192-0.037-0.192-0.111c0-0.075,0.128-0.251,0.384-0.528   c1.664-1.685,2.864-3.322,3.601-4.911c0.736-1.59,1.157-3.43,1.264-5.521c0.043-0.725,0.203-1.088,0.48-1.088   c0.128,0,0.298,0.053,0.512,0.16c0.618,0.299,1.056,0.448,1.313,0.448c0.106,0,0.261-0.112,0.464-0.336   c0.202-0.224,0.453-0.549,0.752-0.976c0.298-0.427,0.532-0.805,0.704-1.136c0.17-0.331,0.256-0.613,0.256-0.848   c0-0.469-0.182-0.704-0.544-0.704c-0.363,0-0.715,0.08-1.057,0.24c-0.341,0.16-0.837,0.464-1.487,0.912   c-0.651,0.448-1.04,0.757-1.168,0.928c-0.79,1.173-1.355,1.76-1.696,1.76c-0.171,0-0.256-0.128-0.256-0.384   c0-0.256,0.096-0.576,0.288-0.96c0.575-1.195,0.97-2.219,1.184-3.072c0.128-0.49,0.293-0.901,0.496-1.232   c0.202-0.331,0.549-1.253,1.04-2.768c0.49-1.515,0.789-2.496,0.896-2.944c0.107-0.448,0.337-0.672,0.688-0.672   s0.752,0.096,1.2,0.288c0.448,0.192,0.672,0.406,0.672,0.64c0,0.085-0.032,0.149-0.096,0.192c-0.128,0.085-0.262,0.384-0.4,0.896   c-0.139,0.512-0.592,1.451-1.36,2.816c-0.191,0.342-0.357,0.763-0.496,1.264c-0.139,0.501-0.208,0.832-0.208,0.992   c0,0.16,0.091,0.24,0.272,0.24c0.181,0,0.528-0.074,1.04-0.224c0.512-0.149,1.141-0.224,1.888-0.224s1.521,0.203,2.32,0.608   s1.2,0.747,1.2,1.024c0,0.128-0.149,0.293-0.448,0.496c-0.299,0.203-0.693,0.518-1.184,0.944c-0.875,0.79-2.262,1.547-4.16,2.272   c-0.363,0.128-0.556,0.315-0.576,0.56c-0.021,0.246-0.091,0.555-0.208,0.928S18.487,16.211,18.487,16.402z" stroke-width="1"/>
</g>
</svg>