<svg xmlns="http://www.w3.org/2000/svg" xmlns:xlink="http://www.w3.org/1999/xlink" version="1.1" id="图层_1" x="0px" y="0px" width="28.84000015258789" height="25.92799949645996" viewBox="0.13099992275238037 2.3980002403259277 28.84000015258789 25.92799949645996" enable-background="new 0 0 30 30" xml:space="preserve">
<g>
	<path fill="#0000FF" d="M8.727,3.539c0.043,0,0.075,0.011,0.097,0.032c0.148,0.086,0.389,0.155,0.72,0.208   c0.33,0.054,0.624,0.182,0.88,0.384c0.256,0.203,0.384,0.405,0.384,0.608c0,0.203-0.096,0.363-0.288,0.48   c-0.191,0.118-0.373,0.326-0.544,0.624C9.804,6.173,9.623,6.605,9.431,7.17C9.239,7.736,8.935,8.338,8.519,8.979   s-0.837,1.195-1.264,1.664s-0.693,0.917-0.8,1.344c-0.107,0.427-0.16,0.72-0.16,0.88c0,0.16,0.053,0.288,0.16,0.384   c0.106,0.096,0.261,0.171,0.464,0.224c0.203,0.053,0.416,0.176,0.64,0.368c0.225,0.192,0.336,0.406,0.336,0.64   c0,0.235-0.011,0.416-0.031,0.544c-0.299,1.323-0.502,2.476-0.608,3.456c-0.107,0.981-0.16,2.171-0.16,3.568   s0.021,2.32,0.064,2.768l0.128,1.088c0,0.704-0.459,1.057-1.376,1.057c-0.448,0-0.662-0.277-0.64-0.832   c0.021-0.555,0.032-1.878,0.032-3.969c0-2.09-0.038-3.643-0.112-4.656c-0.075-1.012-0.117-1.647-0.128-1.903   c-0.011-0.256-0.059-0.384-0.144-0.384c-0.085,0-0.405,0.235-0.96,0.703c-0.555,0.471-1.067,0.822-1.536,1.057   S1.538,17.33,1.175,17.33s-0.544-0.063-0.544-0.191s0.064-0.267,0.192-0.416c0.832-1.002,1.712-2.133,2.64-3.392   c0.928-1.259,1.643-2.368,2.144-3.328c0.501-0.96,0.976-1.984,1.424-3.072c0.448-1.088,0.72-1.845,0.816-2.272   c0.097-0.427,0.229-0.72,0.4-0.88C8.418,3.619,8.577,3.539,8.727,3.539z M10.583,15.347c0,0.107-0.086,0.235-0.256,0.384   c-0.171,0.149-0.32,0.629-0.448,1.439c-0.149,0.854-0.438,1.281-0.864,1.281c-0.149,0-0.427-0.182-0.832-0.545   c-0.405-0.362-0.607-0.618-0.607-0.768c0-0.148,0.059-0.277,0.176-0.385c0.117-0.105,0.421-0.352,0.912-0.735   c0.49-0.384,0.832-0.629,1.023-0.736c0.192-0.107,0.342-0.16,0.448-0.16C10.434,15.123,10.583,15.198,10.583,15.347z    M28.471,27.154c0,0.107-0.059,0.197-0.176,0.271c-0.117,0.076-0.475,0.16-1.072,0.256c-0.597,0.098-1.194,0.145-1.792,0.145   s-1.088-0.064-1.472-0.191c-0.384-0.129-0.891-0.191-1.52-0.191c-0.63,0-1.052-0.311-1.265-0.929   c-0.491-1.472-1.151-2.399-1.983-2.784c-0.342-0.128-0.854-0.426-1.536-0.896c-0.107-0.084-0.214-0.127-0.32-0.127   c-0.107,0-0.256,0.074-0.448,0.224c-1.045,0.769-1.803,1.259-2.271,1.472c-0.299,0.149-0.496,0.422-0.592,0.816   c-0.097,0.395-0.667,0.592-1.713,0.592c-0.64,0-1.279-0.133-1.92-0.4c-0.64-0.267-0.96-0.485-0.96-0.656   c0-0.17,0.203-0.256,0.608-0.256c1.685-0.021,3.051-0.41,4.096-1.168c1.045-0.756,1.568-1.285,1.568-1.584   c0-0.127-0.08-0.271-0.24-0.432s-0.651-0.518-1.472-1.072c-0.821-0.555-1.393-0.891-1.712-1.008   c-0.32-0.117-0.513-0.266-0.576-0.447c-0.064-0.182-0.096-0.475-0.096-0.881c0-0.404,0.096-0.607,0.287-0.607   c0.064,0,0.203,0.031,0.416,0.096c0.214,0.064,0.453,0.096,0.721,0.096c0.267,0,0.709-0.111,1.328-0.336   c0.618-0.224,1.034-0.389,1.248-0.496c1.088-0.512,1.855-0.768,2.304-0.768s1.099,0.139,1.952,0.416   c0.853,0.277,1.279,0.512,1.279,0.704c0,0.063-0.059,0.155-0.176,0.272s-0.325,0.555-0.624,1.312s-0.757,1.53-1.376,2.319   c-0.106,0.172-0.16,0.305-0.16,0.4s0.043,0.176,0.128,0.24c0.938,0.619,1.573,1.195,1.904,1.729s0.891,0.938,1.68,1.215   c1.345,0.448,2.587,0.891,3.729,1.328c1.141,0.438,1.797,0.73,1.968,0.881C28.386,26.855,28.471,27.005,28.471,27.154z    M21.719,12.05c1.152,0,2.197,0.475,3.137,1.424c0.938,0.949,1.407,1.605,1.407,1.968c0,0.149-0.059,0.267-0.176,0.353   c-0.117,0.085-0.678,0.267-1.68,0.543c-1.003,0.278-1.771,0.416-2.305,0.416s-0.8-0.037-0.8-0.111s0.043-0.145,0.128-0.208   c0.96-0.811,1.44-1.525,1.44-2.144c0-0.341-0.096-0.57-0.288-0.688c-0.192-0.117-0.48-0.176-0.864-0.176   c-1.43,0-2.827,0.384-4.191,1.152c-0.769,0.405-1.633,0.608-2.593,0.608c-0.469,0-0.938,0.075-1.407,0.224   c-0.47,0.15-0.886,0.224-1.248,0.224c-0.363,0-0.684-0.064-0.96-0.192c-0.278-0.128-0.416-0.277-0.416-0.448   c0-0.17,0.031-0.314,0.096-0.432c0.064-0.117,0.149-0.176,0.256-0.176h0.353c0.447,0,1.274-0.219,2.479-0.656   c1.205-0.437,2.57-0.827,4.096-1.168C19.708,12.222,20.887,12.05,21.719,12.05z M22.871,4.274c0,0.171-0.054,0.32-0.16,0.448   c-0.107,0.128-0.256,0.453-0.448,0.976c-0.191,0.523-0.299,0.891-0.319,1.104c-0.021,0.213-0.08,0.443-0.177,0.688   c-0.096,0.245-0.165,0.4-0.208,0.464c-0.149,0.256-0.239,0.629-0.271,1.12s-0.128,0.864-0.288,1.12   c-0.16,0.256-0.384,0.432-0.672,0.528c-0.288,0.096-1.046,0.267-2.272,0.512c-1.227,0.246-2.016,0.379-2.368,0.4   c-0.352,0.022-0.811,0.096-1.376,0.224s-0.911,0.229-1.04,0.304c-0.128,0.075-0.261,0.112-0.399,0.112s-0.31-0.138-0.512-0.416   c-0.203-0.277-0.305-0.506-0.305-0.688c0-0.181,0.192-0.304,0.576-0.368c0.789-0.085,1.707-0.309,2.752-0.672   c1.045-0.362,1.845-0.597,2.4-0.704c0.555-0.107,0.965-0.48,1.231-1.12c0.267-0.64,0.4-1.349,0.4-2.128s-0.08-1.253-0.24-1.424   c-0.16-0.17-0.432-0.256-0.815-0.256c-1.43,0-2.433,0.246-3.009,0.736c-0.128,0.107-0.405,0.246-0.832,0.416   c-0.427,0.171-0.725,0.256-0.896,0.256c-0.405,0-0.608-0.416-0.608-1.248c0-0.213,0.037-0.368,0.112-0.464   c0.074-0.096,0.256-0.144,0.544-0.144s1.162-0.192,2.624-0.576c1.461-0.384,2.576-0.576,3.344-0.576   c0.769,0,1.499,0.123,2.192,0.368C22.524,3.512,22.871,3.848,22.871,4.274z M18.039,6.674c0,0.363-0.064,0.662-0.192,0.896   c-0.128,0.235-0.522,0.464-1.184,0.688c-0.661,0.224-1.109,0.336-1.344,0.336c-0.235,0-0.704,0.117-1.408,0.352   c-0.107,0.043-0.229,0.064-0.368,0.064s-0.267-0.144-0.384-0.432c-0.118-0.288-0.176-0.507-0.176-0.656   c0-0.149,0.042-0.277,0.128-0.384c0.085-0.106,0.176-0.165,0.271-0.176c0.096-0.01,0.187-0.016,0.272-0.016   c0.384,0,0.853-0.112,1.408-0.336c0.554-0.224,1.104-0.416,1.647-0.576s0.901-0.24,1.072-0.24   C17.953,6.194,18.039,6.354,18.039,6.674z M16.695,19.826c0.256,0,0.464-0.293,0.624-0.88c0.159-0.587,0.239-0.923,0.239-1.008   c0-0.427-0.234-0.64-0.703-0.64c-0.3,0-0.731,0.133-1.297,0.4c-0.565,0.266-0.848,0.501-0.848,0.703c0,0.203,0.074,0.336,0.224,0.4   c0.491,0.213,0.938,0.502,1.345,0.863C16.407,19.773,16.546,19.826,16.695,19.826z" stroke-width="1"/>
</g>
</svg>