<svg xmlns="http://www.w3.org/2000/svg" xmlns:xlink="http://www.w3.org/1999/xlink" version="1.1" id="图层_1" x="0px" y="0px" width="30.148998260498047" height="24.199996948242188" viewBox="0.19499993324279785 4.5420002937316895 30.148998260498047 24.199996948242188" enable-background="new 0 0 30 30" xml:space="preserve">
<g>
	<path fill="#0000FF" d="M11.543,21.906c0.192,0.129,0.459-0.08,0.8-0.623c0.341-0.545,0.693-1.334,1.057-2.369   c0.362-1.034,0.634-1.695,0.815-1.983c0.181-0.288,0.336-0.433,0.464-0.433s0.325,0.07,0.592,0.209s0.4,0.309,0.4,0.512   s-0.063,0.469-0.192,0.8c-0.128,0.331-0.191,0.608-0.191,0.832s0.122,0.476,0.368,0.752c0.245,0.277,0.469,0.416,0.672,0.416   c0.202,0,0.336-0.122,0.399-0.368c0.064-0.244,0.097-0.698,0.097-1.359l0.096-2.625c0-0.362-0.037-0.688-0.112-0.976   c-0.074-0.288-0.229-0.432-0.464-0.432c-0.277,0-0.763,0.192-1.456,0.576c-0.693,0.384-1.088,0.614-1.184,0.688   c-0.096,0.075-0.225,0.112-0.384,0.112c-0.16,0-0.357-0.144-0.593-0.432c-0.234-0.288-0.352-0.555-0.352-0.8   c0-0.245,0.165-0.421,0.496-0.528c0.33-0.106,0.597-0.213,0.8-0.32c0.202-0.106,0.57-0.25,1.104-0.432   c0.532-0.181,0.97-0.32,1.312-0.416c0.341-0.096,0.512-0.245,0.512-0.448c0-0.202-0.427-0.816-1.279-1.84   c-0.086-0.106-0.128-0.224-0.128-0.352s0.09-0.24,0.271-0.336c0.181-0.096,0.432-0.144,0.752-0.144l0.544,0.032   c0.32,0,0.698-0.293,1.136-0.88c0.438-0.586,0.656-1.088,0.656-1.504S18.412,6.61,18.135,6.61s-0.576,0.096-0.896,0.288   c-0.32,0.192-0.556,0.363-0.704,0.512c-0.342,0.341-0.758,0.661-1.248,0.96c-0.256,0.171-0.464,0.357-0.624,0.56   s-0.374,0.304-0.64,0.304c-0.268,0-0.513-0.256-0.736-0.768c-0.224-0.512-0.336-0.938-0.336-1.28c0-0.341,0.234-0.555,0.704-0.64   c0.469-0.085,1.178-0.25,2.128-0.496c0.949-0.245,1.52-0.41,1.712-0.496c0.597-0.277,1.188-0.416,1.775-0.416   s1.259,0.166,2.017,0.496c0.757,0.331,1.136,0.678,1.136,1.04c0,0.171-0.102,0.326-0.304,0.464   c-0.203,0.139-0.512,0.459-0.928,0.96c-0.416,0.501-0.977,0.912-1.681,1.232c-0.191,0.107-0.405,0.267-0.64,0.48   c-0.235,0.213-0.353,0.374-0.353,0.48c0,0.107,0.037,0.256,0.112,0.448c0.074,0.192,0.133,0.374,0.176,0.544   s0.112,0.256,0.208,0.256c0.097,0,0.197-0.021,0.305-0.064c0.661-0.234,1.296-0.352,1.903-0.352c0.608,0,1.232,0.187,1.872,0.56   c0.641,0.374,1.173,0.901,1.601,1.584c0.426,0.683,0.64,1.093,0.64,1.232c0,0.139-0.048,0.24-0.144,0.304   c-0.097,0.064-0.3,0.123-0.608,0.176c-0.31,0.054-0.592,0.112-0.848,0.176c-0.257,0.064-0.619,0.096-1.088,0.096   c-0.47,0-0.881-0.042-1.232-0.128c-0.352-0.085-0.528-0.192-0.528-0.32c0-0.128,0.128-0.267,0.384-0.416   c0.811-0.405,1.217-0.864,1.217-1.376c0-0.235-0.086-0.453-0.256-0.656c-0.172-0.203-0.438-0.304-0.801-0.304   c-0.362,0-0.827,0.118-1.392,0.352c-0.565,0.235-0.944,0.614-1.136,1.136c-0.192,0.523-0.288,1.024-0.288,1.504   s0.042,0.822,0.128,1.024c0.085,0.203,0.298,0.305,0.64,0.305c0.341,0,0.656-0.037,0.944-0.113   c0.288-0.074,0.484-0.111,0.592-0.111c0.32,0,0.48,0.182,0.48,0.544c0,0.363-0.049,0.624-0.145,0.784s-0.336,0.331-0.72,0.512   c-0.384,0.182-0.769,0.4-1.152,0.656s-0.613,0.432-0.688,0.527c-0.075,0.097-0.123,0.252-0.145,0.465l-0.128,1.504   c0,0.32,0.272,0.752,0.816,1.296s1.536,1.136,2.976,1.776c1.44,0.64,2.613,1.093,3.521,1.359c0.906,0.267,1.712,0.549,2.416,0.848   s1.162,0.523,1.376,0.672c0.213,0.15,0.319,0.299,0.319,0.449c0,0.148-0.197,0.303-0.592,0.463s-1.323,0.24-2.784,0.24   s-2.683-0.139-3.664-0.416c-0.341-0.064-0.698-0.107-1.071-0.127c-0.374-0.021-0.614-0.08-0.721-0.176   c-0.106-0.098-0.171-0.305-0.191-0.625c-0.086-1.516-0.821-2.604-2.208-3.264c-0.576-0.256-1.302-0.635-2.176-1.137   c-0.875-0.5-1.601-0.752-2.177-0.752c-0.256,0-0.49,0.129-0.704,0.385c-0.747,0.875-1.557,1.59-2.432,2.144   c-0.875,0.555-1.493,0.832-1.856,0.832c-0.149,0-0.224-0.054-0.224-0.16c0-0.235,0.224-0.538,0.672-0.911s0.672-0.641,0.672-0.801   s-0.096-0.282-0.288-0.367c-0.469-0.235-1.003-0.651-1.6-1.248c-0.214-0.213-0.39-0.32-0.528-0.32s-0.352,0.176-0.64,0.527   c-0.288,0.353-0.528,0.912-0.72,1.68c-0.128,0.513-0.646,1.014-1.552,1.505c-0.907,0.49-1.904,0.735-2.992,0.735   c-0.256,0-0.384-0.08-0.384-0.24c0-0.159,0.128-0.324,0.384-0.495c1.941-1.259,3.088-2.181,3.44-2.769   c0.352-0.586,0.741-1.156,1.168-1.711c0.128-0.172,0.192-0.342,0.192-0.513s-0.102-0.256-0.304-0.256   c-0.203,0-0.667,0.117-1.392,0.353C4.45,20.35,3.874,20.541,3.447,20.69s-0.854,0.396-1.28,0.736   C1.975,21.576,1.81,21.65,1.671,21.65s-0.336-0.191-0.592-0.576c-0.256-0.384-0.384-0.709-0.384-0.976s0.224-0.433,0.672-0.496   c0.17-0.021,0.362-0.075,0.576-0.16c1.984-0.64,3.584-1.13,4.8-1.472c0.213-0.043,0.352-0.129,0.416-0.256   c0.063-0.129,0.096-0.331,0.096-0.608c0-0.276-0.032-0.464-0.096-0.56c-0.064-0.096-0.203-0.166-0.416-0.209l-0.704-0.127   c-0.171,0-0.421,0.096-0.752,0.287c-0.331,0.192-0.592,0.385-0.784,0.576c-0.64,0.576-1.078,0.864-1.312,0.864   c-0.235,0-0.352-0.122-0.352-0.368c0-0.244,0.176-0.58,0.528-1.008c0.352-0.426,0.672-0.88,0.96-1.36s0.64-1.029,1.056-1.648   s0.688-0.987,0.816-1.104c0.128-0.117,0.261-0.176,0.4-0.176c0.138,0,0.352,0.118,0.64,0.352c0.288,0.235,0.506,0.475,0.655,0.72   s0.294,0.368,0.433,0.368s0.282-0.032,0.432-0.096c0.896-0.363,1.558-0.544,1.984-0.544s0.64,0.235,0.64,0.704   c0,0.47-0.277,0.891-0.832,1.264c-0.555,0.374-0.891,0.651-1.008,0.833s-0.176,0.442-0.176,0.783c0,0.172,0.068,0.256,0.208,0.256   c0.139,0,0.442-0.096,0.912-0.287c0.469-0.192,0.815-0.289,1.04-0.289c0.224,0,0.469,0.203,0.735,0.608s0.4,0.753,0.4,1.04   c0,0.288-0.086,0.475-0.256,0.561c-0.171,0.085-0.71,0.182-1.616,0.287c-0.907,0.107-1.504,0.235-1.792,0.385   s-0.432,0.395-0.432,0.736c0,0.127,0.116,0.213,0.352,0.256c0.981,0.127,1.6,0.277,1.856,0.447   c0.256,0.172,0.389,0.385,0.399,0.641S11.308,21.758,11.543,21.906z M11.031,9.106c0.276,0,0.533,0.16,0.768,0.48   c0.234,0.32,0.353,0.587,0.353,0.8c0,0.363-0.251,0.656-0.752,0.88c-0.502,0.224-0.907,0.443-1.217,0.656   c-0.31,0.214-0.715,0.32-1.216,0.32s-1.146-0.309-1.936-0.928c-0.789-0.619-1.184-1.589-1.184-2.912   c0-0.341-0.038-0.714-0.112-1.12S5.623,6.466,5.623,6.05s0.032-0.688,0.096-0.816c0.064-0.128,0.267-0.192,0.608-0.192   c0.341,0,0.677,0.032,1.008,0.096c0.33,0.064,0.528,0.133,0.592,0.208c0.064,0.075,0.08,0.219,0.048,0.432   c-0.031,0.214-0.048,0.374-0.048,0.48c0,0.278,0.048,0.416,0.145,0.416c0.096,0,0.261-0.064,0.496-0.192   c0.234-0.128,0.581-0.261,1.04-0.4c0.458-0.139,0.805-0.208,1.04-0.208c0.234,0,0.352,0.203,0.352,0.608   c0,0.406-0.502,0.907-1.504,1.504c-0.277,0.171-0.571,0.411-0.88,0.72c-0.31,0.31-0.464,0.549-0.464,0.72   c0,0.299,0.256,0.448,0.768,0.448c0.299,0,0.656-0.128,1.072-0.384C10.407,9.234,10.754,9.106,11.031,9.106z" stroke-width="1"/>
</g>
</svg>