<svg xmlns="http://www.w3.org/2000/svg" xmlns:xlink="http://www.w3.org/1999/xlink" version="1.1" id="图层_1" x="0px" y="0px" width="30.1200008392334" height="25.479000091552734" viewBox="0.1629999876022339 2.7820000648498535 30.1200008392334 25.479000091552734" enable-background="new 0 0 30 30" xml:space="preserve">
<g>
	<path fill="#0000FF" d="M10.423,19.379c0,0.213-0.027,0.405-0.08,0.576c-0.054,0.17-0.24,0.341-0.56,0.512   c-1.365,0.746-2.219,1.248-2.561,1.504c-1.045,0.703-1.888,1.179-2.528,1.424c-0.64,0.246-1.077,0.432-1.312,0.561   c-0.235,0.127-0.464,0.287-0.688,0.479c-0.224,0.192-0.4,0.288-0.528,0.288S1.9,24.647,1.751,24.498   C1.602,24.35,1.383,24.04,1.095,23.57c-0.288-0.469-0.432-0.778-0.432-0.928c0-0.148,0.133-0.267,0.4-0.352   c0.267-0.086,1.066-0.385,2.4-0.896c1.333-0.512,2.283-0.896,2.848-1.152c0.565-0.256,1.275-0.527,2.128-0.815   c0.853-0.288,1.396-0.433,1.632-0.433C10.306,18.994,10.423,19.123,10.423,19.379z M11.447,10.035c0,0.085-0.06,0.187-0.177,0.304   c-0.117,0.118-0.271,0.363-0.464,0.736c-0.191,0.374-0.427,0.699-0.704,0.976c-0.277,0.278-0.757,0.811-1.439,1.6   c-0.683,0.79-1.072,1.275-1.168,1.456c-0.096,0.182-0.145,0.342-0.145,0.479c0,0.14,0.117,0.209,0.353,0.209   c0.234,0,0.564-0.086,0.992-0.256c0.426-0.171,0.735-0.256,0.928-0.256s0.336,0.133,0.432,0.4c0.097,0.267,0.145,0.476,0.145,0.624   c0,0.427-0.4,0.816-1.2,1.168s-1.712,0.699-2.736,1.04c-1.024,0.341-1.728,0.587-2.112,0.735c-0.384,0.15-0.619,0.225-0.704,0.225   c-0.213,0-0.459-0.277-0.736-0.832c-0.277-0.555-0.416-0.922-0.416-1.104s0.17-0.336,0.512-0.465   c0.768-0.299,1.413-0.709,1.936-1.232c0.522-0.522,0.784-0.868,0.784-1.039c0-0.085-0.096-0.128-0.288-0.128   c-0.832,0-1.557,0.182-2.176,0.544c-0.235,0.128-0.427,0.192-0.576,0.192s-0.421-0.363-0.816-1.088   c-0.395-0.725-0.592-1.12-0.592-1.184c0-0.213,0.16-0.341,0.48-0.384c0.789-0.106,1.344-0.416,1.664-0.928   c0.853-1.387,1.824-2.848,2.912-4.384c1.088-1.536,1.76-2.395,2.017-2.576c0.256-0.181,0.469-0.272,0.64-0.272   s0.33,0.075,0.479,0.224c0.149,0.15,0.427,0.384,0.832,0.704c0.149,0.107,0.225,0.277,0.225,0.512c0,0.619-0.459,1.206-1.376,1.76   C8.375,8.136,7.66,8.834,6.807,9.891c-0.854,1.056-1.28,1.701-1.28,1.936s0.096,0.352,0.288,0.352c0.555,0,1.093-0.117,1.616-0.352   s1.2-0.928,2.032-2.08c0.341-0.469,0.656-0.704,0.944-0.704s0.533,0.123,0.735,0.368C11.346,9.656,11.447,9.864,11.447,10.035z    M16.119,19.25c0,0.129-0.139,0.357-0.416,0.688s-0.47,0.614-0.576,0.849c-0.235,0.447-0.896,1.077-1.984,1.887   c-1.088,0.812-1.823,1.462-2.208,1.953c-0.171,0.213-0.405,0.319-0.703,0.319c-0.172,0-0.48-0.239-0.929-0.72   c-0.447-0.48-0.672-0.784-0.672-0.912c0-0.191,0.139-0.352,0.416-0.48c0.277-0.127,1.146-0.618,2.608-1.472   c1.461-0.853,2.618-1.567,3.472-2.144c0.256-0.171,0.485-0.256,0.688-0.256C16.018,18.963,16.119,19.059,16.119,19.25z    M20.631,18.066c0,0.256,0.427,0.811,1.28,1.664c0.853,0.854,1.643,1.376,2.368,1.568c2.837,0.832,4.464,1.359,4.88,1.584   c0.416,0.224,0.624,0.447,0.624,0.672c0,0.224-0.315,0.438-0.944,0.64s-1.333,0.304-2.112,0.304c-0.778,0-1.552-0.085-2.319-0.256   c-0.769-0.17-1.243-0.341-1.424-0.512c-0.182-0.17-0.326-0.501-0.433-0.992c-0.171-0.874-0.704-1.557-1.6-2.048   c-0.896-0.49-1.44-0.735-1.632-0.735c-0.171,0-0.246,0.16-0.225,0.479s-0.005,0.987-0.08,2c-0.074,1.014-0.111,1.701-0.111,2.063   c0,0.726,0.042,1.322,0.128,1.793c0.085,0.469,0.128,0.768,0.128,0.895c0,0.385-0.149,0.576-0.448,0.576   c-0.128,0-0.416-0.084-0.864-0.256c-0.447-0.17-1.093-0.383-1.936-0.639c-0.843-0.257-1.536-0.572-2.08-0.945   s-0.816-0.639-0.816-0.799s0.139-0.22,0.416-0.177c0.811,0.106,1.451,0.16,1.92,0.16c0.47,0,0.811-0.091,1.024-0.272   c0.213-0.182,0.368-0.501,0.464-0.959c0.096-0.459,0.145-0.977,0.145-1.553s-0.027-1.125-0.08-1.648   c-0.054-0.521-0.08-1.284-0.08-2.287l0.032-2.496c0-0.342-0.038-0.688-0.112-1.04c-0.075-0.352-0.16-0.571-0.256-0.656   c-0.097-0.085-0.272-0.106-0.528-0.064c-0.256,0.043-0.672,0.064-1.248,0.064c-1.046,0-1.872,0.096-2.479,0.288   c-0.608,0.192-1.004,0.288-1.185,0.288c-0.182,0-0.331-0.144-0.448-0.432s-0.176-0.539-0.176-0.752c0-0.213,0.128-0.32,0.384-0.32   l0.385,0.032c0.384,0,0.842-0.085,1.376-0.256l5.728-1.92c0.149-0.042,0.256-0.096,0.32-0.16c0.063-0.064,0.117-0.16,0.16-0.288   c0.128-0.554,0.256-1.237,0.384-2.048c0.17-1.258,0.256-2.123,0.256-2.592c0-0.405-0.086-0.699-0.256-0.88   c-0.171-0.181-0.459-0.272-0.864-0.272c-1.174,0-2.219,0.427-3.136,1.28c-0.405,0.384-0.736,0.576-0.992,0.576   s-0.485-0.202-0.688-0.608c-0.202-0.405-0.304-0.736-0.304-0.992c0-0.256,0.128-0.405,0.384-0.448   c0.257-0.042,0.795-0.181,1.616-0.416c0.821-0.234,1.376-0.362,1.664-0.384c0.288-0.021,0.698-0.128,1.232-0.32   c0.532-0.192,1.093-0.288,1.68-0.288s1.248,0.117,1.984,0.352c0.735,0.235,1.104,0.491,1.104,0.768   c0,0.085-0.075,0.229-0.224,0.432c-0.149,0.203-0.31,0.693-0.48,1.472s-0.411,1.589-0.72,2.432c-0.31,0.843-0.464,1.403-0.464,1.68   c0,0.171,0.202,0.256,0.607,0.256c0.661,0,1.189-0.032,1.584-0.096s0.726-0.096,0.992-0.096s0.442,0.139,0.528,0.416   c0.128,0.406,0.24,0.715,0.336,0.928s0.144,0.405,0.144,0.576c0,0.32-0.256,0.48-0.768,0.48l-1.824-0.064   c-0.747,0-1.354,0.064-1.824,0.192c-0.469,0.128-0.8,0.251-0.991,0.368c-0.192,0.118-0.348,0.427-0.465,0.928   c-0.117,0.501-0.176,0.885-0.176,1.152c0,0.267,0.097,0.549,0.288,0.848c0.192,0.299,0.347,0.447,0.464,0.447   s0.581-0.33,1.393-0.991c0.811-0.661,1.301-1.205,1.472-1.632c0.085-0.234,0.202-0.352,0.353-0.352   c0.148,0,0.426,0.192,0.831,0.576s0.608,0.693,0.608,0.928s-0.149,0.426-0.448,0.576c-1.6,0.812-2.57,1.345-2.912,1.601   C20.802,17.715,20.631,17.918,20.631,18.066z M12.215,15.57c0.106,0,0.261,0.07,0.464,0.208c0.203,0.14,0.581,0.337,1.137,0.593   c1.108,0.49,1.663,1.023,1.663,1.6c0,0.171-0.171,0.336-0.512,0.496s-0.661,0.24-0.96,0.24s-0.709-0.069-1.231-0.209   c-0.523-0.139-0.822-0.399-0.896-0.783c-0.075-0.385-0.112-0.688-0.112-0.912c0-0.225,0.037-0.485,0.112-0.784   C11.953,15.721,12.065,15.57,12.215,15.57z M18.263,8.21c0,0.342-0.251,0.704-0.752,1.088c-0.501,0.384-0.917,0.608-1.248,0.672   s-0.698,0.16-1.104,0.288c-0.405,0.128-0.741,0.192-1.008,0.192c-0.268,0-0.502-0.213-0.704-0.64   c-0.203-0.427-0.305-0.725-0.305-0.896c0-0.17,0.049-0.293,0.145-0.368c0.096-0.074,0.698-0.277,1.808-0.608   c1.109-0.331,1.941-0.496,2.496-0.496c0.213,0,0.379,0.075,0.496,0.224C18.204,7.816,18.263,7.998,18.263,8.21z" stroke-width="1"/>
</g>
</svg>