<svg xmlns="http://www.w3.org/2000/svg" xmlns:xlink="http://www.w3.org/1999/xlink" version="1.1" id="图层_1" x="0px" y="0px" width="24.328001022338867" height="28.83799934387207" viewBox="2.626999616622925 -0.09699982404708862 24.328001022338867 28.83799934387207" enable-background="new 0 0 30 30" xml:space="preserve">
<g>
	<path fill="#0000FF" d="M7.351,10.002c0,0.149-0.043,0.31-0.128,0.48c-0.299,0.64-0.448,1.461-0.448,2.464   c0,0.342,0.016,0.619,0.048,0.832c0.032,0.214,0.048,0.374,0.048,0.48c0,0.299-0.064,0.448-0.192,0.448   c-0.128,0-0.246-0.021-0.352-0.064c-0.64-0.213-1.227-0.357-1.76-0.432c-0.533-0.074-0.907-0.213-1.12-0.416   c-0.213-0.203-0.32-0.373-0.32-0.512s0.117-0.331,0.352-0.576c0.234-0.245,0.619-0.603,1.152-1.072   c0.533-0.469,1.051-0.906,1.552-1.312c0.501-0.405,0.821-0.608,0.96-0.608C7.281,9.714,7.351,9.811,7.351,10.002z M22.935,17.619   c0,0.106-0.106,0.267-0.319,0.479c-0.214,0.214-0.438,0.693-0.672,1.44c-0.32,1.045-0.736,2.213-1.248,3.504   c-0.513,1.29-0.944,2.261-1.296,2.912c-0.353,0.65-0.624,1.23-0.816,1.744c-0.128,0.361-0.32,0.543-0.576,0.543   s-0.934-0.346-2.032-1.039c-1.099-0.694-1.968-1.371-2.607-2.033c-0.641-0.661-0.96-1.172-0.96-1.535   c0-0.149,0.059-0.225,0.176-0.225s0.24,0.043,0.368,0.129c0.49,0.341,1.082,0.602,1.775,0.783s1.185,0.272,1.473,0.272   s0.527-0.086,0.72-0.257c0.192-0.17,0.453-0.592,0.784-1.264c0.33-0.672,0.613-1.424,0.848-2.256s0.353-1.492,0.353-1.984   c0-0.959-0.396-1.439-1.185-1.439c-0.362,0-0.907,0.139-1.632,0.416c-0.726,0.277-1.131,0.453-1.216,0.527   c-0.086,0.076-0.16,0.177-0.224,0.305c-0.47,0.875-1.072,1.686-1.809,2.432c-0.736,0.747-1.222,1.28-1.456,1.6   c-0.234,0.32-0.373,0.582-0.416,0.785s-0.063,0.479-0.063,0.832c0,0.352-0.048,0.602-0.145,0.752   c-0.096,0.148-0.464,0.384-1.104,0.703c-0.641,0.32-1.451,0.646-2.433,0.977c-0.981,0.33-1.643,0.496-1.984,0.496   s-0.651-0.043-0.928-0.129c-0.277-0.085-0.416-0.187-0.416-0.303c0-0.118,0.026-0.209,0.08-0.272   c0.053-0.063,0.49-0.347,1.312-0.849c0.821-0.501,1.584-0.98,2.288-1.439s1.359-1.051,1.968-1.775   c0.608-0.726,1.146-1.482,1.616-2.272c0.234-0.448,0.352-0.73,0.352-0.849c0-0.117-0.111-0.176-0.336-0.176   c-0.224,0-0.688,0.117-1.392,0.352c-0.704,0.236-1.163,0.433-1.376,0.593c-0.214,0.159-0.39,0.239-0.528,0.239   s-0.336-0.298-0.592-0.896c-0.256-0.597-0.384-0.997-0.384-1.2c0-0.202,0.064-0.33,0.192-0.384   c0.127-0.053,0.741-0.196,1.839-0.432s1.984-0.411,2.656-0.528s1.04-0.213,1.104-0.288c0.063-0.074,0.144-0.245,0.239-0.512   c0.097-0.267,0.177-0.597,0.24-0.992c0.064-0.395,0.128-0.677,0.192-0.848c0.063-0.17,0.234-0.256,0.512-0.256   s0.646,0.059,1.104,0.176c0.458,0.117,0.768,0.235,0.928,0.352s0.24,0.256,0.24,0.416c0,0.16-0.049,0.299-0.145,0.416   c-0.096,0.118-0.144,0.245-0.144,0.384c0,0.14,0.042,0.246,0.128,0.32c0.085,0.075,0.181,0.102,0.288,0.08   c0.938-0.148,1.771-0.225,2.496-0.225c1.216,0,2.213,0.22,2.991,0.656C22.546,17.016,22.935,17.362,22.935,17.619z M18.711,5.683   c0.704,0,1.45,0.053,2.24,0.16c0.789,0.107,1.424,0.347,1.904,0.72c0.479,0.374,1.056,0.965,1.728,1.776   c0.672,0.811,1.045,1.339,1.12,1.584c0.074,0.246,0.219,0.555,0.432,0.928c0.213,0.374,0.32,0.651,0.32,0.832   c0,0.182-0.069,0.315-0.208,0.4c-0.139,0.085-0.624,0.176-1.456,0.272s-1.521,0.144-2.064,0.144s-0.986-0.011-1.327-0.032   l-0.801-0.064c-0.234,0-0.438,0.171-0.607,0.512c-0.171,0.341-0.374,0.565-0.608,0.672c-0.234,0.107-0.598,0.16-1.088,0.16   c-0.491,0-0.838-0.09-1.04-0.272c-0.203-0.181-0.438-0.56-0.704-1.136c-0.267-0.576-0.399-1.024-0.399-1.344l0.031-0.768   c0-0.427-0.053-0.816-0.159-1.168c-0.107-0.352-0.278-0.528-0.513-0.528c-0.063,0-0.149,0.011-0.256,0.032l-1.536,0.32   c-0.256,0.043-0.427,0.096-0.512,0.16c-0.086,0.064-0.155,0.213-0.208,0.448c-0.054,0.235-0.08,0.491-0.08,0.768   c0,0.619,0.139,1.11,0.416,1.472c0.149,0.213,0.224,0.421,0.224,0.624c0,0.203-0.229,0.512-0.688,0.928   c-0.459,0.416-1.067,0.752-1.824,1.008c-0.758,0.256-1.222,0.384-1.392,0.384c-0.171,0-0.379-0.037-0.624-0.112   c-0.246-0.075-0.368-0.187-0.368-0.336c0-0.149,0.148-0.298,0.448-0.448c0.98-0.49,1.584-1.061,1.808-1.712   c0.224-0.65,0.336-1.21,0.336-1.68s-0.043-0.789-0.128-0.96c-0.086-0.171-0.256-0.256-0.512-0.256   c-0.556,0-1.046,0.182-1.473,0.544c-0.128,0.107-0.256,0.16-0.384,0.16c-0.277,0-0.416-0.192-0.416-0.576   c0-0.17,0.064-0.421,0.192-0.752C8.663,8.216,8.887,8.05,9.207,8.05s0.778-0.128,1.376-0.384c0.597-0.256,1.322-0.517,2.176-0.784   c0.854-0.266,1.467-0.41,1.84-0.432c0.373-0.021,0.923-0.155,1.648-0.4C16.972,5.806,17.794,5.683,18.711,5.683z M16.663,4.179   c0,0.107-0.06,0.331-0.176,0.672c-0.118,0.341-0.326,0.512-0.624,0.512c-0.299,0-0.88-0.202-1.744-0.608   c-0.864-0.405-1.296-0.938-1.296-1.6c0-0.32,0.122-0.789,0.368-1.408c0.244-0.619,0.554-0.997,0.928-1.136   c0.373-0.138,0.661-0.208,0.864-0.208c0.202,0,0.304,0.15,0.304,0.448c0,0.299,0.144,0.656,0.432,1.072s0.518,0.843,0.688,1.28   C16.577,3.64,16.663,3.965,16.663,4.179z M23.063,9.395c0-0.597-0.252-1.141-0.753-1.632s-1.199-0.736-2.096-0.736   c-0.427,0-0.854,0.096-1.28,0.288s-0.688,0.315-0.783,0.368c-0.097,0.053-0.16,0.166-0.192,0.336   c-0.032,0.171-0.091,0.357-0.176,0.56c-0.086,0.203-0.128,0.512-0.128,0.928s0.048,0.72,0.144,0.912s0.272,0.39,0.528,0.592   s0.533,0.357,0.832,0.464c0.298,0.107,0.538,0.16,0.72,0.16c0.181,0,0.587-0.106,1.216-0.32c0.629-0.213,1.115-0.48,1.456-0.8   C22.892,10.194,23.063,9.821,23.063,9.395z" stroke-width="1"/>
</g>
</svg>