<svg xmlns="http://www.w3.org/2000/svg" xmlns:xlink="http://www.w3.org/1999/xlink" version="1.1" id="图层_1" x="0px" y="0px" width="26.08900260925293" height="26.05799674987793" viewBox="1.5379986763000488 1.1510001420974731 26.08900260925293 26.05799674987793" enable-background="new 0 0 30 30" xml:space="preserve">
<g>
	<path fill="#0000FF" d="M12.343,10.643c0.234,0,0.427,0.213,0.576,0.64s0.224,0.768,0.224,1.024c0,0.256-0.139,0.448-0.416,0.576   c-0.043,0.021-0.181,0.144-0.416,0.368c-0.234,0.224-0.629,0.496-1.184,0.816c-0.235,0.128-0.352,0.4-0.352,0.816   s0.053,0.624,0.159,0.624s0.251-0.052,0.433-0.159c0.181-0.106,0.325-0.16,0.432-0.16s0.16,0.197,0.16,0.592   c0,0.396-0.32,1.009-0.96,1.841c-0.149,0.191-0.229,0.399-0.24,0.623c-0.011,0.225-0.016,1.328-0.016,3.313   s0.032,3.216,0.096,3.695c0.064,0.48,0.096,0.844,0.096,1.088c0,0.246-0.111,0.369-0.336,0.369c-0.224,0-0.618-0.118-1.184-0.353   c-0.565-0.235-0.848-0.47-0.848-0.704c0-0.064,0.031-0.149,0.096-0.256c0.277-0.384,0.416-0.8,0.416-1.248   c0-0.447-0.027-1.099-0.08-1.952c-0.054-0.853-0.086-1.419-0.096-1.696c-0.012-0.276-0.054-0.416-0.128-0.416   c-0.075,0-0.149,0.021-0.225,0.064s-0.39,0.326-0.943,0.848c-0.556,0.523-0.928,0.892-1.121,1.104   c-0.192,0.214-0.421,0.399-0.688,0.56s-0.464,0.311-0.592,0.448c-0.128,0.14-0.299,0.368-0.512,0.688   c-0.128,0.213-0.31,0.32-0.544,0.32c-0.235,0-0.646-0.246-1.232-0.736c-0.587-0.49-0.88-0.826-0.88-1.008s0.096-0.326,0.288-0.433   c0.981-0.576,1.909-1.216,2.784-1.92l3.232-2.528c0.192-0.148,0.314-0.304,0.368-0.464c0.053-0.159,0.08-0.442,0.08-0.848   c0-0.448-0.054-0.673-0.16-0.673s-0.256,0.043-0.448,0.129c-0.191,0.086-0.373,0.149-0.544,0.191   c-0.427,0.086-0.751,0.209-0.976,0.368c-0.224,0.16-0.379,0.24-0.464,0.24c-0.086,0-0.198-0.069-0.336-0.208   s-0.464-0.549-0.976-1.232c-0.512-0.683-0.838-1.173-0.976-1.472c-0.139-0.298-0.208-0.586-0.208-0.864   c0-1.515,0.128-2.715,0.384-3.6S4.62,7.73,4.919,7.73c0.384,0,0.928,0.235,1.632,0.704c0.704,0.469,1.057,0.854,1.057,1.152   c0,0.192-0.198,0.379-0.592,0.56c-0.395,0.182-0.923,0.592-1.584,1.232c-0.662,0.64-0.992,1.083-0.992,1.328   c0,0.246,0.08,0.48,0.24,0.704c0.16,0.224,0.373,0.336,0.64,0.336c0.267,0,0.784-0.197,1.552-0.592   c0.768-0.394,1.248-0.634,1.439-0.72c0.192-0.085,0.325-0.176,0.4-0.272c0.074-0.096,0.112-0.261,0.112-0.496   c0.042-2.347,0.122-4.176,0.24-5.488c0.116-1.312,0.176-2.352,0.176-3.12L9.207,2.163c0-0.341,0.106-0.512,0.32-0.512   c0.213,0,0.618,0.096,1.216,0.288c0.597,0.192,0.896,0.374,0.896,0.544c0,0.171-0.063,0.363-0.191,0.576   c-0.128,0.213-0.235,0.667-0.32,1.36c-0.086,0.693-0.16,1.669-0.224,2.928c-0.064,1.259-0.097,2.336-0.097,3.232   c0,0.235,0.075,0.352,0.225,0.352c0.148,0,0.378-0.048,0.688-0.144C12.028,10.69,12.236,10.643,12.343,10.643z M27.127,13.362   c0,0.128-0.08,0.288-0.24,0.48c-0.16,0.192-0.293,0.566-0.399,1.12c-0.171,1.024-0.646,2.635-1.424,4.833   c-0.779,2.197-1.36,3.637-1.744,4.32c-0.385,0.682-0.662,1.226-0.832,1.631c-0.171,0.405-0.396,0.608-0.672,0.608   c-0.192,0-0.721-0.277-1.584-0.832c-0.864-0.556-1.516-1.093-1.952-1.616c-0.438-0.522-0.656-0.837-0.656-0.943   c0-0.107,0.048-0.16,0.144-0.16c0.097,0,0.31,0.037,0.641,0.111c0.33,0.076,0.784,0.112,1.359,0.112   c0.576,0,0.971-0.069,1.185-0.208c0.213-0.139,0.501-0.597,0.864-1.376c0.362-0.778,0.692-1.78,0.991-3.008   c0.299-1.227,0.448-2.304,0.448-3.232s-0.085-1.482-0.256-1.664c-0.171-0.181-0.336-0.272-0.496-0.272s-0.293,0.053-0.4,0.16   c-0.106,0.107-0.325,0.512-0.655,1.216c-0.331,0.704-0.539,1.232-0.624,1.584c-0.086,0.352-0.262,0.684-0.528,0.992   s-0.479,0.661-0.64,1.056c-0.16,0.396-0.251,0.736-0.272,1.024c-0.021,0.287-0.063,0.485-0.128,0.592   c-0.063,0.107-0.336,0.379-0.815,0.816c-0.48,0.438-0.859,0.746-1.137,0.928s-0.619,0.336-1.023,0.464   c-0.406,0.128-0.812,0.299-1.216,0.512c-0.406,0.214-0.673,0.32-0.801,0.32s-0.191-0.08-0.191-0.24c0-0.159,0.267-0.565,0.8-1.216   s1.072-1.237,1.616-1.76c0.544-0.523,0.986-1.083,1.328-1.68l1.279-2.369c0.234-0.362,0.353-0.778,0.353-1.248   c0-0.661-0.149-0.992-0.448-0.992c-0.235,0-0.459,0.277-0.672,0.832c-0.214,0.555-0.438,1.03-0.672,1.424   c-0.235,0.396-0.619,0.843-1.152,1.344s-1.152,1.317-1.855,2.448c-0.278,0.447-0.608,0.672-0.992,0.672   c-0.684,0-1.024-0.16-1.024-0.48c0-0.319,0.08-0.597,0.24-0.832c0.16-0.234,0.581-0.682,1.264-1.344   c0.683-0.66,1.205-1.322,1.568-1.984c0.362-0.66,0.544-1.092,0.544-1.295c0-0.203-0.086-0.304-0.256-0.304   c-0.342,0-0.688,0.176-1.04,0.528c-0.353,0.352-0.763,0.528-1.232,0.528c-0.362,0-0.544-0.154-0.544-0.464   c0-0.309,0.123-0.661,0.368-1.056c0.245-0.395,0.576-0.981,0.992-1.76s0.698-1.349,0.848-1.712   c0.619-1.451,1.157-2.581,1.616-3.392c0.458-0.811,0.736-1.397,0.832-1.76c0.096-0.362,0.176-0.57,0.24-0.624   c0.063-0.053,0.234-0.08,0.512-0.08s0.533,0.107,0.768,0.32c0.235,0.213,0.544,0.491,0.929,0.832   c0.384,0.341,0.576,0.592,0.576,0.752s-0.3,0.571-0.896,1.232c-0.939,1.045-1.67,2.011-2.192,2.896   c-0.522,0.886-0.783,1.419-0.783,1.6c0,0.182,0.148,0.24,0.447,0.176c1.173-0.213,2.347-0.32,3.521-0.32   c1.983,0,3.509,0.208,4.576,0.624C26.594,12.643,27.127,13.021,27.127,13.362z" stroke-width="1"/>
</g>
</svg>