<svg xmlns="http://www.w3.org/2000/svg" xmlns:xlink="http://www.w3.org/1999/xlink" version="1.1" id="图层_1" x="0px" y="0px" width="30.69500160217285" height="27.560001373291016" viewBox="-0.027001678943634033 0.5750011205673218 30.69500160217285 27.560001373291016" enable-background="new 0 0 30 30" xml:space="preserve">
<g>
	<path fill="#0000FF" d="M17.143,20.531c0,0.447,0.944,1.173,2.832,2.176c1.889,1.002,3.057,1.546,3.504,1.631   c1.323,0.235,2.769,0.613,4.337,1.137c1.567,0.522,2.352,0.906,2.352,1.152c0,0.244-0.352,0.469-1.056,0.672   s-1.686,0.303-2.944,0.303l-2.528-0.063c-0.661,0-1.114,0.016-1.359,0.047c-0.246,0.033-0.454,0.049-0.624,0.049   c-0.171,0-0.31-0.08-0.416-0.24c-0.107-0.16-0.214-0.464-0.32-0.912c-0.192-0.768-0.624-1.445-1.296-2.031   c-0.672-0.587-1.531-1.009-2.576-1.265c-0.277-0.063-0.539-0.139-0.784-0.224c-0.245-0.086-0.459-0.129-0.64-0.129   c-0.182,0-0.379,0.107-0.592,0.32c-0.79,0.789-1.648,1.397-2.576,1.824c-0.928,0.426-1.729,0.641-2.4,0.641s-1.205-0.08-1.6-0.24   c-0.396-0.16-0.592-0.277-0.592-0.353s0.042-0.139,0.128-0.192c0.085-0.053,0.517-0.277,1.296-0.672   c0.778-0.395,1.349-0.672,1.712-0.832c0.362-0.16,0.8-0.432,1.312-0.815c0.513-0.384,0.838-0.661,0.977-0.832   s0.208-0.32,0.208-0.448c0-0.256-0.235-0.586-0.704-0.992c-0.47-0.404-1.056-0.73-1.76-0.976s-1.211-0.368-1.521-0.368   s-0.667,0.326-1.071,0.977c-0.406,0.65-0.614,1.307-0.624,1.967c-0.012,0.662-0.097,1.11-0.257,1.345   c-0.159,0.235-0.629,0.556-1.408,0.96c-0.779,0.405-1.691,0.736-2.736,0.992c-1.045,0.256-1.797,0.384-2.256,0.384   c-0.459,0-0.688-0.06-0.688-0.176c0-0.118,0.149-0.283,0.448-0.496c0.597-0.405,1.781-1.339,3.552-2.8   c1.771-1.461,3.243-3.217,4.416-5.264c1.173-2.049,1.761-3.275,1.761-3.681c0-0.192-0.097-0.288-0.288-0.288   c-0.192,0-0.486,0.059-0.881,0.176s-0.72,0.304-0.976,0.56c-0.256,0.256-0.448,0.384-0.576,0.384s-0.24-0.074-0.336-0.224   c-0.096-0.149-0.267-0.592-0.512-1.328c-0.246-0.736-0.368-1.216-0.368-1.44c0-0.224,0.096-0.378,0.288-0.464   c0.192-0.085,0.565-0.16,1.12-0.224c0.512-0.085,1.269-0.234,2.271-0.448c1.003-0.213,1.541-0.341,1.616-0.384   c0.074-0.043,0.154-0.117,0.24-0.224c0.085-0.106,0.202-0.421,0.352-0.944c0.149-0.522,0.288-1.072,0.416-1.648l0.801-3.616   c0.256-1.109,0.404-1.707,0.447-1.792c0.043-0.085,0.139-0.128,0.288-0.128s0.501,0.053,1.057,0.16   c0.554,0.107,0.832,0.278,0.832,0.512c0,0.107-0.044,0.24-0.129,0.4S16.13,2.61,16.023,3.059c-0.107,0.448-0.182,0.811-0.225,1.088   c-0.128,1.045-0.314,1.968-0.56,2.768c-0.246,0.8-0.368,1.291-0.368,1.472s0.096,0.272,0.288,0.272c0.085,0,0.789-0.16,2.111-0.48   c1.323-0.32,2.182-0.48,2.576-0.48s0.613,0.192,0.656,0.576c0.085,0.598,0.256,1.088,0.512,1.472   c0.149,0.256,0.225,0.528,0.225,0.816s-0.149,0.421-0.448,0.4c-0.299-0.021-0.576-0.032-0.832-0.032   c-0.789,0-1.691,0.144-2.704,0.432c-1.014,0.288-1.979,0.635-2.896,1.04c-0.363,0.15-0.651,0.395-0.864,0.736l-1.696,2.688   c-0.149,0.256-0.224,0.48-0.224,0.672c0,0.342,0.276,0.693,0.832,1.057l1.664,1.088c0.576,0.384,0.906,0.576,0.992,0.576   c0.17,0,0.362-0.277,0.575-0.832s0.32-1.019,0.32-1.393c0-0.373-0.027-0.635-0.08-0.783c-0.054-0.149-0.155-0.225-0.304-0.225   c-0.149,0-0.363,0.049-0.641,0.145s-0.56,0.144-0.848,0.144s-0.539-0.042-0.752-0.128c-0.214-0.085-0.32-0.191-0.32-0.32   c0-0.234,0.518-0.57,1.553-1.008c1.034-0.437,1.872-0.656,2.512-0.656s1.307,0.133,2,0.4c0.693,0.267,1.04,0.518,1.04,0.752   c0,0.085-0.069,0.176-0.208,0.271c-0.139,0.097-0.277,0.252-0.416,0.465s-0.4,0.725-0.784,1.535c-0.384,0.812-0.741,1.479-1.072,2   C17.308,20.109,17.143,20.424,17.143,20.531z" stroke-width="1"/>
</g>
</svg>