<svg xmlns="http://www.w3.org/2000/svg" xmlns:xlink="http://www.w3.org/1999/xlink" version="1.1" id="图层_1" x="0px" y="0px" width="25.512996673583984" height="26.536001205444336" viewBox="3.2980005741119385 1.0869998931884766 25.512996673583984 26.536001205444336" enable-background="new 0 0 30 30" xml:space="preserve">
<g>
	<path fill="#0000FF" d="M18.807,17.619c0,0.106,0.069,0.229,0.208,0.367s0.518,0.432,1.137,0.881   c0.618,0.447,1.162,0.783,1.632,1.008c0.469,0.224,1.088,0.453,1.855,0.688c3.115,0.918,4.672,1.59,4.672,2.016   c0,0.086-0.048,0.155-0.144,0.209c-0.096,0.053-0.432,0.133-1.008,0.239s-1.248,0.16-2.017,0.16c-0.768,0-1.738-0.149-2.911-0.448   c-0.129-0.021-0.225-0.031-0.288-0.031c-0.278,0-0.651,0.271-1.12,0.815c-0.47,0.544-0.715,1.285-0.736,2.224   c0,0.299-0.048,0.507-0.144,0.625c-0.097,0.116-0.262,0.186-0.496,0.207c-1.729,0.064-2.987,0.225-3.776,0.48   c-0.128,0.043-0.293,0.064-0.496,0.064S14.77,27,14.567,26.754c-0.203-0.245-0.47-0.789-0.801-1.631   c-0.331-0.844-0.592-1.744-0.783-2.705c-0.043-0.276-0.16-0.416-0.353-0.416c-0.299,0-0.565,0.14-0.8,0.416   c-0.768,0.832-1.355,1.366-1.76,1.601c-1.451,0.789-2.582,1.435-3.392,1.937c-0.811,0.5-1.398,0.752-1.76,0.752   c-0.107,0-0.182-0.017-0.224-0.049c-0.043-0.031-0.123-0.127-0.24-0.287c-0.118-0.16-0.256-0.336-0.416-0.529   c-0.16-0.191-0.24-0.373-0.24-0.543c0-0.172,0.064-0.315,0.192-0.432c0.128-0.118,0.41-0.272,0.848-0.465   c0.437-0.191,0.704-0.32,0.8-0.384c0.096-0.063,0.144-0.154,0.144-0.272c0-0.117-0.016-0.261-0.048-0.432   c-0.032-0.17-0.091-0.641-0.176-1.408c-0.085-0.768-0.128-1.221-0.128-1.359S5.5,20.27,5.639,20.131   c0.138-0.139,0.32-0.209,0.544-0.209s0.448,0.055,0.672,0.16c0.224,0.107,0.315,0.353,0.272,0.736   c-0.043,0.385-0.064,0.684-0.064,0.896c0,1.023,0.138,1.535,0.416,1.535c0.107,0,0.294-0.068,0.561-0.207s0.41-0.32,0.432-0.545   c0.021-0.224,0.032-0.72,0.032-1.487c0-0.769-0.021-1.302-0.063-1.601c-0.044-0.299-0.192-0.521-0.448-0.672   c-0.556-0.341-1.003-0.795-1.344-1.359c-0.341-0.565-0.512-1.104-0.512-1.616c0-0.875,0.437-1.387,1.313-1.536   c0.874-0.149,1.541-0.288,2-0.416c0.458-0.128,0.842-0.192,1.151-0.192s0.721,0.085,1.232,0.256c0.512,0.171,0.821,0.304,0.928,0.4   c0.106,0.096,0.16,0.208,0.16,0.336s-0.069,0.288-0.208,0.48c-0.139,0.192-0.262,0.427-0.368,0.705s-0.271,0.501-0.496,0.672   c-0.224,0.171-0.405,0.373-0.544,0.607c-0.139,0.235-0.239,0.459-0.304,0.672c-0.064,0.214-0.214,0.342-0.448,0.385   s-0.395,0.148-0.479,0.32c-0.086,0.17-0.128,0.404-0.128,0.703c0,0.15,0.096,0.225,0.288,0.225l0.832-0.096   c0.17,0,0.256,0.085,0.256,0.256c0,0.447-0.385,0.885-1.152,1.312c-0.149,0.063-0.245,0.14-0.288,0.224   c-0.043,0.086-0.063,0.305-0.063,0.656s0.063,0.527,0.191,0.527c0.064,0,0.24-0.058,0.528-0.176   c0.288-0.117,0.592-0.207,0.912-0.271c0.234-0.064,0.49-0.219,0.768-0.464s0.624-0.517,1.04-0.815s0.934-0.747,1.552-1.345   c0.619-0.597,0.96-0.933,1.024-1.008c0.063-0.075,0.101-0.171,0.112-0.288c0.01-0.117-0.14-0.229-0.448-0.336   c-0.31-0.106-0.667-0.16-1.072-0.16c-0.213,0-0.395,0.075-0.544,0.225c-0.491,0.49-0.938,0.735-1.344,0.735   c-0.192,0-0.288-0.069-0.288-0.208s0.085-0.314,0.256-0.527c0.469-0.555,1.051-1.436,1.744-2.641s1.082-1.936,1.168-2.192   c0.128-0.427,0.288-0.64,0.479-0.64c0.192,0,0.485,0.102,0.881,0.304c0.395,0.203,0.634,0.336,0.72,0.4   c0.085,0.064,0.176,0.107,0.271,0.128c0.097,0.021,0.342,0.032,0.736,0.032s0.938,0.096,1.632,0.288   c0.693,0.192,1.04,0.395,1.04,0.608c0,0.149-0.111,0.352-0.336,0.608c-0.224,0.256-0.619,0.811-1.184,1.664   C19.09,17.032,18.807,17.512,18.807,17.619z M6.007,9.683c0.085,0,0.16,0.038,0.224,0.112c0.064,0.075,0.101,0.32,0.112,0.736   c0.011,0.416,0.027,0.72,0.048,0.912l0.096,0.544c0,0.384-0.171,0.576-0.512,0.576c-0.256,0-0.614-0.042-1.072-0.128   c-0.459-0.085-0.736-0.176-0.832-0.272c-0.096-0.096-0.144-0.219-0.144-0.368c0-0.149,0.053-0.304,0.16-0.464   c0.106-0.16,0.277-0.347,0.512-0.56c0.234-0.213,0.501-0.448,0.8-0.704C5.697,9.811,5.9,9.683,6.007,9.683z M18.903,5.778   c1.045,0,1.888,0.123,2.527,0.368c0.641,0.246,1.222,0.688,1.744,1.328s1.019,1.28,1.488,1.92c0.469,0.64,0.704,1.072,0.704,1.296   s-0.08,0.384-0.24,0.48c-0.16,0.096-0.496,0.182-1.008,0.256s-1.008,0.112-1.488,0.112c-0.479,0-0.955-0.042-1.424-0.128   c-0.47-0.085-0.864-0.128-1.184-0.128c-0.15,0-0.315,0.091-0.496,0.272c-0.182,0.181-0.464,0.272-0.849,0.272   c-0.683,0-1.189-0.165-1.52-0.496c-0.331-0.331-0.507-0.997-0.528-2c-0.021-0.619-0.102-1.077-0.24-1.376   c-0.139-0.298-0.288-0.448-0.447-0.448c-0.16,0-0.4,0.064-0.721,0.192c-0.319,0.128-0.507,0.261-0.56,0.4   c-0.054,0.139-0.102,0.501-0.145,1.088c-0.043,0.587-0.063,1.104-0.063,1.552l0.032,1.152c0,0.235-0.048,0.405-0.145,0.512   c-0.096,0.107-0.288,0.203-0.576,0.288c-0.288,0.085-0.518,0.128-0.688,0.128c-0.277,0-0.416-0.096-0.416-0.288   c0-0.192,0.037-0.416,0.112-0.672c0.074-0.256,0.111-0.592,0.111-1.008s-0.026-0.789-0.08-1.12   c-0.053-0.331-0.102-0.667-0.144-1.008c-0.021-0.149-0.096-0.224-0.224-0.224c-0.129,0-0.396,0.043-0.801,0.128   c-0.405,0.085-0.715,0.379-0.928,0.88c-0.214,0.501-0.32,0.838-0.32,1.008c0,0.171,0.032,0.357,0.097,0.56   c0.063,0.203,0.096,0.368,0.096,0.496c0,0.342-0.288,0.662-0.864,0.96s-0.992,0.448-1.248,0.448c-0.106,0-0.16-0.059-0.16-0.176   s0.069-0.336,0.208-0.656s0.305-0.608,0.496-0.864c0.192-0.256,0.288-0.597,0.288-1.024c0-0.81-0.182-1.216-0.544-1.216   c-0.128,0-0.299,0.032-0.512,0.096C8.033,9.203,7.863,9.234,7.735,9.234S7.543,9.166,7.543,9.026c0-0.138,0.106-0.32,0.32-0.544   c0.213-0.224,0.549-0.416,1.008-0.576c0.458-0.16,1.53-0.475,3.216-0.944c0.192-0.042,0.314-0.128,0.368-0.256   c0.053-0.128,0.08-0.405,0.08-0.832c0-0.426-0.086-0.64-0.256-0.64c-0.171,0-0.348,0.021-0.528,0.064   c-0.182,0.043-0.336,0.064-0.464,0.064c-0.491,0-0.901-0.272-1.232-0.816S9.559,3.619,9.559,3.395s0.054-0.384,0.16-0.48   s0.256-0.144,0.448-0.144h0.544c0.661,0,1.333-0.112,2.016-0.336s1.531-0.421,2.544-0.592c1.014-0.17,1.633-0.256,1.856-0.256   s0.373,0.054,0.448,0.16c0.074,0.107,0.111,0.341,0.111,0.704s-0.043,0.597-0.128,0.704c-0.085,0.107-0.331,0.278-0.735,0.512   c-0.405,0.235-0.736,0.405-0.992,0.512s-0.427,0.208-0.512,0.304c-0.086,0.096-0.171,0.32-0.256,0.672   c-0.086,0.352-0.129,0.608-0.129,0.768c0,0.16,0.043,0.24,0.129,0.24c0.085,0,0.181-0.011,0.287-0.032   C16.396,5.896,17.58,5.778,18.903,5.778z M9.111,17.139c0.341,0,0.603-0.128,0.783-0.385c0.182-0.256,0.272-0.543,0.272-0.863   c0-0.576-0.192-0.864-0.576-0.864c-0.32,0-0.592,0.144-0.815,0.432c-0.225,0.288-0.336,0.64-0.336,1.056S8.663,17.139,9.111,17.139   z M20.983,21.043c0-0.598-0.47-1.104-1.408-1.521c-0.939-0.416-1.504-0.624-1.696-0.624s-0.342,0.054-0.448,0.16   c-0.512,0.447-1.27,1.035-2.271,1.76c-0.214,0.15-0.32,0.268-0.32,0.352c0,0.15,0.192,0.225,0.576,0.225   c0.171,0,0.533-0.068,1.088-0.208c0.555-0.139,1.162-0.208,1.824-0.208c0.661,0,1.205,0.059,1.632,0.176s0.704,0.176,0.832,0.176   S20.983,21.234,20.983,21.043z M16.311,24.946c0.257,0,0.598-0.079,1.024-0.239s0.715-0.416,0.864-0.769   c0.148-0.353,0.224-0.634,0.224-0.849c0-0.532-0.31-0.799-0.928-0.799c-0.491,0-0.949,0.148-1.376,0.447s-0.641,0.693-0.641,1.184   C15.479,24.605,15.756,24.946,16.311,24.946z M18.103,14.867c0-0.405-0.229-0.608-0.688-0.608c-0.459,0-0.88,0.155-1.264,0.464   c-0.385,0.31-0.576,0.523-0.576,0.64c0,0.118,0.09,0.235,0.271,0.353s0.427,0.287,0.736,0.512c0.309,0.225,0.522,0.336,0.64,0.336   s0.293-0.234,0.528-0.704C17.985,15.39,18.103,15.059,18.103,14.867z M20.311,10.579c0.405,0,0.849-0.149,1.328-0.448   c0.48-0.298,0.721-0.757,0.721-1.376c0-0.469-0.16-0.896-0.48-1.28c-0.32-0.384-0.815-0.576-1.488-0.576   c-0.672,0-1.088,0.038-1.248,0.112c-0.159,0.075-0.362,0.331-0.607,0.768c-0.246,0.438-0.368,0.795-0.368,1.072   c0,0.512,0.362,0.821,1.088,0.928c0.405,0.064,0.646,0.214,0.72,0.448C20.05,10.461,20.161,10.579,20.311,10.579z" stroke-width="1"/>
</g>
</svg>