<svg xmlns="http://www.w3.org/2000/svg" xmlns:xlink="http://www.w3.org/1999/xlink" version="1.1" id="图层_1" x="0px" y="0px" width="23.687999725341797" height="27.782001495361328" viewBox="2.8829996585845947 0.7350003719329834 23.687999725341797 27.782001495361328" enable-background="new 0 0 30 30" xml:space="preserve">
<g>
	<path fill="#0000FF" d="M6.743,11.154c0,0.107-0.021,0.214-0.064,0.32c-0.256,0.576-0.384,1.056-0.384,1.44s0.026,0.709,0.08,0.976   c0.053,0.267,0.08,0.464,0.08,0.592c0,0.342-0.107,0.512-0.32,0.512s-0.597-0.064-1.152-0.192c-0.555-0.128-0.96-0.25-1.216-0.368   c-0.256-0.117-0.384-0.25-0.384-0.4c0-0.149,0.187-0.48,0.56-0.992c0.373-0.512,0.837-1.019,1.392-1.52   c0.555-0.501,0.928-0.752,1.12-0.752S6.743,10.898,6.743,11.154z M24.247,19.539c0.171,0,0.405,0.41,0.704,1.231   c0.298,0.821,0.469,1.499,0.512,2.032c0.085,0.918,0.208,1.781,0.368,2.592s0.24,1.301,0.24,1.473c0,0.17-0.08,0.309-0.24,0.416   c-0.16,0.105-0.496,0.213-1.008,0.318c-0.513,0.107-1.499,0.203-2.96,0.289c-1.462,0.084-2.747,0.127-3.856,0.127   s-1.808-0.059-2.096-0.176s-0.688-0.336-1.2-0.656c-0.512-0.318-0.886-0.654-1.12-1.007s-0.352-0.769-0.352-1.248   s0.026-1.04,0.08-1.681c0.053-0.64,0.08-1.178,0.08-1.615s-0.043-0.801-0.129-1.088c-0.085-0.289-0.191-0.432-0.319-0.432   s-0.235,0.043-0.32,0.127c-0.384,0.448-0.747,0.844-1.088,1.185c-1.195,1.088-1.813,2.059-1.856,2.911   c-0.021,0.214-0.069,0.353-0.144,0.416c-0.075,0.064-0.262,0.145-0.56,0.24c-0.3,0.096-0.758,0.289-1.376,0.576   c-0.62,0.288-1.334,0.432-2.145,0.432c-0.811,0-1.216-0.063-1.216-0.191c0-0.086,0.32-0.342,0.96-0.768l2.56-1.696   c1.473-0.938,2.651-2.177,3.536-3.712c0.886-1.536,1.413-3.264,1.584-5.184c0.021-0.213,0.112-0.357,0.272-0.432   c0.16-0.075,0.453-0.112,0.88-0.112s0.64,0.101,0.64,0.304c0,0.203-0.048,0.427-0.144,0.672c-0.096,0.246-0.149,0.512-0.16,0.8   s-0.016,0.575-0.016,0.864c0,0.287-0.043,0.564-0.128,0.832c-0.086,0.267-0.129,0.496-0.129,0.688s0.075,0.31,0.225,0.352   c0.49,0.15,0.736,0.289,0.736,0.416c0,0.129-0.032,0.272-0.097,0.433c-0.063,0.16-0.096,0.336-0.096,0.528   c0,0.191,0.139,0.287,0.416,0.287c0.683,0,1.023-0.453,1.023-1.359s-0.048-2.102-0.144-3.584s-0.272-2.373-0.528-2.672   c-0.256-0.298-0.565-0.448-0.928-0.448c-0.363,0-0.726,0.085-1.088,0.256c-0.363,0.171-0.752,0.448-1.168,0.832   c-0.416,0.384-0.683,0.678-0.8,0.88c-0.118,0.203-0.256,0.619-0.416,1.248c-0.16,0.63-0.262,1.125-0.305,1.488   s-0.063,0.826-0.063,1.393c0,0.564-0.016,0.906-0.048,1.023s-0.145,0.229-0.336,0.336c-0.192,0.107-0.374,0.16-0.544,0.16   c-0.171,0-0.294-0.08-0.368-0.24c-0.075-0.16-0.16-0.576-0.256-1.248c-0.097-0.672-0.145-1.232-0.145-1.68   c0-0.448,0.017-1.131,0.048-2.048c0.032-0.917,0.075-1.461,0.128-1.632c0.054-0.17,0.277-0.304,0.673-0.4   c0.395-0.096,0.837-0.272,1.327-0.528c0.491-0.256,1.387-0.544,2.688-0.864c1.301-0.32,2.133-0.48,2.496-0.48   c0.362,0,0.784,0.053,1.264,0.16c0.48,0.107,0.769,0.219,0.864,0.336s0.122,0.373,0.08,0.768c-0.043,0.395-0.064,0.832-0.064,1.312   s0.021,0.944,0.064,1.392c0.042,0.448,0.063,0.896,0.063,1.344c0,0.448-0.011,0.79-0.031,1.024c-0.021,0.235-0.032,0.635-0.032,1.2   s0.026,1.221,0.08,1.968c0.053,0.747,0.08,1.142,0.08,1.185c0,0.683-0.182,1.023-0.544,1.023c-0.363,0-1.408-0.544-3.137-1.632   c-0.128-0.085-0.229-0.128-0.304-0.128c-0.075,0-0.128,0.059-0.16,0.176s-0.08,0.496-0.144,1.136   c-0.064,0.64-0.097,1.206-0.097,1.696c0,0.917,0.197,1.547,0.593,1.888c0.395,0.341,1.162,0.513,2.304,0.513   c1.141,0,2.224-0.064,3.248-0.192c1.023-0.128,1.643-0.256,1.855-0.384c0.214-0.129,0.422-0.305,0.624-0.528   c0.203-0.224,0.385-0.874,0.544-1.952c0.16-1.076,0.257-1.893,0.288-2.447C24.007,19.816,24.098,19.539,24.247,19.539z    M11.735,6.323c0,0.213-0.027,0.389-0.08,0.528C11.602,6.99,11.5,7.08,11.351,7.123c-0.149,0.043-0.362,0.059-0.64,0.048   c-0.277-0.01-0.565-0.016-0.864-0.016H8.855c-0.32,0-0.593-0.298-0.816-0.896c-0.224-0.597-0.336-0.997-0.336-1.2   c0-0.203,0.059-0.437,0.176-0.704c0.117-0.267,0.224-0.426,0.32-0.48c0.096-0.053,0.288-0.08,0.576-0.08s0.57,0.149,0.848,0.448   s0.736,0.672,1.376,1.12C11.489,5.662,11.735,5.981,11.735,6.323z M17.111,6.867c0,0.235,0.106,0.363,0.319,0.384l1.889,0.224   c1.194,0.149,2.068,0.443,2.624,0.88c0.554,0.438,0.97,0.859,1.248,1.264c0.618,1.003,1.088,1.712,1.407,2.128   c0.32,0.416,0.48,0.715,0.48,0.896c0,0.182-0.075,0.315-0.224,0.4c-0.15,0.085-0.363,0.128-0.641,0.128l-0.8-0.032   c-0.256,0-0.55,0.027-0.88,0.08c-0.331,0.053-0.72,0.08-1.168,0.08s-0.859-0.048-1.232-0.144c-0.373-0.096-0.56-0.202-0.56-0.32   c0-0.117,0.191-0.272,0.576-0.464c1.194-0.619,1.792-1.301,1.792-2.048c0-0.512-0.326-0.939-0.977-1.28   c-0.65-0.341-1.478-0.512-2.479-0.512c-1.408,0-2.859,0.309-4.353,0.928c-1.003,0.384-1.76,0.603-2.271,0.656   c-0.513,0.053-1.147,0.171-1.904,0.352c-0.758,0.182-1.259,0.336-1.504,0.464s-0.427,0.192-0.544,0.192s-0.176-0.117-0.176-0.352   c0-0.234,0.037-0.426,0.111-0.576c0.075-0.149,0.262-0.288,0.561-0.416c2.347-0.981,3.803-1.605,4.368-1.872   c0.564-0.267,0.991-0.453,1.279-0.56c0.288-0.106,0.475-0.213,0.561-0.32c0.64-1.024,1.413-2.17,2.319-3.44   c0.907-1.269,1.408-1.979,1.505-2.128c0.096-0.149,0.229-0.224,0.399-0.224s0.533,0.198,1.088,0.592   c0.555,0.395,0.832,0.667,0.832,0.816c0,0.149-0.139,0.331-0.416,0.544c-0.704,0.534-1.419,1.211-2.144,2.032   C17.474,6.04,17.111,6.589,17.111,6.867z M14.839,4.818c0,0.128-0.043,0.272-0.128,0.432s-0.24,0.24-0.464,0.24   s-0.619-0.128-1.184-0.384c-0.566-0.256-0.907-0.48-1.024-0.672s-0.176-0.416-0.176-0.672c0-0.683,0.111-1.184,0.336-1.504   c0.224-0.32,0.432-0.48,0.624-0.48c0.191,0,0.33,0.075,0.416,0.224c0.148,0.363,0.453,0.832,0.912,1.408   C14.609,3.986,14.839,4.456,14.839,4.818z" stroke-width="1"/>
</g>
</svg>