<svg xmlns="http://www.w3.org/2000/svg" xmlns:xlink="http://www.w3.org/1999/xlink" version="1.1" id="图层_1" x="0px" y="0px" width="21.416000366210938" height="24.678997039794922" viewBox="3.8749990463256836 3.9040017127990723 21.416000366210938 24.678997039794922" enable-background="new 0 0 30 30" xml:space="preserve">
<g>
	<path fill="#0000FF" d="M7.415,13.811c0,0.171-0.096,0.48-0.288,0.928c-0.341,0.768-0.523,1.541-0.544,2.32   c-0.021,0.779-0.118,1.729-0.288,2.848c-0.171,1.12-0.256,1.756-0.256,1.904l0.16,1.632c0,0.427-0.16,0.726-0.48,0.896   c-0.32,0.171-0.624,0.257-0.912,0.257s-0.432-0.214-0.432-0.64c0-0.171,0.021-0.363,0.064-0.576   c0.042-0.213,0.064-1.024,0.064-2.433c0-1.407,0.032-2.815,0.096-4.224s0.096-2.485,0.096-3.232c0-0.533,0.149-0.8,0.448-0.8   c0.128,0,0.384,0.08,0.768,0.24c0.384,0.16,0.73,0.288,1.04,0.384C7.26,13.411,7.415,13.576,7.415,13.811z M7.159,5.298   c0.128,0,0.256,0.16,0.384,0.48c0.128,0.32,0.352,0.619,0.672,0.896c0.96,0.875,1.44,1.568,1.44,2.08   c0,0.683-0.299,1.024-0.896,1.024c-0.256,0-0.491-0.032-0.704-0.096S7.617,9.506,7.383,9.347c-0.235-0.16-0.432-0.283-0.592-0.368   c-0.16-0.085-0.267-0.176-0.32-0.272c-0.054-0.096-0.08-0.464-0.08-1.104s0.085-1.184,0.256-1.632   C6.817,5.522,6.988,5.298,7.159,5.298z M18.423,11.442c0,0.128-0.063,0.304-0.191,0.528c-0.129,0.224-0.214,0.613-0.257,1.168   s-0.069,1.483-0.08,2.783c-0.011,1.303-0.037,2.406-0.079,3.313c-0.043,0.907-0.102,1.456-0.177,1.648   c-0.074,0.191-0.219,0.287-0.432,0.287c-0.214,0-0.581-0.224-1.104-0.672c-0.522-0.447-0.896-0.811-1.119-1.088   c-0.225-0.277-0.465-0.416-0.721-0.416s-0.741,0.092-1.456,0.272c-0.715,0.182-1.168,0.368-1.359,0.56   c-0.128,0.107-0.277,0.16-0.448,0.16s-0.342-0.117-0.512-0.352c-0.171-0.234-0.348-0.821-0.528-1.76   c-0.182-0.939-0.272-1.984-0.272-3.137c0-1.152,0.049-1.845,0.145-2.08s0.357-0.475,0.784-0.72c0.426-0.245,1.264-0.565,2.512-0.96   c1.248-0.395,2.133-0.592,2.656-0.592c0.522,0,1.093,0.085,1.712,0.256C18.113,10.813,18.423,11.08,18.423,11.442z M14.871,17.17   c0.555,0,0.832-0.389,0.832-1.168c0-0.778-0.08-1.546-0.24-2.303s-0.373-1.259-0.64-1.504c-0.268-0.245-0.556-0.368-0.864-0.368   c-0.31,0-0.672,0.059-1.088,0.176c-0.416,0.118-0.672,0.363-0.769,0.736c-0.096,0.374-0.144,0.651-0.144,0.832   c0,0.182,0.154,0.24,0.464,0.176s0.581-0.096,0.816-0.096c0.576,0,0.863,0.208,0.863,0.624s-0.128,0.747-0.384,0.992   s-0.8,0.539-1.632,0.88c-0.277,0.149-0.416,0.428-0.416,0.832c0,0.405,0.085,0.587,0.256,0.544l1.152-0.192   c0.427-0.084,0.778-0.133,1.056-0.144S14.657,17.17,14.871,17.17z M23.831,10.323l0.192,4c0.063,1.515,0.096,2.859,0.096,4.032   s0.069,2.704,0.208,4.592s0.25,3.089,0.336,3.601c0.085,0.512,0.128,0.832,0.128,0.959c0,0.385-0.176,0.576-0.528,0.576   c-0.352,0-1.029-0.17-2.031-0.512c-1.004-0.342-1.964-0.746-2.881-1.216s-1.509-0.827-1.775-1.071   c-0.268-0.246-0.4-0.433-0.4-0.561s0.074-0.191,0.225-0.191c0.148,0,0.33,0.058,0.544,0.176c0.213,0.117,0.517,0.186,0.912,0.207   c0.394,0.021,0.815,0.075,1.264,0.16c0.448,0.086,0.692,0.129,0.736,0.129c0.426,0,0.72-0.3,0.88-0.896   c0.159-0.598,0.239-1.813,0.239-3.648c0-0.874-0.037-1.621-0.111-2.24c-0.075-0.618-0.171-1.936-0.288-3.952   c-0.118-2.016-0.197-3.712-0.24-5.088s-0.192-2.267-0.448-2.672c-0.256-0.405-0.768-0.608-1.536-0.608   c-0.768,0-1.797,0.213-3.088,0.64c-1.291,0.427-2.352,0.95-3.184,1.568c-0.214,0.149-0.379,0.224-0.496,0.224   s-0.208-0.101-0.272-0.304c-0.063-0.203-0.171-0.4-0.319-0.592c-0.149-0.192-0.225-0.378-0.225-0.56s0.123-0.293,0.368-0.336   c0.245-0.042,0.73-0.245,1.456-0.608c0.726-0.362,1.877-0.741,3.456-1.136c1.579-0.395,2.704-0.592,3.376-0.592   s1.248,0.166,1.729,0.496c0.479,0.331,0.933,0.688,1.359,1.072c0.427,0.384,0.641,0.757,0.641,1.12c0,0.15-0.054,0.411-0.16,0.784   C23.884,8.248,23.831,9.064,23.831,10.323z" stroke-width="1"/>
</g>
</svg>