<svg xmlns="http://www.w3.org/2000/svg" xmlns:xlink="http://www.w3.org/1999/xlink" version="1.1" id="图层_1" x="0px" y="0px" width="31.362743377685547" height="20.500999450683594" viewBox="-1.6460628509521484 3.5830001831054688 31.362743377685547 20.500999450683594" enable-background="new 0 0 30 30" xml:space="preserve">
<g>
	<path fill="#0000FF" d="M1.667,11.083c0.666,0.334,1.5,0.668,2.5,1c0.832,0.168,1.75,0.334,2.75,0.5   c0.5,0.168,0.582,0.418,0.25,0.75c-0.668,0.168-1.334,0.334-2,0.5c-1.334,0.334-2.668,0.5-4,0.5c-1.168,0-1.918-0.416-2.25-1.25   c-0.168-0.5,0-1,0.5-1.5C0.083,10.917,0.833,10.75,1.667,11.083z M3.417,18.082c1-0.332,2-0.666,3-1c0.832-0.5,1.75-1,2.75-1.5   c0.332,0,0.5,0.25,0.5,0.75C9.333,17,8.749,17.75,7.917,18.582c-0.834,0.834-1.75,1.584-2.75,2.25c-0.668,0.334-1.334,0.584-2,0.75   c-1,0.168-1.668-0.25-2-1.25C0.833,19.332,1.583,18.582,3.417,18.082z M2.667,5.583c0.666-0.5,1.666-0.332,3,0.5   c0.666,0.334,1.332,0.75,2,1.25c1.332,0.668,2,1.084,2,1.25c0.166,0.334,0,0.5-0.5,0.5c-1.834,0-3.584-0.166-5.25-0.5   c-0.668-0.166-1.25-0.416-1.75-0.75C1.499,7.167,1.667,6.417,2.667,5.583z M10.167,10.833c0.166-0.5,0.582-0.666,1.25-0.5   c0.332,0.168,0.75,0.25,1.25,0.25h9.75c0.332,0,0.666-0.082,1-0.25c0.832-0.166,1.416,0.084,1.75,0.75c0.166,0.5,0.166,1,0,1.5   c-0.334,1.168-0.584,2.168-0.75,3c-0.5,0.834-0.918,1.084-1.25,0.75c-0.5-0.166-0.918-0.332-1.25-0.5h-9.25   c-0.5,0.168-0.668,0.668-0.5,1.5c0.332,0.834,1.166,1.5,2.5,2c6,1.168,10.832,0.918,14.5-0.75c0.166,0.334-0.084,1.084-0.75,2.25   c-0.834,1-1.75,1.75-2.75,2.25c-1.5,0.668-3.75,0.668-6.75,0c-3.5-0.832-6.084-1.832-7.75-3c-1-1-1.418-2.082-1.25-3.25   C10.249,15.333,10.333,13.333,10.167,10.833z M13.167,4.083c2.832,0.334,5.416,0.334,7.75,0c1.332,0,2,0.5,2,1.5   c-0.334,0.834-0.5,1.75-0.5,2.75c-0.168,1.168-1,1.5-2.5,1c-0.5-0.166-2.25-0.166-5.25,0c-1.668,0.5-2.5,0.334-2.5-0.5   c0-1.332-0.168-2.5-0.5-3.5C11.667,4.667,12.167,4.25,13.167,4.083z M13.167,12.083c-0.5,0.168-0.75,0.5-0.75,1   s0.082,0.918,0.25,1.25c0.832,0.168,2,0.168,3.5,0c0.332-0.5,0.332-1.25,0-2.25H13.167z M14.667,7.833h4.75   c0.5,0,0.75-0.25,0.75-0.75c0.166-0.666-0.334-1.082-1.5-1.25h-4C14.167,6.167,14.167,6.833,14.667,7.833z M21.917,12.083   c-2.334-0.166-3.418-0.082-3.25,0.25c-0.334,1.5,0.166,2.168,1.5,2c1.5,0,2.25-0.166,2.25-0.5   C22.749,12.833,22.583,12.25,21.917,12.083z" stroke-width="1"/>
</g>
</svg>