<svg xmlns="http://www.w3.org/2000/svg" xmlns:xlink="http://www.w3.org/1999/xlink" version="1.1" id="图层_1" x="0px" y="0px" width="23.07900047302246" height="23.27199935913086" viewBox="3.0440001487731934 3.5500001907348633 23.07900047302246 23.27199935913086" enable-background="new 0 0 30 30" xml:space="preserve">
<g>
	<path fill="#0000FF" d="M9.143,14.035c0.149,0,0.225,0.374,0.225,1.12c0,1.195-0.268,2.678-0.8,4.448   c-0.534,1.771-1.132,3.051-1.792,3.84c-0.341,0.427-0.587,0.747-0.736,0.96c-0.149,0.213-0.293,0.32-0.432,0.32   c-0.139,0-0.251-0.049-0.336-0.145c-0.085-0.096-0.299-0.5-0.64-1.216c-0.341-0.714-0.608-1.61-0.8-2.688   c-0.192-1.076-0.288-2.271-0.288-3.584c0-1.312,0.09-2.511,0.272-3.599c0.181-1.088,0.341-1.749,0.48-1.984   c0.139-0.234,0.304-0.352,0.496-0.352s0.586,0.112,1.184,0.336c0.597,0.224,0.896,0.517,0.896,0.88   c0,0.299-0.229,0.677-0.688,1.136c-0.459,0.459-0.848,1.248-1.168,2.369c-0.32,1.119-0.48,2.357-0.48,3.711   c0,1.355,0.256,2.033,0.768,2.033c0.341,0,0.768-0.299,1.28-0.896s1.269-2.635,2.272-6.112C8.962,14.227,9.058,14.035,9.143,14.035   z M9.783,8.21c0,0.192-0.038,0.438-0.112,0.736c-0.075,0.299-0.197,0.47-0.368,0.512C9.132,9.501,8.967,9.522,8.807,9.522   c-0.159,0-0.399-0.059-0.72-0.176S7.516,9.102,7.335,8.962C7.153,8.824,6.86,8.648,6.455,8.435   C6.178,8.243,6.039,7.944,6.039,7.539s0.053-1.019,0.16-1.84c0.106-0.821,0.229-1.301,0.368-1.44C6.706,4.12,6.85,4.05,6.999,4.05   c0.149,0,0.299,0.096,0.448,0.288l1.088,1.472c0.618,0.768,0.98,1.296,1.088,1.584C9.729,7.683,9.783,7.955,9.783,8.21z    M20.791,16.307c0.384,0,0.661,0.262,0.832,0.783c0.171,0.523,0.256,0.902,0.256,1.137c0,0.427-0.149,0.641-0.448,0.641   c-0.128,0-0.277-0.043-0.447-0.129c-0.47-0.234-1.147-0.352-2.032-0.352c-0.886,0-1.733,0.091-2.544,0.271   c-0.812,0.182-1.696,0.4-2.656,0.656s-1.472,0.411-1.536,0.464c-0.063,0.054-0.117,0.177-0.16,0.368s-0.074,0.443-0.096,0.752   c-0.021,0.31-0.032,0.747-0.032,1.313c0,0.564-0.106,0.928-0.319,1.088c-0.214,0.16-0.396,0.24-0.544,0.24   c-0.15,0-0.252-0.049-0.305-0.145c-0.054-0.096-0.111-0.48-0.176-1.152s-0.096-1.547-0.096-2.623c0-1.078,0.085-2.73,0.256-4.96   c0.17-2.229,0.314-3.52,0.432-3.872s0.267-0.528,0.448-0.528c0.181,0,0.389,0.07,0.624,0.208c0.234,0.139,0.395,0.251,0.479,0.336   s0.129,0.208,0.129,0.368c0,0.16-0.049,0.459-0.145,0.896c-0.096,0.438-0.165,1.232-0.208,2.384l-0.192,3.2   c0,0.277,0.075,0.416,0.225,0.416c0.148,0,0.479-0.064,0.992-0.191c0.512-0.129,0.874-0.246,1.088-0.353   c0.213-0.106,0.464-0.213,0.752-0.319c0.288-0.107,0.432-0.373,0.432-0.801c0-0.213-0.075-0.32-0.224-0.32   c-0.149,0-0.283,0.017-0.4,0.049c-0.117,0.031-0.208,0.048-0.271,0.048c-0.214,0-0.39-0.219-0.528-0.656   c-0.139-0.437-0.208-0.747-0.208-0.928s0.106-0.277,0.32-0.288c0.213-0.011,0.506-0.064,0.88-0.16   c0.373-0.096,0.56-0.224,0.56-0.384c0-0.16-0.054-0.331-0.16-0.512c-0.106-0.181-0.277-0.272-0.512-0.272l-0.32,0.032   c-0.171,0-0.287-0.037-0.352-0.112c-0.064-0.074-0.176-0.32-0.336-0.736s-0.24-0.693-0.24-0.832c0-0.139,0.032-0.224,0.096-0.256   c0.064-0.032,0.192-0.048,0.385-0.048c0.191,0,0.922-0.187,2.191-0.56c1.27-0.373,2.256-0.56,2.96-0.56   c0.213,0,0.357,0.027,0.433,0.08c0.074,0.054,0.16,0.16,0.256,0.32c0.096,0.16,0.17,0.341,0.224,0.544   c0.053,0.203,0.08,0.4,0.08,0.592c0,0.427-0.235,0.64-0.704,0.64l-0.544-0.064c-0.213,0-0.363,0.085-0.448,0.256   c-0.085,0.171-0.128,0.31-0.128,0.416c0,0.278,0.203,0.416,0.608,0.416c0.128,0,0.25,0.091,0.368,0.272   c0.117,0.182,0.176,0.39,0.176,0.624c0,0.427-0.405,0.854-1.216,1.28c-0.192,0.107-0.288,0.266-0.288,0.48   c0,0.512,0.192,0.769,0.576,0.769L20.791,16.307z M13.047,4.083c0.213,0,0.507,0.246,0.88,0.736   c0.373,0.491,0.619,0.944,0.736,1.36s0.314,0.827,0.592,1.232c0.064,0.085,0.096,0.229,0.096,0.432c0,0.203-0.102,0.496-0.304,0.88   c-0.203,0.384-0.416,0.576-0.64,0.576c-0.225,0-0.454-0.117-0.688-0.352c-0.234-0.234-0.491-0.437-0.768-0.608   c-0.491-0.277-0.736-0.906-0.736-1.888c0-0.405,0.064-0.901,0.192-1.488C12.535,4.376,12.748,4.083,13.047,4.083z M25.367,23.283   c0,0.832,0.042,1.354,0.128,1.567c0.085,0.213,0.128,0.437,0.128,0.672c0,0.533-0.16,0.8-0.48,0.8   c-0.063,0-0.139-0.021-0.224-0.064c-0.256-0.148-0.651-0.277-1.184-0.383c-1.878-0.363-3.579-1.051-5.104-2.064   s-2.288-1.616-2.288-1.809c0-0.084,0.064-0.127,0.192-0.127s0.458,0.102,0.992,0.304c0.532,0.202,1.12,0.357,1.76,0.464   c0.64,0.107,1.264,0.16,1.872,0.16c0.607,0,1.013-0.053,1.216-0.16c0.202-0.106,0.325-0.256,0.368-0.448   c0.042-0.192,0.063-0.864,0.063-2.016c0-1.152-0.053-3.173-0.159-6.064c-0.107-2.891-0.214-4.608-0.32-5.152   c-0.107-0.544-0.246-0.965-0.416-1.264C21.74,7.4,21.426,7.25,20.967,7.25s-0.88,0.059-1.264,0.176s-0.8,0.336-1.248,0.656   s-0.779,0.48-0.992,0.48c-0.214,0-0.459-0.16-0.736-0.48s-0.416-0.565-0.416-0.736s0.145-0.314,0.433-0.432   c0.288-0.117,0.917-0.288,1.888-0.512c0.971-0.224,1.61-0.395,1.92-0.512s0.752-0.176,1.328-0.176s1.274,0.107,2.096,0.32   s1.265,0.357,1.328,0.432c0.064,0.075,0.097,0.176,0.097,0.304s-0.075,0.363-0.225,0.704s-0.224,1.131-0.224,2.368l0.16,4.576   l-0.064,1.792c0,0.703,0.032,1.242,0.096,1.615c0.064,0.374,0.123,1.008,0.177,1.904c0.053,0.896,0.068,1.611,0.048,2.145V23.283z" stroke-width="1"/>
</g>
</svg>