<svg xmlns="http://www.w3.org/2000/svg" xmlns:xlink="http://www.w3.org/1999/xlink" version="1.1" id="图层_1" x="0px" y="0px" width="21.288002014160156" height="25.159000396728516" viewBox="4.561999320983887 2.5850014686584473 21.288002014160156 25.159000396728516" style="enable-background:new 0 0 30 30;" xml:space="preserve">
  <g>
    <g>
      <path style="fill:#0000FF;" d="M25.35,20.013c0,0.149-0.069,0.379-0.208,0.688c-0.139,0.309-0.41,1.002-0.815,2.08&#13;&#10;&#9;&#9;c-0.405,1.077-0.656,1.78-0.752,2.111c-0.097,0.33-0.197,0.549-0.304,0.656c-0.107,0.106-0.24,0.16-0.4,0.16&#13;&#10;&#9;&#9;s-0.379-0.021-0.656-0.064c-2.005-0.32-3.222-0.48-3.647-0.48c-0.428,0-1.195,0.054-2.305,0.16L13.35,25.58&#13;&#10;&#9;&#9;c-0.832,0.086-1.424,0.197-1.775,0.336c-0.353,0.139-0.699,0.305-1.04,0.496c-0.342,0.192-0.604,0.379-0.784,0.561&#13;&#10;&#9;&#9;c-0.182,0.182-0.368,0.271-0.56,0.271c-0.192,0-0.459-0.219-0.801-0.655c-0.341-0.438-0.683-0.731-1.023-0.88&#13;&#10;&#9;&#9;c-0.641-0.299-1.131-0.886-1.472-1.76c-0.341-0.875-0.512-1.739-0.512-2.592c0-0.513,0.187-0.769,0.56-0.769&#13;&#10;&#9;&#9;s0.811,0.075,1.312,0.224c0.501,0.15,0.8,0.256,0.896,0.32c0.096,0.064,0.144,0.149,0.144,0.256c0,0.277-0.245,0.587-0.736,0.928&#13;&#10;&#9;&#9;c-0.49,0.342-0.735,0.758-0.735,1.248c0,0.235,0.048,0.443,0.144,0.624c0.097,0.181,0.213,0.304,0.353,0.368&#13;&#10;&#9;&#9;c0.138,0.064,0.378,0.096,0.72,0.096c0.98,0,2.101-0.287,3.36-0.863c0.469-0.213,0.805-0.353,1.008-0.416&#13;&#10;&#9;&#9;c0.202-0.064,0.347-0.16,0.432-0.289c0.085-0.127,0.165-0.5,0.24-1.119c0.074-0.619,0.112-1.365,0.112-2.24l-0.064-2.783&#13;&#10;&#9;&#9;c0-0.363-0.139-0.545-0.416-0.545c-0.747,0-1.472,0.107-2.176,0.32S9.302,17.24,8.95,17.645c-0.353,0.406-0.635,0.608-0.849,0.608&#13;&#10;&#9;&#9;c-0.213,0-0.432-0.16-0.655-0.48c-0.225-0.319-0.539-0.784-0.944-1.392c-0.405-0.608-0.747-1.408-1.024-2.4&#13;&#10;&#9;&#9;c-0.277-0.992-0.416-1.776-0.416-2.352c0-0.938,0.458-1.408,1.376-1.408c0.384,0,0.842,0.085,1.376,0.256&#13;&#10;&#9;&#9;c0.532,0.171,0.8,0.411,0.8,0.72c0,0.31-0.102,0.571-0.305,0.784c-0.202,0.214-0.635,0.523-1.296,0.928&#13;&#10;&#9;&#9;c-0.256,0.149-0.384,0.523-0.384,1.12c0,0.384,0.059,0.656,0.176,0.816s0.379,0.24,0.784,0.24c0.938,0,1.872-0.16,2.8-0.48&#13;&#10;&#9;&#9;c0.929-0.32,1.733-0.565,2.416-0.736c0.234-0.064,0.353-0.288,0.353-0.672c0-0.832,0.042-1.818,0.128-2.96&#13;&#10;&#9;&#9;c0.085-1.141,0.128-2.256,0.128-3.344s-0.016-1.733-0.048-1.936c-0.032-0.202-0.048-0.41-0.048-0.624&#13;&#10;&#9;&#9;c0-0.832,0.234-1.248,0.704-1.248c0.128,0,0.362,0.096,0.703,0.288c0.342,0.192,0.827,0.4,1.456,0.624s0.944,0.491,0.944,0.8&#13;&#10;&#9;&#9;s-0.176,0.587-0.528,0.832c-0.352,0.245-0.597,0.629-0.735,1.152c-0.14,0.523-0.208,1.531-0.208,3.024&#13;&#10;&#9;&#9;c0,1.494,0.01,2.405,0.031,2.736c0.021,0.331,0.075,0.523,0.16,0.576c0.085,0.054,0.192,0.069,0.32,0.048&#13;&#10;&#9;&#9;c0.832-0.128,1.429-0.176,1.792-0.144c0.362,0.032,0.693,0.048,0.992,0.048c0.298,0,0.533-0.08,0.704-0.24&#13;&#10;&#9;&#9;c0.17-0.16,0.373-0.395,0.607-0.704c0.234-0.309,0.459-0.88,0.672-1.712c0.214-0.832,0.416-1.418,0.608-1.76&#13;&#10;&#9;&#9;s0.421-0.512,0.688-0.512c0.266,0,0.618,0.149,1.056,0.448c0.437,0.299,0.752,0.533,0.944,0.704&#13;&#10;&#9;&#9;c0.191,0.171,0.287,0.368,0.287,0.592s-0.053,0.432-0.159,0.624c-0.32,0.555-0.886,2.144-1.696,4.768&#13;&#10;&#9;&#9;c-0.086,0.277-0.251,0.416-0.496,0.416s-0.576-0.064-0.992-0.192c-0.416-0.128-1.04-0.192-1.872-0.192s-1.365,0.048-1.6,0.144&#13;&#10;&#9;&#9;c-0.235,0.096-0.726,0.272-1.472,0.528c-0.107,0.021-0.198,0.092-0.272,0.208c-0.075,0.118-0.112,0.283-0.112,0.496l-0.128,2.912&#13;&#10;&#9;&#9;c-0.063,1.728-0.096,2.613-0.096,2.656c0,0.384,0.171,0.575,0.512,0.575c0.683,0,1.397,0.038,2.145,0.113&#13;&#10;&#9;&#9;c0.746,0.074,1.141,0.111,1.184,0.111c0.384,0,0.769-0.09,1.152-0.271s0.709-0.742,0.976-1.681s0.4-1.44,0.4-1.504&#13;&#10;&#9;&#9;c0.063-0.661,0.319-0.992,0.768-0.992c0.234,0,0.726,0.144,1.473,0.433C24.977,19.324,25.35,19.65,25.35,20.013z" stroke-width="1"/>
    </g>
    <g/>
    <g/>
    <g/>
    <g/>
    <g/>
    <g/>
    <g/>
    <g/>
    <g/>
    <g/>
    <g/>
    <g/>
    <g/>
    <g/>
    <g/>
  </g>
</svg>