<svg xmlns="http://www.w3.org/2000/svg" xmlns:xlink="http://www.w3.org/1999/xlink" version="1.1" id="图层_1" x="0px" y="0px" width="25.514007568359375" height="21.864002227783203" viewBox="1.9849939346313477 5.534999847412109 25.514007568359375 21.864002227783203" enable-background="new 0 0 30 30" xml:space="preserve">
<g>
	<path fill="#0000FF" d="M24.919,6.035c0.299,0,0.512,0.181,0.64,0.544c0.192,0.555,0.619,1.216,1.28,1.984   c0.106,0.128,0.16,0.277,0.16,0.448c0,0.299-0.171,0.448-0.512,0.448c-0.107,0-0.225-0.021-0.353-0.064   c-0.533-0.17-1.285-0.256-2.256-0.256s-2.085,0.075-3.344,0.224c-1.259,0.15-1.974,0.256-2.145,0.32s-0.336,0.261-0.496,0.592   c-0.159,0.331-0.239,0.678-0.239,1.04c0,0.662,0.618,1.531,1.855,2.608c1.237,1.078,2.154,1.777,2.752,2.096   c0.213,0.106,0.32,0.325,0.32,0.655c0,0.332-0.139,0.668-0.416,1.009s-0.571,0.832-0.88,1.472c-0.31,0.641-0.843,1.504-1.601,2.592   c-0.757,1.088-1.327,1.803-1.712,2.145c-0.384,0.341-0.971,1.184-1.76,2.527c-0.191,0.32-0.384,0.48-0.576,0.48   c-0.299,0-0.683-0.342-1.151-1.023c-0.47-0.684-0.929-1.27-1.376-1.76c-0.448-0.491-0.838-1.035-1.168-1.633   c-0.331-0.597-0.496-0.96-0.496-1.088s0.059-0.191,0.176-0.191s0.293,0.085,0.528,0.256c1.002,0.789,1.797,1.184,2.384,1.184   c0.586,0,1.136-0.262,1.647-0.784c0.513-0.522,1.04-1.376,1.584-2.56s0.816-2.139,0.816-2.864s-0.251-1.349-0.752-1.872   c-0.502-0.522-0.998-0.784-1.488-0.784c-0.256,0-0.479,0.139-0.672,0.416c-1.131,1.558-2.422,2.806-3.872,3.744   c-0.64,0.405-1.12,0.815-1.439,1.231c-0.32,0.416-0.491,0.955-0.513,1.617c0,0.383-0.251,0.661-0.752,0.832   c-0.501,0.17-1.456,0.672-2.864,1.504c-0.512,0.299-1.024,0.469-1.536,0.512c-0.512,0.043-1.003,0.064-1.472,0.064   c-0.47,0-0.704-0.139-0.704-0.416c0-0.172,0.229-0.433,0.688-0.785c0.458-0.352,1.296-0.912,2.512-1.68   c1.686-1.066,3.035-2.244,4.048-3.535c1.014-1.291,1.894-2.48,2.641-3.569c0.746-1.088,1.12-1.962,1.12-2.624   c0-0.277-0.107-0.416-0.32-0.416c-0.214,0-0.581,0.054-1.104,0.16c-0.522,0.107-0.981,0.187-1.376,0.24s-1.093,0.101-2.096,0.144   c-2.347,0.128-3.989,0.469-4.928,1.024c-0.128,0.085-0.24,0.128-0.336,0.128c-0.096,0-0.187-0.064-0.272-0.192   c-0.086-0.128-0.208-0.48-0.368-1.056s-0.24-0.949-0.24-1.12c0-0.17,0.117-0.267,0.352-0.288c0.768-0.042,2.373-0.336,4.816-0.88   c2.442-0.544,5.008-1.035,7.695-1.472c2.688-0.437,4.661-0.709,5.92-0.816c1.259-0.106,2.149-0.218,2.673-0.336   C24.466,6.094,24.791,6.035,24.919,6.035z" stroke-width="1"/>
</g>
</svg>