<svg xmlns="http://www.w3.org/2000/svg" xmlns:xlink="http://www.w3.org/1999/xlink" version="1.1" id="图层_1" x="0px" y="0px" width="21.513999938964844" height="30.441001892089844" viewBox="4.144001483917236 -0.4229999929666519 21.513999938964844 30.441001892089844" style="enable-background:new 0 0 30 30;" xml:space="preserve">
  <g>
    <g>
      <path style="fill:#0000FF;" d="M25.158,17.772c0,0.214-0.102,0.422-0.304,0.624c-0.203,0.203-0.38,1.008-0.528,2.416&#13;&#10;&#9;&#9;c-0.107,1.067-0.304,2.268-0.592,3.6c-0.288,1.334-0.608,2.485-0.96,3.457c-0.353,0.971-0.565,1.488-0.641,1.551&#13;&#10;&#9;&#9;c-0.075,0.064-0.154,0.098-0.24,0.098c-0.213,0-0.911-0.24-2.096-0.721c-1.184-0.48-2.037-0.928-2.56-1.344&#13;&#10;&#9;&#9;c-0.523-0.416-0.784-0.684-0.784-0.801s0.053-0.176,0.16-0.176c0.106,0,0.213,0.011,0.319,0.032&#13;&#10;&#9;&#9;c0.875,0.192,1.648,0.288,2.32,0.288s1.131-0.155,1.376-0.465c0.245-0.309,0.464-1.029,0.656-2.159&#13;&#10;&#9;&#9;c0.191-1.131,0.288-2.075,0.288-2.832s-0.038-1.349-0.112-1.776c-0.075-0.426-0.229-0.725-0.464-0.896&#13;&#10;&#9;&#9;c-0.235-0.17-0.72-0.324-1.456-0.463s-1.43-0.209-2.08-0.209c-0.651,0-1.6,0.107-2.848,0.32c-1.248,0.214-2.054,0.374-2.416,0.48&#13;&#10;&#9;&#9;c-1.558,0.49-2.752,0.816-3.584,0.976c-0.832,0.16-1.334,0.396-1.504,0.704c-0.171,0.31-0.256,0.992-0.256,2.049&#13;&#10;&#9;&#9;c0,1.055,0.042,1.791,0.128,2.207c0.085,0.416,0.128,0.736,0.128,0.961c0,0.223-0.097,0.383-0.288,0.479&#13;&#10;&#9;&#9;c-0.192,0.096-0.342,0.144-0.448,0.144c-0.299,0-0.662-0.768-1.088-2.304c-0.427-1.536-0.64-3.136-0.64-4.8&#13;&#10;&#9;&#9;c0-0.277,0.106-0.49,0.32-0.641c0.213-0.148,0.475-0.191,0.784-0.127c0.309,0.063,0.725,0.096,1.248,0.096&#13;&#10;&#9;&#9;c0.522,0,1.28-0.166,2.272-0.496c0.991-0.33,2.41-0.699,4.256-1.104c1.845-0.406,3.435-0.609,4.768-0.609s2.757,0.16,4.272,0.48&#13;&#10;&#9;&#9;c1.514,0.32,2.324,0.518,2.432,0.592C25.104,17.479,25.158,17.602,25.158,17.772z M21.606,5.581c0.256,0,0.416,0.085,0.479,0.256&#13;&#10;&#9;&#9;c0.149,0.448,0.362,0.875,0.64,1.28c0.277,0.405,0.416,0.742,0.416,1.008c0,0.267-0.117,0.4-0.352,0.4&#13;&#10;&#9;&#9;c-0.235,0-0.624-0.042-1.168-0.128c-0.544-0.085-1.307-0.128-2.288-0.128c-1.856,0-3.275,0.203-4.256,0.608&#13;&#10;&#9;&#9;c-0.47,0.192-1.195,0.374-2.176,0.544c-0.981,0.171-1.878,0.277-2.688,0.32c-0.811,0.043-1.482,0.133-2.016,0.272&#13;&#10;&#9;&#9;c-0.534,0.139-0.918,0.304-1.152,0.496c-0.128,0.107-0.256,0.16-0.384,0.16s-0.363-0.245-0.704-0.736&#13;&#10;&#9;&#9;c-0.341-0.49-0.512-0.885-0.512-1.184c0-0.192,0.192-0.309,0.577-0.352c0.597-0.064,1.45-0.213,2.56-0.448&#13;&#10;&#9;&#9;c1.109-0.234,1.984-0.458,2.624-0.672c2.73-0.853,4.816-1.28,6.256-1.28c1.44,0,2.459-0.069,3.056-0.208&#13;&#10;&#9;&#9;C21.115,5.65,21.478,5.581,21.606,5.581z M15.814,19.5c0.725,0,1.396,0.193,2.016,0.576c0.618,0.385,0.928,0.705,0.928,0.961&#13;&#10;&#9;&#9;s-0.096,0.479-0.288,0.672c-0.704,0.725-1.131,1.211-1.279,1.455c-0.15,0.246-0.225,0.529-0.225,0.849s-0.059,0.513-0.176,0.576&#13;&#10;&#9;&#9;s-0.272,0.091-0.464,0.079c-0.192-0.01-0.331-0.016-0.416-0.016c-0.491,0-1.142,0.064-1.952,0.192s-1.365,0.239-1.664,0.336&#13;&#10;&#9;&#9;s-0.539,0.144-0.72,0.144c-0.182,0-0.4-0.111-0.656-0.336c-0.256-0.224-0.533-0.539-0.832-0.943&#13;&#10;&#9;&#9;c-0.299-0.405-0.544-0.843-0.736-1.313c-0.191-0.469-0.287-0.853-0.287-1.152c0-0.298,0.208-0.506,0.623-0.623&#13;&#10;&#9;&#9;c0.416-0.117,0.758-0.176,1.024-0.176s0.704-0.075,1.313-0.225c0.607-0.148,1.221-0.362,1.84-0.641&#13;&#10;&#9;&#9;C14.48,19.64,15.131,19.5,15.814,19.5z M16.326,9.901c0.49,0,1.093,0.197,1.808,0.592c0.715,0.395,1.072,0.731,1.072,1.008&#13;&#10;&#9;&#9;c0,0.278-0.117,0.534-0.352,0.768c-0.854,0.854-1.35,1.52-1.488,2c-0.14,0.48-0.448,0.736-0.928,0.768&#13;&#10;&#9;&#9;c-0.48,0.032-1.228,0.155-2.24,0.368c-1.014,0.213-1.648,0.368-1.904,0.464s-0.448,0.144-0.576,0.144&#13;&#10;&#9;&#9;c-0.277,0-0.592-0.277-0.943-0.832c-0.353-0.555-0.656-1.189-0.912-1.904s-0.385-1.157-0.385-1.328c0-0.32,0.16-0.512,0.48-0.576&#13;&#10;&#9;&#9;c2.347-0.49,3.866-0.858,4.56-1.104C15.211,10.024,15.814,9.901,16.326,9.901z M12.006,23.277c0.277,0,0.885-0.123,1.824-0.369&#13;&#10;&#9;&#9;c0.938-0.244,1.408-0.655,1.408-1.231c0-0.149-0.069-0.272-0.208-0.368c-0.14-0.096-0.315-0.145-0.528-0.145&#13;&#10;&#9;&#9;c-0.214,0-0.507,0.092-0.88,0.272c-0.374,0.182-0.987,0.4-1.84,0.656c-0.299,0.106-0.448,0.31-0.448,0.608&#13;&#10;&#9;&#9;c0,0.127,0.053,0.256,0.16,0.383C11.601,23.213,11.771,23.277,12.006,23.277z M13.254,0.077c0.064,0,0.224,0.064,0.48,0.192&#13;&#10;&#9;&#9;c0.256,0.128,0.442,0.267,0.56,0.416c0.117,0.149,0.353,0.534,0.704,1.152s0.597,1.099,0.736,1.44&#13;&#10;&#9;&#9;c0.138,0.341,0.208,0.587,0.208,0.736c0,0.427-0.278,0.64-0.832,0.64c-0.32,0-0.731-0.091-1.232-0.272s-0.896-0.309-1.184-0.384&#13;&#10;&#9;&#9;c-0.288-0.074-0.433-0.304-0.433-0.688C12.262,1.154,12.593,0.077,13.254,0.077z M13.063,13.741c0.191,0,0.57-0.085,1.136-0.256&#13;&#10;&#9;&#9;c0.564-0.171,0.917-0.347,1.056-0.528c0.139-0.181,0.208-0.41,0.208-0.688c0-0.426-0.245-0.64-0.736-0.64&#13;&#10;&#9;&#9;c-0.299,0-0.725,0.133-1.279,0.4c-0.556,0.267-0.832,0.571-0.832,0.912C12.614,13.474,12.763,13.741,13.063,13.741z" stroke-width="1"/>
    </g>
    <g/>
    <g/>
    <g/>
    <g/>
    <g/>
    <g/>
    <g/>
    <g/>
    <g/>
    <g/>
    <g/>
    <g/>
    <g/>
    <g/>
    <g/>
  </g>
</svg>