<svg xmlns="http://www.w3.org/2000/svg" xmlns:xlink="http://www.w3.org/1999/xlink" version="1.1" id="图层_1" x="0px" y="0px" width="20.969003677368164" height="30.213998794555664" viewBox="3.7150001525878906 -0.28999999165534973 20.969003677368164 30.213998794555664" enable-background="new 0 0 30 30" xml:space="preserve">
<g>
	<path fill="#0000FF" d="M10.839,16.883c-0.213,0.128-0.384,0.191-0.512,0.191c-0.342,0-0.944-0.602-1.809-1.808   c-0.863-1.205-1.296-2.309-1.296-3.312c0-0.619,0.277-0.928,0.832-0.928c0.341,0,0.709,0.08,1.104,0.24   c0.395,0.16,0.592,0.379,0.592,0.656c0,0.128-0.064,0.293-0.192,0.496c-0.128,0.203-0.191,0.518-0.191,0.944   c0,0.427,0.085,0.784,0.256,1.072s0.469,0.432,0.896,0.432s1.354-0.176,2.784-0.528s2.145-0.597,2.145-0.736   c0-0.139-0.145-0.352-0.433-0.64s-0.522-0.432-0.704-0.432c-0.181,0-0.389,0.133-0.624,0.4c-0.234,0.267-0.522,0.48-0.863,0.64   c-0.342,0.16-0.699,0.24-1.072,0.24s-0.71-0.042-1.008-0.128c-0.299-0.085-0.448-0.234-0.448-0.448   c0-0.213,0.171-0.395,0.512-0.544c0.342-0.149,0.683-0.384,1.024-0.704c0.341-0.32,0.512-0.538,0.512-0.656   c0-0.117-0.059-0.213-0.176-0.288c-0.117-0.074-0.384-0.218-0.8-0.432c-0.416-0.213-0.672-0.373-0.769-0.48   c-0.096-0.106-0.144-0.25-0.144-0.432s0.187-0.272,0.56-0.272s0.806,0.043,1.296,0.128l1.152,0.192   c0.192,0,0.368-0.128,0.528-0.384c0.16-0.256,0.24-0.512,0.24-0.768c0-0.256-0.075-0.384-0.225-0.384s-0.288,0.011-0.416,0.032   c-1.216,0.213-2.277,0.331-3.184,0.352C9.5,8.616,8.599,8.76,7.703,9.026C6.807,9.293,6.172,9.598,5.799,9.938   c-0.374,0.341-0.646,0.512-0.816,0.512c-0.171,0-0.341-0.272-0.512-0.816C4.3,9.09,4.215,8.733,4.215,8.563   c0-0.17,0.027-0.267,0.08-0.288c0.053-0.021,0.192-0.032,0.416-0.032s1.104-0.235,2.64-0.704c1.536-0.469,3.195-0.885,4.977-1.248   c1.781-0.362,3.563-0.613,5.344-0.752c1.781-0.139,2.981-0.261,3.6-0.368c0.619-0.106,1.077-0.16,1.377-0.16   c0.298,0,0.522,0.091,0.672,0.272c0.148,0.181,0.33,0.443,0.544,0.784c0.213,0.342,0.319,0.64,0.319,0.896   c0,0.256-0.026,0.501-0.08,0.736C24.05,7.934,23.932,8.05,23.751,8.05c-0.182,0-0.368-0.021-0.56-0.064   c-1.984-0.384-3.605-0.576-4.864-0.576c-1.109,0-1.664,0.128-1.664,0.384c0,0.064,0.032,0.155,0.096,0.272   c0.064,0.118,0.097,0.229,0.097,0.336c0,0.235-0.07,0.422-0.208,0.56c-0.14,0.139-0.331,0.363-0.576,0.672   c-0.246,0.31-0.368,0.56-0.368,0.752c0,0.192,0.191,0.48,0.576,0.864c0.384,0.384,0.576,0.875,0.576,1.472   c0,0.192-0.027,0.357-0.08,0.496c-0.054,0.139-0.08,0.219-0.08,0.24c0,0.107,0.154,0.16,0.464,0.16c0.309,0,0.522-0.096,0.64-0.288   s0.24-0.544,0.368-1.056c0.128-0.512,0.267-1.216,0.416-2.112c0.064-0.491,0.24-0.736,0.528-0.736s0.698,0.171,1.231,0.512   c0.533,0.341,0.8,0.662,0.8,0.96c0,0.107-0.144,0.576-0.432,1.408s-0.533,1.424-0.736,1.776c-0.202,0.352-0.367,0.715-0.496,1.088   c-0.128,0.374-0.309,0.56-0.544,0.56c-1.088,0-1.951,0.032-2.592,0.096c-0.64,0.064-0.997,0.139-1.072,0.225   c-0.074,0.086-0.111,0.245-0.111,0.48c0,0.234,0.026,0.41,0.08,0.527c0.053,0.117,0.176,0.154,0.368,0.111   c0.66-0.127,1.312-0.191,1.951-0.191c0.235,0,0.63,0.043,1.185,0.128s1.168,0.14,1.84,0.16c0.672,0.021,1.429,0.224,2.272,0.608   c0.842,0.383,1.264,0.735,1.264,1.056c0,0.149-0.069,0.282-0.208,0.399c-0.139,0.118-0.235,0.277-0.288,0.48   c-0.054,0.203-0.24,1.322-0.56,3.359c-0.32,2.037-0.566,3.248-0.736,3.633c-0.299,0.66-0.48,1.227-0.544,1.695   c-0.086,0.619-0.374,0.928-0.864,0.928c-0.32,0-1.051-0.203-2.192-0.607c-1.141-0.406-2.026-0.906-2.655-1.504   c-0.63-0.598-0.944-0.943-0.944-1.04c0-0.096,0.048-0.144,0.144-0.144c0.097,0,0.299,0.063,0.608,0.191   c0.31,0.129,0.789,0.24,1.44,0.336c0.65,0.096,1.12,0.145,1.407,0.145c0.288,0,0.55-0.139,0.784-0.416s0.491-0.982,0.769-2.112   c0.276-1.13,0.416-2.187,0.416-3.168s-0.326-1.696-0.977-2.144c-0.65-0.448-1.584-0.672-2.8-0.672c-0.405,0-0.8,0.021-1.184,0.063   c-0.385,0.043-0.63,0.106-0.736,0.192c-0.107,0.085-0.224,0.32-0.352,0.703c-0.129,0.385-0.192,0.705-0.192,0.961   s0.069,0.384,0.208,0.384s0.325-0.117,0.56-0.353c0.234-0.234,0.736-0.352,1.504-0.352c0.277,0,0.522,0.08,0.736,0.24   c0.213,0.16,0.518,0.485,0.912,0.976c0.395,0.491,0.677,0.96,0.848,1.408s0.256,0.821,0.256,1.12s-0.048,0.469-0.144,0.512   s-0.336,0.064-0.72,0.064s-0.892-0.092-1.521-0.272s-0.943-0.39-0.943-0.624s0.17-0.416,0.512-0.544   c0.725-0.298,1.088-0.714,1.088-1.248c0-0.256-0.075-0.49-0.224-0.704c-0.149-0.213-0.331-0.32-0.544-0.32   c-0.214,0-0.443,0.06-0.688,0.176c-0.245,0.118-0.427,0.272-0.544,0.465c-0.117,0.191-0.24,0.49-0.368,0.896   c-0.128,0.404-0.229,0.645-0.304,0.719c-0.075,0.076-0.219,0.135-0.432,0.177c-1.366,0.214-2.528,0.555-3.488,1.024   c-0.299,0.148-0.544,0.224-0.736,0.224c-0.128,0-0.288-0.097-0.479-0.288l-0.576-0.607c-0.192-0.193-0.288-0.342-0.288-0.449   c0-0.234,0.133-0.389,0.399-0.463c0.267-0.075,0.704-0.229,1.313-0.465c0.608-0.234,1.019-0.597,1.232-1.088   c0.213-0.49,0.319-0.854,0.319-1.088s-0.085-0.352-0.256-0.352c-0.063,0-0.576,0.182-1.536,0.543   c-0.96,0.363-1.563,0.619-1.808,0.769c-0.246,0.149-0.411,0.357-0.496,0.624c-0.086,0.268-0.128,0.764-0.128,1.488   s0.085,1.333,0.256,1.824c0.171,0.49,0.256,0.82,0.256,0.992c0,0.17-0.102,0.319-0.304,0.447c-0.203,0.128-0.411,0.191-0.624,0.191   c-0.214,0-0.357-0.096-0.433-0.287c-0.074-0.192-0.271-0.571-0.591-1.137c-0.32-0.564-0.608-1.344-0.864-2.336   s-0.384-1.685-0.384-2.08c0-0.395,0.09-0.666,0.272-0.815c0.181-0.149,0.677-0.298,1.488-0.448   c0.811-0.148,1.541-0.341,2.191-0.576c0.65-0.234,1.584-0.49,2.8-0.768c0.277-0.064,0.416-0.245,0.416-0.544   c0-0.491-0.096-0.735-0.288-0.735c-0.191,0-0.475,0.047-0.848,0.143C11.09,16.771,10.882,16.84,10.839,16.883z M13.431,0.21   c0.234,0,0.4,0.166,0.496,0.496c0.097,0.331,0.314,0.72,0.656,1.168c0.853,1.045,1.28,1.696,1.28,1.952   c0,0.256-0.149,0.453-0.448,0.592c-0.299,0.139-0.576,0.208-0.832,0.208s-0.752-0.139-1.488-0.416   c-0.735-0.277-1.104-0.634-1.104-1.072c0-0.437,0.133-1.035,0.399-1.792S13.004,0.21,13.431,0.21z" stroke-width="1"/>
</g>
</svg>