<svg xmlns="http://www.w3.org/2000/svg" xmlns:xlink="http://www.w3.org/1999/xlink" version="1.1" id="图层_1" x="0px" y="0px" width="29.321002960205078" height="27.38101577758789" viewBox="1.217998743057251 0.09499990940093994 29.321002960205078 27.38101577758789" enable-background="new 0 0 30 30" xml:space="preserve">
<g>
	<path fill="#0000FF" d="M19.127,12.499c0,0.363,0.282,0.944,0.848,1.744c0.565,0.8,1.515,1.632,2.849,2.496   c1.333,0.864,2.597,1.525,3.792,1.984c1.194,0.459,2.063,0.863,2.607,1.216s0.816,0.624,0.816,0.815c0,0.192-0.267,0.369-0.8,0.529   c-0.534,0.159-1.12,0.239-1.761,0.239c-0.64,0-1.259-0.074-1.855-0.224c-0.598-0.149-1.142-0.251-1.632-0.305   c-0.491-0.053-0.784-0.139-0.88-0.256c-0.097-0.117-0.145-0.33-0.145-0.64s-0.128-0.672-0.384-1.088s-0.598-0.773-1.024-1.072   c-0.427-0.298-0.8-0.608-1.119-0.928c-0.32-0.32-0.614-0.565-0.881-0.736s-0.464-0.256-0.592-0.256s-0.191,0.182-0.191,0.544   c0,0.684,0.068,1.632,0.208,2.848c0.138,1.217,0.218,2.102,0.239,2.656s0.102,1.254,0.24,2.096   c0.139,0.843,0.251,1.393,0.336,1.648s0.128,0.453,0.128,0.592s-0.091,0.283-0.271,0.432c-0.182,0.149-0.422,0.182-0.721,0.097   s-0.901-0.203-1.808-0.353c-0.907-0.148-1.851-0.527-2.832-1.136s-1.472-1.04-1.472-1.296c0-0.128,0.063-0.191,0.191-0.191   s0.245,0.021,0.353,0.063c0.341,0.106,0.98,0.16,1.92,0.16c0.938,0,1.53-0.054,1.776-0.16c0.244-0.106,0.367-0.31,0.367-0.608   s-0.048-0.9-0.144-1.808s-0.188-1.621-0.272-2.144c-0.085-0.523-0.139-1.157-0.159-1.904c-0.022-0.363-0.097-0.544-0.225-0.544   s-0.24,0.037-0.336,0.112c-0.096,0.074-0.624,0.592-1.584,1.551l-3.136,3.137c-0.277,0.299-0.539,0.447-0.784,0.447   s-0.576-0.047-0.992-0.143c-0.416-0.097-0.624-0.219-0.624-0.369c0-0.148,0.165-0.309,0.496-0.479s0.698-0.491,1.104-0.96   c0.597-0.704,1.674-1.834,3.231-3.393c0.341-0.34,0.778-0.891,1.313-1.647c0.532-0.757,0.8-1.28,0.8-1.568   c0-0.288-0.374-0.432-1.12-0.432c-0.555,0-1.163,0.203-1.824,0.608c-0.234,0.128-0.438,0.192-0.607,0.192   c-0.172,0-0.31-0.16-0.416-0.48c-0.235-1.024-0.565-1.536-0.992-1.536c-0.256,0-0.539,0.096-0.849,0.288   c-0.309,0.192-0.507,0.363-0.592,0.512C9.634,13,9.591,13.262,9.591,13.634c0,0.374,0.192,0.592,0.576,0.656   c0.938,0.213,1.408,0.565,1.408,1.056c0,0.277-0.048,0.485-0.145,0.624c-0.096,0.139-0.31,0.213-0.64,0.224   c-0.331,0.011-0.63,0.017-0.896,0.017s-0.432,0.08-0.495,0.24c-0.064,0.159-0.145,1.008-0.24,2.543   c-0.096,1.537-0.145,2.742-0.145,3.616c0,0.875,0.021,1.483,0.064,1.824c0.042,0.341,0.063,0.544,0.063,0.608   c0,0.298-0.117,0.447-0.352,0.447c-0.235,0-0.581-0.096-1.04-0.287c-0.459-0.192-0.688-0.471-0.688-0.832   c0-0.107,0.021-0.203,0.064-0.289c0.064-0.191,0.096-0.672,0.096-1.439l-0.031-3.424c0-0.512-0.064-0.768-0.192-0.768   c-0.235,0-1.302,1.013-3.2,3.039c-0.32,0.342-0.624,0.512-0.912,0.512c-0.288,0-0.555-0.047-0.8-0.144   c-0.246-0.096-0.368-0.213-0.368-0.353c0-0.138,0.139-0.324,0.416-0.56c1.003-0.896,2.021-2.079,3.056-3.552   c1.035-1.473,1.552-2.357,1.552-2.656c0-0.298-0.256-0.448-0.768-0.448c-0.512,0-1.003,0.171-1.472,0.512   c-0.277,0.192-0.507,0.288-0.688,0.288c-0.182,0-0.4-0.4-0.656-1.2c-0.256-0.8-0.384-1.285-0.384-1.456   c0-0.17,0.059-0.293,0.176-0.368c0.117-0.074,0.336-0.123,0.656-0.144c0.747-0.085,1.531-0.314,2.352-0.688   c0.821-0.373,1.28-0.608,1.376-0.704c0.096-0.096,0.144-0.336,0.144-0.72c0-1.323,0.021-2.699,0.064-4.128s0.085-2.245,0.128-2.448   c0.043-0.202,0.128-0.357,0.256-0.464c0.128-0.106,0.31-0.16,0.544-0.16s0.565,0.096,0.992,0.288s0.64,0.406,0.64,0.64   c0,0.085-0.043,0.171-0.128,0.256C9.89,3.88,9.804,4.286,9.719,5.011S9.591,6.494,9.591,7.283l0.032,1.856   c0,0.32,0.059,0.48,0.176,0.48s0.245-0.016,0.384-0.048c0.139-0.032,0.277-0.048,0.416-0.048s0.262,0.054,0.368,0.16   c0.106,0.107,0.234,0.325,0.384,0.656c0.149,0.331,0.293,0.528,0.433,0.592c0.139,0.064,0.282,0.096,0.432,0.096   s0.32-0.032,0.512-0.096c0.192-0.064,0.571-0.16,1.137-0.288c0.564-0.128,1.056-0.256,1.472-0.384   c0.416-0.128,0.725-0.224,0.928-0.288s0.353-0.171,0.448-0.32c0.096-0.149,0.145-0.362,0.145-0.64   C16.897,5.192,16.967,3,17.063,2.435c0.096-0.565,0.144-0.976,0.144-1.232c0-0.405,0.267-0.608,0.8-0.608   c0.299,0,0.603,0.059,0.912,0.176c0.309,0.118,0.464,0.293,0.464,0.528c0,0.085-0.026,0.187-0.08,0.304   c-0.054,0.118-0.106,0.421-0.16,0.912c-0.053,0.491-0.069,0.981-0.048,1.472v1.376l-0.031,2.784c0,0.47,0.074,0.704,0.224,0.704   c0.063,0,0.479-0.165,1.248-0.496c0.768-0.331,1.216-0.496,1.344-0.496c0.234,0,0.528,0.262,0.88,0.784   c0.353,0.523,0.528,1.051,0.528,1.584c0,0.534-0.347,0.8-1.04,0.8s-1.222,0.064-1.584,0.192c-0.363,0.128-0.678,0.256-0.944,0.384   s-0.432,0.277-0.496,0.448C19.159,12.222,19.127,12.371,19.127,12.499z" stroke-width="1"/>
</g>
</svg>