<svg xmlns="http://www.w3.org/2000/svg" xmlns:xlink="http://www.w3.org/1999/xlink" version="1.1" id="图层_1" x="0px" y="0px" width="24.552000045776367" height="27.37000274658203" viewBox="1.6030001640319824 0.605999231338501 24.552000045776367 27.37000274658203" enable-background="new 0 0 30 30" xml:space="preserve">
<g>
	<path fill="#0000FF" d="M7.287,18.707c0,0.127-0.064,0.267-0.192,0.416c-0.299,0.362-0.64,0.992-1.024,1.888   c-0.107,0.277-0.24,0.448-0.4,0.512c-0.16,0.063-0.283,0.224-0.368,0.479c-0.086,0.256-0.278,0.385-0.576,0.385   c-0.299,0-0.811-0.234-1.536-0.704c-0.726-0.47-1.088-0.806-1.088-1.009c0-0.201,0.16-0.361,0.48-0.479   c0.32-0.116,0.698-0.304,1.136-0.56c0.437-0.256,1.04-0.528,1.808-0.816c0.768-0.287,1.253-0.432,1.456-0.432   C7.186,18.387,7.287,18.494,7.287,18.707z M25.655,21.139c0,1.344-0.192,2.016-0.576,2.016c-0.149,0-0.342-0.106-0.576-0.32   c-1.365-1.301-2.491-2.303-3.376-3.008c-0.886-0.703-1.371-1.056-1.456-1.056c-0.128,0-0.224,0.256-0.288,0.769   c-0.085,0.832-0.267,1.686-0.544,2.56c-0.277,0.875-0.661,1.915-1.152,3.12c-0.49,1.205-0.789,1.883-0.896,2.031   c-0.107,0.15-0.214,0.225-0.32,0.225c-0.191,0-0.875-0.293-2.048-0.88c-1.174-0.587-2.054-1.174-2.64-1.761   c-0.587-0.586-0.88-0.928-0.88-1.023s0.053-0.145,0.16-0.145c0.106,0,0.234,0.021,0.384,0.064c0.746,0.234,1.435,0.352,2.063,0.352   s1.185-0.186,1.664-0.56c0.48-0.373,0.96-1.429,1.44-3.168c0.479-1.738,0.72-2.853,0.72-3.344c0-0.874-0.479-1.312-1.44-1.312   c-0.447,0-0.741,0.031-0.88,0.096c-0.139,0.063-0.229,0.203-0.271,0.416c-0.235,0.917-0.635,1.861-1.2,2.832   s-1.259,1.818-2.08,2.543c-0.821,0.727-1.344,1.254-1.568,1.584c-0.224,0.332-0.336,0.678-0.336,1.041   c0,0.362-0.085,0.618-0.256,0.768c-0.171,0.148-0.635,0.341-1.392,0.576c-0.758,0.234-1.451,0.352-2.08,0.352   c-0.629,0-1.195-0.069-1.696-0.207c-0.501-0.14-0.752-0.268-0.752-0.385s0.192-0.251,0.576-0.4c1.493-0.64,2.624-1.178,3.392-1.615   c0.769-0.438,1.36-0.864,1.776-1.28s0.891-0.949,1.424-1.601c0.533-0.65,0.928-1.364,1.185-2.144   c0.256-0.778,0.384-1.237,0.384-1.376s-0.06-0.208-0.176-0.208c-0.118,0-0.523,0.112-1.217,0.336s-1.216,0.427-1.567,0.608   c-0.353,0.182-0.604,0.271-0.752,0.271c-0.149,0-0.32-0.24-0.513-0.72c-0.191-0.479-0.287-0.827-0.287-1.04   s0.196-0.336,0.592-0.368c0.395-0.032,1.146-0.171,2.256-0.416c1.109-0.245,1.738-0.405,1.888-0.48   c0.149-0.074,0.261-0.181,0.336-0.32c0.075-0.139,0.112-0.549,0.112-1.232c0-0.491,0.277-0.736,0.832-0.736   c0.256,0,0.603,0.069,1.04,0.208c0.437,0.139,0.656,0.336,0.656,0.592c0,0.085-0.027,0.182-0.08,0.288   c-0.054,0.107-0.08,0.219-0.08,0.336c0,0.118,0.16,0.16,0.479,0.128c0.32-0.032,0.741-0.048,1.265-0.048   c0.522,0,1.173,0.053,1.952,0.16c0.778,0.107,1.236,0.224,1.376,0.352c0.138,0.128,0.208,0.288,0.208,0.48   c0,0.192-0.086,0.566-0.257,1.121s-0.256,0.869-0.256,0.943c0,0.075,0.037,0.15,0.112,0.225c0.074,0.074,0.314,0.176,0.72,0.304   s1.003,0.239,1.792,0.336s1.376,0.192,1.76,0.288c0.385,0.096,0.635,0.213,0.753,0.352c0.116,0.139,0.244,0.465,0.384,0.977   C25.586,20.146,25.655,20.648,25.655,21.139z M20.663,6.643c0.362-0.064,0.709-0.096,1.04-0.096c0.33,0,0.564,0.182,0.704,0.544   c0.139,0.363,0.304,0.683,0.496,0.96c0.191,0.278,0.288,0.56,0.288,0.848s-0.192,0.432-0.576,0.432   c-0.128,0-0.268-0.011-0.416-0.032c-0.513-0.128-1.366-0.192-2.561-0.192s-1.866,0.021-2.016,0.064   c-0.149,0.043-0.245,0.144-0.288,0.304c-0.043,0.16-0.197,0.576-0.464,1.248c-0.268,0.672-0.476,1.056-0.624,1.152   c-0.149,0.096-0.299,0.144-0.448,0.144s-0.405-0.021-0.768-0.064c-0.363-0.042-0.544-0.123-0.544-0.24   c0-0.117,0.08-0.32,0.239-0.608c0.16-0.288,0.305-0.603,0.433-0.944s0.191-0.555,0.191-0.64c0-0.085-0.053-0.128-0.159-0.128   c-0.107,0-0.582,0.064-1.425,0.192S12.471,9.8,12.407,9.842c-0.064,0.043-0.097,0.118-0.097,0.224c0,0.107,0.043,0.32,0.129,0.64   c0.085,0.32,0.128,0.603,0.128,0.848s-0.214,0.368-0.641,0.368s-0.715-0.048-0.863-0.144c-0.15-0.096-0.278-0.304-0.385-0.624   c-0.191-0.554-0.362-0.832-0.512-0.832s-0.661,0.139-1.536,0.416c-0.875,0.278-1.435,0.507-1.68,0.688   c-0.246,0.181-0.443,0.272-0.592,0.272c-0.149,0-0.411-0.272-0.784-0.816c-0.374-0.544-0.56-0.912-0.56-1.104   c0-0.192,0.144-0.304,0.432-0.336c0.288-0.032,1.013-0.138,2.176-0.32C8.785,8.941,9.388,8.83,9.431,8.787   C9.474,8.744,9.495,8.686,9.495,8.61c0-0.074-0.011-0.154-0.032-0.24c-0.363-0.981-0.63-1.995-0.8-3.04   C8.62,4.968,8.551,4.68,8.455,4.466c-0.096-0.213-0.145-0.373-0.145-0.48c0-0.298,0.182-0.448,0.545-0.448   c0.148,0,0.645,0.107,1.487,0.32c0.843,0.213,1.328,0.357,1.456,0.432c0.128,0.075,0.192,0.187,0.192,0.336   c0,0.149-0.064,0.31-0.192,0.48c-0.128,0.171-0.191,0.475-0.191,0.912c0,0.438,0.036,0.901,0.111,1.392s0.139,0.763,0.192,0.816   c0.053,0.053,0.148,0.08,0.288,0.08c0.139,0,0.645-0.096,1.52-0.288s1.445-0.298,1.712-0.32c0.267-0.021,0.411-0.139,0.433-0.352   c0.384-1.771,0.655-2.944,0.815-3.52c0.16-0.576,0.24-1.237,0.24-1.984c0-0.49,0.187-0.736,0.56-0.736s0.961,0.118,1.761,0.352   c0.8,0.235,1.2,0.421,1.2,0.56c0,0.139-0.086,0.304-0.257,0.496s-0.341,0.48-0.512,0.864c-0.171,0.384-0.443,1.056-0.815,2.016   c-0.374,0.96-0.561,1.461-0.561,1.504c0,0.149,0.106,0.203,0.32,0.16L20.663,6.643z" stroke-width="1"/>
</g>
</svg>