<svg xmlns="http://www.w3.org/2000/svg" xmlns:xlink="http://www.w3.org/1999/xlink" version="1.1" id="图层_1" x="0px" y="0px" width="25.511001586914062" height="28.968996047973633" viewBox="1.3799995183944702 0.158000648021698 25.511001586914062 28.968996047973633" enable-background="new 0 0 30 30" xml:space="preserve">
<g>
	<path fill="#0000FF" d="M26.391,27.602c0,0.492-0.117,0.736-0.352,0.736c-0.128,0-0.32-0.074-0.576-0.223   c-0.555-0.299-1.647-0.588-3.28-0.865c-1.632-0.277-3.253-0.416-4.863-0.416c-1.611,0-3.211,0.069-4.801,0.209   c-1.589,0.139-2.688,0.299-3.296,0.48c-0.607,0.18-1.071,0.271-1.392,0.271l-0.608-0.033c-0.405,0-1.045,0.076-1.919,0.225   c-0.875,0.148-1.515,0.293-1.92,0.432s-0.704,0.209-0.896,0.209c-0.192,0-0.341-0.172-0.448-0.512   c-0.107-0.342-0.16-0.566-0.16-0.672c0-0.107,0.042-0.199,0.128-0.273c0.085-0.074,0.181-0.102,0.288-0.08h0.352   c0.448,0,1.461-0.266,3.04-0.799l2.688-0.896c0.192-0.064,0.288-0.268,0.288-0.607l0.192-6.881c0.085-2.496,0.144-3.909,0.176-4.24   c0.032-0.331,0.139-0.603,0.319-0.816c0.182-0.213,0.533-0.395,1.057-0.544c0.522-0.149,0.832-0.288,0.928-0.416   s0.267-0.528,0.512-1.2s0.368-1.072,0.368-1.2c0-0.128-0.091-0.192-0.271-0.192c-0.182,0-0.528,0.059-1.04,0.176   c-0.513,0.117-0.901,0.235-1.168,0.352c-0.268,0.117-0.465,0.176-0.593,0.176c-0.299,0-0.575-0.261-0.832-0.784   C8.055,8.696,7.927,8.2,7.927,7.73c0-0.256,0.154-0.384,0.464-0.384s0.752-0.075,1.328-0.224l3.008-0.704   c0.192-0.042,0.331-0.133,0.416-0.272c0.085-0.139,0.277-0.827,0.576-2.064c0.171-0.832,0.299-1.707,0.384-2.624   c0.043-0.533,0.245-0.8,0.608-0.8c0.171,0,0.485,0.075,0.944,0.224c0.458,0.15,0.688,0.293,0.688,0.432   c0,0.139-0.059,0.267-0.176,0.384s-0.208,0.277-0.272,0.48c-0.063,0.203-0.106,0.571-0.128,1.104l-0.256,2.272   c0,0.192,0.171,0.256,0.513,0.192c2.474-0.491,3.808-0.736,4-0.736c0.191,0,0.33,0.032,0.416,0.096   c0.085,0.064,0.164,0.256,0.239,0.576c0.075,0.32,0.208,0.651,0.4,0.992c0.191,0.342,0.288,0.608,0.288,0.8   s-0.069,0.336-0.208,0.432c-0.14,0.096-0.342,0.133-0.608,0.112c-0.267-0.021-0.453-0.032-0.56-0.032   c-0.641,0-1.365,0.054-2.176,0.16c-0.812,0.107-1.488,0.219-2.032,0.336C15.239,8.6,14.935,8.69,14.871,8.754   c-0.064,0.064-0.139,0.32-0.224,0.768c-0.086,0.448-0.129,0.832-0.129,1.152c0,0.171,0.064,0.256,0.192,0.256   s0.234-0.011,0.32-0.032c0.746-0.149,1.444-0.224,2.096-0.224c0.65,0,1.349,0.15,2.096,0.448c0.747,0.299,1.12,0.608,1.12,0.928   c0,0.15-0.075,0.278-0.224,0.384c-0.427,0.32-0.641,1.542-0.641,3.664c0,2.123-0.037,3.579-0.111,4.368   c-0.075,0.789-0.112,1.344-0.112,1.664s0.005,0.699,0.016,1.136c0.011,0.438,0.091,0.677,0.24,0.72s0.485,0.08,1.008,0.112   s1.014,0.048,1.473,0.048c0.458,0,0.906-0.021,1.344-0.064c0.438-0.042,0.667-0.063,0.688-0.063c0.554,0,0.933,0.276,1.136,0.832   c0.202,0.554,0.475,1.066,0.815,1.536C26.252,26.749,26.391,27.154,26.391,27.602z M16.599,17.203c0-2.134-0.053-3.537-0.159-4.208   c-0.107-0.672-0.545-1.008-1.313-1.008c-0.576,0-1.312,0.219-2.208,0.656c-0.896,0.438-1.344,0.998-1.344,1.68   c0,0.128,0.053,0.192,0.16,0.192c0.106,0,0.49-0.075,1.151-0.224c0.661-0.149,1.077-0.224,1.248-0.224   c0.277,0,0.416,0.192,0.416,0.576c0,0.192-0.059,0.374-0.176,0.544c-0.117,0.171-0.342,0.319-0.672,0.448   c-0.331,0.128-0.8,0.325-1.408,0.592c-0.608,0.268-0.949,0.438-1.024,0.512c-0.074,0.075-0.139,0.192-0.191,0.352   c-0.054,0.16-0.08,0.337-0.08,0.529c0,0.191,0.048,0.287,0.144,0.287c0.097,0,0.197-0.021,0.305-0.064   c1.216-0.383,1.968-0.575,2.256-0.575s0.464,0.048,0.528,0.144c0.063,0.096,0.096,0.32,0.096,0.672   c0,0.353-0.064,0.576-0.192,0.672c-0.128,0.097-0.522,0.305-1.184,0.625l-1.92,0.832c-0.235,0.106-0.353,0.384-0.353,0.832   c0,0.127,0.048,0.191,0.145,0.191c0.096,0,0.229-0.021,0.399-0.064c1.387-0.426,2.347-0.639,2.88-0.639   c0.171,0,0.288,0.053,0.353,0.159c0.063,0.106,0.096,0.374,0.096,0.8c0,0.428-0.139,0.684-0.416,0.768   c-0.789,0.257-1.515,0.523-2.176,0.801s-1.051,0.453-1.168,0.527c-0.117,0.076-0.176,0.252-0.176,0.529   c0,0.276,0.032,0.447,0.096,0.512c0.064,0.063,0.299,0.059,0.704-0.017s0.848-0.112,1.328-0.112c0.479,0,1.029-0.085,1.647-0.256   c0.619-0.17,1.072-0.277,1.36-0.32c0.288-0.042,0.464-0.148,0.528-0.319c0.063-0.171,0.133-0.949,0.208-2.336   C16.562,19.88,16.599,18.525,16.599,17.203z" stroke-width="1"/>
</g>
</svg>