<svg xmlns="http://www.w3.org/2000/svg" xmlns:xlink="http://www.w3.org/1999/xlink" version="1.1" width="113.56800079345703" height="158.29798889160156" viewBox="0.20499998331069946 0.40800005197525024 113.56800079345703 158.29798889160156">
  <!-- Exported by Scratch - http://scratch.mit.edu/ -->
  <path id="ID0.9418121497146785" fill="#FFFFFF" d="M 56.989 0.908 C 23.801 0.908 0.705 26.131 0.705 53.917 C 0.705 79.129 20.663 101.785 47.573 101.785 C 52.5 101.785 57.654 100.931 61.703 99.221 L 62.142 99.649 C 54.75 109.696 40.171 123.364 31.204 133.837 C 28.516 137.044 26.49 139.62 26.49 142.602 C 26.49 150.296 36.131 158.206 42.408 158.206 C 44.208 158.206 46.672 158.206 49.148 156.71 C 51.836 155 54.525 153.279 56.325 151.581 C 78.972 131.488 113.273 86.185 113.273 53.908 C 113.273 25.5 91.515 0.908 56.989 0.908 Z M 56.989 76.147 C 42.859 76.147 35.681 65.246 35.681 53.917 C 35.681 41.508 44.208 31.687 56.989 31.687 C 70.444 31.687 78.297 41.947 78.297 53.917 C 78.297 66.517 69.769 76.147 56.989 76.147 Z " stroke-width="1"/>
</svg>