<svg xmlns="http://www.w3.org/2000/svg" xmlns:xlink="http://www.w3.org/1999/xlink" version="1.1" id="图层_1" x="0px" y="0px" width="28.7760009765625" height="16.168001174926758" viewBox="0.9299981594085693 5.150000095367432 28.7760009765625 16.168001174926758" enable-background="new 0 0 30 30" xml:space="preserve">
<g>
	<path fill="#0000FF" d="M7.447,5.65c0.213,0,0.404,0.096,0.576,0.288c0.768,0.811,1.567,1.419,2.399,1.824   c2.539,1.216,5.482,3.435,8.832,6.656c0.512,0.491,1.36,1.045,2.544,1.664c1.185,0.619,2.187,1.029,3.008,1.232   s1.761,0.629,2.816,1.28s1.584,1.157,1.584,1.521c0,0.213-0.149,0.383-0.448,0.512c-0.299,0.127-1.125,0.191-2.479,0.191   c-1.355,0-2.672-0.133-3.952-0.4c-1.28-0.266-2.203-0.432-2.769-0.496c-0.565-0.063-0.869-0.373-0.911-0.928   c-0.086-1.258-0.353-2.287-0.801-3.088c-0.447-0.8-0.965-1.274-1.552-1.424c-0.587-0.149-1.046-0.32-1.376-0.512   c-0.331-0.192-0.966-0.661-1.904-1.408c-0.191-0.149-0.405-0.224-0.64-0.224c-0.235,0-0.47,0.07-0.704,0.208   c-0.235,0.139-1.275,1.051-3.12,2.736c-1.845,1.686-3.125,2.891-3.84,3.616c-0.715,0.726-1.259,1.227-1.632,1.504   c-0.374,0.277-0.699,0.416-0.976,0.416c-0.448,0-0.672-0.309-0.672-0.928c0-0.234,0.037-0.522,0.112-0.864   c0.075-0.341,0.16-0.512,0.256-0.512c0.096,0,0.176,0.021,0.24,0.063c0.064,0.043,0.16,0.064,0.288,0.064s0.341-0.111,0.64-0.336   s0.651-0.581,1.056-1.072l2.336-3.008c1.195-1.515,1.893-2.384,2.096-2.608c0.202-0.224,0.304-0.48,0.304-0.768   s-0.111-0.501-0.336-0.64c-0.224-0.139-0.613-0.272-1.168-0.4C6.807,9.726,6.583,9.149,6.583,8.083   C6.583,6.461,6.871,5.65,7.447,5.65z" stroke-width="1"/>
</g>
</svg>