<svg xmlns="http://www.w3.org/2000/svg" xmlns:xlink="http://www.w3.org/1999/xlink" version="1.1" width="60.749935150146484" height="60.83399963378906" viewBox="-0.31004810333251953 -0.5 60.749935150146484 60.83399963378906">
  <!-- Exported by Scratch - http://scratch.mit.edu/ -->
  <g id="ID0.4156263032928109">
    <path id="ID0.3938824273645878" fill="#D5C095" d="M 59.938 37.833 C 59.938 49.982 60.403 59.834 46.739 59.834 L 14.066 59.834 C 0.401 59.834 2.207 49.982 2.207 37.833 L 2.207 23.166 C 2.207 11.016 0.823 1.166 14.487 1.166 L 46.105 1.166 C 59.768 1.166 59.938 11.016 59.938 23.166 L 59.938 37.833 Z " stroke-width="1"/>
    <path id="ID0.7366830166429281" fill="#633C11" d="M 58 36.667 C 58 48.816 58.463 58.667 44.801 58.667 L 12.127 58.667 C -1.538 58.667 0.269 48.816 0.269 36.667 L 0.269 22 C 0.269 9.849 -1.115 0 12.549 0 L 44.166 0 C 57.830 0 58 9.849 58 22 L 58 36.667 Z " stroke-width="1"/>
  </g>
</svg>