<svg xmlns="http://www.w3.org/2000/svg" xmlns:xlink="http://www.w3.org/1999/xlink" version="1.1" id="图层_1" x="0px" y="0px" width="23.850006103515625" height="19.24400520324707" viewBox="3.6819939613342285 6.987997531890869 23.850006103515625 19.24400520324707" enable-background="new 0 0 30 30" xml:space="preserve">
<g>
	<path fill="#0000FF" d="M27.032,9.731c0,0.171-0.086,0.341-0.256,0.512c-0.491,0.491-0.812,1.397-0.96,2.72   c-0.448,4.075-1.142,7.232-2.08,9.473c-0.619,1.514-0.977,2.442-1.072,2.783s-0.251,0.513-0.464,0.513   c-0.214,0-0.886-0.433-2.017-1.297c-1.131-0.863-1.92-1.562-2.367-2.096c-0.192-0.234-0.38-0.353-0.561-0.353   c-0.182,0-0.379,0.021-0.592,0.064c-1.302,0.256-2.315,0.406-3.04,0.448c-0.726,0.043-1.462,0.192-2.208,0.448   c-0.747,0.256-1.28,0.379-1.6,0.368c-0.32-0.011-0.513-0.017-0.576-0.017c-0.384,0-0.667,0.054-0.849,0.16   c-0.181,0.107-0.347,0.16-0.495,0.16c-0.15,0-0.358-0.165-0.625-0.496c-0.267-0.33-0.662-1.168-1.184-2.512   c-0.523-1.344-0.784-2.251-0.784-2.721c0-0.469-0.059-0.874-0.176-1.216c-0.117-0.341-0.219-0.763-0.304-1.264   c-0.086-0.501-0.128-0.949-0.128-1.344c0-0.395-0.085-1.008-0.256-1.84c-0.171-0.832-0.256-1.381-0.256-1.648   c0-0.267,0.037-0.464,0.112-0.592c0.075-0.128,0.283-0.261,0.624-0.4c0.341-0.138,1.845-0.432,4.512-0.88   c2.667-0.448,4.667-0.763,6-0.944s2.795-0.272,4.385-0.272c1.589,0,2.677,0.059,3.264,0.176c0.586,0.118,1.29,0.352,2.112,0.704   c0.82,0.352,1.333,0.619,1.535,0.8C26.931,9.353,27.032,9.539,27.032,9.731z M20.024,22.146c0.234,0,0.426-0.059,0.575-0.176   s0.288-0.304,0.416-0.56c0.128-0.257,0.379-1.051,0.752-2.384c0.373-1.334,0.619-2.465,0.736-3.393s0.176-2.096,0.176-3.504   c0-0.811-0.133-1.36-0.399-1.648c-0.268-0.288-0.816-0.56-1.648-0.816s-1.696-0.384-2.592-0.384c-1.6,0-3.68,0.315-6.24,0.944   c-2.56,0.629-4.027,1.104-4.4,1.424c-0.374,0.32-0.56,1.323-0.56,3.008c0,0.917,0.155,2.005,0.464,3.264   c0.309,1.259,0.613,2.063,0.912,2.416s0.603,0.528,0.912,0.528c0.309,0,0.709-0.053,1.2-0.16c1.002-0.191,2.378-0.405,4.128-0.641   c1.749-0.234,2.741-0.389,2.976-0.463c0.234-0.075,0.485-0.112,0.752-0.112s0.496,0.155,0.688,0.464   c0.192,0.31,0.288,0.678,0.288,1.104l-0.064,0.576C19.096,21.977,19.405,22.146,20.024,22.146z M19.8,12.419   c0,0.128-0.096,0.299-0.288,0.512c-0.384,0.469-0.629,0.96-0.735,1.472c-0.107,0.512-0.229,0.934-0.368,1.264   c-0.14,0.331-0.208,0.667-0.208,1.008l0.032,0.479c0,0.513-0.31,0.769-0.929,0.769c-0.832,0-1.835,0.091-3.008,0.272   c-1.174,0.182-1.888,0.336-2.144,0.464s-0.454,0.192-0.593,0.192s-0.271-0.049-0.399-0.145s-0.357-0.469-0.688-1.12   c-0.331-0.65-0.629-1.44-0.896-2.368c-0.268-0.928-0.4-1.552-0.4-1.872c0-0.512,0.331-0.768,0.992-0.768s1.723-0.208,3.184-0.624   c1.462-0.416,2.613-0.624,3.456-0.624s1.553,0.133,2.128,0.4C19.512,11.998,19.8,12.227,19.8,12.419z M12.632,16.259   c0.213,0,0.597-0.053,1.152-0.159c0.555-0.107,0.976-0.213,1.264-0.32s0.459-0.347,0.512-0.72c0.054-0.373,0.08-0.667,0.08-0.88   c0-0.555-0.203-0.832-0.607-0.832c-0.405,0-0.88,0.08-1.424,0.24s-0.907,0.299-1.089,0.416c-0.181,0.118-0.309,0.304-0.384,0.56   s-0.111,0.603-0.111,1.041S12.227,16.259,12.632,16.259z" stroke-width="1"/>
</g>
</svg>