<svg xmlns="http://www.w3.org/2000/svg" xmlns:xlink="http://www.w3.org/1999/xlink" version="1.1" id="图层_1" x="0px" y="0px" width="26.343997955322266" height="22.852001190185547" viewBox="0.6750004291534424 3.202000141143799 26.343997955322266 22.852001190185547" enable-background="new 0 0 30 30" xml:space="preserve">
<g>
	<path fill="#0000FF" d="M14.263,9.106c0,0.085-0.085,0.187-0.256,0.304s-0.405,0.454-0.704,1.008   c-0.854,1.558-1.493,2.635-1.92,3.232c-0.213,0.32-0.319,0.565-0.319,0.736s0.176,0.347,0.527,0.528   c0.353,0.182,0.576,0.326,0.672,0.432c0.097,0.107,0.171,0.315,0.225,0.624c0.053,0.309,0.08,0.65,0.08,1.023   c0,0.374-0.086,0.769-0.257,1.185s-0.309,0.624-0.416,0.624c-0.106,0-0.299-0.154-0.575-0.465   c-0.278-0.309-0.646-0.629-1.104-0.959c-0.459-0.331-0.758-0.565-0.896-0.705c-0.14-0.138-0.283-0.207-0.433-0.207   s-0.368,0.234-0.655,0.703c-0.288,0.471-0.556,1.057-0.801,1.761s-0.507,1.126-0.784,1.264c-0.277,0.14-0.8,0.384-1.568,0.736   s-1.35,0.528-1.744,0.528c-0.395,0-0.854-0.091-1.376-0.272c-0.523-0.181-0.784-0.31-0.784-0.384s0.256-0.262,0.768-0.561   l1.888-1.088c1.173-0.66,1.856-1.061,2.048-1.199s0.448-0.4,0.768-0.785c0.32-0.383,0.592-0.752,0.816-1.104   s0.336-0.581,0.336-0.688c0-0.106-0.032-0.203-0.096-0.288c-0.917-1.152-1.376-1.888-1.376-2.208c0-0.128,0.08-0.245,0.24-0.352   c0.16-0.107,0.299-0.16,0.416-0.16s0.389,0.133,0.816,0.4c0.427,0.267,0.811,0.4,1.152,0.4c0.341,0,0.656-0.458,0.943-1.376   c0.288-0.917,0.433-1.664,0.433-2.24c0-0.576-0.214-0.864-0.641-0.864c-0.277,0-0.544,0.139-0.8,0.416   c-0.619,0.662-1.077,1.078-1.376,1.248c-0.085,0.064-0.271,0.246-0.56,0.544c-0.288,0.299-0.496,0.523-0.624,0.672   c-0.128,0.15-0.262,0.224-0.4,0.224s-0.421-0.298-0.848-0.896c-0.427-0.597-0.64-0.992-0.64-1.184c0-0.192,0.219-0.352,0.656-0.48   c0.437-0.128,1.194-0.41,2.272-0.848C8.444,7.95,9.271,7.582,9.847,7.283c0.385-0.192,0.864-0.288,1.44-0.288   s1.216,0.299,1.92,0.896S14.263,8.894,14.263,9.106z M26.519,11.634c0,0.107-0.063,0.246-0.191,0.416   c-0.128,0.171-0.288,0.662-0.48,1.472c-0.981,4.118-2.048,7.062-3.199,8.832c-0.235,0.362-0.518,0.849-0.849,1.456   s-0.56,1.051-0.688,1.328s-0.283,0.416-0.464,0.416c-0.182,0-0.624-0.262-1.328-0.784s-1.403-1.185-2.097-1.983   c-0.693-0.801-1.04-1.339-1.04-1.617c0-0.127,0.054-0.191,0.16-0.191s0.32,0.102,0.641,0.305c0.319,0.202,0.74,0.379,1.264,0.527   c0.522,0.149,0.88,0.225,1.072,0.225c0.191,0,0.421-0.092,0.688-0.272s0.646-0.837,1.136-1.968c0.491-1.131,0.864-2.347,1.12-3.648   c0.256-1.301,0.385-2.25,0.385-2.848c0-0.597-0.246-1.045-0.736-1.344c-0.491-0.298-0.821-0.448-0.992-0.448   s-0.373,0.293-0.608,0.88c-0.234,0.587-0.646,1.349-1.231,2.288c-0.587,0.939-1.228,1.835-1.92,2.688   c-0.693,0.854-1.189,1.488-1.488,1.904s-0.479,0.715-0.544,0.896c-0.063,0.182-0.096,0.448-0.096,0.801   c0,0.352-0.118,0.661-0.353,0.928c-0.234,0.268-0.773,0.672-1.615,1.216c-0.844,0.544-1.67,0.976-2.48,1.296   s-1.483,0.48-2.016,0.48c-0.214,0-0.32-0.043-0.32-0.129c0-0.085,0.053-0.191,0.16-0.319c0.106-0.128,0.49-0.47,1.151-1.024   l3.265-2.783c0.661-0.555,1.301-1.334,1.92-2.336c0.618-1.003,1.157-2.012,1.616-3.024c0.458-1.013,0.688-1.616,0.688-1.808   s-0.112-0.288-0.336-0.288s-0.522,0.102-0.896,0.304c-0.374,0.203-0.63,0.304-0.769,0.304s-0.304-0.272-0.496-0.816   c-0.191-0.544-0.288-0.922-0.288-1.136s0.155-0.336,0.464-0.368c0.31-0.032,0.854-0.16,1.633-0.384   c0.778-0.224,1.258-0.357,1.439-0.4c0.182-0.042,0.325-0.138,0.433-0.288c0.106-0.149,0.341-0.821,0.703-2.016   c0.363-1.195,0.715-2.496,1.057-3.904c0.128-0.512,0.261-0.768,0.399-0.768s0.357,0.075,0.656,0.224l0.992,0.544   c0.362,0.171,0.576,0.294,0.64,0.368C22.743,4.91,22.775,5,22.775,5.106c0,0.107-0.123,0.31-0.368,0.608   c-0.246,0.299-0.496,0.907-0.752,1.824c-0.256,0.917-0.385,1.573-0.385,1.968c0,0.395,0.203,0.592,0.608,0.592   c0.875,0.021,1.749,0.181,2.624,0.48s1.429,0.512,1.664,0.64C26.401,11.347,26.519,11.485,26.519,11.634z" stroke-width="1"/>
</g>
</svg>