<svg xmlns="http://www.w3.org/2000/svg" xmlns:xlink="http://www.w3.org/1999/xlink" version="1.1" id="图层_1" x="0px" y="0px" width="27.01599884033203" height="27.08099937438965" viewBox="2.179001569747925 2.174999952316284 27.01599884033203 27.08099937438965" enable-background="new 0 0 30 30" xml:space="preserve">
<g>
	<path fill="#0000FF" d="M16.215,10.323c0,0.128,0.053,0.213,0.16,0.256c1.706,0.917,2.784,1.558,3.232,1.92   c0.98,0.832,2.527,1.707,4.64,2.624c2.965,1.28,4.448,2.198,4.448,2.752c0,0.213-0.539,0.319-1.616,0.319s-1.979-0.149-2.704-0.448   c-1.067-0.447-1.915-0.692-2.544-0.735c-0.63-0.042-0.976-0.448-1.04-1.216c-0.107-1.301-0.992-2.208-2.656-2.72   c-0.598-0.213-1.248-0.522-1.952-0.928c-0.106-0.064-0.213-0.096-0.319-0.096c-0.107,0-0.171,0.118-0.192,0.352l-0.288,2.912   c0,0.191,0.112,0.277,0.336,0.256c0.225-0.021,0.57-0.031,1.04-0.031c0.469,0,1.114,0.085,1.937,0.256   c0.82,0.17,1.231,0.427,1.231,0.768c0,0.128-0.048,0.283-0.144,0.464c-0.097,0.182-0.188,0.79-0.272,1.824   c-0.085,1.035-0.128,1.829-0.128,2.384s0.011,0.934,0.032,1.137c0.021,0.203,0.032,0.752,0.032,1.647s-0.027,1.632-0.08,2.208   c-0.054,0.576-0.08,0.996-0.08,1.264s0.011,0.475,0.032,0.625c0.021,0.148,0.031,0.293,0.031,0.432s-0.102,0.207-0.304,0.207   c-0.203,0-0.768-0.262-1.696-0.783c-0.928-0.523-1.872-1.222-2.832-2.096c-0.149-0.129-0.287-0.192-0.416-0.192   c-0.128,0-0.607,0.122-1.439,0.368c-0.832,0.244-1.323,0.437-1.472,0.576c-0.15,0.139-0.268,0.207-0.353,0.207   c-0.256,0-0.501-0.432-0.736-1.295c-0.234-0.865-0.352-2.443-0.352-4.736s0.197-3.557,0.592-3.792s1.265-0.533,2.608-0.896   c0.17-0.043,0.261-0.113,0.271-0.209s0.017-0.528,0.017-1.296l0.096-1.824c0-0.149-0.054-0.224-0.16-0.224   c-0.234,0-1.088,0.709-2.56,2.128c-1.473,1.419-2.315,2.448-2.528,3.088c-0.214,0.64-0.683,1.052-1.408,1.232   c-0.726,0.181-1.387,0.272-1.984,0.272s-1.083-0.059-1.456-0.177c-0.373-0.116-0.56-0.224-0.56-0.319   c0-0.097,0.288-0.24,0.864-0.433s1.216-0.501,1.92-0.928s1.248-0.858,1.632-1.296c0.383-0.438,0.938-0.928,1.664-1.472   s1.541-1.269,2.448-2.176c0.906-0.906,1.36-1.445,1.36-1.616c0-0.064-0.064-0.096-0.192-0.096c-0.256,0-0.88,0.096-1.872,0.288   s-1.798,0.39-2.416,0.592c-0.619,0.203-1.024,0.304-1.216,0.304s-0.32-0.117-0.384-0.352c-0.171-0.619-0.32-1.029-0.448-1.232   c-0.128-0.203-0.192-0.368-0.192-0.496s0.048-0.213,0.144-0.256c0.096-0.042,0.293-0.064,0.592-0.064   c0.298,0,0.811-0.096,1.536-0.288c1.023-0.277,2.021-0.453,2.992-0.528c0.97-0.074,1.621-0.16,1.952-0.256   c0.33-0.096,0.495-0.272,0.495-0.528c0-0.683-0.224-1.024-0.672-1.024l-1.855,0.032c-0.832,0-1.59-0.016-2.272-0.048   C8.076,6.882,7.671,6.846,7.543,6.803C7.415,6.76,7.351,6.686,7.351,6.579c0-0.277,0.593-0.667,1.776-1.168   c1.184-0.501,2.037-0.805,2.56-0.912c0.523-0.106,1.094-0.309,1.713-0.608c0.191-0.085,0.794-0.25,1.808-0.496   c1.013-0.245,1.786-0.389,2.32-0.432c0.532-0.042,0.906-0.101,1.12-0.176c0.213-0.075,0.362-0.112,0.447-0.112   c0.277,0,0.539,0.219,0.784,0.656c0.245,0.438,0.368,0.784,0.368,1.04s-0.192,0.4-0.576,0.432   c-0.384,0.032-0.795,0.096-1.231,0.192c-0.438,0.096-1.094,0.187-1.969,0.272c-0.875,0.085-1.499,0.277-1.872,0.576   c-0.373,0.299-0.56,0.555-0.56,0.768c0,0.15,0.117,0.246,0.352,0.288c0.661,0.128,1.157,0.272,1.488,0.432s0.613,0.229,0.848,0.208   c2.027-0.298,3.393-0.448,4.097-0.448c0.298,0,0.496,0.043,0.592,0.128s0.213,0.331,0.352,0.736s0.208,0.757,0.208,1.056   s-0.069,0.501-0.208,0.608c-0.139,0.107-0.304,0.16-0.496,0.16c-0.191,0-0.362-0.026-0.512-0.08s-0.507-0.08-1.072-0.08   s-1.242,0.053-2.031,0.16c-0.79,0.107-1.228,0.198-1.313,0.272C16.258,10.125,16.215,10.216,16.215,10.323z M16.215,26.099   c0.234,0,0.433-0.085,0.592-0.257c0.16-0.17,0.257-0.415,0.288-0.735c0.032-0.319,0.048-1.13,0.048-2.433   c0-1.301-0.031-2.287-0.096-2.959c-0.063-0.672-0.176-1.141-0.336-1.408c-0.16-0.267-0.432-0.496-0.816-0.688   c-0.384-0.192-0.768-0.289-1.151-0.289c-0.726,0-1.35,0.283-1.872,0.849c-0.523,0.565-0.784,0.987-0.784,1.264   c0,0.278,0.096,0.396,0.288,0.353c0.938-0.256,1.643-0.385,2.112-0.385c0.469,0,0.704,0.203,0.704,0.608   c0,0.704-0.192,1.12-0.576,1.248c-0.641,0.214-1.265,0.454-1.872,0.72c-0.608,0.268-0.971,0.448-1.088,0.545   c-0.118,0.096-0.208,0.25-0.272,0.463c-0.063,0.214-0.096,0.433-0.096,0.656c0,0.225,0.042,0.336,0.128,0.336   c0.085,0,0.261-0.031,0.528-0.096c0.267-0.064,0.692-0.145,1.279-0.24s0.977-0.145,1.168-0.145c0.192,0,0.342,0.033,0.448,0.097   s0.171,0.283,0.192,0.655c0.021,0.373,0.021,0.625,0,0.753c-0.021,0.128-0.032,0.234-0.032,0.319c0,0.213,0.16,0.395,0.479,0.545   C15.799,26.023,16.044,26.099,16.215,26.099z" stroke-width="1"/>
</g>
</svg>