<svg xmlns="http://www.w3.org/2000/svg" xmlns:xlink="http://www.w3.org/1999/xlink" version="1.1" width="124.92799377441406" height="158.42098999023438" viewBox="0.39799928665161133 0.40800005197525024 124.92799377441406 158.42098999023438">
  <!-- Exported by Scratch - http://scratch.mit.edu/ -->
  <path id="ID0.35127389151602983" fill="#FFFFFF" d="M 108.82 94.722 L 102.474 94.722 L 102.474 28.516 C 102.474 8.896 91.91 0.908 78.647 0.908 C 66.755 0.908 60.355 4.801 55.326 13.417 L 4.105 100.965 C 2.732 103.113 0.898 105.712 0.898 110.461 C 0.898 116.064 5.702 123.184 16.906 123.184 L 72.019 123.184 L 72.019 141.51 C 72.019 152.951 74.347 158.329 86.014 158.329 C 97.681 158.329 102.472 152.939 102.472 141.51 L 102.472 123.184 L 108.818 123.184 C 117.74 123.184 124.826 117.581 124.826 108.942 C 124.828 100.323 117.742 94.722 108.82 94.722 Z M 72.719 94.722 L 41.387 94.722 L 72.257 34.545 L 72.719 34.545 L 72.719 94.722 Z " stroke-width="1"/>
</svg>