<svg xmlns="http://www.w3.org/2000/svg" xmlns:xlink="http://www.w3.org/1999/xlink" version="1.1" id="图层_1" x="0px" y="0px" width="24.424999237060547" height="21.990001678466797" viewBox="2.1459994316101074 3.583998203277588 24.424999237060547 21.990001678466797" enable-background="new 0 0 30 30" xml:space="preserve">
<g>
	<path fill="#0000FF" d="M26.071,24.019c0,0.128-0.032,0.293-0.097,0.496c-0.063,0.202-0.154,0.304-0.271,0.304   s-0.283-0.074-0.496-0.224c-1.003-0.618-2.006-1.067-3.008-1.345c-1.003-0.276-2.038-0.416-3.104-0.416S15.991,23,12.983,23.33   c-3.009,0.332-5.014,0.592-6.017,0.785c-1.003,0.191-1.803,0.399-2.4,0.623c-0.597,0.225-0.928,0.336-0.992,0.336   c-0.214,0-0.422-0.271-0.624-0.816c-0.203-0.543-0.304-0.928-0.304-1.151s0.234-0.368,0.704-0.433   c0.981-0.148,2.773-0.532,5.375-1.151c1.771-0.405,2.709-0.64,2.816-0.704c0.299-0.128,0.517-0.287,0.656-0.48   c0.139-0.191,0.219-0.458,0.24-0.799c0.063-1.109,0.096-3.083,0.096-5.92l-0.032-2.624c0-1.216,0.053-2.544,0.16-3.984   c0.106-1.44,0.202-2.288,0.288-2.544c0.085-0.256,0.271-0.384,0.56-0.384s0.773,0.118,1.456,0.352   c0.683,0.235,1.104,0.427,1.265,0.576c0.159,0.149,0.239,0.32,0.239,0.512s-0.106,0.395-0.319,0.608   c-0.214,0.214-0.363,0.709-0.448,1.488c-0.086,0.779-0.128,1.403-0.128,1.872s0.063,0.704,0.191,0.704s0.31-0.042,0.544-0.128   c0.235-0.085,0.507-0.149,0.816-0.192c0.309-0.042,0.693-0.144,1.152-0.304c0.458-0.16,0.74-0.288,0.848-0.384   c0.106-0.096,0.213-0.144,0.32-0.144c0.213,0,0.437,0.213,0.672,0.64c0.234,0.427,0.352,0.747,0.352,0.96   c0,0.213-0.106,0.395-0.319,0.544c-0.214,0.149-0.651,0.363-1.313,0.64s-1.312,0.651-1.952,1.12c-0.64,0.47-1.019,0.816-1.136,1.04   c-0.117,0.224-0.176,0.518-0.176,0.88l-0.032,4.32c0,0.769,0.512,1.151,1.536,1.151c0.661,0,1.365,0.038,2.112,0.113   c0.746,0.074,1.514,0.111,2.304,0.111c0.789,0,1.402-0.016,1.84-0.048s0.73-0.048,0.88-0.048s0.288,0.043,0.416,0.128   s0.325,0.379,0.592,0.88c0.267,0.502,0.475,0.981,0.624,1.439C25.996,23.373,26.071,23.742,26.071,24.019z" stroke-width="1"/>
</g>
</svg>