<svg xmlns="http://www.w3.org/2000/svg" xmlns:xlink="http://www.w3.org/1999/xlink" version="1.1" id="图层_1" x="0px" y="0px" width="24.58900260925293" height="26.693998336791992" viewBox="1.101993203163147 0.985000491142273 24.58900260925293 26.693998336791992" style="enable-background:new 0 0 30 30;" xml:space="preserve">
  <g>
    <g>
      <path style="fill:#0000FF;" d="M11.238,20.652c-0.342,0.043-0.598,0.16-0.769,0.353s-0.277,0.672-0.319,1.44l-0.064,1.151&#13;&#10;&#9;&#9;c0,0.214,0.085,0.319,0.256,0.319c0.299,0,0.949-0.5,1.952-1.504c1.003-1.002,1.771-2.004,2.304-3.008&#13;&#10;&#9;&#9;c0.533-1.002,0.987-2.602,1.36-4.8c0.373-2.197,0.56-4.352,0.56-6.464c0-0.298,0.043-0.512,0.129-0.64&#13;&#10;&#9;&#9;c0.085-0.128,0.176-0.202,0.271-0.224c0.096-0.021,0.261-0.032,0.496-0.032c0.234,0,0.555-0.048,0.96-0.144&#13;&#10;&#9;&#9;c0.405-0.096,0.715-0.187,0.928-0.272c0.981-0.341,1.984-0.512,3.008-0.512c1.024,0,1.761,0.101,2.208,0.304&#13;&#10;&#9;&#9;c0.448,0.203,0.673,0.395,0.673,0.576c0,0.182-0.172,0.475-0.513,0.88c-0.384,0.448-0.576,1.344-0.576,2.688&#13;&#10;&#9;&#9;c0,0.021,0.037,1.232,0.112,3.632c0.074,2.4,0.112,4.256,0.112,5.568s0.026,2.251,0.08,2.816c0.053,0.564,0.154,1.279,0.304,2.144&#13;&#10;&#9;&#9;s0.224,1.402,0.224,1.616c0,0.426-0.128,0.64-0.384,0.64s-0.672-0.128-1.248-0.384s-1.317-0.486-2.224-0.688&#13;&#10;&#9;&#9;c-0.907-0.203-1.852-0.694-2.832-1.473c-0.981-0.778-1.472-1.359-1.472-1.744c0-0.128,0.063-0.191,0.191-0.191&#13;&#10;&#9;&#9;s0.277,0.031,0.448,0.096c1.45,0.405,2.496,0.607,3.136,0.607c1.259,0,1.813-0.64,1.664-1.92c-0.106-1.066-0.219-2.885-0.336-5.455&#13;&#10;&#9;&#9;c-0.117-2.571-0.176-4.411-0.176-5.521c0-1.109-0.091-1.781-0.272-2.016c-0.182-0.234-0.49-0.352-0.928-0.352&#13;&#10;&#9;&#9;s-0.843,0.096-1.216,0.288c-0.374,0.192-0.613,0.395-0.72,0.608c-0.107,0.213-0.16,0.475-0.16,0.784&#13;&#10;&#9;&#9;c0,0.31,0.042,0.485,0.128,0.528c0.085,0.043,0.325,0.043,0.72,0c0.395-0.042,0.747-0.064,1.056-0.064&#13;&#10;&#9;&#9;c0.31,0,0.465,0.069,0.465,0.208c0,0.139-0.075,0.464-0.225,0.976c-0.149,0.512-0.373,0.811-0.672,0.896&#13;&#10;&#9;&#9;c-0.576,0.171-1.045,0.379-1.408,0.624c-0.362,0.246-0.544,0.656-0.544,1.232c0,0.213,0.064,0.32,0.192,0.32s0.234-0.01,0.32-0.032&#13;&#10;&#9;&#9;c0.085-0.021,0.356-0.08,0.815-0.176c0.459-0.096,0.784-0.144,0.977-0.144c0.191,0,0.287,0.118,0.287,0.352&#13;&#10;&#9;&#9;c0,0.235-0.048,0.544-0.144,0.928c-0.096,0.384-0.192,0.624-0.288,0.72c-0.096,0.097-0.363,0.22-0.8,0.368&#13;&#10;&#9;&#9;c-0.438,0.149-0.928,0.416-1.472,0.801c-0.544,0.383-0.881,0.666-1.009,0.848s-0.191,0.447-0.191,0.8s0.021,0.603,0.063,0.752&#13;&#10;&#9;&#9;s0.064,0.277,0.064,0.384c0,0.555-0.699,1.436-2.096,2.641c-1.398,1.205-2.694,1.924-3.889,2.16&#13;&#10;&#9;&#9;c-0.277,0.042-0.459,0.1-0.544,0.176c-0.085,0.074-0.149,0.25-0.191,0.527c-0.129,0.661-0.353,0.992-0.673,0.992&#13;&#10;&#9;&#9;c-0.149,0-0.357-0.075-0.624-0.225c-0.267-0.148-0.399-0.362-0.399-0.64s0.021-0.575,0.063-0.896&#13;&#10;&#9;&#9;c0.128-0.811,0.192-1.793,0.192-2.944c0-0.234-0.075-0.433-0.224-0.592c-0.149-0.16-0.3-0.24-0.448-0.24&#13;&#10;&#9;&#9;c-0.149,0-0.604,0.06-1.36,0.177c-0.757,0.117-1.547,0.293-2.368,0.527c-0.822,0.234-1.302,0.395-1.44,0.48&#13;&#10;&#9;&#9;c-0.139,0.085-0.262,0.127-0.368,0.127c-0.107,0-0.262-0.164-0.464-0.496c-0.203-0.33-0.304-0.559-0.304-0.688&#13;&#10;&#9;&#9;c0-0.128,0.085-0.244,0.256-0.352s0.928-0.33,2.272-0.672c1.344-0.342,2.507-0.629,3.488-0.864c0.427-0.106,0.64-0.31,0.64-0.608&#13;&#10;&#9;&#9;c0-0.085-0.031-0.234-0.096-0.447s-0.155-0.32-0.272-0.32s-0.239,0.011-0.367,0.031c-0.128,0.021-0.251,0.033-0.368,0.033&#13;&#10;&#9;&#9;c-0.118,0-0.229-0.054-0.336-0.16c-0.107-0.107-0.315-0.475-0.624-1.104c-0.31-0.629-0.555-1.322-0.736-2.08&#13;&#10;&#9;&#9;C5.281,13.928,5.19,13.32,5.19,12.861c0-0.458,0.075-0.736,0.224-0.832c0.149-0.096,0.416-0.197,0.8-0.304l1.536-0.352&#13;&#10;&#9;&#9;c0.512-0.106,0.811-0.181,0.896-0.224c0.085-0.043,0.17-0.155,0.256-0.336c0.085-0.181,0.128-0.33,0.128-0.448&#13;&#10;&#9;&#9;c0-0.117-0.017-0.229-0.048-0.336C8.95,9.922,8.907,9.853,8.854,9.821C8.801,9.789,8.688,9.772,8.518,9.772&#13;&#10;&#9;&#9;c-0.64,0-1.125,0.07-1.455,0.208c-0.331,0.139-0.561,0.208-0.688,0.208S6.145,10.125,6.07,9.997&#13;&#10;&#9;&#9;C5.995,9.869,5.873,9.528,5.702,8.973C5.531,8.418,5.446,8.061,5.446,7.901c0-0.16,0.064-0.277,0.192-0.352s0.448-0.128,0.959-0.16&#13;&#10;&#9;&#9;c0.513-0.032,1.094-0.09,1.744-0.176c0.65-0.085,1.029-0.144,1.136-0.176C9.585,7.005,9.675,6.941,9.75,6.845&#13;&#10;&#9;&#9;c0.074-0.096,0.144-0.448,0.208-1.056s0.171-1.344,0.32-2.208c0.148-0.864,0.298-1.429,0.447-1.696&#13;&#10;&#9;&#9;c0.149-0.267,0.342-0.4,0.576-0.4s0.549,0.096,0.944,0.288c0.395,0.192,0.592,0.411,0.592,0.656c0,0.246-0.102,0.576-0.304,0.992&#13;&#10;&#9;&#9;c-0.203,0.416-0.379,0.917-0.528,1.504c-0.149,0.587-0.224,0.987-0.224,1.2c0,0.32,0.096,0.48,0.288,0.48&#13;&#10;&#9;&#9;c0.191,0,0.41-0.064,0.655-0.192s0.485-0.192,0.721-0.192c0.234,0,0.527,0.197,0.88,0.592c0.352,0.395,0.528,0.784,0.528,1.168&#13;&#10;&#9;&#9;c0,0.384-0.198,0.603-0.593,0.656c-0.395,0.054-0.795,0.144-1.199,0.272L11.91,9.292c-0.342,0.128-0.555,0.267-0.64,0.416&#13;&#10;&#9;&#9;c-0.086,0.15-0.129,0.326-0.129,0.528s0.049,0.341,0.145,0.416s0.229,0.112,0.399,0.112h0.545c0.66,0,1.279,0.112,1.855,0.336&#13;&#10;&#9;&#9;s0.864,0.47,0.864,0.736s-0.117,0.571-0.353,0.912c-0.234,0.342-0.57,0.939-1.008,1.792c-0.438,0.854-0.709,1.451-0.815,1.792&#13;&#10;&#9;&#9;c-0.107,0.342-0.198,0.593-0.272,0.752c-0.075,0.16-0.155,0.257-0.24,0.289c-0.085,0.031-0.299,0.048-0.64,0.048&#13;&#10;&#9;&#9;c-0.342,0-0.576,0.101-0.704,0.304s-0.192,0.39-0.192,0.561c0,0.17,0.097,0.256,0.288,0.256c0.192,0,0.491-0.049,0.896-0.145&#13;&#10;&#9;&#9;s0.715-0.144,0.928-0.144c0.405,0,0.709,0.261,0.912,0.784c0.202,0.522,0.304,0.858,0.304,1.008s-0.059,0.251-0.176,0.304&#13;&#10;&#9;&#9;c-0.117,0.054-0.368,0.102-0.752,0.144L11.238,20.652z M8.358,16.205c0.49,0,1.028-0.08,1.615-0.24s0.955-0.314,1.104-0.464&#13;&#10;&#9;&#9;c0.148-0.149,0.288-0.458,0.416-0.928s0.191-0.875,0.191-1.216c0-0.832-0.479-1.248-1.439-1.248c-0.405,0-0.981,0.149-1.729,0.448&#13;&#10;&#9;&#9;c-0.746,0.299-1.119,0.651-1.119,1.056c0,0.107,0.063,0.16,0.191,0.16s0.459-0.08,0.992-0.24s0.869-0.261,1.008-0.304&#13;&#10;&#9;&#9;c0.139-0.042,0.24-0.064,0.304-0.064c0.257,0,0.385,0.176,0.385,0.528s-0.038,0.597-0.112,0.736&#13;&#10;&#9;&#9;c-0.075,0.139-0.283,0.293-0.624,0.464C9.2,15.063,8.79,15.218,8.31,15.357c-0.479,0.139-0.72,0.283-0.72,0.432&#13;&#10;&#9;&#9;C7.59,16.066,7.846,16.205,8.358,16.205z" stroke-width="1"/>
    </g>
    <g/>
    <g/>
    <g/>
    <g/>
    <g/>
    <g/>
    <g/>
    <g/>
    <g/>
    <g/>
    <g/>
    <g/>
    <g/>
    <g/>
    <g/>
  </g>
</svg>