<svg xmlns="http://www.w3.org/2000/svg" xmlns:xlink="http://www.w3.org/1999/xlink" version="1.1" id="图层_1" x="0px" y="0px" width="27.464998245239258" height="28.26599884033203" viewBox="-0.1579994559288025 1.3410019874572754 27.464998245239258 28.26599884033203" enable-background="new 0 0 30 30" xml:space="preserve">
<g>
	<path fill="#0000FF" d="M26.807,11.827c0,0.683-0.288,1.024-0.863,1.024l-0.736-0.064c-0.726,0-1.157,0.053-1.296,0.16   c-0.139,0.107-0.197,0.4-0.176,0.88c0.021,0.48,0.031,1.573,0.031,3.28l-0.031,2.656c0,1.493,0.031,3.029,0.096,4.608l0.16,3.744   c0,0.66-0.197,0.992-0.592,0.992c-0.396,0-1.456-0.369-3.185-1.105c-1.728-0.736-2.886-1.381-3.472-1.936   c-0.587-0.555-0.88-0.896-0.88-1.023c0-0.129,0.053-0.192,0.16-0.192c0.106,0,0.266,0.032,0.479,0.096   c1.686,0.576,3.062,0.864,4.128,0.864c0.362,0,0.592-0.188,0.688-0.561c0.096-0.373,0.144-1.396,0.144-3.071   S21.426,19,21.351,17.666c-0.074-1.332-0.111-2.33-0.111-2.992c0-0.661-0.043-1.029-0.128-1.104   c-0.086-0.074-0.256-0.101-0.513-0.08h-0.352l-0.928-0.032c-0.3,0-0.604,0.038-0.912,0.112c-0.31,0.075-0.464,0.198-0.464,0.368   c0,0.171,0.096,0.31,0.288,0.416c1.344,0.854,2.016,1.632,2.016,2.336c0,0.47-0.171,0.987-0.512,1.552   c-0.342,0.566-0.614,0.848-0.816,0.848c-0.203,0-0.405-0.159-0.608-0.479c-0.202-0.319-0.527-1.114-0.976-2.384   c-0.448-1.269-0.672-2-0.672-2.192l0.032-0.32c0-0.192-0.06-0.416-0.177-0.672s-0.234-0.384-0.352-0.384s-0.197,0.037-0.24,0.112   c-0.043,0.075-0.149,0.384-0.319,0.928c-0.172,0.544-0.305,0.923-0.4,1.136c-0.096,0.213-0.144,0.427-0.144,0.64   s0.133,0.475,0.399,0.783c0.267,0.311,0.421,0.476,0.464,0.496c0.192,0.086,0.288,0.539,0.288,1.361   c0,0.82-0.117,1.429-0.352,1.823c-0.235,0.396-0.448,0.593-0.641,0.593c-0.234,0-0.485-0.337-0.752-1.009s-0.501-1.008-0.704-1.008   c-0.202,0-0.347,0.054-0.432,0.159c-0.363,0.576-0.747,1.063-1.152,1.457s-0.789,0.693-1.151,0.896   c-0.363,0.203-0.641,0.32-0.832,0.353c-0.192,0.031-0.641,0.048-1.344,0.048c-0.32,0-0.513,0.075-0.576,0.224   c-0.064,0.149-0.091,0.288-0.08,0.416s-0.006,0.368-0.048,0.721c-0.043,0.352-0.064,0.762-0.064,1.231   c0,0.513,0.011,0.992,0.032,1.44l0.063,1.088c0,0.404-0.133,0.607-0.399,0.607c-0.268,0-0.656-0.165-1.168-0.496   c-0.512-0.33-0.768-0.603-0.768-0.816c0-0.213,0.074-0.395,0.224-0.543c0.277-0.277,0.416-0.939,0.416-1.984   c0-0.469,0.032-1.227,0.096-2.271l0.128-2.656c0-0.213-0.064-0.32-0.192-0.32s-0.454,0.191-0.976,0.576   c-0.523,0.384-1.035,0.816-1.536,1.296c-0.501,0.479-1.045,0.923-1.632,1.328c-0.587,0.405-0.981,0.608-1.184,0.608   c-0.203,0-0.395-0.075-0.576-0.225c-0.182-0.148-0.272-0.341-0.272-0.576c0-0.234,0.496-0.783,1.488-1.647   c0.992-0.864,1.92-1.872,2.784-3.024c0.864-1.152,1.296-1.861,1.296-2.128c0-0.267-0.224-0.4-0.672-0.4   c-0.725,0-1.483,0.246-2.272,0.736c-0.213,0.128-0.363,0.192-0.448,0.192c-0.235,0-0.496-0.395-0.784-1.184   c-0.288-0.789-0.432-1.253-0.432-1.392c0-0.139,0.202-0.24,0.608-0.304c0.554-0.064,1.397-0.245,2.528-0.544   c1.13-0.298,1.861-0.581,2.192-0.848c0.331-0.267,0.496-0.603,0.496-1.008L7.063,7.378c0-0.811,0.064-1.792,0.192-2.944   s0.229-1.813,0.304-1.984C7.634,2.28,7.777,2.194,7.991,2.194c0.213,0,0.533,0.085,0.96,0.256s0.692,0.304,0.8,0.4   c0.106,0.096,0.16,0.203,0.16,0.32c0,0.118-0.075,0.229-0.225,0.336c-0.256,0.192-0.49,0.902-0.703,2.128   c-0.214,1.227-0.32,2.342-0.32,3.344c0,0.192,0.08,0.326,0.24,0.4c0.16,0.075,0.442,0.112,0.848,0.112   c0.234,0,0.352,0.192,0.352,0.576c0,0.917-0.287,1.643-0.863,2.176c-0.299,0.277-0.448,0.518-0.448,0.72   c0,0.203,0.16,0.39,0.479,0.56c0.704,0.384,1.057,0.832,1.057,1.344c0,0.512-0.171,0.768-0.512,0.768   c-0.064,0-0.166-0.016-0.305-0.049c-0.139-0.031-0.267-0.047-0.384-0.047s-0.219,0.047-0.304,0.144   c-0.086,0.096-0.16,0.731-0.225,1.903l-0.096,1.568c0,0.342,0.091,0.512,0.272,0.512c0.181,0,0.56-0.17,1.136-0.512   c0.576-0.341,1.146-0.863,1.712-1.568c0.565-0.703,0.858-1.205,0.88-1.504c0-0.127-0.032-0.25-0.096-0.367   c-0.064-0.117-0.272-0.464-0.624-1.041c-0.353-0.576-0.592-0.944-0.72-1.104c-0.129-0.16-0.192-0.304-0.192-0.432   c0-0.341,0.17-0.512,0.512-0.512c0.192,0,0.395,0.075,0.608,0.224c0.746,0.555,1.194,0.832,1.344,0.832   c0.256,0,0.427-0.384,0.512-1.152l0.128-0.992c0-0.491-0.117-0.736-0.352-0.736c-0.235,0-0.523,0.203-0.864,0.608   c-0.106,0.128-0.245,0.192-0.416,0.192s-0.304-0.09-0.399-0.272c-0.097-0.181-0.283-0.411-0.561-0.688   c-0.043-0.042-0.063-0.123-0.063-0.24c0-0.117,0.042-0.25,0.128-0.4c0.085-0.149,0.17-0.234,0.256-0.256   c0.533-0.085,0.992-0.256,1.376-0.512c0.683-0.448,1.429-0.672,2.24-0.672c0.554,0,1.008,0.123,1.359,0.368   c0.353,0.245,0.528,0.485,0.528,0.72c0,0.235-0.107,0.438-0.32,0.608c-0.213,0.171-0.319,0.379-0.319,0.624   c0,0.246,0.298,0.368,0.896,0.368c0.597,0,1.045-0.064,1.344-0.192s0.907-0.298,1.824-0.512c0.299-0.064,0.48-0.17,0.544-0.32   c0.064-0.149,0.096-0.688,0.096-1.616c0-0.928,0.032-1.952,0.097-3.072c0.063-1.12,0.096-1.936,0.096-2.448l-0.063-0.864   c0-0.256,0.101-0.384,0.304-0.384c0.202,0,0.688,0.16,1.456,0.48c0.768,0.32,1.151,0.587,1.151,0.8c0,0.064-0.031,0.16-0.096,0.288   c-0.342,0.555-0.512,2.144-0.512,4.768c0,0.832,0.021,1.333,0.063,1.504c0.043,0.171,0.203,0.256,0.48,0.256l1.088-0.16   c0.32,0,0.646,0.278,0.976,0.832C26.642,11.166,26.807,11.57,26.807,11.827z" stroke-width="1"/>
</g>
</svg>