<svg xmlns="http://www.w3.org/2000/svg" xmlns:xlink="http://www.w3.org/1999/xlink" version="1.1" id="图层_1" x="0px" y="0px" width="27.336999893188477" height="25.09600067138672" viewBox="1.8270010948181152 2.111999988555908 27.336999893188477 25.09600067138672" enable-background="new 0 0 30 30" xml:space="preserve">
<g>
	<path fill="#0000FF" d="M11.095,19.57c0,0.235-0.245,0.624-0.735,1.168c-0.491,0.545-1.328,1.195-2.513,1.952   c-1.184,0.758-2.027,1.354-2.528,1.792c-0.501,0.438-0.79,0.721-0.864,0.848c-0.075,0.129-0.213,0.192-0.416,0.192   c-0.203,0-0.539-0.192-1.008-0.576s-0.704-0.672-0.704-0.864c0-0.191,0.096-0.309,0.288-0.352c0.192-0.043,0.544-0.256,1.056-0.641   c1.898-1.386,3.461-2.404,4.688-3.055c1.227-0.651,1.968-0.977,2.224-0.977C10.924,19.059,11.095,19.229,11.095,19.57z    M12.439,10.291c0,0.171-0.06,0.299-0.177,0.384c-0.117,0.086-0.613,0.709-1.487,1.872c-0.875,1.163-1.36,1.813-1.456,1.952   c-0.097,0.139-0.145,0.272-0.145,0.4c0,0.171,0.085,0.256,0.256,0.256s0.347-0.026,0.528-0.08c0.181-0.053,0.352-0.08,0.512-0.08   s0.331,0.192,0.513,0.576c0.181,0.385,0.271,0.651,0.271,0.801c0,0.533-0.683,1.013-2.048,1.439   c-0.555,0.171-1.254,0.469-2.096,0.896c-0.843,0.426-1.333,0.709-1.472,0.848c-0.139,0.139-0.262,0.208-0.368,0.208   c-0.256,0-0.56-0.347-0.912-1.04s-0.528-1.104-0.528-1.232c0-0.128,0.106-0.244,0.32-0.352c0.832-0.405,1.568-0.992,2.208-1.76   s0.96-1.269,0.96-1.504c0-0.106-0.07-0.16-0.208-0.16c-0.139,0-0.475,0.096-1.008,0.288c-0.534,0.192-0.896,0.336-1.088,0.432   c-0.192,0.096-0.32,0.144-0.384,0.144c-0.235,0-0.544-0.352-0.928-1.056c-0.384-0.704-0.576-1.136-0.576-1.296   s0.144-0.304,0.432-0.432s0.57-0.218,0.848-0.272c0.277-0.053,0.613-0.336,1.008-0.848c0.395-0.512,1.072-1.616,2.032-3.312   c0.96-1.696,1.477-2.65,1.552-2.864c0.074-0.213,0.261-0.32,0.56-0.32s0.667,0.208,1.104,0.624   c0.437,0.416,0.656,0.699,0.656,0.848c0,0.149-0.043,0.256-0.128,0.32c-0.086,0.064-0.582,0.704-1.488,1.92   c-0.907,1.216-1.436,1.947-1.584,2.192c-0.149,0.246-0.225,0.443-0.225,0.592c0,0.342,0.342,0.512,1.024,0.512   c0.234,0,0.416-0.042,0.544-0.128c0.128-0.085,0.353-0.336,0.672-0.752c0.32-0.416,0.533-0.677,0.641-0.784   c0.106-0.106,0.229-0.16,0.367-0.16s0.39,0.096,0.752,0.288C12.258,9.842,12.439,10.056,12.439,10.291z M26.839,16.723   c0.106,0,0.261,0.171,0.464,0.512c0.203,0.342,0.416,1.067,0.641,2.176c0.224,1.109,0.367,2.15,0.432,3.121   s0.128,1.663,0.192,2.079c0.063,0.416,0.096,0.683,0.096,0.8s-0.027,0.225-0.08,0.32c-0.054,0.096-0.229,0.145-0.528,0.145h-0.256   c-0.256,0-0.65,0.063-1.184,0.191c-0.534,0.128-1.568,0.267-3.104,0.416c-1.536,0.148-2.699,0.225-3.487,0.225l-2.465-0.064h-1.472   c-2.006-2.39-3.099-4.165-3.28-5.328c-0.181-1.162-0.271-2.053-0.271-2.672s0.059-1.439,0.176-2.464s0.176-1.765,0.176-2.224   c0-0.458,0.106-0.699,0.32-0.72c1.024-0.213,1.728-0.554,2.112-1.024c0.298-0.298,0.72-0.661,1.264-1.088s1.051-0.971,1.52-1.632   c0.47-0.661,0.704-1.136,0.704-1.424s-0.102-0.506-0.304-0.656c-0.203-0.149-0.416-0.224-0.64-0.224   c-0.225,0-0.411,0.054-0.561,0.16c-0.149,0.107-0.453,0.389-0.912,0.848c-0.459,0.459-0.901,0.944-1.327,1.456   c-0.428,0.512-0.726,0.768-0.896,0.768s-0.331-0.059-0.48-0.176s-0.224-0.24-0.224-0.368s0.074-0.288,0.224-0.48   c0.576-0.704,1.43-1.84,2.561-3.408c1.131-1.568,1.824-2.586,2.08-3.056c0.128-0.213,0.271-0.32,0.432-0.32   s0.442,0.102,0.849,0.304c0.404,0.203,0.788,0.496,1.151,0.88c0.362,0.384,0.544,0.656,0.544,0.816c0,0.16-0.128,0.251-0.384,0.272   c-0.256,0.021-0.667,0.208-1.232,0.56s-0.848,0.598-0.848,0.736s0.171,0.219,0.512,0.24c1.089,0.064,1.894,0.203,2.416,0.416   c0.522,0.213,0.784,0.427,0.784,0.64c0,0.213-0.144,0.421-0.432,0.624c-0.288,0.203-0.684,0.565-1.185,1.088   c-0.501,0.523-0.933,0.864-1.296,1.024c-0.362,0.16-0.619,0.347-0.768,0.56c-0.149,0.213-0.224,0.363-0.224,0.448   s0.133,0.117,0.399,0.096c0.267-0.021,0.528-0.032,0.784-0.032c0.896,0,1.765,0.107,2.608,0.32c0.842,0.213,1.37,0.4,1.584,0.56   c0.213,0.16,0.319,0.315,0.319,0.464c0,0.235-0.111,0.432-0.336,0.592c-0.224,0.16-0.39,0.32-0.496,0.48   c-0.106,0.16-0.262,0.475-0.464,0.944c-0.203,0.469-0.347,0.843-0.432,1.12c-0.086,0.277-0.128,0.501-0.128,0.672v0.479   c0,0.235-0.08,0.396-0.24,0.48c-0.16,0.086-0.422,0.128-0.784,0.128c-1.003,0-2.422,0.192-4.256,0.576   c-1.835,0.384-2.821,0.672-2.96,0.864c-0.139,0.191-0.208,0.8-0.208,1.824c0,1.023,0.309,1.866,0.928,2.527   c0.619,0.662,2.026,0.992,4.225,0.992c1.386,0,2.544-0.086,3.472-0.256c0.928-0.171,1.595-0.352,2-0.545   c0.405-0.191,0.704-0.452,0.896-0.783c0.192-0.33,0.411-1.04,0.656-2.128c0.245-1.089,0.389-2.219,0.433-3.392   C26.668,16.883,26.732,16.723,26.839,16.723z M14.647,17.139c0.128,0,0.346-0.059,0.655-0.176s0.549-0.24,0.721-0.368   c0.17-0.128,0.271-0.405,0.304-0.832s0.08-0.794,0.144-1.104c0.064-0.309,0.097-0.517,0.097-0.624c0-0.106-0.07-0.16-0.208-0.16   c-0.14,0-0.422,0.08-0.849,0.24c-0.427,0.16-0.693,0.309-0.8,0.448c-0.107,0.139-0.197,0.443-0.271,0.912   c-0.075,0.469-0.112,0.863-0.112,1.184S14.434,17.139,14.647,17.139z M18.519,15.955c0.32,0,0.673-0.037,1.057-0.113   c0.384-0.074,0.624-0.159,0.72-0.256c0.096-0.095,0.171-0.394,0.224-0.896c0.054-0.501,0.08-0.917,0.08-1.248   c0-0.331-0.111-0.549-0.336-0.656c-0.224-0.106-0.527-0.16-0.912-0.16c-0.213,0-0.357,0.054-0.432,0.16   c-0.075,0.107-0.235,0.56-0.479,1.36c-0.246,0.8-0.368,1.302-0.368,1.504C18.071,15.854,18.22,15.955,18.519,15.955z" stroke-width="1"/>
</g>
</svg>