<svg xmlns="http://www.w3.org/2000/svg" xmlns:xlink="http://www.w3.org/1999/xlink" version="1.1" id="图层_1" x="0px" y="0px" width="24.743999481201172" height="28.327001571655273" viewBox="2.353999614715576 0.7290006875991821 24.743999481201172 28.327001571655273" style="enable-background:new 0 0 30 30;" xml:space="preserve">
  <g>
    <g>
      <path style="fill:#0000FF;" d="M9.574,17.164c0.021-0.276-0.032-0.416-0.16-0.416S8.998,16.93,8.55,17.293&#13;&#10;&#9;&#9;s-0.858,0.752-1.231,1.168c-0.374,0.416-0.651,0.623-0.832,0.623c-0.182,0-0.443-0.084-0.784-0.256&#13;&#10;&#9;&#9;c-0.342-0.17-0.512-0.367-0.512-0.592c0-0.224,0.197-0.484,0.592-0.783c0.395-0.299,0.746-0.688,1.056-1.168&#13;&#10;&#9;&#9;c0.31-0.48,0.57-0.837,0.784-1.072c0.213-0.235,0.41-0.571,0.592-1.008c0.182-0.437,0.272-0.725,0.272-0.864&#13;&#10;&#9;&#9;s-0.069-0.208-0.208-0.208c-0.14,0-0.443,0.112-0.912,0.336c-0.47,0.224-0.896,0.464-1.28,0.72c-0.149,0.107-0.293,0.16-0.432,0.16&#13;&#10;&#9;&#9;s-0.363-0.197-0.672-0.592c-0.31-0.395-0.464-0.709-0.464-0.944c0-0.362,0.522-0.661,1.568-0.896&#13;&#10;&#9;&#9;c0.512-0.128,1.131-0.373,1.856-0.736c0.725-0.362,1.178-0.683,1.359-0.96c0.182-0.277,0.272-0.704,0.272-1.28&#13;&#10;&#9;&#9;c0-0.576-0.054-0.864-0.16-0.864c-0.043,0-0.235,0.133-0.576,0.4C8.496,8.744,8.166,8.962,7.846,9.133&#13;&#10;&#9;&#9;C7.526,9.304,7.297,9.458,7.158,9.597c-0.14,0.139-0.268,0.208-0.384,0.208c-0.118,0-0.326-0.218-0.624-0.656&#13;&#10;&#9;&#9;c-0.299-0.437-0.448-0.72-0.448-0.848c0-0.234,0.192-0.427,0.576-0.576c0.917-0.32,1.674-0.608,2.271-0.864&#13;&#10;&#9;&#9;c0.598-0.256,0.934-0.432,1.008-0.528c0.075-0.096,0.123-0.229,0.145-0.4c0.106-1.728,0.197-2.768,0.271-3.12&#13;&#10;&#9;&#9;c0.075-0.352,0.112-0.645,0.112-0.88c0-0.469,0.112-0.704,0.336-0.704c0.225,0,0.57,0.102,1.04,0.304&#13;&#10;&#9;&#9;c0.469,0.203,0.704,0.39,0.704,0.56c0,0.171-0.054,0.341-0.16,0.512c-0.256,0.406-0.384,1.078-0.384,2.016l0.063,2.688&#13;&#10;&#9;&#9;c0,0.192,0.043,0.288,0.129,0.288c0.085,0,0.41-0.277,0.976-0.832c0.565-0.555,1.232-1.322,2-2.304&#13;&#10;&#9;&#9;c0.171-0.213,0.336-0.32,0.496-0.32s0.373,0.096,0.64,0.288s0.4,0.395,0.4,0.608c0,0.213-0.107,0.384-0.32,0.512&#13;&#10;&#9;&#9;s-0.603,0.518-1.168,1.168c-0.565,0.651-1.179,1.307-1.84,1.968c-0.171,0.171-0.256,0.299-0.256,0.384&#13;&#10;&#9;&#9;c0,0.085,0.16,0.149,0.479,0.192c0.32,0.043,0.576,0.091,0.769,0.144c0.191,0.053,0.325,0.213,0.399,0.48&#13;&#10;&#9;&#9;c0.075,0.267,0.112,0.512,0.112,0.736s-0.123,0.4-0.368,0.528c-0.245,0.128-0.453,0.256-0.624,0.384&#13;&#10;&#9;&#9;c-0.447,0.256-0.885,0.464-1.312,0.624s-0.667,0.277-0.721,0.352c-0.053,0.075-0.079,0.203-0.079,0.384&#13;&#10;&#9;&#9;c0,0.182,0.106,0.347,0.319,0.496c0.213,0.149,0.624,0.299,1.232,0.448c0.607,0.149,0.992,0.304,1.151,0.464&#13;&#10;&#9;&#9;c0.16,0.16,0.24,0.454,0.24,0.88c0,1.046-0.234,1.567-0.704,1.567c-0.299,0-0.598-0.122-0.896-0.367&#13;&#10;&#9;&#9;c-0.299-0.245-0.571-0.432-0.816-0.56s-0.405-0.192-0.479-0.192c-0.075,0-0.145,0.032-0.208,0.096&#13;&#10;&#9;&#9;c-0.064,0.064-0.128,0.672-0.192,1.824l-0.063,1.6c0,0.277,0.068,0.416,0.208,0.416c0.138,0,0.399-0.043,0.783-0.128&#13;&#10;&#9;&#9;c0.385-0.085,0.715-0.128,0.992-0.128c0.405,0,0.608,0.208,0.608,0.624s-0.06,0.693-0.176,0.832&#13;&#10;&#9;&#9;c-0.118,0.14-0.326,0.267-0.624,0.384c-0.3,0.117-0.651,0.305-1.057,0.561c-0.832,0.555-2.251,1.109-4.256,1.664&#13;&#10;&#9;&#9;c-0.214,0.063-0.395,0.154-0.544,0.271S6.603,23.82,6.422,23.82c-0.182,0-0.373-0.096-0.576-0.287&#13;&#10;&#9;&#9;c-0.203-0.192-0.592-0.816-1.168-1.873c-0.576-1.056-1.024-2.266-1.344-3.631s-0.48-2.305-0.48-2.816c0-0.32,0.165-0.48,0.496-0.48&#13;&#10;&#9;&#9;c0.331,0,0.667,0.053,1.008,0.16C4.699,15,4.886,15.09,4.918,15.165c0.032,0.075,0.048,0.438,0.048,1.088&#13;&#10;&#9;&#9;c0,0.651,0.042,1.344,0.128,2.079c0.085,0.736,0.197,1.355,0.336,1.856c0.138,0.502,0.25,0.806,0.336,0.912&#13;&#10;&#9;&#9;c0.085,0.106,0.266,0.16,0.543,0.16s0.821-0.165,1.633-0.496c0.811-0.331,1.264-0.528,1.359-0.592&#13;&#10;&#9;&#9;c0.097-0.063,0.154-0.257,0.176-0.576L9.574,17.164z M25.094,11.181c0.256,0,0.57,0.272,0.944,0.816&#13;&#10;&#9;&#9;c0.373,0.544,0.56,0.966,0.56,1.264c0,0.469-0.395,0.704-1.184,0.704c-0.171,0-0.438,0.037-0.8,0.112&#13;&#10;&#9;&#9;c-0.363,0.075-0.598,0.155-0.704,0.24c-0.107,0.085-0.229,0.448-0.368,1.088s-0.208,1.275-0.208,1.904s-0.054,1.142-0.16,1.536&#13;&#10;&#9;&#9;c-0.106,0.396-0.16,0.769-0.16,1.12s0.037,0.811,0.112,1.376c0.074,0.565,0.112,1.019,0.112,1.36l-0.097,1.439&#13;&#10;&#9;&#9;c0,1.023,0.043,1.867,0.129,2.527c0.085,0.662,0.128,1.094,0.128,1.297c0,0.202-0.092,0.352-0.272,0.447&#13;&#10;&#9;&#9;c-0.182,0.097-0.411,0.145-0.688,0.145c-0.278,0-0.539-0.043-0.784-0.128c-0.246-0.085-0.368-0.251-0.368-0.496&#13;&#10;&#9;&#9;s0.021-0.476,0.063-0.688c0.064-0.383,0.097-1.328,0.097-2.832s-0.06-2.697-0.176-3.584c-0.118-0.885-0.177-1.551-0.177-2v-1.279&#13;&#10;&#9;&#9;c0-0.555-0.063-1.045-0.191-1.473c-0.128-0.426-0.256-0.719-0.385-0.879c-0.128-0.16-0.267-0.24-0.416-0.24&#13;&#10;&#9;&#9;s-0.352,0.027-0.607,0.08c-0.256,0.054-0.555,0.171-0.896,0.352c-0.341,0.182-0.555,0.32-0.64,0.416&#13;&#10;&#9;&#9;c-0.086,0.096-0.155,0.314-0.208,0.656c-0.054,0.342-0.08,0.73-0.08,1.168s0.048,0.789,0.145,1.056&#13;&#10;&#9;&#9;c0.096,0.267,0.144,0.476,0.144,0.624c0,0.149-0.08,0.299-0.24,0.448s-0.368,0.448-0.624,0.896&#13;&#10;&#9;&#9;c-0.256,0.448-0.698,1.014-1.328,1.696c-0.629,0.683-1.216,1.024-1.76,1.024s-0.815-0.091-0.815-0.272&#13;&#10;&#9;&#9;c0-0.181,0.122-0.485,0.367-0.912s0.496-0.8,0.752-1.12c0.533-0.703,1.051-1.765,1.553-3.184c0.501-1.418,0.752-3.227,0.752-5.424&#13;&#10;&#9;&#9;c0-0.853-0.043-1.493-0.128-1.92c-0.086-0.426-0.128-0.73-0.128-0.912s0.042-0.315,0.128-0.4c0.085-0.085,0.267-0.138,0.544-0.16&#13;&#10;&#9;&#9;c0.533-0.021,1.456-0.314,2.768-0.88c1.313-0.565,2.32-1.136,3.024-1.712c0.256-0.213,0.496-0.32,0.72-0.32&#13;&#10;&#9;&#9;s0.389,0.128,0.496,0.384c0.106,0.256,0.16,0.528,0.16,0.816c0,0.288-0.155,0.517-0.464,0.688c-0.31,0.171-0.656,0.416-1.04,0.736&#13;&#10;&#9;&#9;c-0.385,0.32-1.052,0.662-2,1.024c-0.95,0.363-1.568,0.72-1.856,1.072c-0.288,0.352-0.432,0.806-0.432,1.36&#13;&#10;&#9;&#9;s0.063,0.832,0.191,0.832s0.385-0.042,0.769-0.128c0.96-0.341,2.122-0.72,3.488-1.136C24.219,11.389,24.966,11.181,25.094,11.181z" stroke-width="1"/>
    </g>
    <g/>
    <g/>
    <g/>
    <g/>
    <g/>
    <g/>
    <g/>
    <g/>
    <g/>
    <g/>
    <g/>
    <g/>
    <g/>
    <g/>
    <g/>
  </g>
</svg>