<svg xmlns="http://www.w3.org/2000/svg" xmlns:xlink="http://www.w3.org/1999/xlink" version="1.1" id="图层_1" x="0px" y="0px" width="28.52199935913086" height="30.600997924804688" viewBox="2.050002098083496 -0.672999918460846 28.52199935913086 30.600997924804688" enable-background="new 0 0 30 30" xml:space="preserve">
<g>
	<path fill="#0000FF" d="M18.615,17.139c0,0.086,0.021,0.166,0.063,0.24s0.507,0.438,1.393,1.088c0.885,0.65,1.845,1.285,2.88,1.904   c1.034,0.619,1.701,0.98,2,1.088c2.005,0.746,3.242,1.227,3.712,1.439c0.469,0.213,0.821,0.443,1.056,0.688   c0.234,0.246,0.353,0.454,0.353,0.625c0,0.17-0.086,0.282-0.256,0.336c-0.172,0.053-0.849,0.08-2.032,0.08   c-1.185,0-2.326-0.092-3.424-0.272c-1.1-0.182-1.75-0.353-1.952-0.513c-0.203-0.159-0.315-0.452-0.336-0.879   c-0.021-0.769-0.385-1.43-1.088-1.984c-0.704-0.555-1.189-0.832-1.456-0.832c-0.268,0-0.433,0.155-0.496,0.464   c-0.064,0.31-0.091,0.646-0.08,1.009c0.011,0.362,0.016,0.811,0.016,1.344l-0.032,2.912c0,0.746,0.011,1.322,0.032,1.727   l0.064,1.057c0,0.512-0.149,0.768-0.448,0.768c-0.128,0-0.267-0.063-0.416-0.191c-0.299-0.256-0.811-0.57-1.536-0.943   s-1.387-0.773-1.983-1.201c-0.172-0.106-0.326-0.159-0.465-0.159s-0.518,0.074-1.136,0.224c-0.619,0.148-1.056,0.271-1.312,0.369   c-0.257,0.096-0.508,0.143-0.752,0.143c-0.246,0-0.433-0.064-0.561-0.191c-0.128-0.129-0.267-0.485-0.416-1.072   s-0.224-1.083-0.224-1.488s0.026-0.879,0.08-1.424c0.053-0.544,0.08-1.066,0.08-1.568c0-0.5-0.017-0.832-0.049-0.991   c-0.031-0.16-0.106-0.24-0.224-0.24s-0.422,0.272-0.912,0.815c-0.491,0.545-0.778,1.004-0.864,1.377   c-0.085,0.373-0.202,0.645-0.352,0.816c-0.149,0.17-0.507,0.395-1.072,0.672c-0.566,0.276-1.216,0.5-1.952,0.672   c-0.736,0.17-1.248,0.256-1.536,0.256s-0.432-0.075-0.432-0.225s0.155-0.314,0.464-0.496c0.309-0.182,1.083-0.714,2.32-1.6   c1.237-0.885,2.122-1.648,2.656-2.288l1.248-1.504c0.319-0.384,0.479-0.624,0.479-0.72s-0.063-0.145-0.191-0.145   s-0.641,0.092-1.536,0.272c-0.896,0.181-1.43,0.341-1.6,0.479c-0.171,0.139-0.336,0.209-0.496,0.209s-0.357-0.182-0.592-0.545   c-0.235-0.362-0.352-0.64-0.352-0.832c0-0.191,0.16-0.287,0.48-0.287c0.32,0,0.96-0.16,1.919-0.48   c0.555-0.17,1.696-0.438,3.425-0.801c0.319-0.063,0.527-0.18,0.624-0.352c0.096-0.17,0.144-0.304,0.144-0.4   c0-0.095-0.102-0.154-0.304-0.175c-0.203-0.021-0.374-0.08-0.513-0.176c-0.139-0.096-0.438-0.421-0.896-0.976   c-0.459-0.554-0.816-1.034-1.072-1.44c-0.256-0.405-0.448-0.8-0.576-1.184c-0.128-0.384-0.191-0.762-0.191-1.136   c0-0.373,0.298-0.581,0.896-0.624c0.213-0.021,0.65-0.106,1.313-0.256c0.661-0.149,1.227-0.314,1.695-0.496   c0.47-0.181,1.12-0.378,1.952-0.592c0.363-0.085,0.646-0.389,0.849-0.912c0.202-0.522,0.304-0.805,0.304-0.848   c0-0.256-0.373-0.384-1.12-0.384c-0.299,0-0.635,0.064-1.008,0.192c-0.374,0.128-0.561,0.267-0.561,0.416   c0,0.149,0.017,0.293,0.049,0.432c0.031,0.139,0.048,0.304,0.048,0.496c0,0.192-0.14,0.357-0.416,0.496   c-0.277,0.139-0.523,0.208-0.736,0.208c-0.214,0-0.405-0.165-0.576-0.496c-0.171-0.331-0.39-0.496-0.655-0.496   c-0.268,0-0.736,0.171-1.408,0.512c-0.672,0.341-1.126,0.512-1.36,0.512c-0.192,0-0.523-0.288-0.992-0.864   c-0.47-0.576-0.704-0.928-0.704-1.056c0-0.213,0.256-0.33,0.768-0.352C6.839,6.366,7.42,6.274,8.071,6.115   C8.722,5.955,9.1,5.827,9.207,5.73c0.106-0.096,0.16-0.208,0.16-0.336s-0.097-0.56-0.288-1.296   C8.887,3.362,8.791,2.931,8.791,2.803c0-0.405,0.341-0.608,1.024-0.608c0.319,0,0.703,0.043,1.151,0.128s0.704,0.171,0.769,0.256   c0.063,0.085,0.096,0.192,0.096,0.32s-0.021,0.262-0.064,0.4c-0.043,0.139-0.063,0.272-0.063,0.4c0,0.981,0.191,1.472,0.576,1.472   l1.728-0.096c0.641-0.042,1.062-0.085,1.264-0.128c0.203-0.042,0.353-0.117,0.448-0.224c0.097-0.106,0.251-0.469,0.464-1.088   c0.213-0.618,0.522-1.621,0.929-3.008c0.148-0.533,0.346-0.8,0.592-0.8c0.245,0,0.624,0.144,1.136,0.432   c0.512,0.288,0.769,0.518,0.769,0.688c0,0.171-0.08,0.32-0.24,0.448s-0.357,0.598-0.592,1.408   c-0.235,0.811-0.353,1.285-0.353,1.424c0,0.139,0.021,0.197,0.064,0.176c0.256-0.064,0.64-0.106,1.151-0.128   c0.96-0.064,1.553-0.187,1.776-0.368s0.41-0.272,0.56-0.272s0.32,0.288,0.513,0.864c0.191,0.576,0.288,0.928,0.288,1.056   s-0.097,0.235-0.288,0.32c-0.192,0.085-0.864,0.219-2.017,0.4c-1.151,0.182-2.059,0.304-2.72,0.368   c-0.405,0.043-0.71,0.224-0.912,0.544c-0.203,0.32-0.304,0.555-0.304,0.704c0,0.149,0.213,0.235,0.64,0.256   c1.066,0.064,1.974,0.224,2.72,0.48c0.747,0.256,1.12,0.501,1.12,0.736c0,0.107-0.085,0.288-0.256,0.544   c-0.171,0.256-0.31,0.544-0.416,0.864c-0.427,1.088-0.832,2.005-1.216,2.752c-0.063,0.128-0.139,0.336-0.224,0.624   c-0.086,0.288-0.128,0.464-0.128,0.528c0,0.235,0.128,0.352,0.384,0.352s0.624-0.064,1.104-0.192   c0.48-0.128,0.811-0.192,0.992-0.192c0.181,0,0.427,0.166,0.736,0.496c0.309,0.331,0.464,0.656,0.464,0.977   c0,0.555-0.171,0.831-0.512,0.831c-0.171,0-0.368-0.032-0.593-0.096c-0.224-0.063-0.495-0.097-0.815-0.097   s-0.678,0.017-1.072,0.049c-0.395,0.031-0.619,0.053-0.672,0.064c-0.054,0.01-0.096,0.043-0.128,0.096S18.615,17.074,18.615,17.139   z M17.687,10.834c0-0.533-0.059-0.875-0.176-1.024c-0.117-0.149-0.299-0.261-0.544-0.336s-0.539-0.112-0.88-0.112   c-0.811,0-1.771,0.214-2.88,0.64c-1.109,0.427-1.856,0.731-2.24,0.912c-0.384,0.182-0.576,0.496-0.576,0.944   c0,1.302,0.438,1.952,1.313,1.952c0.191,0,0.427-0.053,0.704-0.16c0.276-0.106,0.874-0.272,1.792-0.496   c0.917-0.224,1.482-0.336,1.695-0.336c0.214,0,0.405,0.048,0.576,0.144c0.171,0.096,0.31,0.144,0.416,0.144   c0.256,0,0.453-0.277,0.592-0.832C17.617,11.72,17.687,11.24,17.687,10.834z M16.407,18.674l0.704,0.033   c0.128,0,0.191-0.049,0.191-0.145s-0.239-0.33-0.72-0.704c-0.48-0.373-0.848-0.56-1.104-0.56c-0.256,0-0.815,0.074-1.68,0.224   s-1.387,0.272-1.567,0.368c-0.182,0.096-0.39,0.31-0.624,0.641c-0.235,0.33-0.406,0.564-0.513,0.703s-0.16,0.262-0.16,0.368   s0.054,0.16,0.16,0.16c0.405,0,1.205-0.181,2.4-0.544C14.689,18.855,15.66,18.674,16.407,18.674z M15.191,10.418   c0.298,0,0.501,0.069,0.607,0.208c0.106,0.139,0.16,0.331,0.16,0.576c0,0.246-0.427,0.565-1.28,0.96   c-0.854,0.395-1.61,0.592-2.271,0.592c-0.747,0-1.12-0.213-1.12-0.64c0-0.128,0.048-0.256,0.144-0.384   c0.097-0.128,0.229-0.218,0.4-0.272c0.171-0.053,0.693-0.293,1.568-0.72c0.085-0.042,0.352-0.106,0.8-0.192   C14.647,10.461,14.978,10.418,15.191,10.418z M15.991,26.354c0.319,0,0.479-0.459,0.479-1.376c0-0.384-0.037-0.9-0.111-1.552   c-0.075-0.651-0.112-1.403-0.112-2.257c0-0.361-0.203-0.629-0.608-0.799c-0.405-0.171-0.789-0.256-1.151-0.256   c-0.363,0-0.854,0.148-1.473,0.447s-0.928,0.607-0.928,0.928c0,0.214,0.187,0.299,0.561,0.256c0.372-0.042,0.863-0.063,1.472-0.063   c0.607,0,0.912,0.149,0.912,0.448c0,0.127-0.06,0.283-0.176,0.464c-0.118,0.181-0.502,0.421-1.152,0.72   c-0.651,0.299-1.136,0.571-1.456,0.816c-0.32,0.244-0.48,0.49-0.48,0.736c0,0.244,0.106,0.367,0.32,0.367   c0.064,0,0.128-0.011,0.192-0.031c0.404-0.15,0.917-0.272,1.536-0.369c0.618-0.096,0.97-0.144,1.056-0.144   c0.277,0,0.416,0.32,0.416,0.96c0,0.256,0.085,0.438,0.256,0.544S15.863,26.354,15.991,26.354z M17.303,15.09   c0-0.128-0.106-0.288-0.319-0.48c-0.214-0.192-0.39-0.288-0.528-0.288s-0.523,0.037-1.152,0.112s-1.045,0.246-1.248,0.512   c-0.203,0.267-0.304,0.464-0.304,0.593c0,0.127,0.069,0.191,0.208,0.191s0.555-0.053,1.248-0.16   c0.693-0.106,1.194-0.176,1.504-0.208c0.309-0.032,0.485-0.069,0.528-0.112C17.281,15.208,17.303,15.154,17.303,15.09z" stroke-width="1"/>
</g>
</svg>