<svg xmlns="http://www.w3.org/2000/svg" xmlns:xlink="http://www.w3.org/1999/xlink" version="1.1" id="图层_1" x="0px" y="0px" width="25.704998016357422" height="24.677005767822266" viewBox="1.0270018577575684 3.808994770050049 25.704998016357422 24.677005767822266" enable-background="new 0 0 30 30" xml:space="preserve">
<g>
	<path fill="#0000FF" d="M21.079,10.995c0.618,0,1.194,0.102,1.728,0.304c0.533,0.203,1.142,0.576,1.824,1.12s1.12,0.95,1.313,1.216   c0.191,0.267,0.288,0.507,0.288,0.72c0,0.491-0.416,0.779-1.248,0.864c-0.598,0.064-1.078,0.16-1.44,0.287   c-0.363,0.129-0.758,0.193-1.184,0.193c-1.217,0-1.824,0.234-1.824,0.703l0.063,1.568c0.021,0.64,0.032,1.573,0.032,2.8   c0,1.228-0.037,2.513-0.112,3.856c-0.074,1.344-0.202,2.24-0.384,2.688s-0.442,0.672-0.784,0.672c-0.085,0-0.202-0.027-0.352-0.08   s-0.32-0.08-0.512-0.08h-0.544c-0.448,0-1.137-0.145-2.064-0.432s-1.712-0.624-2.352-1.008c-0.641-0.385-0.96-0.662-0.96-0.832   c0-0.172,0.202-0.256,0.607-0.256c1.152,0,2.128-0.027,2.928-0.08c0.801-0.054,1.302-0.117,1.505-0.192   c0.202-0.075,0.352-0.239,0.447-0.495c0.097-0.257,0.197-0.907,0.305-1.953c0.106-1.045,0.159-2.256,0.159-3.632   s-0.213-2.603-0.64-3.68s-0.854-1.616-1.28-1.616c-0.085,0-0.277,0.054-0.575,0.16c-0.3,0.107-0.747,0.24-1.345,0.4   s-1.045,0.39-1.344,0.688c-0.299,0.299-0.518,0.448-0.656,0.448s-0.336-0.197-0.592-0.592c-0.256-0.395-0.384-0.714-0.384-0.96   c0-0.245,0.245-0.389,0.736-0.432c1.216-0.106,2.202-0.341,2.96-0.704c0.757-0.363,1.402-0.651,1.936-0.864   c0.192-0.085,0.288-0.208,0.288-0.368c0-0.16-0.128-0.501-0.384-1.024c-0.256-0.522-0.476-0.89-0.656-1.104   c-0.182-0.213-0.272-0.389-0.272-0.528c0-0.139,0.134-0.208,0.4-0.208s0.49,0.032,0.672,0.096s0.293,0.096,0.336,0.096   c0.32,0,0.699-0.384,1.137-1.152c0.437-0.768,0.655-1.333,0.655-1.696s-0.197-0.544-0.592-0.544s-0.859,0.192-1.392,0.576   c-0.534,0.384-1.248,1.024-2.145,1.92c-0.128,0.128-0.288,0.192-0.479,0.192c-0.192,0-0.396-0.138-0.608-0.416   c-0.214-0.277-0.416-0.416-0.608-0.416c-0.362,0-0.757,0.629-1.184,1.888c-0.427,1.259-0.773,2.166-1.04,2.72   s-0.485,0.901-0.656,1.04s-0.469,0.24-0.896,0.304s-0.72,0.155-0.88,0.272c-0.16,0.118-0.24,0.304-0.24,0.56   c0,0.363,0.208,0.501,0.624,0.416c0.416-0.085,0.73-0.128,0.944-0.128c0.213,0,0.356,0.064,0.432,0.192   c0.074,0.128,0.112,0.357,0.112,0.688c0,0.332-0.043,0.572-0.128,0.72c-0.086,0.149-0.32,0.262-0.704,0.336   c-0.385,0.075-0.715,0.191-0.992,0.352s-0.416,0.454-0.416,0.881c0,0.234,0.106,0.352,0.32,0.352c0.213,0,0.564-0.085,1.056-0.256   c0.49-0.171,0.869-0.256,1.136-0.256s0.4,0.102,0.4,0.304c0,0.203-0.203,0.433-0.608,0.688c-0.832,0.49-1.451,0.917-1.855,1.279   c-0.406,0.363-1.206,0.801-2.4,1.313c-1.365,0.576-2.357,1.109-2.976,1.6c-0.192,0.149-0.374,0.225-0.544,0.225   c-0.171,0-0.491-0.203-0.96-0.608s-0.704-0.672-0.704-0.8c0-0.234,0.213-0.405,0.64-0.512c0.981-0.256,1.712-0.523,2.192-0.801   s1.019-0.564,1.616-0.863c0.362-0.192,0.544-0.555,0.544-1.088c0-0.299-0.128-0.449-0.384-0.449c-0.107,0-0.411,0.07-0.912,0.209   c-0.501,0.139-0.848,0.256-1.04,0.352s-0.342,0.145-0.448,0.145c-0.107,0-0.293-0.197-0.56-0.592s-0.4-0.673-0.4-0.832   c0-0.16,0.256-0.283,0.768-0.369c0.512-0.084,1.12-0.287,1.824-0.607c0.704-0.32,1.098-0.539,1.184-0.656   c0.085-0.117,0.128-0.32,0.128-0.608s-0.07-0.432-0.208-0.432c-0.139,0-0.293,0.032-0.464,0.096s-0.336,0.096-0.496,0.096   c-0.16,0-0.299-0.053-0.416-0.16c-0.118-0.106-0.406-0.688-0.864-1.744c-0.459-1.056-0.854-2.16-1.184-3.312   c-0.331-1.152-0.496-1.872-0.496-2.16c0-0.288,0.112-0.432,0.336-0.432c0.224,0,0.464-0.064,0.72-0.192   c0.704-0.299,1.728-0.603,3.072-0.912c1.344-0.309,2.453-0.464,3.328-0.464s1.707,0.171,2.496,0.512   c0.299,0.128,0.698,0.192,1.2,0.192c0.501,0,0.912-0.053,1.231-0.16c1.451-0.512,2.4-0.784,2.849-0.816   c0.448-0.032,0.826-0.112,1.136-0.24c0.309-0.128,0.73-0.192,1.264-0.192s1.168,0.192,1.904,0.576   c0.736,0.384,1.104,0.736,1.104,1.056c0,0.149-0.075,0.256-0.225,0.32c-0.427,0.214-0.811,0.512-1.151,0.896   c-0.172,0.192-0.438,0.432-0.801,0.72c-0.362,0.288-0.607,0.464-0.735,0.528c-0.491,0.235-0.736,0.523-0.736,0.864   c0,0.128,0.08,0.272,0.24,0.432c0.16,0.16,0.276,0.384,0.352,0.672s0.16,0.464,0.256,0.528   C20.487,10.962,20.716,10.995,21.079,10.995z M6.519,7.922c0-0.469-0.128-0.704-0.384-0.704c-0.149,0-0.368,0.08-0.656,0.24   S5.015,7.757,4.951,7.875c-0.064,0.118-0.096,0.32-0.096,0.608s0.176,0.432,0.528,0.432s0.629-0.096,0.832-0.288   S6.519,8.2,6.519,7.922z M5.879,12.499c0.32,0,0.539-0.075,0.656-0.224c0.117-0.149,0.176-0.453,0.176-0.912   c0-0.458-0.123-0.688-0.368-0.688s-0.48,0.07-0.704,0.208c-0.224,0.139-0.336,0.315-0.336,0.528c0,0.213,0.048,0.448,0.144,0.704   C5.543,12.371,5.687,12.499,5.879,12.499z M9.175,8.019c0.149,0,0.368-0.053,0.656-0.16c0.288-0.106,0.432-0.314,0.432-0.624   c0-0.309-0.085-0.565-0.256-0.768C9.836,6.264,9.644,6.163,9.431,6.163c-0.533,0-0.8,0.31-0.8,0.928   C8.631,7.709,8.812,8.019,9.175,8.019z M9.047,11.603c0.299,0,0.533-0.17,0.704-0.512c0.171-0.341,0.256-0.667,0.256-0.976   S9.938,9.65,9.799,9.65s-0.352,0.043-0.64,0.128c-0.288,0.086-0.433,0.363-0.433,0.832C8.727,11.272,8.833,11.603,9.047,11.603z    M23.191,13.395c0-0.32-0.177-0.624-0.528-0.912c-0.353-0.288-0.806-0.432-1.36-0.432s-1.163,0.139-1.824,0.416   c-0.661,0.278-0.991,0.566-0.991,0.864c0,0.149,0.085,0.277,0.256,0.384c0.704,0.406,1.141,0.699,1.312,0.88   s0.438,0.272,0.801,0.272c0.362,0,0.842-0.149,1.439-0.448C22.892,14.12,23.191,13.778,23.191,13.395z" stroke-width="1"/>
</g>
</svg>