<svg xmlns="http://www.w3.org/2000/svg" xmlns:xlink="http://www.w3.org/1999/xlink" version="1.1" id="图层_1" x="0px" y="0px" width="25.67000389099121" height="26.152996063232422" viewBox="1.2519978284835815 1.278009295463562 25.67000389099121 26.152996063232422" enable-background="new 0 0 30 30" xml:space="preserve">
<g>
	<path fill="#0000FF" d="M24.855,12.787c0.106,0,0.213,0.053,0.319,0.16c0.106,0.107,0.299,0.427,0.576,0.96   s0.459,0.971,0.544,1.312c0.085,0.342,0.128,0.746,0.128,1.216s-0.096,0.704-0.288,0.704c-0.191,0-0.527-0.145-1.008-0.432   c-0.479-0.289-1.157-0.507-2.032-0.656s-1.605-0.225-2.191-0.225c-0.587,0-1.43,0.117-2.528,0.353s-1.691,0.39-1.776,0.464   s-0.256,0.299-0.512,0.672s-0.384,0.641-0.384,0.801c0,0.159,0.021,0.266,0.063,0.319s0.411,0.229,1.104,0.528   s1.435,0.549,2.224,0.752s1.589,0.464,2.4,0.783c0.811,0.32,1.274,0.604,1.392,0.849s0.256,0.843,0.416,1.792   s0.24,1.652,0.24,2.111s-0.086,0.854-0.256,1.185c-0.171,0.331-0.347,0.496-0.528,0.496s-0.39-0.171-0.624-0.513   c-0.576-0.832-1.222-1.643-1.936-2.432c-0.715-0.789-1.696-1.729-2.944-2.816s-1.941-1.668-2.08-1.743s-0.262-0.112-0.368-0.112   s-0.282,0.123-0.527,0.368c-0.246,0.245-0.496,0.448-0.752,0.608c-0.257,0.16-0.619,0.49-1.088,0.992   c-0.47,0.501-0.769,0.854-0.896,1.055c-0.128,0.203-0.192,0.4-0.192,0.593v0.575c0,0.32-0.117,0.582-0.352,0.785   c-0.235,0.202-0.944,0.496-2.128,0.879c-1.185,0.385-2.043,0.576-2.576,0.576c-0.576,0-0.864-0.139-0.864-0.416   c0-0.085,0.058-0.197,0.176-0.336c0.117-0.139,0.752-0.661,1.904-1.567c1.152-0.907,1.867-1.445,2.145-1.616   c0.276-0.17,0.752-0.778,1.424-1.824c0.672-1.045,1.008-1.648,1.008-1.808c0-0.16-0.096-0.24-0.288-0.24   c-0.063,0-0.65,0.123-1.76,0.368c-1.109,0.246-1.824,0.422-2.145,0.527c-1.258,0.428-2.176,0.684-2.751,0.769   c-0.277,0.043-0.693,0.16-1.248,0.353c-0.555,0.191-0.886,0.352-0.992,0.479c-0.107,0.128-0.235,0.192-0.384,0.192   c-0.192,0-0.368-0.197-0.528-0.592c-0.16-0.395-0.24-0.736-0.24-1.024s0.128-0.433,0.384-0.433c0.256,0,1.12-0.197,2.592-0.592   s2.517-0.73,3.136-1.008c0.618-0.277,1.29-0.48,2.016-0.607c0.725-0.129,1.467-0.342,2.224-0.641   c0.758-0.298,1.189-0.501,1.297-0.608c0.106-0.106,0.239-0.437,0.399-0.992c0.16-0.554,0.293-1.285,0.4-2.192   c0.106-0.906,0.16-1.776,0.16-2.608s0.026-1.808,0.08-2.928c0.053-1.12,0.116-1.818,0.191-2.096   c0.074-0.277,0.117-0.624,0.128-1.04s0.017-0.73,0.017-0.944s0.116-0.357,0.352-0.432c0.234-0.075,0.581-0.112,1.04-0.112   s0.741,0.038,0.848,0.112s0.134,0.256,0.08,0.544s-0.08,0.912-0.08,1.872l0.032,1.088c0,0.47-0.032,0.928-0.096,1.376l-0.16,1.056   c0,0.533,0.064,1.062,0.192,1.584c0.128,0.523,0.191,0.949,0.191,1.28c0,0.331-0.075,0.832-0.224,1.504   c-0.149,0.672-0.225,1.115-0.225,1.328c0,0.47,0.182,0.672,0.544,0.608c1.003-0.192,1.883-0.314,2.641-0.368   c0.757-0.053,1.669-0.176,2.736-0.368c1.066-0.192,1.669-0.341,1.808-0.448C24.594,12.84,24.727,12.787,24.855,12.787z    M8.183,10.515c0.149,0,0.257,0.053,0.32,0.16c0.234,0.363,0.789,0.651,1.664,0.864c0.341,0.085,0.693,0.251,1.056,0.496   c0.363,0.245,0.581,0.411,0.656,0.496c0.074,0.085,0.112,0.203,0.112,0.352c0,0.363-0.149,0.667-0.448,0.912   c-0.299,0.246-0.992,0.368-2.08,0.368c-0.363,0-0.715-0.032-1.056-0.096c-0.342-0.064-0.544-0.16-0.608-0.288   c-0.063-0.128-0.16-0.442-0.288-0.944c-0.128-0.501-0.191-0.938-0.191-1.312c0-0.373,0.101-0.634,0.304-0.784   C7.825,10.589,8.012,10.515,8.183,10.515z M8.759,4.626c0.149,0,0.277,0.085,0.384,0.256c0.106,0.171,0.267,0.342,0.48,0.512   c0.213,0.171,0.64,0.448,1.28,0.832c1.088,0.662,1.632,1.206,1.632,1.632c0,0.235-0.123,0.443-0.368,0.624   c-0.245,0.182-0.518,0.272-0.816,0.272s-0.896-0.123-1.792-0.368c-0.896-0.245-1.407-0.512-1.535-0.8   C7.895,7.298,7.831,6.882,7.831,6.338s0.063-0.965,0.192-1.264C8.151,4.776,8.396,4.626,8.759,4.626z" stroke-width="1"/>
</g>
</svg>