<svg xmlns="http://www.w3.org/2000/svg" xmlns:xlink="http://www.w3.org/1999/xlink" version="1.1" id="图层_1" x="0px" y="0px" width="27.816001892089844" height="29.41799545288086" viewBox="1.474998950958252 -0.03599563241004944 27.816001892089844 29.41799545288086" enable-background="new 0 0 30 30" xml:space="preserve">
<g>
	<path fill="#0000FF" d="M12.631,17.362c0,0.192-0.091,0.38-0.271,0.56c-0.182,0.182-0.331,0.433-0.448,0.752   c-0.117,0.32-0.342,0.694-0.672,1.121c-0.331,0.427-0.55,0.8-0.656,1.119c-0.107,0.32-0.304,0.613-0.592,0.881   c-0.288,0.267-0.571,0.438-0.849,0.512s-0.587,0.219-0.928,0.432c-0.342,0.214-0.741,0.416-1.2,0.608   c-0.459,0.192-0.822,0.288-1.088,0.288s-0.757-0.33-1.472-0.992c-0.715-0.661-1.307-1.51-1.776-2.544   c-0.47-1.034-0.704-1.664-0.704-1.888c0-0.225,0.08-0.395,0.24-0.512c0.16-0.117,0.507-0.251,1.04-0.4s0.938-0.314,1.216-0.496   c0.277-0.182,0.517-0.368,0.72-0.561c0.203-0.191,0.32-0.373,0.352-0.543c0.032-0.172,0.069-0.662,0.112-1.473   c0.042-0.811,0.064-1.643,0.064-2.496c0-0.853-0.027-1.515-0.08-1.984c-0.054-0.469-0.08-0.869-0.08-1.2   c0-0.331,0.069-0.725,0.208-1.184c0.138-0.458,0.208-0.858,0.208-1.2s0.16-0.512,0.48-0.512c0.32,0,0.8,0.144,1.439,0.432   c0.641,0.288,0.961,0.56,0.961,0.816S8.807,7.416,8.711,7.683C8.615,7.95,8.54,8.286,8.487,8.69c-0.054,0.406-0.08,0.699-0.08,0.88   c0,0.182,0.09,0.272,0.271,0.272s0.603-0.101,1.265-0.304c0.66-0.203,1.076-0.304,1.248-0.304c0.17,0,0.298,0.07,0.384,0.208   c0.085,0.139,0.128,0.39,0.128,0.752c0,0.363-0.043,0.614-0.128,0.752c-0.086,0.139-0.342,0.315-0.769,0.528   c-0.427,0.213-0.901,0.512-1.424,0.896c-0.522,0.384-0.858,0.677-1.008,0.88c-0.149,0.203-0.214,0.421-0.192,0.656   s0.032,0.539,0.032,0.912c0,0.374,0.032,0.592,0.096,0.656c0.064,0.064,0.192,0.107,0.385,0.128   c0.811,0.063,1.669,0.288,2.575,0.672C12.178,16.658,12.631,17.021,12.631,17.362z M6.103,21.203c0.362,0,0.869-0.257,1.52-0.769   c0.65-0.513,0.976-1.205,0.976-2.08c0-0.513-0.267-0.769-0.8-0.769c-0.342,0-0.8,0.102-1.376,0.305   c-0.576,0.203-0.928,0.443-1.056,0.72c-0.128,0.278-0.192,0.667-0.192,1.168s0.085,0.864,0.256,1.089   C5.602,21.09,5.826,21.203,6.103,21.203z M28.791,23.123c0,1.322-0.086,2.416-0.256,3.279c-0.171,0.863-0.256,1.414-0.256,1.648   c-0.021,0.555-0.203,0.832-0.544,0.832c-0.534,0-1.499-0.369-2.896-1.104c-1.397-0.736-2.704-1.744-3.92-3.025   c-1.216-1.279-2.144-2.697-2.784-4.256c-0.128-0.34-0.256-0.512-0.384-0.512s-0.352,0.208-0.672,0.624s-0.528,0.773-0.624,1.072   s-0.203,0.518-0.32,0.655c-0.117,0.14-0.341,0.278-0.672,0.416c-0.331,0.14-0.709,0.336-1.136,0.593   c-0.939,0.533-1.909,0.8-2.912,0.8c-0.683,0-1.024-0.117-1.024-0.352c0-0.385,0.747-1.003,2.24-1.856   c0.512-0.276,1.056-0.661,1.632-1.151c0.576-0.491,1.137-1.024,1.681-1.601s0.853-0.929,0.928-1.056   c0.074-0.129,0.112-0.245,0.112-0.353c0-0.171-0.235-0.906-0.704-2.208c-0.064-0.17-0.145-0.416-0.24-0.736s-0.203-0.48-0.32-0.48   s-0.293,0.064-0.527,0.192c-0.918,0.448-1.568,0.715-1.952,0.8c-0.384,0.085-0.656,0.187-0.816,0.304s-0.283,0.176-0.368,0.176   c-0.171,0-0.555-0.324-1.151-0.976c-0.598-0.65-0.896-1.115-0.896-1.392c0-0.277,0.16-0.432,0.48-0.464   c0.319-0.032,0.794-0.181,1.424-0.448c0.629-0.267,1.221-0.496,1.775-0.688s0.891-0.346,1.009-0.464   c0.116-0.117,0.176-0.245,0.176-0.384s-0.021-0.293-0.064-0.464c-0.618-2.539-0.997-4.314-1.136-5.328s-0.293-1.829-0.464-2.448   c-0.171-0.619-0.32-1.035-0.448-1.248c-0.128-0.213-0.191-0.389-0.191-0.528s0.229-0.261,0.688-0.368   c0.459-0.106,0.805-0.16,1.04-0.16c0.234,0,0.389,0.043,0.464,0.128c0.074,0.085,0.112,0.304,0.112,0.656s0.117,1.078,0.352,2.176   s0.405,1.787,0.513,2.064c0.341,0.811,0.746,2.069,1.216,3.776c0.106,0.405,0.229,0.608,0.368,0.608   c0.138,0,0.282-0.032,0.432-0.096c1.045-0.448,1.68-0.672,1.904-0.672c0.224,0,0.395,0.118,0.512,0.352   c0.117,0.235,0.176,0.438,0.176,0.608c0,0.363-0.176,0.672-0.527,0.928c-0.353,0.256-0.656,0.56-0.912,0.912   c-0.256,0.352-0.464,0.597-0.624,0.736c-0.16,0.139-0.24,0.272-0.24,0.4s0.032,0.315,0.096,0.56   c0.064,0.246,0.112,0.496,0.145,0.752c0.031,0.256,0.063,0.549,0.096,0.88c0.032,0.331,0.106,0.496,0.224,0.496   s0.385-0.405,0.801-1.216c0.416-0.811,0.72-1.504,0.911-2.08c0.085-0.277,0.225-0.416,0.416-0.416c0.192,0,0.47,0.139,0.832,0.416   c0.363,0.277,0.544,0.496,0.544,0.656c0,0.16-0.106,0.486-0.319,0.976c-0.214,0.491-0.379,1.03-0.496,1.616   c-0.117,0.587-0.272,1.029-0.464,1.328c-0.192,0.299-0.528,0.624-1.008,0.976c-0.48,0.352-0.721,0.646-0.721,0.881   c0,0.341,0.31,1.156,0.929,2.447c0.618,1.291,1.492,2.368,2.624,3.232c1.13,0.863,1.968,1.295,2.512,1.295s0.96-0.213,1.248-0.639   c0.288-0.428,0.549-1.516,0.784-3.265c0.234-1.749,0.362-2.928,0.384-3.536c0.021-0.607,0.063-0.912,0.128-0.912   c0.128,0,0.341,0.512,0.64,1.536S28.791,21.416,28.791,23.123z M19.255,3.891c0.171,0,0.299,0.091,0.384,0.272   c0.085,0.182,0.385,0.4,0.896,0.656c1.108,0.47,1.792,0.838,2.048,1.104c0.256,0.267,0.384,0.624,0.384,1.072   c0,0.448-0.576,0.672-1.728,0.672c-1.216,0-1.958-0.314-2.225-0.944c-0.267-0.629-0.399-1.157-0.399-1.584s0.063-0.741,0.191-0.944   C18.935,3.992,19.084,3.891,19.255,3.891z" stroke-width="1"/>
</g>
</svg>