<svg xmlns="http://www.w3.org/2000/svg" xmlns:xlink="http://www.w3.org/1999/xlink" version="1.1" id="图层_1" x="0px" y="0px" width="24.426002502441406" height="27.72100067138672" viewBox="2.6889963150024414 1.2770049571990967 24.426002502441406 27.72100067138672" enable-background="new 0 0 30 30" xml:space="preserve">
<g>
	<path fill="#0000FF" d="M26.615,14.707c0,0.213-0.075,0.427-0.225,0.64c-0.149,0.214-0.347,0.319-0.592,0.319   s-0.646-0.084-1.2-0.255c-1.131-0.341-2.624-0.512-4.479-0.512c-0.491,0-0.918,0.016-1.28,0.048   c-0.363,0.032-0.613,0.07-0.752,0.112c-0.139,0.043-0.56,0.315-1.264,0.816c-0.704,0.501-1.275,0.955-1.712,1.359   c-0.438,0.406-0.672,0.641-0.704,0.704s-0.048,0.14-0.048,0.224c0,0.086,0.021,0.15,0.063,0.192   c0.277,0.277,0.416,0.556,0.416,0.832c0,0.085-0.054,0.267-0.16,0.544s-0.16,0.512-0.16,0.704s0.075,0.288,0.225,0.288   c0.042,0,0.314-0.08,0.815-0.24s0.901-0.24,1.2-0.24s0.475,0.102,0.528,0.305c0.053,0.203,0.08,0.464,0.08,0.783   c0,0.32-0.048,0.566-0.145,0.736c-0.096,0.171-0.251,0.299-0.464,0.385l-0.928,0.352c-0.683,0.256-1.077,0.416-1.184,0.48   c-0.107,0.063-0.16,0.219-0.16,0.463c0,0.246,0.096,0.369,0.288,0.369c0.362,0,0.735-0.043,1.119-0.129   c0.385-0.085,0.619-0.128,0.704-0.128c0.299,0,0.47,0.182,0.513,0.544c0.085,0.555,0.213,0.875,0.384,0.96   c0.17,0.085,0.32,0.128,0.448,0.128c0.298,0,0.475-0.293,0.527-0.88c0.054-0.587,0.08-1.546,0.08-2.88   c0-1.333-0.026-2.182-0.08-2.544c-0.053-0.362-0.347-0.544-0.88-0.544c-0.299,0-0.607,0.037-0.928,0.111   c-0.32,0.076-0.555,0.113-0.704,0.113s-0.294-0.123-0.432-0.369c-0.14-0.244-0.208-0.441-0.208-0.592   c0-0.32,0.148-0.512,0.447-0.576c0.661-0.127,1.307-0.304,1.937-0.527c0.629-0.225,1.114-0.336,1.456-0.336   c0.341,0,0.805,0.111,1.392,0.336c0.587,0.224,0.928,0.389,1.024,0.496c0.096,0.107,0.144,0.234,0.144,0.384   s-0.032,0.277-0.096,0.384c-0.149,0.277-0.224,0.822-0.224,1.633l0.031,1.6c0,0.64-0.016,1.109-0.048,1.408   s-0.048,0.693-0.048,1.184l0.096,3.615c0,0.662-0.203,0.992-0.607,0.992c-0.277,0-0.843-0.188-1.696-0.559   c-0.854-0.375-1.611-0.902-2.271-1.585c-0.15-0.149-0.272-0.224-0.368-0.224c-0.097,0-0.272,0.08-0.528,0.24   s-0.502,0.276-0.736,0.352c-0.234,0.074-0.453,0.16-0.655,0.256c-0.203,0.096-0.374,0.145-0.513,0.145s-0.288-0.097-0.447-0.289   c-0.16-0.191-0.358-0.64-0.593-1.344c-0.234-0.703-0.379-1.333-0.432-1.888c-0.054-0.555-0.08-1.482-0.08-2.784   c0-0.17-0.032-0.256-0.096-0.256c-0.064,0-0.14,0.054-0.225,0.16c-0.512,0.576-1.045,1.014-1.6,1.313s-1.237,0.501-2.048,0.607   c-0.214,0.021-0.374,0.149-0.48,0.384c-0.234,0.491-0.479,0.929-0.735,1.312c-0.256,0.385-0.427,0.736-0.512,1.057   c-0.085,0.32-0.214,0.48-0.384,0.48c-0.384,0-1.019-0.715-1.904-2.145c-0.886-1.429-1.328-3.68-1.328-6.752   c0-0.49,0.08-1.242,0.24-2.256c0.16-1.013,0.32-1.813,0.48-2.4c0.16-0.587,0.277-0.939,0.352-1.056   c0.074-0.117,0.202-0.176,0.384-0.176c0.181,0,0.57,0.139,1.168,0.416c0.597,0.278,0.896,0.592,0.896,0.944   s-0.171,0.699-0.512,1.04c-0.747,0.747-1.27,1.515-1.568,2.304c-0.299,0.789-0.448,1.846-0.448,3.168s0.133,2.191,0.4,2.607   c0.267,0.416,0.56,0.624,0.88,0.624c0.491,0,1.019-0.469,1.584-1.407c0.565-0.939,1.029-2.331,1.393-4.177   c0.362-1.845,0.618-3.013,0.768-3.504c0.149-0.49,0.299-0.736,0.448-0.736c0.148,0,0.224,0.171,0.224,0.512l-0.096,1.312   c0,0.214,0.096,0.32,0.288,0.32c0.576,0,1.477-0.176,2.704-0.528c1.227-0.352,1.908-0.608,2.048-0.768   c0.139-0.16,0.208-0.379,0.208-0.656c0-0.277-0.06-0.453-0.176-0.528c-0.118-0.075-0.38-0.112-0.784-0.112   c-0.406,0-0.747,0.048-1.024,0.144c-0.277,0.096-0.47,0.144-0.576,0.144s-0.213-0.106-0.319-0.32   c-0.107-0.213-0.235-0.64-0.385-1.28c-0.149-0.64-0.224-1.066-0.224-1.28c0-0.213,0.069-0.373,0.208-0.48   c0.139-0.106,0.379-0.139,0.72-0.096c0.341,0.043,0.843,0.064,1.504,0.064s1.094-0.069,1.296-0.208   c0.203-0.138,0.357-1.285,0.465-3.44c0.042-1.472,0.122-2.405,0.239-2.8c0.117-0.395,0.357-0.592,0.721-0.592   c0.362,0,0.74,0.144,1.136,0.432c0.395,0.288,0.592,0.528,0.592,0.72c0,0.192-0.043,0.395-0.128,0.608   c-0.214,0.555-0.373,1.291-0.479,2.208c-0.107,0.917-0.16,1.568-0.16,1.952c0,0.149,0.117,0.224,0.352,0.224   s0.726-0.181,1.472-0.544c0.299-0.128,0.565-0.192,0.801-0.192c0.576,0,0.863,0.459,0.863,1.376c0,0.277-0.053,0.496-0.159,0.656   c-0.107,0.16-0.326,0.32-0.656,0.48c-0.331,0.16-0.816,0.448-1.456,0.864s-1.014,0.678-1.12,0.784   c-0.107,0.107-0.16,0.384-0.16,0.832c0,0.213,0.021,0.357,0.064,0.432c0.042,0.075,0.176,0.112,0.399,0.112   c0.225,0,0.501-0.128,0.832-0.384c0.331-0.256,0.789-0.736,1.376-1.44s1.456-1.845,2.608-3.424c0.148-0.213,0.32-0.32,0.512-0.32   c0.192,0,0.416,0.123,0.672,0.368c0.256,0.246,0.385,0.475,0.385,0.688c0,0.213-0.075,0.384-0.225,0.512   c-0.598,0.491-1.174,1.099-1.728,1.824c-0.556,0.726-0.929,1.2-1.12,1.424c-0.192,0.224-0.288,0.389-0.288,0.496   c0,0.107,0.08,0.16,0.24,0.16c0.159,0,0.597-0.032,1.312-0.096c0.715-0.064,1.194-0.133,1.44-0.208   c0.245-0.075,0.447-0.112,0.607-0.112s0.293,0.038,0.4,0.112c0.106,0.075,0.277,0.267,0.512,0.576   c0.234,0.31,0.405,0.528,0.512,0.656C26.444,13.981,26.615,14.366,26.615,14.707z M10.135,9.17c0,0.192-0.08,0.374-0.24,0.544   C9.735,9.886,9.479,9.971,9.127,9.971S8.236,9.842,7.511,9.586C6.786,9.331,6.332,9.16,6.151,9.075   C5.97,8.99,5.841,8.84,5.767,8.626C5.692,8.414,5.655,8.029,5.655,7.475s0.011-0.912,0.032-1.072   c0.021-0.16,0.192-0.395,0.512-0.704c0.32-0.309,0.682-0.464,1.088-0.464c0.405,0,0.704,0.224,0.896,0.672   c0.32,0.747,0.789,1.493,1.408,2.24C9.953,8.574,10.135,8.915,10.135,9.17z M9.239,20.371c0.063,0,0.229-0.102,0.496-0.305   c0.267-0.202,0.597-0.475,0.991-0.816c0.395-0.34,0.827-0.762,1.297-1.264c0.469-0.501,0.874-0.96,1.216-1.376   c0.341-0.416,0.512-0.667,0.512-0.752c0-0.149-0.107-0.224-0.32-0.224l-1.728,0.287c-0.619,0.107-1.094,0.177-1.424,0.209   c-0.331,0.031-0.523,0.085-0.576,0.16c-0.054,0.074-0.091,0.165-0.112,0.271c-0.085,1.023-0.182,1.803-0.288,2.336l-0.256,1.28   C9.047,20.307,9.111,20.371,9.239,20.371z" stroke-width="1"/>
</g>
</svg>