<svg xmlns="http://www.w3.org/2000/svg" xmlns:xlink="http://www.w3.org/1999/xlink" version="1.1" id="图层_1" x="0px" y="0px" width="28.459003448486328" height="26.536001205444336" viewBox="1.9880003929138184 1.501997470855713 28.459003448486328 26.536001205444336" enable-background="new 0 0 30 30" xml:space="preserve">
<g>
	<path fill="#0000FF" d="M16.471,17.011c0.171-0.064,0.256-0.155,0.256-0.272s-0.053-0.219-0.159-0.304   c-0.576-0.533-1.089-1.088-1.536-1.664c-0.086-0.106-0.203-0.16-0.353-0.16s-0.459,0.128-0.928,0.384   c-0.47,0.256-0.848,0.427-1.136,0.511c-0.288,0.086-0.604,0.129-0.944,0.129c-0.342,0-0.544,0.031-0.607,0.096   c-0.257,0.256-0.758,0.607-1.505,1.057c-0.747,0.447-1.119,0.949-1.119,1.504c0,0.832,0.128,1.248,0.384,1.248   c0.106,0,0.347-0.112,0.72-0.336c0.373-0.225,0.736-0.48,1.088-0.769c0.353-0.288,0.613-0.433,0.784-0.433s0.256,0.156,0.256,0.465   s-0.112,0.703-0.336,1.184s-0.838,1.083-1.84,1.809c-1.003,0.725-1.952,1.333-2.848,1.824c-0.896,0.49-1.44,0.832-1.632,1.023   c-0.384,0.426-0.672,0.64-0.864,0.64s-0.347-0.059-0.464-0.176c-0.118-0.118-0.347-0.31-0.688-0.576   c-0.341-0.267-0.512-0.495-0.512-0.688c0-0.191,0.075-0.352,0.224-0.479c0.149-0.128,0.416-0.31,0.8-0.544   c0.384-0.234,0.576-0.447,0.576-0.641c0-0.191-0.011-0.352-0.032-0.479c-0.32-1.771-0.48-3.099-0.48-3.983s0.042-1.402,0.128-1.553   c0.085-0.148,0.208-0.224,0.368-0.224c0.16,0,0.458,0.054,0.896,0.16c0.437,0.106,0.656,0.256,0.656,0.448   c0,0.191-0.059,0.367-0.176,0.527s-0.176,0.47-0.176,0.928c0,0.459,0.042,1.094,0.128,1.904c0.085,0.811,0.155,1.26,0.208,1.344   C5.66,21,5.746,21.043,5.863,21.043s0.32-0.091,0.608-0.272c0.288-0.181,0.426-0.39,0.416-0.624   c-0.011-0.234-0.016-0.581-0.016-1.04c0-0.458,0.026-0.88,0.08-1.265c0.053-0.383,0.08-0.799,0.08-1.247s-0.053-0.976-0.16-1.584   c-0.107-0.608-0.213-0.96-0.32-1.056c-0.107-0.096-0.224-0.155-0.352-0.176c-0.128-0.021-0.24-0.096-0.336-0.224   c-0.096-0.128-0.261-0.501-0.496-1.12c-0.235-0.619-0.448-1.349-0.64-2.192S4.439,8.744,4.439,8.274c0-0.213,0.059-0.48,0.176-0.8   c0.117-0.32,0.314-0.48,0.592-0.48c0.341,0,0.896-0.133,1.664-0.4c0.768-0.267,1.52-0.4,2.256-0.4s1.563,0.102,2.48,0.304   c0.917,0.203,1.376,0.507,1.376,0.912c0,0.192-0.097,0.416-0.288,0.672c-0.96,1.259-1.44,2.203-1.44,2.832   c0,0.629-0.059,1.035-0.176,1.216c-0.117,0.182-0.379,0.32-0.784,0.416c-0.405,0.096-0.704,0.208-0.896,0.336   c-0.192,0.128-0.342,0.406-0.448,0.832c-0.107,0.427-0.16,0.715-0.16,0.864c0,0.149,0.048,0.224,0.144,0.224   c0.097,0,0.187-0.021,0.272-0.064c0.597-0.277,1.184-0.416,1.76-0.416c0.277,0,0.433,0.096,0.464,0.288   c0.032,0.192,0.112,0.288,0.24,0.288s0.405-0.117,0.832-0.352c0.427-0.234,0.821-0.608,1.184-1.12   c0.363-0.512,0.545-0.928,0.545-1.248c0-0.32-0.038-0.571-0.112-0.752c-0.075-0.181-0.155-0.272-0.24-0.272   s-0.176,0.032-0.271,0.096c-0.097,0.064-0.208,0.096-0.337,0.096c-0.128,0-0.267-0.085-0.415-0.256   c-0.15-0.17-0.225-0.32-0.225-0.448s0.048-0.245,0.145-0.352c0.096-0.106,0.399-0.229,0.911-0.368   c0.513-0.138,0.971-0.208,1.377-0.208c0.81,0,1.216,0.192,1.216,0.576c0,0.192-0.069,0.438-0.208,0.736   c-0.14,0.299-0.299,0.79-0.48,1.472c-0.182,0.683-0.271,1.125-0.271,1.328s0.037,0.331,0.111,0.384   c0.075,0.054,0.229,0.139,0.464,0.256c0.235,0.118,0.427,0.176,0.576,0.176c0.299,0,0.496-0.309,0.593-0.928   c0.096-0.618,0.144-1.621,0.144-3.008c0-1.856,0.053-3.685,0.16-5.488c0.106-1.803,0.197-2.789,0.271-2.96   c0.075-0.17,0.24-0.256,0.496-0.256c0.128,0,0.475,0.075,1.04,0.224c0.565,0.149,0.849,0.326,0.849,0.528   c0,0.203-0.086,0.39-0.257,0.56c-0.533,0.512-0.8,1.835-0.8,3.968c0,1.323,0.085,1.984,0.256,1.984   c0.064,0,0.256-0.128,0.576-0.384c0.32-0.256,0.784-0.592,1.393-1.008c0.607-0.416,1.002-0.714,1.184-0.896   c0.181-0.181,0.362-0.272,0.544-0.272c0.181,0,0.416,0.155,0.704,0.464c0.288,0.31,0.432,0.582,0.432,0.816   c0,0.235-0.139,0.39-0.416,0.464s-0.693,0.277-1.248,0.608c-0.555,0.331-1.205,0.667-1.951,1.008   c-0.214,0.085-0.32,0.213-0.32,0.384c0,0.299,0.512,0.928,1.536,1.888c1.023,0.96,2.016,1.6,2.976,1.92   c2.112,0.747,3.525,1.361,4.24,1.84s1.072,0.806,1.072,0.976c0,0.342-0.684,0.512-2.049,0.512c-1.066,0-2.347-0.17-3.84-0.512   c-0.106-0.021-0.208-0.031-0.304-0.031s-0.182,0.043-0.256,0.127c-0.075,0.086-0.182,0.315-0.32,0.688   c-0.139,0.374-0.245,0.892-0.319,1.552c-0.075,0.662-0.112,1.302-0.112,1.92l0.032,1.568c0,0.896-0.032,1.493-0.097,1.792   c-0.063,0.299-0.117,0.688-0.16,1.168s-0.063,0.88-0.063,1.2s-0.134,0.48-0.4,0.48s-0.752-0.145-1.456-0.432   c-0.704-0.289-1.419-0.816-2.144-1.585c-0.171-0.171-0.448-0.256-0.832-0.256s-0.891,0.112-1.521,0.336   c-0.629,0.224-1.062,0.405-1.296,0.544s-0.384,0.208-0.447,0.208c-0.385,0-0.667-0.518-0.849-1.552   c-0.182-1.035-0.271-2.129-0.271-3.28s0.016-1.937,0.048-2.353s0.16-0.752,0.384-1.008s0.549-0.447,0.977-0.576L16.471,17.011z    M7.351,11.442c0.214,0,0.507-0.08,0.881-0.24c0.372-0.16,0.65-0.464,0.832-0.912c0.181-0.448,0.271-0.842,0.271-1.184   c0-0.875-0.331-1.312-0.992-1.312c-0.319,0-0.624,0.123-0.912,0.368C7.143,8.408,6.94,8.803,6.823,9.347s-0.176,0.928-0.176,1.152   s0.069,0.438,0.208,0.64C6.994,11.341,7.159,11.442,7.351,11.442z M19.671,24.914c0.213,0,0.353-0.127,0.416-0.383   c0.064-0.257,0.096-0.886,0.096-1.889c0-2.133-0.123-3.482-0.367-4.048c-0.246-0.565-0.656-0.849-1.232-0.849   s-1.285,0.176-2.128,0.528s-1.264,0.752-1.264,1.2c0,0.213,0.128,0.299,0.384,0.256c0.704-0.128,1.28-0.191,1.728-0.191   c0.448,0,0.795,0.026,1.04,0.08c0.245,0.053,0.368,0.187,0.368,0.399c0,0.214-0.048,0.464-0.144,0.752   c-0.097,0.288-0.348,0.507-0.752,0.656c-1.686,0.683-2.528,1.28-2.528,1.792c0,0.256,0.128,0.363,0.384,0.32   c1.322-0.234,2.24-0.353,2.752-0.353c0.171,0,0.299,0.032,0.384,0.097c0.085,0.063,0.134,0.181,0.145,0.352   s0.016,0.373,0.016,0.607s0.085,0.405,0.256,0.512C19.394,24.861,19.543,24.914,19.671,24.914z M21.879,16.402   c0.149,0,0.251-0.053,0.304-0.16c0.054-0.105,0.08-0.33,0.08-0.672c0-0.341-0.085-0.656-0.256-0.944s-0.453-0.629-0.848-1.024   c-0.396-0.395-0.812-0.709-1.248-0.944c-0.438-0.235-0.769-0.352-0.992-0.352s-0.336,0.523-0.336,1.568   c0,0.32,0.037,0.773,0.112,1.36c0.074,0.587,0.165,0.939,0.271,1.057s0.31,0.154,0.608,0.111c0.298-0.043,0.607-0.064,0.928-0.064   L21.879,16.402z" stroke-width="1"/>
</g>
</svg>