<svg xmlns="http://www.w3.org/2000/svg" xmlns:xlink="http://www.w3.org/1999/xlink" version="1.1" id="图层_1" x="0px" y="0px" width="30.089000701904297" height="28.26399803161621" viewBox="0.0019997358322143555 0.22300153970718384 30.089000701904297 28.26399803161621" enable-background="new 0 0 30 30" xml:space="preserve">
<g>
	<path fill="#0000FF" d="M12.567,8.307c0,0.128-0.118,0.31-0.353,0.544c-0.234,0.235-0.432,0.592-0.592,1.072   s-0.256,0.939-0.288,1.376c-0.032,0.438-0.048,1.307-0.048,2.608s-0.027,2.757-0.08,4.368c-0.054,1.611-0.123,2.694-0.208,3.248   c-0.086,0.556-0.128,1.024-0.128,1.408s-0.123,0.575-0.368,0.575s-0.73-0.223-1.456-0.672c-0.726-0.447-1.088-0.735-1.088-0.863   c0-0.129,0.037-0.203,0.112-0.225c0.074-0.021,0.267-0.031,0.576-0.031c0.309,0,0.506-0.091,0.592-0.272   c0.085-0.181,0.128-0.624,0.128-1.327c0-0.705-0.011-1.254-0.032-1.648s-0.037-0.613-0.048-0.656s-0.048-0.064-0.112-0.064   c-0.043,0-0.39,0.305-1.04,0.912c-0.65,0.608-1.429,1.393-2.336,2.353s-1.542,1.542-1.904,1.743   c-0.363,0.203-0.603,0.396-0.72,0.576c-0.117,0.182-0.245,0.272-0.384,0.272c-0.139,0-0.555-0.165-1.248-0.496   c-0.693-0.331-1.04-0.612-1.04-0.849c0-0.234,0.149-0.372,0.448-0.416c0.192-0.021,0.389-0.1,0.592-0.239   c0.203-0.139,0.581-0.453,1.136-0.944c0.554-0.49,0.869-0.789,0.944-0.896c0.074-0.106,0.112-0.214,0.112-0.32   s-0.021-0.245-0.064-0.416c-0.405-1.557-0.608-2.853-0.608-3.888c0-1.035,0.048-1.968,0.144-2.8s0.144-1.525,0.144-2.08   c0-0.917,0.389-1.45,1.168-1.6c0.778-0.149,1.659-0.421,2.64-0.816C8.14,7.448,8.833,7.25,9.239,7.25   c0.404,0,1.061,0.112,1.968,0.336C12.113,7.811,12.567,8.05,12.567,8.307z M5.719,11.763c0,0.213,0.117,0.341,0.352,0.384   c1.152,0.299,1.728,0.699,1.728,1.2c0,0.501-0.342,0.837-1.024,1.008c-0.235,0.064-0.501,0.149-0.8,0.256   c-0.299,0.107-0.496,0.198-0.592,0.272c-0.096,0.075-0.203,0.416-0.32,1.024c-0.118,0.608-0.176,1.18-0.176,1.713   s0.048,0.799,0.144,0.799c0.096,0,0.283-0.105,0.56-0.319l1.888-1.44c0.981-0.703,1.505-1.104,1.568-1.2   c0.064-0.096,0.096-0.325,0.096-0.688c0-0.362,0.027-0.869,0.08-1.52c0.054-0.65,0.08-1.157,0.08-1.52   c0-1.28-0.075-2.064-0.224-2.352C8.93,9.09,8.7,8.946,8.391,8.946S7.745,9.059,7.383,9.283C7.02,9.506,6.695,9.73,6.407,9.955   c-0.288,0.224-0.475,0.416-0.56,0.576c-0.085,0.16-0.128,0.357-0.128,0.592V11.763z M18.999,14.707   c0.427,0,0.778,0.182,1.056,0.544c0.277,0.363,0.416,0.671,0.416,0.928c0,0.256-0.191,0.427-0.576,0.512   c-0.384,0.085-0.778,0.24-1.184,0.464c-0.405,0.225-0.768,0.443-1.088,0.656l-0.736,0.576c-0.213,0.149-0.405,0.363-0.576,0.64   c-0.171,0.278-0.299,0.63-0.384,1.056c-0.384,1.388-0.938,2.443-1.664,3.168c-0.469,0.471-0.768,0.981-0.896,1.537   c-0.107,0.426-0.699,0.869-1.776,1.328c-1.077,0.458-1.904,0.688-2.479,0.688c-0.576,0-0.864-0.129-0.864-0.385   s0.475-0.581,1.424-0.976c0.949-0.396,1.808-0.938,2.576-1.632c0.768-0.693,1.354-1.536,1.76-2.527   c0.405-0.992,0.608-1.766,0.608-2.32c0-0.192-0.145-0.325-0.433-0.4c-0.288-0.074-0.49-0.352-0.607-0.832   c-0.118-0.48-0.176-0.795-0.176-0.943c0-0.428,0.276-0.662,0.832-0.705c0.554-0.042,1.21-0.17,1.968-0.383   c0.757-0.214,1.344-0.433,1.76-0.657S18.722,14.707,18.999,14.707z M24.023,10.035c0.148,0,0.384,0.512,0.703,1.536   c0.32,1.024,0.48,2.379,0.48,4.064c0,0.555-0.182,0.832-0.544,0.832c-0.363,0-1.243-0.336-2.64-1.008   c-1.397-0.672-2.566-1.573-3.505-2.704c-0.085-0.106-0.165-0.16-0.239-0.16c-0.075,0-0.166,0.043-0.272,0.128   c-1.003,0.747-1.846,1.27-2.528,1.568c-0.683,0.299-1.312,0.448-1.888,0.448s-0.864-0.053-0.864-0.16   c0-0.106,0.059-0.213,0.177-0.32c0.116-0.106,0.655-0.49,1.615-1.152c0.96-0.661,1.846-1.237,2.656-1.728   c0.106-0.085,0.16-0.16,0.16-0.224c0-0.064-0.037-0.165-0.112-0.304c-0.074-0.139-0.165-0.331-0.271-0.576   c-0.107-0.245-0.203-0.368-0.288-0.368c-0.086,0-0.197,0.027-0.336,0.08c-0.139,0.054-0.384,0.118-0.736,0.192   c-0.352,0.075-0.646,0.197-0.88,0.368c-0.235,0.171-0.427,0.256-0.576,0.256c-0.299,0-0.56-0.197-0.784-0.592   c-0.224-0.395-0.336-0.736-0.336-1.024s0.192-0.485,0.576-0.592s0.88-0.293,1.488-0.56c0.607-0.267,0.923-0.443,0.944-0.528   c0.021-0.085,0.021-0.202,0-0.352c-0.192-1.002-0.368-2.064-0.528-3.184c-0.16-1.12-0.299-1.765-0.416-1.936   c-0.117-0.17-0.176-0.32-0.176-0.448s0.196-0.304,0.592-0.528c0.395-0.224,0.73-0.336,1.008-0.336s0.427,0.213,0.448,0.64   c0.063,1.024,0.24,2.112,0.527,3.264c0.288,1.152,0.502,1.728,0.641,1.728s0.496-0.197,1.072-0.592   c0.575-0.395,0.98-0.693,1.216-0.896c0.234-0.203,0.464-0.304,0.688-0.304c0.225,0,0.47,0.133,0.736,0.4   c0.267,0.267,0.4,0.534,0.4,0.8s-0.054,0.507-0.16,0.72c-0.107,0.213-0.485,0.56-1.137,1.04c-0.65,0.48-1.199,0.848-1.647,1.104   c-0.149,0.085-0.224,0.182-0.224,0.288l0.128,0.48c0.106,0.341,0.224,0.512,0.352,0.512s0.448-0.171,0.96-0.512   c0.512-0.341,0.906-0.65,1.184-0.928c0.277-0.277,0.491-0.416,0.641-0.416c0.148,0,0.276,0.15,0.384,0.448   c0.106,0.299,0.16,0.539,0.16,0.72s-0.086,0.341-0.256,0.48c-0.171,0.139-0.604,0.416-1.296,0.832   c-0.693,0.416-1.094,0.672-1.2,0.768c-0.107,0.096-0.16,0.224-0.16,0.384c0,0.16,0.117,0.475,0.352,0.944   c0.235,0.47,0.619,0.827,1.152,1.072s0.906,0.368,1.12,0.368c0.597,0,0.938-0.49,1.024-1.472   C23.735,10.888,23.873,10.035,24.023,10.035z M28.727,18.803c0.257,0,0.465,0.741,0.624,2.224c0.16,1.483,0.24,3.227,0.24,5.231   c0,0.747-0.144,1.223-0.432,1.424c-0.288,0.203-1.445,0.305-3.473,0.305c-0.789,0-1.477-0.037-2.063-0.111   c-0.587-0.076-1.163-0.117-1.729-0.129c-0.565-0.01-1.045-0.016-1.439-0.016c-0.396,0-0.683-0.049-0.864-0.145   s-0.501-0.426-0.96-0.991s-0.815-1.2-1.072-1.904c-0.256-0.704-0.384-1.36-0.384-1.968s0.053-1.099,0.16-1.473   c0.106-0.373,0.176-0.735,0.208-1.088c0.032-0.352,0.037-0.56,0.016-0.623c-0.021-0.064-0.031-0.129-0.031-0.192   c0-0.277,0.187-0.507,0.56-0.688c0.373-0.181,0.72-0.271,1.04-0.271c0.427,0,0.64,0.16,0.64,0.48c0,0.127-0.102,0.346-0.304,0.655   c-0.203,0.31-0.405,0.8-0.607,1.472c-0.203,0.672-0.305,1.264-0.305,1.776c0,1.173,0.314,1.94,0.944,2.304   c0.629,0.363,1.765,0.545,3.408,0.545c1.643,0,2.683-0.064,3.12-0.192c0.437-0.128,0.81-0.4,1.119-0.816s0.528-0.997,0.656-1.743   c0.277-1.771,0.464-2.891,0.561-3.361C28.455,19.037,28.577,18.803,28.727,18.803z" stroke-width="1"/>
</g>
</svg>