<svg xmlns="http://www.w3.org/2000/svg" xmlns:xlink="http://www.w3.org/1999/xlink" version="1.1" id="图层_1" x="0px" y="0px" width="26.40700340270996" height="28.52300262451172" viewBox="3.682997226715088 -0.5769996643066406 26.40700340270996 28.52300262451172" enable-background="new 0 0 30 30" xml:space="preserve">
<g>
	<path fill="#0000FF" d="M18.135,15.539c0,0.127,0.054,0.234,0.16,0.319l1.408,1.12c0.853,0.684,1.829,1.227,2.928,1.632   s2.245,0.726,3.44,0.96c1.194,0.235,2.08,0.496,2.655,0.784c0.576,0.288,0.864,0.513,0.864,0.672c0,0.16-0.203,0.32-0.607,0.479   c-0.406,0.16-1.195,0.283-2.368,0.369c-1.174,0.085-2.006,0.127-2.496,0.127c-0.491,0-0.812-0.037-0.96-0.111   c-0.149-0.074-0.491-0.459-1.024-1.152s-1.115-1.264-1.744-1.712s-1.327-0.789-2.096-1.024c-0.768-0.234-1.237-0.352-1.408-0.352   s-0.379,0.102-0.624,0.305s-0.677,0.506-1.296,0.912c-0.619,0.404-1.077,0.768-1.376,1.088c-0.299,0.319-0.448,0.533-0.448,0.64   s0.075,0.159,0.225,0.159c0.469,0,1.168-0.127,2.096-0.383s1.786-0.385,2.576-0.385c0.789,0,1.595,0.214,2.416,0.641   s1.231,0.863,1.231,1.312c0,0.128-0.031,0.267-0.096,0.416c-0.576,1.216-0.923,1.968-1.04,2.256s-0.203,0.683-0.256,1.185   c-0.054,0.5-0.123,0.794-0.208,0.879c-0.085,0.086-0.203,0.129-0.352,0.129c-0.149,0-0.305-0.012-0.465-0.032   c-0.159-0.021-0.479-0.032-0.96-0.032c-0.479,0-1.173,0.059-2.079,0.176c-0.907,0.117-1.488,0.234-1.744,0.352   s-0.448,0.178-0.576,0.178s-0.251-0.055-0.368-0.16c-0.117-0.107-0.304-0.428-0.56-0.961c-0.257-0.533-0.438-1.029-0.544-1.488   c-0.107-0.459-0.262-0.986-0.465-1.584c-0.202-0.597-0.325-0.922-0.367-0.976c-0.043-0.053-0.177-0.059-0.4-0.017   c-0.224,0.044-0.518,0.064-0.88,0.064l-1.344-0.064c-0.172,0-0.31,0.107-0.416,0.32c-0.556,1.323-1.1,2.283-1.632,2.881   c-0.534,0.597-0.917,0.896-1.152,0.896c-0.448,0-0.827-0.459-1.136-1.376c-0.31-0.917-0.464-1.92-0.464-3.008   s0.149-2.133,0.448-3.137c0.235-0.768,0.352-1.621,0.352-2.56c0-0.362,0.139-0.544,0.416-0.544c0.277,0,0.704,0.111,1.28,0.336   c0.576,0.225,0.864,0.465,0.864,0.721c0,0.17-0.229,0.469-0.688,0.896c-0.459,0.427-0.87,1.083-1.232,1.968   c-0.363,0.886-0.544,1.76-0.544,2.624S5.26,23.57,5.623,23.57c0.128,0,0.309-0.085,0.544-0.256c0.234-0.17,0.73-0.783,1.488-1.84   c0.757-1.057,1.456-2.182,2.096-3.376c0.149-0.277,0.261-0.416,0.336-0.416c0.074,0,0.112,0.085,0.112,0.256   c0,0.683-0.182,1.382-0.544,2.097c-0.363,0.715-0.544,1.135-0.544,1.264c0,0.128,0.053,0.191,0.159,0.191   c0.235,0,0.726-0.191,1.473-0.576c0.746-0.383,1.632-1.125,2.656-2.224c1.023-1.099,1.535-1.78,1.535-2.048   c0-0.267-0.224-0.549-0.672-0.848c-0.447-0.299-0.981-0.448-1.6-0.448c-0.214,0-0.4,0.091-0.561,0.272   c-0.159,0.181-0.373,0.33-0.64,0.447s-0.475,0.176-0.624,0.176s-0.224-0.074-0.224-0.224s0.074-0.331,0.224-0.544l3.488-5.216   c0.085-0.128,0.191-0.416,0.32-0.864c0.128-0.448,0.224-0.747,0.287-0.896c0.064-0.149,0.097-0.256,0.097-0.32   c0-0.213-0.342-0.32-1.024-0.32c-0.363,0-0.8,0.07-1.312,0.208c-0.513,0.139-0.812,0.246-0.896,0.32s-0.128,0.149-0.128,0.224   c0,0.075,0.037,0.256,0.112,0.544c0.074,0.288,0.133,0.491,0.176,0.608s0.064,0.251,0.064,0.4c0,0.149-0.112,0.267-0.337,0.352   c-0.224,0.085-0.416,0.128-0.575,0.128c-0.16,0-0.305-0.096-0.433-0.288s-0.251-0.442-0.368-0.752   c-0.117-0.309-0.234-0.464-0.352-0.464s-0.4,0.102-0.848,0.304C8.663,9.646,8.348,9.816,8.167,9.955   c-0.182,0.139-0.315,0.208-0.4,0.208c-0.234,0-0.57-0.341-1.008-1.024S6.103,8.024,6.103,7.842c0-0.181,0.154-0.272,0.464-0.272   c0.309,0,0.8-0.064,1.472-0.192S9.095,7.16,9.191,7.106C9.287,7.054,9.335,6.99,9.335,6.915c0-0.075-0.011-0.144-0.032-0.208   c-0.234-0.789-0.416-1.509-0.544-2.16c-0.128-0.65-0.191-1.04-0.191-1.168c0-0.597,0.404-0.896,1.216-0.896   c0.298,0,0.666,0.048,1.104,0.144c0.438,0.096,0.656,0.272,0.656,0.528c0,0.107-0.064,0.288-0.192,0.544   c-0.128,0.256-0.191,0.677-0.191,1.264c0,0.587,0.032,1.04,0.096,1.36c0.064,0.32,0.181,0.48,0.353,0.48l0.8-0.032   c0.191-0.021,0.517-0.032,0.976-0.032s1.008-0.074,1.648-0.224c0.64-0.149,1.019-0.288,1.136-0.416s0.597-0.997,1.44-2.608   c0.842-1.611,1.322-2.608,1.439-2.992s0.41-0.576,0.88-0.576c0.213,0,0.475,0.059,0.784,0.176c0.309,0.117,0.464,0.251,0.464,0.4   c0,0.149-0.117,0.341-0.352,0.576c-0.235,0.235-0.518,0.752-0.849,1.552c-0.331,0.8-0.763,1.68-1.296,2.64   c-0.043,0.064-0.063,0.139-0.063,0.224c0,0.085,0.063,0.117,0.191,0.096c0.427-0.085,0.966-0.165,1.616-0.24   s1.136-0.272,1.456-0.592c0.085-0.085,0.187-0.128,0.304-0.128s0.299,0.272,0.544,0.816s0.368,0.955,0.368,1.232   c0,0.512-0.459,0.768-1.376,0.768l-1.088-0.032c-0.191,0-0.864,0.107-2.016,0.32c-1.152,0.213-1.776,0.336-1.872,0.368   c-0.096,0.032-0.262,0.219-0.496,0.56C16.012,9,15.895,9.234,15.895,9.362c0,0.128,0.037,0.208,0.112,0.24   c0.074,0.032,0.336,0.197,0.784,0.496c0.192,0.128,0.437,0.176,0.736,0.144c0.298-0.032,0.704-0.048,1.216-0.048   s1.056,0.139,1.632,0.416c0.576,0.278,0.864,0.507,0.864,0.688c0,0.182-0.16,0.4-0.48,0.656c-0.726,0.576-1.344,1.27-1.855,2.08   C18.391,14.846,18.135,15.347,18.135,15.539z M9.495,13.938c0,0.192-0.048,0.363-0.145,0.512c-0.096,0.149-0.224,0.224-0.384,0.224   S8.556,14.6,8.215,14.451c-0.342-0.149-0.789-0.331-1.344-0.544c-0.448-0.171-0.672-0.491-0.672-0.96   c0-0.128,0.053-0.49,0.16-1.088c0.106-0.597,0.245-0.901,0.416-0.912c0.17-0.01,0.325,0.107,0.464,0.352   c0.139,0.246,0.41,0.496,0.815,0.752c0.405,0.256,0.747,0.56,1.024,0.912S9.495,13.64,9.495,13.938z M15.319,25.074   c0.319,0,0.815-0.074,1.487-0.224s1.077-0.448,1.217-0.896c0.138-0.449,0.208-0.822,0.208-1.121c0-0.618-0.331-0.928-0.992-0.928   c-0.363,0-0.87,0.096-1.521,0.288s-1.051,0.4-1.2,0.624c-0.149,0.225-0.224,0.656-0.224,1.297   C14.295,24.754,14.636,25.074,15.319,25.074z M16.279,14.418c0.106,0,0.191-0.042,0.256-0.128l0.544-0.928   c0.299-0.512,0.448-0.901,0.448-1.168c0-0.266-0.07-0.469-0.208-0.608c-0.14-0.138-0.353-0.208-0.641-0.208   s-0.72,0.208-1.296,0.624s-0.864,0.747-0.864,0.992c0,0.246,0.245,0.544,0.736,0.896C15.745,14.243,16.087,14.418,16.279,14.418z" stroke-width="1"/>
</g>
</svg>