<svg xmlns="http://www.w3.org/2000/svg" xmlns:xlink="http://www.w3.org/1999/xlink" version="1.1" id="图层_1" x="0px" y="0px" width="25" height="26.760000228881836" viewBox="2.468000650405884 0.014999568462371826 25 26.760000228881836" enable-background="new 0 0 30 30" xml:space="preserve">
<g>
	<path fill="#0000FF" d="M6.776,17.859c0,0.17-0.043,0.427-0.128,0.768c-0.427,1.643-0.64,2.699-0.64,3.168   c0,0.47,0.021,0.795,0.064,0.977c0.042,0.181,0.064,0.336,0.064,0.464c0,0.384-0.171,0.575-0.512,0.575   c-0.192,0-0.603-0.154-1.232-0.464c-0.629-0.309-1.024-0.554-1.184-0.735s-0.24-0.395-0.24-0.641c0-0.244,0.229-0.693,0.688-1.344   c0.458-0.65,1.045-1.316,1.76-2c0.714-0.683,1.12-1.023,1.216-1.023C6.728,17.604,6.776,17.688,6.776,17.859z M18.872,18.402   c0,0.064,0.16,0.246,0.479,0.545c0.32,0.299,0.661,0.672,1.024,1.119c0.362,0.449,0.848,1.158,1.456,2.129s1.093,1.664,1.456,2.08   c0.362,0.416,0.544,0.783,0.544,1.104s-0.396,0.549-1.184,0.688c-0.79,0.138-1.952,0.208-3.488,0.208s-2.981-0.049-4.336-0.145   c-1.355-0.096-2.24-0.203-2.656-0.32S11.362,25.491,11,25.203c-0.363-0.288-0.688-0.667-0.976-1.136   c-0.288-0.47-0.528-1.04-0.721-1.712c-0.191-0.672-0.325-1.365-0.399-2.08c-0.075-0.715-0.134-1.185-0.177-1.408   c-0.043-0.225-0.063-0.379-0.063-0.465c0-0.383,0.224-0.575,0.672-0.575s0.741,0.037,0.88,0.112   c0.139,0.074,0.208,0.191,0.208,0.352s-0.011,0.314-0.032,0.464s-0.031,0.331-0.031,0.544c0,0.598,0.138,1.355,0.416,2.271   c0.276,0.918,0.815,1.494,1.615,1.729c0.801,0.235,1.984,0.353,3.553,0.353c1.567,0,2.592-0.08,3.071-0.24   c0.48-0.16,0.721-0.49,0.721-0.992c0-0.501-0.225-1.243-0.672-2.224c-0.448-0.981-0.812-1.473-1.089-1.473   c-0.362,0-1.216,0.736-2.56,2.209c-0.235,0.256-0.464,0.383-0.688,0.383c-0.224,0-0.587-0.314-1.088-0.943   s-0.752-1.184-0.752-1.664s0.117-0.721,0.353-0.721c0.17,0,0.341,0.145,0.512,0.433s0.48,0.433,0.928,0.433   c0.256,0,0.555-0.069,0.896-0.209c0.341-0.139,0.778-0.271,1.312-0.399c0.299-0.085,0.448-0.208,0.448-0.368   s-0.063-0.368-0.192-0.624c-0.128-0.256-0.544-0.587-1.247-0.992c-0.704-0.405-1.291-0.842-1.761-1.312   c-0.149-0.149-0.283-0.224-0.399-0.224c-0.118,0-0.305,0.075-0.561,0.224c-0.981,0.598-1.675,0.956-2.08,1.073   s-0.735,0.176-0.992,0.176c-0.256,0-0.384-0.091-0.384-0.272c0-0.181,0.16-0.389,0.48-0.624c0.917-0.725,1.567-1.306,1.952-1.744   c0.384-0.437,0.948-1.275,1.695-2.512c0.747-1.237,1.227-2.154,1.44-2.752c0.213-0.597,0.32-0.992,0.32-1.184   s-0.107-0.288-0.32-0.288c-0.384,0-0.693,0.203-0.928,0.608c-0.406,0.662-0.924,1.408-1.553,2.24s-1.189,1.515-1.68,2.048   c-0.491,0.534-0.795,0.88-0.912,1.04c-0.117,0.16-0.427,0.352-0.928,0.576c-0.502,0.224-0.934,0.336-1.296,0.336   c-0.363,0-0.544-0.075-0.544-0.224c0-0.149,0.106-0.298,0.32-0.448c1.429-1.109,2.512-2.229,3.248-3.36   c0.736-1.13,1.104-1.845,1.104-2.144c0-0.128-0.08-0.192-0.24-0.192s-0.336,0.043-0.528,0.128C11.16,7.513,10.76,7.8,10.152,8.291   C9.544,8.782,8.984,9.305,8.472,9.859c-0.319,0.342-0.683,0.565-1.088,0.672c-0.405,0.107-0.811,0.16-1.216,0.16   c-0.512,0-0.768-0.096-0.768-0.288c0-0.128,0.117-0.277,0.352-0.448c2.432-1.856,4.789-4.661,7.072-8.416   c0.256-0.405,0.464-0.677,0.624-0.816s0.356-0.208,0.592-0.208c0.234,0,0.597,0.139,1.088,0.416c0.49,0.277,0.736,0.56,0.736,0.848   c0,0.288-0.182,0.56-0.544,0.816c-0.363,0.256-0.764,0.704-1.2,1.344c-0.438,0.64-0.656,1.045-0.656,1.216   c0,0.171,0.16,0.224,0.48,0.16c1.94-0.298,3.407-0.448,4.399-0.448s1.749,0.107,2.272,0.32C21.139,5.4,21.533,5.55,21.8,5.635   c0.267,0.086,0.608,0.251,1.024,0.496c0.416,0.246,0.624,0.448,0.624,0.608c0,0.16-0.08,0.331-0.24,0.512   c-0.16,0.182-0.32,0.411-0.48,0.688c-0.159,0.277-0.271,0.501-0.336,0.672c-0.618,1.707-1.168,2.928-1.647,3.664   c-0.48,0.736-0.79,1.275-0.928,1.616c-0.14,0.341-0.363,0.79-0.673,1.344c-0.309,0.555-0.555,0.95-0.735,1.184   c-0.182,0.235-0.272,0.544-0.272,0.929c0,0.383,0.139,0.575,0.416,0.575s0.416,0.063,0.416,0.192c0,0.043-0.016,0.086-0.048,0.128   C18.888,18.286,18.872,18.339,18.872,18.402z M15.96,14.595c0.405,0,0.698-0.085,0.88-0.256c0.182-0.17,0.581-0.794,1.2-1.872   c0.618-1.077,1.066-2.042,1.344-2.896c0.277-0.853,0.416-1.493,0.416-1.92c0-0.426-0.102-0.778-0.304-1.056   c-0.203-0.277-0.48-0.416-0.832-0.416c-0.353,0-0.604,0.203-0.752,0.608c-0.619,1.856-1.493,3.542-2.624,5.056   c-0.256,0.363-0.47,0.758-0.64,1.184c-0.172,0.427-0.257,0.72-0.257,0.88c0,0.16,0.037,0.277,0.112,0.352   c0.074,0.075,0.251,0.15,0.528,0.224C15.309,14.558,15.618,14.595,15.96,14.595z M25.656,16.738c0.469,0,0.805,0.113,1.008,0.337   c0.202,0.224,0.304,0.646,0.304,1.264c0,1.515-0.182,2.272-0.544,2.272c-0.171,0-0.427-0.133-0.768-0.4   c-0.342-0.267-1.014-0.715-2.017-1.344s-1.643-1.014-1.92-1.152s-0.416-0.282-0.416-0.432c0-0.213,0.197-0.357,0.593-0.432   C22.29,16.776,23.544,16.738,25.656,16.738z" stroke-width="1"/>
</g>
</svg>