<svg xmlns="http://www.w3.org/2000/svg" xmlns:xlink="http://www.w3.org/1999/xlink" version="1.1" id="图层_1" x="0px" y="0px" width="25.670000076293945" height="25.194997787475586" viewBox="1.6690013408660889 1.9960005283355713 25.670000076293945 25.194997787475586" enable-background="new 0 0 30 30" xml:space="preserve">
<g>
	<path fill="#0000FF" d="M12.696,9.827c0.426,0,0.709,0.187,0.848,0.56c0.139,0.374,0.208,0.747,0.208,1.12   c0,0.374-0.219,0.624-0.656,0.752c-0.438,0.128-0.827,0.288-1.168,0.48c-0.341,0.192-0.549,0.374-0.624,0.544   s-0.111,0.512-0.111,1.024c0,0.085,0.042,0.176,0.128,0.272c0.085,0.096,0.16,0.144,0.224,0.144c0.064,0,0.117-0.011,0.16-0.032   c0.555-0.277,1.013-0.416,1.376-0.416c0.213,0,0.32,0.059,0.32,0.176s-0.07,0.347-0.208,0.688c-0.14,0.341-0.32,0.587-0.544,0.736   c-0.225,0.149-0.496,0.384-0.816,0.704c-0.32,0.319-0.512,0.56-0.576,0.72c-0.063,0.16-0.096,0.336-0.096,0.528l0.063,1.216   c0.043,0.47,0.064,0.907,0.064,1.313s-0.027,0.735-0.08,0.992c-0.054,0.256-0.08,0.698-0.08,1.327c0,0.63,0.037,1.28,0.112,1.952   c0.074,0.672,0.111,1.04,0.111,1.104c0,0.64-0.202,0.96-0.607,0.96c-0.128,0-0.294-0.06-0.496-0.177   c-0.203-0.117-0.453-0.219-0.752-0.304c-0.598-0.171-1.302-0.576-2.112-1.216s-1.216-1.067-1.216-1.28   c0-0.063,0.037-0.096,0.112-0.096s0.165,0.021,0.272,0.063c0.896,0.32,1.601,0.48,2.112,0.48s0.768-0.245,0.768-0.736l-0.063-4.063   c0-0.171-0.054-0.256-0.16-0.256c-0.107,0-0.235,0.053-0.384,0.16c-0.918,0.703-1.648,1.215-2.192,1.535s-1.264,0.886-2.16,1.696   c-0.256,0.235-0.47,0.353-0.64,0.353c-0.171,0-0.491-0.246-0.96-0.736c-0.47-0.49-0.704-0.832-0.704-1.024s0.037-0.336,0.112-0.432   c0.075-0.097,0.373-0.341,0.896-0.736c0.523-0.395,1.2-0.832,2.032-1.312c0.832-0.48,1.536-0.944,2.112-1.393   c0.577-0.447,1.061-0.795,1.457-1.039c0.395-0.246,0.592-0.539,0.592-0.881l0.032-0.96c0-0.149-0.155-0.272-0.465-0.368   c-0.309-0.096-0.624-0.144-0.943-0.144c-0.576,0-1.104,0.16-1.584,0.48c-0.48,0.32-0.827,0.48-1.04,0.48   c-0.214,0-0.342-0.096-0.384-0.288c-0.192-0.683-0.368-1.194-0.528-1.536c-0.16-0.341-0.24-0.576-0.24-0.704   c0-0.341,0.352-0.538,1.056-0.592c0.704-0.053,1.499-0.197,2.384-0.432C8.541,11,9.085,10.809,9.288,10.659   c0.202-0.149,0.304-0.309,0.304-0.48l0.256-2.944c0.128-1.493,0.234-2.539,0.32-3.136c0.085-0.597,0.176-0.917,0.272-0.96   c0.096-0.042,0.218-0.064,0.367-0.064c0.896,0,1.345,0.171,1.345,0.512c0,0.128-0.043,0.277-0.128,0.448   c-0.192,0.469-0.288,1.035-0.288,1.696c0,0.427-0.038,0.779-0.112,1.056c-0.075,0.277-0.112,0.805-0.112,1.584   s0.032,1.237,0.097,1.376c0.063,0.139,0.218,0.187,0.464,0.144C12.317,9.849,12.525,9.827,12.696,9.827z M25.784,21.827   c0.213,0,0.378,0.192,0.496,0.575c0.117,0.385,0.239,0.727,0.368,1.024c0.128,0.299,0.191,0.576,0.191,0.832   s-0.149,0.384-0.448,0.384c-0.171,0-0.367-0.048-0.592-0.144c-0.224-0.096-0.837-0.192-1.84-0.288s-1.803-0.144-2.4-0.144   c-0.597,0-0.96,0.021-1.088,0.063c-0.575,0.106-1.291,0.16-2.144,0.16c-0.854,0-1.675,0.08-2.464,0.24   c-0.79,0.16-1.382,0.325-1.776,0.496c-0.395,0.17-0.688,0.256-0.88,0.256s-0.384-0.197-0.576-0.592   c-0.191-0.396-0.288-0.667-0.288-0.816c0-0.299,0.277-0.48,0.832-0.544c0.938-0.106,1.696-0.256,2.272-0.448   c0.597-0.148,1.088-0.261,1.472-0.336c0.384-0.074,0.608-0.271,0.672-0.592c0.021-0.064,0.064-0.219,0.128-0.464   c0.064-0.245,0.097-0.475,0.097-0.688c0-0.213-0.128-0.32-0.385-0.32c-0.256,0-0.704,0.021-1.344,0.064s-1.014,0.092-1.12,0.145   s-0.224,0.08-0.352,0.08s-0.251-0.149-0.368-0.448s-0.176-0.581-0.176-0.849c0-0.266,0.224-0.42,0.672-0.463s1.056-0.177,1.824-0.4   c0.768-0.225,1.199-0.389,1.296-0.496c0.096-0.107,0.144-0.32,0.144-0.641s-0.026-0.56-0.08-0.72   c-0.054-0.159-0.165-0.239-0.336-0.239c-0.405,0-1.515,0.191-3.328,0.575c-0.106,0.021-0.251,0.032-0.432,0.032   c-0.182,0-0.32-0.117-0.416-0.352s-0.144-0.427-0.144-0.576c0-0.32,0.138-0.49,0.416-0.512c0.703-0.107,1.424-0.326,2.159-0.657   c0.736-0.331,1.302-0.565,1.696-0.704s0.592-0.528,0.592-1.168c0-0.277-0.139-0.416-0.416-0.416l-1.536,0.16   c-0.299,0-0.501-0.277-0.607-0.832c-0.107-0.554-0.16-0.944-0.16-1.168s0.037-0.395,0.112-0.512   c0.074-0.117,0.176-0.197,0.304-0.24c0.128-0.042,0.496-0.09,1.104-0.144c0.608-0.053,0.992-0.128,1.152-0.224   c0.16-0.096,0.251-0.282,0.272-0.56c0.106-1.323,0.224-2.373,0.352-3.152c0.128-0.778,0.202-1.493,0.224-2.144   c0.021-0.65,0.075-1.05,0.16-1.2c0.085-0.149,0.245-0.224,0.48-0.224c0.234,0,0.57,0.069,1.008,0.208   c0.438,0.139,0.656,0.336,0.656,0.592c0,0.085-0.012,0.171-0.032,0.256c-0.128,0.427-0.192,0.864-0.192,1.312   c0,0.448-0.074,1.04-0.224,1.776s-0.224,1.403-0.224,2c0,0.277,0.026,0.459,0.08,0.544c0.053,0.085,0.239,0.096,0.56,0.032   c0.32-0.064,0.688-0.096,1.104-0.096c0.416,0,0.661,0.166,0.736,0.496c0.074,0.331,0.112,0.587,0.112,0.768   s-0.054,0.331-0.16,0.448c-0.107,0.118-0.357,0.288-0.752,0.512c-0.396,0.224-0.88,0.453-1.456,0.688   c-0.277,0.107-0.416,0.341-0.416,0.704c0,0.683,0.139,1.003,0.416,0.96l1.632-0.16c0.96-0.064,1.563-0.096,1.809-0.096   c0.244,0,0.458,0.043,0.64,0.128c0.181,0.086,0.352,0.358,0.512,0.816c0.16,0.459,0.24,0.805,0.24,1.04   c0,0.235-0.155,0.353-0.464,0.353c-0.31,0-0.598-0.027-0.864-0.08s-0.56-0.08-0.88-0.08s-0.811,0.043-1.472,0.128   c-0.662,0.085-1.052,0.176-1.168,0.272c-0.118,0.096-0.214,0.277-0.288,0.543c-0.075,0.268-0.112,0.486-0.112,0.656   c0,0.299,0.192,0.448,0.576,0.448l1.92-0.063c0.213,0,0.373,0.031,0.479,0.096c0.107,0.064,0.208,0.229,0.305,0.496   c0.096,0.267,0.144,0.485,0.144,0.656c0,0.319-0.363,0.607-1.088,0.863c-0.726,0.256-1.376,0.438-1.952,0.544   c-0.362,0.064-0.544,0.257-0.544,0.576c0,0.576,0.053,0.917,0.16,1.024c0.106,0.106,0.224,0.148,0.352,0.127   c1.771-0.17,2.881-0.234,3.328-0.191c0.448,0.043,0.769,0.064,0.96,0.064L25.784,21.827z" stroke-width="1"/>
</g>
</svg>