<svg xmlns="http://www.w3.org/2000/svg" xmlns:xlink="http://www.w3.org/1999/xlink" version="1.1" id="图层_1" x="0px" y="0px" width="22.887996673583984" height="22.375" viewBox="2.4990017414093018 4.703000068664551 22.887996673583984 22.375" enable-background="new 0 0 30 30" xml:space="preserve">
<g>
	<path fill="#0000FF" d="M16.023,9.971c0,0.149-0.112,0.347-0.337,0.592c-0.224,0.246-0.57,0.8-1.039,1.664   c-0.47,0.864-1.137,1.888-2,3.072c-0.864,1.184-1.574,2.028-2.129,2.528c-0.555,0.502-1.051,1.094-1.487,1.776   c-0.438,0.683-0.795,1.12-1.072,1.312c-0.277,0.192-0.619,0.576-1.024,1.152c-0.406,0.576-0.651,0.96-0.736,1.152   c-0.278,0.832-0.982,1.248-2.112,1.248c-0.726,0-1.088-0.15-1.088-0.448c0-0.192,0.106-0.353,0.32-0.479   c0.747-0.491,1.435-1.195,2.064-2.112s1.232-1.712,1.809-2.384c0.575-0.672,1.098-1.365,1.567-2.08   c0.469-0.715,1.168-1.686,2.097-2.913c0.928-1.226,1.903-2.693,2.928-4.4c0.256-0.384,0.501-0.576,0.735-0.576   c0.235,0,0.545,0.091,0.929,0.272S16.023,9.736,16.023,9.971z M24.887,13.139c0,0.107-0.085,0.31-0.256,0.608   c-0.171,0.299-0.587,1.328-1.248,3.087c-0.661,1.761-1.445,3.468-2.352,5.121c-0.907,1.652-1.702,2.811-2.384,3.472   c-0.32,0.319-0.518,0.592-0.593,0.815c-0.074,0.225-0.176,0.336-0.304,0.336c-0.214,0-0.955-0.373-2.224-1.119   c-1.27-0.748-2.214-1.521-2.832-2.32c-0.619-0.801-0.929-1.274-0.929-1.424s0.049-0.225,0.145-0.225s0.219,0.043,0.368,0.129   c0.874,0.555,1.647,0.949,2.319,1.184s1.163,0.352,1.473,0.352c0.309,0,0.612-0.164,0.912-0.496c0.298-0.33,0.794-1.023,1.487-2.08   c0.693-1.056,1.259-2.111,1.696-3.168c0.437-1.056,0.656-1.957,0.656-2.704c0-0.747-0.283-1.371-0.849-1.872   c-0.565-0.501-1.146-0.752-1.743-0.752l-0.769,0.064c-0.235,0-0.352-0.075-0.352-0.224c0-0.149,0.187-0.426,0.56-0.832   c0.373-0.405,0.677-0.88,0.912-1.424c0.234-0.544,0.352-1.168,0.352-1.872s-0.399-1.056-1.199-1.056   c-0.801,0-1.616,0.134-2.448,0.4c-0.832,0.267-2.192,0.811-4.08,1.632c-1.888,0.821-2.923,1.307-3.104,1.456   c-0.181,0.149-0.304,0.224-0.367,0.224c-0.235,0-0.491-0.314-0.769-0.944C6.689,8.877,6.551,8.381,6.551,8.019   c0-0.213,0.192-0.341,0.576-0.384c0.597-0.064,2.501-0.485,5.712-1.264s5.765-1.168,7.664-1.168c0.789,0,1.515,0.085,2.176,0.256   c0.661,0.171,0.992,0.406,0.992,0.704c0,0.171-0.096,0.341-0.288,0.512c-1.023,0.896-1.861,1.739-2.512,2.528   c-0.651,0.79-0.977,1.28-0.977,1.472c0,0.192,0.086,0.31,0.257,0.352c1.344,0.363,2.421,0.742,3.231,1.136   c0.811,0.395,1.265,0.635,1.36,0.72C24.839,12.968,24.887,13.054,24.887,13.139z" stroke-width="1"/>
</g>
</svg>