<svg xmlns="http://www.w3.org/2000/svg" xmlns:xlink="http://www.w3.org/1999/xlink" version="1.1" id="图层_1" x="0px" y="0px" width="28.167999267578125" height="25.833999633789062" viewBox="2.0349974632263184 2.1689999103546143 28.167999267578125 25.833999633789062" style="enable-background:new 0 0 30 30;" xml:space="preserve">
  <g>
    <g>
      <path style="fill:#0000FF;" d="M12.23,17.9c-0.043,0.021-0.107,0.032-0.192,0.032c-0.086,0-0.214-0.116-0.384-0.353&#13;&#10;&#9;&#9;c-0.171-0.234-0.416-0.49-0.736-0.768c-0.726-0.66-1.365-1.477-1.92-2.448c-0.555-0.971-0.832-1.808-0.832-2.512&#13;&#10;&#9;&#9;c0-0.704,0.224-1.21,0.672-1.52c0.448-0.309,1.963-0.816,4.544-1.52c0.192-0.064,0.32-0.133,0.384-0.208&#13;&#10;&#9;&#9;c0.064-0.074,0.097-0.261,0.097-0.56s-0.048-0.475-0.145-0.528c-0.096-0.053-0.362-0.08-0.8-0.08s-0.795,0.032-1.072,0.096&#13;&#10;&#9;&#9;s-0.522,0.203-0.735,0.416c-0.086,0.085-0.214,0.128-0.385,0.128s-0.319-0.16-0.447-0.48s-0.406-0.853-0.832-1.6&#13;&#10;&#9;&#9;C9.297,5.741,9.222,5.512,9.222,5.309c0-0.203,0.267-0.346,0.801-0.432c1.514-0.213,2.575-0.389,3.184-0.528&#13;&#10;&#9;&#9;c0.608-0.139,1.296-0.347,2.064-0.624c0.768-0.277,1.647-0.522,2.64-0.736c0.992-0.213,1.658-0.32,2-0.32&#13;&#10;&#9;&#9;c0.64,0,0.96,0.47,0.96,1.408c0,0.277-0.086,0.512-0.256,0.704c-0.171,0.192-0.565,0.454-1.185,0.784&#13;&#10;&#9;&#9;c-0.619,0.331-1.344,0.646-2.176,0.944c-0.32,0.107-0.479,0.368-0.479,0.784s0.085,0.624,0.256,0.624l1.056-0.032&#13;&#10;&#9;&#9;c1.493,0,2.837,0.277,4.032,0.832c1.194,0.555,1.792,1.013,1.792,1.376c0,0.149-0.117,0.341-0.353,0.576&#13;&#10;&#9;&#9;c-0.149,0.214-0.256,0.427-0.319,0.64c-0.235,0.811-0.55,1.6-0.944,2.368s-0.672,1.381-0.832,1.84&#13;&#10;&#9;&#9;c-0.16,0.459-0.422,0.923-0.784,1.392l-0.8,1.024c-0.171,0.214-0.336,0.32-0.496,0.32s-0.399-0.064-0.72-0.192&#13;&#10;&#9;&#9;s-0.604-0.304-0.848-0.527c-0.246-0.225-0.465-0.363-0.656-0.416c-0.192-0.054-0.556-0.08-1.088-0.08&#13;&#10;&#9;&#9;c-0.256,0-0.459,0.17-0.608,0.512c-0.235,0.64-0.416,1.104-0.544,1.393c-0.128,0.287-0.192,0.484-0.192,0.592&#13;&#10;&#9;&#9;c0,0.106,0.097,0.203,0.288,0.287c1.473,0.662,2.779,1.334,3.92,2.017c1.142,0.683,2.257,1.243,3.345,1.68&#13;&#10;&#9;&#9;c1.088,0.438,2.042,0.736,2.863,0.896c0.821,0.16,1.787,0.539,2.896,1.137c1.109,0.597,1.664,1.002,1.664,1.216&#13;&#10;&#9;&#9;c0,0.213-0.31,0.39-0.928,0.528c-0.619,0.139-1.44,0.207-2.465,0.207c-1.023,0-2.314-0.106-3.871-0.319&#13;&#10;&#9;&#9;c-1.558-0.214-2.438-0.39-2.641-0.528s-0.379-0.518-0.527-1.136c-0.556-2.154-1.804-3.231-3.744-3.231l-1.057,0.031&#13;&#10;&#9;&#9;c-0.256,0-0.485-0.021-0.688-0.063c-0.203-0.043-0.379-0.064-0.528-0.064s-0.331,0.123-0.544,0.368&#13;&#10;&#9;&#9;c-0.214,0.246-0.518,0.533-0.912,0.864s-0.73,0.571-1.008,0.72c-0.64,0.32-1.195,0.854-1.664,1.6&#13;&#10;&#9;&#9;c-0.128,0.213-0.288,0.342-0.479,0.385c-0.192,0.042-0.588,0.063-1.185,0.063c-0.598,0-1.077-0.091-1.439-0.272&#13;&#10;&#9;&#9;c-0.363-0.181-0.726-0.293-1.088-0.336c-0.726-0.106-1.307-0.469-1.744-1.088c-0.438-0.618-0.656-0.986-0.656-1.104&#13;&#10;&#9;&#9;s0.069-0.176,0.208-0.176c0.138,0,0.656,0.128,1.552,0.384s1.776,0.384,2.64,0.384c0.864,0,1.867-0.314,3.009-0.943&#13;&#10;&#9;&#9;c1.141-0.629,1.712-1.1,1.712-1.408s-0.485-0.666-1.456-1.072c-0.972-0.404-1.691-0.641-2.16-0.704&#13;&#10;&#9;&#9;c-0.47-0.063-0.763-0.458-0.88-1.185c-0.118-0.725-0.176-1.193-0.176-1.407c0-0.213,0.085-0.479,0.256-0.8&#13;&#10;&#9;&#9;c0.17-0.32,0.373-0.48,0.607-0.48s0.438,0.188,0.608,0.561s0.479,0.725,0.928,1.056s0.934,0.556,1.456,0.672&#13;&#10;&#9;&#9;c0.522,0.118,1.062,0.283,1.616,0.496c0.128,0.043,0.256,0.063,0.384,0.063s0.251-0.148,0.368-0.447s0.176-0.507,0.176-0.624&#13;&#10;&#9;&#9;s-0.063-0.177-0.191-0.177s-0.294,0.027-0.496,0.08C12.491,17.715,12.337,17.795,12.23,17.9z M14.022,10.957&#13;&#10;&#9;&#9;c0-0.32-0.086-0.48-0.257-0.48s-0.613,0.182-1.327,0.544c-0.716,0.363-1.163,0.635-1.345,0.816s-0.271,0.475-0.271,0.88&#13;&#10;&#9;&#9;c0,1.216,0.122,1.984,0.368,2.304c0.244,0.32,0.612,0.47,1.104,0.448c0.171,0,0.309-0.011,0.416-0.032&#13;&#10;&#9;&#9;c0.106-0.021,0.277-0.058,0.512-0.112c0.234-0.053,0.405-0.139,0.513-0.256c0.106-0.117,0.159-0.309,0.159-0.576&#13;&#10;&#9;&#9;c0-0.267-0.101-0.4-0.304-0.4s-0.384,0.038-0.544,0.112c-0.16,0.075-0.314,0.112-0.464,0.112s-0.32-0.181-0.512-0.544&#13;&#10;&#9;&#9;c-0.192-0.362-0.288-0.672-0.288-0.928c0-0.384,0.128-0.586,0.384-0.608c0.106-0.021,0.395-0.139,0.864-0.352&#13;&#10;&#9;&#9;c0.469-0.213,0.752-0.373,0.848-0.48C13.974,11.298,14.022,11.149,14.022,10.957z M19.814,11.885c0-0.789-0.272-1.402-0.816-1.84&#13;&#10;&#9;&#9;c-0.544-0.437-1.035-0.656-1.472-0.656c-0.438,0-0.699,0.054-0.784,0.16c-0.086,0.107-0.128,0.315-0.128,0.624&#13;&#10;&#9;&#9;c0,0.31,0.139,0.464,0.416,0.464c0.404,0,0.672,0.075,0.8,0.224c0.128,0.149,0.192,0.411,0.192,0.784&#13;&#10;&#9;&#9;c0,0.374-0.092,0.688-0.272,0.944c-0.182,0.256-0.443,0.485-0.784,0.688s-0.539,0.357-0.592,0.464&#13;&#10;&#9;&#9;c-0.054,0.107-0.08,0.283-0.08,0.528c0,0.246,0.16,0.379,0.48,0.4c0.426,0.022,0.714,0.182,0.863,0.48s0.262,0.485,0.336,0.56&#13;&#10;&#9;&#9;c0.075,0.075,0.192,0.112,0.353,0.112s0.293-0.091,0.399-0.272c0.107-0.181,0.314-0.688,0.624-1.52S19.814,12.482,19.814,11.885z" stroke-width="1"/>
    </g>
    <g/>
    <g/>
    <g/>
    <g/>
    <g/>
    <g/>
    <g/>
    <g/>
    <g/>
    <g/>
    <g/>
    <g/>
    <g/>
    <g/>
    <g/>
  </g>
</svg>