<svg xmlns="http://www.w3.org/2000/svg" xmlns:xlink="http://www.w3.org/1999/xlink" version="1.1" id="图层_1" x="0px" y="0px" width="30.31300163269043" height="19.94300079345703" viewBox="0.09799683094024658 4.159997463226318 30.31300163269043 19.94300079345703" enable-background="new 0 0 30 30" xml:space="preserve">
<g>
	<path fill="#0000FF" d="M29.911,22.994c0,0.107-0.069,0.188-0.208,0.24c-0.139,0.054-0.604,0.128-1.393,0.225   c-0.789,0.096-1.567,0.144-2.336,0.144c-0.768,0-1.728-0.128-2.88-0.384c-1.151-0.256-1.818-0.438-2-0.545   c-0.182-0.105-0.293-0.34-0.336-0.703c-0.128-1.066-0.491-2.037-1.088-2.912c-0.598-0.875-1.387-1.557-2.368-2.048   s-1.855-0.981-2.624-1.472c-0.768-0.491-1.643-0.923-2.624-1.296c-0.981-0.373-1.579-0.56-1.792-0.56c-0.533,0-1.066,0.267-1.6,0.8   c-3.286,3.648-5.125,5.659-5.52,6.032c-0.395,0.374-0.742,0.56-1.04,0.56c-0.299,0-0.624-0.084-0.976-0.256   c-0.352-0.17-0.528-0.32-0.528-0.447c0-0.129,0.096-0.277,0.288-0.449c0.533-0.447,1.248-1.402,2.144-2.863   s2.075-3.136,3.536-5.024c1.461-1.888,2.747-3.408,3.856-4.56s1.797-1.909,2.064-2.272c0.267-0.363,0.501-0.544,0.704-0.544   c0.202,0,0.564,0.235,1.088,0.704c0.522,0.47,0.965,0.822,1.328,1.056c0.362,0.235,0.544,0.448,0.544,0.64S16.002,7.4,15.703,7.506   c-0.299,0.107-0.854,0.512-1.664,1.216c-0.812,0.704-1.216,1.173-1.216,1.408c0,0.235,0.106,0.427,0.319,0.576   c1.813,1.323,3.146,2.475,4,3.456c0.854,0.981,2.017,2.042,3.488,3.184s2.635,1.894,3.488,2.256   c2.624,1.131,4.245,1.931,4.864,2.399C29.602,22.473,29.911,22.803,29.911,22.994z" stroke-width="1"/>
</g>
</svg>