<svg xmlns="http://www.w3.org/2000/svg" xmlns:xlink="http://www.w3.org/1999/xlink" version="1.1" id="图层_1" x="0px" y="0px" width="28.806001663208008" height="23.465002059936523" viewBox="0.6769988536834717 3.997999668121338 28.806001663208008 23.465002059936523" enable-background="new 0 0 30 30" xml:space="preserve">
<g>
	<path fill="#0000FF" d="M11.351,7.891c0,0.235-0.091,0.454-0.271,0.656c-0.182,0.203-0.272,0.742-0.272,1.616   c0,0.469-0.026,1.221-0.08,2.256c-0.053,1.035-0.101,1.744-0.144,2.128c-0.043,0.384-0.064,1.526-0.064,3.424   s0.011,3.157,0.032,3.775l0.032,0.864c0,1.089-0.197,1.632-0.592,1.632c-0.396,0-0.992-0.341-1.792-1.023s-1.2-1.066-1.2-1.152   c0-0.085,0.187-0.133,0.56-0.145c0.373-0.01,0.63-0.09,0.769-0.239s0.208-0.513,0.208-1.088c0-1.302-0.096-1.952-0.288-1.952   c-0.107,0-0.736,0.619-1.888,1.855c-1.152,1.238-1.936,2.033-2.352,2.385s-0.672,0.693-0.768,1.023   c-0.096,0.33-0.251,0.496-0.464,0.496c-0.128,0-0.427-0.224-0.896-0.672c-0.469-0.447-0.704-0.725-0.704-0.832   c0-0.106,0.096-0.245,0.288-0.416c1.408-1.258,2.16-1.968,2.256-2.128c0.096-0.16,0.133-0.464,0.112-0.912   c-0.235-2.923-0.352-5.402-0.352-7.44c0-2.037,0.064-3.221,0.192-3.552C3.799,8.12,3.927,7.944,4.055,7.922   c0.32-0.042,0.667-0.176,1.04-0.4c0.373-0.224,0.992-0.437,1.856-0.64C7.815,6.68,8.396,6.579,8.695,6.579   c0.447,0,1.002,0.117,1.664,0.352C11.02,7.166,11.351,7.485,11.351,7.891z M5.815,18.387c0.085,0,0.314-0.154,0.688-0.465   c0.373-0.309,0.778-0.602,1.216-0.879s0.688-0.485,0.752-0.625c0.064-0.139,0.106-0.896,0.128-2.271s0.032-2.085,0.032-2.128   c0-0.427-0.027-0.981-0.08-1.664C8.497,9.672,8.407,9.149,8.279,8.787S7.953,8.243,7.687,8.243S7.063,8.366,6.615,8.61   C6.167,8.856,5.857,9.17,5.687,9.555c-0.171,0.384-0.256,0.672-0.256,0.864s0.101,0.288,0.304,0.288s0.411-0.037,0.624-0.112   c0.213-0.075,0.4-0.112,0.56-0.112s0.282,0.134,0.368,0.4c0.085,0.267,0.128,0.491,0.128,0.672s-0.145,0.374-0.432,0.576   c-0.288,0.203-0.629,0.55-1.024,1.04c-0.395,0.491-0.592,0.854-0.592,1.088c0,0.235,0.053,0.352,0.16,0.352   c0.106,0,0.32-0.085,0.64-0.256c0.32-0.17,0.565-0.256,0.736-0.256s0.315,0.112,0.432,0.336s0.176,0.459,0.176,0.704   s-0.171,0.475-0.512,0.688c-0.341,0.214-0.656,0.512-0.944,0.896c-0.288,0.384-0.432,0.758-0.432,1.119   C5.623,18.205,5.687,18.387,5.815,18.387z M28.983,22.738c0,1.813-0.049,2.971-0.145,3.473c-0.096,0.5-0.368,0.752-0.815,0.752   c-0.448,0-1.195-0.272-2.24-0.816c-1.046-0.544-2.118-1.344-3.216-2.4c-1.1-1.056-2.064-2.213-2.896-3.472   c-0.085-0.128-0.182-0.192-0.288-0.192s-0.234,0.129-0.384,0.385c-0.789,1.365-1.43,2.256-1.92,2.672   c-0.491,0.416-0.812,0.72-0.96,0.912c-0.149,0.191-0.502,0.447-1.056,0.768c-0.556,0.32-0.939,0.48-1.152,0.48   c-0.214,0-0.39-0.054-0.528-0.16c-0.139-0.107-0.336-0.512-0.592-1.217c-0.256-0.703-0.453-1.514-0.592-2.432   c-0.14-0.916-0.176-1.685-0.112-2.304l0.224-4.192c0.085-2.197,0.134-3.536,0.145-4.016s0.053-0.853,0.128-1.12   c0.074-0.267,0.16-0.485,0.256-0.656c0.096-0.17,0.208-0.256,0.336-0.256S13.5,8.995,13.767,9.09   c0.267,0.096,0.453,0.192,0.561,0.288c0.106,0.096,0.25,0.144,0.432,0.144s0.379-0.053,0.592-0.16   c0.491-0.256,1.003-0.437,1.536-0.544c0.533-0.106,0.977-0.373,1.328-0.8c0.353-0.427,0.528-0.757,0.528-0.992   c0-0.234-0.086-0.416-0.256-0.544c-0.171-0.128-0.396-0.192-0.672-0.192c-0.684,0-1.846,0.48-3.488,1.44   c-0.214,0.128-0.4,0.192-0.561,0.192c-0.159,0-0.319-0.208-0.479-0.624s-0.24-0.73-0.24-0.944c0-0.213,0.149-0.331,0.448-0.352   c0.299-0.021,1.157-0.277,2.576-0.768c1.418-0.49,2.629-0.736,3.632-0.736c0.405,0,0.88,0.144,1.424,0.432s0.923,0.501,1.136,0.64   c0.213,0.139,0.32,0.331,0.32,0.576c0,0.246-0.128,0.475-0.384,0.688c-1.067,0.96-1.601,1.718-1.601,2.272l0.032,0.48   c0,0.235-0.096,0.406-0.288,0.512c-0.191,0.107-0.544,0.219-1.056,0.336c-0.512,0.118-0.769,0.293-0.769,0.528   c0,0.021,0.037,0.304,0.112,0.848c0.074,0.544,0.139,0.859,0.192,0.944c0.053,0.085,0.128,0.128,0.224,0.128   s0.197-0.021,0.304-0.064c0.619-0.213,1.067-0.32,1.345-0.32c0.554,0,0.938-0.064,1.151-0.192c0.171-0.085,0.342-0.128,0.513-0.128   c0.319,0,0.634,0.293,0.943,0.88c0.31,0.587,0.464,0.987,0.464,1.2c0,0.214-0.059,0.352-0.176,0.416s-0.384,0.096-0.8,0.096   s-0.997,0.075-1.744,0.224c-0.747,0.149-1.179,0.256-1.296,0.32s-0.176,0.16-0.176,0.288c0,0.277,0.378,1.189,1.136,2.735   c0.757,1.548,1.744,2.828,2.96,3.841s2.123,1.521,2.72,1.521c0.342,0,0.593-0.214,0.752-0.641c0.16-0.427,0.267-0.997,0.32-1.712   c0.053-0.715,0.08-1.425,0.08-2.128l-0.032-1.473c0-0.298,0.091-0.447,0.272-0.447c0.181,0,0.427,0.496,0.735,1.488   C28.828,19.778,28.983,21.096,28.983,22.738z M18.487,18.482c0-0.17-0.054-0.373-0.16-0.607c-0.107-0.234-0.288-0.715-0.544-1.44   c-0.086-0.234-0.246-0.353-0.48-0.353c-0.106,0-0.395,0.07-0.863,0.209c-0.47,0.139-0.972,0.256-1.505,0.352   s-0.843,0.182-0.928,0.256c-0.085,0.075-0.139,0.155-0.16,0.24c-0.021,0.086-0.063,0.533-0.128,1.344l-0.191,1.952   c-0.064,0.47-0.097,0.747-0.097,0.832c0,0.79,0.277,1.185,0.832,1.185c0.299,0,0.747-0.182,1.345-0.545   c0.597-0.362,1.226-0.943,1.888-1.744C18.156,19.362,18.487,18.803,18.487,18.482z M16.759,13.267c0-0.106-0.043-0.304-0.128-0.592   c-0.085-0.288-0.149-0.554-0.191-0.8c-0.044-0.245-0.177-0.368-0.4-0.368s-0.544,0.08-0.96,0.24s-0.678,0.438-0.784,0.832   c-0.106,0.395-0.16,0.677-0.16,0.848c0,0.384,0.165,0.576,0.496,0.576s0.736-0.048,1.216-0.144c0.48-0.096,0.752-0.187,0.816-0.272   C16.727,13.501,16.759,13.395,16.759,13.267z" stroke-width="1"/>
</g>
</svg>