<svg xmlns="http://www.w3.org/2000/svg" xmlns:xlink="http://www.w3.org/1999/xlink" version="1.1" id="图层_1" x="0px" y="0px" width="25.92799949645996" height="29.320003509521484" viewBox="2.9469997882843018 -0.6730001866817474 25.92799949645996 29.320003509521484" enable-background="new 0 0 30 30" xml:space="preserve">
<g>
	<path fill="#0000FF" d="M6.071,11.411c0,0.405,0.064,0.763,0.192,1.072c0.128,0.31,0.192,0.539,0.192,0.688   c0,0.406-0.374,0.608-1.12,0.608c-0.149,0-0.341-0.032-0.576-0.096l-0.832-0.224c-0.32-0.106-0.48-0.272-0.48-0.496   s0.155-0.576,0.464-1.056c0.309-0.48,0.677-0.891,1.104-1.232c0.426-0.341,0.72-0.512,0.88-0.512s0.24,0.085,0.24,0.256   c0,0.171-0.011,0.336-0.032,0.496C6.082,11.075,6.071,11.24,6.071,11.411z M28.375,23.795c0,0.426-1.024,0.64-3.072,0.64   c-0.747,0-1.552-0.043-2.416-0.128c-0.863-0.086-1.461-0.219-1.792-0.4c-0.331-0.181-0.539-0.506-0.624-0.976   s-0.357-0.976-0.815-1.521c-0.459-0.543-0.912-0.912-1.36-1.104s-0.96-0.48-1.536-0.864c-0.598-0.405-1.035-0.608-1.312-0.608   c-0.277,0-0.39,0.172-0.336,0.513c0.053,0.341,0.08,0.769,0.08,1.28s-0.118,1.455-0.353,2.832   c-0.235,1.375-0.496,2.453-0.784,3.231s-0.469,1.216-0.544,1.312s-0.176,0.145-0.304,0.145s-0.283-0.049-0.464-0.145   c-0.182-0.096-0.4-0.176-0.656-0.24c-1.109-0.256-2.262-0.971-3.456-2.143c-0.191-0.172-0.363-0.257-0.512-0.257   c-0.149,0-0.411,0.042-0.784,0.128c-0.374,0.086-0.955,0.129-1.744,0.129c-0.64,0-0.96-0.076-0.96-0.225   c0-0.191,0.288-0.453,0.864-0.784c0.576-0.331,1.093-0.698,1.552-1.104c0.459-0.404,1.12-0.97,1.984-1.695   c0.863-0.725,1.429-1.221,1.695-1.488c0.267-0.266,0.533-0.597,0.801-0.992c0.267-0.395,0.432-0.666,0.496-0.815   c0.063-0.149,0.096-0.277,0.096-0.384c0-0.107-0.032-0.16-0.096-0.16c-0.15,0-0.496,0.197-1.04,0.592s-1.126,0.789-1.744,1.184   c-0.619,0.396-1.078,0.87-1.376,1.424c-0.214,0.363-0.55,0.619-1.008,0.769c-0.459,0.149-0.901,0.224-1.328,0.224   c-0.683,0-1.024-0.105-1.024-0.32c0-0.213,0.181-0.404,0.544-0.575c0.917-0.405,1.568-0.8,1.952-1.185   c0.384-0.383,0.938-0.842,1.664-1.375c0.213-0.192,0.597-0.592,1.152-1.201c0.554-0.607,0.832-1.05,0.832-1.327   c0-0.341-0.097-0.513-0.288-0.513c-0.128,0-0.379,0.192-0.752,0.576c-0.374,0.385-0.604,0.656-0.688,0.816   c-0.086,0.16-0.203,0.283-0.352,0.368c-0.149,0.085-0.39,0.165-0.721,0.239c-0.331,0.076-0.607,0.176-0.832,0.305   c-0.224,0.128-0.507,0.191-0.848,0.191c-0.341,0-0.512-0.074-0.512-0.224s0.597-0.683,1.792-1.601   c0.832-0.617,1.386-1.172,1.664-1.664c0.276-0.49,0.416-0.821,0.416-0.992c0-0.128-0.123-0.347-0.368-0.656   c-0.246-0.309-0.368-0.586-0.368-0.832c0-0.245,0.149-0.368,0.448-0.368c0.298,0,0.725-0.117,1.279-0.352   c1.729-0.789,3.04-1.349,3.937-1.68c0.896-0.331,1.52-0.496,1.872-0.496c0.352,0,0.576,0.016,0.672,0.048   c0.096,0.032,0.144,0.112,0.144,0.24s-0.043,0.352-0.128,0.672c-0.085,0.32-0.256,0.534-0.512,0.64   c-0.576,0.235-1.046,0.544-1.408,0.928c-0.362,0.384-0.917,0.768-1.664,1.152c-0.405,0.235-0.65,0.454-0.735,0.656   c-0.086,0.203-0.128,0.416-0.128,0.64s0.021,0.384,0.063,0.48c0.043,0.096,0.225,0.363,0.544,0.8   c0.32,0.438,0.539,0.752,0.656,0.943c0.117,0.192,0.224,0.289,0.32,0.289c0.096,0,0.288-0.107,0.575-0.32   c0.288-0.213,0.576-0.49,0.864-0.832c0.288-0.341,0.667-0.757,1.136-1.248c0.47-0.491,0.832-0.917,1.089-1.28   c0.213-0.298,0.426-0.448,0.64-0.448c0.213,0,0.581,0.149,1.104,0.448c0.522,0.299,0.784,0.518,0.784,0.656   s-0.117,0.251-0.352,0.336c-0.235,0.085-0.496,0.272-0.784,0.56c-0.288,0.288-0.619,0.565-0.992,0.832   c-0.373,0.267-0.678,0.528-0.912,0.784c-0.234,0.257-0.352,0.479-0.352,0.672s0.148,0.427,0.448,0.704   c0.725,0.641,1.296,1.195,1.712,1.664c0.416,0.47,1.093,0.955,2.031,1.456s1.776,0.864,2.513,1.088   c0.735,0.224,1.658,0.534,2.768,0.929s1.712,0.64,1.809,0.735C28.327,23.619,28.375,23.709,28.375,23.795z M17.815,5.203   c1.216,0,2.271,0.283,3.168,0.848c0.896,0.566,1.626,1.323,2.191,2.272s0.849,1.52,0.849,1.712c0,0.192-0.07,0.325-0.208,0.4   c-0.14,0.075-0.561,0.166-1.265,0.272c-0.704,0.107-1.259,0.16-1.664,0.16s-0.891-0.032-1.456-0.096s-0.848-0.16-0.848-0.288   c0-0.085,0.219-0.197,0.656-0.336c0.437-0.139,0.832-0.4,1.184-0.784c0.353-0.384,0.528-0.8,0.528-1.248   c0-1.216-0.736-1.824-2.208-1.824c-1.152,0-2.411,0.374-3.776,1.12c-1.151,0.619-2.102,0.998-2.848,1.136   c-0.747,0.139-1.445,0.299-2.096,0.48C9.372,9.208,8.908,9.352,8.631,9.458c-0.277,0.107-0.496,0.16-0.656,0.16   c-0.159,0-0.331-0.059-0.512-0.176C7.281,9.326,7.191,9.17,7.191,8.979s0.165-0.384,0.495-0.576c0.331-0.192,0.838-0.4,1.521-0.624   c0.683-0.224,1.184-0.4,1.504-0.528C13.719,5.886,16.087,5.203,17.815,5.203z M13.303,21.971c0-0.96-0.111-1.439-0.336-1.439   c-0.224,0-0.555,0.159-0.992,0.479c-0.438,0.319-1.034,0.811-1.792,1.472c-0.757,0.662-1.205,1.163-1.344,1.504   C8.7,24.328,8.631,24.563,8.631,24.69c0,0.427,0.821,0.64,2.464,0.64c0.875,0,1.461-0.357,1.761-1.072   C13.153,23.544,13.303,22.781,13.303,21.971z M15.927,2.771c0,0.534-0.576,0.8-1.728,0.8c-0.896,0-1.51-0.133-1.84-0.4   c-0.331-0.267-0.496-0.805-0.496-1.616c0-0.811,0.031-1.301,0.096-1.472c0.064-0.17,0.208-0.256,0.432-0.256   c0.225,0,0.475,0.128,0.752,0.384s0.613,0.47,1.009,0.64c0.395,0.171,0.789,0.464,1.184,0.88S15.927,2.494,15.927,2.771z" stroke-width="1"/>
</g>
</svg>