<svg xmlns="http://www.w3.org/2000/svg" xmlns:xlink="http://www.w3.org/1999/xlink" version="1.1" id="图层_1" x="0px" y="0px" width="25.89299964904785" height="26.503002166748047" viewBox="0.6140002012252808 1.3420000076293945 25.89299964904785 26.503002166748047" enable-background="new 0 0 30 30" xml:space="preserve">
<g>
	<path fill="#0000FF" d="M10.679,8.979c0.362,0,0.561,0.128,0.592,0.384c0.032,0.256,0.091,0.491,0.177,0.704   c0.085,0.213,0.128,0.374,0.128,0.48c0,0.555-0.427,1.088-1.28,1.6c-0.085,0.043-0.176,0.149-0.271,0.32   c-0.097,0.171-0.145,0.32-0.145,0.448c0,0.299,0.171,0.512,0.512,0.64c0.726,0.235,1.088,0.661,1.088,1.28   c0,0.427-0.438,0.662-1.312,0.705c-0.149,0-0.256,0.047-0.32,0.144c-0.063,0.096-0.111,0.405-0.144,0.928s-0.086,1.132-0.16,1.824   c-0.075,0.693-0.112,1.189-0.112,1.487c0,0.961,0.059,1.782,0.177,2.465c0.116,0.683,0.176,1.482,0.176,2.4   c0,0.916-0.027,1.466-0.08,1.647c-0.054,0.181-0.203,0.272-0.448,0.272s-0.656-0.192-1.231-0.576   c-0.576-0.385-0.864-0.678-0.864-0.881s0.074-0.379,0.224-0.527c0.149-0.149,0.299-0.613,0.448-1.393   c0.149-0.777,0.224-1.53,0.224-2.256l-0.096-3.871c0-0.257-0.043-0.385-0.128-0.385c-0.086,0-0.171,0.054-0.256,0.16   c-0.939,1.216-1.638,1.99-2.096,2.32c-0.459,0.33-0.923,0.73-1.392,1.199c-0.427,0.471-1.003,0.705-1.728,0.705   c-0.256,0-0.528-0.033-0.816-0.097s-0.432-0.165-0.432-0.304s0.165-0.373,0.496-0.704c0.331-0.331,0.613-0.571,0.848-0.72   c1.344-0.854,2.432-1.92,3.264-3.2c0.832-1.28,1.248-2.155,1.248-2.624c0-0.341-0.171-0.512-0.512-0.512   c-0.342,0-0.758,0.059-1.248,0.176c-0.491,0.117-0.886,0.288-1.184,0.512c-0.299,0.224-0.501,0.336-0.608,0.336   c-0.192,0-0.464-0.442-0.816-1.328c-0.352-0.885-0.528-1.408-0.528-1.568c0-0.16,0.192-0.24,0.576-0.24   c0.491,0,1.413-0.133,2.768-0.4c1.354-0.267,2.149-0.517,2.384-0.752c0.234-0.234,0.353-1.802,0.353-4.704L8.119,3.026   c0-0.789,0.224-1.184,0.672-1.184c0.234,0,0.544,0.096,0.928,0.288c0.384,0.192,0.65,0.342,0.8,0.448   c0.149,0.107,0.225,0.235,0.225,0.384c0,0.149-0.054,0.278-0.16,0.384c-0.384,0.384-0.576,1.632-0.576,3.744   c0,0.512,0.005,0.886,0.017,1.12c0.01,0.235,0.042,0.416,0.096,0.544c0.053,0.128,0.133,0.198,0.24,0.208   C10.466,8.974,10.572,8.979,10.679,8.979z M26.007,14.61c0,0.15-0.075,0.31-0.224,0.48c-0.277,0.342-0.47,0.822-0.576,1.441   c-0.277,1.344-0.672,2.677-1.184,4c-0.513,1.322-1.195,2.735-2.049,4.239s-1.344,2.31-1.472,2.415   c-0.128,0.107-0.251,0.16-0.368,0.16s-0.262-0.074-0.432-0.223c-0.171-0.15-0.427-0.268-0.769-0.353   c-0.789-0.256-1.888-1.248-3.296-2.976c-0.213-0.256-0.384-0.385-0.512-0.385s-0.352,0.06-0.672,0.176   c-0.32,0.118-0.812,0.177-1.472,0.177c-0.235,0-0.353-0.048-0.353-0.144c0-0.097,0.149-0.299,0.448-0.608s0.624-0.597,0.976-0.864   c0.353-0.267,0.678-0.586,0.977-0.96c0.298-0.373,0.848-0.944,1.647-1.712s1.402-1.637,1.809-2.607   c0.404-0.971,0.607-1.633,0.607-1.985c0-0.352-0.117-0.528-0.352-0.528c-0.086,0-0.225,0.048-0.416,0.144   c-0.192,0.096-0.342,0.24-0.448,0.432c-0.726,1.365-1.579,2.507-2.56,3.424c-0.278,0.235-0.513,0.544-0.704,0.929   c-0.192,0.383-0.433,0.65-0.721,0.799c-0.287,0.15-0.72,0.225-1.296,0.225c-0.575,0-0.863-0.053-0.863-0.16   c0-0.17,0.532-0.82,1.6-1.952c0.256-0.276,0.635-0.826,1.136-1.647s0.752-1.301,0.752-1.44c0-0.138-0.074-0.208-0.224-0.208   s-0.342,0.043-0.576,0.128c-0.683,0.256-1.163,0.384-1.439,0.384c-0.278,0-0.416-0.101-0.416-0.304   c0-0.203,0.181-0.464,0.544-0.784c1.578-1.365,2.517-2.267,2.815-2.704c0.299-0.437,0.448-0.763,0.448-0.976   c0-0.341-0.272-0.512-0.816-0.512s-0.933,0.07-1.168,0.208c-0.234,0.139-0.395,0.208-0.479,0.208c-0.277,0-0.512-0.357-0.704-1.072   c-0.192-0.714-0.288-1.179-0.288-1.392c0-0.213,0.043-0.357,0.128-0.432c0.085-0.074,0.314-0.112,0.688-0.112   c0.373,0,0.997-0.053,1.872-0.16c0.874-0.106,1.524-0.224,1.951-0.352c1.621-0.426,2.651-0.64,3.089-0.64   c0.437,0,0.778,0.032,1.023,0.096s0.395,0.144,0.448,0.24c0.053,0.096,0.08,0.293,0.08,0.592c0,0.299-0.048,0.512-0.145,0.64   c-0.096,0.128-0.299,0.288-0.607,0.48c-0.31,0.192-0.71,0.395-1.2,0.608c-0.491,0.213-1.099,0.726-1.824,1.536   c-0.726,0.811-1.088,1.317-1.088,1.52c0,0.203,0.16,0.315,0.48,0.336c1.066,0.043,2.048,0.128,2.943,0.256   c0.896,0.128,1.717,0.293,2.464,0.496c0.747,0.203,1.35,0.405,1.809,0.608c0.458,0.203,0.735,0.357,0.832,0.464   C25.959,14.366,26.007,14.482,26.007,14.61z M18.839,24.242c0.32,0,0.613-0.091,0.88-0.271c0.267-0.182,0.613-0.666,1.04-1.456   c0.427-0.789,0.789-1.781,1.088-2.976c0.299-1.195,0.448-2.182,0.448-2.961c0-0.778-0.123-1.328-0.368-1.647   c-0.245-0.32-0.501-0.48-0.768-0.48c-0.268,0-0.411,0.181-0.433,0.544c-0.063,0.748-0.208,1.349-0.432,1.808   s-0.73,1.083-1.52,1.871c-0.598,0.598-0.896,1.281-0.896,2.049c0,0.469-0.459,1.014-1.376,1.632   c-0.128,0.085-0.192,0.214-0.192,0.384c0,0.385,0.32,0.731,0.96,1.04C17.911,24.088,18.434,24.242,18.839,24.242z" stroke-width="1"/>
</g>
</svg>