<svg xmlns="http://www.w3.org/2000/svg" xmlns:xlink="http://www.w3.org/1999/xlink" version="1.1" id="图层_1" x="0px" y="0px" width="28.617000579833984" height="23.209999084472656" viewBox="0.0019992589950561523 1.9180023670196533 28.617000579833984 23.209999084472656" enable-background="new 0 0 30 30" xml:space="preserve">
<g>
	<path fill="#0000FF" d="M14.615,13.938c0.234,0,0.453,0.229,0.655,0.688c0.203,0.459,0.305,0.784,0.305,0.976   c0,0.192-0.182,0.299-0.544,0.319c-0.641,0.021-1.451,0.166-2.433,0.433s-1.547,0.479-1.695,0.64   c-0.149,0.16-0.225,0.4-0.225,0.721c0,0.127,0.037,0.24,0.112,0.336c0.074,0.096,0.432,0.32,1.072,0.672   c0.64,0.352,1.439,0.699,2.399,1.04c0.341,0.128,0.624,0.464,0.849,1.008c0.224,0.544,0.336,0.96,0.336,1.248   s-0.102,0.752-0.305,1.392c-0.202,0.641-0.367,0.961-0.495,0.961c-0.129,0-0.288-0.15-0.48-0.449   c-0.918-1.428-1.766-2.602-2.544-3.52c-0.779-0.917-1.275-1.376-1.488-1.376c-0.085,0-0.182,0.075-0.288,0.224   c-0.319,0.513-0.667,0.987-1.04,1.424c-0.373,0.438-0.613,0.758-0.72,0.961s-0.171,0.453-0.192,0.752s-0.079,0.507-0.176,0.624   c-0.096,0.117-0.427,0.347-0.992,0.688c-0.565,0.341-1.062,0.58-1.488,0.719s-0.875,0.209-1.344,0.209   c-0.875,0-1.312-0.118-1.312-0.353s0.234-0.479,0.704-0.735c1.941-1.131,3.291-2.234,4.048-3.313   c0.757-1.077,1.136-1.851,1.136-2.32c0-0.234-0.123-0.341-0.368-0.32c-0.245,0.021-0.709,0.033-1.392,0.033   c-1.301,0-2.699,0.522-4.192,1.567c-0.341,0.235-0.608,0.353-0.8,0.353c-0.192,0-0.363-0.166-0.512-0.496   c-0.149-0.331-0.304-0.625-0.464-0.881c-0.16-0.256-0.24-0.469-0.24-0.64s0.245-0.298,0.736-0.384   c1.557-0.256,3.157-0.624,4.8-1.104c1.643-0.48,2.555-0.79,2.736-0.929c0.181-0.138,0.271-0.891,0.271-2.256   c0-0.192-0.134-0.352-0.399-0.48c-0.268-0.128-0.656-0.522-1.169-1.184c-0.043-0.064-0.111-0.096-0.208-0.096   c-0.096,0-0.219,0.085-0.368,0.256c-0.512,0.619-0.912,1.045-1.2,1.28c-0.288,0.235-0.683,0.352-1.184,0.352   c-0.501,0-0.752-0.059-0.752-0.176s0.053-0.24,0.16-0.368c0.704-0.789,1.648-2.133,2.832-4.032c1.185-1.898,2.171-3.626,2.96-5.184   c0.277-0.533,0.528-0.8,0.752-0.8c0.225,0,0.581,0.16,1.072,0.48c0.49,0.32,0.736,0.555,0.736,0.704   c0,0.149-0.064,0.288-0.192,0.416c-0.363,0.363-0.907,1.125-1.632,2.288c-0.726,1.163-1.43,2.203-2.112,3.12   C8.3,9.491,8.279,9.576,8.279,9.683c0,0.107,0.08,0.16,0.239,0.16c0.16,0,0.741-0.144,1.744-0.432s1.792-0.555,2.368-0.8   c0.576-0.245,0.981-0.368,1.216-0.368s0.448,0.181,0.641,0.544c0.191,0.363,0.288,0.646,0.288,0.848   c0,0.203-0.288,0.56-0.864,1.072s-1.029,0.837-1.36,0.976s-0.549,0.267-0.656,0.384c-0.106,0.118-0.165,0.251-0.176,0.4   c-0.011,0.15-0.048,0.47-0.111,0.96c-0.064,0.491-0.097,0.8-0.097,0.928s0.106,0.192,0.32,0.192c0.768,0,1.568-0.17,2.4-0.512   C14.38,13.971,14.508,13.938,14.615,13.938z M28.119,13.362c0,0.107-0.262,0.747-0.784,1.92c-0.523,1.173-0.923,1.984-1.2,2.432   c-0.277,0.427-0.395,0.917-0.352,1.472c0.021,0.214,0.032,0.442,0.032,0.688c0,0.245-0.075,0.432-0.225,0.56   s-0.411,0.176-0.784,0.144c-0.373-0.031-0.709-0.047-1.008-0.047c-1.302,0-2.485,0.191-3.552,0.575   c-0.277,0.106-0.496,0.16-0.656,0.16s-0.271-0.032-0.336-0.097c-0.063-0.063-0.384-0.575-0.96-1.535   c-0.576-0.961-0.938-1.6-1.088-1.92s-0.39-1.041-0.72-2.16c-0.331-1.12-0.496-1.76-0.496-1.92c0-0.16,0.096-0.293,0.288-0.4   c0.191-0.106,1.269-0.373,3.231-0.8s3.322-0.64,4.08-0.64c0.757,0,1.701,0.192,2.832,0.576   C27.554,12.754,28.119,13.085,28.119,13.362z M20.503,18.258c0.234,0,0.65-0.068,1.248-0.207c0.597-0.139,1.024-0.299,1.28-0.48   c0.256-0.181,0.464-0.57,0.624-1.168c0.16-0.597,0.239-1.088,0.239-1.472c0-0.384-0.133-0.667-0.399-0.848   c-0.268-0.181-0.806-0.272-1.616-0.272s-1.472,0.123-1.984,0.368c-0.512,0.245-0.768,0.635-0.768,1.168s0.091,1.151,0.272,1.856   C19.58,17.906,19.948,18.258,20.503,18.258z" stroke-width="1"/>
</g>
</svg>