<svg xmlns="http://www.w3.org/2000/svg" xmlns:xlink="http://www.w3.org/1999/xlink" version="1.1" id="图层_1" x="0px" y="0px" width="31.847000122070312" height="24.61700439453125" viewBox="-1.3080021142959595 2.9429996013641357 31.847000122070312 24.61700439453125" enable-background="new 0 0 30 30" xml:space="preserve">
<g>
	<path fill="#0000FF" d="M15.479,6.643c0,0.171,0.117,0.331,0.353,0.48c0.725,0.448,1.248,0.88,1.568,1.296   c0.319,0.416,0.72,0.779,1.199,1.088c0.48,0.31,1.104,0.827,1.872,1.552c1.813,1.707,3.755,2.965,5.824,3.776   c1.365,0.555,2.192,0.908,2.48,1.056c0.288,0.149,0.57,0.363,0.848,0.641s0.416,0.549,0.416,0.815s-0.134,0.448-0.4,0.544   s-0.741,0.145-1.424,0.145s-1.456-0.064-2.32-0.193c-0.863-0.127-1.52-0.281-1.968-0.463s-0.863-0.325-1.248-0.433   c-0.256-0.063-0.416-0.341-0.479-0.831c-0.128-0.854-0.443-1.553-0.944-2.097s-1.099-0.971-1.792-1.28   c-0.693-0.309-1.339-0.677-1.936-1.104c-0.598-0.426-1.088-0.837-1.473-1.232c-0.384-0.395-0.704-0.656-0.96-0.784   s-0.539-0.192-0.848-0.192c-0.31,0-0.539,0.139-0.688,0.416c-1.151,2.176-2,3.606-2.544,4.288c-0.544,0.683-1.125,1.36-1.744,2.032   c-0.618,0.672-1.104,1.078-1.455,1.217c-0.353,0.139-0.545,0.229-0.576,0.271c-0.032,0.043-0.048,0.155-0.048,0.336   c0,0.182-0.06,0.416-0.176,0.704c-0.118,0.288-0.187,0.656-0.208,1.104c-0.021,0.447-0.091,1.008-0.208,1.68   c-0.118,0.672-0.198,1.414-0.24,2.225c-0.064,1.492-0.224,2.426-0.48,2.799s-0.491,0.561-0.704,0.561   c-0.085,0-0.16-0.043-0.224-0.128s-0.112-0.22-0.144-0.399c-0.032-0.182-0.08-0.593-0.144-1.232l-0.224-2.625   c-0.085-1.13-0.128-1.908-0.128-2.336l0.032-1.184c0-0.917-0.085-1.376-0.256-1.376c-0.085,0-0.213,0.107-0.384,0.32   c-0.981,1.216-1.872,2.06-2.672,2.528c-0.8,0.469-1.307,0.703-1.52,0.703c-0.214,0-0.32-0.068-0.32-0.207s0.032-0.272,0.096-0.4   s0.405-0.661,1.024-1.6c0.619-0.939,1.13-1.696,1.536-2.272c0.405-0.576,0.65-1.024,0.736-1.345   c0.64-1.983,1.365-3.647,2.176-4.991c0.64-1.088,1.397-3.029,2.272-5.824C7.18,4.2,7.441,3.955,7.815,3.955   c0.373,0,0.82,0.107,1.344,0.32c0.522,0.213,0.784,0.421,0.784,0.624c0,0.203-0.07,0.406-0.208,0.608   c-0.14,0.203-0.336,0.592-0.593,1.168c-0.256,0.576-0.49,1.2-0.703,1.872c-0.214,0.672-0.4,1.174-0.561,1.504   c-0.16,0.331-0.432,0.731-0.816,1.2c-0.256,0.299-0.779,1.008-1.568,2.128c-0.79,1.12-1.184,1.99-1.184,2.608   c0,0.47,0.192,0.704,0.576,0.704c0.512,0,1.056,0.043,1.632,0.128c0.128,0,0.293-0.085,0.496-0.256   c0.203-0.17,0.677-0.832,1.424-1.984c0.746-1.152,1.53-2.507,2.352-4.064s1.925-3.797,3.312-6.72   c0.129-0.234,0.32-0.352,0.576-0.352c0.106,0,0.347,0.048,0.721,0.144c0.373,0.096,0.688,0.256,0.943,0.48s0.384,0.421,0.384,0.592   c0,0.149-0.085,0.293-0.256,0.432c-0.171,0.139-0.379,0.395-0.624,0.768C15.602,6.232,15.479,6.494,15.479,6.643z M22.743,25.17   c0,0.832-0.054,1.297-0.16,1.393c-0.107,0.096-0.331,0.145-0.672,0.145c-2.091,0.021-3.456,0.074-4.096,0.16   c-0.641,0.084-1.163,0.127-1.568,0.127s-0.795-0.08-1.168-0.24c-0.374-0.159-0.843-0.518-1.408-1.071   c-0.565-0.556-0.987-1.2-1.264-1.937c-0.277-0.735-0.416-1.604-0.416-2.607c0-1.002,0.068-2.363,0.208-4.08   c0.139-1.717,0.362-2.677,0.672-2.88c0.309-0.203,0.607-0.304,0.896-0.304s0.576,0.054,0.864,0.16   c0.288,0.107,0.433,0.245,0.433,0.416s-0.086,0.357-0.257,0.56s-0.362,0.789-0.575,1.76c-0.214,0.972-0.32,1.563-0.32,1.776   s0.042,0.32,0.128,0.32c0.171,0,0.848-0.619,2.032-1.856c1.184-1.237,1.829-1.963,1.936-2.176c0.106-0.213,0.288-0.32,0.544-0.32   s0.533,0.267,0.832,0.8c0.299,0.533,0.448,0.886,0.448,1.057c0,0.319-0.214,0.564-0.64,0.735c-0.235,0.106-0.48,0.24-0.736,0.399   c-0.256,0.16-0.64,0.454-1.152,0.881c-0.512,0.427-1.194,1.02-2.048,1.775c-0.854,0.758-1.323,1.189-1.408,1.297   c-0.085,0.106-0.149,0.229-0.191,0.367c-0.043,0.139-0.064,0.336-0.064,0.592c0,0.79,0.197,1.308,0.592,1.553   c0.395,0.244,0.858,0.367,1.393,0.367c2.005,0,3.387-0.17,4.144-0.512c0.757-0.341,1.137-0.98,1.137-1.92   c0-0.17-0.012-0.352-0.032-0.544c-0.021-0.192-0.032-0.469-0.032-0.831c0-0.363,0.021-0.613,0.064-0.753   c0.042-0.138,0.122-0.208,0.239-0.208s0.299,0.112,0.544,0.336c0.245,0.225,0.39,0.39,0.433,0.496   c0.042,0.107,0.063,0.283,0.063,0.528s0.043,0.518,0.128,0.815C22.583,22.664,22.743,23.806,22.743,25.17z" stroke-width="1"/>
</g>
</svg>