<svg xmlns="http://www.w3.org/2000/svg" xmlns:xlink="http://www.w3.org/1999/xlink" version="1.1" id="图层_1" x="0px" y="0px" width="26.184001922607422" height="23.676408767700195" viewBox="1.218999981880188 3.743000030517578 26.184001922607422 23.676408767700195" enable-background="new 0 0 30 30" xml:space="preserve">
<g>
	<path fill="#0000FF" d="M25.079,4.243c0.32,0,0.522,0.085,0.607,0.256l0.673,1.408c0.362,0.747,0.544,1.275,0.544,1.584   s-0.097,0.464-0.288,0.464c-0.192,0-0.384-0.032-0.576-0.096c-1.472-0.49-2.806-0.736-4-0.736c-0.576,0-0.923,0.053-1.04,0.16   s-0.224,0.325-0.32,0.656c-0.096,0.331-0.208,1.91-0.336,4.736c-0.128,2.828-0.191,4.501-0.191,5.025   c0,0.522,0.016,0.906,0.048,1.151s0.048,0.715,0.048,1.407c0,0.694-0.021,1.265-0.064,1.713c-0.043,0.447-0.063,0.896-0.063,1.344   c0,0.448,0.037,0.971,0.112,1.568c0.074,0.597,0.111,1.023,0.111,1.279s-0.059,0.459-0.176,0.608s-0.256,0.187-0.416,0.112   c-0.16-0.075-0.587-0.192-1.28-0.352c-0.693-0.16-1.146-0.252-1.359-0.273c-1.28-0.127-2.528-0.564-3.744-1.312   s-1.824-1.216-1.824-1.407c0-0.086,0.064-0.129,0.192-0.129s0.319,0.032,0.575,0.096c0.257,0.064,0.843,0.14,1.761,0.225   c0.917,0.086,1.647,0.128,2.191,0.128s0.917-0.08,1.12-0.239c0.203-0.16,0.341-0.529,0.416-1.104   c0.074-0.576,0.112-1.131,0.112-1.664s-0.021-1.269-0.064-2.208c-0.043-0.938-0.063-2.048-0.063-3.328   c0-1.28,0.026-2.224,0.08-2.832c0.053-0.608,0.08-1.184,0.08-1.728s-0.075-1.163-0.225-1.856c-0.149-0.693-0.299-1.12-0.448-1.28   c-0.149-0.16-0.725-0.24-1.728-0.24c-0.619,0-1.264,0.118-1.936,0.352c-0.673,0.235-1.18,0.384-1.521,0.448   c-0.342,0.064-1.109,0.101-2.304,0.112C8.588,8.302,7.271,8.445,5.831,8.723C4.391,9,3.468,9.331,3.063,9.714   c-0.149,0.15-0.32,0.224-0.512,0.224c-0.192,0-0.347-0.245-0.464-0.736S1.879,8.381,1.815,8.21C1.751,8.04,1.719,7.922,1.719,7.858   c0-0.213,0.171-0.32,0.512-0.32c0.341,0,0.811-0.08,1.408-0.24c0.597-0.16,1.291-0.309,2.08-0.448   c0.789-0.139,1.601-0.245,2.433-0.32s2.133-0.379,3.903-0.912c1.066-0.299,2.4-0.555,4-0.768c1.601-0.213,3.216-0.331,4.849-0.352   c1.632-0.021,2.698-0.069,3.199-0.144C24.604,4.28,24.93,4.243,25.079,4.243z M15.863,11.09c0,0.128-0.086,0.299-0.256,0.512   c-0.32,0.405-0.614,1.158-0.881,2.256c-0.267,1.099-0.399,1.915-0.399,2.448c0,0.191-0.086,0.325-0.256,0.4   c-0.171,0.074-0.491,0.111-0.96,0.111c-1.558,0-2.721,0.235-3.488,0.704c-0.171,0.106-0.32,0.16-0.448,0.16   c-0.299,0-0.672-0.384-1.12-1.151c-0.447-0.769-0.848-1.633-1.2-2.593s-0.528-1.621-0.528-1.984c0-0.597,0.288-0.928,0.864-0.992   c0.319-0.042,0.97-0.224,1.951-0.544c1.024-0.362,2.021-0.544,2.992-0.544s1.835,0.149,2.592,0.448   C15.484,10.622,15.863,10.877,15.863,11.09z M10.071,14.738c0.128,0,0.49-0.064,1.088-0.192c0.597-0.128,0.943-0.405,1.04-0.832   c0.096-0.426,0.144-0.757,0.144-0.992c0-0.725-0.341-1.088-1.023-1.088c-0.513,0-0.981,0.134-1.408,0.4   c-0.427,0.267-0.641,0.688-0.641,1.264C9.271,14.258,9.537,14.738,10.071,14.738z" stroke-width="1"/>
</g>
</svg>