<svg xmlns="http://www.w3.org/2000/svg" xmlns:xlink="http://www.w3.org/1999/xlink" version="1.1" id="图层_1" x="0px" y="0px" width="26.186996459960938" height="26.599000930786133" viewBox="1.5670051574707031 1.2789992094039917 26.186996459960938 26.599000930786133" enable-background="new 0 0 30 30" xml:space="preserve">
<g>
	<path fill="#0000FF" d="M25.655,9.522c0.341,0,0.56,0.128,0.655,0.384c0.097,0.256,0.277,0.624,0.545,1.104   c0.266,0.48,0.399,0.832,0.399,1.056s-0.171,0.336-0.512,0.336c-0.128,0-0.268-0.01-0.416-0.032   c-0.704-0.149-1.552-0.224-2.544-0.224s-1.542,0.043-1.648,0.128c-0.106,0.085-0.16,0.278-0.16,0.576l0.032,2.272   c0.021,0.811,0.032,1.674,0.032,2.592c0,1.643,0.032,3.317,0.096,5.023l0.192,3.68c0,0.641-0.171,0.961-0.512,0.961   c-0.192,0-0.987-0.277-2.385-0.832s-2.373-1.004-2.928-1.344c-0.555-0.342-0.997-0.688-1.328-1.041   c-0.331-0.352-0.496-0.576-0.496-0.672s0.048-0.144,0.145-0.144c0.096,0,0.314,0.091,0.655,0.272   c0.342,0.181,0.821,0.346,1.44,0.496c0.618,0.148,1.184,0.223,1.696,0.223c0.917,0,1.376-0.756,1.376-2.271l-0.16-4.225   c-0.043-1.407-0.069-2.559-0.08-3.455s-0.037-1.397-0.08-1.504c-0.043-0.106-0.123-0.16-0.24-0.16s-0.261,0.021-0.432,0.064   c-0.875,0.277-2.272,0.533-4.192,0.768c-0.704,0.107-1.199,0.229-1.487,0.368c-0.288,0.139-0.433,0.368-0.433,0.688l0.032,1.664   c0,0.79-0.021,1.291-0.063,1.504c-0.15,1.366-0.225,3.2-0.225,5.505c0,0.49-0.054,0.735-0.16,0.735s-0.234-0.054-0.384-0.16   c-0.789-0.661-1.387-1.12-1.792-1.376c-0.789-0.555-1.184-0.922-1.184-1.104s0.116-0.256,0.352-0.225   c0.234,0.032,0.438,0.049,0.608,0.049c0.17,0,0.309-0.037,0.416-0.113c0.106-0.074,0.17-0.17,0.191-0.287s0.043-0.565,0.064-1.344   c0.021-0.779,0.032-1.365,0.032-1.76s-0.054-0.593-0.16-0.593c-0.149,0-1.003,0.726-2.561,2.177   c-1.557,1.45-2.667,2.635-3.328,3.551c-0.149,0.214-0.288,0.32-0.416,0.32c-0.085,0-0.299-0.139-0.64-0.416l-1.056-0.832   c-0.363-0.299-0.544-0.517-0.544-0.656c0-0.139,0.181-0.281,0.544-0.432c0.362-0.148,0.704-0.352,1.024-0.607   c0.32-0.256,0.682-0.528,1.088-0.816c0.405-0.288,0.677-0.496,0.816-0.624c0.139-0.128,0.208-0.528,0.208-1.2   s-0.048-1.242-0.144-1.712c-0.096-0.469-0.144-1.136-0.144-2c0-0.864,0.021-1.754,0.064-2.672c0.042-0.917,0.075-1.552,0.096-1.904   c0.021-0.352,0.144-0.693,0.368-1.024c0.224-0.33,0.592-0.565,1.104-0.704S8.055,7.25,8.439,7.059   c0.96-0.448,1.94-0.672,2.943-0.672c0.448,0,1.024,0.075,1.729,0.224c0.704,0.15,1.056,0.32,1.056,0.512s-0.139,0.443-0.416,0.752   c-0.277,0.31-0.496,0.886-0.656,1.728c-0.16,0.843-0.239,1.451-0.239,1.824s0.021,0.592,0.063,0.656s0.181,0.096,0.416,0.096   c0.533,0,1.419-0.192,2.656-0.576c1.236-0.384,2.271-0.693,3.104-0.928c0.277-0.064,0.453-0.17,0.528-0.32   c0.074-0.149,0.112-0.672,0.112-1.568s0.016-2.123,0.048-3.68c0.032-1.557,0.053-2.442,0.063-2.656s0.064-0.379,0.16-0.496   s0.277-0.176,0.544-0.176s0.646,0.064,1.136,0.192c0.491,0.128,0.736,0.309,0.736,0.544c0,0.128-0.096,0.31-0.288,0.544   c-0.191,0.235-0.267,0.613-0.224,1.136c0.042,0.523,0.063,0.971,0.063,1.344c0,0.374-0.021,0.821-0.063,1.344   c-0.043,0.523-0.064,1.072-0.064,1.648c0,0.576,0.021,0.949,0.064,1.12c0.042,0.171,0.117,0.256,0.224,0.256   s0.225-0.011,0.353-0.032C23.767,9.64,24.823,9.522,25.655,9.522z M7.383,17.395c0.085,0,0.411-0.197,0.977-0.592   c0.564-0.395,1.108-0.758,1.632-1.088c0.522-0.331,0.794-0.576,0.815-0.736s0.032-1.083,0.032-2.768   c0-1.685-0.075-2.784-0.224-3.296c-0.149-0.512-0.443-0.768-0.88-0.768c-0.438,0-0.886,0.272-1.345,0.816s-0.688,1.083-0.688,1.616   c0,0.299,0.032,0.518,0.096,0.656c0.064,0.139,0.555,0.56,1.472,1.264c0.192,0.171,0.288,0.405,0.288,0.704   s-0.037,0.501-0.111,0.608c-0.075,0.107-0.229,0.171-0.464,0.192c-0.939,0.064-1.494,0.213-1.664,0.448   c-0.171,0.235-0.256,0.784-0.256,1.648S7.17,17.395,7.383,17.395z M14.743,14.707c0.234,0,0.576,0.064,1.023,0.192   c0.448,0.128,0.832,0.363,1.152,0.704s0.48,0.63,0.48,0.864s-0.235,0.607-0.704,1.119c-0.47,0.513-0.79,0.769-0.96,0.769   c-0.192,0-0.315-0.187-0.368-0.56c-0.054-0.373-0.16-0.838-0.32-1.393s-0.293-0.928-0.399-1.12c-0.107-0.192-0.16-0.336-0.16-0.432   C14.487,14.754,14.572,14.707,14.743,14.707z" stroke-width="1"/>
</g>
</svg>