<svg xmlns="http://www.w3.org/2000/svg" xmlns:xlink="http://www.w3.org/1999/xlink" version="1.1" id="图层_1" x="0px" y="0px" width="22.24799919128418" height="28.80900001525879" viewBox="1.9880008697509766 0.478000283241272 22.24799919128418 28.80900001525879" enable-background="new 0 0 30 30" xml:space="preserve">
<g>
	<path fill="#0000FF" d="M14.967,24.146c-0.128-3.563-0.267-5.729-0.416-6.496s-0.491-1.152-1.023-1.152   c-0.149,0-0.486,0.064-1.009,0.192s-0.938,0.267-1.248,0.416c-0.309,0.149-0.607,0.224-0.896,0.224s-0.565-0.117-0.832-0.352   s-0.496-0.352-0.688-0.352c-0.192,0-0.396,0.24-0.608,0.72c-0.214,0.479-0.32,1.231-0.32,2.256c0,0.384-0.106,0.752-0.319,1.104   c-0.214,0.352-0.641,0.789-1.28,1.312c-0.64,0.522-1.296,0.95-1.968,1.28s-1.2,0.496-1.584,0.496c-0.192,0-0.288-0.059-0.288-0.176   s0.181-0.369,0.544-0.752c1.429-1.494,2.448-2.769,3.056-3.824c0.608-1.057,1.088-2.485,1.44-4.289   c0.352-1.802,0.527-3.834,0.527-6.096L8.023,6.834c0-0.405,0.026-0.757,0.079-1.056c0.054-0.298,0.102-0.485,0.145-0.56   c0.042-0.075,0.122-0.112,0.24-0.112c0.116,0,0.484,0.059,1.104,0.176s0.928,0.299,0.928,0.544s-0.063,0.539-0.191,0.88   c-0.171,0.427-0.256,1.067-0.256,1.92c0,0.534,0.181,0.8,0.544,0.8c0.106,0,0.512-0.112,1.216-0.336   c0.704-0.224,1.312-0.4,1.824-0.528c0.512-0.128,0.763-0.261,0.752-0.4C14.396,8.024,14.46,7.32,14.599,6.05   c0.139-1.269,0.208-2.282,0.208-3.04s0.064-1.285,0.192-1.584s0.293-0.448,0.496-0.448c0.202,0,0.57,0.139,1.104,0.416   c0.533,0.277,0.801,0.518,0.801,0.72s-0.07,0.379-0.208,0.528c-0.14,0.149-0.225,0.363-0.257,0.64   c-0.031,0.277-0.048,0.955-0.048,2.032c0,1.078,0.011,1.755,0.032,2.032s0.181,0.416,0.48,0.416c0.106,0,0.479-0.053,1.119-0.16   c0.641-0.106,1.109-0.16,1.408-0.16s0.507,0.038,0.624,0.112s0.293,0.261,0.528,0.56c0.234,0.299,0.427,0.603,0.576,0.912   c0.148,0.31,0.224,0.56,0.224,0.752c0,0.192-0.069,0.336-0.208,0.432c-0.139,0.096-0.373,0.139-0.704,0.128   c-0.331-0.01-0.507-0.016-0.527-0.016c-1.195,0-2.433,0.139-3.713,0.416c-1.279,0.278-2.319,0.464-3.119,0.56   c-0.801,0.096-1.531,0.214-2.192,0.352c-0.661,0.139-1.051,0.235-1.168,0.288c-0.117,0.054-0.219,0.155-0.304,0.304   c-0.086,0.149-0.198,0.501-0.336,1.056c-0.14,0.555-0.208,0.96-0.208,1.216c0,0.256,0.138,0.384,0.416,0.384   c0.276,0,0.575-0.053,0.896-0.16c0.832-0.277,2.49-0.592,4.976-0.944s4.139-0.528,4.961-0.528c0.82,0,1.253-0.016,1.296-0.048   c0.042-0.032,0.106-0.048,0.191-0.048c0.384,0,0.747,0.32,1.088,0.96c0.342,0.64,0.513,1.163,0.513,1.569   c0,0.404-0.192,0.607-0.576,0.607c-0.149,0-0.331-0.032-0.544-0.096c-0.79-0.213-1.648-0.32-2.576-0.32s-1.531,0.048-1.808,0.145   c-0.278,0.096-0.491,0.256-0.641,0.479s-0.251,0.603-0.304,1.136c-0.054,0.533-0.102,1.541-0.145,3.023   c-0.043,1.484-0.053,2.727-0.031,3.729v2.721c0,0.512-0.07,0.857-0.208,1.039c-0.14,0.182-0.385,0.33-0.736,0.449   c-0.352,0.115-0.608,0.176-0.768,0.176c-0.16,0-0.251-0.215-0.272-0.641L14.967,24.146z" stroke-width="1"/>
</g>
</svg>