<svg xmlns="http://www.w3.org/2000/svg" xmlns:xlink="http://www.w3.org/1999/xlink" version="1.1" id="图层_1" x="0px" y="0px" width="27.560001373291016" height="26.951004028320312" viewBox="2.147000312805176 1.5359995365142822 27.560001373291016 26.951004028320312" enable-background="new 0 0 30 30" xml:space="preserve">
<g>
	<path fill="#0000FF" d="M19.767,15.059c0,0.171,0.229,0.592,0.688,1.264c0.458,0.672,1.131,1.318,2.016,1.936   c0.886,0.619,1.909,1.104,3.072,1.457c1.162,0.352,2.064,0.693,2.704,1.023c0.64,0.331,0.96,0.624,0.96,0.881   c0,0.469-0.661,0.703-1.984,0.703c-0.597,0-1.407-0.048-2.432-0.144c-1.024-0.097-1.648-0.165-1.872-0.208s-0.411-0.145-0.56-0.305   c-0.149-0.16-0.272-0.469-0.368-0.928c-0.097-0.459-0.384-0.98-0.864-1.568c-0.479-0.586-1.142-1.172-1.984-1.76   c-0.843-0.586-1.595-1.221-2.256-1.904c-0.128-0.127-0.288-0.191-0.479-0.191l-0.576,0.096c-0.47,0.064-0.747,0.128-0.832,0.192   c-0.086,0.063-0.149,0.128-0.192,0.192c-0.726,1.109-1.536,2.176-2.432,3.199c-0.107,0.107-0.16,0.192-0.16,0.256   c0,0.129,0.219,0.428,0.656,0.896c0.437,0.47,0.821,0.795,1.152,0.977c0.33,0.182,0.549,0.271,0.655,0.271s0.251-0.037,0.433-0.111   c0.181-0.075,0.271-0.209,0.271-0.4l-0.128-3.456c0-0.214,0.032-0.353,0.096-0.416c0.064-0.064,0.32-0.097,0.769-0.097   s0.757,0.076,0.928,0.225c0.171,0.149,0.234,0.469,0.192,0.96c-0.086,1.024-0.128,1.856-0.128,2.496   c0,0.149,0.053,0.224,0.159,0.224c0.107,0,0.342-0.154,0.704-0.464c0.363-0.31,0.736-0.763,1.12-1.36   c0.149-0.213,0.32-0.32,0.513-0.32c0.191,0,0.426,0.16,0.703,0.48s0.416,0.598,0.416,0.832c0,0.235-0.165,0.422-0.495,0.561   c-0.331,0.139-0.716,0.336-1.152,0.592c-0.438,0.256-0.678,0.405-0.72,0.447c-0.043,0.043-0.064,0.086-0.064,0.129   c0,0.213,1.099,0.715,3.296,1.504c0.384,0.149,0.576,0.459,0.576,0.928c0,0.148-0.048,0.357-0.144,0.624   c-0.097,0.267-0.177,0.517-0.24,0.752c-0.086,0.384-0.229,0.576-0.433,0.576c-0.202,0-0.389-0.097-0.56-0.288   c-0.875-0.918-1.643-1.712-2.304-2.384c-0.662-0.673-1.024-1.024-1.088-1.056c-0.064-0.033-0.123-0.049-0.177-0.049   c-0.053,0-0.096,0.037-0.128,0.112c-0.031,0.075-0.059,0.442-0.08,1.104c-0.021,0.66-0.031,1.221-0.031,1.68   s0.01,0.858,0.031,1.199l0.097,0.928c0,0.428-0.16,0.641-0.48,0.641c-0.171,0-0.533-0.107-1.088-0.32s-1.12-0.502-1.696-0.863   c-0.576-0.363-0.912-0.604-1.008-0.721s-0.144-0.256-0.144-0.416s0.165-0.207,0.496-0.144c0.33,0.063,0.634,0.097,0.911,0.097   c0.683,0,1.067-0.24,1.152-0.721s0.128-1.264,0.128-2.352c0-0.107-0.043-0.16-0.128-0.16c-0.149,0-0.715,0.373-1.696,1.119   c-0.981,0.747-1.658,1.35-2.031,1.809c-0.374,0.459-0.662,0.688-0.864,0.688c-0.203,0-0.475-0.176-0.816-0.527   c-0.341-0.352-0.512-0.646-0.512-0.88c0-0.235,0.032-0.4,0.096-0.496c0.064-0.097,0.491-0.347,1.28-0.752s1.557-0.778,2.304-1.12   c0.128-0.064,0.192-0.16,0.192-0.288c0-0.256-0.251-0.597-0.752-1.024c-0.502-0.426-0.869-0.64-1.104-0.64   c-0.106,0-0.261,0.14-0.464,0.416c-0.203,0.278-0.384,0.624-0.544,1.04s-0.592,0.801-1.296,1.152S7.639,23.41,6.935,23.41   l-0.576-0.031c-0.171,0-0.299,0.074-0.384,0.224c-0.47,0.832-0.864,1.248-1.184,1.248c-0.299,0-0.731-0.661-1.296-1.983   c-0.565-1.323-0.848-2.641-0.848-3.953c0-1.312,0.123-2.597,0.368-3.855c0.245-1.259,0.368-1.995,0.368-2.208   c0-0.213-0.016-0.4-0.048-0.56c-0.032-0.16-0.048-0.283-0.048-0.368c0-0.341,0.149-0.512,0.448-0.512s0.725,0.155,1.28,0.464   c0.554,0.31,0.896,0.518,1.024,0.624c0.128,0.107,0.192,0.267,0.192,0.48c0,0.213-0.251,0.544-0.752,0.992   c-0.501,0.448-0.96,1.152-1.376,2.111c-0.416,0.961-0.624,1.836-0.624,2.625s0.09,1.455,0.272,2   c0.181,0.543,0.432,0.815,0.752,0.815s0.752-0.405,1.296-1.216s1.04-1.696,1.488-2.656c0.191-0.426,0.347-0.64,0.464-0.64   s0.176,0.208,0.176,0.624s-0.102,1.072-0.304,1.968c-0.203,0.896-0.496,1.76-0.88,2.592c-0.021,0.043-0.032,0.102-0.032,0.177   c0,0.074,0.042,0.111,0.128,0.111c0.213,0,0.816-0.416,1.809-1.248c0.991-0.832,1.84-1.813,2.544-2.943   c0.703-1.131,1.056-1.803,1.056-2.017c0-0.106-0.037-0.159-0.112-0.159s-0.709,0.143-1.903,0.432   c-1.195,0.287-1.921,0.432-2.177,0.432c-0.341,0-0.512-0.373-0.512-1.12c0-0.319,0.117-0.458,0.352-0.416   c0.107,0.021,0.251,0.032,0.433,0.032c0.181,0,0.586-0.096,1.216-0.288c0.629-0.192,1.658-0.48,3.088-0.864   c0.171-0.043,0.256-0.149,0.256-0.32l-0.096-0.512c-0.086-0.384-0.197-0.576-0.336-0.576s-0.422,0.075-0.848,0.224   c-0.428,0.149-0.71,0.224-0.849,0.224s-0.267-0.176-0.384-0.528s-0.176-0.592-0.176-0.72c0-0.299,0.101-0.448,0.304-0.448   c0.202,0,0.517-0.048,0.944-0.144c0.426-0.096,0.672-0.176,0.735-0.24c0.064-0.064,0.069-0.229,0.017-0.496   c-0.054-0.267-0.08-0.56-0.08-0.88c0-0.32,0.181-0.512,0.544-0.576c0.063-0.021,0.096-0.059,0.096-0.112s-0.043-0.133-0.128-0.24   c-0.704-0.789-1.179-1.707-1.424-2.752c-0.245-1.045-0.368-1.834-0.368-2.368c0-0.277,0.181-0.448,0.544-0.512   c0.512-0.085,1.237-0.256,2.176-0.512c2.027-0.533,3.605-0.8,4.736-0.8c0.64,0,1.45,0.155,2.432,0.464   c0.981,0.31,1.473,0.688,1.473,1.136c0,0.192-0.069,0.384-0.208,0.576c-0.14,0.192-0.336,0.555-0.592,1.088l-0.704,1.6   c-0.235,0.534-0.368,0.848-0.4,0.944c-0.032,0.096-0.048,0.288-0.048,0.576s-0.011,0.518-0.032,0.688l-0.032,0.448   c0,0.107,0.075,0.16,0.225,0.16c0.746,0,1.12,0.16,1.12,0.48c0,0.384-0.102,0.651-0.305,0.8c-0.203,0.149-0.72,0.299-1.552,0.448   c-0.256,0.043-0.448,0.299-0.576,0.768l-0.191,0.672c0,0.15,0.053,0.224,0.16,0.224c0.106,0,0.645-0.059,1.615-0.176   s1.616-0.213,1.937-0.288c0.319-0.075,0.533-0.112,0.64-0.112c0.341,0,0.688,0.288,1.04,0.864c0.353,0.576,0.528,0.981,0.528,1.216   c0,0.342-0.203,0.512-0.608,0.512c-0.128,0-0.277-0.021-0.448-0.064c-0.661-0.17-1.407-0.256-2.239-0.256s-1.334,0.016-1.504,0.048   C19.852,14.882,19.767,14.952,19.767,15.059z M6.135,4.115c0.341,0,0.656,0.224,0.944,0.672c0.288,0.448,0.635,1.019,1.04,1.712   C8.524,7.192,8.727,7.73,8.727,8.115c0,0.555-0.234,0.832-0.703,0.832c-0.214,0-0.588-0.112-1.121-0.336   C6.37,8.387,5.98,8.227,5.735,8.13C5.489,8.035,5.313,7.864,5.207,7.619c-0.107-0.245-0.16-0.565-0.16-0.96   c0-0.395,0.08-0.853,0.24-1.376c0.16-0.522,0.304-0.848,0.432-0.976C5.847,4.179,5.985,4.115,6.135,4.115z M17.655,7.922   c0.256,0,0.56-0.496,0.912-1.488c0.352-0.992,0.527-1.723,0.527-2.192c0-0.704-0.479-1.056-1.439-1.056   c-0.534,0-1.313,0.16-2.336,0.48c-1.024,0.32-1.638,0.582-1.841,0.784c-0.202,0.203-0.304,0.443-0.304,0.72   c0,1.195,0.048,1.92,0.145,2.176c0.096,0.256,0.25,0.384,0.464,0.384c0.213,0,0.704-0.106,1.472-0.32   c0.769-0.213,1.28-0.32,1.536-0.32s0.421,0.043,0.496,0.128c0.074,0.085,0.133,0.224,0.176,0.416   C17.506,7.827,17.569,7.922,17.655,7.922z M17.815,4.882c0,0.299-0.043,0.528-0.129,0.688c-0.085,0.16-0.314,0.331-0.688,0.512   c-0.373,0.182-0.763,0.304-1.168,0.368l-1.184,0.192c-0.257,0-0.448-0.139-0.576-0.416C13.943,5.95,13.879,5.73,13.879,5.57   c0-0.16,0.059-0.298,0.176-0.416c0.117-0.117,0.277-0.186,0.48-0.208c0.202-0.021,0.555-0.117,1.056-0.288s1.062-0.256,1.68-0.256   C17.634,4.402,17.815,4.563,17.815,4.882z M14.967,10.61c0.064,0,0.384-0.064,0.96-0.192s0.971-0.213,1.185-0.256   c0.17,0,0.256-0.144,0.256-0.432s-0.011-0.512-0.032-0.672s-0.139-0.24-0.352-0.24c-0.513,0-1.04,0.064-1.584,0.192   c-0.544,0.128-0.859,0.219-0.944,0.272c-0.086,0.053-0.128,0.112-0.128,0.176s0.048,0.149,0.144,0.256   c0.097,0.107,0.16,0.283,0.192,0.528S14.796,10.61,14.967,10.61z M14.871,13.778c0.042,0,0.309-0.048,0.8-0.144   c0.49-0.096,0.784-0.16,0.88-0.192c0.097-0.032,0.197-0.245,0.305-0.64c0.106-0.395,0.159-0.635,0.159-0.72   c0-0.085-0.043-0.128-0.128-0.128s-0.447,0.064-1.088,0.192c-0.64,0.128-1.003,0.213-1.088,0.256   c-0.085,0.043-0.128,0.283-0.128,0.72C14.583,13.56,14.679,13.778,14.871,13.778z" stroke-width="1"/>
</g>
</svg>