<svg xmlns="http://www.w3.org/2000/svg" xmlns:xlink="http://www.w3.org/1999/xlink" version="1.1" id="图层_1" x="0px" y="0px" width="25.57499885559082" height="24.522001266479492" viewBox="1.7000007629394531 2.941999912261963 25.57499885559082 24.522001266479492" enable-background="new 0 0 30 30" xml:space="preserve">
<g>
	<path fill="#0000FF" d="M10.551,4.21c0.128,0,0.229,0.027,0.305,0.08c0.074,0.054,0.218,0.24,0.432,0.56l0.544,0.8   c0.149,0.214,0.224,0.421,0.224,0.624c0,0.203-0.102,0.379-0.304,0.528c-0.203,0.149-0.432,0.427-0.688,0.832   c-0.257,0.406-0.438,0.79-0.545,1.152c-0.427,1.451-0.923,2.395-1.487,2.832c-0.565,0.438-0.972,0.859-1.216,1.264   c-0.246,0.406-0.368,0.939-0.368,1.6c0,0.235,0.117,0.406,0.352,0.512c0.896,0.363,1.344,0.736,1.344,1.121   c0,0.085-0.021,0.202-0.063,0.352c-0.107,0.32-0.229,1.493-0.368,3.52c-0.139,2.027-0.219,3.414-0.24,4.16   s-0.026,1.248-0.016,1.504s-0.037,0.49-0.145,0.704c-0.106,0.213-0.399,0.368-0.88,0.464c-0.479,0.096-0.832,0.145-1.056,0.145   s-0.336-0.06-0.336-0.176c0-0.118,0.08-0.315,0.24-0.593c0.16-0.277,0.283-0.848,0.368-1.712c0.085-0.863,0.128-1.957,0.128-3.279   c0-1.323-0.085-2.331-0.256-3.024c-0.171-0.693-0.31-1.04-0.416-1.04c-0.107,0-0.213,0.053-0.32,0.16   c-0.384,0.384-0.982,0.906-1.792,1.568c-0.811,0.66-1.312,0.991-1.504,0.991c-0.192,0-0.288-0.116-0.288-0.353   c0-0.234,0.304-0.868,0.912-1.903c0.608-1.034,0.987-1.647,1.136-1.84c0.426-0.512,1.088-1.653,1.984-3.424   c0.896-1.771,1.542-3.146,1.936-4.128c0.395-0.981,0.778-1.834,1.152-2.56c0.373-0.725,0.629-1.146,0.768-1.264   S10.38,4.21,10.551,4.21z M25.527,21.555c0.276,0,0.475,0.064,0.592,0.191c0.117,0.129,0.256,0.465,0.416,1.008   c0.16,0.545,0.24,0.955,0.24,1.232c0,0.405-0.123,0.608-0.368,0.608c-0.246,0-0.507-0.054-0.784-0.16   c-0.96-0.384-2.565-0.576-4.816-0.576s-4.362,0.134-6.336,0.399c-1.974,0.268-3.151,0.571-3.536,0.912   c-0.106,0.086-0.219,0.129-0.336,0.129s-0.219-0.188-0.304-0.561s-0.128-0.693-0.128-0.96s0.037-0.432,0.112-0.495   c0.074-0.064,0.229-0.107,0.464-0.129c1.429-0.148,2.72-0.416,3.872-0.8c1.151-0.384,1.855-0.592,2.111-0.624   c0.257-0.031,0.427-0.123,0.513-0.271c0.085-0.149,0.128-0.469,0.128-0.961c0-0.49-0.027-0.805-0.08-0.943   c-0.054-0.139-0.176-0.208-0.368-0.208c-1.323,0-2.219,0.128-2.688,0.384c-0.086,0.043-0.188,0.064-0.305,0.064   s-0.234-0.059-0.352-0.176c-0.118-0.117-0.188-0.305-0.208-0.561c-0.021-0.256-0.091-0.469-0.208-0.641   c-0.118-0.17-0.176-0.373-0.176-0.607s0.085-0.416,0.256-0.544c0.17-0.128,0.282-0.187,0.336-0.177   c0.053,0.012,0.202,0.017,0.448,0.017c0.244,0,0.783-0.085,1.615-0.256s1.296-0.276,1.393-0.319   c0.096-0.043,0.144-0.214,0.144-0.513c0-1.024-0.075-1.579-0.224-1.664c-0.149-0.085-0.565-0.128-1.248-0.128   c-0.684,0-1.228,0.102-1.632,0.304c-0.406,0.203-0.651,0.304-0.736,0.304c-0.214,0-0.464-0.336-0.752-1.008   c-0.288-0.672-0.432-1.136-0.432-1.392s0.244-0.384,0.735-0.384c1.345-0.021,3.424-0.352,6.24-0.992   c0.875-0.213,1.616-0.331,2.224-0.352c0.608-0.021,1.045-0.069,1.313-0.144c0.267-0.075,0.442-0.112,0.528-0.112   c0.298,0,0.549,0.304,0.752,0.912c0.202,0.608,0.304,1.024,0.304,1.248c0,0.224-0.043,0.384-0.128,0.48   c-0.086,0.096-0.225,0.144-0.416,0.144h-0.32c-0.319,0-0.726,0.08-1.216,0.24c-0.491,0.16-0.96,0.304-1.408,0.432   c-0.171,0.043-0.288,0.149-0.352,0.32c-0.064,0.171-0.097,0.448-0.097,0.832c0,0.384,0.027,0.619,0.08,0.704   c0.054,0.085,0.192,0.117,0.416,0.096c0.225-0.021,0.453-0.032,0.688-0.032c0.234,0,0.564,0.021,0.992,0.064   c0.426,0.043,0.704,0.117,0.832,0.225c0.128,0.106,0.191,0.319,0.191,0.639c0,0.769-0.085,1.185-0.256,1.248l-2.688,0.769   c-0.192,0.043-0.32,0.106-0.385,0.192c-0.063,0.085-0.117,0.32-0.159,0.703l-0.097,1.313c0,0.171,0.048,0.277,0.145,0.32   c0.096,0.043,0.698,0.102,1.808,0.176s1.984,0.111,2.624,0.111L25.527,21.555z M18.231,3.442c0.256,0,0.666,0.31,1.231,0.928   c0.565,0.619,1.019,1.227,1.36,1.824c0.341,0.598,0.512,1.051,0.512,1.36c0,0.31-0.096,0.555-0.288,0.736   c-0.191,0.182-0.47,0.272-0.832,0.272c-0.363,0-0.949-0.197-1.76-0.592c-0.812-0.395-1.216-0.837-1.216-1.328   c0-0.149,0.042-0.576,0.128-1.28c0.085-0.704,0.154-1.136,0.208-1.296c0.053-0.16,0.139-0.304,0.256-0.432   C17.948,3.506,18.081,3.442,18.231,3.442z" stroke-width="1"/>
</g>
</svg>