<svg xmlns="http://www.w3.org/2000/svg" xmlns:xlink="http://www.w3.org/1999/xlink" version="1.1" id="图层_1" x="0px" y="0px" width="27.051002502441406" height="28.873998641967773" viewBox="0.484001100063324 1.2779996395111084 27.051002502441406 28.873998641967773" enable-background="new 0 0 30 30" xml:space="preserve">
<g>
	<path fill="#0000FF" d="M10.583,14.354c0-0.341,0.091-0.512,0.272-0.512c0.181,0,0.464,0.038,0.848,0.112s0.65,0.171,0.8,0.288   s0.224,0.304,0.224,0.56l-0.031,0.32c0,0.128,0.085,0.192,0.256,0.192l1.664-0.16c0.576-0.064,0.912-0.117,1.008-0.16   c0.096-0.042,0.144-0.144,0.144-0.304c0-0.16-0.037-0.442-0.111-0.848c-0.075-0.405-0.24-0.608-0.496-0.608l-2.433,0.192   c-0.575,0-1.199-0.331-1.871-0.992c-0.673-0.661-1.009-1.792-1.009-3.392c0-0.533,0.026-1.099,0.08-1.696s0.08-1.067,0.08-1.408   c0-0.341-0.011-0.683-0.032-1.024L9.879,3.922c0-0.128,0.032-0.224,0.096-0.288c0.064-0.064,0.288-0.144,0.673-0.24   c0.384-0.096,0.672-0.144,0.863-0.144c0.192,0,0.341-0.01,0.448-0.032l1.28-0.384c0.725-0.213,1.396-0.442,2.016-0.688   c0.618-0.245,1.131-0.368,1.536-0.368s0.8,0.064,1.184,0.192c0.385,0.128,0.811,0.325,1.28,0.592   C19.724,2.83,19.985,3,20.039,3.075c0.053,0.075,0.08,0.155,0.08,0.24c0,0.256-0.256,0.582-0.769,0.976   c-0.512,0.395-0.869,0.779-1.071,1.152c-0.203,0.374-0.326,0.758-0.368,1.152c-0.043,0.395-0.149,0.683-0.32,0.864   c-0.171,0.182-0.806,0.438-1.904,0.768c-1.099,0.331-2.405,0.624-3.92,0.88c-0.319,0.064-0.479,0.288-0.479,0.672   c0,0.619,0.208,1.03,0.624,1.232s0.944,0.304,1.584,0.304s1.418-0.085,2.336-0.256c0.917-0.17,1.61-0.4,2.08-0.688   c0.469-0.288,0.794-0.603,0.976-0.944s0.283-0.864,0.305-1.568c0.021-0.32,0.122-0.48,0.304-0.48c0.181,0,0.427,0.368,0.736,1.104   c0.309,0.736,0.464,1.435,0.464,2.096c0,0.448,0.048,0.768,0.144,0.96s0.145,0.341,0.145,0.448c0,0.299-0.166,0.523-0.496,0.672   c-0.331,0.149-0.667,0.245-1.009,0.288c-0.341,0.043-0.575,0.075-0.703,0.096c-0.128,0.021-0.229,0.267-0.305,0.736   c-0.075,0.47-0.111,0.774-0.111,0.912c0,0.139,0.128,0.208,0.384,0.208c0.384,0,1.264-0.037,2.64-0.112s2.384-0.149,3.024-0.224   c0.64-0.075,1.061-0.112,1.264-0.112c0.202,0,0.357,0.075,0.464,0.224l0.513,0.928c0.256,0.448,0.384,0.854,0.384,1.216   c0,0.704-0.16,1.057-0.48,1.057c-0.085,0-0.245-0.021-0.479-0.064c-3.158-0.619-5.622-0.928-7.393-0.928   c-0.362,0-0.544,0.149-0.544,0.447l-0.16,3.681c-0.043,1.046-0.096,1.781-0.159,2.208c-0.064,0.427-0.097,0.885-0.097,1.376   c0,0.49,0.064,0.981,0.192,1.472c0.191,0.661,0.288,1.461,0.288,2.4c0,0.789-0.438,1.184-1.313,1.184   c-0.447,0-0.672-0.213-0.672-0.641c0-0.105,0.026-0.223,0.08-0.352c0.053-0.127,0.08-0.336,0.08-0.623   c0-0.289-0.069-1.473-0.208-3.553s-0.251-4.421-0.336-7.023c0-0.213-0.149-0.32-0.448-0.32l-1.952,0.191   c-0.661,0.086-1.029,0.14-1.104,0.16c-0.075,0.021-0.123,0.166-0.145,0.432c-0.021,0.268-0.111,0.662-0.271,1.185   s-0.24,0.966-0.24,1.328s0.026,0.693,0.08,0.992c0.053,0.299,0.08,0.56,0.08,0.784c0,0.224-0.112,0.506-0.336,0.848   c-0.225,0.342-0.485,0.672-0.784,0.992s-0.651,0.602-1.056,0.848c-0.406,0.245-0.907,0.448-1.504,0.607   c-0.598,0.16-1.046,0.24-1.344,0.24c-0.299,0-0.448-0.053-0.448-0.16c0-0.106,0.16-0.319,0.48-0.64   c0.726-0.704,1.264-1.284,1.616-1.743c0.352-0.459,0.693-1.003,1.023-1.633c0.331-0.629,0.561-1.291,0.688-1.984   c0.128-0.692,0.192-1.215,0.192-1.567s-0.145-0.528-0.433-0.528s-1.301,0.102-3.04,0.305c-1.739,0.203-2.843,0.357-3.312,0.463   c-0.47,0.107-0.806,0.273-1.008,0.496c-0.203,0.225-0.405,0.336-0.608,0.336c-0.203,0-0.416-0.266-0.64-0.799   c-0.224-0.533-0.336-0.859-0.336-0.977s0.042-0.203,0.128-0.256c0.085-0.053,0.304-0.112,0.656-0.176   c0.352-0.064,0.922-0.139,1.712-0.225c0.789-0.084,2.112-0.261,3.968-0.527c1.855-0.267,2.842-0.438,2.96-0.512   c0.117-0.075,0.176-0.187,0.176-0.336V14.354z M11.863,7.219c0.085,0,0.666-0.197,1.744-0.592c1.076-0.395,1.685-0.725,1.823-0.992   c0.139-0.266,0.208-0.528,0.208-0.784s-0.085-0.458-0.256-0.608c-0.171-0.149-0.373-0.224-0.607-0.224   c-0.235,0-0.704,0.203-1.408,0.608c-0.704,0.406-1.142,0.64-1.313,0.704s-0.293,0.32-0.368,0.768   c-0.074,0.448-0.111,0.726-0.111,0.832C11.575,7.123,11.671,7.219,11.863,7.219z" stroke-width="1"/>
</g>
</svg>