<svg xmlns="http://www.w3.org/2000/svg" xmlns:xlink="http://www.w3.org/1999/xlink" version="1.1" id="图层_1" x="0px" y="0px" width="26.08799934387207" height="25.352001190185547" viewBox="0.6430013179779053 2.622999906539917 26.08799934387207 25.352001190185547" enable-background="new 0 0 30 30" xml:space="preserve">
<g>
	<path fill="#0000FF" d="M9.943,3.123c0.426,0,0.88,0.16,1.359,0.48c0.48,0.32,0.721,0.555,0.721,0.704   c0,0.085-0.15,0.32-0.448,0.704c-1.259,1.536-2.08,3.2-2.464,4.992c-0.149,0.726-0.342,1.291-0.576,1.696   c-0.235,0.405-0.353,0.747-0.353,1.024s0.054,0.48,0.16,0.608s0.438,0.331,0.992,0.608c0.234,0.128,0.352,0.32,0.352,0.576   c0,0.256-0.026,0.528-0.079,0.816C9.554,15.619,9.431,17,9.239,19.475c-0.086,1.771-0.203,3.237-0.353,4.4   c-0.149,1.162-0.299,1.86-0.447,2.096c-0.15,0.234-0.513,0.352-1.089,0.352c-0.405,0-0.607-0.224-0.607-0.672   c0-0.149,0.01-0.32,0.032-0.512c0.256-2.368,0.384-4.234,0.384-5.6c0-0.789-0.048-1.424-0.144-1.904   c-0.096-0.48-0.198-0.763-0.304-0.848c-0.107-0.086-0.267-0.129-0.48-0.129c-0.213,0-0.438,0.086-0.672,0.256   c-0.704,0.534-1.499,1.072-2.384,1.617c-0.885,0.543-1.445,0.815-1.68,0.815c-0.235,0-0.352-0.134-0.352-0.4   s0.395-0.923,1.184-1.968c0.789-1.045,1.418-1.829,1.888-2.352c0.469-0.522,0.981-1.322,1.536-2.4   c0.555-1.077,0.944-2.048,1.168-2.912C7.143,8.451,7.591,7.31,8.263,5.891c0.672-1.418,1.083-2.234,1.232-2.448   C9.644,3.229,9.794,3.123,9.943,3.123z M26.231,9.555c0,0.107-0.129,0.32-0.385,0.64c-0.256,0.32-0.447,0.699-0.576,1.136   c-0.128,0.438-0.319,1.573-0.575,3.408c-0.256,1.836-0.433,3.238-0.528,4.208c-0.096,0.972-0.262,2.011-0.496,3.12   c-0.235,1.109-0.522,2.225-0.864,3.344c-0.341,1.121-0.544,1.744-0.607,1.873c-0.064,0.127-0.16,0.191-0.288,0.191   s-0.288-0.064-0.48-0.191c-0.191-0.129-0.683-0.416-1.472-0.865c-0.789-0.447-1.648-0.98-2.576-1.6s-1.68-1.291-2.256-2.016   c-0.171-0.192-0.336-0.288-0.496-0.288s-0.314,0.063-0.464,0.192c-0.96,0.789-1.798,1.307-2.512,1.551   c-0.715,0.246-1.26,0.369-1.632,0.369c-0.374,0-0.561-0.118-0.561-0.353s0.171-0.479,0.512-0.735   c1.365-1.109,2.299-1.974,2.801-2.593c0.501-0.618,1.002-1.461,1.504-2.528c0.501-1.066,0.922-2.324,1.264-3.775   c0.341-1.451,0.512-2.539,0.512-3.264c0-0.448-0.16-0.672-0.479-0.672c-0.491,0-1.494,0.213-3.008,0.64   c-0.086,0.021-0.16,0.032-0.225,0.032c-0.213,0-0.399-0.192-0.56-0.576c-0.16-0.384-0.24-0.651-0.24-0.8   c0-0.341,0.213-0.512,0.64-0.512s1.142-0.139,2.145-0.416c2.986-0.853,5.242-1.28,6.768-1.28s2.763,0.224,3.712,0.672   C25.756,8.915,26.231,9.277,26.231,9.555z M14.807,13.842c0,0.15-0.053,0.32-0.159,0.512c-0.918,1.601-1.425,2.565-1.521,2.896   c-0.096,0.332-0.32,0.496-0.672,0.496c-0.353,0-0.678-0.197-0.977-0.592s-0.522-0.656-0.672-0.783   c-0.149-0.129-0.224-0.268-0.224-0.416c0-0.363,0.581-0.865,1.744-1.504c1.162-0.64,1.866-0.96,2.112-0.96   C14.684,13.491,14.807,13.608,14.807,13.842z M21.879,13.17c0-1.258-0.165-2.128-0.496-2.608s-0.709-0.72-1.136-0.72   c-0.726,0-1.232,0.262-1.521,0.784c-0.287,0.523-0.533,1.264-0.735,2.224c-0.203,0.96-0.556,2.102-1.057,3.424   c-0.501,1.323-0.752,2.251-0.752,2.784l0.128,0.96c0,0.362-0.139,0.71-0.416,1.04c-0.277,0.331-0.416,0.587-0.416,0.768   c0,0.182,0.411,0.459,1.232,0.832c0.821,0.374,1.521,0.561,2.096,0.561c0.576,0,1.045-0.262,1.408-0.784   c0.362-0.522,0.73-1.786,1.104-3.792C21.692,16.638,21.879,14.813,21.879,13.17z" stroke-width="1"/>
</g>
</svg>