<svg xmlns="http://www.w3.org/2000/svg" xmlns:xlink="http://www.w3.org/1999/xlink" version="1.1" id="图层_1" x="0px" y="0px" width="27.174999237060547" height="28.681005477905273" viewBox="1.6190004348754883 0.6009937524795532 27.174999237060547 28.681005477905273" style="enable-background:new 0 0 30 30;" xml:space="preserve">
  <g>
    <g>
      <path style="fill:#0000FF;" d="M12.454,14.285c0,0.171-0.091,0.32-0.272,0.448c-0.181,0.128-0.432,0.443-0.752,0.944&#13;&#10;&#9;&#9;c-0.319,0.501-0.848,1.397-1.584,2.688c-0.735,1.291-1.205,2.148-1.407,2.576c-0.203,0.426-0.305,0.735-0.305,0.928&#13;&#10;&#9;&#9;c0,0.619-0.453,1.184-1.359,1.695c-0.907,0.512-1.873,0.768-2.896,0.768c-0.299,0-0.667-0.031-1.104-0.096&#13;&#10;&#9;&#9;c-0.438-0.063-0.656-0.16-0.656-0.287c0-0.234,0.832-0.832,2.496-1.793c1.13-0.64,1.952-1.312,2.464-2.016s0.768-1.136,0.768-1.296&#13;&#10;&#9;&#9;s-0.085-0.261-0.256-0.304s-0.368-0.059-0.592-0.049c-0.224,0.012-0.357,0.017-0.4,0.017c-0.427,0-0.747-0.192-0.959-0.576&#13;&#10;&#9;&#9;c-0.107-0.192-0.224-0.288-0.352-0.288s-0.251,0.021-0.368,0.064c-0.118,0.043-0.256,0.063-0.416,0.063s-0.24-0.096-0.24-0.288&#13;&#10;&#9;&#9;c0-0.191,0.106-0.416,0.32-0.672c0.981-1.237,1.616-2.261,1.904-3.072c0.288-0.811,0.432-1.301,0.432-1.472&#13;&#10;&#9;&#9;c0-0.213-0.102-0.293-0.304-0.24c-0.203,0.053-0.348,0.08-0.433,0.08c-0.32,0-0.571-0.309-0.751-0.928&#13;&#10;&#9;&#9;c-0.182-0.619-0.272-1.04-0.272-1.264c0-0.224,0.17-0.357,0.512-0.4C6.417,9.432,7.271,9.213,8.23,8.861s1.706-0.576,2.239-0.672&#13;&#10;&#9;&#9;c0.533-0.096,0.832-0.144,0.896-0.144c0.362,0,0.544,0.352,0.544,1.056c0,0.342-0.134,0.576-0.4,0.704s-0.485,0.299-0.655,0.512&#13;&#10;&#9;&#9;l-0.929,1.248c-0.47,0.619-0.741,0.992-0.815,1.12c-0.075,0.128-0.112,0.24-0.112,0.336c0,0.096,0.085,0.144,0.256,0.144&#13;&#10;&#9;&#9;c0.618,0.021,1.307,0.139,2.064,0.352C12.075,13.73,12.454,13.986,12.454,14.285z M8.454,17.037c0.171,0,0.299-0.049,0.384-0.145&#13;&#10;&#9;&#9;s0.176-0.304,0.272-0.624c0.096-0.32,0.144-0.608,0.144-0.864c0-0.619-0.24-0.928-0.72-0.928c-0.48,0-0.892,0.251-1.232,0.752&#13;&#10;&#9;&#9;C6.961,15.73,6.79,16.098,6.79,16.332c0,0.236,0.229,0.412,0.688,0.529S8.262,17.037,8.454,17.037z M28.294,27.053&#13;&#10;&#9;&#9;c0,0.704-0.08,1.168-0.24,1.393c-0.16,0.223-0.379,0.336-0.655,0.336c-0.491,0-1.494-0.326-3.009-0.977s-2.795-1.516-3.84-2.592&#13;&#10;&#9;&#9;c-1.045-1.078-1.931-2.32-2.656-3.729c-0.149-0.299-0.293-0.447-0.432-0.447s-0.422,0.234-0.848,0.703&#13;&#10;&#9;&#9;c-0.427,0.47-0.667,0.795-0.721,0.977c-0.053,0.182-0.149,0.32-0.287,0.416c-0.14,0.096-0.502,0.213-1.089,0.352&#13;&#10;&#9;&#9;s-1.099,0.209-1.535,0.209c-0.438,0-0.987-0.059-1.648-0.177c-0.661-0.116-1.029-0.196-1.104-0.239&#13;&#10;&#9;&#9;c-0.075-0.043-0.112-0.092-0.112-0.145s0.042-0.117,0.128-0.191c0.085-0.075,0.608-0.331,1.568-0.769&#13;&#10;&#9;&#9;c0.96-0.437,1.626-0.72,2-0.849c0.373-0.127,0.778-0.389,1.216-0.783c0.437-0.395,0.832-0.736,1.184-1.024&#13;&#10;&#9;&#9;c0.353-0.288,0.528-0.532,0.528-0.735s-0.054-0.513-0.16-0.929c-0.107-0.416-0.267-0.624-0.48-0.624l-1.216,0.288&#13;&#10;&#9;&#9;c-0.447,0.106-0.971,0.342-1.567,0.704c-0.256,0.171-0.485,0.256-0.688,0.256s-0.475-0.256-0.815-0.768&#13;&#10;&#9;&#9;c-0.342-0.512-0.513-0.896-0.513-1.152s0.128-0.384,0.384-0.384c0.363,0,0.997-0.181,1.904-0.544&#13;&#10;&#9;&#9;c0.906-0.363,1.478-0.635,1.712-0.816c0.234-0.181,0.353-0.368,0.353-0.56c0-0.192-0.048-0.517-0.145-0.976&#13;&#10;&#9;&#9;c-0.096-0.458-0.271-0.688-0.527-0.688c-0.107,0-0.288,0.027-0.544,0.08c-0.257,0.054-0.448,0.107-0.576,0.16&#13;&#10;&#9;&#9;c-0.128,0.054-0.235,0.08-0.32,0.08c-0.299,0-0.587-0.293-0.864-0.88c-0.277-0.586-0.416-0.976-0.416-1.168&#13;&#10;&#9;&#9;c0-0.192,0.16-0.331,0.48-0.416c0.896-0.17,1.498-0.341,1.808-0.512c0.31-0.17,0.464-0.395,0.464-0.672&#13;&#10;&#9;&#9;c0-0.362-0.085-0.843-0.256-1.44c-0.234-0.704-0.379-1.664-0.432-2.88c-0.054-1.216-0.139-2-0.256-2.352&#13;&#10;&#9;&#9;c-0.118-0.352-0.177-0.613-0.177-0.784c0-0.384,0.171-0.597,0.513-0.64c0.341-0.042,0.656-0.064,0.943-0.064&#13;&#10;&#9;&#9;c0.288,0,0.496,0.038,0.624,0.112s0.203,0.171,0.225,0.288c0.021,0.118,0.032,0.454,0.032,1.008s0.068,1.622,0.208,3.2&#13;&#10;&#9;&#9;c0.138,1.579,0.244,2.48,0.319,2.704s0.165,0.336,0.272,0.336c0.106,0,0.245-0.032,0.416-0.096&#13;&#10;&#9;&#9;c0.896-0.341,1.504-0.512,1.824-0.512c0.148,0,0.256,0.128,0.319,0.384l0.225,0.864c0,0.406-0.385,0.832-1.152,1.28&#13;&#10;&#9;&#9;c-0.555,0.32-0.907,0.566-1.056,0.736c-0.15,0.171-0.225,0.352-0.225,0.544s0.037,0.48,0.112,0.864&#13;&#10;&#9;&#9;c0.074,0.384,0.176,0.576,0.304,0.576s0.277-0.042,0.448-0.128c1.109-0.533,1.855-0.8,2.24-0.8c0.256,0,0.416,0.149,0.479,0.448&#13;&#10;&#9;&#9;c0.064,0.299,0.097,0.523,0.097,0.672c0,0.149-0.038,0.283-0.112,0.4c-0.075,0.118-0.357,0.384-0.849,0.8&#13;&#10;&#9;&#9;c-0.49,0.416-0.906,0.741-1.247,0.976c-0.342,0.235-0.513,0.464-0.513,0.688c0,0.223,0.043,0.496,0.128,0.815&#13;&#10;&#9;&#9;s0.187,0.479,0.305,0.479c0.116,0,0.224-0.025,0.319-0.08c0.097-0.053,0.353-0.164,0.769-0.336c0.416-0.17,0.709-0.352,0.88-0.543&#13;&#10;&#9;&#9;c0.17-0.192,0.352-0.289,0.544-0.289c0.191,0,0.421,0.203,0.688,0.608s0.4,0.683,0.4,0.832s-0.086,0.3-0.256,0.448&#13;&#10;&#9;&#9;c-0.171,0.149-0.491,0.352-0.96,0.607c-0.47,0.256-0.949,0.48-1.44,0.672c-0.277,0.107-0.416,0.294-0.416,0.561&#13;&#10;&#9;&#9;c0,0.268,0.368,1.035,1.104,2.305c0.735,1.27,1.563,2.133,2.479,2.592c0.917,0.458,1.621,0.688,2.112,0.688&#13;&#10;&#9;&#9;c0.277,0,0.464-0.107,0.56-0.32c0.097-0.213,0.208-0.703,0.336-1.472c0.129-0.769,0.192-1.504,0.192-2.208l-0.063-1.473&#13;&#10;&#9;&#9;c0-0.361,0.106-0.543,0.319-0.543c0.128,0,0.384,0.287,0.769,0.863c0.384,0.576,0.592,1.189,0.624,1.84&#13;&#10;&#9;&#9;c0.031,0.651,0.133,1.34,0.304,2.064S28.294,26.113,28.294,27.053z M23.014,6.445c0,0.277-0.111,0.512-0.336,0.704&#13;&#10;&#9;&#9;c-0.224,0.192-0.501,0.288-0.832,0.288S21.11,7.362,20.63,7.213c-0.479-0.149-0.789-0.288-0.928-0.416&#13;&#10;&#9;&#9;c-0.139-0.128-0.246-0.379-0.32-0.752c-0.075-0.373-0.111-0.683-0.111-0.928c0-0.245,0.042-0.501,0.128-0.768&#13;&#10;&#9;&#9;c0.085-0.267,0.187-0.4,0.304-0.4s0.282,0.085,0.496,0.256c0.213,0.171,0.527,0.342,0.943,0.512&#13;&#10;&#9;&#9;c0.416,0.171,0.832,0.416,1.248,0.736S23.014,6.104,23.014,6.445z" stroke-width="1"/>
    </g>
    <g/>
    <g/>
    <g/>
    <g/>
    <g/>
    <g/>
    <g/>
    <g/>
    <g/>
    <g/>
    <g/>
    <g/>
    <g/>
    <g/>
    <g/>
  </g>
</svg>