<svg xmlns="http://www.w3.org/2000/svg" xmlns:xlink="http://www.w3.org/1999/xlink" version="1.1" id="图层_1" x="0px" y="0px" width="26.469999313354492" height="24.579994201660156" viewBox="0.7880003452301025 3.2280054092407227 26.469999313354492 24.579994201660156" style="enable-background:new 0 0 30 30;" xml:space="preserve">
  <g>
    <g>
      <path style="fill:#0000FF;" d="M13.03,8.493c0.832,0,1.248,0.267,1.248,0.8c0,0.235-0.08,0.411-0.24,0.528&#13;&#10;&#9;&#9;s-0.411,0.347-0.752,0.688c-0.342,0.341-0.635,0.555-0.88,0.64c-0.246,0.085-0.513,0.128-0.8,0.128c-0.288,0-0.55-0.133-0.784-0.4&#13;&#10;&#9;&#9;c-0.235-0.266-0.544-0.522-0.929-0.768C9.51,9.864,9.254,9.741,9.126,9.741c-0.384,0-0.912,0.411-1.584,1.232&#13;&#10;&#9;&#9;c-0.672,0.822-1.008,1.525-1.008,2.112c0,0.587,0.202,0.88,0.607,0.88s0.992-0.149,1.761-0.448c0.98-0.405,1.749-0.608,2.304-0.608&#13;&#10;&#9;&#9;c0.256,0,0.442,0.118,0.56,0.352c0.117,0.235,0.177,0.421,0.177,0.56s-0.166,0.4-0.496,0.784c-0.331,0.384-0.699,0.683-1.104,0.896&#13;&#10;&#9;&#9;c-0.405,0.214-0.607,0.544-0.607,0.992c0,0.15,0.048,0.225,0.144,0.225s0.187-0.011,0.272-0.032&#13;&#10;&#9;&#9;c0.554-0.171,1.002-0.256,1.344-0.256c0.341,0,0.549,0.043,0.624,0.128c0.074,0.086,0.112,0.31,0.112,0.672&#13;&#10;&#9;&#9;c0,0.363-0.118,0.667-0.353,0.912c-0.235,0.246-1.045,0.721-2.432,1.424c-0.363,0.192-0.641,0.545-0.832,1.057&#13;&#10;&#9;&#9;c-0.192,0.512-0.288,0.843-0.288,0.992c0,0.426,0.229,0.64,0.688,0.64s1.045-0.202,1.761-0.608c0.714-0.404,1.274-0.863,1.68-1.376&#13;&#10;&#9;&#9;c0.106-0.128,0.208-0.192,0.304-0.192c0.097,0,0.145,0.086,0.145,0.256c0,0.449-0.331,1.158-0.992,2.129&#13;&#10;&#9;&#9;c-0.662,0.971-1.451,1.744-2.368,2.32c-0.214,0.127-0.432,0.271-0.656,0.432c-0.224,0.16-0.411,0.24-0.56,0.24&#13;&#10;&#9;&#9;c-0.149,0-0.288-0.107-0.416-0.32s-0.277-0.768-0.448-1.664s-0.277-1.637-0.32-2.225c-0.043-0.586-0.091-0.916-0.144-0.991&#13;&#10;&#9;&#9;c-0.054-0.075-0.144-0.112-0.272-0.112c-0.362,0-0.928,0.182-1.696,0.544c-0.213,0.106-0.4,0.16-0.56,0.16&#13;&#10;&#9;&#9;c-0.16,0-0.315-0.208-0.464-0.624c-0.149-0.416-0.224-0.699-0.224-0.848c0-0.342,0.224-0.523,0.672-0.545&#13;&#10;&#9;&#9;c0.448-0.021,0.96-0.138,1.536-0.352c0.576-0.213,0.933-0.373,1.072-0.48c0.138-0.105,0.208-0.352,0.208-0.735&#13;&#10;&#9;&#9;s-0.129-0.827-0.385-1.328s-0.49-0.752-0.704-0.752c-0.213,0-0.427,0.107-0.64,0.32c-0.683,0.597-1.451,1.003-2.304,1.216&#13;&#10;&#9;&#9;s-1.392,0.32-1.616,0.32s-0.336-0.091-0.336-0.272c0-0.181,0.149-0.479,0.448-0.896c0.299-0.416,0.96-1.178,1.984-2.288&#13;&#10;&#9;&#9;c0.725-0.811,1.221-1.477,1.488-2c0.267-0.522,0.773-1.344,1.52-2.464c0.747-1.12,1.265-1.813,1.553-2.08&#13;&#10;&#9;&#9;c0.288-0.267,0.56-0.613,0.815-1.04c0.256-0.426,0.629-0.912,1.12-1.456c0.49-0.544,0.906-0.816,1.248-0.816&#13;&#10;&#9;&#9;c0.341,0,0.683,0.251,1.024,0.752c0.341,0.501,0.512,0.859,0.512,1.072c0,0.427-0.256,0.8-0.768,1.12&#13;&#10;&#9;&#9;c-0.235,0.15-0.523,0.443-0.864,0.88c-0.342,0.438-0.512,0.726-0.512,0.864c0,0.139,0.234,0.208,0.703,0.208&#13;&#10;&#9;&#9;c0.171,0,0.4-0.021,0.688-0.064C12.534,8.514,12.795,8.493,13.03,8.493z M26.758,11.053c0,0.149-0.075,0.363-0.224,0.64&#13;&#10;&#9;&#9;c-0.149,0.277-0.246,0.917-0.288,1.92c-0.128,1.984-0.396,3.963-0.8,5.936c-0.406,1.973-0.88,3.707-1.424,5.199&#13;&#10;&#9;&#9;c-0.545,1.494-0.854,2.293-0.929,2.4s-0.176,0.16-0.304,0.16c-0.235,0-0.918-0.24-2.048-0.72c-1.131-0.479-1.787-0.773-1.968-0.88&#13;&#10;&#9;&#9;c-0.182-0.107-0.438-0.342-0.769-0.704c-0.331-0.363-0.496-0.587-0.496-0.673c0-0.085,0.054-0.127,0.16-0.127&#13;&#10;&#9;&#9;s0.416,0.042,0.928,0.127c0.513,0.086,0.997,0.129,1.456,0.129s0.801-0.064,1.024-0.192s0.442-0.437,0.656-0.928&#13;&#10;&#9;&#9;c0.213-0.491,0.453-1.237,0.72-2.24s0.485-2.165,0.656-3.487c0.17-1.323,0.256-2.464,0.256-3.425c0-0.96-0.299-1.664-0.896-2.112&#13;&#10;&#9;&#9;c-0.598-0.448-1.173-0.672-1.728-0.672c-0.47,0-1.339,0.166-2.608,0.496c-1.27,0.331-2.191,0.725-2.768,1.184&#13;&#10;&#9;&#9;c-0.576,0.459-1.109,0.688-1.601,0.688c-0.191,0-0.288-0.101-0.288-0.304c0-0.203,0.305-0.858,0.912-1.968&#13;&#10;&#9;&#9;c0.608-1.109,1.425-2.517,2.448-4.224c1.024-1.707,1.686-2.709,1.984-3.008C19.12,3.97,19.35,3.821,19.51,3.821&#13;&#10;&#9;&#9;s0.533,0.224,1.12,0.672c0.587,0.448,0.88,0.806,0.88,1.072c0,0.267-0.283,0.699-0.848,1.296c-0.565,0.597-0.934,0.949-1.104,1.056&#13;&#10;&#9;&#9;c-0.171,0.107-0.527,0.459-1.071,1.056c-0.544,0.598-0.816,0.971-0.816,1.12c0,0.149,0.16,0.203,0.48,0.16&#13;&#10;&#9;&#9;c1.258-0.149,2.49-0.224,3.695-0.224s2.251,0.069,3.137,0.208c0.885,0.139,1.402,0.261,1.552,0.368&#13;&#10;&#9;&#9;C26.683,10.712,26.758,10.861,26.758,11.053z M15.75,14.957c0.192,0,0.485,0.166,0.88,0.496c0.395,0.331,0.763,0.56,1.104,0.688&#13;&#10;&#9;&#9;c1.173,0.47,1.76,1.003,1.76,1.6c0,0.235-0.219,0.459-0.656,0.672c-0.438,0.214-0.886,0.32-1.344,0.32&#13;&#10;&#9;&#9;c-0.459,0-0.812-0.037-1.056-0.111c-0.246-0.074-0.428-0.192-0.545-0.353c-0.117-0.159-0.271-0.554-0.464-1.185&#13;&#10;&#9;&#9;c-0.191-0.629-0.288-1.071-0.288-1.327c0-0.256,0.059-0.453,0.177-0.592C15.435,15.026,15.579,14.957,15.75,14.957z" stroke-width="1"/>
    </g>
    <g/>
    <g/>
    <g/>
    <g/>
    <g/>
    <g/>
    <g/>
    <g/>
    <g/>
    <g/>
    <g/>
    <g/>
    <g/>
    <g/>
    <g/>
  </g>
</svg>