<svg xmlns="http://www.w3.org/2000/svg" xmlns:xlink="http://www.w3.org/1999/xlink" version="1.1" id="图层_1" x="0px" y="0px" width="21.288000106811523" height="25.287002563476562" viewBox="3.4589993953704834 3.3909997940063477 21.288000106811523 25.287002563476562" enable-background="new 0 0 30 30" xml:space="preserve">
<g>
	<path fill="#0000FF" d="M7.351,11.827c0,0.085-0.031,0.213-0.096,0.384c-0.427,1.216-0.651,2.592-0.672,4.127   c0,0.32-0.038,0.875-0.112,1.664c-0.075,0.79-0.144,1.334-0.208,1.633c-0.235,0.96-0.352,2.016-0.352,3.168l0.064,0.992   c0,0.533-0.182,0.8-0.544,0.8c-0.363,0-0.619,0.053-0.768,0.159c-0.085,0.043-0.16,0.064-0.224,0.064   c-0.213,0-0.32-0.213-0.32-0.64c0-0.214,0.021-0.618,0.064-1.216c0.149-1.707,0.224-3.861,0.224-6.465   c0-2.602-0.128-4.224-0.384-4.864c-0.043-0.128-0.064-0.245-0.064-0.352c0-0.341,0.245-0.512,0.736-0.512   c0.235,0,0.736,0.112,1.504,0.336C6.967,11.331,7.351,11.57,7.351,11.827z M10.487,8.274c0,0.213-0.069,0.379-0.208,0.496   c-0.14,0.118-0.288,0.176-0.448,0.176S9.34,8.846,8.839,8.643C8.338,8.44,7.756,8.243,7.095,8.05   C6.711,7.944,6.519,7.656,6.519,7.187c0-0.128,0.021-0.32,0.064-0.576c0.042-0.256,0.064-0.544,0.064-0.864   s0.064-0.661,0.192-1.024S7.095,4.13,7.223,4.035c0.128-0.096,0.353-0.144,0.672-0.144c0.32,0,0.545,0.246,0.673,0.736   c0.17,0.619,0.532,1.27,1.088,1.952C10.21,7.24,10.487,7.806,10.487,8.274z M18.807,13.011c0,0.299-0.213,0.565-0.64,0.8   c-0.128,0.064-0.251,0.166-0.368,0.304s-0.288,0.4-0.512,0.784c-0.224,0.384-0.353,0.624-0.384,0.721   c-0.032,0.096-0.048,0.261-0.048,0.496l0.063,1.119c0,0.533-0.363,0.801-1.088,0.801c-0.96,0-2.197,0.202-3.712,0.607   c-0.171,0.043-0.315,0.064-0.433,0.064s-0.239-0.086-0.367-0.256c-0.214-0.32-0.576-0.684-1.088-1.089   c-0.278-0.234-0.598-0.843-0.961-1.823c-0.362-0.981-0.544-1.675-0.544-2.081c0-0.405,0.075-0.661,0.225-0.768   c0.148-0.106,0.458-0.16,0.928-0.16c0.769,0,1.669-0.203,2.704-0.608c1.034-0.405,1.989-0.608,2.864-0.608   c0.874,0,1.652,0.192,2.336,0.576C18.466,12.274,18.807,12.648,18.807,13.011z M24.247,6.099c0,0.171-0.096,0.416-0.288,0.736   c-0.427,0.683-0.64,1.899-0.64,3.648c0,0.747,0.026,1.931,0.08,3.552c0.053,1.622,0.106,2.741,0.159,3.36   c0.054,0.619,0.08,2.048,0.08,4.288l-0.031,3.328c0,0.532,0.021,1.024,0.063,1.472l0.16,1.088c0,0.404-0.182,0.607-0.544,0.607   c-0.256,0-0.544-0.105-0.864-0.318c-1.088-0.684-1.92-1.132-2.496-1.345c-1.344-0.47-2.438-1.003-3.279-1.601   c-0.844-0.598-1.265-1.023-1.265-1.279c0-0.107,0.059-0.16,0.176-0.16s0.229,0.021,0.336,0.064   c0.363,0.148,1.051,0.309,2.064,0.479c1.013,0.171,1.733,0.256,2.16,0.256s0.692-0.155,0.8-0.464   c0.106-0.309,0.16-1.221,0.16-2.736c0-1.514-0.08-3.76-0.24-6.736s-0.304-4.826-0.432-5.552c-0.128-0.725-0.4-1.285-0.816-1.68   c-0.416-0.395-0.992-0.592-1.728-0.592c-0.736,0-1.568,0.272-2.496,0.816s-1.584,1.008-1.968,1.392   c-0.107,0.107-0.225,0.16-0.353,0.16s-0.235-0.074-0.32-0.224c-0.319-0.555-0.565-0.917-0.735-1.088   c-0.171-0.17-0.256-0.309-0.256-0.416c0-0.426,0.538-0.81,1.615-1.152c1.077-0.341,2.006-0.554,2.784-0.64   c0.778-0.085,1.69-0.256,2.736-0.512c0.213-0.064,0.656-0.096,1.328-0.096s1.515,0.128,2.527,0.384   C23.74,5.395,24.247,5.714,24.247,6.099z M12.887,16.115c0.769,0,1.222-0.246,1.36-0.737c0.139-0.49,0.208-0.896,0.208-1.216   c0-0.469-0.203-0.704-0.608-0.704c-0.555,0-1.014,0.182-1.376,0.544c-0.362,0.363-0.544,0.758-0.544,1.184   c0,0.213,0.112,0.421,0.336,0.624C12.487,16.014,12.695,16.115,12.887,16.115z" stroke-width="1"/>
</g>
</svg>