<svg xmlns="http://www.w3.org/2000/svg" xmlns:xlink="http://www.w3.org/1999/xlink" version="1.1" id="图层_1" x="0px" y="0px" width="28.35999870300293" height="23.30500030517578" viewBox="1.7149999141693115 3.2890000343322754 28.35999870300293 23.30500030517578" style="enable-background:new 0 0 30 30;" xml:space="preserve">
  <g>
    <g>
      <path style="fill:#0000FF;" d="M11.142,18.221c0,0.191-0.287,0.561-0.863,1.104c-0.576,0.545-1.648,1.27-3.216,2.176&#13;&#10;&#9;&#9;c-1.568,0.908-2.464,1.484-2.688,1.729c-0.224,0.246-0.4,0.368-0.528,0.368c-0.278,0-0.619-0.245-1.024-0.735&#13;&#10;&#9;&#9;c-0.406-0.491-0.608-0.865-0.608-1.121c0-0.191,0.181-0.34,0.544-0.447c0.277-0.086,1.024-0.416,2.24-0.992s2.448-1.109,3.696-1.6&#13;&#10;&#9;&#9;c1.248-0.491,1.946-0.736,2.096-0.736C11.024,17.965,11.142,18.051,11.142,18.221z M14.662,8.301c0.32,0,0.677,0.213,1.072,0.64&#13;&#10;&#9;&#9;c0.395,0.427,0.592,0.773,0.592,1.04c0,0.267-0.096,0.475-0.288,0.624c-0.491,0.427-0.875,0.832-1.152,1.216&#13;&#10;&#9;&#9;c-0.96,1.216-1.803,2.139-2.527,2.768c-0.726,0.629-1.275,0.998-1.648,1.104c-0.373,0.107-1.291,0.523-2.752,1.249&#13;&#10;&#9;&#9;c-1.462,0.725-2.47,1.279-3.024,1.663c-0.256,0.171-0.459,0.257-0.608,0.257c-0.149,0-0.4-0.229-0.752-0.688&#13;&#10;&#9;&#9;c-0.352-0.458-0.528-0.763-0.528-0.912s0.117-0.256,0.352-0.319c0.491-0.15,1.13-0.555,1.92-1.217&#13;&#10;&#9;&#9;c0.79-0.661,1.184-1.141,1.184-1.44c0-0.192-0.117-0.288-0.352-0.288c-0.064,0-0.374,0.08-0.928,0.24&#13;&#10;&#9;&#9;c-0.555,0.16-0.912,0.277-1.072,0.352c-0.16,0.075-0.272,0.112-0.336,0.112c-0.171,0-0.432-0.245-0.784-0.736&#13;&#10;&#9;&#9;c-0.352-0.491-0.528-0.827-0.528-1.008c0-0.181,0.106-0.293,0.32-0.336c0.725-0.192,1.408-0.853,2.048-1.984&#13;&#10;&#9;&#9;c1.855-3.285,2.997-5.205,3.424-5.76C8.721,4.322,9.03,4.045,9.222,4.045c0.192,0,0.438,0.165,0.736,0.496&#13;&#10;&#9;&#9;c0.299,0.331,0.448,0.656,0.448,0.976c0,0.32-0.203,0.704-0.608,1.152c-0.149,0.15-0.624,0.896-1.424,2.24s-1.2,2.107-1.2,2.288&#13;&#10;&#9;&#9;c0,0.182,0.208,0.272,0.624,0.272s0.763-0.112,1.04-0.336s0.747-0.891,1.408-2c0.299-0.491,0.56-0.736,0.784-0.736&#13;&#10;&#9;&#9;c0.224,0,0.453,0.139,0.688,0.416c0.234,0.278,0.353,0.544,0.353,0.8s-0.14,0.469-0.416,0.64c-0.192,0.128-0.396,0.363-0.608,0.704&#13;&#10;&#9;&#9;c-0.213,0.342-0.587,0.811-1.12,1.408c-0.533,0.598-0.896,0.971-1.088,1.12c-0.191,0.149-0.379,0.357-0.56,0.624&#13;&#10;&#9;&#9;c-0.182,0.267-0.272,0.464-0.272,0.592s0.085,0.192,0.256,0.192c0.064,0,0.177-0.032,0.336-0.096&#13;&#10;&#9;&#9;c0.16-0.064,0.405-0.123,0.736-0.176c0.33-0.053,0.57-0.069,0.72-0.048c0.149,0.021,0.288,0.032,0.416,0.032s0.262-0.053,0.4-0.16&#13;&#10;&#9;&#9;c0.139-0.106,0.564-0.715,1.28-1.824c0.714-1.109,1.21-1.92,1.487-2.432c0.277-0.512,0.448-0.954,0.513-1.328&#13;&#10;&#9;&#9;C14.214,8.488,14.385,8.301,14.662,8.301z M16.87,3.789c0.597,0,1.396,0.891,2.4,2.672c1.002,1.781,2.005,3.173,3.008,4.176&#13;&#10;&#9;&#9;c1.002,1.003,2.048,1.75,3.136,2.24c1.088,0.491,2.053,0.987,2.896,1.488c0.843,0.501,1.265,0.843,1.265,1.024&#13;&#10;&#9;&#9;c0,0.182-0.16,0.326-0.48,0.432c-0.319,0.107-0.747,0.16-1.279,0.16c-1.366,0-2.699-0.202-4-0.608&#13;&#10;&#9;&#9;c-0.598-0.17-1.02-0.256-1.265-0.256s-0.427,0.224-0.544,0.672s-0.203,1.03-0.256,1.745c-0.054,0.715-0.294,1.781-0.72,3.199&#13;&#10;&#9;&#9;c-0.428,1.42-0.779,2.422-1.057,3.008c-0.277,0.587-0.533,1.232-0.768,1.937c-0.086,0.276-0.245,0.416-0.48,0.416&#13;&#10;&#9;&#9;c-0.085,0-0.181-0.063-0.287-0.192c-0.107-0.128-0.363-0.299-0.769-0.512c-1.131-0.598-2.208-1.408-3.231-2.432&#13;&#10;&#9;&#9;c-0.15-0.149-0.283-0.225-0.4-0.225s-0.219,0.032-0.304,0.096c-1.28,0.896-2.214,1.488-2.801,1.776s-1.083,0.433-1.487,0.433&#13;&#10;&#9;&#9;c-0.406,0-0.608-0.064-0.608-0.192c0-0.171,0.928-1.108,2.784-2.815c0.618-0.598,1.232-1.482,1.84-2.656&#13;&#10;&#9;&#9;c0.608-1.174,0.912-1.931,0.912-2.272c0-0.149-0.064-0.224-0.192-0.224s-0.251,0.048-0.367,0.144&#13;&#10;&#9;&#9;c-0.118,0.097-0.3,0.144-0.544,0.144c-0.246,0-0.448-0.196-0.608-0.592c-0.16-0.395-0.24-0.704-0.24-0.928&#13;&#10;&#9;&#9;c0-0.224,0.16-0.368,0.48-0.432c1.194-0.277,2.267-0.592,3.216-0.944s1.872-0.528,2.768-0.528c0.896,0,1.686,0.096,2.368,0.288&#13;&#10;&#9;&#9;c0.064,0.021,0.128,0.032,0.192,0.032c0.298,0,0.447-0.245,0.447-0.736c0-0.491-0.117-0.901-0.352-1.232&#13;&#10;&#9;&#9;c-0.235-0.331-0.672-0.714-1.312-1.152c-0.641-0.437-1.142-1.051-1.505-1.84c-0.362-0.789-0.96-1.514-1.792-2.176&#13;&#10;&#9;&#9;c-0.341-0.277-0.581-0.507-0.72-0.688s-0.208-0.395-0.208-0.64c0-0.245,0.074-0.608,0.225-1.088&#13;&#10;&#9;&#9;C16.379,4.029,16.593,3.789,16.87,3.789z M16.87,22.701c0.299,0,0.549-0.059,0.752-0.176c0.202-0.117,0.357-0.268,0.464-0.449&#13;&#10;&#9;&#9;c0.106-0.181,0.277-0.768,0.512-1.76c0.235-0.992,0.4-1.803,0.496-2.432c0.097-0.629,0.145-1.152,0.145-1.568&#13;&#10;&#9;&#9;c0-0.416-0.06-0.704-0.176-0.864c-0.118-0.16-0.396-0.24-0.832-0.24c-0.438,0-0.859,0.277-1.265,0.832s-0.656,1.115-0.752,1.68&#13;&#10;&#9;&#9;c-0.096,0.565-0.213,0.977-0.352,1.232c-0.14,0.256-0.411,0.613-0.816,1.072s-0.607,0.879-0.607,1.264&#13;&#10;&#9;&#9;c0,0.213,0.063,0.4,0.191,0.56c0.128,0.16,0.442,0.342,0.944,0.544C16.075,22.6,16.507,22.701,16.87,22.701z" stroke-width="1"/>
    </g>
    <g/>
    <g/>
    <g/>
    <g/>
    <g/>
    <g/>
    <g/>
    <g/>
    <g/>
    <g/>
    <g/>
    <g/>
    <g/>
    <g/>
    <g/>
  </g>
</svg>