<svg xmlns="http://www.w3.org/2000/svg" xmlns:xlink="http://www.w3.org/1999/xlink" version="1.1" id="图层_1" x="0px" y="0px" width="23.784000396728516" height="25.25899887084961" viewBox="1.5709965229034424 1.8850018978118896 23.784000396728516 25.25899887084961" enable-background="new 0 0 30 30" xml:space="preserve">
<g>
	<path fill="#0000FF" d="M12.055,8.69c0.192,0,0.341,0.229,0.448,0.688c0.106,0.459,0.16,0.763,0.16,0.912   c0,0.149-0.037,0.267-0.112,0.352c-0.075,0.085-0.357,0.299-0.848,0.64c-0.491,0.341-0.854,0.582-1.088,0.72   c-0.235,0.139-0.342,0.32-0.32,0.544c0.021,0.224,0.032,0.491,0.032,0.8c0,0.31,0.042,0.464,0.128,0.464   c0.085,0,0.187-0.037,0.304-0.112s0.234-0.112,0.353-0.112c0.116,0,0.176,0.107,0.176,0.32s-0.268,0.64-0.8,1.28   c-0.086,0.085-0.128,0.299-0.128,0.64l0.063,5.76c0,2.027-0.027,3.26-0.08,3.697c-0.054,0.437-0.139,0.655-0.256,0.655   s-0.229-0.032-0.336-0.097c-0.299-0.17-0.811-0.399-1.536-0.688c-0.726-0.287-1.515-0.703-2.368-1.248   c-0.854-0.544-1.318-0.853-1.392-0.928c-0.075-0.074-0.112-0.154-0.112-0.24c0-0.085,0.059-0.154,0.176-0.207   c0.117-0.054,0.261-0.059,0.432-0.017c1.322,0.299,2.176,0.448,2.56,0.448s0.646-0.043,0.784-0.129   c0.139-0.084,0.224-0.218,0.256-0.399c0.032-0.181,0.075-0.757,0.128-1.728c0.054-0.971,0.08-1.947,0.08-2.929   c0-0.213-0.037-0.319-0.111-0.319c-0.075,0-0.699,0.672-1.873,2.016s-1.824,2.197-1.952,2.561   c-0.085,0.213-0.208,0.319-0.368,0.319s-0.598-0.208-1.312-0.624c-0.715-0.416-1.072-0.784-1.072-1.104   c0-0.129,0.048-0.251,0.144-0.369c0.096-0.116,0.629-0.586,1.6-1.407c0.971-0.821,1.813-1.509,2.528-2.063s1.413-1.088,2.097-1.601   c0.17-0.128,0.256-0.277,0.256-0.448l-0.064-1.376c0-0.234-0.191-0.309-0.576-0.224c-0.384,0.085-0.848,0.139-1.392,0.16   c-0.544,0.021-0.976,0.107-1.296,0.256c-0.32,0.149-0.539,0.224-0.656,0.224c-0.118,0-0.229-0.101-0.336-0.304   c-0.107-0.203-0.272-0.656-0.496-1.36c-0.224-0.704-0.336-1.136-0.336-1.296c0-0.16,0.101-0.256,0.304-0.288   c0.202-0.032,0.736-0.085,1.6-0.16c0.864-0.075,1.515-0.203,1.953-0.384c0.437-0.181,0.772-0.304,1.008-0.368   c0.234-0.064,0.384-0.16,0.448-0.288c0.063-0.128,0.144-0.48,0.239-1.056c0.097-0.576,0.16-1.173,0.192-1.792   c0.032-0.618,0.085-1.371,0.16-2.256c0.074-0.885,0.122-1.381,0.144-1.488c0.021-0.106,0.08-0.192,0.176-0.256   c0.097-0.064,0.229-0.096,0.4-0.096s0.432,0.069,0.784,0.208c0.352,0.139,0.527,0.304,0.527,0.496c0,0.192-0.059,0.411-0.176,0.656   c-0.117,0.246-0.208,0.752-0.271,1.52c-0.064,0.768-0.149,1.451-0.256,2.048l-0.257,1.44c0,0.192,0.117,0.256,0.353,0.192   C11.447,8.776,11.842,8.69,12.055,8.69z M24.535,16.851c0,0.106-0.038,0.294-0.112,0.56c-0.075,0.268-0.112,0.576-0.112,0.928   c0,0.353-0.011,0.656-0.031,0.912c-0.107,0.961-0.16,2.614-0.16,4.961l0.032,2.016c0,0.277-0.118,0.416-0.353,0.416   s-0.821-0.271-1.76-0.816c-0.939-0.543-1.729-1.125-2.368-1.744c-0.085-0.084-0.208-0.127-0.368-0.127s-0.709,0.139-1.647,0.416   c-0.939,0.276-1.521,0.517-1.744,0.719c-0.225,0.203-0.422,0.305-0.592,0.305c-0.32,0-0.608-0.416-0.864-1.248   s-0.384-2.922-0.384-6.271c0-0.705,0.08-1.115,0.239-1.232c0.16-0.117,1.28-0.405,3.36-0.864c2.08-0.458,3.344-0.688,3.792-0.688   s0.944,0.15,1.488,0.449s0.943,0.533,1.2,0.703C24.407,16.414,24.535,16.616,24.535,16.851z M23.543,8.179   c0.128,0,0.288,0.208,0.48,0.624c0.191,0.416,0.378,1.141,0.56,2.176c0.181,1.035,0.272,1.669,0.272,1.904   c0,0.555-0.192,0.832-0.576,0.832c-0.385,0-0.875,0.054-1.473,0.16c-0.597,0.107-1.205,0.16-1.823,0.16l-2.112-0.032l-1.92,0.064   c-0.448,0-0.79-0.069-1.024-0.208c-0.234-0.138-0.485-0.576-0.752-1.312c-0.267-0.736-0.421-1.754-0.464-3.056   s-0.059-2.373-0.048-3.216c0.011-0.842,0.016-1.69,0.016-2.544c0-0.32,0.16-0.48,0.48-0.48c0.085,0,0.416,0.043,0.992,0.128   c0.575,0.085,0.906,0.166,0.991,0.24s0.128,0.176,0.128,0.304s-0.053,0.288-0.159,0.48c-0.363,0.619-0.544,1.344-0.544,2.176   c0,0.256,0.068,0.384,0.208,0.384c0.138,0,0.336-0.037,0.592-0.112s0.49-0.187,0.704-0.336c0.213-0.149,0.49-0.272,0.832-0.368   c0.341-0.096,0.768-0.314,1.279-0.656c0.513-0.341,0.858-0.629,1.04-0.864c0.182-0.234,0.347-0.352,0.496-0.352   s0.373,0.182,0.672,0.544c0.299,0.363,0.448,0.656,0.448,0.88c0,0.224-0.063,0.379-0.191,0.464c-0.534,0.32-1.014,0.672-1.44,1.056   c-0.427,0.384-0.96,0.688-1.6,0.912c-0.641,0.224-1.248,0.528-1.824,0.912c-0.576,0.384-0.901,0.629-0.977,0.736   c-0.074,0.107-0.111,0.32-0.111,0.64s0.09,0.603,0.271,0.848c0.182,0.246,0.65,0.416,1.408,0.512   c0.757,0.096,1.53,0.144,2.32,0.144c0.789,0,1.344-0.176,1.664-0.528c0.319-0.352,0.586-1.221,0.8-2.608   C23.223,8.381,23.351,8.179,23.543,8.179z M21.239,23.826c0.341,0,0.512-0.202,0.512-0.607c0-1.045-0.032-2.219-0.096-3.52   c-0.064-1.302-0.145-2.054-0.24-2.257c-0.096-0.202-0.299-0.395-0.608-0.575c-0.31-0.182-0.618-0.272-0.928-0.272   s-0.869,0.149-1.68,0.448c-0.812,0.299-1.28,0.518-1.408,0.656s-0.192,0.336-0.192,0.592s0.043,0.383,0.128,0.383   s0.171-0.01,0.257-0.031c0.725-0.191,1.284-0.288,1.68-0.288c0.395,0,0.661,0.06,0.8,0.177s0.208,0.346,0.208,0.688   s-0.139,0.555-0.416,0.64c-0.789,0.278-1.403,0.556-1.84,0.832c-0.438,0.278-0.715,0.47-0.832,0.576s-0.176,0.31-0.176,0.608   s0.042,0.447,0.128,0.447c0.085,0,0.17-0.01,0.256-0.031c1.472-0.449,2.41-0.672,2.816-0.672c0.213,0,0.346,0.106,0.399,0.319   c0.053,0.214,0.08,0.47,0.08,0.769s0.026,0.496,0.08,0.592c0.053,0.096,0.202,0.207,0.448,0.336   C20.86,23.763,21.068,23.826,21.239,23.826z" stroke-width="1"/>
</g>
</svg>