<svg xmlns="http://www.w3.org/2000/svg" xmlns:xlink="http://www.w3.org/1999/xlink" version="1.1" id="图层_1" x="0px" y="0px" width="26.601999282836914" height="24.711999893188477" viewBox="1.2639994621276855 1.7850000858306885 26.601999282836914 24.711999893188477" style="enable-background:new 0 0 30 30;" xml:space="preserve">
  <g>
    <g>
      <path style="fill:#0000FF;" d="M10.726,13.517c0,0.192,0.107,0.331,0.32,0.416c1.109,0.47,1.664,0.886,1.664,1.248&#13;&#10;&#9;&#9;c0,0.171-0.128,0.341-0.384,0.512s-0.448,0.256-0.576,0.256s-0.251-0.021-0.368-0.064c-0.117-0.042-0.262-0.064-0.432-0.064&#13;&#10;&#9;&#9;c-0.427,0-0.641,0.128-0.641,0.384c0,0.127,0.149,0.277,0.448,0.447c1.024,0.533,1.536,1.035,1.536,1.504&#13;&#10;&#9;&#9;c0,0.172-0.117,0.363-0.352,0.576c-0.235,0.214-0.438,0.32-0.608,0.32s-0.39-0.059-0.656-0.176s-0.453-0.176-0.56-0.176&#13;&#10;&#9;&#9;c-0.107,0-0.182,0.059-0.225,0.176s-0.091,0.512-0.144,1.184c-0.054,0.672-0.08,1.243-0.08,1.712c0,0.47,0.032,0.992,0.096,1.568&#13;&#10;&#9;&#9;c0.064,0.575,0.097,1.045,0.097,1.407c0,0.662-0.208,0.992-0.624,0.992s-0.747-0.144-0.992-0.432s-0.368-0.752-0.368-1.393&#13;&#10;&#9;&#9;l0.064-1.887c0-0.555-0.017-1.088-0.049-1.601c-0.031-0.513-0.074-0.8-0.128-0.864c-0.053-0.064-0.133-0.096-0.239-0.096&#13;&#10;&#9;&#9;c-0.107,0-0.225,0.064-0.353,0.191c-0.683,0.684-1.376,1.318-2.08,1.904c-0.704,0.588-1.19,0.966-1.456,1.137&#13;&#10;&#9;&#9;c-0.267,0.17-0.534,0.256-0.8,0.256c-0.267,0-0.512-0.091-0.736-0.272c-0.224-0.181-0.336-0.399-0.336-0.655&#13;&#10;&#9;&#9;c0-0.257,0.224-0.555,0.672-0.896c1.301-1.023,2.357-2.112,3.168-3.264c0.811-1.152,1.216-2.005,1.216-2.561&#13;&#10;&#9;&#9;c0-0.554-0.149-0.832-0.448-0.832c-0.128,0-0.405,0.048-0.832,0.144c-0.427,0.096-0.742,0.198-0.944,0.304&#13;&#10;&#9;&#9;c-0.203,0.107-0.443,0.272-0.72,0.496c-0.277,0.224-0.475,0.336-0.592,0.336c-0.118,0-0.229-0.096-0.336-0.288&#13;&#10;&#9;&#9;c-0.107-0.192-0.224-0.597-0.352-1.216s-0.219-1.003-0.272-1.152c-0.054-0.149-0.08-0.309-0.08-0.48&#13;&#10;&#9;&#9;c0-0.17,0.224-0.267,0.672-0.288c2.496-0.192,4.256-0.576,5.28-1.152c0.362-0.234,0.826-0.395,1.392-0.48&#13;&#10;&#9;&#9;c0.565-0.085,1.029-0.187,1.393-0.304c0.362-0.117,0.597-0.176,0.703-0.176c0.299,0,0.448,0.251,0.448,0.752&#13;&#10;&#9;&#9;c0,0.501-0.069,0.875-0.208,1.12c-0.139,0.246-0.341,0.438-0.607,0.576c-0.268,0.139-0.433,0.294-0.496,0.464&#13;&#10;&#9;&#9;C10.758,13.304,10.726,13.432,10.726,13.517z M12.358,5.901c0,0.277-0.145,0.528-0.433,0.752c-0.288,0.224-0.533,0.336-0.735,0.336&#13;&#10;&#9;&#9;c-0.203,0-0.416-0.037-0.641-0.112c-0.224-0.074-0.496-0.128-0.815-0.16C9.414,6.685,9.2,6.589,9.094,6.429s-0.16-0.395-0.16-0.704&#13;&#10;&#9;&#9;c0-0.309,0.054-0.88,0.16-1.712s0.251-1.328,0.433-1.488c0.181-0.16,0.367-0.24,0.56-0.24s0.4,0.24,0.624,0.72&#13;&#10;&#9;&#9;s0.555,0.971,0.992,1.472C12.139,4.978,12.358,5.453,12.358,5.901z M27.366,11.245c0,0.064-0.021,0.128-0.064,0.192&#13;&#10;&#9;&#9;c-0.191,0.32-0.347,1.062-0.464,2.224c-0.117,1.163-0.459,2.828-1.023,4.992c-0.566,2.166-1.078,3.713-1.536,4.641&#13;&#10;&#9;&#9;c-0.459,0.928-0.773,1.69-0.944,2.287c-0.086,0.277-0.229,0.416-0.432,0.416c-0.203,0-0.523-0.127-0.96-0.383&#13;&#10;&#9;&#9;c-0.438-0.256-0.95-0.508-1.536-0.752c-0.587-0.246-1.254-0.668-2-1.265c-0.747-0.597-1.12-0.986-1.12-1.168&#13;&#10;&#9;&#9;c0-0.181,0.16-0.24,0.479-0.176c1.237,0.214,2.102,0.319,2.593,0.319c0.49,0,0.863-0.127,1.119-0.384&#13;&#10;&#9;&#9;c0.257-0.256,0.571-0.928,0.944-2.016c0.373-1.089,0.683-2.208,0.928-3.36c0.245-1.152,0.368-2.122,0.368-2.912&#13;&#10;&#9;&#9;c0-0.789-0.08-1.387-0.24-1.792c-0.159-0.405-0.517-0.757-1.071-1.056c-0.556-0.298-1.008-0.448-1.36-0.448&#13;&#10;&#9;&#9;c-0.352,0-0.726,0.064-1.12,0.192c-0.395,0.128-0.629,0.229-0.704,0.304c-0.074,0.075-0.111,0.166-0.111,0.272&#13;&#10;&#9;&#9;c0,0.235,0.362,0.565,1.088,0.992c0.234,0.128,0.352,0.267,0.352,0.416c0,0.149-0.123,0.341-0.368,0.576s-0.469,0.725-0.672,1.472&#13;&#10;&#9;&#9;c-0.203,0.747-0.459,1.392-0.768,1.936c-0.31,0.544-0.88,1.328-1.712,2.353c-0.128,0.17-0.225,0.357-0.288,0.56&#13;&#10;&#9;&#9;c-0.064,0.203-0.107,0.56-0.128,1.071c-0.021,0.193-0.134,0.374-0.336,0.545c-0.203,0.171-0.672,0.485-1.408,0.943&#13;&#10;&#9;&#9;c-0.736,0.459-1.462,0.801-2.176,1.024c-0.715,0.224-1.286,0.336-1.712,0.336c-0.278,0-0.416-0.069-0.416-0.208&#13;&#10;&#9;&#9;s0.111-0.33,0.336-0.576c0.224-0.244,1.296-1.232,3.216-2.96c1.045-0.917,1.946-2.224,2.704-3.92&#13;&#10;&#9;&#9;c0.757-1.696,1.136-2.875,1.136-3.536c0-0.426-0.112-0.64-0.336-0.64s-1.04,0.459-2.448,1.376&#13;&#10;&#9;&#9;c-0.341,0.235-0.576,0.352-0.704,0.352s-0.219-0.048-0.271-0.144c-0.054-0.096-0.134-0.405-0.24-0.928&#13;&#10;&#9;&#9;c-0.107-0.522-0.16-0.896-0.16-1.12c0-0.224,0.059-0.373,0.176-0.448c0.117-0.075,0.896-0.25,2.336-0.528&#13;&#10;&#9;&#9;c1.44-0.277,2.801-0.464,4.08-0.56c1.28-0.096,2.24-0.144,2.881-0.144c0.64,0,1.482,0.187,2.527,0.56&#13;&#10;&#9;&#9;C26.843,10.546,27.366,10.904,27.366,11.245z" stroke-width="1"/>
    </g>
    <g/>
    <g/>
    <g/>
    <g/>
    <g/>
    <g/>
    <g/>
    <g/>
    <g/>
    <g/>
    <g/>
    <g/>
    <g/>
    <g/>
    <g/>
  </g>
</svg>