<svg xmlns="http://www.w3.org/2000/svg" xmlns:xlink="http://www.w3.org/1999/xlink" version="1.1" id="图层_1" x="0px" y="0px" width="28.968997955322266" height="23.46399688720703" viewBox="1.0590040683746338 3.1019983291625977 28.968997955322266 23.46399688720703" enable-background="new 0 0 30 30" xml:space="preserve">
<g>
	<path fill="#0000FF" d="M17.815,12.402c0,0.085,0.042,0.192,0.128,0.32c0.085,0.128,0.56,0.485,1.424,1.072   c0.864,0.587,1.771,1.062,2.72,1.424c0.949,0.363,2.202,0.763,3.76,1.199c1.558,0.438,2.561,0.828,3.009,1.168   c0.447,0.342,0.672,0.588,0.672,0.736c0,0.15-0.06,0.256-0.177,0.32s-0.432,0.139-0.943,0.225   c-0.513,0.085-1.067,0.127-1.664,0.127c-0.598,0-1.601-0.09-3.008-0.271c-1.408-0.182-2.203-0.309-2.385-0.385   c-0.181-0.074-0.282-0.207-0.304-0.399c-0.021-0.362-0.069-0.661-0.144-0.896c-0.075-0.234-0.208-0.453-0.4-0.656   s-0.747-0.549-1.664-1.04c-0.917-0.491-1.488-0.8-1.712-0.928s-0.416-0.192-0.576-0.192s-0.304,0.048-0.432,0.144   c-0.128,0.096-0.374,0.31-0.736,0.64c-0.363,0.331-0.619,0.603-0.768,0.815c-0.448,0.705-1.275,1.457-2.48,2.256   c-1.205,0.801-2.438,1.414-3.695,1.84c-0.3,0.107-0.48,0.278-0.545,0.513c-0.384,1.194-0.853,2.069-1.408,2.624   c-0.171,0.171-0.438,0.475-0.8,0.912c-0.363,0.438-0.613,0.757-0.752,0.96c-0.139,0.202-0.293,0.304-0.464,0.304   c-0.363,0-0.939-0.709-1.728-2.128c-0.79-1.419-1.184-3.142-1.184-5.168c0-0.981,0.138-2.053,0.416-3.216   c0.277-1.163,0.512-1.898,0.704-2.208c0.192-0.309,0.389-0.464,0.592-0.464c0.203,0,0.592,0.139,1.168,0.416   c0.576,0.278,0.864,0.518,0.864,0.72c0,0.203-0.139,0.443-0.416,0.72c-1.558,1.493-2.336,3.21-2.336,5.152   c0,0.641,0.101,1.279,0.304,1.92c0.203,0.641,0.491,0.96,0.864,0.96s0.8-0.176,1.28-0.528c0.48-0.352,0.971-0.971,1.472-1.855   c0.501-0.885,1.167-2.192,2-3.92c0.213-0.427,0.362-0.64,0.448-0.64c0.085,0,0.128,0.08,0.128,0.24c0,0.16-0.112,0.726-0.336,1.696   s-0.336,1.509-0.336,1.616c0,0.106,0.064,0.16,0.192,0.16s0.474-0.171,1.04-0.513c0.564-0.341,1.082-0.72,1.552-1.136   c0.469-0.416,1.056-1.04,1.76-1.872s1.141-1.365,1.313-1.6c0.17-0.234,0.256-0.453,0.256-0.656s-0.277-0.405-0.832-0.608   c-0.556-0.203-1.072-0.304-1.553-0.304c-0.479,0-0.815,0.075-1.008,0.224c-0.726,0.512-1.259,0.768-1.6,0.768   c-0.214,0-0.32-0.133-0.32-0.4c0-0.266,0.32-0.752,0.96-1.456c1.579-1.706,3.104-3.979,4.576-6.816   c0.256-0.49,0.544-0.736,0.864-0.736c0.319,0,0.692,0.229,1.12,0.688c0.426,0.459,0.661,0.816,0.704,1.072   c0.042,0.256,0.224,0.384,0.544,0.384c1.13,0,2,0.182,2.607,0.544c0.608,0.363,0.912,0.726,0.912,1.088   c0,0.213-0.123,0.411-0.368,0.592s-0.565,0.512-0.96,0.992s-0.864,1.109-1.408,1.888s-0.832,1.211-0.863,1.296   C17.831,12.232,17.815,12.317,17.815,12.402z M5.879,4.818c0.234,0,0.4,0.16,0.496,0.48c0.096,0.32,0.314,0.63,0.656,0.928   c0.597,0.64,0.987,1.211,1.168,1.712C8.38,8.44,8.471,8.813,8.471,9.059c0,0.246-0.096,0.501-0.288,0.768   c-0.191,0.267-0.464,0.4-0.815,0.4c-0.352,0-0.806-0.139-1.36-0.416C5.452,9.534,5.095,9.283,4.935,9.059s-0.24-0.464-0.24-0.72   c0-1.152,0.032-1.898,0.096-2.24s0.218-0.64,0.464-0.896C5.5,4.946,5.708,4.818,5.879,4.818z M22.679,19.699   c0,0.148-0.128,0.506-0.384,1.071s-0.491,0.955-0.704,1.168c-0.384,0.405-0.607,1.077-0.672,2.017   c-0.063,1.045-0.363,1.567-0.896,1.567c-0.896,0-1.889,0.063-2.977,0.192l-2.815,0.352c-0.172,0-0.331-0.064-0.48-0.191   c-0.149-0.129-0.512-0.651-1.088-1.568s-1.014-1.775-1.313-2.576c-0.299-0.8-0.447-1.381-0.447-1.744   c0-0.597,0.661-0.98,1.983-1.152c0.769-0.105,1.632-0.314,2.592-0.623c0.961-0.31,1.792-0.465,2.496-0.465   c1.045,0,2.091,0.23,3.137,0.688C22.156,18.894,22.679,19.314,22.679,19.699z M15.799,23.154c1.024,0,1.749-0.299,2.176-0.896   c0.427-0.596,0.641-1.108,0.641-1.535c0-0.256-0.097-0.555-0.288-0.896c-0.192-0.341-0.544-0.512-1.057-0.512   c-0.512,0-1.157,0.171-1.936,0.512c-0.779,0.342-1.168,0.844-1.168,1.504c0,0.342,0.133,0.731,0.4,1.168   C14.833,22.936,15.244,23.154,15.799,23.154z M15.831,10.803c0.171,0,0.299-0.075,0.384-0.224l0.672-1.056   c0.32-0.554,0.48-1.013,0.48-1.376c0-0.362-0.112-0.64-0.336-0.832c-0.225-0.192-0.405-0.288-0.544-0.288   c-0.14,0-0.256,0.032-0.353,0.096c-0.096,0.064-0.405,0.368-0.928,0.912c-0.523,0.544-0.812,0.864-0.864,0.96   c-0.054,0.096-0.08,0.192-0.08,0.288c0,0.096,0.117,0.261,0.353,0.496l0.735,0.672C15.586,10.686,15.745,10.803,15.831,10.803z" stroke-width="1"/>
</g>
</svg>