<svg xmlns="http://www.w3.org/2000/svg" xmlns:xlink="http://www.w3.org/1999/xlink" version="1.1" id="图层_1" x="0px" y="0px" width="24.713001251220703" height="27.37000846862793" viewBox="1.3149998188018799 0.38099342584609985 24.713001251220703 27.37000846862793" enable-background="new 0 0 30 30" xml:space="preserve">
<g>
	<path fill="#0000FF" d="M11.575,4.979c0,0.171-0.123,0.379-0.368,0.624c-0.245,0.246-0.555,0.848-0.928,1.808   c-0.374,0.96-0.987,1.899-1.84,2.816c-0.448,0.512-0.673,1.227-0.673,2.144c0,0.32,0.032,0.555,0.097,0.704   c0.063,0.149,0.267,0.357,0.607,0.624s0.513,0.491,0.513,0.672c0,0.182-0.021,0.357-0.064,0.528   c-0.107,0.47-0.208,1.499-0.304,3.088c-0.097,1.59-0.145,2.982-0.145,4.176c0,1.195,0.017,1.989,0.048,2.385   c0.032,0.395,0.049,0.709,0.049,0.943c0,0.768-0.155,1.254-0.465,1.456c-0.309,0.202-0.661,0.304-1.056,0.304   c-0.395,0-0.592-0.33-0.592-0.992l0.096-3.775c0.021-1.514,0.032-2.683,0.032-3.504c0-0.82-0.043-1.525-0.128-2.111   C6.37,16.279,6.3,15.928,6.247,15.811c-0.054-0.117-0.123-0.176-0.208-0.176c-0.085,0-0.203,0.053-0.352,0.16   c-1.579,1.109-2.678,1.664-3.296,1.664c-0.384,0-0.576-0.097-0.576-0.289c0-0.191,0.085-0.383,0.256-0.575   c0.853-1.003,1.808-2.267,2.864-3.792s1.92-3.067,2.592-4.624c0.672-1.557,1.104-2.816,1.296-3.776   C8.93,3.848,9.127,3.57,9.415,3.57s0.72,0.16,1.296,0.48C11.287,4.371,11.575,4.68,11.575,4.979z M18.711,11.314   c0,0.427,0.224,0.64,0.672,0.64c0.555,0,1.237-0.037,2.048-0.112c0.811-0.074,1.345-0.138,1.601-0.192   c0.256-0.053,0.469-0.08,0.64-0.08c0.64,0,1.109,0.347,1.408,1.04c0.299,0.694,0.448,1.147,0.448,1.36s-0.112,0.32-0.336,0.32   c-0.225,0-0.476-0.021-0.752-0.064c-1.024-0.17-2.107-0.256-3.248-0.256c-1.142,0-1.798,0.027-1.969,0.08   c-0.171,0.054-0.271,0.214-0.304,0.48s-0.086,0.501-0.16,0.704c-0.075,0.203-0.111,0.39-0.111,0.561   c0,0.363,0.191,0.543,0.575,0.543l1.473-0.031c0.469,0,0.778,0.011,0.928,0.031c0.149,0.021,0.224,0.182,0.224,0.48   s-0.026,0.598-0.08,0.896c-0.053,0.299-0.133,0.479-0.239,0.543c-0.107,0.064-0.3,0.107-0.576,0.129   c-1.131,0.043-1.813,0.123-2.048,0.24c-0.235,0.117-0.353,0.293-0.353,0.527c0,1.387,0.037,2.188,0.112,2.4   c0.074,0.213,0.282,0.32,0.624,0.32c0.341,0,0.96-0.021,1.855-0.064c0.896-0.043,1.456-0.085,1.681-0.128   c0.224-0.042,0.389-0.063,0.496-0.063c0.341,0,0.597,0.127,0.768,0.383l0.608,0.992c0.234,0.406,0.352,0.907,0.352,1.504   c0,0.299-0.096,0.448-0.288,0.448c-0.191,0-0.512-0.063-0.96-0.192c-0.854-0.213-2.815-0.319-5.888-0.319   c-1.024,0-2.214,0.122-3.568,0.368c-1.354,0.244-2.182,0.442-2.479,0.592c-0.299,0.148-0.565,0.225-0.8,0.225   c-0.235,0-0.422-0.166-0.561-0.496c-0.139-0.332-0.208-0.614-0.208-0.849c0-0.469,0.267-0.72,0.8-0.752s1.345-0.239,2.433-0.624   c0.597-0.213,0.98-0.341,1.151-0.384c0.171-0.042,0.385-0.16,0.641-0.353c0.256-0.191,0.426-0.463,0.512-0.815   c0.085-0.353,0.128-0.661,0.128-0.929c0-0.266-0.037-0.517-0.112-0.752c-0.074-0.234-0.154-0.352-0.239-0.352   c-0.086,0-0.416,0.086-0.992,0.256c-0.576,0.172-0.95,0.299-1.12,0.385c-0.171,0.085-0.277,0.127-0.32,0.127   c-0.171,0-0.31-0.213-0.416-0.64s-0.16-0.735-0.16-0.928c0-0.47,0.277-0.704,0.832-0.704c0.277,0,0.704-0.102,1.28-0.305   c0.576-0.201,0.933-0.352,1.072-0.447c0.139-0.096,0.229-0.256,0.271-0.48c0.043-0.224,0.064-0.533,0.064-0.928   s-0.032-0.65-0.096-0.768c-0.064-0.117-0.155-0.176-0.272-0.176s-0.731,0.149-1.84,0.448c-1.109,0.299-1.803,0.512-2.08,0.641   c-0.277,0.127-0.528,0.191-0.752,0.191s-0.379-0.154-0.464-0.464c-0.086-0.309-0.128-0.57-0.128-0.784   c0-0.49,0.309-0.778,0.928-0.864c0.618-0.085,1.45-0.283,2.496-0.592c1.045-0.309,1.658-0.517,1.84-0.624   c0.181-0.106,0.299-0.309,0.352-0.608c0.054-0.298,0.08-0.618,0.08-0.96c0-0.341-0.096-0.512-0.288-0.512   c-0.106,0-0.379,0.043-0.815,0.128c-0.438,0.085-0.741,0.166-0.912,0.24c-0.171,0.075-0.331,0.112-0.48,0.112   s-0.341-0.25-0.575-0.752c-0.235-0.501-0.353-0.858-0.353-1.072c0-0.213,0.048-0.384,0.145-0.512   c0.096-0.128,0.208-0.192,0.336-0.192h0.352c0.234,0,0.741-0.091,1.521-0.272c0.778-0.181,1.194-0.32,1.248-0.416   c0.053-0.096,0.101-0.181,0.144-0.256c0.043-0.074,0.123-0.762,0.24-2.064c0.117-1.301,0.187-2.144,0.208-2.528   c0.021-0.384,0.074-0.768,0.16-1.152c0.085-0.384,0.159-0.613,0.224-0.688c0.064-0.074,0.224-0.138,0.48-0.192   c0.256-0.053,0.522-0.08,0.8-0.08c0.276,0,0.416,0.08,0.416,0.24s-0.032,0.304-0.097,0.432c-0.171,0.341-0.256,2.048-0.256,5.12   c0,0.427,0.16,0.598,0.48,0.512c1.344-0.298,2.165-0.448,2.464-0.448c0.234,0,0.352,0.166,0.352,0.496   c0,0.331-0.037,0.672-0.111,1.024c-0.075,0.352-0.438,0.672-1.088,0.96c-0.651,0.288-1.158,0.496-1.521,0.624   c-0.363,0.128-0.544,0.363-0.544,0.704V11.314z" stroke-width="1"/>
</g>
</svg>