<svg xmlns="http://www.w3.org/2000/svg" xmlns:xlink="http://www.w3.org/1999/xlink" version="1.1" id="图层_1" x="0px" y="0px" width="23.751001358032227" height="31.52699851989746" viewBox="3.4930002689361572 -1.00900000333786 23.751001358032227 31.52699851989746" enable-background="new 0 0 30 30" xml:space="preserve">
<g>
	<path fill="#0000FF" d="M11.512,19.715c0-0.404-0.048-0.607-0.144-0.607s-0.176,0.021-0.24,0.063   c-0.683,0.342-1.664,0.688-2.944,1.04c-1.28,0.352-2.24,0.891-2.879,1.616c-0.214,0.214-0.395,0.319-0.544,0.319   s-0.315-0.196-0.496-0.592c-0.182-0.395-0.272-0.703-0.272-0.928s0.053-0.373,0.16-0.447c0.106-0.075,0.794-0.385,2.064-0.929   c1.269-0.544,2.304-0.954,3.104-1.231c0.8-0.277,1.312-0.465,1.536-0.561c0.224-0.096,0.336-0.197,0.336-0.305   c0-0.105-0.171-0.26-0.513-0.463c-0.341-0.203-0.512-0.373-0.512-0.512s0.106-0.272,0.32-0.4c0.618-0.363,1.008-0.646,1.168-0.848   s0.24-0.432,0.24-0.688c0-0.256-0.123-0.384-0.368-0.384c-0.246,0-0.464,0.043-0.656,0.128c-0.192,0.085-0.806,0.443-1.84,1.072   c-1.035,0.629-1.734,1.078-2.096,1.343c-0.363,0.268-0.64,0.4-0.832,0.4s-0.4-0.304-0.624-0.912   c-0.224-0.607-0.336-0.976-0.336-1.104s0.042-0.208,0.128-0.24c0.085-0.032,0.283-0.048,0.592-0.048s0.656-0.059,1.04-0.176   c0.384-0.117,1.216-0.4,2.497-0.848c1.279-0.448,2.421-0.672,3.424-0.672c0.512,0,0.992,0.069,1.439,0.208   c0.448,0.139,0.672,0.357,0.672,0.656c0,0.47-0.438,0.96-1.312,1.472c-0.277,0.149-0.416,0.352-0.416,0.608   c0,0.362,0.074,0.544,0.224,0.544s0.336-0.059,0.561-0.176c0.224-0.117,0.389-0.176,0.496-0.176c0.106,0,0.16,0.031,0.16,0.096   c0,0.171-0.353,0.565-1.057,1.184c-0.191,0.192-0.288,0.545-0.288,1.057c0,1.237-0.091,2.438-0.271,3.6   c-0.182,1.163-0.336,1.819-0.464,1.968c-0.128,0.149-0.363,0.225-0.704,0.225c-1.237,0-2.272-0.32-3.104-0.96   c-0.832-0.641-1.248-1.088-1.248-1.344c0-0.107,0.058-0.16,0.176-0.16c0.117,0,0.24,0.021,0.368,0.063   c0.342,0.128,0.886,0.192,1.633,0.192c1.216,0,1.823-0.395,1.823-1.185V19.715z M16.536,5.219c0,0.235-0.048,0.405-0.145,0.512   c-0.096,0.107-0.197,0.171-0.304,0.192c-0.106,0.021-0.518,0.032-1.231,0.032c-0.716,0-1.297,0.085-1.744,0.256   c-0.662,0.277-1.516,0.416-2.561,0.416c-0.661,0-1.467,0.149-2.416,0.448s-1.616,0.587-2,0.864   C6.008,8.024,5.853,8.067,5.672,8.067S5.288,7.864,5.064,7.459C4.84,7.054,4.728,6.723,4.728,6.467   c0-0.256,0.181-0.395,0.544-0.416c0.597-0.042,1.115-0.144,1.552-0.304c0.437-0.16,1.104-0.325,2-0.496   c1.344-0.213,2.208-0.405,2.592-0.576c0.683-0.256,1.365-0.448,2.048-0.576s1.152-0.192,1.408-0.192   c0.725,0,1.184,0.123,1.376,0.368C16.44,4.521,16.536,4.835,16.536,5.219z M12.888,7.299c0.533,0,1.088,0.229,1.664,0.688   c0.576,0.459,0.864,0.8,0.864,1.024c0,0.224-0.203,0.443-0.608,0.656c-0.362,0.171-0.544,0.651-0.544,1.44   c0,0.235-0.074,0.4-0.224,0.496s-0.422,0.16-0.816,0.192c-0.395,0.032-0.917,0.118-1.567,0.256   c-0.651,0.139-1.083,0.262-1.296,0.368c-0.214,0.107-0.396,0.16-0.544,0.16c-0.15,0-0.315-0.059-0.496-0.176   c-0.182-0.117-0.464-0.384-0.849-0.8c-0.384-0.416-0.667-0.827-0.848-1.232C7.442,9.966,7.352,9.657,7.352,9.443   c0-0.213,0.139-0.416,0.416-0.608c0.277-0.192,1.077-0.496,2.4-0.912C11.49,7.507,12.397,7.299,12.888,7.299z M10.328,10.467   c0.256,0,0.64-0.08,1.152-0.24c0.512-0.16,0.837-0.293,0.976-0.4c0.139-0.106,0.208-0.309,0.208-0.608   c0-0.555-0.256-0.832-0.768-0.832c-0.385,0-0.844,0.187-1.377,0.56c-0.533,0.374-0.8,0.72-0.8,1.04   C9.72,10.307,9.923,10.467,10.328,10.467z M12.12-0.509c0.256,0,0.544,0.4,0.864,1.2c0.319,0.8,0.479,1.424,0.479,1.872   c0,0.726-0.182,1.088-0.544,1.088c-0.235,0-0.603-0.123-1.104-0.368c-0.502-0.245-0.752-0.891-0.752-1.936   c0-0.683,0.133-1.163,0.399-1.44S11.949-0.509,12.12-0.509z M22.616,11.715c0,0.768,0.319,1.344,0.96,1.728   c0.896,0.555,1.647,1.563,2.256,3.024c0.608,1.462,0.912,2.715,0.912,3.76c0,0.299-0.054,0.508-0.16,0.625   c-0.107,0.117-0.368,0.144-0.784,0.08c-0.416-0.064-0.986-0.097-1.712-0.097c-1.195,0-2.592-0.384-4.191-1.151   c-0.15-0.064-0.278-0.097-0.385-0.097s-0.187,0.063-0.239,0.192c-0.054,0.128-0.129,0.805-0.225,2.031   c-0.096,1.228-0.176,2.422-0.24,3.584c-0.063,1.163-0.096,2.353-0.096,3.568c0,0.704-0.271,1.056-0.815,1.056   c-0.545,0-0.816-0.171-0.816-0.512l0.063-1.696c0.043-0.789,0.064-1.637,0.064-2.544c0-0.906-0.021-1.674-0.064-2.304   c-0.043-0.629-0.063-2.863-0.063-6.704l0.032-4.608c0-1.216-0.043-1.946-0.128-2.192c-0.086-0.245-0.128-0.453-0.128-0.624   c0-0.17,0.042-0.331,0.128-0.48c0.085-0.149,0.213-0.283,0.384-0.4c0.17-0.117,0.666-0.325,1.488-0.624   c0.82-0.298,1.546-0.544,2.176-0.736c0.629-0.192,1.2-0.309,1.712-0.352c0.512-0.042,1.04-0.064,1.584-0.064   s0.885,0.091,1.023,0.272s0.208,0.341,0.208,0.48s-0.128,0.336-0.384,0.592c-0.149,0.171-0.352,0.523-0.607,1.056   c-0.257,0.533-0.736,1.142-1.44,1.824C22.786,10.745,22.616,11.182,22.616,11.715z M23.416,17.091c0-1.003-0.438-1.941-1.313-2.816   c-0.618-0.576-0.928-1.216-0.928-1.92c0-0.362,0.106-0.811,0.32-1.344c0.213-0.533,0.32-1.099,0.32-1.696   c0-0.896-0.348-1.344-1.04-1.344c-0.694,0-1.132,0.315-1.313,0.944c-0.182,0.629-0.271,2.085-0.271,4.368   c0,2.283,0.048,3.552,0.144,3.808c0.096,0.257,0.448,0.476,1.056,0.656c0.608,0.182,1.163,0.272,1.664,0.272   s0.854-0.086,1.057-0.256C23.314,17.592,23.416,17.369,23.416,17.091z" stroke-width="1"/>
</g>
</svg>