<svg xmlns="http://www.w3.org/2000/svg" xmlns:xlink="http://www.w3.org/1999/xlink" version="1.1" id="图层_1" x="0px" y="0px" width="27.143999099731445" height="28.137001037597656" viewBox="-0.09299898147583008 0.5420000553131104 27.143999099731445 28.137001037597656" enable-background="new 0 0 30 30" xml:space="preserve">
<g>
	<path fill="#0000FF" d="M13.399,17.139c0.191,0,0.324,0.102,0.399,0.304c0.074,0.203,0.112,0.47,0.112,0.8   c0,0.332-0.134,0.566-0.4,0.704c-0.267,0.14-0.955,0.39-2.063,0.753c-0.384,0.127-0.624,0.244-0.721,0.352   c-0.096,0.107-0.176,0.485-0.239,1.136c-0.064,0.651-0.134,1.222-0.208,1.712c-0.075,0.491-0.112,1.057-0.112,1.696   s0.021,1.216,0.064,1.728l0.128,1.279c0,0.385-0.257,0.576-0.769,0.576c-0.832,0-1.248-0.127-1.248-0.383   c0-0.086,0.032-0.215,0.097-0.385c0.276-0.64,0.416-1.504,0.416-2.592s-0.022-1.968-0.064-2.64   c-0.043-0.673-0.107-1.104-0.192-1.296c-0.085-0.192-0.239-0.288-0.464-0.288c-0.224,0-1.061,0.197-2.512,0.592   c-1.451,0.396-2.752,0.923-3.904,1.584c-0.107,0.063-0.224,0.097-0.352,0.097c-0.278,0-0.507-0.166-0.688-0.496   c-0.182-0.331-0.272-0.688-0.272-1.072c0-0.192,0.138-0.299,0.416-0.32c0.64-0.021,1.717-0.373,3.232-1.057   c1.514-0.682,2.922-1.248,4.224-1.695c0.128-0.043,0.218-0.128,0.271-0.256c0.053-0.129,0.08-0.405,0.08-0.832   s-0.016-0.715-0.048-0.864s-0.139-0.224-0.32-0.224s-0.715,0.133-1.6,0.4c-0.886,0.266-1.419,0.447-1.6,0.543   c-0.182,0.096-0.347,0.145-0.496,0.145c-0.149,0-0.421-0.271-0.816-0.816c-0.395-0.544-0.592-0.922-0.592-1.136   c0-0.149,0.17-0.25,0.512-0.304c0.341-0.053,0.64-0.272,0.896-0.656c0.256-0.384,0.576-0.981,0.96-1.792   c0.384-0.811,0.576-1.328,0.576-1.552c0-0.224-0.08-0.336-0.24-0.336c-0.16,0-0.389,0.075-0.688,0.224   c-0.299,0.149-0.533,0.224-0.704,0.224c-0.363,0-0.683-0.373-0.96-1.12c-0.278-0.747-0.416-1.227-0.416-1.44   c0-0.213,0.208-0.331,0.624-0.352C4.135,8.062,4.844,7.95,5.847,7.747C6.85,7.544,7.378,7.421,7.431,7.378   c0.054-0.042,0.102-0.106,0.145-0.192C7.617,7.102,7.82,6.525,8.183,5.458l1.12-3.392C9.431,1.662,9.569,1.39,9.719,1.25   c0.149-0.139,0.353-0.208,0.608-0.208s0.603,0.059,1.04,0.176c0.437,0.117,0.656,0.229,0.656,0.336   c0,0.107-0.043,0.203-0.129,0.288c-0.427,0.427-0.752,0.95-0.976,1.568s-0.464,1.232-0.72,1.84s-0.384,1.008-0.384,1.2   c0,0.32,0.128,0.459,0.384,0.416c1.216-0.213,2.09-0.32,2.624-0.32c0.17,0,0.282,0.07,0.336,0.208   c0.053,0.139,0.08,0.39,0.08,0.752c0,0.363-0.054,0.608-0.16,0.736c-0.107,0.128-0.72,0.379-1.84,0.752   c-1.12,0.374-1.883,0.613-2.288,0.72c-0.342,0.085-0.715,0.667-1.12,1.744c-0.405,1.078-0.608,1.702-0.608,1.872   c0,0.171,0.08,0.256,0.24,0.256s0.41-0.059,0.752-0.176c0.341-0.117,0.528-0.24,0.561-0.368c0.031-0.128,0.111-0.608,0.239-1.44   c0.085-0.491,0.225-0.805,0.416-0.944c0.192-0.139,0.485-0.208,0.88-0.208s0.688,0.027,0.881,0.08   c0.191,0.053,0.287,0.149,0.287,0.288c0,0.139-0.063,0.31-0.191,0.512c-0.128,0.203-0.192,0.432-0.192,0.688   c0,0.448,0.149,0.629,0.448,0.544c1.024-0.277,1.6-0.416,1.728-0.416c0.129,0,0.192,0.096,0.192,0.288s-0.048,0.454-0.144,0.784   c-0.097,0.331-0.192,0.571-0.288,0.72c-0.097,0.149-0.4,0.347-0.912,0.592s-0.864,0.491-1.056,0.736   c-0.192,0.245-0.288,0.667-0.288,1.265c0,0.597,0.17,0.896,0.512,0.896L13.399,17.139z M26.551,23.57   c0,0.619-0.191,0.928-0.576,0.928c-0.149,0-0.405-0.053-0.768-0.16c-1.579-0.532-3.014-0.799-4.304-0.799   c-1.291,0-2.812,0.106-4.561,0.319c-1.749,0.214-2.869,0.491-3.359,0.832c-0.214,0.149-0.396,0.224-0.544,0.224   c-0.15,0-0.331-0.229-0.545-0.688c-0.213-0.459-0.319-0.757-0.319-0.896c0-0.139,0.037-0.234,0.111-0.287   c0.075-0.053,0.245-0.08,0.513-0.08c0.267,0,0.949-0.16,2.048-0.48s1.851-0.522,2.256-0.607c0.405-0.086,0.64-0.171,0.704-0.256   c0.063-0.086,0.144-0.272,0.24-0.561c0.096-0.288,0.144-0.57,0.144-0.848c0-0.789-0.288-1.185-0.864-1.185   c-0.128,0-0.271,0.027-0.432,0.08c-0.16,0.054-0.283,0.08-0.368,0.08c-0.256,0-0.485-0.347-0.688-1.04   c-0.203-0.693-0.305-1.136-0.305-1.328c0-0.191,0.192-0.309,0.576-0.352c0.598-0.043,1.057-0.096,1.376-0.16   c0.32-0.064,1.131-0.288,2.433-0.672c1.301-0.384,2.218-0.576,2.752-0.576c0.276,0,0.404,0.144,0.384,0.432   c-0.021,0.288-0.032,0.443-0.032,0.464l0.096,0.832c0,0.234-0.149,0.426-0.447,0.575c-0.641,0.278-1.04,0.507-1.2,0.688   s-0.342,0.518-0.544,1.008c-0.203,0.49-0.304,0.955-0.304,1.393s0.042,0.698,0.128,0.783c0.085,0.086,0.271,0.128,0.56,0.128   s0.805-0.036,1.552-0.112c0.747-0.074,1.397-0.229,1.952-0.463c0.171-0.086,0.331-0.129,0.48-0.129c0.341,0,0.575,0.16,0.704,0.48   c0.276,0.64,0.538,1.099,0.783,1.376S26.551,23.145,26.551,23.57z M22.391,4.402c0.149,0,0.257,0.107,0.32,0.32   c0.064,0.213,0.299,0.523,0.704,0.928c0.085,0.085,0.128,0.229,0.128,0.432c0,0.203-0.096,0.421-0.288,0.656   c-0.191,0.235-0.416,0.384-0.672,0.448s-0.496,0.176-0.72,0.336c-0.225,0.16-0.812,0.757-1.761,1.792   c-0.949,1.035-1.61,1.84-1.983,2.416c-0.374,0.576-0.561,0.971-0.561,1.184c0,0.213,0.011,0.357,0.032,0.432   s0.032,0.155,0.032,0.24c0,0.406-0.368,0.832-1.104,1.28c-0.735,0.448-1.595,0.672-2.575,0.672c-0.513,0-0.769-0.075-0.769-0.225   c0-0.149,0.149-0.341,0.448-0.576c1.109-0.832,2.16-1.978,3.152-3.44c0.991-1.461,1.487-2.341,1.487-2.64S18.161,8.21,17.959,8.21   c-0.203,0-0.491,0.054-0.864,0.16c-0.373,0.107-0.677,0.24-0.912,0.4c-0.234,0.16-0.41,0.24-0.527,0.24   c-0.118,0-0.229-0.075-0.336-0.224c-0.107-0.149-0.272-0.522-0.496-1.12c-0.225-0.597-0.336-1.019-0.336-1.264   c0-0.245,0.139-0.378,0.416-0.4c0.811-0.042,1.946-0.224,3.407-0.544c1.462-0.32,2.485-0.576,3.072-0.768   S22.306,4.402,22.391,4.402z M24.855,12.466c0,0.448-0.123,0.816-0.368,1.104c-0.246,0.288-0.496,0.678-0.752,1.168   c-0.064,0.128-0.155,0.192-0.272,0.192s-0.208-0.053-0.271-0.16l-1.313-1.792c-0.789-1.045-1.248-1.648-1.376-1.808   c-0.128-0.16-0.192-0.304-0.192-0.432c0-0.298,0.16-0.448,0.48-0.448c0.128,0,0.698,0.176,1.712,0.528   c1.013,0.352,1.621,0.576,1.824,0.672c0.202,0.096,0.341,0.229,0.416,0.4C24.817,12.062,24.855,12.253,24.855,12.466z" stroke-width="1"/>
</g>
</svg>