<svg xmlns="http://www.w3.org/2000/svg" xmlns:xlink="http://www.w3.org/1999/xlink" version="1.1" id="图层_1" x="0px" y="0px" width="29.288002014160156" height="25.83100700378418" viewBox="1.250999927520752 1.598996877670288 29.288002014160156 25.83100700378418" enable-background="new 0 0 30 30" xml:space="preserve">
<g>
	<path fill="#0000FF" d="M18.935,21.715c0,0.213,0.017,0.389,0.049,0.527c0.031,0.139,0.085,0.235,0.159,0.289   c0.075,0.053,0.411,0.176,1.009,0.367c0.597,0.191,1.088,0.314,1.472,0.368s1.034,0.123,1.952,0.208   c2.111,0.191,3.717,0.469,4.815,0.832c1.099,0.362,1.648,0.65,1.648,0.863s-0.315,0.459-0.944,0.736s-1.552,0.523-2.768,0.736   s-2.064,0.299-2.544,0.256c-0.48-0.043-0.816-0.064-1.008-0.064l-1.152,0.097c-0.235,0-0.405-0.063-0.512-0.192   c-0.939-1.237-1.809-2.123-2.608-2.656s-1.712-0.799-2.736-0.799c-0.469,0-0.815-0.017-1.04-0.049   c-0.224-0.031-0.635-0.133-1.231-0.304c-1.75-0.513-3.275-0.769-4.576-0.769c-0.405,0-0.934,0.06-1.584,0.176   c-0.651,0.118-1.275,0.177-1.872,0.177H5.079c-0.384,0-0.763,0.032-1.136,0.096c-0.374,0.063-0.629,0.14-0.768,0.224   c-0.139,0.086-0.24,0.129-0.304,0.129c-0.171,0-0.4-0.31-0.688-0.928C1.895,21.416,1.751,21,1.751,20.787   c0-0.342,0.192-0.47,0.576-0.385c0.384,0.086,0.752,0.129,1.104,0.129s0.714-0.037,1.088-0.113   c0.373-0.074,0.634-0.122,0.784-0.144c0.149-0.021,0.256-0.063,0.32-0.128s0.096-0.133,0.096-0.208   c0-0.074-0.021-0.144-0.064-0.208c-0.405-0.704-0.699-1.333-0.88-1.889c-0.182-0.554-0.288-1.141-0.32-1.76   c-0.032-0.618-0.075-1.04-0.128-1.264c-0.054-0.224-0.149-0.448-0.288-0.672C3.9,13.922,3.831,13.757,3.831,13.65   c0-0.106,0.064-0.245,0.192-0.416c0.128-0.17,0.304-0.256,0.528-0.256c0.224,0,0.635,0.091,1.232,0.272   c0.597,0.182,0.96,0.315,1.088,0.4c0.128,0.085,0.192,0.187,0.192,0.304s-0.043,0.251-0.128,0.4   c-0.47,0.768-0.704,1.445-0.704,2.032s0.09,1.099,0.272,1.535c0.181,0.438,0.437,0.854,0.768,1.248   c0.331,0.396,0.565,0.646,0.704,0.752c0.139,0.107,0.325,0.16,0.561,0.16c0.789,0.021,1.855,0.23,3.2,0.625   c1.344,0.395,2.426,0.661,3.248,0.799c0.82,0.14,1.359,0.209,1.615,0.209c0.257,0,0.385-0.107,0.385-0.32l-0.225-4.48   c-0.106-1.685-0.187-2.789-0.24-3.312c-0.053-0.522-0.139-0.858-0.256-1.008s-0.277-0.224-0.479-0.224   c-0.203,0-0.646,0.091-1.328,0.272c-0.683,0.182-1.152,0.331-1.408,0.448c-0.256,0.118-0.411,0.347-0.464,0.688   c-0.054,0.342-0.08,0.64-0.08,0.896l0.096,0.992c0,0.428-0.587,1.158-1.76,2.192c-1.174,1.035-2.112,1.552-2.815,1.552   c-0.086,0-0.129-0.037-0.129-0.111s0.107-0.272,0.32-0.592c1.322-1.835,2.117-3.066,2.384-3.696   c0.267-0.629,0.513-1.68,0.736-3.152c0.224-1.472,0.336-2.704,0.336-3.696c0-0.992-0.032-1.696-0.096-2.112   c-0.064-0.416-0.097-0.634-0.097-0.656c0-0.384,0.192-0.586,0.576-0.608c0.385-0.021,0.752-0.075,1.104-0.16   c0.352-0.085,0.997-0.309,1.936-0.672l2.464-0.928c0.683-0.256,1.152-0.474,1.408-0.656c0.256-0.181,0.448-0.272,0.576-0.272   c0.299,0,0.544,0.288,0.736,0.864c0.191,0.576,0.288,0.992,0.288,1.248c0,0.47-0.225,0.779-0.673,0.928   c-0.447,0.149-1.461,0.56-3.039,1.232c-1.579,0.672-2.465,1.072-2.656,1.2c-0.192,0.128-0.342,0.336-0.448,0.624   c-0.107,0.288-0.16,0.662-0.16,1.12c0,0.459,0.139,0.688,0.416,0.688c0.085,0,0.192-0.021,0.32-0.064   c4.586-1.173,7.029-1.76,7.328-1.76c0.298,0,0.506,0.059,0.624,0.176c0.116,0.118,0.319,0.512,0.607,1.184s0.433,1.12,0.433,1.344   c0,0.224-0.054,0.358-0.16,0.4c-0.107,0.043-0.288,0.064-0.544,0.064c-0.448,0-1.195,0.075-2.24,0.224   c-0.32,0.064-0.571,0.155-0.752,0.272c-0.182,0.118-0.331,0.32-0.448,0.608c-0.117,0.288-0.197,0.944-0.24,1.968l0.032,3.68   L18.935,21.715z M7.351,8.69c0,0.128-0.043,0.278-0.128,0.448C7.138,9.31,7.042,9.416,6.935,9.458   C6.828,9.501,6.7,9.522,6.551,9.522h-0.48c-0.235,0-0.491,0.059-0.768,0.176C5.025,9.816,4.844,9.875,4.759,9.875   c-0.256,0-0.523-0.25-0.8-0.752C3.682,8.622,3.543,8.136,3.543,7.667c0-0.469,0.17-0.848,0.512-1.136   c0.341-0.288,0.586-0.432,0.736-0.432c0.149,0,0.267,0.075,0.352,0.224c0.085,0.149,0.272,0.368,0.56,0.656s0.634,0.576,1.04,0.864   C7.148,8.13,7.351,8.414,7.351,8.69z" stroke-width="1"/>
</g>
</svg>