<svg xmlns="http://www.w3.org/2000/svg" xmlns:xlink="http://www.w3.org/1999/xlink" version="1.1" id="图层_1" x="0px" y="0px" width="26.986000061035156" height="26.825000762939453" viewBox="0.3709995746612549 1.2089999914169312 26.986000061035156 26.825000762939453" style="enable-background:new 0 0 30 30;" xml:space="preserve">
  <g>
    <g>
      <path style="fill:#0000FF;" d="M8.294,17.9c-0.021,0.342,0.032,0.512,0.16,0.512s0.288-0.031,0.479-0.096&#13;&#10;&#9;&#9;c0.789-0.277,1.568-0.416,2.337-0.416c0.384,0,0.97-0.128,1.76-0.384l3.328-1.024c0.319-0.084,0.575-0.234,0.768-0.447l1.504-1.696&#13;&#10;&#9;&#9;c0.555-0.619,0.917-1.088,1.088-1.408c0.171-0.32,0.256-0.629,0.256-0.928c0-0.426-0.159-0.64-0.479-0.64&#13;&#10;&#9;&#9;c-0.171,0-0.491,0.128-0.96,0.384c-0.47,0.256-0.795,0.384-0.977,0.384c-0.181,0-0.384-0.074-0.607-0.224&#13;&#10;&#9;&#9;c-0.225-0.149-0.592-0.224-1.104-0.224c-0.512,0-1.354,0.203-2.527,0.608c-0.107,0.043-0.192,0.064-0.256,0.064&#13;&#10;&#9;&#9;c-0.235,0-0.47-0.347-0.704-1.04c-0.235-0.693-0.353-1.136-0.353-1.328s0.145-0.272,0.433-0.24&#13;&#10;&#9;&#9;c0.287,0.032,0.629,0.048,1.023,0.048s0.906-0.042,1.536-0.128c0.629-0.085,1.109-0.181,1.44-0.288&#13;&#10;&#9;&#9;c0.33-0.106,0.911-0.272,1.743-0.496s1.365-0.357,1.601-0.4c0.234-0.042,0.564-0.139,0.992-0.288&#13;&#10;&#9;&#9;c0.426-0.149,0.698-0.256,0.815-0.32s0.219-0.096,0.304-0.096c0.32,0,0.576,0.256,0.769,0.768c0.192,0.512,0.288,0.917,0.288,1.216&#13;&#10;&#9;&#9;c0,0.299-0.171,0.491-0.512,0.576c-0.576,0.149-0.864,0.326-0.864,0.528c0,0.203,0.405,0.742,1.216,1.616&#13;&#10;&#9;&#9;c0.149,0.149,0.224,0.326,0.224,0.528c0,0.203-0.074,0.4-0.224,0.592s-0.342,0.331-0.576,0.416&#13;&#10;&#9;&#9;c-0.234,0.085-0.555,0.363-0.96,0.832s-0.607,0.736-0.607,0.8c0,0.192,0.607,0.288,1.823,0.288s2.026-0.08,2.433-0.24&#13;&#10;&#9;&#9;c0.404-0.16,0.661-0.24,0.768-0.24c0.277,0,0.544,0.331,0.8,0.992s0.385,1.387,0.385,2.176c0,0.342-0.08,0.512-0.24,0.512&#13;&#10;&#9;&#9;s-0.422-0.085-0.784-0.256c-1.216-0.597-2.422-0.896-3.616-0.896c-0.683,0-1.904,0.135-3.664,0.4&#13;&#10;&#9;&#9;c-1.76,0.268-2.928,0.475-3.504,0.624L12.902,19.5c-1.088,0.215-1.707,0.332-1.856,0.353c-0.555,0.043-1.136,0.182-1.744,0.416&#13;&#10;&#9;&#9;c-0.607,0.235-0.96,0.411-1.056,0.528s-0.16,0.357-0.192,0.72c-0.031,0.363-0.053,0.896-0.063,1.601&#13;&#10;&#9;&#9;c-0.011,0.703-0.017,1.344-0.017,1.92s-0.048,1.088-0.144,1.535c-0.096,0.448-0.203,0.721-0.32,0.816s-0.357,0.145-0.72,0.145&#13;&#10;&#9;&#9;c-0.363,0-0.608-0.06-0.736-0.176c-0.128-0.118-0.192-0.246-0.192-0.385s0.011-0.24,0.032-0.305&#13;&#10;&#9;&#9;c0.192-0.512,0.288-3.028,0.288-7.551c0-1.473-0.063-2.422-0.191-2.849c-0.128-0.426-0.294-0.64-0.496-0.64&#13;&#10;&#9;&#9;c-0.203,0-0.357,0.096-0.464,0.288c-0.533,0.96-1.195,1.632-1.984,2.016c-0.79,0.384-1.35,0.576-1.68,0.576&#13;&#10;&#9;&#9;c-0.331,0-0.496-0.101-0.496-0.304s0.213-0.656,0.64-1.36c0.426-0.704,0.96-1.424,1.6-2.16c0.64-0.736,1.115-1.36,1.424-1.872&#13;&#10;&#9;&#9;c0.309-0.512,0.709-1.28,1.2-2.304c0.683-1.408,1.386-2.65,2.112-3.728c0.726-1.077,1.12-1.723,1.185-1.936&#13;&#10;&#9;&#9;c0.085-0.341,0.298-0.512,0.64-0.512c0.341,0,0.784,0.176,1.328,0.528s0.816,0.613,0.816,0.784c0,0.32-1.59,2.326-4.769,6.016&#13;&#10;&#9;&#9;c-0.47,0.598-0.704,1.248-0.704,1.952c0,0.256,0.117,0.464,0.353,0.624c0.234,0.16,0.564,0.299,0.991,0.416&#13;&#10;&#9;&#9;s0.678,0.213,0.753,0.288c0.074,0.075,0.111,0.219,0.111,0.432L8.294,17.9z M23.75,21.549c0,0.149-0.165,0.561-0.496,1.232&#13;&#10;&#9;&#9;s-0.518,1.029-0.56,1.071c-0.363,0.576-0.544,1.009-0.544,1.296c0,0.288,0.016,0.528,0.048,0.721&#13;&#10;&#9;&#9;c0.032,0.191,0.048,0.384,0.048,0.576c0,0.191-0.182,0.287-0.544,0.287l-2.145-0.064c-1.301,0-2.149,0.059-2.544,0.177&#13;&#10;&#9;&#9;c-0.395,0.117-0.848,0.202-1.359,0.256c-0.513,0.054-0.864,0.08-1.057,0.08c-0.191,0-0.336-0.032-0.432-0.097&#13;&#10;&#9;&#9;c-0.096-0.063-0.331-0.447-0.704-1.151s-0.715-1.521-1.023-2.448c-0.31-0.928-0.465-1.488-0.465-1.68s0.123-0.373,0.368-0.544&#13;&#10;&#9;&#9;s1.397-0.453,3.456-0.849c2.059-0.395,3.333-0.592,3.824-0.592c0.49,0,0.938,0.064,1.344,0.192s0.912,0.347,1.521,0.655&#13;&#10;&#9;&#9;c0.607,0.311,0.97,0.508,1.088,0.593C23.691,21.346,23.75,21.442,23.75,21.549z M16.966,13.165c0,0.192-0.293,0.608-0.88,1.248&#13;&#10;&#9;&#9;s-1.04,1.003-1.36,1.088c-0.469,0.15-0.741,0.331-0.815,0.544c-0.075,0.213-0.192,0.32-0.353,0.32&#13;&#10;&#9;&#9;c-0.159,0-0.331-0.246-0.512-0.736c-0.182-0.491-0.271-0.875-0.271-1.152c0-0.277,0.036-0.442,0.111-0.496&#13;&#10;&#9;&#9;c0.075-0.053,0.16-0.074,0.256-0.064c0.097,0.011,0.165,0.016,0.208,0.016c0.257,0,0.704-0.08,1.345-0.24&#13;&#10;&#9;&#9;c0.64-0.16,1.108-0.314,1.407-0.464c0.299-0.149,0.518-0.224,0.656-0.224S16.966,13.058,16.966,13.165z M20.102,22.541&#13;&#10;&#9;&#9;c0-0.746-0.533-1.12-1.6-1.12c-0.619,0-1.285,0.134-2,0.399c-0.715,0.268-1.146,0.491-1.296,0.672&#13;&#10;&#9;&#9;c-0.149,0.182-0.224,0.523-0.224,1.024s0.058,0.837,0.176,1.009c0.117,0.17,0.298,0.256,0.544,0.256&#13;&#10;&#9;&#9;c0.245,0,0.864-0.113,1.855-0.336c0.992-0.225,1.584-0.379,1.776-0.465c0.192-0.085,0.368-0.271,0.528-0.56&#13;&#10;&#9;&#9;S20.102,22.84,20.102,22.541z M20.07,5.133c0,0.341-0.075,0.635-0.225,0.88c-0.149,0.246-0.341,0.368-0.575,0.368&#13;&#10;&#9;&#9;c-0.086,0-0.288-0.112-0.608-0.336c-0.32-0.224-0.64-0.389-0.96-0.496c-0.32-0.106-0.565-0.261-0.736-0.464&#13;&#10;&#9;&#9;c-0.171-0.202-0.256-0.389-0.256-0.56c0-0.704,0.085-1.349,0.256-1.936s0.39-0.88,0.656-0.88s0.741,0.454,1.424,1.36&#13;&#10;&#9;&#9;S20.07,4.664,20.07,5.133z" stroke-width="1"/>
    </g>
    <g/>
    <g/>
    <g/>
    <g/>
    <g/>
    <g/>
    <g/>
    <g/>
    <g/>
    <g/>
    <g/>
    <g/>
    <g/>
    <g/>
    <g/>
  </g>
</svg>