<svg xmlns="http://www.w3.org/2000/svg" xmlns:xlink="http://www.w3.org/1999/xlink" version="1.1" id="图层_1" x="0px" y="0px" width="25" height="22.72700309753418" viewBox="0.6580002307891846 3.577000141143799 25 22.72700309753418" style="enable-background:new 0 0 30 30;" xml:space="preserve">
  <g>
    <g>
      <path style="fill:#0000FF;" d="M25.158,18.509c0,0.192-0.054,0.544-0.16,1.056c-0.107,0.512-0.16,1.1-0.16,1.76&#13;&#10;&#9;&#9;c0,0.662-0.096,0.992-0.288,0.992c-0.191,0-0.47-0.191-0.832-0.576c-1.151-1.215-2.117-2.144-2.896-2.783&#13;&#10;&#9;&#9;c-0.779-0.641-1.782-1.285-3.008-1.937c-1.228-0.65-1.915-0.976-2.064-0.976s-0.235,0.064-0.256,0.191&#13;&#10;&#9;&#9;c-0.021,0.129-0.043,0.496-0.064,1.104s-0.031,1.333-0.031,2.176s0.036,1.787,0.111,2.832c0.075,1.046,0.112,1.675,0.112,1.888&#13;&#10;&#9;&#9;s-0.059,0.405-0.176,0.576c-0.118,0.171-0.406,0.379-0.864,0.624c-0.459,0.245-0.827,0.368-1.104,0.368s-0.395-0.225-0.352-0.672&#13;&#10;&#9;&#9;c0.043-0.448,0.064-1.27,0.064-2.465l0.096-3.647c0-0.981-0.064-1.931-0.192-2.848s-0.224-1.445-0.288-1.584&#13;&#10;&#9;&#9;c-0.063-0.139-0.139-0.208-0.224-0.208c-0.086,0-0.299,0.139-0.64,0.416c-0.342,0.277-1.35,1.221-3.024,2.832&#13;&#10;&#9;&#9;s-2.656,2.635-2.944,3.072c-0.288,0.438-0.565,0.715-0.832,0.832c-0.267,0.117-0.603,0.176-1.008,0.176s-0.955-0.037-1.648-0.112&#13;&#10;&#9;&#9;s-1.088-0.133-1.184-0.176c-0.096-0.042-0.144-0.112-0.144-0.208s0.074-0.176,0.224-0.24c1.323-0.469,2.149-0.9,2.48-1.296&#13;&#10;&#9;&#9;c0.331-0.395,1.354-1.444,3.072-3.151c1.718-1.707,2.944-2.998,3.681-3.873c0.735-0.875,1.359-1.744,1.872-2.608&#13;&#10;&#9;&#9;c0.512-0.864,0.768-1.408,0.768-1.632s-0.123-0.336-0.368-0.336s-0.768,0.112-1.567,0.336c-0.801,0.224-1.904,0.454-3.313,0.688&#13;&#10;&#9;&#9;C7.089,9.25,6.438,9.474,6.054,9.772c-0.384,0.299-0.661,0.448-0.832,0.448c-0.171,0-0.315-0.112-0.432-0.336&#13;&#10;&#9;&#9;C4.672,9.661,4.528,9.144,4.358,8.333C4.187,7.522,4.102,7,4.102,6.765c0-0.234,0.048-0.352,0.144-0.352&#13;&#10;&#9;&#9;c0.096,0,0.229,0.027,0.4,0.08c0.17,0.054,0.362,0.08,0.576,0.08c0.213,0,0.714-0.064,1.503-0.192&#13;&#10;&#9;&#9;C13.702,5.229,18.054,4.6,19.782,4.493c0.469-0.021,0.997-0.096,1.584-0.224c0.586-0.128,0.965-0.192,1.136-0.192&#13;&#10;&#9;&#9;c0.512,0,1.013,0.475,1.504,1.424c0.49,0.95,0.736,1.659,0.736,2.128c0,0.256-0.091,0.384-0.272,0.384s-0.527-0.048-1.04-0.144&#13;&#10;&#9;&#9;c-0.512-0.096-0.875-0.144-1.088-0.144s-0.464,0.021-0.752,0.064c-0.288,0.043-0.752,0.064-1.392,0.064&#13;&#10;&#9;&#9;c-0.641,0-1.057,0.038-1.248,0.112c-0.192,0.075-0.571,0.341-1.136,0.8c-0.566,0.459-0.972,0.87-1.217,1.232&#13;&#10;&#9;&#9;c-0.245,0.363-0.459,1.125-0.64,2.288c-0.182,1.163-0.272,1.894-0.272,2.192c0,0.299,0.203,0.48,0.608,0.544&#13;&#10;&#9;&#9;c4.629,1.195,7.264,1.926,7.904,2.192C24.838,17.479,25.158,17.912,25.158,18.509z" stroke-width="1"/>
    </g>
    <g/>
    <g/>
    <g/>
    <g/>
    <g/>
    <g/>
    <g/>
    <g/>
    <g/>
    <g/>
    <g/>
    <g/>
    <g/>
    <g/>
    <g/>
  </g>
</svg>