<svg xmlns="http://www.w3.org/2000/svg" xmlns:xlink="http://www.w3.org/1999/xlink" version="1.1" id="图层_1" x="0px" y="0px" width="26.246997833251953" height="24.742000579833984" viewBox="-0.20499715209007263 2.744999885559082 26.246997833251953 24.742000579833984" style="enable-background:new 0 0 30 30;" xml:space="preserve">
  <g>
    <g>
      <path style="fill:#0000FF;" d="M22.982,4.813c0,0.128-0.107,0.256-0.32,0.384c-0.299,0.192-0.582,0.496-0.848,0.912&#13;&#10;&#9;&#9;c-0.268,0.416-0.593,0.837-0.977,1.264c-0.213,0.256-0.32,0.501-0.32,0.736s0.032,0.453,0.097,0.656&#13;&#10;&#9;&#9;c0.063,0.203,0.096,0.39,0.096,0.56c0,0.171-0.091,0.336-0.271,0.496c-0.182,0.16-0.486,0.24-0.912,0.24&#13;&#10;&#9;&#9;c-0.428,0-1.02,0.054-1.776,0.16c-0.758,0.107-1.909,0.315-3.456,0.624c-1.547,0.31-2.416,0.501-2.608,0.576&#13;&#10;&#9;&#9;c-0.191,0.075-0.347,0.176-0.464,0.304s-0.331,0.475-0.64,1.04c-0.31,0.565-0.726,1.184-1.248,1.856&#13;&#10;&#9;&#9;c-0.523,0.672-1.36,1.691-2.512,3.056c-0.747,0.875-1.12,1.632-1.12,2.272c0,0.127,0.01,0.239,0.032,0.336&#13;&#10;&#9;&#9;c0.021,0.096,0.032,0.191,0.032,0.287s-0.038,0.203-0.112,0.32s-0.549,0.523-1.424,1.217c-0.875,0.693-1.643,1.088-2.304,1.184&#13;&#10;&#9;&#9;s-1.099,0.144-1.312,0.144c-0.214,0-0.32-0.032-0.32-0.096c0-0.149,0.277-0.458,0.832-0.929c1.749-1.492,2.986-2.762,3.712-3.808&#13;&#10;&#9;&#9;c0.725-1.045,1.547-2.378,2.464-4c0.917-1.621,1.568-3.098,1.952-4.432C9.638,8.84,9.83,7.586,9.83,6.413L9.798,5.677&#13;&#10;&#9;&#9;c0-0.277,0.112-0.512,0.336-0.704c0.225-0.192,0.544-0.288,0.96-0.288s1.157-0.149,2.225-0.448&#13;&#10;&#9;&#9;c2.432-0.661,4.229-0.992,5.392-0.992c1.162,0,2.165,0.192,3.008,0.576C22.561,4.205,22.982,4.536,22.982,4.813z M23.526,15.853&#13;&#10;&#9;&#9;c0.554,0,1.028,0.32,1.424,0.96c0.395,0.641,0.592,1.12,0.592,1.44c0,0.319-0.203,0.479-0.608,0.479l-2.367-0.064&#13;&#10;&#9;&#9;c-0.832,0-1.664,0.038-2.496,0.113c-0.832,0.074-1.36,0.165-1.584,0.271c-0.225,0.107-0.561,0.326-1.009,0.656&#13;&#10;&#9;&#9;c-0.447,0.33-0.843,0.715-1.184,1.152c-0.342,0.438-0.598,0.799-0.768,1.088c-0.171,0.287-0.256,0.475-0.256,0.56&#13;&#10;&#9;&#9;s0.116,0.128,0.352,0.128c0.768,0,1.461-0.234,2.08-0.704c0.618-0.469,1.227-0.805,1.824-1.008&#13;&#10;&#9;&#9;c0.597-0.202,1.008-0.304,1.231-0.304c0.225,0,0.411,0.059,0.561,0.176c0.148,0.117,0.475,0.549,0.976,1.296&#13;&#10;&#9;&#9;s0.848,1.382,1.04,1.903c0.192,0.523,0.288,1.02,0.288,1.488c0,1.003-0.224,1.504-0.672,1.504c-0.277,0-0.635-0.144-1.072-0.432&#13;&#10;&#9;&#9;s-0.864-0.549-1.28-0.784s-0.709-0.453-0.88-0.655c-0.171-0.203-0.256-0.363-0.256-0.48s0.128-0.166,0.384-0.145h0.353&#13;&#10;&#9;&#9;c0.512,0,0.971-0.154,1.376-0.463c0.405-0.31,0.607-0.667,0.607-1.072s-0.176-0.784-0.527-1.137&#13;&#10;&#9;&#9;c-0.353-0.352-0.769-0.527-1.248-0.527c-0.48,0-0.918,0.24-1.313,0.72s-0.635,1.104-0.72,1.872&#13;&#10;&#9;&#9;c-0.021,0.341-0.214,0.512-0.576,0.512c-0.875,0.021-1.898,0.176-3.072,0.465c-1.173,0.287-2.251,0.666-3.231,1.135&#13;&#10;&#9;&#9;c-0.256,0.129-0.491,0.192-0.704,0.192c-0.214,0-0.384-0.096-0.512-0.288c-0.128-0.191-0.336-0.49-0.624-0.896&#13;&#10;&#9;&#9;s-0.433-0.688-0.433-0.849s0.085-0.261,0.256-0.304c1.237-0.234,2.262-0.885,3.072-1.952c0.811-1.066,1.216-1.728,1.216-1.984&#13;&#10;&#9;&#9;c0-0.084-0.048-0.127-0.144-0.127s-0.598,0.096-1.504,0.287c-0.907,0.192-1.558,0.357-1.952,0.496&#13;&#10;&#9;&#9;c-0.395,0.14-0.741,0.305-1.04,0.496c-0.128,0.086-0.277,0.129-0.448,0.129s-0.373-0.225-0.607-0.672&#13;&#10;&#9;&#9;c-0.235-0.449-0.353-0.785-0.353-1.009s0.225-0.378,0.672-0.464c3.285-0.641,5.846-1.28,7.681-1.92&#13;&#10;&#9;&#9;c0.811-0.277,1.695-0.438,2.655-0.48c0.96-0.042,1.877-0.16,2.752-0.352L23.526,15.853z M19.718,11.789&#13;&#10;&#9;&#9;c0.32,0,0.544,0.038,0.672,0.112s0.229,0.245,0.305,0.512c0.074,0.267,0.111,0.496,0.111,0.688s-0.139,0.352-0.416,0.48&#13;&#10;&#9;&#9;c-0.575,0.256-1.119,0.56-1.632,0.912c-0.512,0.352-1.056,0.528-1.632,0.528c-1.131,0-2.315,0.342-3.552,1.024&#13;&#10;&#9;&#9;c-0.128,0.064-0.268,0.096-0.416,0.096c-0.277,0-0.464-0.149-0.561-0.448c-0.096-0.299-0.234-0.603-0.416-0.912&#13;&#10;&#9;&#9;c-0.181-0.309-0.271-0.576-0.271-0.8c0-0.224,0.139-0.346,0.416-0.368c0.276-0.021,0.73-0.128,1.359-0.32&#13;&#10;&#9;&#9;c0.63-0.192,1.185-0.325,1.664-0.4c0.48-0.074,1.222-0.277,2.225-0.608C18.576,11.954,19.291,11.789,19.718,11.789z M12.55,9.133&#13;&#10;&#9;&#9;c0.064,0,0.128-0.011,0.192-0.032c0.768-0.277,2.112-0.608,4.032-0.992c0.319-0.064,0.56-0.171,0.72-0.32&#13;&#10;&#9;&#9;c0.16-0.149,0.341-0.485,0.544-1.008c0.202-0.522,0.304-0.869,0.304-1.04c0-0.17-0.102-0.362-0.304-0.576&#13;&#10;&#9;&#9;c-0.203-0.213-0.432-0.32-0.688-0.32c-0.533,0-1.189,0.118-1.968,0.352c-0.779,0.235-1.43,0.518-1.952,0.848&#13;&#10;&#9;&#9;s-0.863,0.661-1.023,0.992c-0.16,0.331-0.24,0.763-0.24,1.296C12.166,8.866,12.294,9.133,12.55,9.133z" stroke-width="1"/>
    </g>
    <g/>
    <g/>
    <g/>
    <g/>
    <g/>
    <g/>
    <g/>
    <g/>
    <g/>
    <g/>
    <g/>
    <g/>
    <g/>
    <g/>
    <g/>
  </g>
</svg>