<svg xmlns="http://www.w3.org/2000/svg" xmlns:xlink="http://www.w3.org/1999/xlink" version="1.1" id="图层_1" x="0px" y="0px" width="26.022998809814453" height="27.624004364013672" viewBox="1.5080015659332275 0.5749984979629517 26.022998809814453 27.624004364013672" enable-background="new 0 0 30 30" xml:space="preserve">
<g>
	<path fill="#0000FF" d="M27.031,25.17c0,0.449-0.038,0.758-0.112,0.929c-0.075,0.171-0.208,0.256-0.4,0.256   c-0.191,0-0.442-0.063-0.752-0.192c-0.31-0.127-0.635-0.203-0.976-0.224c-0.981-0.149-1.989-0.341-3.024-0.576   c-1.034-0.235-2.224-0.352-3.567-0.352c-0.491,0-1.109,0.058-1.856,0.176c-0.747,0.117-1.43,0.202-2.048,0.256   c-0.619,0.054-1.291,0.08-2.016,0.08c-0.726,0-2.208,0.192-4.448,0.576s-3.766,0.864-4.576,1.44   c-0.149,0.105-0.288,0.16-0.416,0.16c-0.277,0-0.443-0.166-0.496-0.496c-0.053-0.332-0.123-0.619-0.208-0.865   c-0.085-0.244-0.128-0.421-0.128-0.527c0-0.32,0.24-0.491,0.72-0.512c0.48-0.021,1.402-0.16,2.768-0.416   c1.365-0.256,2.607-0.545,3.728-0.864s2.097-0.57,2.929-0.752c0.832-0.181,1.349-0.341,1.552-0.479   c0.202-0.139,0.496-0.47,0.88-0.992c0.384-0.523,0.666-0.961,0.848-1.313s0.272-0.698,0.272-1.04c0-0.341-0.134-0.587-0.4-0.735   c-0.267-0.149-0.518-0.225-0.752-0.225c-0.747,0-1.749,1.12-3.008,3.359c-0.171,0.278-0.373,0.416-0.608,0.416   c-0.234,0-0.459-0.176-0.672-0.527s-0.319-0.709-0.319-1.072c0-0.362,0.196-0.826,0.592-1.392c0.395-0.565,0.592-0.992,0.592-1.28   c0-0.287-0.037-0.447-0.112-0.48c-0.074-0.031-0.304-0.047-0.688-0.047c-0.832,0-1.344,0.053-1.536,0.16   c-0.192,0.106-0.342,0.159-0.448,0.159s-0.197-0.042-0.271-0.128c-0.075-0.085-0.229-0.404-0.464-0.96   c-0.235-0.554-0.353-0.885-0.353-0.991c0-0.385,0.416-0.577,1.248-0.577c0.362,0,1.152-0.096,2.368-0.288s1.957-0.341,2.224-0.448   s0.4-0.219,0.4-0.336c0-0.117-0.155-0.325-0.464-0.624c-0.31-0.299-0.464-0.603-0.464-0.912c0-0.309,0.256-0.747,0.768-1.312   c0.512-0.565,0.885-0.848,1.12-0.848c0.299,0,0.49,0.182,0.576,0.544c0.085,0.363,0.213,0.629,0.384,0.8   c0.448,0.555,0.709,0.971,0.784,1.248c0.074,0.278,0.165,0.416,0.271,0.416s0.203-0.01,0.288-0.032   c1.451-0.362,2.528-0.544,3.232-0.544c0.128,0,0.229,0.016,0.304,0.048c0.074,0.032,0.272,0.288,0.592,0.768   c0.32,0.48,0.48,0.843,0.48,1.088c0,0.246-0.097,0.454-0.288,0.624c-0.192,0.171-0.464,0.246-0.816,0.225   c-0.352-0.021-0.549-0.033-0.592-0.033c-1.515,0-2.688,0.177-3.52,0.529c-0.832,0.352-1.248,0.655-1.248,0.911   c0,0.107,0.133,0.144,0.399,0.112c0.267-0.032,0.518-0.048,0.752-0.048c0.769,0,1.584,0.235,2.448,0.704s1.296,0.854,1.296,1.152   c0,0.148-0.123,0.341-0.368,0.575c-0.245,0.235-0.479,0.56-0.704,0.976c-0.224,0.416-0.56,0.859-1.008,1.328   c-0.191,0.214-0.288,0.406-0.288,0.576c0,0.172,0.251,0.246,0.752,0.225s0.901-0.032,1.2-0.032l1.824,0.032   c1.578,0,2.698-0.053,3.36-0.16c0.148-0.021,0.276-0.032,0.384-0.032c0.49,0,0.837,0.245,1.04,0.735   c0.202,0.492,0.427,0.875,0.672,1.152S27.031,24.829,27.031,25.17z M13.623,5.491c0.149,0,0.267,0.107,0.352,0.32   c0.085,0.213,0.128,0.427,0.128,0.64s-0.176,0.485-0.527,0.816c-0.353,0.331-0.912,0.752-1.681,1.264   c-0.256,0.171-0.384,0.341-0.384,0.512c0,0.171,0.219,0.384,0.656,0.64c0.437,0.256,0.656,0.485,0.656,0.688   c0,0.203-0.171,0.459-0.513,0.768c-0.341,0.31-0.65,0.464-0.928,0.464s-0.672-0.101-1.184-0.304   c-0.513-0.202-0.812-0.528-0.896-0.976c-0.128-0.747-0.341-1.12-0.64-1.12c-0.128,0-0.245,0.059-0.353,0.176   c-0.106,0.118-0.495,0.427-1.167,0.928c-0.672,0.501-1.222,0.854-1.648,1.056c-0.427,0.203-0.896,0.304-1.408,0.304   c-0.512,0-0.768-0.085-0.768-0.256c0-0.17,0.133-0.411,0.4-0.72c0.267-0.309,0.821-0.837,1.664-1.584   C6.226,8.36,6.844,7.565,7.239,6.723C7.634,5.88,8.06,5.085,8.519,4.338C8.978,3.592,9.26,3.17,9.367,3.075   c0.106-0.096,0.224-0.144,0.352-0.144c0.32,0,0.747,0.224,1.28,0.672c0.533,0.448,0.8,0.821,0.8,1.12   c0,0.149-0.182,0.331-0.544,0.544c-1.28,0.747-1.92,1.387-1.92,1.92c0,0.171,0.069,0.256,0.208,0.256s0.304-0.048,0.496-0.144   c0.192-0.096,0.608-0.282,1.248-0.56c0.683-0.277,1.354-0.65,2.016-1.12C13.409,5.534,13.516,5.491,13.623,5.491z M22.039,4.787   c0.171,0,0.299,0.117,0.384,0.352s0.128,0.427,0.128,0.576c0,0.15-0.063,0.304-0.191,0.464c-0.128,0.16-0.47,0.453-1.024,0.88   s-1.056,0.757-1.504,0.992c-0.277,0.15-0.416,0.315-0.416,0.496c0,0.182,0.139,0.427,0.416,0.736s0.416,0.613,0.416,0.912   c0,0.299-0.128,0.523-0.384,0.672s-0.502,0.224-0.736,0.224c-0.235,0-0.592-0.069-1.072-0.208   c-0.479-0.138-0.768-0.256-0.863-0.352c-0.097-0.096-0.145-0.261-0.145-0.496l0.064-1.024c0-0.299-0.064-0.512-0.192-0.64   s-0.256-0.192-0.384-0.192c-0.086,0-0.288,0.139-0.608,0.416c-0.319,0.277-0.688,0.523-1.104,0.736   c-0.416,0.213-0.678,0.32-0.784,0.32c-0.107,0-0.16-0.069-0.16-0.208c0-0.138,0.192-0.522,0.576-1.152   c0.384-0.629,0.772-1.322,1.168-2.08c0.395-0.757,0.933-1.738,1.616-2.944c0.683-1.205,1.093-1.872,1.231-2   s0.314-0.192,0.528-0.192c0.213,0,0.533,0.197,0.96,0.592c0.427,0.395,0.64,0.688,0.64,0.88c0,0.149-0.213,0.448-0.64,0.896   c-0.427,0.448-0.88,0.998-1.36,1.648c-0.479,0.651-0.72,1.051-0.72,1.2c0,0.107,0.117,0.16,0.353,0.16   c0.234,0,0.512-0.096,0.832-0.288C20.833,5.246,21.825,4.787,22.039,4.787z" stroke-width="1"/>
</g>
</svg>