<svg xmlns="http://www.w3.org/2000/svg" xmlns:xlink="http://www.w3.org/1999/xlink" version="1.1" id="图层_1" x="0px" y="0px" width="24.49100112915039" height="22.758996963500977" viewBox="2.6570003032684326 3.9670004844665527 24.49100112915039 22.758996963500977" enable-background="new 0 0 30 30" xml:space="preserve">
<g>
	<path fill="#0000FF" d="M11.575,5.395c0,0.192-0.075,0.416-0.225,0.672c-1.151,2.07-1.728,3.456-1.728,4.16   c0,0.277,0.106,0.699,0.32,1.264c0.213,0.565,0.362,1.067,0.447,1.504c0.085,0.438,0.128,0.992,0.128,1.664   c0,0.672-0.059,1.093-0.176,1.263c-0.117,0.172-0.347,0.257-0.688,0.257c-0.342,0-0.784-0.063-1.328-0.192   c-0.544-0.128-0.971-0.293-1.28-0.496s-0.512-0.304-0.608-0.304s-0.155,0.203-0.176,0.608c-0.043,0.703-0.182,1.573-0.416,2.607   c-0.235,1.035-0.352,1.932-0.352,2.688c0,0.758,0.021,1.404,0.064,1.937c0.042,0.534,0.064,0.907,0.064,1.12   c0,0.832-0.251,1.344-0.752,1.536c-0.501,0.192-0.87,0.288-1.104,0.288c-0.406,0-0.608-0.246-0.608-0.736   c0-0.213,0.058-0.565,0.176-1.056c0.117-0.491,0.229-1.099,0.336-1.824c0.106-0.726,0.181-1.567,0.224-2.528l0.16-3.072   c0.064-1.066,0.096-1.94,0.096-2.624c0-0.682-0.064-1.877-0.192-3.584C3.831,8.84,3.687,7.821,3.527,7.491   c-0.16-0.331-0.24-0.581-0.24-0.752c0-0.469,0.378-0.885,1.136-1.248s1.429-0.56,2.016-0.592c0.586-0.032,1.077-0.112,1.472-0.24   c0.395-0.128,0.768-0.192,1.12-0.192c0.352,0,0.8,0.048,1.344,0.144c0.544,0.096,0.88,0.208,1.008,0.336   C11.511,5.075,11.575,5.224,11.575,5.395z M8.183,10.163c0-0.384,0.064-0.683,0.192-0.896c0.234-0.512,0.352-1.125,0.352-1.84   S8.332,6.354,7.543,6.354c-0.576,0-0.864,0.363-0.864,1.088c0,0.534-0.08,1.296-0.24,2.288s-0.24,1.702-0.24,2.128l0.064,0.96   c0.021,0.64,0.176,1.03,0.464,1.168c0.288,0.139,0.491,0.208,0.608,0.208s0.33-0.016,0.64-0.048c0.31-0.032,0.491-0.272,0.544-0.72   c0.054-0.448,0.08-0.843,0.08-1.184s-0.069-0.693-0.208-1.056C8.252,10.824,8.183,10.482,8.183,10.163z M13.783,16.818   c0,0.406-0.357,1.334-1.072,2.784c-0.715,1.451-1.152,2.362-1.312,2.735c-0.16,0.374-0.348,0.561-0.561,0.561   c-0.32,0-0.789-0.154-1.408-0.464S8.503,21.8,8.503,21.459c0-0.192,0.074-0.4,0.224-0.625c0.149-0.224,0.619-0.735,1.408-1.535   c0.789-0.801,1.499-1.461,2.128-1.984c0.629-0.522,1.04-0.783,1.232-0.783C13.687,16.531,13.783,16.627,13.783,16.818z    M23.735,10.354c0.362,0,0.655,0.123,0.88,0.368c0.224,0.246,0.347,0.507,0.368,0.784c0.021,0.278,0.09,0.555,0.208,0.832   c0.116,0.278,0.176,0.47,0.176,0.576c0,0.256-0.16,0.384-0.48,0.384c-0.319,0-0.607-0.026-0.863-0.08   c-0.257-0.053-0.523-0.08-0.801-0.08c-0.299,0-0.783,0.021-1.456,0.064c-0.672,0.043-1.088,0.102-1.248,0.176   c-0.159,0.075-0.287,0.203-0.384,0.384c-0.096,0.181-0.24,0.624-0.432,1.328c-0.192,0.705-0.32,1.333-0.384,1.888v1.344   c0,0.256-0.054,0.731-0.16,1.424c-0.107,0.693-0.16,1.521-0.16,2.48s0.016,1.59,0.048,1.889c0.032,0.298,0.048,0.532,0.048,0.703   c0,0.938-0.288,1.408-0.863,1.408c-0.172,0-0.348-0.037-0.528-0.111c-0.182-0.076-0.539-0.257-1.072-0.545   c-0.533-0.287-0.949-0.496-1.248-0.624c-1.771-0.789-2.656-1.376-2.656-1.76c0-0.192,0.208-0.261,0.624-0.208   c0.416,0.054,0.934,0.08,1.553,0.08c0.618,0,1.093-0.074,1.424-0.225c0.33-0.148,0.555-0.395,0.672-0.735s0.176-0.944,0.176-1.808   c0-0.864-0.048-1.898-0.144-3.104c-0.097-1.205-0.198-2.032-0.305-2.48c-0.106-0.448-0.197-0.725-0.271-0.832   c-0.075-0.106-0.203-0.16-0.384-0.16c-0.182,0-0.662,0.112-1.44,0.336c-0.779,0.224-1.302,0.395-1.567,0.512   c-0.268,0.118-0.465,0.176-0.593,0.176c-0.299,0-0.507-0.245-0.624-0.736c-0.117-0.49-0.176-0.858-0.176-1.104   c0-0.245,0.037-0.421,0.112-0.528c0.074-0.106,0.181-0.176,0.319-0.208c0.139-0.032,0.709-0.123,1.713-0.272   c1.002-0.149,1.936-0.309,2.8-0.48c0.863-0.17,2.042-0.352,3.536-0.544c0.298-0.042,0.698-0.133,1.199-0.272   s0.869-0.213,1.104-0.224C22.689,10.36,23.116,10.354,23.735,10.354z M22.103,5.042c0,0.149-0.053,0.395-0.159,0.736   c-0.107,0.342-0.192,0.56-0.257,0.656c-0.063,0.096-0.197,0.197-0.399,0.304c-0.203,0.107-0.528,0.331-0.977,0.672   c-0.64,0.448-1.114,0.736-1.424,0.864s-0.698,0.192-1.168,0.192s-0.896,0.054-1.279,0.16c-0.385,0.107-0.651,0.16-0.801,0.16   s-0.31-0.128-0.479-0.384c-0.171-0.256-0.39-0.672-0.656-1.248c-0.267-0.576-0.4-0.949-0.4-1.12c0-0.299,0.342-0.491,1.024-0.576   c1.152-0.192,2.037-0.378,2.656-0.56c0.618-0.181,1.845-0.272,3.68-0.272C21.89,4.626,22.103,4.766,22.103,5.042z M21.527,16.883   c0.17,0,0.688,0.187,1.552,0.56c0.864,0.374,1.616,0.763,2.256,1.168s1.019,0.688,1.136,0.849s0.177,0.453,0.177,0.879   c0,0.428-0.182,0.967-0.545,1.617c-0.362,0.65-0.683,0.976-0.96,0.976c-0.149,0-0.304-0.08-0.464-0.24   c-0.16-0.159-0.442-0.549-0.848-1.168c-0.405-0.618-0.704-1.168-0.896-1.647c-0.191-0.48-0.41-0.854-0.655-1.121   c-0.246-0.266-0.476-0.57-0.688-0.912c-0.213-0.34-0.32-0.586-0.32-0.735S21.356,16.883,21.527,16.883z" stroke-width="1"/>
</g>
</svg>