<svg xmlns="http://www.w3.org/2000/svg" xmlns:xlink="http://www.w3.org/1999/xlink" version="1.1" id="图层_1" x="0px" y="0px" width="24.551998138427734" height="30.215999603271484" viewBox="1.9870004653930664 -0.6420002281665802 24.551998138427734 30.215999603271484" enable-background="new 0 0 30 30" xml:space="preserve">
<g>
	<path fill="#0000FF" d="M17.943,18.387c0.404,0,0.757,0.405,1.056,1.216c0.299,0.812,0.448,1.317,0.448,1.521   s-0.097,0.304-0.288,0.304c-0.192,0-0.491-0.048-0.896-0.144c-0.405-0.097-1.023-0.145-1.855-0.145s-2.043,0.149-3.632,0.447   c-1.59,0.3-3.024,0.502-4.305,0.608c-1.279,0.107-2.283,0.262-3.008,0.464c-0.726,0.203-1.216,0.39-1.472,0.561   c-0.256,0.171-0.475,0.256-0.656,0.256c-0.182,0-0.368-0.309-0.56-0.928s-0.288-1.041-0.288-1.264c0-0.225,0.123-0.314,0.368-0.272   c0.245,0.043,0.442,0.063,0.592,0.063c0.363,0,1.067-0.117,2.112-0.352c3.882-0.917,6.528-1.439,7.936-1.568   c1.408-0.128,2.464-0.287,3.168-0.48C17.367,18.482,17.794,18.387,17.943,18.387z M26.039,15.795c0,0.17-0.059,0.325-0.176,0.463   c-0.118,0.14-0.379,1.228-0.784,3.265c-0.405,2.038-0.726,3.462-0.96,4.272c-0.235,0.811-0.635,1.818-1.2,3.023   s-0.901,1.883-1.008,2.031c-0.107,0.15-0.24,0.225-0.4,0.225s-0.464-0.145-0.912-0.432c-0.447-0.287-1.216-0.635-2.304-1.041   c-1.067-0.383-2.08-0.885-3.04-1.503c-0.96-0.619-1.439-1.077-1.439-1.376c0-0.107,0.068-0.16,0.208-0.16   c0.138,0,0.293,0.021,0.464,0.064c2.239,0.618,3.69,0.928,4.352,0.928s1.099-0.075,1.313-0.225   c0.213-0.148,0.458-0.586,0.735-1.312s0.533-1.696,0.769-2.912c0.234-1.216,0.352-2.276,0.352-3.185   c0-0.906-0.262-1.471-0.784-1.695s-1.301-0.336-2.336-0.336s-2.464,0.262-4.288,0.783c-1.823,0.523-2.965,0.924-3.424,1.201   s-0.763,0.416-0.912,0.416s-0.261-0.049-0.336-0.145s-0.16-0.384-0.256-0.863c-0.096-0.48-0.144-1.057-0.144-1.729   c0-0.672,0.037-1.504,0.111-2.496c0.075-0.992,0.112-1.84,0.112-2.544c0-1.301-0.139-1.952-0.416-1.952   c-0.107,0-0.271,0.112-0.496,0.336C8.615,9.123,8.3,9.411,7.895,9.763S7.1,10.509,6.727,10.946   c-0.374,0.438-0.752,0.656-1.136,0.656c-0.213,0-0.416-0.075-0.608-0.224c-0.192-0.149-0.288-0.267-0.288-0.352   c0-0.085,0.075-0.181,0.224-0.288c0.491-0.32,0.938-0.81,1.344-1.472c0.789-1.28,1.696-2.629,2.72-4.048   c1.023-1.419,2.09-3.056,3.199-4.912c0.171-0.299,0.373-0.448,0.608-0.448c0.234,0,0.693,0.235,1.376,0.704   c0.683,0.47,1.024,0.806,1.024,1.008c0,0.203-0.118,0.342-0.353,0.416c-0.235,0.075-0.421,0.187-0.56,0.336   c-0.14,0.149-0.539,0.629-1.2,1.44c-0.661,0.811-1.029,1.285-1.104,1.424c-0.074,0.139-0.111,0.256-0.111,0.352   c0,0.096,0.063,0.144,0.191,0.144s0.277-0.042,0.448-0.128c1.6-0.64,2.832-0.96,3.696-0.96s1.652,0.123,2.368,0.368   c0.714,0.246,1.151,0.432,1.312,0.56s0.24,0.262,0.24,0.4c0,0.139-0.054,0.283-0.16,0.432c-0.277,0.341-0.661,1.333-1.152,2.976   l-0.575,1.792c-0.385,1.237-0.641,1.925-0.769,2.064c-0.128,0.139-0.277,0.208-0.448,0.208c-0.106,0-0.683-0.213-1.728-0.64   c-1.046-0.426-1.909-0.832-2.592-1.216c-0.171-0.085-0.315-0.128-0.433-0.128s-0.197,0.059-0.239,0.176   c-0.043,0.118-0.086,0.539-0.129,1.264l-0.128,2.016c0,0.32,0.139,0.48,0.416,0.48s1.024-0.112,2.24-0.336   c1.216-0.224,2.245-0.389,3.088-0.496c0.843-0.106,1.851-0.16,3.024-0.16c1.173,0,2.063,0.059,2.672,0.176s1.211,0.293,1.808,0.528   c0.598,0.235,0.917,0.395,0.96,0.48C26.018,15.624,26.039,15.709,26.039,15.795z M14.071,10.834c0.683,0,1.125-0.064,1.328-0.192   c0.202-0.128,0.395-0.496,0.575-1.104c0.182-0.608,0.272-1.307,0.272-2.096c0-0.597-0.235-0.896-0.704-0.896   c-0.47,0-1.104,0.208-1.904,0.624c-0.8,0.416-1.27,0.896-1.407,1.44c-0.14,0.544-0.208,0.966-0.208,1.264   c0,0.299,0.036,0.485,0.111,0.56s0.299,0.16,0.672,0.256C13.18,10.787,13.602,10.834,14.071,10.834z" stroke-width="1"/>
</g>
</svg>