<svg xmlns="http://www.w3.org/2000/svg" xmlns:xlink="http://www.w3.org/1999/xlink" version="1.1" id="图层_1" x="0px" y="0px" width="29.09600067138672" height="25.256000518798828" viewBox="-0.14200106263160706 2.3279993534088135 29.09600067138672 25.256000518798828" style="enable-background:new 0 0 30 30;" xml:space="preserve">
  <g>
    <g>
      <path style="fill:#0000FF;" d="M11.43,4.269c0,0.235-0.074,0.448-0.224,0.64c-0.533,0.747-0.869,1.301-1.008,1.664&#13;&#10;&#9;&#9;c-0.14,0.363-0.294,0.656-0.464,0.88C9.563,7.677,9.147,8.434,8.486,9.725c-0.662,1.291-0.992,2.096-0.992,2.416&#13;&#10;&#9;&#9;c0,0.277,0.139,0.464,0.416,0.56s0.533,0.213,0.768,0.352C8.912,13.192,9.03,13.341,9.03,13.5c0,0.16-0.048,0.336-0.145,0.528&#13;&#10;&#9;&#9;c-0.096,0.192-0.187,0.843-0.271,1.952c-0.086,1.109-0.128,2.188-0.128,3.232l0.128,4.256c0,1.152-0.102,1.829-0.305,2.031&#13;&#10;&#9;&#9;c-0.202,0.203-0.655,0.305-1.359,0.305c-0.192,0-0.315-0.032-0.368-0.096c-0.054-0.064-0.08-0.192-0.08-0.385l0.032-0.799&#13;&#10;&#9;&#9;c0.021-0.533,0.032-1.601,0.032-3.201c0-1.6-0.021-3.028-0.064-4.287s-0.096-1.989-0.16-2.192&#13;&#10;&#9;&#9;c-0.063-0.203-0.139-0.304-0.224-0.304c-0.128,0-0.608,0.379-1.44,1.136s-1.654,1.387-2.464,1.888&#13;&#10;&#9;&#9;c-0.811,0.502-1.376,0.752-1.696,0.752c-0.107,0-0.16-0.031-0.16-0.096c0-0.213,0.768-1.173,2.304-2.88&#13;&#10;&#9;&#9;c1.13-1.259,2.331-3.248,3.6-5.968c1.27-2.72,2.021-4.688,2.256-5.904c0.085-0.427,0.245-0.64,0.48-0.64&#13;&#10;&#9;&#9;c0.234,0,0.65,0.139,1.248,0.416c0.597,0.277,0.944,0.47,1.04,0.576C11.382,3.928,11.43,4.077,11.43,4.269z M28.454,21.037&#13;&#10;&#9;&#9;c0,1.643-0.128,2.9-0.384,3.775c-0.107,0.342-0.171,0.805-0.192,1.393c-0.021,0.586-0.176,0.879-0.464,0.879&#13;&#10;&#9;&#9;s-0.966-0.309-2.032-0.928s-1.872-1.285-2.416-2c-0.544-0.714-1.307-2.33-2.288-4.848s-1.632-4.331-1.952-5.44&#13;&#10;&#9;&#9;c-0.085-0.298-0.202-0.448-0.352-0.448s-0.587,0.139-1.312,0.416c-0.726,0.277-1.388,0.549-1.984,0.816&#13;&#10;&#9;&#9;c-0.598,0.267-0.977,0.464-1.136,0.592c-0.16,0.128-0.315,0.459-0.465,0.992c-0.149,0.533-0.224,1.078-0.224,1.633&#13;&#10;&#9;&#9;s0.043,0.943,0.128,1.168c0.085,0.224,0.245,0.336,0.48,0.336c0.234,0,0.772-0.245,1.615-0.736c0.843-0.49,1.44-0.875,1.793-1.152&#13;&#10;&#9;&#9;c0.352-0.277,0.58-0.416,0.688-0.416c0.106,0,0.16,0.037,0.16,0.112s-0.043,0.198-0.128,0.368&#13;&#10;&#9;&#9;c-0.427,0.726-0.641,1.205-0.641,1.439c0,0.235,0.075,0.385,0.225,0.448c0.64,0.3,1.093,0.55,1.359,0.752&#13;&#10;&#9;&#9;c0.267,0.203,0.4,0.405,0.4,0.608s-0.165,0.598-0.496,1.184c-0.331,0.588-0.571,0.881-0.72,0.881c-0.299,0-0.79-0.736-1.472-2.209&#13;&#10;&#9;&#9;c-0.086-0.191-0.188-0.287-0.305-0.287s-0.283,0.117-0.496,0.352s-0.575,0.512-1.088,0.832c-0.512,0.32-1.019,0.704-1.52,1.152&#13;&#10;&#9;&#9;c-0.502,0.447-0.849,0.672-1.04,0.672c-0.192,0-0.379-0.331-0.561-0.992s-0.271-1.248-0.271-1.76s0.042-0.928,0.128-1.248&#13;&#10;&#9;&#9;c0.213-0.896,0.352-1.957,0.416-3.185c0.063-1.226,0.144-2.208,0.24-2.944c0.096-0.736,0.144-1.525,0.144-2.368&#13;&#10;&#9;&#9;c0-0.842-0.054-1.52-0.16-2.032l-0.288-1.248c0-0.213,0.097-0.405,0.288-0.576c0.192-0.17,0.518-0.282,0.977-0.336&#13;&#10;&#9;&#9;c0.458-0.053,1.487-0.373,3.088-0.96c1.6-0.586,2.853-1.104,3.76-1.552C20.864,3.725,21.382,3.5,21.51,3.5&#13;&#10;&#9;&#9;c0.256,0,0.384,0.47,0.384,1.408c0,0.235-0.031,0.395-0.096,0.48c-0.063,0.085-0.299,0.219-0.704,0.4&#13;&#10;&#9;&#9;c-0.405,0.182-0.709,0.331-0.912,0.448c-0.202,0.117-0.336,0.24-0.399,0.368c-0.064,0.128-0.097,0.4-0.097,0.816&#13;&#10;&#9;&#9;s0.064,0.944,0.192,1.584c0.128,0.64,0.229,1.04,0.304,1.2c0.075,0.16,0.165,0.24,0.272,0.24c0.106,0,0.234-0.032,0.384-0.096&#13;&#10;&#9;&#9;c1.898-0.747,3.051-1.12,3.456-1.12c0.171,0,0.357,0.246,0.561,0.736c0.202,0.491,0.304,0.854,0.304,1.088&#13;&#10;&#9;&#9;c0,0.448-0.283,0.683-0.849,0.704c-0.565,0.021-1.259,0.139-2.079,0.352c-0.822,0.213-1.286,0.368-1.393,0.464&#13;&#10;&#9;&#9;c-0.106,0.096-0.16,0.246-0.16,0.448c0,0.203,0.106,0.608,0.32,1.216c0.213,0.608,0.341,1.184,0.384,1.728s0.357,1.52,0.944,2.928&#13;&#10;&#9;&#9;c0.586,1.408,1.179,2.55,1.775,3.424c0.598,0.875,1.089,1.313,1.473,1.313c0.213,0,0.432-0.219,0.656-0.656&#13;&#10;&#9;&#9;c0.224-0.438,0.452-1.253,0.688-2.447c0.234-1.195,0.353-2.123,0.353-2.785c0-0.66-0.017-1.098-0.049-1.312&#13;&#10;&#9;&#9;c-0.031-0.213-0.048-0.39-0.048-0.528c0-0.139,0.043-0.208,0.128-0.208c0.171,0,0.405,0.432,0.704,1.295&#13;&#10;&#9;&#9;C28.305,17.853,28.454,19.202,28.454,21.037z M18.054,11.117c0-0.234-0.08-0.677-0.239-1.328c-0.16-0.65-0.288-1.05-0.385-1.2&#13;&#10;&#9;&#9;c-0.096-0.149-0.224-0.224-0.384-0.224s-0.667,0.331-1.52,0.992c-0.854,0.661-1.28,1.429-1.28,2.304&#13;&#10;&#9;&#9;c0,0.341,0.032,0.549,0.096,0.624c0.064,0.075,0.208,0.112,0.433,0.112c0.224,0,0.778-0.138,1.664-0.416&#13;&#10;&#9;&#9;c0.885-0.277,1.376-0.453,1.472-0.528C18.006,11.378,18.054,11.266,18.054,11.117z" stroke-width="1"/>
    </g>
    <g/>
    <g/>
    <g/>
    <g/>
    <g/>
    <g/>
    <g/>
    <g/>
    <g/>
    <g/>
    <g/>
    <g/>
    <g/>
    <g/>
    <g/>
  </g>
</svg>