<svg xmlns="http://www.w3.org/2000/svg" xmlns:xlink="http://www.w3.org/1999/xlink" version="1.1" id="图层_1" x="0px" y="0px" width="28.583999633789062" height="26.757997512817383" viewBox="0.8990004062652588 0.9270012378692627 28.583999633789062 26.757997512817383" enable-background="new 0 0 30 30" xml:space="preserve">
<g>
	<path fill="#0000FF" d="M12.343,11.059c0,0.149-0.091,0.582-0.271,1.296c-0.182,0.715-0.305,1.302-0.368,1.76   c-0.064,0.459-0.171,0.827-0.32,1.104s-0.288,0.629-0.416,1.056c-0.085,0.278-0.341,0.448-0.768,0.513   c-1.003,0.127-1.702,0.229-2.097,0.303c-0.395,0.076-0.837,0.198-1.328,0.369l-3.68,1.344c-0.15,0.064-0.278,0.096-0.384,0.096   c-0.277,0-0.427-0.229-0.448-0.688c-0.021-0.459-0.102-0.998-0.24-1.616c-0.139-0.618-0.277-1.083-0.416-1.392   c-0.139-0.309-0.208-0.864-0.208-1.664c0-0.8,0.069-1.317,0.208-1.552c0.139-0.234,0.357-0.352,0.656-0.352   c0.298,0,0.656,0.059,1.072,0.176c0.416,0.118,0.624,0.304,0.624,0.56c0,0.107-0.059,0.283-0.176,0.528   c-0.118,0.246-0.176,0.603-0.176,1.072c0,1.109,0.197,1.664,0.592,1.664c0.394,0,0.704-0.171,0.928-0.512   c0.224-0.341,0.336-1.482,0.336-3.424L5.399,9.203c0-0.896,0.037-1.461,0.112-1.696c0.074-0.234,0.186-0.352,0.336-0.352   c0.149,0,0.544,0.118,1.184,0.352c0.64,0.235,1.024,0.39,1.152,0.464s0.192,0.171,0.192,0.288c0,0.118-0.032,0.283-0.096,0.496   c-0.277,0.981-0.416,2.011-0.416,3.088c0,1.078,0.048,1.819,0.144,2.224c0.096,0.406,0.282,0.608,0.561,0.608   c0.276,0,0.469-0.053,0.575-0.16c0.106-0.106,0.229-0.544,0.368-1.312s0.272-1.707,0.4-2.816c0.063-0.469,0.202-0.704,0.416-0.704   c0.213,0,0.603,0.133,1.168,0.4C12.06,10.35,12.343,10.674,12.343,11.059z M28.983,26.418c0,0.256-0.38,0.449-1.137,0.576   c-0.757,0.129-1.573,0.191-2.447,0.191c-0.875,0-1.809-0.078-2.801-0.239c-0.991-0.159-1.558-0.341-1.695-0.544   c-0.14-0.203-0.225-0.48-0.256-0.832c-0.032-0.352-0.097-0.678-0.192-0.976c-0.096-0.3-0.256-0.593-0.48-0.88   c-0.224-0.288-0.555-0.613-0.991-0.977c-0.438-0.362-0.806-0.635-1.104-0.816c-0.299-0.18-0.522-0.271-0.672-0.271   c-0.277,0-0.502,0.086-0.672,0.256c-0.96,1.024-2.171,2.021-3.632,2.992c-1.462,0.971-2.854,1.456-4.177,1.456   c-0.725,0-1.402-0.171-2.032-0.513c-0.629-0.341-0.944-0.623-0.944-0.848c0-0.224,0.245-0.347,0.736-0.367   c2.517-0.107,4.512-0.726,5.984-1.856c1.473-1.13,2.208-1.898,2.208-2.304c0-0.149-0.048-0.283-0.144-0.4s-0.396-0.277-0.896-0.48   c-0.501-0.202-0.997-0.367-1.487-0.496c-0.363-0.084-0.544-0.287-0.544-0.607c0-0.426,0.122-0.965,0.367-1.615   c0.245-0.651,0.507-0.977,0.784-0.977c0.149,0,0.288,0.086,0.416,0.256c0.533,0.704,1.083,1.248,1.648,1.632   c0.564,0.384,0.922,0.576,1.071,0.576c0.299,0,0.593-0.448,0.881-1.344s0.432-1.552,0.432-1.968s-0.182-0.624-0.544-0.624   c-0.363,0-0.769,0.096-1.216,0.288c-0.448,0.192-0.827,0.443-1.137,0.752c-0.309,0.309-0.544,0.463-0.703,0.463   c-0.16,0-0.38-0.191-0.656-0.575c-0.277-0.384-0.416-0.688-0.416-0.912s0.16-0.389,0.479-0.496c1.066-0.448,1.707-0.725,1.92-0.832   c0.214-0.106,0.373-0.245,0.48-0.416c0.106-0.17,0.171-0.362,0.192-0.576l0.063-0.8c0-0.192-0.069-0.314-0.208-0.368   c-0.139-0.053-0.416-0.08-0.832-0.08s-0.73,0.037-0.944,0.112c-0.213,0.075-0.395,0.112-0.544,0.112s-0.271-0.133-0.367-0.4   c-0.097-0.267-0.198-0.709-0.305-1.328c-0.106-0.618-0.16-1.018-0.16-1.2c0-0.181,0.112-0.261,0.337-0.24   c0.224,0.021,0.479,0.032,0.768,0.032s0.741-0.059,1.36-0.176c0.618-0.117,0.938-0.245,0.96-0.384   c0.021-0.139,0.048-0.853,0.08-2.144c0.031-1.291,0.068-2.165,0.111-2.624c0.043-0.458,0.139-0.773,0.288-0.944   c0.149-0.17,0.336-0.256,0.561-0.256c0.224,0,0.527,0.059,0.911,0.176c0.385,0.118,0.587,0.315,0.608,0.592   c0,0.085-0.043,0.224-0.128,0.416c-0.086,0.192-0.16,0.662-0.224,1.408c-0.064,0.747-0.097,1.589-0.097,2.528   c0,0.342,0.097,0.512,0.288,0.512c0.192,0,0.501-0.09,0.929-0.272c0.426-0.181,0.746-0.368,0.96-0.56   c0.213-0.192,0.372-0.288,0.479-0.288c0.234,0,0.512,0.315,0.832,0.944c0.32,0.63,0.48,1.115,0.48,1.456   c0,0.512-0.283,0.795-0.849,0.848c-0.565,0.054-1.189,0.219-1.872,0.496c-0.683,0.277-1.071,0.501-1.168,0.672   c-0.096,0.171-0.144,0.448-0.144,0.832s0.032,0.619,0.096,0.704c0.064,0.085,0.181,0.128,0.353,0.128   c0.703,0,1.338,0.128,1.903,0.384c0.565,0.256,0.849,0.512,0.849,0.768c0,0.171-0.123,0.39-0.368,0.656   c-0.246,0.267-0.587,0.934-1.024,2c-0.438,1.067-0.773,1.846-1.008,2.336c-0.235,0.491-0.352,0.87-0.352,1.137   s0.074,0.443,0.224,0.527c1.045,0.619,2.026,1.291,2.944,2.016c0.917,0.727,1.6,1.206,2.048,1.441   c0.447,0.234,1.194,0.543,2.239,0.928c1.046,0.384,1.856,0.783,2.433,1.199S28.983,26.162,28.983,26.418z" stroke-width="1"/>
</g>
</svg>