<svg xmlns="http://www.w3.org/2000/svg" xmlns:xlink="http://www.w3.org/1999/xlink" version="1.1" id="图层_1" x="0px" y="0px" width="25.128000259399414" height="28.26099967956543" viewBox="1.250999093055725 1.0870000123977661 25.128000259399414 28.26099967956543" enable-background="new 0 0 30 30" xml:space="preserve">
<g>
	<path fill="#0000FF" d="M25.879,12.915c0,0.128-0.063,0.315-0.192,0.56c-0.128,0.246-0.239,0.368-0.336,0.368   c-0.096,0-0.208-0.021-0.336-0.064c-1.301-0.554-3.231-0.832-5.792-0.832c-1.941,0-3.808,0.192-5.6,0.576   c-3.35,0.747-5.867,1.195-7.552,1.344c-1.323,0.128-2.336,0.363-3.04,0.704c-0.192,0.086-0.357,0.129-0.496,0.129   c-0.139,0-0.304-0.203-0.496-0.609c-0.192-0.405-0.288-0.704-0.288-0.896c0-0.192,0.288-0.33,0.864-0.416   c1.856-0.234,3.456-0.501,4.8-0.8c1.344-0.298,2.432-0.506,3.264-0.624c0.832-0.117,1.402-0.245,1.712-0.384   s0.465-0.325,0.465-0.56s-0.06-0.491-0.177-0.768c-0.117-0.277-0.251-0.416-0.399-0.416c-0.149,0-0.336,0.053-0.561,0.16   c-0.224,0.107-0.379,0.16-0.464,0.16c-0.191,0-0.619-0.448-1.28-1.344S8.812,7.384,8.471,6.435s-0.512-1.68-0.512-2.192   c0-0.512,0.192-0.88,0.576-1.104c0.384-0.224,1.151-0.411,2.304-0.56c1.152-0.149,2.518-0.416,4.096-0.8   c0.555-0.128,1.232-0.192,2.032-0.192s1.643,0.198,2.528,0.592c0.885,0.395,1.328,0.741,1.328,1.04c0,0.107-0.06,0.251-0.176,0.432   c-0.118,0.182-0.294,0.683-0.528,1.504c-0.235,0.822-0.619,1.723-1.152,2.704c-0.533,0.981-0.912,1.547-1.136,1.696   c-0.224,0.149-0.464,0.224-0.72,0.224s-0.459-0.042-0.608-0.128c-0.214-0.128-0.496-0.192-0.848-0.192   c-0.353,0-0.528,0.203-0.528,0.608c0,0.406,0.026,0.683,0.08,0.832c0.053,0.149,0.154,0.224,0.304,0.224s0.544-0.053,1.185-0.16   c0.64-0.106,1.188-0.176,1.647-0.208c0.459-0.032,1.029-0.048,1.712-0.048s1.824-0.139,3.424-0.416   c0.214-0.042,0.433-0.064,0.656-0.064c0.225,0,0.411,0.107,0.561,0.32c0.148,0.214,0.384,0.603,0.704,1.168   C25.719,12.28,25.879,12.68,25.879,12.915z M9.783,22.066c0,0.043-0.043,0.123-0.128,0.24c-0.086,0.117-0.145,0.336-0.177,0.656   c-0.031,0.32-0.133,0.768-0.304,1.344s-0.357,1.023-0.56,1.344c-0.203,0.32-0.379,0.672-0.528,1.057   c-0.085,0.17-0.245,0.256-0.479,0.256c-0.107,0-0.283-0.06-0.528-0.176c-0.246-0.118-0.539-0.214-0.88-0.289   c-0.342-0.074-0.582-0.187-0.72-0.336c-0.139-0.148-0.208-0.309-0.208-0.479c0-0.342,0.64-1.052,1.92-2.128   c1.279-1.077,2.101-1.616,2.464-1.616C9.74,21.938,9.783,21.981,9.783,22.066z M20.311,15.475c0,0.064-0.021,0.128-0.063,0.191   c-0.299,0.492-0.613,1.121-0.944,1.889s-0.533,1.359-0.607,1.775c-0.075,0.416-0.177,0.668-0.305,0.752   c-0.128,0.086-0.41,0.129-0.848,0.129s-0.811,0.063-1.12,0.191c-0.31,0.129-0.507,0.342-0.592,0.641   c-0.086,0.299-0.176,0.934-0.272,1.903c-0.096,0.972-0.144,1.866-0.144,2.688c0,0.82,0.042,1.482,0.128,1.984   c0.085,0.5,0.128,0.771,0.128,0.814c0,0.277-0.171,0.416-0.512,0.416c-0.342,0-1.131-0.26-2.368-0.783s-2.021-0.977-2.352-1.359   c-0.331-0.385-0.496-0.625-0.496-0.721s0.037-0.145,0.111-0.145c0.075,0,0.145,0.012,0.208,0.033   c0.619,0.191,1.163,0.287,1.632,0.287c0.47,0,0.838-0.08,1.104-0.24c0.267-0.159,0.41-0.399,0.432-0.719   c0.021-0.32,0.032-0.816,0.032-1.488s-0.043-1.254-0.128-1.744c-0.086-0.49-0.171-0.795-0.256-0.912   c-0.086-0.117-0.197-0.176-0.336-0.176c-0.14,0-0.299,0.021-0.48,0.063c-0.182,0.044-0.341,0.064-0.479,0.064   c-0.14,0-0.294-0.112-0.464-0.337c-0.171-0.223-0.502-0.549-0.992-0.975c-0.491-0.428-0.87-0.961-1.136-1.601   c-0.268-0.64-0.4-1.152-0.4-1.536s0.064-0.635,0.192-0.752s0.352-0.197,0.672-0.24c0.319-0.043,1.066-0.202,2.239-0.48   c1.174-0.277,2.059-0.501,2.656-0.672c0.598-0.17,1.243-0.256,1.937-0.256c0.692,0,1.504,0.149,2.432,0.448   C19.847,14.91,20.311,15.198,20.311,15.475z M11.767,8.659c0.192,0,0.801-0.144,1.824-0.432c1.024-0.288,1.76-0.453,2.208-0.496   c0.448-0.042,0.789-0.517,1.024-1.424c0.234-0.907,0.352-1.568,0.352-1.984c0-0.416-0.075-0.747-0.224-0.992   c-0.149-0.245-0.454-0.368-0.912-0.368c-0.459,0-1.152,0.118-2.08,0.352c-0.928,0.235-1.595,0.438-2,0.608   c-0.405,0.171-0.693,0.336-0.864,0.496s-0.256,0.368-0.256,0.624c0,0.341,0.128,0.48,0.384,0.416   c0.917-0.256,1.776-0.464,2.576-0.624s1.317-0.24,1.552-0.24c0.235,0,0.353,0.171,0.353,0.512c0,0.534-0.069,0.88-0.208,1.04   s-0.571,0.331-1.296,0.512c-0.726,0.181-1.35,0.368-1.872,0.56c-0.523,0.192-0.843,0.331-0.96,0.416   c-0.118,0.086-0.176,0.203-0.176,0.352C11.191,8.435,11.383,8.659,11.767,8.659z M12.951,19.123c0.341,0,0.869-0.112,1.584-0.336   c0.714-0.225,1.125-0.385,1.231-0.48s0.197-0.293,0.272-0.592c0.074-0.299,0.112-0.533,0.112-0.704c0-0.47-0.214-0.741-0.641-0.816   c-0.427-0.074-0.747-0.112-0.96-0.112c-0.661,0-1.274,0.176-1.84,0.528s-0.848,0.773-0.848,1.265c0,0.256,0.09,0.527,0.271,0.815   S12.588,19.123,12.951,19.123z M18.359,21.938c0.789,0,1.632,0.118,2.527,0.353c0.896,0.234,1.43,0.447,1.601,0.64   c0.17,0.192,0.256,0.555,0.256,1.088c0,1.601-0.128,2.538-0.384,2.815c-0.257,0.277-0.491,0.416-0.704,0.416   c-0.214,0-0.374-0.096-0.48-0.287c-0.319-0.555-0.832-1.35-1.536-2.385c-0.704-1.034-1.173-1.689-1.407-1.968   c-0.235-0.276-0.353-0.458-0.353-0.544C17.879,21.981,18.039,21.938,18.359,21.938z" stroke-width="1"/>
</g>
</svg>