<svg xmlns="http://www.w3.org/2000/svg" xmlns:xlink="http://www.w3.org/1999/xlink" version="1.1" id="图层_1" x="0px" y="0px" width="24.90399742126465" height="28.937000274658203" viewBox="0.7710009813308716 0.15799957513809204 24.90399742126465 28.937000274658203" enable-background="new 0 0 30 30" xml:space="preserve">
<g>
	<path fill="#0000FF" d="M25.175,12.915c0,0.491-0.08,0.736-0.24,0.736c-0.159,0-0.314-0.021-0.464-0.064   c-1.771-0.661-3.445-0.992-5.023-0.992c-0.534,0-0.864,0.021-0.992,0.064c-0.128,0.043-0.229,0.128-0.304,0.256   c-0.075,0.128-0.112,0.459-0.112,0.992s0.032,0.821,0.096,0.864c0.064,0.043,0.171,0.054,0.32,0.032   c1.408-0.128,2.234-0.192,2.479-0.192s0.411,0.059,0.496,0.176s0.24,0.443,0.464,0.976c0.225,0.533,0.337,0.938,0.337,1.216   s-0.16,0.416-0.48,0.416c-0.128,0-0.336-0.021-0.624-0.064c-0.288-0.042-0.768-0.063-1.44-0.063c-0.672,0-1.099,0.017-1.279,0.048   c-0.182,0.032-0.272,0.134-0.272,0.305c-0.043,0.875-0.139,1.797-0.288,2.768s-0.224,1.883-0.224,2.736s0.032,1.52,0.096,2   c0.064,0.479,0.097,0.922,0.097,1.328l-0.032,0.863l0.032,0.703c0,0.385-0.14,0.576-0.416,0.576c-0.064,0-0.129-0.01-0.192-0.031   c-0.533-0.191-1.035-0.309-1.504-0.352c-0.47-0.043-0.896-0.172-1.28-0.385c-0.171-0.086-0.672-0.271-1.504-0.561   c-0.832-0.287-1.462-0.57-1.888-0.848c-0.428-0.277-0.88-0.623-1.36-1.039c-0.479-0.416-0.72-0.662-0.72-0.736   c0-0.075,0.042-0.111,0.128-0.111c0.299,0,1.962,0.34,4.992,1.023c0.106,0.021,0.267,0.031,0.479,0.031s0.416-0.074,0.608-0.224   c0.191-0.149,0.288-0.352,0.288-0.608l-0.032-3.104l0.032-2.208l-0.032-0.735c-0.043-0.513-0.091-0.801-0.145-0.865   c-0.053-0.063-0.149-0.096-0.287-0.096c-0.14,0-0.619,0.092-1.44,0.272c-0.821,0.182-1.35,0.288-1.584,0.319   c-0.235,0.033-0.352,0.113-0.352,0.24c0,0.299,0.384,0.854,1.151,1.664c0.213,0.235,0.32,0.448,0.32,0.641   c0,0.191-0.054,0.32-0.16,0.384c-0.107,0.063-0.63,0.165-1.568,0.304s-1.595,0.208-1.968,0.208s-0.56-0.138-0.56-0.416   c0-0.192,0.106-0.394,0.319-0.608c0.917-0.916,1.376-1.567,1.376-1.951c0-0.129-0.069-0.192-0.208-0.192s-0.587,0.085-1.344,0.257   c-0.757,0.17-1.243,0.341-1.456,0.512c-0.128,0.085-0.262,0.127-0.4,0.127c-0.139,0-0.347-0.229-0.624-0.688   s-0.416-0.768-0.416-0.928s0.075-0.288,0.224-0.385c0.149-0.096,1.317-0.432,3.504-1.008s3.781-0.971,4.784-1.184   c0.256-0.064,0.384-0.213,0.384-0.448c0-0.619-0.016-1.045-0.048-1.28c-0.032-0.234-0.149-0.352-0.352-0.352   c-0.203,0-0.87,0.187-2,0.56c-1.132,0.374-2.486,0.656-4.064,0.848c-3.136,0.405-5.056,0.939-5.76,1.6   c-0.171,0.15-0.315,0.225-0.432,0.225c-0.118,0-0.32-0.219-0.608-0.656c-0.288-0.437-0.432-0.752-0.432-0.944   c0-0.192,0.218-0.288,0.656-0.288c0.437,0,1.184-0.176,2.24-0.528c1.056-0.352,1.84-0.602,2.352-0.752   c0.64-0.128,1.669-0.485,3.088-1.072c1.418-0.586,2.213-0.928,2.384-1.024c0.17-0.096,0.256-0.293,0.256-0.592l0.063-1.088   c0-0.234-0.117-0.352-0.352-0.352c-0.043,0-0.235,0.054-0.576,0.16c-0.342,0.107-0.571,0.182-0.688,0.224   c-0.118,0.043-0.198,0.064-0.24,0.064c-0.214,0-0.507-0.352-0.88-1.056C9.201,7.858,9.015,7.39,9.015,7.154   c0-0.448,0.267-0.672,0.801-0.672l0.512,0.032c0.32,0,0.741-0.069,1.264-0.208s0.827-0.245,0.912-0.32   c0.085-0.074,0.145-0.176,0.176-0.304c0.032-0.128,0.085-0.635,0.16-1.52c0.074-0.885,0.112-1.531,0.112-1.936   s-0.027-0.688-0.08-0.848c-0.054-0.16-0.08-0.293-0.08-0.4c0-0.106,0.053-0.187,0.16-0.24c0.106-0.053,0.33-0.08,0.672-0.08   c0.64,0,1.339,0.096,2.096,0.288c0.757,0.192,1.137,0.374,1.137,0.544s-0.107,0.299-0.32,0.384c-0.214,0.085-0.374,0.219-0.48,0.4   c-0.106,0.182-0.203,0.565-0.288,1.152s-0.128,1.035-0.128,1.344c0,0.31,0.106,0.443,0.32,0.4c0.555-0.064,1.024-0.096,1.408-0.096   c0.725,0,1.034,0.181,0.928,0.544c-0.149,0.533-0.256,0.955-0.32,1.264c-0.063,0.31-0.165,0.55-0.304,0.72   c-0.139,0.171-0.304,0.277-0.496,0.32c-0.981,0.192-1.525,0.32-1.632,0.384c-0.107,0.064-0.187,0.357-0.24,0.88   c-0.054,0.523-0.08,0.864-0.08,1.024s0.128,0.24,0.385,0.24c1.301,0,2.74-0.064,4.319-0.192l3.776-0.288   c0.277,0,0.479,0.069,0.607,0.208c0.129,0.139,0.305,0.549,0.528,1.232C25.063,12.094,25.175,12.595,25.175,12.915z" stroke-width="1"/>
</g>
</svg>