<svg xmlns="http://www.w3.org/2000/svg" xmlns:xlink="http://www.w3.org/1999/xlink" version="1.1" id="图层_1" x="0px" y="0px" width="23.33599853515625" height="31.46099853515625" viewBox="3.123000144958496 -0.6469999551773071 23.33599853515625 31.46099853515625" style="enable-background:new 0 0 30 30;" xml:space="preserve">
  <g>
    <g>
      <path style="fill:#0000FF;" d="M6.726,14.957c0,0.043-0.011,0.096-0.031,0.16c-0.214,0.64-0.363,1.452-0.448,2.432&#13;&#10;&#9;&#9;c-0.043,0.469-0.219,0.704-0.528,0.704c-0.31,0-0.736-0.171-1.28-0.513c-0.544-0.34-0.816-0.682-0.816-1.023&#13;&#10;&#9;&#9;c0-0.106,0.032-0.203,0.096-0.288c0.064-0.085,0.357-0.319,0.88-0.704c0.522-0.384,0.922-0.667,1.2-0.848&#13;&#10;&#9;&#9;c0.277-0.181,0.469-0.272,0.576-0.272C6.608,14.604,6.726,14.722,6.726,14.957z M18.726,10.253c0.854,0,1.558,0.064,2.112,0.192&#13;&#10;&#9;&#9;s1.125,0.389,1.712,0.784c0.587,0.395,1.157,0.88,1.712,1.456c0.555,0.576,0.977,1.078,1.265,1.504&#13;&#10;&#9;&#9;c0.288,0.427,0.432,0.726,0.432,0.896c0,0.171-0.054,0.31-0.16,0.416c-0.106,0.107-0.427,0.229-0.96,0.368&#13;&#10;&#9;&#9;c-0.533,0.139-0.928,0.219-1.184,0.241s-0.651,0.031-1.185,0.031s-0.863,0.064-0.992,0.191c-0.128,0.129-0.267,0.492-0.415,1.089&#13;&#10;&#9;&#9;c-0.15,0.597-0.257,1.291-0.32,2.079c-0.064,0.79-0.208,1.756-0.433,2.896c-0.224,1.142-0.389,1.803-0.495,1.984&#13;&#10;&#9;&#9;c-0.107,0.181-0.246,0.271-0.416,0.271c-0.172,0-0.688-0.154-1.553-0.464c-0.863-0.309-1.435-0.532-1.712-0.672&#13;&#10;&#9;&#9;c-0.277-0.138-0.479-0.208-0.607-0.208s-0.198,0.107-0.208,0.32c-0.012,0.213-0.027,0.725-0.048,1.535&#13;&#10;&#9;&#9;c-0.022,0.811-0.032,1.516-0.032,2.113l0.032,1.951c0,0.385-0.049,0.662-0.145,0.832s-0.271,0.256-0.528,0.256&#13;&#10;&#9;&#9;c-0.256,0-0.464-0.037-0.624-0.111c-0.159-0.076-0.251-0.16-0.271-0.256c-0.021-0.096-0.032-0.4-0.032-0.912&#13;&#10;&#9;&#9;c0-1.686-0.054-3.063-0.16-4.129c-0.085-0.896-0.128-1.706-0.128-2.432v-1.695c0-0.513-0.016-1.115-0.048-1.809&#13;&#10;&#9;&#9;s-0.063-1.088-0.096-1.184s-0.102-0.145-0.208-0.145c-0.107,0-0.379,0.112-0.816,0.336c-0.438,0.225-0.736,0.416-0.896,0.576&#13;&#10;&#9;&#9;c-0.16,0.16-0.272,0.459-0.336,0.896c-0.064,0.438-0.097,0.805-0.097,1.104s0.032,0.646,0.097,1.04&#13;&#10;&#9;&#9;c0.063,0.396,0.096,0.757,0.096,1.088s-0.075,0.581-0.224,0.752c-0.15,0.171-0.3,0.257-0.448,0.257&#13;&#10;&#9;&#9;c-0.342,0-0.715-0.758-1.12-2.272s-0.608-2.677-0.608-3.488c0-0.256,0.182-0.49,0.544-0.704c0.363-0.213,1.397-0.597,3.104-1.152&#13;&#10;&#9;&#9;c0.384-0.127,0.607-0.255,0.672-0.383c0.064-0.128,0.096-0.336,0.096-0.624s-0.026-0.603-0.08-0.944&#13;&#10;&#9;&#9;c-0.053-0.341-0.154-0.512-0.304-0.512s-0.357,0.043-0.624,0.128c-0.267,0.085-0.854,0.235-1.76,0.448&#13;&#10;&#9;&#9;c-0.907,0.214-1.478,0.32-1.712,0.32c-0.235,0-0.433-0.091-0.592-0.272c-0.16-0.181-0.24-0.336-0.24-0.464&#13;&#10;&#9;&#9;c0-0.576,1.248-1.173,3.744-1.792c0.554-0.128,1.264-0.368,2.128-0.72c0.863-0.352,1.349-0.581,1.456-0.688&#13;&#10;&#9;&#9;c0.106-0.106,0.25-0.384,0.432-0.832c0.181-0.448,0.272-0.832,0.272-1.152c0-0.32-0.086-0.56-0.257-0.72s-0.373-0.24-0.607-0.24&#13;&#10;&#9;&#9;c-0.235,0-0.533,0.197-0.896,0.592c-0.362,0.395-0.65,0.784-0.863,1.168c-0.726,1.216-1.313,1.824-1.761,1.824&#13;&#10;&#9;&#9;c-0.213,0-0.39-0.107-0.527-0.32c-0.14-0.213-0.208-0.426-0.208-0.64s0.037-0.432,0.111-0.656c0.075-0.224,0.112-0.437,0.112-0.64&#13;&#10;&#9;&#9;c0-0.202-0.203-0.304-0.608-0.304S9.467,8.76,8.998,8.973C8.849,9.037,8.731,9.069,8.646,9.069c-0.214,0-0.416-0.336-0.608-1.008&#13;&#10;&#9;&#9;C7.846,7.389,7.75,6.962,7.75,6.781c0-0.181,0.08-0.314,0.24-0.4c0.16-0.085,0.49-0.144,0.992-0.176&#13;&#10;&#9;&#9;c0.501-0.032,2.096-0.346,4.783-0.944c2.688-0.597,4.31-0.981,4.864-1.152s0.981-0.256,1.28-0.256s0.555,0.219,0.768,0.656&#13;&#10;&#9;&#9;c0.213,0.438,0.32,0.736,0.32,0.896c0,0.16-0.043,0.283-0.128,0.368c-0.086,0.086-0.214,0.128-0.384,0.128&#13;&#10;&#9;&#9;c-0.534,0-1.142,0.069-1.824,0.208s-1.056,0.235-1.12,0.288c-0.064,0.054-0.096,0.112-0.096,0.176c0,0.192,0.33,0.416,0.992,0.672&#13;&#10;&#9;&#9;c0.404,0.171,0.607,0.357,0.607,0.56c0,0.203-0.191,0.528-0.576,0.976c-0.512,0.598-0.768,1.014-0.768,1.248&#13;&#10;&#9;&#9;c0,0.107,0.059,0.171,0.176,0.192C17.995,10.242,18.278,10.253,18.726,10.253z M16.134,2.477c0,0.491-0.245,0.736-0.735,0.736&#13;&#10;&#9;&#9;c-0.15,0-0.32-0.042-0.513-0.128C14.694,3,14.411,2.936,14.038,2.893c-0.374-0.042-0.613-0.176-0.72-0.4&#13;&#10;&#9;&#9;c-0.107-0.224-0.16-0.603-0.16-1.136c0-1.003,0.256-1.504,0.768-1.504c0.32,0,0.769,0.262,1.345,0.784&#13;&#10;&#9;&#9;C15.846,1.16,16.134,1.772,16.134,2.477z M18.374,18.732c0-0.533-0.086-1.061-0.256-1.584c-0.171-0.522-0.576-0.783-1.216-0.783&#13;&#10;&#9;&#9;c-0.214,0-0.47,0.026-0.769,0.08c-0.299,0.053-0.479,0.139-0.544,0.256c-0.063,0.117-0.096,0.314-0.096,0.592l-0.096,4.16&#13;&#10;&#9;&#9;c0,0.277,0.074,0.469,0.224,0.576c0.149,0.106,0.522,0.159,1.12,0.159c0.298,0,0.57-0.058,0.815-0.176&#13;&#10;&#9;&#9;c0.245-0.117,0.443-0.592,0.593-1.424C18.299,19.757,18.374,19.139,18.374,18.732z M22.726,13.645c0-0.405-0.245-0.805-0.735-1.2&#13;&#10;&#9;&#9;c-0.491-0.395-1.157-0.592-2-0.592s-1.653,0.085-2.433,0.256c-0.778,0.171-1.248,0.32-1.407,0.448&#13;&#10;&#9;&#9;c-0.16,0.128-0.3,0.357-0.416,0.688c-0.118,0.331-0.177,0.651-0.177,0.96c0,0.31,0.059,0.528,0.177,0.656&#13;&#10;&#9;&#9;c0.116,0.128,0.261,0.181,0.432,0.16c0.874-0.192,1.541-0.288,2-0.288s0.944,0.064,1.456,0.192l1.408,0.352&#13;&#10;&#9;&#9;c0.256,0,0.603-0.192,1.04-0.576C22.507,14.317,22.726,13.965,22.726,13.645z" stroke-width="1"/>
    </g>
    <g/>
    <g/>
    <g/>
    <g/>
    <g/>
    <g/>
    <g/>
    <g/>
    <g/>
    <g/>
    <g/>
    <g/>
    <g/>
    <g/>
    <g/>
  </g>
</svg>