<svg xmlns="http://www.w3.org/2000/svg" xmlns:xlink="http://www.w3.org/1999/xlink" version="1.1" id="图层_1" x="0px" y="0px" width="29.544002532958984" height="22.56800079345703" viewBox="0.4839973449707031 4.062999725341797 29.544002532958984 22.56800079345703" enable-background="new 0 0 30 30" xml:space="preserve">
<g>
	<path fill="#0000FF" d="M17.847,18.002c0,0.172,0.097,0.342,0.288,0.513c0.192,0.171,0.464,0.47,0.816,0.896   c0.352,0.428,1.12,0.944,2.304,1.553c1.185,0.607,2.522,1.162,4.016,1.664c1.493,0.501,2.576,0.986,3.248,1.455   c0.673,0.47,1.009,0.838,1.009,1.104s-0.268,0.491-0.801,0.672s-0.928,0.272-1.184,0.272s-0.571-0.037-0.944-0.112   s-0.8-0.123-1.279-0.144c-0.48-0.021-1.339-0.145-2.576-0.369c-1.237-0.223-1.926-0.379-2.064-0.463   c-0.139-0.086-0.251-0.332-0.336-0.736c-0.256-1.131-0.501-1.893-0.735-2.288c-0.235-0.395-0.641-0.704-1.217-0.929   c-0.575-0.223-1.142-0.495-1.695-0.815c-0.128-0.063-0.277-0.096-0.448-0.096s-0.331,0.075-0.48,0.224   c-0.555,0.555-1.365,1.142-2.432,1.76c-1.067,0.619-2.149,0.928-3.248,0.928s-1.647-0.096-1.647-0.287   c0-0.107,0.244-0.309,0.735-0.608c0.49-0.298,0.96-0.544,1.408-0.735c0.448-0.192,0.853-0.427,1.216-0.705   c0.362-0.276,0.747-0.655,1.152-1.135c0.405-0.48,0.683-0.795,0.832-0.945c0.148-0.148,0.224-0.281,0.224-0.399   c0-0.116-0.059-0.224-0.176-0.319c-0.117-0.097-0.283-0.251-0.496-0.465c-0.448-0.447-1.024-0.672-1.728-0.672   c-0.342,0-0.721,0.054-1.137,0.16c-0.416,0.107-0.709,0.219-0.88,0.336s-0.299,0.229-0.384,0.336   c-0.086,0.107-0.342,0.512-0.768,1.217l-1.152,1.92c-0.342,0.555-0.64,1.119-0.896,1.695c-0.256,0.576-0.523,1.014-0.8,1.313   s-0.752,0.555-1.424,0.768s-1.371,0.32-2.096,0.32s-1.088-0.096-1.088-0.288s0.16-0.405,0.48-0.64   c0.917-0.684,1.76-1.377,2.528-2.08c0.768-0.705,1.386-1.365,1.856-1.984l2.528-3.809c0.341-0.49,0.725-1.258,1.152-2.304   c0.426-1.045,0.704-1.829,0.832-2.352s0.191-1.029,0.191-1.52S10.444,9.17,10.231,9.17c-0.129,0-0.619,0.229-1.473,0.688   c-0.854,0.459-1.685,0.998-2.496,1.616c-0.171,0.128-0.347,0.192-0.528,0.192s-0.379-0.218-0.592-0.656   c-0.213-0.437-0.39-0.731-0.528-0.88C4.476,9.981,4.407,9.854,4.407,9.747c0-0.106,0.032-0.197,0.096-0.272   s0.843-0.347,2.336-0.816s2.816-0.843,3.968-1.12c0.619-0.17,1.168-0.427,1.648-0.768c0.479-0.341,0.869-0.592,1.168-0.752   s0.666-0.298,1.104-0.416c0.438-0.117,0.881-0.304,1.328-0.56c0.555-0.32,1.099-0.48,1.632-0.48s1.142,0.096,1.824,0.288   s1.024,0.448,1.024,0.768c0,0.171-0.08,0.32-0.24,0.448s-0.4,0.523-0.72,1.184c-0.32,0.662-0.582,1.131-0.784,1.408   c-0.203,0.277-0.502,0.582-0.896,0.912c-0.395,0.331-0.592,0.592-0.592,0.784s0.213,0.288,0.641,0.288   c0.811,0,1.439,0.102,1.888,0.304c0.448,0.203,0.672,0.48,0.672,0.832c0,0.352-0.149,0.88-0.448,1.584   c-0.106,0.235-0.182,0.416-0.224,0.544c-0.384,1.216-1.003,2.453-1.856,3.712C17.89,17.726,17.847,17.854,17.847,18.002z    M15.735,16.402c0.276,0,0.586-0.447,0.928-1.344c0.341-0.896,0.512-1.632,0.512-2.208c0-0.853-0.405-1.28-1.216-1.28   c-0.214,0-0.432,0.027-0.656,0.08c-0.224,0.054-0.405,0.08-0.544,0.08s-0.208-0.059-0.208-0.176s0.117-0.314,0.353-0.592   c1.429-1.728,2.144-3.029,2.144-3.904c0-0.363-0.171-0.544-0.512-0.544c-0.342,0-0.684,0.102-1.024,0.304   c-0.341,0.203-0.815,0.704-1.424,1.504c-0.608,0.8-1.115,1.648-1.52,2.544c-0.406,0.896-0.608,1.536-0.608,1.92   c0,0.384,0.117,0.805,0.352,1.264c0.235,0.459,0.699,0.88,1.393,1.264c0.692,0.385,1.179,0.662,1.456,0.832   C15.436,16.317,15.628,16.402,15.735,16.402z" stroke-width="1"/>
</g>
</svg>