<svg xmlns="http://www.w3.org/2000/svg" xmlns:xlink="http://www.w3.org/1999/xlink" version="1.1" id="图层_1" x="0px" y="0px" width="29.256000518798828" height="25.697998046875" viewBox="1.0599992275238037 2.276001214981079 29.256000518798828 25.697998046875" enable-background="new 0 0 30 30" xml:space="preserve">
<g>
	<path fill="#0000FF" d="M11.767,11.314c0.257,0,0.55,0.299,0.881,0.896c0.33,0.598,0.495,1.003,0.495,1.216   c0,0.469-0.287,0.715-0.863,0.736c-0.235,0.043-0.539,0.149-0.912,0.32c-0.374,0.171-0.598,0.336-0.672,0.496   c-0.075,0.16-0.112,0.395-0.112,0.704c0,0.31,0.069,0.464,0.208,0.464s0.293-0.026,0.464-0.08c0.171-0.053,0.331-0.08,0.48-0.08   c0.148,0,0.224,0.07,0.224,0.208c0,0.14-0.086,0.374-0.256,0.704c-0.171,0.331-0.459,0.688-0.864,1.072   c-0.213,0.213-0.331,0.48-0.352,0.8c-0.064,0.79-0.166,1.669-0.305,2.64s-0.208,1.798-0.208,2.48s0.043,1.279,0.128,1.792   c0.086,0.512,0.129,0.864,0.129,1.056c0,0.49-0.129,0.736-0.385,0.736c-0.106,0-0.49-0.166-1.151-0.496   c-0.662-0.331-1.057-0.544-1.185-0.641c-0.128-0.096-0.191-0.213-0.191-0.352s0.111-0.325,0.336-0.56   c0.224-0.235,0.378-0.556,0.464-0.96c0.085-0.405,0.128-1.557,0.128-3.456c0-0.257-0.054-0.384-0.16-0.384s-0.32,0.191-0.64,0.576   c-0.768,0.854-1.419,1.455-1.952,1.808c-0.534,0.352-1.014,0.741-1.44,1.168c-0.15,0.149-0.336,0.224-0.56,0.224   c-0.224,0-0.603-0.271-1.136-0.816c-0.533-0.543-0.8-0.916-0.8-1.119s0.154-0.395,0.464-0.576c0.309-0.182,0.827-0.57,1.552-1.168   c0.768-0.683,2.218-1.653,4.352-2.912c0.149-0.085,0.24-0.17,0.272-0.256c0.032-0.085,0.068-0.501,0.111-1.248   c0-0.427-0.106-0.641-0.319-0.641c-0.214,0-0.646,0.134-1.296,0.4c-0.651,0.268-1.019,0.486-1.104,0.656   c-0.085,0.171-0.224,0.256-0.416,0.256c-0.256,0-0.427-0.111-0.512-0.336c-0.085-0.225-0.262-0.561-0.528-1.008   c-0.267-0.448-0.485-0.789-0.656-1.024c-0.427-0.618-0.64-1.248-0.64-1.888c0-0.32,0.091-0.715,0.272-1.184   s0.411-0.986,0.688-1.552c0.277-0.565,0.491-0.938,0.64-1.12c0.149-0.181,0.277-0.272,0.384-0.272c0.213,0,0.619,0.187,1.216,0.56   c0.597,0.374,0.896,0.678,0.896,0.912c0,0.107-0.059,0.213-0.176,0.32s-0.432,0.336-0.944,0.688   c-0.512,0.352-0.901,0.587-1.168,0.704c-0.267,0.118-0.454,0.283-0.56,0.496c-0.107,0.213-0.16,0.534-0.16,0.96   c0,0.427,0.299,0.64,0.896,0.64c0.277,0,0.661-0.075,1.152-0.224c0.49-0.149,1.013-0.336,1.568-0.56   c0.555-0.224,0.869-0.378,0.944-0.464c0.074-0.085,0.122-0.213,0.144-0.384c0.085-1.365,0.192-2.443,0.32-3.232   c0.17-1.067,0.271-2.064,0.304-2.992c0.032-0.928,0.106-1.648,0.224-2.16C9.596,3.347,9.825,3.09,10.167,3.09   c0.171,0,0.373,0.054,0.608,0.16c0.234,0.107,0.352,0.235,0.352,0.384c0,0.15-0.043,0.32-0.128,0.512   c-0.086,0.192-0.128,0.475-0.128,0.848c0,0.374,0.016,0.704,0.048,0.992c0.032,0.288,0.048,0.752,0.048,1.392   s-0.011,1.461-0.032,2.464l-0.063,1.312c0,0.235,0.048,0.352,0.144,0.352c0.097,0,0.219-0.032,0.368-0.096   S11.66,11.314,11.767,11.314z M18.903,18.834c0,0.129,0.031,0.246,0.096,0.353s0.234,0.272,0.512,0.496s0.629,0.528,1.057,0.912   c0.426,0.384,0.933,0.763,1.52,1.136s0.997,0.604,1.232,0.688c2.837,0.961,4.629,1.67,5.376,2.129   c0.746,0.458,1.12,0.857,1.12,1.199s-0.992,0.512-2.977,0.512c-0.832,0-1.643-0.079-2.432-0.239c-0.79-0.16-1.547-0.24-2.272-0.24   c-0.362,0-0.576-0.202-0.64-0.608c-0.128-0.938-0.48-1.6-1.056-1.983c-0.257-0.192-0.624-0.485-1.104-0.88   c-0.479-0.395-0.811-0.683-0.992-0.864c-0.182-0.181-0.357-0.272-0.527-0.272c-0.172,0-0.342,0.107-0.513,0.32   c-0.598,0.789-1.296,1.44-2.096,1.952c-0.8,0.513-1.573,0.769-2.32,0.769c-0.319,0-0.843-0.075-1.567-0.225   c-0.726-0.148-1.088-0.309-1.088-0.48c0-0.17,0.116-0.287,0.352-0.352c1.6-0.32,2.848-0.912,3.744-1.775   c0.896-0.864,1.344-1.381,1.344-1.553c0-0.17-0.235-0.395-0.704-0.672c-0.47-0.277-0.747-0.438-0.832-0.48   c-0.427-0.213-0.64-0.543-0.64-0.991c0-0.149,0.026-0.362,0.08-0.64c0.053-0.277,0.08-0.523,0.08-0.736s-0.038-0.32-0.112-0.32   c-0.075,0-0.187,0.049-0.336,0.145s-0.272,0.144-0.368,0.144s-0.144-0.063-0.144-0.192c0-0.361,0.373-1.12,1.12-2.271   c0.725-1.002,1.412-2.667,2.063-4.992c0.65-2.325,1.008-4.149,1.072-5.472c0.021-0.384,0.148-0.576,0.384-0.576   c0.149,0,0.565,0.112,1.248,0.336s1.024,0.4,1.024,0.528c0,0.128-0.032,0.246-0.097,0.352c-0.128,0.214-0.299,0.726-0.512,1.536   C18.785,6.504,18.22,8.2,17.303,10.61c-0.063,0.214-0.096,0.406-0.096,0.576c0,0.171,0.074,0.256,0.224,0.256   s0.353-0.037,0.608-0.112c0.256-0.075,0.896-0.384,1.92-0.928s1.803-0.986,2.336-1.328c0.234-0.149,0.448-0.224,0.64-0.224   c0.192,0,0.395,0.16,0.608,0.48c0.213,0.32,0.32,0.736,0.32,1.248c0,0.277-0.086,0.448-0.256,0.512   c-0.257,0.085-0.491,0.267-0.704,0.544c-0.619,0.683-1.366,1.302-2.24,1.856c-0.214,0.128-0.368,0.277-0.464,0.448   c-0.097,0.171-0.176,0.555-0.24,1.152c-0.064,0.939-0.384,2.059-0.96,3.361C18.935,18.578,18.903,18.707,18.903,18.834z    M17.783,15.154c0-0.512-0.107-0.789-0.32-0.832c-0.106-0.021-0.203-0.075-0.288-0.16c-0.405-0.341-0.726-0.512-0.96-0.512   s-0.459,0.16-0.672,0.48c-0.214,0.32-0.448,0.587-0.704,0.8s-0.384,0.405-0.384,0.575c0,0.172,0.373,0.551,1.12,1.137   c0.746,0.587,1.216,0.88,1.408,0.88c0.191,0,0.373-0.319,0.544-0.96C17.697,15.922,17.783,15.454,17.783,15.154z" stroke-width="1"/>
</g>
</svg>