<svg xmlns="http://www.w3.org/2000/svg" xmlns:xlink="http://www.w3.org/1999/xlink" version="1.1" id="图层_1" x="0px" y="0px" width="30.50299835205078" height="26.40700340270996" viewBox="0.3560001850128174 1.4379985332489014 30.50299835205078 26.40700340270996" enable-background="new 0 0 30 30" xml:space="preserve">
<g>
	<path fill="#0000FF" d="M10.391,13.362c0,0.214,0.128,0.374,0.385,0.48c0.469,0.192,0.89,0.395,1.264,0.608   c0.373,0.213,0.587,0.389,0.64,0.528c0.054,0.139,0.08,0.357,0.08,0.656c0,0.939-0.203,1.408-0.607,1.408   c-0.128,0-0.246-0.043-0.353-0.129c-0.704-0.555-1.136-0.832-1.296-0.832s-0.251,0.14-0.271,0.416l-0.257,2.881   C9.825,21,9.751,22.456,9.751,23.746c0,1.291,0.026,2.08,0.08,2.369c0.053,0.287,0.08,0.484,0.08,0.592   c0,0.383-0.128,0.576-0.384,0.576c-0.257,0-0.63-0.145-1.12-0.433c-0.491-0.288-0.736-0.507-0.736-0.656s0.053-0.288,0.16-0.416   c0.234-0.299,0.352-1.12,0.352-2.464l-0.031-5.057c0-0.191-0.054-0.287-0.16-0.287c-0.107,0-0.214,0.064-0.32,0.191   c-0.917,0.939-1.888,1.856-2.912,2.752c-1.024,0.896-1.696,1.44-2.016,1.633c-0.32,0.191-0.715,0.287-1.184,0.287   c-0.47,0-0.704-0.084-0.704-0.256c0-0.17,0.203-0.447,0.608-0.832c2.091-2.004,3.424-3.365,4-4.08   c0.576-0.714,1.035-1.392,1.376-2.031c0.341-0.64,0.512-1.056,0.512-1.248c0-0.192-0.102-0.288-0.304-0.288   c-0.203,0-0.582,0.048-1.136,0.144c-0.555,0.096-0.917,0.24-1.088,0.432c-0.171,0.192-0.32,0.288-0.448,0.288   s-0.272-0.096-0.432-0.288c-0.16-0.192-0.416-0.629-0.768-1.312c-0.352-0.682-0.528-1.104-0.528-1.264   c0-0.16,0.17-0.25,0.512-0.272c0.512-0.021,0.997-0.08,1.456-0.176c0.458-0.096,1.152-0.298,2.08-0.608   c0.928-0.309,1.429-0.485,1.504-0.528c0.074-0.042,0.128-0.106,0.16-0.192c0.031-0.085,0.068-0.384,0.111-0.896l0.16-2.08   C8.802,4.915,8.93,3.565,9.015,3.298c0.085-0.266,0.262-0.4,0.528-0.4s0.608,0.091,1.024,0.272   c0.416,0.182,0.624,0.357,0.624,0.528s-0.064,0.368-0.192,0.592s-0.235,0.646-0.32,1.264s-0.128,1.781-0.128,3.488   c0,0.256,0.037,0.421,0.112,0.496c0.074,0.075,0.192,0.112,0.352,0.112c0.16,0,0.336-0.021,0.528-0.064   c0.192-0.042,0.32-0.064,0.384-0.064c0.32,0,0.48,0.363,0.48,1.088c0,0.214-0.038,0.39-0.112,0.528   c-0.075,0.139-0.299,0.368-0.672,0.688c-0.374,0.32-0.672,0.555-0.896,0.704C10.503,12.68,10.391,12.958,10.391,13.362z    M30.359,26.738c0,0.107-0.06,0.197-0.177,0.272s-0.432,0.149-0.943,0.224c-0.513,0.074-1.109,0.111-1.792,0.111   c-0.684,0-1.644-0.08-2.88-0.238c-1.238-0.161-1.958-0.295-2.16-0.4c-0.203-0.107-0.326-0.277-0.368-0.513   c-0.128-0.875-0.331-1.536-0.608-1.983c-0.277-0.448-0.726-0.881-1.344-1.297c-0.619-0.416-1.014-0.623-1.184-0.623   c-0.171,0-0.31,0.053-0.416,0.16c-0.96,0.854-2.043,1.53-3.248,2.031c-1.206,0.501-2.112,0.752-2.721,0.752   c-0.607,0-1.083-0.048-1.424-0.145c-0.341-0.096-0.512-0.229-0.512-0.399s0.299-0.325,0.896-0.464   c0.598-0.139,1.307-0.389,2.129-0.752c0.82-0.363,1.594-0.795,2.319-1.296s1.109-0.806,1.152-0.912   c0.042-0.106,0.063-0.213,0.063-0.32c0-0.276-0.287-0.677-0.863-1.2c-0.576-0.521-1.211-0.922-1.904-1.199s-1.04-0.528-1.04-0.752   c0-0.225,0.16-0.433,0.48-0.625c0.725-0.426,1.125-0.655,1.199-0.688c0.075-0.031,0.373-0.219,0.896-0.561   c0.522-0.34,0.826-0.564,0.912-0.671c0.085-0.106,0.148-0.309,0.191-0.608l0.064-1.12c0-0.256-0.117-0.384-0.353-0.384   c-0.085,0-0.277,0.064-0.575,0.192c-0.3,0.128-0.55,0.272-0.752,0.432c-0.203,0.16-0.38,0.24-0.528,0.24   c-0.149,0-0.331-0.197-0.544-0.592c-0.214-0.395-0.379-0.858-0.496-1.392c-0.117-0.533-0.176-0.869-0.176-1.008   s0.042-0.235,0.128-0.288c0.085-0.053,0.336-0.101,0.752-0.144c0.416-0.042,0.965-0.144,1.647-0.304   c0.683-0.16,1.062-0.314,1.137-0.464c0.074-0.149,0.148-0.891,0.224-2.224c0.074-1.333,0.112-2.325,0.112-2.976   c0-0.65,0.031-1.21,0.096-1.68s0.144-0.752,0.24-0.848c0.096-0.096,0.24-0.144,0.432-0.144c0.192,0,0.544,0.091,1.056,0.272   c0.513,0.182,0.769,0.352,0.769,0.512c0,0.16-0.059,0.325-0.176,0.496c-0.118,0.171-0.208,0.395-0.272,0.672   c-0.063,0.277-0.128,0.955-0.191,2.032C19.543,7,19.511,7.976,19.511,8.851c0,0.235,0.085,0.352,0.256,0.352   s0.513-0.091,1.024-0.272s0.96-0.4,1.344-0.656c0.171-0.106,0.32-0.16,0.448-0.16c0.32,0,0.48,0.373,0.48,1.12   c0,0.256-0.08,0.507-0.24,0.752c-0.16,0.246-0.47,0.544-0.929,0.896c-0.459,0.352-1.104,0.752-1.936,1.2   c-0.384,0.192-0.576,0.715-0.576,1.568c0,0.363,0.032,0.576,0.096,0.64c0.064,0.064,0.267,0.096,0.608,0.096   c0.704,0,1.424,0.085,2.16,0.256c0.736,0.171,1.104,0.395,1.104,0.672c0,0.149-0.128,0.357-0.384,0.624s-0.512,0.741-0.768,1.424   c-0.342,0.981-0.907,1.974-1.696,2.976c-0.085,0.107-0.128,0.236-0.128,0.385c0,0.149,0.043,0.293,0.128,0.432   s0.496,0.512,1.232,1.12c0.735,0.608,1.424,1.067,2.063,1.376c0.641,0.31,1.45,0.613,2.433,0.912c0.98,0.299,1.914,0.661,2.8,1.088   C29.916,26.077,30.359,26.439,30.359,26.738z M18.679,19.187c0.234,0,0.448-0.267,0.641-0.8c0.191-0.533,0.288-1.057,0.288-1.568   s-0.251-0.768-0.752-0.768c-0.502,0-0.961,0.139-1.377,0.416c-0.415,0.277-0.623,0.539-0.623,0.783   c0,0.246,0.063,0.412,0.191,0.496c0.555,0.448,1.003,0.875,1.344,1.28C18.476,19.133,18.572,19.187,18.679,19.187z" stroke-width="1"/>
</g>
</svg>