<svg xmlns="http://www.w3.org/2000/svg" xmlns:xlink="http://www.w3.org/1999/xlink" version="1.1" id="图层_1" x="0px" y="0px" width="19.304000854492188" height="25.672000885009766" viewBox="6.161999702453613 2.2650012969970703 19.304000854492188 25.672000885009766" style="enable-background:new 0 0 30 30;" xml:space="preserve">
  <g>
    <g>
      <path style="fill:#0000FF;" d="M13.894,11.821c0-0.213-0.117-0.32-0.352-0.32c-0.128,0-0.544,0.128-1.248,0.384&#13;&#10;&#9;&#9;s-1.846,0.768-3.424,1.536c-0.192,0.085-0.331,0.128-0.416,0.128c-0.235,0-0.592-0.299-1.072-0.896&#13;&#10;&#9;&#9;c-0.479-0.597-0.72-1.04-0.72-1.328s0.192-0.475,0.576-0.56c1.322-0.298,2.453-0.603,3.392-0.912&#13;&#10;&#9;&#9;c0.938-0.309,1.866-0.539,2.784-0.688c0.277-0.042,0.448-0.25,0.512-0.624c0.064-0.373,0.097-1.509,0.097-3.408&#13;&#10;&#9;&#9;c0-0.747-0.012-1.248-0.032-1.504l-0.032-0.576c0-0.192,0.149-0.288,0.448-0.288c0.362,0,1.019,0.091,1.968,0.272&#13;&#10;&#9;&#9;c0.949,0.182,1.424,0.379,1.424,0.592c0,0.128-0.085,0.235-0.256,0.32c-0.491,0.235-0.8,0.885-0.928,1.952&#13;&#10;&#9;&#9;s-0.192,2.197-0.192,3.392c0,1.195,0.011,1.851,0.032,1.968c0.021,0.118,0.074,0.176,0.16,0.176c0.17,0,0.848-0.522,2.032-1.568&#13;&#10;&#9;&#9;c1.184-1.045,2.021-1.845,2.512-2.4c0.17-0.192,0.325-0.288,0.464-0.288s0.341,0.118,0.608,0.352&#13;&#10;&#9;&#9;c0.266,0.235,0.592,0.469,0.976,0.704c0.128,0.085,0.192,0.192,0.192,0.32c0,0.235-0.208,0.438-0.624,0.608&#13;&#10;&#9;&#9;c-0.416,0.171-1.035,0.582-1.856,1.232c-0.821,0.651-2.171,1.392-4.048,2.224c-0.256,0.107-0.384,0.304-0.384,0.592&#13;&#10;&#9;&#9;c0,0.288,0.037,0.485,0.111,0.592c0.075,0.107,0.262,0.133,0.561,0.08c0.298-0.053,0.618-0.08,0.96-0.08&#13;&#10;&#9;&#9;c1.066,0,2.187,0.32,3.359,0.96c1.174,0.64,2.155,1.056,2.944,1.248c0.362,0.085,0.544,0.187,0.544,0.304s-0.08,0.288-0.24,0.512&#13;&#10;&#9;&#9;c-0.159,0.225-0.405,0.865-0.735,1.92c-0.331,1.057-0.827,2.348-1.488,3.873c-0.661,1.524-1.072,2.564-1.231,3.119&#13;&#10;&#9;&#9;c-0.16,0.555-0.3,0.864-0.416,0.928c-0.118,0.064-0.278,0.097-0.48,0.097c-0.203,0-0.496-0.038-0.88-0.112s-0.96-0.123-1.729-0.144&#13;&#10;&#9;&#9;c-0.768-0.021-1.376-0.021-1.823,0c-0.448,0.021-0.896,0.032-1.345,0.032c-0.447,0-0.795-0.016-1.04-0.049&#13;&#10;&#9;&#9;c-0.245-0.031-0.57-0.047-0.976-0.047s-0.976,0.084-1.712,0.256c-0.736,0.17-1.222,0.336-1.456,0.496&#13;&#10;&#9;&#9;c-0.235,0.16-0.405,0.239-0.512,0.239c-0.107,0-0.198-0.123-0.272-0.368c-0.075-0.245-0.213-0.607-0.416-1.088&#13;&#10;&#9;&#9;S7.91,25.186,7.91,25.037c0-0.15,0.053-0.246,0.16-0.289c0.106-0.043,0.213-0.059,0.319-0.047c0.106,0.01,0.182,0.016,0.225,0.016&#13;&#10;&#9;&#9;c0.234,0,0.603-0.07,1.104-0.208c0.501-0.14,1.27-0.256,2.305-0.353c1.034-0.096,2.074-0.293,3.119-0.592&#13;&#10;&#9;&#9;c0.896-0.234,1.921-0.352,3.072-0.352c0.299,0,0.555-0.149,0.769-0.448l0.735-0.992c0.256-0.362,0.501-1.104,0.736-2.224&#13;&#10;&#9;&#9;c0.234-1.12,0.352-1.936,0.352-2.448c0-0.512-0.213-0.944-0.64-1.296c-0.427-0.352-0.966-0.528-1.616-0.528&#13;&#10;&#9;&#9;s-1.413,0.299-2.288,0.896c-0.49,0.341-0.906,0.555-1.248,0.64c-0.341,0.086-1.034,0.172-2.08,0.256&#13;&#10;&#9;&#9;c-1.045,0.086-2.059,0.283-3.04,0.592c-0.981,0.311-1.52,0.534-1.615,0.672c-0.097,0.14-0.198,0.209-0.305,0.209&#13;&#10;&#9;&#9;s-0.187-0.149-0.239-0.448c-0.054-0.298-0.14-0.597-0.257-0.896s-0.176-0.47-0.176-0.513c0-0.192,0.16-0.288,0.48-0.288&#13;&#10;&#9;&#9;c0.319,0,0.858-0.085,1.616-0.256c0.757-0.17,1.274-0.325,1.552-0.464c0.276-0.139,0.815-0.25,1.616-0.336&#13;&#10;&#9;&#9;c0.8-0.085,1.21-0.373,1.231-0.864L13.894,11.821z M17.606,18.445c0.213,0,0.367,0.063,0.464,0.191&#13;&#10;&#9;&#9;c0.096,0.128,0.176,0.326,0.239,0.592c0.064,0.268,0.097,0.555,0.097,0.864s-0.032,0.512-0.097,0.608&#13;&#10;&#9;&#9;c-0.063,0.096-0.187,0.144-0.367,0.144c-0.182,0-0.801,0.155-1.856,0.464c-1.056,0.31-2.31,0.561-3.76,0.752&#13;&#10;&#9;&#9;c-1.451,0.192-2.379,0.406-2.784,0.641c-0.149,0.085-0.299,0.127-0.448,0.127s-0.347-0.281-0.592-0.848&#13;&#10;&#9;&#9;c-0.245-0.564-0.368-0.949-0.368-1.152c0-0.202,0.032-0.352,0.097-0.447c0.063-0.096,0.234-0.145,0.512-0.145&#13;&#10;&#9;&#9;c0.32,0,0.746-0.048,1.28-0.144c0.532-0.097,1.104-0.261,1.712-0.496c0.607-0.234,1.546-0.485,2.815-0.752&#13;&#10;&#9;&#9;S16.838,18.445,17.606,18.445z" stroke-width="1"/>
    </g>
    <g/>
    <g/>
    <g/>
    <g/>
    <g/>
    <g/>
    <g/>
    <g/>
    <g/>
    <g/>
    <g/>
    <g/>
    <g/>
    <g/>
    <g/>
  </g>
</svg>