<svg xmlns="http://www.w3.org/2000/svg" xmlns:xlink="http://www.w3.org/1999/xlink" version="1.1" id="图层_1" x="0px" y="0px" width="25.542001724243164" height="24.93500328063965" viewBox="3.0119998455047607 2.3029956817626953 25.542001724243164 24.93500328063965" enable-background="new 0 0 30 30" xml:space="preserve">
<g>
	<path fill="#0000FF" d="M21.143,4.371c0,0.085-0.031,0.197-0.096,0.336c-0.063,0.139-0.096,0.475-0.096,1.008   c0,3.03-0.038,5.099-0.112,6.208c-0.075,1.11-0.112,1.91-0.112,2.4l0.032,1.248c0,1.217-0.267,1.824-0.8,1.824   c-0.192,0-0.667-0.182-1.424-0.544c-0.758-0.362-1.798-0.896-3.12-1.6c-0.107-0.064-0.203-0.096-0.288-0.096   c-0.086,0-0.182,0.118-0.288,0.352c-0.32,0.832-0.656,1.521-1.008,2.064c-0.353,0.545-0.864,1.2-1.536,1.969   c-0.672,0.768-1.072,1.258-1.2,1.472s-0.239,0.575-0.336,1.088c-0.096,0.512-0.213,0.892-0.352,1.136   c-0.14,0.246-0.485,0.518-1.04,0.816C8.812,24.35,8.14,24.6,7.351,24.803c-0.789,0.202-1.546,0.304-2.271,0.304   c-1.045,0-1.568-0.134-1.568-0.399c0-0.268,0.538-0.699,1.616-1.297c1.077-0.597,2.005-1.173,2.784-1.728   c0.778-0.555,1.552-1.259,2.32-2.112c0.768-0.854,1.37-1.712,1.808-2.576c0.437-0.863,0.789-1.888,1.056-3.072s0.4-2.533,0.4-4.048   l-0.032-1.568c0-0.512,0.096-0.912,0.288-1.2s0.427-0.432,0.704-0.432s0.57,0.064,0.88,0.192c0.309,0.128,0.464,0.288,0.464,0.48   c0,0.192-0.016,0.389-0.048,0.592c-0.032,0.203-0.048,0.432-0.048,0.688l0.032,0.992c0,1.429-0.107,2.763-0.32,4   c-0.021,0.128-0.032,0.288-0.032,0.48s0.123,0.315,0.368,0.368c0.245,0.054,0.645,0.08,1.2,0.08c0.555,0,0.874-0.176,0.96-0.528   c0.085-0.352,0.128-1.648,0.128-3.888c0-2.837-0.128-4.581-0.384-5.232c-0.256-0.65-0.747-0.976-1.473-0.976   c-0.256,0-0.603,0.085-1.04,0.256s-0.986,0.469-1.647,0.896c-0.662,0.427-1.051,0.709-1.168,0.848   c-0.117,0.139-0.203,0.438-0.256,0.896c-0.054,0.459-0.155,0.886-0.305,1.28c-0.149,0.395-0.271,1.2-0.367,2.416   c-0.097,1.216-0.145,2.181-0.145,2.896s0.011,1.168,0.032,1.36c0.021,0.192,0.032,0.421,0.032,0.688   c0,0.267-0.123,0.469-0.368,0.608c-0.246,0.139-0.476,0.208-0.688,0.208s-0.373-0.122-0.479-0.368   c-0.107-0.244-0.235-1.088-0.384-2.528c-0.15-1.44-0.225-2.629-0.225-3.568c0-0.938,0.043-1.877,0.128-2.816   c0.085-0.938,0.225-1.605,0.416-2c0.192-0.395,0.384-0.661,0.576-0.8c0.192-0.138,0.48-0.208,0.864-0.208s0.661-0.042,0.832-0.128   c0.618-0.32,1.418-0.576,2.399-0.768c0.981-0.192,1.904-0.288,2.769-0.288s1.744,0.187,2.64,0.56   C20.695,3.736,21.143,4.072,21.143,4.371z M26.231,17.203c0.191,0,0.49,0.703,0.896,2.111s0.624,2.527,0.656,3.359   s0.085,1.483,0.16,1.953c0.074,0.469,0.111,0.815,0.111,1.039c0,0.225-0.096,0.411-0.288,0.561   c-0.191,0.148-0.832,0.271-1.92,0.368c-1.088,0.096-2.288,0.144-3.6,0.144c-1.313,0-2.405-0.069-3.28-0.207   c-0.875-0.14-1.589-0.46-2.144-0.961c-0.556-0.502-0.998-1.205-1.328-2.111c-0.331-0.906-0.496-2.032-0.496-3.377   c0-1.344,0.037-2.196,0.112-2.56c0.074-0.362,0.224-0.544,0.447-0.544c0.225,0,0.513,0.037,0.864,0.111   c0.353,0.076,0.528,0.22,0.528,0.433c0,0.214-0.064,0.491-0.192,0.832c-0.277,0.661-0.416,1.579-0.416,2.752   s0.314,1.974,0.944,2.399c0.629,0.428,1.589,0.641,2.88,0.641c1.29,0,2.389-0.08,3.296-0.24c0.906-0.16,1.557-0.66,1.952-1.504   c0.395-0.842,0.592-2.202,0.592-4.08C26.007,17.576,26.081,17.203,26.231,17.203z" stroke-width="1"/>
</g>
</svg>