<svg xmlns="http://www.w3.org/2000/svg" xmlns:xlink="http://www.w3.org/1999/xlink" version="1.1" id="图层_1" x="0px" y="0px" width="28.808000564575195" height="28.072999954223633" viewBox="-0.6690002083778381 2.0459983348846436 28.808000564575195 28.072999954223633" enable-background="new 0 0 30 30" xml:space="preserve">
<g>
	<path fill="#0000FF" d="M13.367,8.083c0,0.192-0.075,0.405-0.225,0.64s-0.539,0.507-1.168,0.816   c-0.629,0.31-1.029,0.464-1.199,0.464c-0.172,0-0.673-0.362-1.505-1.088c-0.213-0.192-0.399-0.288-0.56-0.288   s-0.4,0.155-0.72,0.464c-0.32,0.31-0.715,0.667-1.184,1.072c-0.832,0.747-1.248,1.27-1.248,1.568c0,0.171,0.218,0.256,0.656,0.256   c0.437,0,1.157-0.165,2.16-0.496s1.701-0.496,2.096-0.496s0.593,0.219,0.593,0.656c0,0.438-0.086,0.773-0.257,1.008   s-0.379,0.443-0.624,0.624s-0.469,0.4-0.672,0.656s-0.304,0.475-0.304,0.656s0.026,0.341,0.08,0.48   c0.053,0.139,0.112,0.197,0.176,0.176c0.512-0.17,1.013-0.256,1.504-0.256c0.362,0,0.544,0.16,0.544,0.48s-0.111,0.523-0.336,0.607   c-0.224,0.086-0.518,0.289-0.88,0.608c-0.47,0.47-0.96,0.875-1.472,1.216c-0.064,0.043-0.192,0.315-0.384,0.816   c-0.192,0.502-0.288,0.986-0.288,1.456s0.111,0.704,0.336,0.704c0.224,0,0.469-0.086,0.735-0.256   c0.267-0.171,0.779-0.545,1.536-1.121c0.757-0.575,1.232-0.98,1.424-1.215c0.235-0.32,0.411-0.48,0.528-0.48   s0.176,0.064,0.176,0.191c0,0.277-0.314,1.046-0.943,2.305c-0.63,1.259-1.425,2.176-2.385,2.752   c-0.533,0.32-0.906,0.619-1.119,0.896c-0.214,0.276-0.443,0.416-0.688,0.416s-0.485-0.433-0.72-1.297   c-0.235-0.863-0.352-2.191-0.352-3.984c0-0.213-0.155-0.319-0.464-0.319c-0.31,0-0.677,0.048-1.104,0.144   c-0.427,0.097-0.72,0.203-0.88,0.32S3.948,19.41,3.863,19.41c-0.235,0-0.448-0.277-0.64-0.832c-0.256-0.789-0.48-1.231-0.672-1.328   c-0.192-0.096-0.352-0.122-0.48-0.08c-0.277,0.129-0.603,0.236-0.976,0.32c-0.374,0.086-0.635,0.129-0.784,0.129   c-0.32,0-0.48-0.107-0.48-0.32s0.282-0.661,0.848-1.344c0.565-0.683,1.05-1.217,1.456-1.601s0.848-0.853,1.328-1.408   c0.48-0.554,0.763-0.906,0.848-1.056c0.853-1.408,1.856-2.816,3.008-4.224C7.938,6.898,8.481,6.12,8.951,5.331   c0.469-0.789,0.73-1.376,0.784-1.76c0.053-0.384,0.196-0.576,0.432-0.576c0.384,0,0.784,0.166,1.2,0.496s0.624,0.624,0.624,0.88   c0,0.149-0.091,0.299-0.272,0.448c-0.182,0.15-0.507,0.534-0.976,1.152c-0.47,0.619-0.704,1.013-0.704,1.184   c0,0.171,0.165,0.294,0.496,0.368c0.33,0.075,0.607,0.112,0.832,0.112c0.224,0,0.437-0.021,0.64-0.064   c0.203-0.042,0.379-0.064,0.528-0.064C13.09,7.506,13.367,7.699,13.367,8.083z M6.839,15.795V15.73   c-0.021-0.148-0.043-0.352-0.064-0.608c-0.021-0.256-0.043-0.411-0.064-0.464c-0.021-0.053-0.085-0.133-0.192-0.24   c-0.107-0.106-0.229-0.341-0.368-0.704c-0.139-0.362-0.277-0.624-0.416-0.784c-0.139-0.16-0.261-0.24-0.368-0.24   c-0.171,0-0.299,0.043-0.384,0.128c-0.085,0.085-0.128,0.331-0.128,0.736l0.064,0.96c0,0.256-0.085,0.485-0.256,0.688   c-0.171,0.203-0.608,0.582-1.312,1.135c-0.171,0.129-0.256,0.268-0.256,0.416c0,0.064,0.09,0.14,0.272,0.225   c0.181,0.086,0.421,0.128,0.72,0.128c0.298,0,0.768-0.138,1.408-0.416c0.64-0.276,1.024-0.458,1.152-0.544   C6.775,16.062,6.839,15.943,6.839,15.795z M22.455,9.619c1.344,0.021,2.544,0.299,3.6,0.832c1.057,0.533,1.584,0.939,1.584,1.216   c0,0.128-0.191,0.352-0.575,0.672c-0.385,0.32-0.619,0.555-0.704,0.704c-0.235,0.406-0.598,0.907-1.089,1.504   c-0.106,0.128-0.187,0.299-0.239,0.512c-0.054,0.213-0.069,0.469-0.048,0.768v0.736c0,0.619-0.31,0.928-0.929,0.928   c-0.191,0-0.416-0.031-0.672-0.096c-0.491-0.128-1.163-0.191-2.016-0.191c-0.256,0-0.416,0.037-0.48,0.111   c-0.063,0.075-0.117,0.39-0.16,0.943l-0.575,5.761c-0.192,2.368-0.246,3.798-0.16,4.288c0.042,0.234,0.063,0.426,0.063,0.576   c0,0.49-0.267,0.736-0.8,0.736s-0.832-0.129-0.896-0.385c-0.064-0.256-0.097-1.932-0.097-5.023v-6.24   c0-0.277-0.08-0.416-0.239-0.416c-0.16,0-0.411,0.053-0.753,0.16c-0.341,0.106-0.645,0.256-0.911,0.447   c-0.268,0.192-0.508,0.289-0.721,0.289s-0.379-0.123-0.496-0.369c-0.117-0.244-0.293-0.484-0.527-0.72   c-0.854-0.874-1.44-1.952-1.76-3.232c-0.32-1.28-0.48-2.123-0.48-2.528c0-0.256,0.128-0.427,0.384-0.512   c0.256-0.085,0.875-0.176,1.856-0.272c0.98-0.096,1.706-0.24,2.176-0.432c0.256-0.107,0.64-0.224,1.152-0.352   c0.234-0.064,0.352-0.256,0.352-0.576c0.043-2.112,0.091-3.744,0.145-4.896c0.053-1.152,0.101-1.776,0.144-1.872   c0.043-0.096,0.122-0.144,0.24-0.144c0.117,0,0.555,0.112,1.312,0.336c0.757,0.224,1.205,0.379,1.344,0.464   c0.139,0.085,0.208,0.197,0.208,0.336s-0.063,0.288-0.191,0.448c-0.128,0.16-0.24,0.64-0.336,1.44   c-0.096,0.8-0.145,1.563-0.145,2.288c0,0.726,0.026,1.2,0.08,1.424c0.054,0.224,0.145,0.336,0.272,0.336H22.455z M16.823,15.635   c0.128,0,0.245-0.016,0.352-0.049c0.106-0.031,0.373-0.09,0.8-0.175c0.192-0.042,0.288-0.235,0.288-0.576l0.032-2.432   c0-0.362-0.165-0.544-0.496-0.544s-0.8,0.128-1.408,0.384c-0.607,0.256-0.912,0.677-0.912,1.264c0,0.587,0.107,1.088,0.32,1.504   S16.354,15.635,16.823,15.635z M21.463,14.867c0.448,0,0.763-0.053,0.944-0.16c0.181-0.106,0.362-0.432,0.544-0.976   c0.181-0.544,0.271-1.029,0.271-1.456c0-0.811-0.459-1.216-1.376-1.216c-0.619,0-0.943,0.139-0.976,0.416   c-0.032,0.277-0.08,0.624-0.145,1.04c-0.063,0.416-0.096,0.709-0.096,0.88c0,0.704,0.053,1.125,0.16,1.264   C20.897,14.797,21.121,14.867,21.463,14.867z" stroke-width="1"/>
</g>
</svg>