<svg xmlns="http://www.w3.org/2000/svg" xmlns:xlink="http://www.w3.org/1999/xlink" version="1.1" id="图层_1" x="0px" y="0px" width="25.416000366210938" height="28.80900001525879" viewBox="1.122998595237732 0.4790000319480896 25.416000366210938 28.80900001525879" enable-background="new 0 0 30 30" xml:space="preserve">
<g>
	<path fill="#0000FF" d="M8.535,5.075c0.362,0,0.741,0.166,1.136,0.496c0.395,0.331,0.592,0.624,0.592,0.88   c0,0.192-0.16,0.475-0.479,0.848c-0.32,0.374-0.672,0.891-1.057,1.552c-0.384,0.662-1.045,1.675-1.983,3.04   c-0.235,0.363-0.352,0.805-0.352,1.328s0.042,0.869,0.128,1.04c0.085,0.171,0.261,0.336,0.528,0.496   c0.267,0.16,0.4,0.363,0.4,0.608c0,0.245-0.048,0.534-0.145,0.864c-0.096,0.331-0.144,0.965-0.144,1.904l0.032,1.216   c0,0.812-0.038,1.567-0.112,2.272c-0.075,0.703-0.112,1.344-0.112,1.92l0.032,1.504c0,0.469-0.187,0.746-0.56,0.832   c-0.374,0.084-0.603,0.127-0.688,0.127c-0.32,0-0.48-0.277-0.48-0.832c0-1.855,0.016-3.119,0.048-3.791   c0.032-0.672,0.096-1.436,0.192-2.289c0.096-0.853,0.144-1.418,0.144-1.695c0-0.619-0.107-0.928-0.32-0.928   c-0.064,0-0.288,0.176-0.672,0.527c-0.384,0.353-0.901,0.684-1.552,0.992c-0.651,0.31-1.062,0.465-1.232,0.465   c-0.171,0-0.256-0.086-0.256-0.257c0-0.469,0.778-1.94,2.336-4.416c0.683-1.088,1.291-2.261,1.824-3.52   C6.316,9,6.812,7.891,7.271,6.931c0.459-0.96,0.747-1.509,0.864-1.648S8.386,5.075,8.535,5.075z M10.487,17.395l0.096,1.152   c0,0.256-0.176,0.384-0.528,0.384c-0.352,0-0.693-0.021-1.023-0.063c-0.331-0.043-0.518-0.092-0.561-0.145S8.407,18.6,8.407,18.515   c0-0.235,0.234-0.613,0.704-1.136c0.469-0.523,0.794-0.784,0.976-0.784c0.181,0,0.293,0.048,0.336,0.144   S10.487,17.054,10.487,17.395z M21.399,5.203c0.404,0,0.703,0.203,0.896,0.608c0.192,0.405,0.288,0.736,0.288,0.992   c0,0.256-0.192,0.384-0.576,0.384l-1.408-0.032c-1.131,0-1.84,0.038-2.128,0.112s-0.752,0.16-1.392,0.256   c-0.64,0.096-1.136,0.16-1.488,0.192c-0.352,0.032-0.949,0.166-1.792,0.4s-1.344,0.411-1.504,0.528   c-0.16,0.118-0.347,0.176-0.56,0.176c-0.214,0-0.368-0.165-0.465-0.496c-0.096-0.331-0.144-0.56-0.144-0.688   c0-0.213,0.128-0.32,0.384-0.32s0.789-0.112,1.601-0.336c0.811-0.224,1.396-0.421,1.76-0.592c0.938-0.427,1.749-0.64,2.432-0.64   c0.448,0,1.104-0.059,1.968-0.176c0.864-0.117,1.397-0.208,1.601-0.272C21.073,5.234,21.249,5.203,21.399,5.203z M26.039,16.851   c0,0.128-0.054,0.239-0.16,0.336s-0.363,0.229-0.768,0.399c-0.406,0.172-0.854,0.262-1.345,0.272   c-0.49,0.011-0.934,0.017-1.327,0.017c-0.396,0-0.646,0.117-0.753,0.352c-0.191,0.405-0.427,0.607-0.703,0.607   c-0.214,0-0.486,0.06-0.816,0.177c-0.331,0.117-0.533,0.235-0.608,0.352c-0.074,0.118-0.187,0.4-0.336,0.849   c-0.149,0.447-0.239,0.773-0.271,0.976c-0.032,0.203-0.048,0.587-0.048,1.151c0,0.566-0.021,1.094-0.064,1.584   c-0.043,0.491-0.063,1.1-0.063,1.824c0,0.726,0.01,1.237,0.031,1.537l0.064,0.734c0,0.514-0.283,0.77-0.848,0.77   c-0.566,0-1.371-0.188-2.416-0.561c-1.046-0.373-2-0.881-2.864-1.52c-0.864-0.641-1.296-1.078-1.296-1.313   c0-0.086,0.037-0.128,0.111-0.128c0.075,0,0.155,0.021,0.24,0.063c0.256,0.129,0.912,0.305,1.968,0.528   c1.057,0.224,1.739,0.336,2.049,0.336c0.309,0,0.564-0.117,0.768-0.353c0.202-0.234,0.304-0.842,0.304-1.823   s-0.043-1.776-0.128-2.384c-0.085-0.608-0.283-1.029-0.592-1.264c-0.31-0.234-0.741-0.353-1.296-0.353   c-0.704,0-1.232,0.063-1.584,0.192c-0.353,0.127-0.592,0.191-0.72,0.191c-0.406,0-0.608-0.384-0.608-1.152   c0-0.34,0.026-0.549,0.08-0.623c0.053-0.074,0.187-0.112,0.4-0.112c0.213,0,0.788-0.101,1.728-0.304   c0.938-0.203,1.888-0.459,2.848-0.769s1.995-0.464,3.104-0.464c0.299,0,0.555,0.032,0.768,0.096   c0.213,0.064,0.421,0.096,0.624,0.096s0.475-0.144,0.816-0.432c0.341-0.287,0.512-0.592,0.512-0.912   c0-0.704-0.683-1.056-2.048-1.056c-0.768,0-1.334,0.112-1.696,0.336s-0.688,0.396-0.976,0.513s-0.662,0.207-1.12,0.271   c-0.459,0.064-1.227,0.225-2.304,0.48c-1.078,0.256-1.718,0.426-1.92,0.512c-0.203,0.086-0.406,0.128-0.608,0.128   c-0.203,0-0.39-0.112-0.56-0.337c-0.172-0.223-0.257-0.389-0.257-0.495c0-0.214,0.214-0.4,0.641-0.56   c0.427-0.161,1.12-0.331,2.08-0.513c0.96-0.181,1.914-0.395,2.863-0.64c0.949-0.245,1.627-0.437,2.032-0.576   s0.977-0.208,1.712-0.208c0.736,0,1.521,0.171,2.353,0.512c0.832,0.342,1.541,0.8,2.128,1.376   C25.745,16.146,26.039,16.574,26.039,16.851z M18.647,8.435c0.725,0,1.376,0.128,1.951,0.384c0.576,0.256,0.864,0.523,0.864,0.8   c0,0.192-0.187,0.507-0.56,0.944c-0.374,0.438-0.636,0.768-0.784,0.992c-0.149,0.224-0.246,0.443-0.288,0.656   c-0.086,0.299-0.374,0.47-0.864,0.512c-0.171,0.021-0.661,0.133-1.472,0.336c-0.812,0.203-1.355,0.352-1.632,0.448   c-0.277,0.096-0.518,0.144-0.721,0.144c-0.202,0-0.384-0.048-0.544-0.144c-0.159-0.096-0.389-0.325-0.688-0.688   c-0.299-0.362-0.544-0.794-0.736-1.296c-0.191-0.501-0.288-0.869-0.288-1.104c0-0.234,0.187-0.469,0.561-0.704   c0.373-0.234,1.156-0.506,2.352-0.816C16.993,8.589,17.943,8.435,18.647,8.435z M15.895,11.891c0.405,0,0.923-0.128,1.553-0.384   c0.629-0.256,0.943-0.618,0.943-1.088c0-0.234-0.091-0.421-0.271-0.56C17.938,9.72,17.682,9.65,17.351,9.65   s-0.778,0.166-1.344,0.496c-0.565,0.331-0.848,0.667-0.848,1.008c0,0.171,0.068,0.336,0.208,0.496   C15.506,11.811,15.682,11.891,15.895,11.891z M16.471,0.979c0.149,0,0.283,0.102,0.4,0.304s0.293,0.464,0.528,0.784   c0.575,0.79,0.863,1.525,0.863,2.208c0,0.278-0.037,0.48-0.111,0.608c-0.075,0.128-0.288,0.192-0.641,0.192   c-0.352,0-0.635-0.075-0.848-0.224c-0.214-0.149-0.459-0.405-0.736-0.768c-0.277-0.362-0.416-0.741-0.416-1.136   c0-0.394,0.091-0.821,0.272-1.28C15.964,1.208,16.193,0.979,16.471,0.979z" stroke-width="1"/>
</g>
</svg>