<svg xmlns="http://www.w3.org/2000/svg" xmlns:xlink="http://www.w3.org/1999/xlink" version="1.1" id="图层_1" x="0px" y="0px" width="29.864002227783203" height="25.57600212097168" viewBox="-0.26999999582767487 1.4010001420974731 29.864002227783203 25.57600212097168" style="enable-background:new 0 0 30 30;" xml:space="preserve">
  <g>
    <g>
      <path style="fill:#0000FF;" d="M8.454,21.453c0,0.277,0.069,0.416,0.208,0.416s0.405-0.197,0.8-0.592s0.8-0.907,1.216-1.537&#13;&#10;&#9;&#9;c0.416-0.629,0.763-1.908,1.04-3.839c0.277-1.931,0.442-3.472,0.496-4.624c0.053-1.152,0.145-1.936,0.272-2.352&#13;&#10;&#9;&#9;s0.256-0.688,0.384-0.816c0.128-0.128,0.356-0.192,0.688-0.192s2.075-0.522,5.232-1.568c0.555-0.17,1.205-0.256,1.952-0.256&#13;&#10;&#9;&#9;c0.746,0,1.408,0.155,1.983,0.464c0.576,0.31,0.864,0.667,0.864,1.072c0,0.277-0.117,0.491-0.352,0.64&#13;&#10;&#9;&#9;c-0.448,0.278-0.821,1.414-1.12,3.408c-0.299,1.995-0.448,4.059-0.448,6.192c0,1.023,0.074,1.883,0.224,2.576&#13;&#10;&#9;&#9;s0.545,1.211,1.185,1.551c0.64,0.342,1.205,0.513,1.696,0.513c0.49,0,0.9-0.149,1.231-0.448s0.496-0.912,0.496-1.84&#13;&#10;&#9;&#9;s-0.149-1.963-0.448-3.104c-0.299-1.142-0.447-1.803-0.447-1.984s0.031-0.272,0.096-0.272c0.148,0,0.464,0.368,0.944,1.104&#13;&#10;&#9;&#9;c0.479,0.736,0.757,1.381,0.831,1.936c0.075,0.555,0.229,1.057,0.465,1.504c0.234,0.448,0.373,0.907,0.416,1.377&#13;&#10;&#9;&#9;c0.021,0.661,0.148,1.231,0.384,1.711c0.234,0.48,0.352,0.881,0.352,1.201c0,0.319-0.091,0.617-0.271,0.896&#13;&#10;&#9;&#9;c-0.182,0.276-0.646,0.416-1.393,0.416c-2.111,0-3.883-0.619-5.312-1.856c-1.43-1.236-2.145-3.904-2.145-8&#13;&#10;&#9;&#9;c0-1.024,0.037-1.92,0.112-2.688c0.074-0.768,0.112-1.333,0.112-1.696c0-1.173-0.192-1.957-0.576-2.352&#13;&#10;&#9;&#9;c-0.384-0.395-0.816-0.592-1.296-0.592c-0.48,0-1.228,0.256-2.24,0.768c-1.014,0.512-1.643,0.976-1.888,1.392&#13;&#10;&#9;&#9;c-0.246,0.416-0.368,0.726-0.368,0.928c0,0.203,0.085,0.379,0.256,0.528c0.769,0.619,1.45,1.248,2.048,1.888&#13;&#10;&#9;&#9;c0.085,0.085,0.165,0.128,0.24,0.128c0.074,0,0.144-0.059,0.208-0.176s0.154-0.421,0.272-0.912&#13;&#10;&#9;&#9;c0.116-0.491,0.186-0.885,0.208-1.184v-0.8c0-0.277,0.085-0.416,0.256-0.416c0.17,0,0.475,0.128,0.912,0.384&#13;&#10;&#9;&#9;c0.437,0.256,0.746,0.443,0.928,0.56c0.181,0.118,0.271,0.267,0.271,0.448s-0.053,0.347-0.159,0.496&#13;&#10;&#9;&#9;c-0.363,0.47-0.624,1.051-0.784,1.744c-0.16,0.693-0.277,1.125-0.353,1.296c-0.075,0.171-0.111,0.315-0.111,0.432&#13;&#10;&#9;&#9;c0,0.118,0.053,0.24,0.159,0.368c0.641,0.833,1.051,1.424,1.232,1.776c0.181,0.352,0.271,0.688,0.271,1.008&#13;&#10;&#9;&#9;c0,0.726-0.149,1.387-0.447,1.984c-0.299,0.598-0.598,0.896-0.896,0.896c-0.149,0-0.277-0.182-0.384-0.545&#13;&#10;&#9;&#9;c-0.32-1.088-0.56-1.781-0.72-2.08s-0.305-0.447-0.433-0.447s-0.256,0.085-0.384,0.256c-0.683,0.854-1.803,1.396-3.359,1.632&#13;&#10;&#9;&#9;c-0.3,0.043-0.566,0.224-0.801,0.544c-0.533,0.684-0.96,1.184-1.279,1.504c-0.32,0.32-0.619,0.523-0.896,0.607&#13;&#10;&#9;&#9;c-0.277,0.086-0.683,0.129-1.216,0.129c-0.277,0-0.416,0.127-0.416,0.384v2.239c-0.021,0.598-0.166,0.896-0.432,0.896&#13;&#10;&#9;&#9;c-0.268,0-0.608-0.203-1.024-0.607c-0.416-0.406-0.624-0.684-0.624-0.832c0-0.15,0.069-0.332,0.208-0.545s0.208-0.655,0.208-1.328&#13;&#10;&#9;&#9;c0-0.672-0.006-1.578-0.016-2.719c-0.012-1.142-0.027-1.744-0.049-1.809s-0.053-0.096-0.096-0.096c-0.213,0-1.227,0.8-3.04,2.4&#13;&#10;&#9;&#9;c-1.003,0.896-1.835,1.344-2.496,1.344c-0.192,0-0.384-0.037-0.576-0.112S0.23,21.98,0.23,21.82s0.298-0.496,0.896-1.008&#13;&#10;&#9;&#9;c1.792-1.492,3.066-3.018,3.824-4.576c0.757-1.557,1.136-2.496,1.136-2.815c0-0.149-0.155-0.224-0.464-0.224&#13;&#10;&#9;&#9;c-0.31,0-0.742,0.091-1.296,0.272c-0.555,0.182-0.891,0.374-1.008,0.576s-0.304,0.304-0.56,0.304c-0.256,0-0.432-0.234-0.528-0.704&#13;&#10;&#9;&#9;c-0.096-0.469-0.283-0.997-0.56-1.584c-0.277-0.586-0.416-1.008-0.416-1.264c0-0.256,0.059-0.416,0.176-0.48&#13;&#10;&#9;&#9;c0.117-0.064,0.357-0.096,0.72-0.096s1.002-0.064,1.92-0.192c0.917-0.128,1.579-0.293,1.984-0.496&#13;&#10;&#9;&#9;C6.459,9.33,6.704,9.181,6.79,9.084c0.085-0.096,0.139-0.261,0.16-0.496l0.256-3.904C7.313,3.32,7.377,2.568,7.398,2.429&#13;&#10;&#9;&#9;C7.419,2.29,7.483,2.167,7.59,2.061c0.106-0.106,0.256-0.16,0.448-0.16s0.496,0.107,0.912,0.32&#13;&#10;&#9;&#9;c0.416,0.213,0.624,0.416,0.624,0.608s-0.043,0.39-0.128,0.592C9.36,3.624,9.302,3.816,9.271,3.997&#13;&#10;&#9;&#9;c-0.032,0.182-0.097,0.875-0.192,2.08C8.982,7.282,8.934,7.944,8.934,8.061c0,0.118,0.027,0.219,0.08,0.304&#13;&#10;&#9;&#9;C9.067,8.45,9.152,8.498,9.271,8.509C9.387,8.52,9.499,8.525,9.606,8.525c0.298,0,0.479,0.144,0.544,0.432&#13;&#10;&#9;&#9;c0.063,0.288,0.144,0.539,0.239,0.752c0.097,0.214,0.145,0.395,0.145,0.544c0,0.491-0.438,1.077-1.313,1.76&#13;&#10;&#9;&#9;c-0.277,0.235-0.416,0.427-0.416,0.576s0.043,0.267,0.128,0.352c0.661,0.661,1.083,1.131,1.265,1.408&#13;&#10;&#9;&#9;c0.181,0.277,0.271,0.565,0.271,0.864c0,1.023-0.149,1.535-0.447,1.535c-0.129,0-0.337-0.08-0.624-0.239&#13;&#10;&#9;&#9;c-0.288-0.16-0.502-0.24-0.641-0.24S8.55,16.387,8.55,16.621L8.454,21.453z M13.063,18.637c0.17,0,0.447-0.148,0.831-0.448&#13;&#10;&#9;&#9;c0.385-0.298,0.758-0.73,1.12-1.296c0.363-0.564,0.544-0.965,0.544-1.2s-0.267-0.725-0.8-1.472c-0.533-0.747-0.858-1.12-0.976-1.12&#13;&#10;&#9;&#9;c-0.118,0-0.197,0.118-0.24,0.352c-0.086,0.555-0.235,1.264-0.448,2.128c-0.213,0.865-0.319,1.589-0.319,2.176&#13;&#10;&#9;&#9;S12.87,18.637,13.063,18.637z" stroke-width="1"/>
    </g>
    <g/>
    <g/>
    <g/>
    <g/>
    <g/>
    <g/>
    <g/>
    <g/>
    <g/>
    <g/>
    <g/>
    <g/>
    <g/>
    <g/>
    <g/>
  </g>
</svg>