<svg xmlns="http://www.w3.org/2000/svg" xmlns:xlink="http://www.w3.org/1999/xlink" version="1.1" id="图层_1" x="0px" y="0px" width="29.799999237060547" height="22.40799903869629" viewBox="0.4980003833770752 3.6090006828308105 29.799999237060547 22.40799903869629" style="enable-background:new 0 0 30 30;" xml:space="preserve">
  <g>
    <g>
      <path style="fill:#0000FF;" d="M29.798,24.685c0,0.106-0.123,0.192-0.368,0.257c-0.245,0.063-0.555,0.176-0.928,0.336&#13;&#10;&#9;&#9;c-0.373,0.159-0.938,0.239-1.696,0.239c-0.757,0-1.68-0.08-2.768-0.239c-1.088-0.16-1.937-0.268-2.544-0.32&#13;&#10;&#9;&#9;c-0.608-0.054-0.998-0.166-1.168-0.336c-0.171-0.172-0.325-0.619-0.464-1.344c-0.14-0.726-0.464-1.371-0.977-1.937&#13;&#10;&#9;&#9;c-0.512-0.565-1.131-1.013-1.855-1.345c-0.726-0.33-1.462-0.703-2.208-1.119c-0.747-0.416-1.317-0.752-1.712-1.008&#13;&#10;&#9;&#9;c-0.396-0.256-0.892-0.465-1.488-0.625c-0.598-0.16-1.056-0.239-1.376-0.239s-0.608,0.214-0.864,0.64&#13;&#10;&#9;&#9;c-0.512,0.896-1.157,1.771-1.936,2.624c-0.779,0.854-1.189,1.707-1.232,2.56c-0.021,0.342-0.08,0.593-0.176,0.752&#13;&#10;&#9;&#9;c-0.096,0.16-0.336,0.379-0.72,0.656c-0.384,0.277-1.083,0.539-2.096,0.784c-1.014,0.245-1.638,0.368-1.872,0.368&#13;&#10;&#9;&#9;c-0.235,0-0.352-0.064-0.352-0.191c0-0.277,1.013-1.387,3.04-3.328c0.554-0.512,1.274-1.419,2.16-2.721&#13;&#10;&#9;&#9;c0.885-1.301,1.509-2.8,1.872-4.496c0.362-1.696,0.544-3.099,0.544-4.208c0-1.109-0.064-1.845-0.192-2.208S8.011,7.543,7.574,7.245&#13;&#10;&#9;&#9;c-0.438-0.298-0.656-0.539-0.656-0.72S6.987,6.12,7.126,5.853c0.139-0.266,0.261-0.416,0.368-0.448&#13;&#10;&#9;&#9;C7.601,5.373,7.846,5.378,8.23,5.421c0.384,0.043,0.74,0.064,1.071,0.064s0.955-0.133,1.872-0.4c0.917-0.266,1.637-0.453,2.16-0.56&#13;&#10;&#9;&#9;c0.522-0.107,1.034-0.16,1.536-0.16c0.501,0,0.971-0.042,1.408-0.128c0.437-0.085,0.762-0.128,0.976-0.128&#13;&#10;&#9;&#9;c0.597,0,1.456,0.293,2.576,0.88c1.12,0.587,1.68,1.029,1.68,1.328c0,0.128-0.106,0.288-0.319,0.48&#13;&#10;&#9;&#9;c-0.214,0.192-0.459,0.544-0.736,1.056c-0.576,1.088-1.062,1.83-1.456,2.224c-0.396,0.395-0.592,1.083-0.592,2.064&#13;&#10;&#9;&#9;c0,0.32-0.091,0.539-0.272,0.656s-0.65,0.176-1.408,0.176c-0.757,0-1.743,0.112-2.96,0.336c-1.216,0.224-1.994,0.438-2.336,0.64&#13;&#10;&#9;&#9;c-0.341,0.203-0.512,0.363-0.512,0.48c0,0.118,0.192,0.262,0.576,0.432c2.368,1.109,4.256,2.24,5.664,3.392&#13;&#10;&#9;&#9;c0.938,0.768,1.578,1.227,1.92,1.376c0.768,0.363,1.509,0.768,2.224,1.216s1.729,0.87,3.04,1.265&#13;&#10;&#9;&#9;c1.313,0.395,2.549,0.863,3.712,1.407S29.798,24.449,29.798,24.685z M17.063,6.797c0-0.619-0.331-0.928-0.992-0.928&#13;&#10;&#9;&#9;c-0.256,0-0.736,0.107-1.44,0.32c-0.704,0.214-1.333,0.422-1.888,0.624c-0.555,0.203-0.944,0.374-1.168,0.512&#13;&#10;&#9;&#9;c-0.225,0.139-0.348,0.251-0.368,0.336c-0.021,0.085-0.032,0.459-0.032,1.12l-0.032,1.728c0,0.213,0.032,0.363,0.097,0.448&#13;&#10;&#9;&#9;c0.063,0.085,0.25,0.128,0.56,0.128s0.869-0.096,1.68-0.288c0.811-0.192,1.371-0.373,1.681-0.544&#13;&#10;&#9;&#9;c0.309-0.171,0.613-0.469,0.912-0.896c0.298-0.427,0.538-0.864,0.72-1.312C16.971,7.597,17.063,7.181,17.063,6.797z" stroke-width="1"/>
    </g>
    <g/>
    <g/>
    <g/>
    <g/>
    <g/>
    <g/>
    <g/>
    <g/>
    <g/>
    <g/>
    <g/>
    <g/>
    <g/>
    <g/>
    <g/>
  </g>
</svg>