<svg xmlns="http://www.w3.org/2000/svg" xmlns:xlink="http://www.w3.org/1999/xlink" version="1.1" id="图层_1" x="0px" y="0px" width="19.466001510620117" height="23.7189998626709" viewBox="1.63200044631958 3.7749996185302734 19.466001510620117 23.7189998626709" enable-background="new 0 0 30 30" xml:space="preserve">
<g>
	<path fill="#0000FF" d="M20.343,23.154l0.128,2.368c0,0.362-0.031,0.698-0.096,1.009c-0.064,0.309-0.139,0.463-0.224,0.463   c-0.086,0-0.411-0.165-0.977-0.496c-0.565-0.33-1.083-0.603-1.552-0.815c-1.878-0.896-3.237-1.696-4.08-2.399   c-0.843-0.705-1.264-1.174-1.264-1.408c0-0.086,0.063-0.129,0.191-0.129s0.331,0.054,0.608,0.16   c1.706,0.704,3.008,1.057,3.904,1.057c0.298,0,0.501-0.074,0.607-0.225c0.106-0.148,0.16-0.426,0.16-0.832l-0.192-4.256   c-0.063-1.686-0.144-3.269-0.239-4.752c-0.097-1.482-0.198-2.757-0.305-3.824s-0.176-1.712-0.208-1.936   c-0.031-0.224-0.117-0.437-0.256-0.64c-0.139-0.203-0.31-0.347-0.512-0.432c-0.203-0.085-0.443-0.128-0.72-0.128   c-0.576,0-1.185,0.192-1.824,0.576c-0.64,0.384-1.062,0.747-1.264,1.088c-0.203,0.341-0.305,0.832-0.305,1.472   c0,0.171,0.097,0.256,0.288,0.256c0.875,0,1.515-0.042,1.92-0.128c0.405-0.085,0.65-0.128,0.736-0.128   c0.277,0,0.416,0.299,0.416,0.896s-0.171,0.933-0.512,1.008c-0.342,0.075-0.673,0.197-0.992,0.368   c-0.32,0.171-0.726,0.421-1.216,0.752c-0.491,0.331-0.758,0.528-0.801,0.592s-0.074,0.16-0.096,0.288l-0.192,1.312   c0,0.128,0.059,0.192,0.177,0.192c0.117,0,0.261-0.032,0.432-0.096c1.344-0.533,2.261-0.8,2.752-0.8c0.427,0,0.64,0.374,0.64,1.12   c0,0.32-0.122,0.587-0.367,0.799c-0.246,0.215-0.716,0.422-1.408,0.625c-0.693,0.203-1.382,0.438-2.064,0.703   c-0.683,0.268-1.077,0.438-1.184,0.513c-0.107,0.075-0.192,0.187-0.256,0.336c-0.427,0.812-0.812,1.445-1.152,1.903   c-0.342,0.459-0.56,0.828-0.656,1.104c-0.096,0.278-0.144,0.544-0.144,0.8v0.672c0,0.256-0.086,0.512-0.256,0.769   c-0.171,0.256-0.598,0.575-1.28,0.96c-0.683,0.384-1.43,0.709-2.24,0.977c-0.811,0.266-1.403,0.399-1.776,0.399   c-0.374,0-0.56-0.075-0.56-0.224c0-0.214,0.848-0.918,2.544-2.112c1.696-1.194,2.986-2.923,3.872-5.185   c0.885-2.261,1.328-4.959,1.328-8.096L9.783,6.995c0-0.448,0.139-0.784,0.416-1.008c0.276-0.224,1.316-0.565,3.12-1.024   c1.802-0.458,3.146-0.688,4.031-0.688c0.886,0,1.59,0.08,2.112,0.24c0.522,0.16,0.843,0.288,0.96,0.384   c0.117,0.096,0.176,0.219,0.176,0.368c0,0.149-0.08,0.315-0.239,0.496c-0.16,0.181-0.278,0.448-0.353,0.8   c-0.075,0.352-0.112,0.965-0.112,1.84l0.097,4.48l-0.032,2.112c0,1.195,0.096,2.469,0.288,3.824   c0.192,1.355,0.288,2.192,0.288,2.512c0,0.32-0.032,0.63-0.096,0.928C20.375,22.558,20.343,22.855,20.343,23.154z" stroke-width="1"/>
</g>
</svg>