<svg xmlns="http://www.w3.org/2000/svg" xmlns:xlink="http://www.w3.org/1999/xlink" version="1.1" id="图层_1" x="0px" y="0px" width="26.088001251220703" height="22.600000381469727" viewBox="1.3790000677108765 4.638999938964844 26.088001251220703 22.600000381469727" enable-background="new 0 0 30 30" xml:space="preserve">
<g>
	<path fill="#0000FF" d="M7.415,21.619c0,0.383-0.171,0.719-0.512,1.008c-0.341,0.287-0.661,0.746-0.96,1.375s-0.544,1.297-0.736,2   c-0.085,0.256-0.213,0.385-0.384,0.385c-0.341,0-0.917-0.283-1.728-0.848c-0.811-0.566-1.216-1.041-1.216-1.424   c0-0.257,0.17-0.428,0.512-0.513c0.768-0.234,2.144-0.874,4.128-1.92c0.362-0.192,0.603-0.288,0.72-0.288   C7.356,21.395,7.415,21.47,7.415,21.619z M13.975,6.066c0,0.171-0.085,0.4-0.256,0.688s-0.277,0.72-0.319,1.296   c-0.129,1.515-0.353,2.838-0.673,3.968c-0.128,0.448-0.191,1.494-0.191,3.136c0,1.643,0.016,2.848,0.048,3.616   s0.048,1.185,0.048,1.248c0,0.513-0.139,0.769-0.416,0.769s-0.858-0.262-1.744-0.785c-0.885-0.521-1.328-0.879-1.328-1.071   c0-0.106,0.149-0.16,0.448-0.16s0.518-0.091,0.656-0.272c0.139-0.181,0.208-0.475,0.208-0.879V17.33   c0-1.365-0.075-2.047-0.224-2.047c-0.064,0-0.619,0.603-1.664,1.807c-1.046,1.206-1.675,2.033-1.888,2.48   c-0.086,0.214-0.235,0.32-0.448,0.32c-0.213,0-0.629-0.262-1.248-0.784c-0.619-0.522-0.928-0.869-0.928-1.04   c0-0.17,0.096-0.309,0.288-0.416c0.917-0.576,1.445-0.938,1.584-1.088c0.139-0.148,0.187-0.362,0.144-0.641   c-0.256-1.962-0.384-3.52-0.384-4.671s0.059-1.968,0.176-2.448s0.176-0.912,0.176-1.296L5.975,6.931c0-0.448,0.341-0.715,1.024-0.8   c1.216-0.17,2.165-0.378,2.848-0.624c0.683-0.245,1.265-0.368,1.744-0.368c0.48,0,0.997,0.085,1.552,0.256   C13.697,5.565,13.975,5.79,13.975,6.066z M7.767,15.123c0.064,0,0.139-0.021,0.225-0.064c0.085-0.042,0.404-0.298,0.96-0.768   l1.088-0.896c0.192-0.17,0.309-0.341,0.352-0.512c0.043-0.17,0.069-0.522,0.08-1.056s0.059-1.237,0.145-2.112   c0.085-0.875,0.128-1.466,0.128-1.776c0-0.309-0.08-0.539-0.24-0.688c-0.16-0.149-0.405-0.224-0.736-0.224s-0.65,0.357-0.96,1.072   s-0.464,1.168-0.464,1.36s0.097,0.352,0.288,0.48c0.683,0.491,1.024,0.923,1.024,1.296c0,0.374-0.06,0.619-0.177,0.736   s-0.33,0.203-0.64,0.256s-0.587,0.144-0.832,0.272s-0.384,0.267-0.416,0.416c-0.032,0.149-0.048,0.768-0.048,1.856   C7.543,15.005,7.617,15.123,7.767,15.123z M10.167,21.586c0.085,0,0.202,0.043,0.352,0.129c0.427,0.234,1.28,0.438,2.561,0.607   c0.384,0.043,0.607,0.139,0.672,0.288s0.096,0.288,0.096,0.416s-0.139,0.278-0.416,0.448c-0.726,0.469-1.227,0.863-1.504,1.184   c-0.128,0.149-0.304,0.225-0.527,0.225c-0.225,0-0.55-0.268-0.977-0.801S9.783,23,9.783,22.435S9.911,21.586,10.167,21.586z    M24.951,6.995c0,0.213-0.123,0.443-0.368,0.688c-0.245,0.246-0.704,1.04-1.376,2.384c-0.672,1.344-1.254,2.347-1.744,3.008   c-0.063,0.107-0.096,0.229-0.096,0.368c0,0.139,0.074,0.229,0.224,0.272c0.427,0.085,0.901,0.251,1.424,0.496   c0.522,0.246,0.784,0.47,0.784,0.672c0,0.203-0.144,0.384-0.432,0.544c-0.288,0.159-0.619,0.651-0.992,1.472   c-0.373,0.822-0.56,1.478-0.56,1.969c0,0.362-0.246,0.555-0.736,0.575c-0.981,0.021-1.899,0.091-2.752,0.208   c-0.854,0.117-1.382,0.225-1.584,0.32c-0.203,0.096-0.379,0.145-0.528,0.145s-0.288-0.102-0.416-0.305s-0.453-0.875-0.976-2.016   c-0.523-1.142-0.784-1.898-0.784-2.272c0-0.373,0.053-0.619,0.16-0.736c0.106-0.117,0.347-0.219,0.72-0.304   c0.373-0.085,0.997-0.234,1.872-0.448c0.874-0.213,1.664-0.352,2.368-0.416c0.234-0.021,0.352-0.128,0.352-0.32   c0-0.192-0.267-0.485-0.8-0.88c-0.533-0.395-0.8-0.656-0.8-0.784c0-0.128,0.139-0.192,0.416-0.192h0.288   c0.874,0,1.546-0.56,2.016-1.68c0.469-1.12,0.704-1.861,0.704-2.224c0-0.555-0.336-0.832-1.008-0.832s-0.977,0.203-0.912,0.608   c0.042,0.213,0.063,0.395,0.063,0.544c0,0.427-0.234,0.864-0.703,1.312c-0.662,0.619-1.633,1.803-2.912,3.552   c-0.406,0.555-0.907,0.832-1.504,0.832c-0.641,0-0.96-0.085-0.96-0.256c0-0.17,0.128-0.384,0.384-0.64   c1.023-0.96,1.813-1.925,2.368-2.896c0.554-0.971,0.832-1.568,0.832-1.792c0-0.224-0.075-0.336-0.225-0.336   s-0.352,0.07-0.607,0.208c-0.257,0.139-0.486,0.208-0.688,0.208c-0.203,0-0.368-0.165-0.496-0.496   c-0.128-0.331-0.191-0.597-0.191-0.8c0-0.202,0.159-0.325,0.479-0.368c1.194-0.192,2.368-0.421,3.521-0.688   c1.151-0.267,2.048-0.4,2.688-0.4s1.381,0.198,2.224,0.592C24.529,6.286,24.951,6.653,24.951,6.995z M19.703,22.194   c0,0.257-0.277,0.694-0.832,1.312c-0.555,0.619-1.029,0.929-1.424,0.929c-0.396,0-0.773-0.319-1.137-0.96   c-0.362-0.641-0.544-1.072-0.544-1.296s0.069-0.337,0.208-0.337s0.357,0.044,0.656,0.129c0.299,0.086,0.672,0.128,1.12,0.128   s0.805-0.037,1.072-0.112c0.267-0.074,0.442-0.111,0.527-0.111C19.586,21.875,19.703,21.981,19.703,22.194z M17.847,17.842   c0.427,0,0.869-0.116,1.328-0.352c0.459-0.234,0.688-0.768,0.688-1.6c0-0.597-0.277-0.896-0.832-0.896   c-0.256,0-0.608,0.053-1.057,0.16c-0.447,0.107-0.763,0.24-0.943,0.4c-0.182,0.16-0.272,0.422-0.272,0.783   C16.759,17.342,17.121,17.842,17.847,17.842z M26.967,23.763c0,0.171-0.075,0.437-0.224,0.8l-0.48,1.216   c-0.191,0.47-0.331,0.747-0.416,0.832s-0.208,0.128-0.368,0.128c-0.159,0-0.304-0.117-0.432-0.352   c-0.277-0.533-0.747-1.26-1.408-2.176c-0.661-0.918-1.157-1.541-1.487-1.873c-0.331-0.33-0.496-0.602-0.496-0.815   c0-0.213,0.122-0.319,0.368-0.319c0.244,0,0.986,0.224,2.224,0.672c1.237,0.447,2,0.795,2.288,1.039   C26.823,23.16,26.967,23.442,26.967,23.763z" stroke-width="1"/>
</g>
</svg>