<svg xmlns="http://www.w3.org/2000/svg" xmlns:xlink="http://www.w3.org/1999/xlink" version="1.1" id="图层_1" x="0px" y="0px" width="27.333999633789062" height="24.48699951171875" viewBox="0.3720003366470337 2.937000036239624 27.333999633789062 24.48699951171875" style="enable-background:new 0 0 30 30;" xml:space="preserve">
  <g>
    <g>
      <path style="fill:#0000FF;" d="M9.414,3.437c0.234,0,0.629,0.182,1.184,0.544c0.555,0.363,0.88,0.603,0.977,0.72&#13;&#10;&#9;&#9;c0.096,0.118,0.144,0.262,0.144,0.432c0,0.171-0.102,0.325-0.304,0.464c-0.203,0.139-0.427,0.384-0.672,0.736&#13;&#10;&#9;&#9;c-0.246,0.352-0.528,0.944-0.849,1.776c-0.319,0.832-0.667,1.515-1.039,2.048c-0.374,0.534-0.561,1.045-0.561,1.536&#13;&#10;&#9;&#9;s0.139,0.843,0.416,1.056c0.555,0.427,0.832,0.726,0.832,0.896c0,0.171-0.08,0.336-0.24,0.496s-0.239,0.507-0.239,1.04l0.096,1.44&#13;&#10;&#9;&#9;c0,1.045-0.086,2.059-0.256,3.039c-0.171,0.982-0.256,2.021-0.256,3.121c0,1.099,0.042,1.871,0.128,2.319&#13;&#10;&#9;&#9;c0.085,0.448,0.128,0.8,0.128,1.056s-0.102,0.448-0.305,0.576c-0.202,0.129-0.475,0.192-0.815,0.192&#13;&#10;&#9;&#9;c-0.342,0-0.571-0.069-0.688-0.208s-0.182-0.299-0.191-0.48c-0.012-0.182-0.017-0.741-0.017-1.68l0.097-3.68&#13;&#10;&#9;&#9;c0-0.704-0.054-1.701-0.16-2.992c-0.107-1.291-0.188-1.995-0.24-2.112c-0.054-0.117-0.139-0.176-0.256-0.176&#13;&#10;&#9;&#9;s-0.251,0.075-0.4,0.224c-0.768,0.768-1.648,1.461-2.64,2.08c-0.992,0.619-1.627,0.928-1.904,0.928&#13;&#10;&#9;&#9;c-0.341,0-0.512-0.148-0.512-0.447c0-0.043,0.01-0.096,0.032-0.16c0.021-0.064,0.549-0.73,1.584-2c1.035-1.269,1.701-2.075,2-2.416&#13;&#10;&#9;&#9;c0.64-0.704,1.387-1.898,2.24-3.584c0.854-1.685,1.611-3.754,2.272-6.208C9.083,3.629,9.222,3.437,9.414,3.437z M27.206,22.604&#13;&#10;&#9;&#9;c0,0.704-0.192,1.056-0.576,1.056c-0.171,0-0.395-0.053-0.672-0.16c-1.046-0.404-2.048-0.607-3.008-0.607&#13;&#10;&#9;&#9;c-0.299,0-0.592,0.021-0.88,0.064s-1.062,0.123-2.32,0.24s-2.245,0.197-2.96,0.239c-0.715,0.043-1.675,0.155-2.88,0.336&#13;&#10;&#9;&#9;c-1.206,0.182-1.915,0.32-2.128,0.416c-0.214,0.097-0.39,0.144-0.528,0.144s-0.256-0.037-0.352-0.111&#13;&#10;&#9;&#9;c-0.097-0.075-0.155-0.145-0.177-0.208s-0.031-0.229-0.031-0.496s-0.054-0.522-0.16-0.769c-0.107-0.244-0.16-0.432-0.16-0.56&#13;&#10;&#9;&#9;s0.059-0.192,0.176-0.192s0.219,0.017,0.305,0.049c0.085,0.031,0.224,0.048,0.416,0.048c0.426,0,1.552-0.134,3.376-0.399&#13;&#10;&#9;&#9;c1.823-0.268,3.327-0.555,4.512-0.865c1.184-0.309,2.256-0.463,3.216-0.463c0.213,0,0.587-0.043,1.12-0.129&#13;&#10;&#9;&#9;c0.533-0.084,0.928-0.164,1.184-0.24c0.256-0.074,0.501-0.111,0.736-0.111c0.405,0,0.656,0.145,0.752,0.432&#13;&#10;&#9;&#9;c0.096,0.288,0.347,0.71,0.752,1.264C27.11,21.837,27.206,22.178,27.206,22.604z M20.838,7.373c0.96,0,2.032,0.246,3.216,0.736&#13;&#10;&#9;&#9;C25.238,8.6,25.83,9.048,25.83,9.453c0,0.192-0.096,0.363-0.288,0.512c-0.299,0.256-0.523,0.715-0.672,1.376&#13;&#10;&#9;&#9;c-0.086,0.341-0.256,0.8-0.512,1.376c-0.406,0.811-0.651,1.573-0.736,2.288c-0.086,0.715-0.294,1.536-0.624,2.464&#13;&#10;&#9;&#9;c-0.331,0.928-0.544,1.473-0.64,1.632c-0.097,0.16-0.192,0.24-0.288,0.24c-0.097,0-0.24-0.075-0.433-0.224&#13;&#10;&#9;&#9;c-1.216-0.896-1.941-1.355-2.176-1.377l-0.224-0.031c-0.428,0-0.992,0.08-1.696,0.24s-1.168,0.314-1.392,0.463&#13;&#10;&#9;&#9;c-0.225,0.15-0.47,0.24-0.736,0.272s-0.485,0.091-0.656,0.177c-0.171,0.085-0.277,0.127-0.319,0.127&#13;&#10;&#9;&#9;c-0.235,0-0.396-0.197-0.48-0.592c-0.086-0.395-0.277-0.965-0.576-1.712c-0.299-0.747-0.581-1.648-0.848-2.704&#13;&#10;&#9;&#9;c-0.268-1.056-0.427-1.898-0.48-2.528c-0.053-0.629-0.165-1.104-0.336-1.424c-0.063-0.128-0.096-0.234-0.096-0.32&#13;&#10;&#9;&#9;c0-0.298,0.181-0.458,0.544-0.48c0.362-0.021,0.805-0.08,1.328-0.176c0.522-0.096,0.88-0.197,1.072-0.304&#13;&#10;&#9;&#9;c0.682-0.32,1.712-0.629,3.088-0.928S20.091,7.373,20.838,7.373z M21.83,11.98c0-1.365-0.219-2.229-0.656-2.592&#13;&#10;&#9;&#9;c-0.438-0.362-0.88-0.544-1.328-0.544c-0.447,0-0.843,0.059-1.184,0.176c-0.342,0.118-0.918,0.352-1.729,0.704&#13;&#10;&#9;&#9;s-1.291,0.576-1.439,0.672c-0.149,0.096-0.268,0.235-0.353,0.416c-0.085,0.182-0.128,0.368-0.128,0.56&#13;&#10;&#9;&#9;c0,0.278,0.117,0.416,0.353,0.416c0.234,0,0.544-0.053,0.928-0.16s0.816-0.16,1.296-0.16c0.48,0,0.827-0.026,1.04-0.08&#13;&#10;&#9;&#9;c0.213-0.053,0.421-0.08,0.624-0.08c0.202,0,0.347,0.128,0.432,0.384c0.086,0.256,0.129,0.469,0.129,0.64&#13;&#10;&#9;&#9;c0,0.171-0.07,0.31-0.208,0.416c-0.14,0.107-0.47,0.272-0.992,0.496c-0.523,0.224-1.067,0.406-1.632,0.544&#13;&#10;&#9;&#9;c-0.565,0.139-1.052,0.336-1.456,0.592c-0.406,0.256-0.608,0.576-0.608,0.96c0,0.576,0.288,0.864,0.864,0.864&#13;&#10;&#9;&#9;c0.106,0,0.267-0.027,0.479-0.08s0.629-0.145,1.248-0.272s1.062-0.192,1.328-0.192s0.433,0.139,0.496,0.416&#13;&#10;&#9;&#9;c0.085,0.471,0.245,0.785,0.48,0.944c0.234,0.16,0.432,0.24,0.592,0.24s0.314-0.133,0.464-0.399&#13;&#10;&#9;&#9;c0.148-0.268,0.347-0.929,0.592-1.985C21.707,13.821,21.83,12.855,21.83,11.98z" stroke-width="1"/>
    </g>
    <g/>
    <g/>
    <g/>
    <g/>
    <g/>
    <g/>
    <g/>
    <g/>
    <g/>
    <g/>
    <g/>
    <g/>
    <g/>
    <g/>
    <g/>
  </g>
</svg>