<svg xmlns="http://www.w3.org/2000/svg" xmlns:xlink="http://www.w3.org/1999/xlink" version="1.1" id="图层_1" x="0px" y="0px" width="23.52700424194336" height="27.910995483398438" viewBox="0.7419965267181396 1.5989999771118164 23.52700424194336 27.910995483398438" enable-background="new 0 0 30 30" xml:space="preserve">
<g>
	<path fill="#0000FF" d="M12.343,8.21c0-0.747,0.256-1.12,0.769-1.12c0.191,0,0.564,0.07,1.12,0.208   c0.554,0.139,0.917,0.283,1.088,0.432c0.17,0.149,0.256,0.384,0.256,0.704l-0.032,0.608c0,0.448,0.224,0.64,0.672,0.576   c0.981-0.149,1.68-0.213,2.096-0.192c0.416,0.021,0.699,0.032,0.849,0.032c1.173,0,2.026-0.064,2.56-0.192   c0.149-0.021,0.331-0.032,0.544-0.032s0.373,0.102,0.48,0.304c0.106,0.203,0.304,0.677,0.592,1.424   c0.288,0.747,0.432,1.206,0.432,1.376c0,0.448-0.159,0.672-0.479,0.672c-0.128,0-0.288-0.042-0.48-0.128   c-0.96-0.405-2.256-0.608-3.888-0.608s-2.613,0.064-2.944,0.192c-0.331,0.128-0.507,0.395-0.527,0.8   c-0.021,0.469-0.097,1.173-0.225,2.112c-0.256,1.515-0.384,2.913-0.384,4.192c0,0.385,0.011,0.721,0.032,1.008   c0.021,0.289,0.032,0.705,0.032,1.248c0,0.545-0.027,1.035-0.08,1.473c-0.054,0.438-0.08,0.853-0.08,1.248   c0,0.395,0.042,0.836,0.128,1.328c0.106,0.469,0.16,1.066,0.16,1.791s-0.075,1.131-0.225,1.217   c-0.149,0.084-0.411,0.127-0.783,0.127c-0.374,0-0.63-0.037-0.769-0.111s-0.208-0.24-0.208-0.496l0.096-1.279   c0.021-0.534,0.032-1.403,0.032-2.608s-0.037-2.048-0.111-2.528c-0.075-0.48-0.112-1.349-0.112-2.607s-0.107-2.604-0.32-4.032   c-0.043-0.277-0.085-0.747-0.128-1.408c-0.021-0.512-0.192-0.725-0.512-0.64c-0.704,0.171-1.313,0.256-1.824,0.256   s-0.955-0.021-1.328-0.064c-0.373-0.042-0.854-0.064-1.439-0.064c-0.587,0-1.28,0.117-2.081,0.352   c-0.8,0.235-1.424,0.512-1.872,0.832c-0.448,0.32-0.731,0.48-0.848,0.48c-0.118,0-0.208-0.042-0.272-0.128   c-0.064-0.085-0.262-0.448-0.592-1.088c-0.331-0.64-0.496-1.061-0.496-1.264c0-0.202,0.107-0.346,0.32-0.432   c0.213-0.085,0.714-0.155,1.504-0.208c0.789-0.053,1.616-0.149,2.48-0.288c0.864-0.139,2.032-0.373,3.504-0.704   c1.472-0.331,2.347-0.517,2.624-0.56c0.277-0.042,0.459-0.133,0.544-0.272c0.085-0.139,0.128-0.304,0.128-0.496V8.21z    M17.559,2.099c0.149,0,0.299,0.048,0.448,0.144c0.149,0.096,0.256,0.277,0.32,0.544c0.063,0.267,0.154,0.518,0.271,0.752   c0.117,0.235,0.177,0.395,0.177,0.48c0,0.277-0.16,0.438-0.48,0.48c-2.944,0.341-4.944,0.662-6,0.96   c-1.056,0.299-1.712,0.672-1.968,1.12c-0.107,0.192-0.246,0.352-0.416,0.48C9.74,7.187,9.138,7.32,8.103,7.458   c-1.035,0.139-1.754,0.208-2.16,0.208s-0.608-0.09-0.608-0.272c0-0.181,0.357-0.501,1.072-0.96   c0.714-0.458,1.418-0.811,2.111-1.056c0.693-0.245,1.393-0.592,2.097-1.04c0.811-0.512,2.655-1.12,5.536-1.824   c0.725-0.17,1.125-0.283,1.199-0.336C17.426,2.125,17.495,2.099,17.559,2.099z" stroke-width="1"/>
</g>
</svg>