<svg xmlns="http://www.w3.org/2000/svg" xmlns:xlink="http://www.w3.org/1999/xlink" version="1.1" id="图层_1" x="0px" y="0px" width="22.37700080871582" height="23.85000228881836" viewBox="2.69100022315979 4.094000339508057 22.37700080871582 23.85000228881836" enable-background="new 0 0 30 30" xml:space="preserve">
<g>
	<path fill="#0000FF" d="M9.495,5.139c0.555,0,1.061,0.053,1.52,0.16c0.459,0.107,0.688,0.267,0.688,0.48   c0,0.278-0.235,0.651-0.704,1.12c-0.47,0.47-0.821,0.998-1.056,1.584c-0.235,0.587-0.353,1.12-0.353,1.6s0.064,0.88,0.192,1.2   c0.576,1.579,0.864,2.912,0.864,4c0,0.341-0.038,0.719-0.112,1.135c-0.075,0.416-0.208,0.625-0.4,0.625   c-0.043,0-0.106-0.011-0.191-0.032c-0.32-0.085-0.79-0.171-1.408-0.257c-0.79-0.127-1.44-0.314-1.952-0.56s-0.79-0.368-0.832-0.368   c-0.277,0-0.416,0.928-0.416,2.784c0,0.981-0.091,2.069-0.272,3.265c-0.182,1.194-0.272,2.106-0.272,2.735   c0,0.63-0.038,1.013-0.112,1.152C4.604,25.9,4.46,25.971,4.247,25.971c-0.406,0-0.683-0.059-0.832-0.176   c-0.149-0.117-0.224-0.438-0.224-0.961c0-0.522,0.048-1.439,0.144-2.752c0.096-1.312,0.144-2.629,0.144-3.951l-0.032-2.368   l0.096-2.464l-0.064-3.072c0-1.515,0.016-2.506,0.048-2.976c0.032-0.469,0.229-0.784,0.592-0.944c0.362-0.16,0.736-0.24,1.12-0.24   c0.96,0,1.755-0.154,2.384-0.464C8.252,5.293,8.876,5.139,9.495,5.139z M8.727,13.811c0-0.17-0.048-0.517-0.144-1.04   c-0.096-0.522-0.214-0.992-0.352-1.408c-0.14-0.416-0.208-0.853-0.208-1.312c0-0.458,0.053-0.848,0.159-1.168   c0.106-0.32,0.16-0.597,0.16-0.832c0-0.682-0.133-1.024-0.399-1.024c-0.268,0-0.624,0.149-1.072,0.448S6.188,8.072,6.167,8.371   c-0.107,1.045-0.24,1.925-0.4,2.64c-0.16,0.715-0.24,1.312-0.24,1.792s0.021,0.832,0.064,1.056   c0.042,0.224,0.101,0.379,0.176,0.464c0.074,0.085,0.288,0.165,0.64,0.24c0.352,0.075,0.698,0.112,1.04,0.112   C8.3,14.674,8.727,14.387,8.727,13.811z M23.255,12.595c0,0.341,0.043,0.907,0.128,1.696c0.085,0.79,0.139,1.717,0.16,2.784   c0.043,1.408,0.133,2.406,0.272,2.992c0.138,0.587,0.208,1.109,0.208,1.568s0.058,1.039,0.176,1.744   c0.117,0.703,0.176,1.301,0.176,1.791c0,0.491,0.032,0.854,0.096,1.088c0.064,0.235,0.097,0.416,0.097,0.545   c0,0.426-0.172,0.641-0.513,0.641c-0.191,0-0.667-0.15-1.424-0.449c-0.758-0.299-1.253-0.512-1.488-0.64   c-1.109-0.556-2.159-1.035-3.151-1.44s-1.664-0.832-2.017-1.279c-0.352-0.448-0.527-0.73-0.527-0.848s0.053-0.177,0.16-0.177   c0.106,0,0.341,0.075,0.703,0.224c0.363,0.15,0.875,0.299,1.536,0.449c0.661,0.148,1.27,0.223,1.824,0.223s0.977-0.164,1.264-0.495   c0.288-0.331,0.433-0.891,0.433-1.681c0-0.789-0.075-1.77-0.225-2.943s-0.239-2.032-0.271-2.576s-0.048-1.872-0.048-3.984   c0-2.112-0.038-3.472-0.112-4.08c-0.075-0.608-0.267-1.051-0.576-1.328c-0.31-0.277-0.64-0.416-0.992-0.416   c-0.352,0-0.735,0.102-1.151,0.304s-0.736,0.395-0.96,0.576c-0.225,0.182-0.396,0.475-0.513,0.88s-0.176,0.875-0.176,1.408   c0,0.192,0.106,0.288,0.32,0.288l2.048-0.128c0.469,0,0.704,0.203,0.704,0.608c0,0.448-0.032,0.763-0.096,0.944   c-0.064,0.182-0.272,0.374-0.624,0.576c-0.353,0.203-0.784,0.4-1.296,0.592l-1.376,0.48c-0.129,0.043-0.214,0.128-0.257,0.256   l-0.479,1.536c-0.043,0.085-0.064,0.16-0.064,0.224s0.043,0.096,0.128,0.096s0.48-0.09,1.185-0.272   c0.704-0.181,1.2-0.272,1.488-0.272c0.287,0,0.532,0.107,0.735,0.32c0.203,0.213,0.305,0.491,0.305,0.832   c0,0.341-0.049,0.571-0.145,0.688c-0.096,0.118-0.4,0.22-0.912,0.304c-0.512,0.086-0.997,0.214-1.456,0.385   c-0.459,0.17-1.019,0.453-1.68,0.848s-1.04,0.646-1.136,0.752c-0.097,0.107-0.208,0.357-0.336,0.752   c-0.129,0.395-0.192,0.758-0.192,1.088c0,0.331,0.059,0.624,0.176,0.88c0.117,0.257,0.176,0.518,0.176,0.784   c0,0.268-0.085,0.496-0.256,0.688c-0.171,0.192-0.624,0.539-1.359,1.041c-0.736,0.501-1.563,0.976-2.48,1.424   c-0.917,0.447-1.579,0.672-1.984,0.672c-0.405,0-0.607-0.054-0.607-0.16c0-0.171,0.832-1.131,2.496-2.88l0.8-0.896   c0.746-0.789,1.376-1.803,1.888-3.041c0.513-1.236,1.019-2.938,1.521-5.104c0.501-2.165,0.752-3.856,0.752-5.072L14.263,6.61   c0-0.597,0.48-0.96,1.44-1.088c0.427-0.064,0.848-0.165,1.264-0.304s1.131-0.277,2.145-0.416c1.013-0.139,1.732-0.208,2.159-0.208   s0.939,0.101,1.536,0.304c0.598,0.203,0.955,0.363,1.072,0.48c0.117,0.118,0.176,0.256,0.176,0.416s-0.021,0.326-0.063,0.496   c-0.256,1.045-0.443,2.224-0.561,3.536S23.255,12.062,23.255,12.595z" stroke-width="1"/>
</g>
</svg>