<svg xmlns="http://www.w3.org/2000/svg" xmlns:xlink="http://www.w3.org/1999/xlink" version="1.1" id="图层_1" x="0px" y="0px" width="29.416000366210938" height="23.68600082397461" viewBox="1.2189977169036865 1.8859992027282715 29.416000366210938 23.68600082397461" enable-background="new 0 0 30 30" xml:space="preserve">
<g>
	<path fill="#0000FF" d="M19.191,11.25c0,0.107,0.116,0.267,0.352,0.48c0.234,0.213,0.581,0.598,1.04,1.152   c0.458,0.555,1.211,1.168,2.256,1.84c1.045,0.672,1.909,1.146,2.592,1.424c2.347,0.939,3.718,1.6,4.112,1.984   c0.395,0.384,0.592,0.688,0.592,0.912c0,0.224-0.187,0.427-0.56,0.607c-0.374,0.182-0.784,0.271-1.232,0.271   c-0.854,0-2.432-0.34-4.735-1.023c-0.192-0.043-0.348-0.064-0.465-0.064s-0.229,0.107-0.336,0.32   c-0.427,0.832-0.875,1.621-1.344,2.368c-0.171,0.256-0.331,0.917-0.479,1.983c-0.086,0.598-0.3,0.896-0.641,0.896   c-2.219,0.064-3.51,0.213-3.872,0.448c-0.213,0.149-0.384,0.224-0.512,0.224c-0.235,0-0.741-0.459-1.52-1.375   c-0.779-0.918-1.468-2.315-2.064-4.193c-0.064-0.191-0.128-0.298-0.192-0.319c-0.063-0.021-0.293-0.032-0.688-0.032   c-0.396,0-0.784-0.148-1.168-0.447c-0.086-0.064-0.176-0.097-0.272-0.097c-0.096,0-0.304,0.128-0.624,0.384   c-0.319,0.256-0.768,0.512-1.344,0.769c-0.342,0.149-0.843,0.464-1.504,0.944c-0.662,0.479-1.259,0.837-1.792,1.071   c-0.406,0.192-0.704,0.405-0.896,0.64c-0.406,0.449-0.704,0.672-0.896,0.672s-0.454-0.176-0.784-0.527   c-0.331-0.352-0.496-0.619-0.496-0.8s0.117-0.347,0.352-0.496c0.64-0.384,1.029-0.688,1.168-0.912s0.208-0.709,0.208-1.456   c0-1.088-0.085-2.096-0.256-3.023c-0.171-0.929-0.256-1.504-0.256-1.729s0.042-0.384,0.128-0.48   c0.085-0.096,0.288-0.144,0.608-0.144c0.32,0,0.586,0.027,0.8,0.08c0.213,0.054,0.362,0.187,0.448,0.4   c0.085,0.213,0.139,0.406,0.16,0.576c0.021,0.171,0.032,0.518,0.032,1.041c0,0.522,0.053,1.131,0.16,1.823   c0.106,0.694,0.187,1.099,0.24,1.216c0.053,0.117,0.117,0.176,0.192,0.176c0.074,0,0.218-0.059,0.432-0.176   s0.352-0.229,0.416-0.336c0.064-0.106,0.112-0.362,0.144-0.768c0.032-0.405,0.048-0.912,0.048-1.52c0-0.608-0.043-1.35-0.128-2.225   c-0.086-0.875-0.144-1.344-0.176-1.408c-0.032-0.064-0.091-0.117-0.176-0.16c-0.32-0.106-0.886-0.656-1.696-1.648   C3.756,9.603,3.351,8.286,3.351,6.643c0-0.405,0.053-0.672,0.16-0.8C3.618,5.714,3.943,5.57,4.487,5.411   c0.544-0.16,1.125-0.277,1.744-0.352c0.619-0.075,1.178-0.17,1.68-0.288C8.412,4.653,8.77,4.595,8.983,4.595   c0.597,0,1.359,0.208,2.287,0.624c0.929,0.416,1.393,0.768,1.393,1.056s-0.171,0.635-0.512,1.04   c-0.96,1.152-1.558,1.894-1.792,2.224c-0.235,0.331-0.428,0.763-0.576,1.296c-0.086,0.256-0.353,0.459-0.8,0.608   c-0.214,0.085-0.38,0.379-0.496,0.88c-0.118,0.501-0.177,0.811-0.177,0.928c0,0.118,0.134,0.155,0.4,0.112   c0.267-0.042,0.549-0.069,0.848-0.08s0.533-0.053,0.704-0.128c0.171-0.074,0.325-0.112,0.464-0.112s0.251,0.118,0.337,0.352   c0.085,0.235,0.128,0.496,0.128,0.784c0,0.288-0.251,0.517-0.752,0.688c-0.502,0.171-0.966,0.421-1.393,0.752   c-0.427,0.33-0.64,0.613-0.64,0.848c0,0.555,0.106,0.832,0.319,0.832c0.149,0,0.433-0.086,0.849-0.256   c0.416-0.171,0.656-0.256,0.72-0.256c0.171,0,0.309,0.176,0.416,0.527c0.106,0.352,0.234,0.527,0.384,0.527   s0.395-0.138,0.736-0.415c0.341-0.277,0.944-0.987,1.808-2.128c0.864-1.141,1.445-1.925,1.744-2.352   c0.299-0.426,0.448-0.709,0.448-0.848s-0.102-0.299-0.304-0.48c-0.203-0.181-0.353-0.288-0.448-0.32   c-0.096-0.032-0.294-0.048-0.592-0.048c-0.832,0-1.408,0.192-1.729,0.576c-0.213,0.256-0.518,0.384-0.912,0.384   s-0.646-0.048-0.752-0.144c-0.106-0.096-0.16-0.261-0.16-0.496c0-0.234,0.129-0.522,0.385-0.864c1.194-1.6,2.304-3.349,3.328-5.248   c0.66-1.173,1.146-1.979,1.455-2.416c0.31-0.437,0.571-0.656,0.784-0.656s0.485,0.149,0.816,0.448   c0.33,0.299,0.624,0.704,0.88,1.216c0.149,0.256,0.384,0.416,0.704,0.48c0.704,0.128,1.301,0.299,1.792,0.512   c0.49,0.213,0.821,0.357,0.992,0.432c0.17,0.075,0.256,0.197,0.256,0.368c0,0.171-0.197,0.432-0.592,0.784   c-0.396,0.352-0.918,1.131-1.568,2.336C19.516,10.168,19.191,10.931,19.191,11.25z M6.775,9.619c0.299,0,0.693-0.117,1.184-0.352   c0.49-0.234,0.736-0.789,0.736-1.664c0-0.981-0.277-1.472-0.832-1.472c-0.277,0-0.63,0.16-1.056,0.48   c-0.427,0.32-0.64,0.811-0.64,1.472c0,0.662,0.042,1.083,0.128,1.264C6.38,9.528,6.54,9.619,6.775,9.619z M21.783,16.818   c0-0.256-0.118-0.576-0.353-0.96s-0.789-0.826-1.664-1.328s-1.413-0.827-1.615-0.976c-0.203-0.149-0.353-0.224-0.448-0.224   s-0.294,0.16-0.592,0.48l-0.96,1.088c-0.342,0.384-0.641,0.789-0.896,1.217c-0.256,0.426-0.384,0.688-0.384,0.783   s0.106,0.145,0.32,0.145c0.213,0,0.8-0.097,1.76-0.289c0.96-0.191,1.706-0.287,2.24-0.287c0.532,0,1.258,0.191,2.176,0.576   c0.085,0.043,0.176,0.063,0.271,0.063C21.735,17.106,21.783,17.011,21.783,16.818z M16.247,21.971c0.277,0,0.778-0.059,1.504-0.176   c0.725-0.117,1.179-0.433,1.36-0.944c0.181-0.513,0.271-0.938,0.271-1.28c0-0.832-0.427-1.248-1.28-1.248   c-0.746,0-1.407,0.246-1.983,0.736s-0.864,1.035-0.864,1.632c0,0.171,0.048,0.427,0.145,0.769   C15.495,21.8,15.777,21.971,16.247,21.971z M17.047,9.811c0.149,0,0.389-0.405,0.72-1.216c0.331-0.811,0.496-1.323,0.496-1.536   c0-0.213-0.085-0.368-0.256-0.464c-0.171-0.096-0.379-0.144-0.624-0.144S16.77,6.75,16.279,7.347   c-0.491,0.597-0.736,1.024-0.736,1.28s0.229,0.518,0.688,0.784C16.689,9.678,16.962,9.811,17.047,9.811z" stroke-width="1"/>
</g>
</svg>