<svg xmlns="http://www.w3.org/2000/svg" xmlns:xlink="http://www.w3.org/1999/xlink" version="1.1" id="图层_1" x="0px" y="0px" width="22.501998901367188" height="26.793001174926758" viewBox="3.9089999198913574 1.7580015659332275 22.501998901367188 26.793001174926758" enable-background="new 0 0 30 30" xml:space="preserve">
<g>
	<path fill="#0000FF" d="M12.407,3.026c0.341,0,0.512,0.203,0.512,0.608c0,0.832-0.091,1.328-0.271,1.488   c-0.182,0.16-0.688,0.496-1.521,1.008c-0.171,0.085-0.277,0.288-0.32,0.608c-0.043,0.32-0.063,0.491-0.063,0.512   c0,0.149,0.085,0.224,0.256,0.224l0.832-0.096c0.171,0,0.282,0.08,0.336,0.24c0.053,0.16,0.08,0.523,0.08,1.088   c0,0.565-0.075,0.917-0.224,1.056c-0.15,0.139-0.684,0.475-1.601,1.008c-0.128,0.085-0.191,0.32-0.191,0.704   c0,0.192,0.048,0.288,0.144,0.288s0.352-0.08,0.768-0.24s0.721-0.24,0.912-0.24c0.192,0,0.288,0.128,0.288,0.384   c0,0.555-0.544,1.147-1.632,1.776c-1.088,0.629-1.915,1.136-2.479,1.52c-0.566,0.384-1.115,0.854-1.648,1.409   c-0.277,0.299-0.56,0.447-0.848,0.447s-0.582-0.224-0.88-0.672c-0.299-0.447-0.448-0.773-0.448-0.976   c0-0.202,0.138-0.368,0.416-0.496c0.64-0.298,1.269-0.656,1.888-1.072c0.618-0.416,0.976-0.714,1.072-0.896   c0.096-0.181,0.144-0.4,0.144-0.656c0-0.256-0.063-0.384-0.191-0.384c-0.32,0-0.565,0.021-0.736,0.064   c-0.171,0.043-0.299,0.064-0.384,0.064c-0.235,0-0.374-0.106-0.416-0.32c-0.107-0.491-0.208-0.896-0.304-1.216   c-0.096-0.32-0.144-0.544-0.144-0.672S5.82,9.341,5.959,9.234c0.139-0.106,0.373-0.16,0.704-0.16c0.331,0,0.645-0.064,0.944-0.192   c0.298-0.128,0.501-0.24,0.607-0.336c0.106-0.096,0.16-0.325,0.16-0.688c0-0.362-0.037-0.581-0.112-0.656   C8.188,7.128,7.799,7.09,7.095,7.09c-0.342,0-0.534-0.074-0.576-0.224L6.071,5.683C5.836,5.021,5.719,4.669,5.719,4.626   c0-0.192,0.069-0.331,0.208-0.416c0.139-0.085,0.389-0.128,0.752-0.128c0.469,0,1.13-0.069,1.984-0.208   c0.853-0.139,1.45-0.272,1.792-0.4C11.329,3.176,11.98,3.026,12.407,3.026z M23.959,16.371c0.213,0,0.48,0.245,0.8,0.735   c0.32,0.491,0.512,1.35,0.576,2.576c0.064,1.228,0.176,2.613,0.336,4.159c0.16,1.547,0.24,2.342,0.24,2.385   c0,0.404-0.096,0.725-0.288,0.959c-0.192,0.236-0.475,0.354-0.848,0.354c-0.374,0-1.232,0.084-2.576,0.256   c-1.344,0.17-2.656,0.256-3.937,0.256c-1.279,0-2.619-0.049-4.016-0.145c-1.397-0.096-2.182-0.16-2.353-0.191   c-0.171-0.033-0.555-0.268-1.151-0.704c-0.598-0.438-1.131-0.912-1.601-1.425c-0.469-0.512-0.8-1.002-0.991-1.471   c-0.192-0.47-0.288-0.886-0.288-1.248c0-0.363,0.031-1.078,0.096-2.145s0.096-1.973,0.096-2.721c0-0.746,0.097-1.285,0.288-1.615   c0.192-0.33,0.464-0.507,0.816-0.528c0.352-0.021,0.709-0.106,1.072-0.256c2.73-1.152,4.788-1.728,6.176-1.728   c0.704,0,1.37,0.128,2,0.384c0.629,0.256,1.013,0.438,1.151,0.544s0.208,0.224,0.208,0.352c0,0.128-0.074,0.294-0.224,0.496   c-0.149,0.203-0.4,0.646-0.752,1.328c-0.352,0.684-0.619,1.259-0.8,1.729c-0.182,0.469-0.342,0.746-0.48,0.832   c-0.139,0.085-0.399,0.127-0.784,0.127c-0.854,0-1.76,0.182-2.72,0.545c-0.491,0.191-0.955,0.33-1.392,0.416   c-0.438,0.085-1.308,0.203-2.608,0.352C9.794,21,9.655,21.086,9.591,21.234c-0.063,0.149-0.096,0.544-0.096,1.184   c0,0.641,0.176,1.131,0.528,1.473c0.352,0.341,0.917,0.607,1.695,0.8s2.08,0.288,3.904,0.288s3.259-0.048,4.304-0.145   c1.045-0.096,1.829-0.271,2.353-0.527c0.522-0.256,0.837-0.661,0.943-1.217c0.106-0.554,0.203-1.188,0.288-1.903   c0.085-0.714,0.128-2.075,0.128-4.08C23.639,16.616,23.745,16.371,23.959,16.371z M11.895,17.49c0-0.49-0.063-0.736-0.191-0.736   s-0.299,0.055-0.512,0.16c-0.214,0.107-0.411,0.219-0.593,0.336c-0.181,0.118-0.293,0.214-0.336,0.289   c-0.043,0.074-0.123,0.383-0.239,0.928c-0.118,0.544-0.177,0.854-0.177,0.928c0,0.075,0.032,0.111,0.097,0.111   c0.063,0,0.208-0.053,0.432-0.159s0.533-0.229,0.928-0.368S11.895,18.344,11.895,17.49z M22.231,11.25   c0,0.917-0.214,1.376-0.641,1.376c-0.106,0-0.293-0.026-0.56-0.08c-0.268-0.053-0.731-0.08-1.393-0.08   c-1.259,0-2.139,0.086-2.64,0.256c-0.502,0.171-0.918,0.256-1.248,0.256c-0.331,0-0.651,0.043-0.96,0.128   c-0.31,0.085-0.571,0.128-0.784,0.128s-0.411-0.181-0.592-0.544c-0.182-0.362-0.272-0.661-0.272-0.896   c0-0.362,0.192-0.544,0.576-0.544s0.736-0.085,1.057-0.256c0.319-0.17,0.597-0.299,0.832-0.384   c0.234-0.085,0.352-0.395,0.352-0.928c0-0.32-0.139-0.437-0.416-0.352c-0.277,0.085-0.544,0.128-0.8,0.128s-0.48-0.229-0.672-0.688   c-0.192-0.458-0.288-0.811-0.288-1.056c0-0.245,0.17-0.378,0.512-0.4c0.341-0.021,0.683-0.096,1.024-0.224   c0.341-0.128,0.538-0.234,0.592-0.32c0.053-0.085,0.08-0.245,0.08-0.48c0-0.234-0.027-0.421-0.08-0.56   c-0.054-0.139-0.197-0.176-0.433-0.112c-0.234,0.064-0.427,0.096-0.575,0.096c-0.149,0-0.277-0.026-0.385-0.08   c-0.106-0.053-0.213-0.288-0.319-0.704c-0.107-0.416-0.16-0.747-0.16-0.992c0-0.245,0.149-0.378,0.448-0.4   c1.301-0.128,2.794-0.501,4.479-1.12c0.277-0.106,0.522-0.16,0.736-0.16c0.469,0,0.821,0.208,1.056,0.624s0.353,0.736,0.353,0.96   c0,0.224-0.097,0.384-0.288,0.48c-0.192,0.096-0.539,0.187-1.04,0.272c-0.502,0.085-0.832,0.16-0.992,0.224s-0.24,0.342-0.24,0.832   c0,0.235,0.139,0.331,0.416,0.288c0.533-0.085,0.912-0.128,1.136-0.128c0.225,0,0.39,0.08,0.496,0.24   c0.106,0.16,0.16,0.464,0.16,0.912c0,0.448-0.085,0.763-0.256,0.944s-0.501,0.304-0.992,0.368s-0.795,0.149-0.912,0.256   s-0.176,0.309-0.176,0.608s0.026,0.48,0.08,0.544c0.053,0.064,0.176,0.085,0.368,0.064c0.192-0.021,0.475-0.032,0.848-0.032   s0.683-0.037,0.929-0.112c0.244-0.075,0.432-0.112,0.56-0.112c0.32,0,0.57,0.16,0.752,0.48   C22.14,10.291,22.231,10.717,22.231,11.25z M13.879,18.002c0.064,0,0.336-0.074,0.816-0.224c0.479-0.149,0.778-0.261,0.896-0.336   c0.117-0.074,0.229-0.261,0.336-0.56s0.16-0.545,0.16-0.736c0-0.469-0.267-0.704-0.8-0.704c-0.192,0-0.443,0.048-0.752,0.144   c-0.31,0.097-0.592,0.838-0.849,2.225C13.687,17.938,13.751,18.002,13.879,18.002z" stroke-width="1"/>
</g>
</svg>