<svg xmlns="http://www.w3.org/2000/svg" xmlns:xlink="http://www.w3.org/1999/xlink" version="1.1" id="图层_1" x="0px" y="0px" width="27.592998504638672" height="27.623998641967773" viewBox="0.6110013723373413 0.7660021781921387 27.592998504638672 27.623998641967773" enable-background="new 0 0 30 30" xml:space="preserve">
<g>
	<path fill="#0000FF" d="M11.159,9.298c0.341,0,0.512,0.331,0.512,0.992c0,0.256-0.128,0.501-0.384,0.736   c-1.323,1.259-2.128,2.096-2.416,2.512s-0.432,0.891-0.432,1.424c0,0.213,0.042,0.395,0.128,0.543   c0.085,0.15,0.319,0.416,0.703,0.801c0.385,0.384,0.741,0.709,1.072,0.977c0.331,0.266,0.496,0.581,0.496,0.943   c0,0.149-0.048,0.326-0.144,0.527c-0.097,0.203-0.177,0.496-0.24,0.881c-0.064,0.447-0.256,0.672-0.576,0.672   c-0.256,0-0.479-0.24-0.672-0.721c-0.192-0.479-0.47-0.891-0.832-1.231c-0.363-0.341-0.624-0.513-0.784-0.513   s-0.293,0.06-0.399,0.177c-0.107,0.118-0.268,0.485-0.48,1.104c-0.213,0.619-0.352,1.173-0.416,1.664   c-0.128,0.896-0.656,1.52-1.584,1.871c-0.928,0.353-1.568,0.528-1.92,0.528s-0.72-0.026-1.104-0.08   c-0.384-0.053-0.576-0.138-0.576-0.256c0-0.117,0.149-0.293,0.448-0.528c1.429-1.088,2.464-1.994,3.104-2.72   s1.136-1.675,1.488-2.849c0.352-1.172,0.64-2.912,0.864-5.215c0.224-2.304,0.346-4.341,0.368-6.112   c0-0.576,0.208-0.864,0.624-0.864s0.805,0.064,1.168,0.192c0.362,0.128,0.544,0.262,0.544,0.4c0,0.139-0.063,0.304-0.191,0.496   C9.121,6.27,8.919,7.421,8.919,9.106c0,0.427,0.181,0.64,0.544,0.64c0.362,0,0.709-0.075,1.04-0.224   C10.833,9.374,11.052,9.298,11.159,9.298z M5.111,11.699c0,0.128-0.021,0.288-0.064,0.48c-0.235,0.939-0.368,1.792-0.4,2.56   c-0.032,0.768-0.085,1.238-0.16,1.408c-0.075,0.171-0.213,0.256-0.416,0.256s-0.544-0.09-1.024-0.271s-0.768-0.336-0.864-0.465   c-0.096-0.127-0.144-0.276-0.144-0.447c0-0.363,0.4-1.109,1.2-2.24c0.8-1.13,1.339-1.696,1.616-1.696   C5.025,11.283,5.111,11.421,5.111,11.699z M17.687,15.347c0.235,0,0.587,0.224,1.057,0.672c0.469,0.448,0.704,0.763,0.704,0.944   s-0.149,0.32-0.448,0.416s-0.688,0.256-1.168,0.479c-0.48,0.224-0.795,0.39-0.944,0.496s-0.347,0.362-0.592,0.769   c-0.245,0.404-0.56,0.746-0.944,1.023c-0.768,0.576-1.392,1.2-1.872,1.872c-0.479,0.672-0.746,1.216-0.8,1.632   c-0.053,0.416-0.128,0.699-0.224,0.848c-0.096,0.149-0.336,0.348-0.72,0.592c-0.385,0.246-0.769,0.422-1.152,0.529   c-0.384,0.105-0.821,0.159-1.313,0.159c-0.896,0-1.344-0.069-1.344-0.208s0.149-0.293,0.448-0.464   c1.664-1.003,2.986-2.128,3.968-3.376s1.473-2.021,1.473-2.32s-0.118-0.447-0.353-0.447c-0.149,0-0.293,0.043-0.432,0.127   c-0.14,0.086-0.272,0.129-0.4,0.129s-0.283-0.213-0.464-0.641c-0.182-0.426-0.267-0.725-0.256-0.896s0.154-0.288,0.432-0.353   c0.533-0.105,1.12-0.319,1.76-0.64c0.641-0.319,1.365-0.624,2.177-0.912C17.09,15.491,17.559,15.347,17.687,15.347z M23.703,15.442   c0,1.089-0.203,1.632-0.608,1.632s-1.211-0.293-2.416-0.88s-2.182-1.52-2.928-2.8c-0.128-0.234-0.32-0.352-0.576-0.352   s-0.607,0.171-1.056,0.512s-0.752,0.651-0.912,0.928c-0.16,0.278-0.56,0.496-1.2,0.656c-0.64,0.16-1.104,0.24-1.392,0.24   s-0.641-0.048-1.057-0.144c-0.416-0.096-0.624-0.213-0.624-0.352c0-0.138,0.149-0.272,0.448-0.4   c1.643-0.683,2.741-1.227,3.296-1.632s1.099-0.779,1.632-1.12c0.214-0.128,0.32-0.309,0.32-0.544c0-0.533-0.277-0.8-0.832-0.8   c-0.683,0-1.259,0.139-1.728,0.416c-0.192,0.107-0.357,0.16-0.496,0.16c-0.14,0-0.268-0.192-0.384-0.576   c-0.118-0.384-0.278-0.715-0.48-0.992c-0.203-0.277-0.304-0.491-0.304-0.64c0-0.277,0.181-0.437,0.544-0.48   c0.362-0.042,0.8-0.144,1.312-0.304c0.513-0.16,0.832-0.272,0.96-0.336c0.128-0.064,0.219-0.17,0.272-0.32   c0.053-0.149,0.059-0.32,0.016-0.512c-0.427-1.899-0.64-3.509-0.64-4.832c0-0.299,0.053-0.491,0.16-0.576   c0.106-0.085,0.356-0.128,0.752-0.128c0.395,0,0.709,0.048,0.943,0.144c0.235,0.096,0.353,0.235,0.353,0.416   s-0.038,0.459-0.112,0.832c-0.075,0.374-0.111,0.821-0.111,1.344c0,0.523,0.036,1.045,0.111,1.568   c0.074,0.523,0.154,0.832,0.24,0.928c0.085,0.096,0.181,0.144,0.288,0.144c0.106,0,0.224-0.021,0.352-0.064   c1.259-0.469,2.097-0.704,2.513-0.704s0.672,0.048,0.768,0.144s0.144,0.299,0.144,0.608c0,0.31-0.149,0.534-0.447,0.672   c-0.299,0.139-0.646,0.342-1.04,0.608c-0.396,0.267-0.672,0.512-0.832,0.736s-0.357,0.405-0.592,0.544   c-0.235,0.139-0.353,0.293-0.353,0.464c0,0.171,0.032,0.336,0.096,0.496c0.064,0.16,0.16,0.24,0.288,0.24   c0.106,0,0.421-0.155,0.944-0.464c0.522-0.309,0.891-0.464,1.104-0.464c0.213,0,0.389,0.096,0.527,0.288s0.208,0.384,0.208,0.576   c0,0.192-0.149,0.363-0.448,0.512c-0.746,0.363-1.227,0.629-1.439,0.8c-0.214,0.171-0.32,0.358-0.32,0.56   c0,0.203,0.139,0.539,0.416,1.008s0.613,0.875,1.008,1.216c0.395,0.342,0.752,0.512,1.072,0.512s0.608-0.208,0.864-0.624   s0.416-0.853,0.479-1.312c0.064-0.458,0.165-0.688,0.305-0.688c0.138,0,0.271,0.389,0.399,1.168S23.703,14.91,23.703,15.442z    M26.103,19.506c0.107,0,0.257,0.182,0.448,0.545c0.192,0.363,0.405,1.088,0.641,2.176c0.234,1.088,0.352,1.877,0.352,2.368   c0,0.49,0.021,0.928,0.064,1.312l0.096,0.896c0,0.191-0.027,0.352-0.08,0.48c-0.054,0.127-0.134,0.219-0.24,0.271   s-0.234,0.08-0.384,0.08h-0.384c-0.641,0-1.371,0.043-2.192,0.127c-0.821,0.086-1.904,0.129-3.248,0.129s-2.096-0.031-2.256-0.096   s-0.491-0.518-0.992-1.36s-0.837-1.573-1.008-2.192c-0.171-0.618-0.256-1.221-0.256-1.808s0.042-1.231,0.128-1.937   c0.085-0.703,0.197-1.092,0.336-1.168c0.139-0.074,0.293-0.111,0.464-0.111s0.411,0.048,0.72,0.144   c0.31,0.097,0.465,0.22,0.465,0.368c0,0.149-0.075,0.357-0.225,0.624s-0.283,0.693-0.399,1.28   c-0.118,0.587-0.177,1.195-0.177,1.824s0.251,1.125,0.752,1.487s1.237,0.544,2.208,0.544s1.824-0.074,2.561-0.224   s1.21-0.374,1.424-0.672c0.213-0.3,0.421-0.757,0.624-1.376c0.202-0.619,0.325-1.611,0.368-2.977   C25.932,19.752,25.996,19.506,26.103,19.506z" stroke-width="1"/>
</g>
</svg>