<svg xmlns="http://www.w3.org/2000/svg" xmlns:xlink="http://www.w3.org/1999/xlink" version="1.1" id="图层_1" x="0px" y="0px" width="29.378997802734375" height="27.45800018310547" viewBox="0.6750005483627319 0.3849995732307434 29.378997802734375 27.45800018310547" enable-background="new 0 0 30 30" xml:space="preserve">
<g>
	<path fill="#0000FF" d="M19.191,10.066c0,0.278,0.031,0.443,0.096,0.496c0.063,0.054,0.16,0.08,0.288,0.08s0.399-0.037,0.815-0.112   s0.875-0.112,1.376-0.112s1.195,0.182,2.08,0.544c0.886,0.363,1.328,0.704,1.328,1.024c0,0.15-0.085,0.331-0.256,0.544   c-1.046,1.259-1.675,2.208-1.888,2.848c-0.214,0.64-0.4,1.024-0.561,1.153c-0.16,0.127-0.507,0.213-1.04,0.256   s-1.114,0.106-1.744,0.191c-0.629,0.086-0.981,0.166-1.056,0.24c-0.075,0.074-0.123,0.229-0.144,0.464   c-0.064,1.151-0.166,1.952-0.305,2.399c-0.139,0.449-0.208,0.721-0.208,0.816s0.054,0.176,0.16,0.24   c0.362,0.234,0.73,0.512,1.104,0.832c0.373,0.32,1.125,0.763,2.256,1.328s2.016,0.922,2.656,1.072   c1.962,0.447,3.194,0.752,3.695,0.912c0.501,0.159,0.912,0.356,1.232,0.592c0.32,0.234,0.479,0.432,0.479,0.592   s-0.234,0.309-0.703,0.447c-0.47,0.139-0.864,0.209-1.185,0.209s-0.63,0.037-0.928,0.111c-0.299,0.074-0.966,0.111-2,0.111   c-1.035,0-1.648-0.037-1.84-0.111c-0.192-0.074-0.363-0.229-0.513-0.464c-0.512-1.046-1.093-1.798-1.743-2.256   c-0.651-0.458-1.308-0.827-1.969-1.104s-1.114-0.5-1.359-0.672c-0.246-0.17-0.416-0.256-0.513-0.256   c-0.096,0-0.277,0.092-0.544,0.271c-0.267,0.182-0.64,0.391-1.12,0.625c-0.479,0.234-0.965,0.757-1.456,1.567   c-0.213,0.362-0.459,0.576-0.735,0.64c-0.277,0.064-0.704,0.097-1.28,0.097c-1.067,0-2.144-0.245-3.231-0.736   c-0.235-0.106-0.385-0.159-0.448-0.159c-0.064,0-0.112,0.17-0.145,0.512c-0.031,0.341-0.111,0.725-0.239,1.152   c-0.129,0.426-0.416,0.639-0.864,0.639s-0.72-0.096-0.816-0.287c-0.096-0.192-0.144-0.422-0.144-0.688   c0-0.268,0.048-1.084,0.144-2.449c0.096-1.364,0.144-2.869,0.144-4.512S5.943,16.69,5.687,16.69c-0.064,0-0.304,0.208-0.72,0.624   s-0.891,0.742-1.424,0.977c-0.534,0.234-1.152,0.352-1.856,0.352c-0.341,0-0.512-0.085-0.512-0.256s0.203-0.469,0.608-0.896   c2.218-2.389,3.818-4.853,4.8-7.392c0.981-2.539,1.568-4.277,1.76-5.216c0.106-0.469,0.325-0.704,0.656-0.704   c0.33,0,0.635,0.112,0.912,0.336c0.277,0.224,0.56,0.427,0.848,0.608c0.288,0.182,0.433,0.379,0.433,0.592   c0,0.214-0.118,0.443-0.353,0.688c-0.235,0.246-0.464,0.688-0.688,1.328c-0.225,0.64-0.534,1.339-0.929,2.096   s-0.795,1.403-1.199,1.936c-0.576,0.768-0.864,1.344-0.864,1.728c0,0.192,0.181,0.384,0.544,0.576c0.533,0.278,0.8,0.534,0.8,0.768   c0,0.235-0.054,0.507-0.16,0.816c-0.106,0.31-0.16,1.051-0.16,2.225l0.032,1.472c0,0.405-0.054,0.991-0.16,1.76   s-0.16,1.425-0.16,1.968c0,0.545,0.049,0.869,0.145,0.977c0.096,0.106,0.304,0.16,0.624,0.16s1.114-0.149,2.384-0.448   s2.245-0.698,2.928-1.2c0.683-0.501,1.024-0.811,1.024-0.928s-0.107-0.219-0.32-0.305c-0.96-0.319-1.515-0.521-1.664-0.607   c-0.64-0.342-1.179-0.576-1.615-0.704c-0.438-0.128-0.731-0.293-0.881-0.496c-0.149-0.202-0.224-0.507-0.224-0.912   c0-0.725,0.106-1.088,0.32-1.088c0.128,0,0.347,0.14,0.655,0.416c0.31,0.277,0.992,0.598,2.049,0.96   c1.056,0.363,1.749,0.624,2.08,0.784c0.33,0.159,0.527,0.239,0.592,0.239c0.17,0,0.298-0.234,0.384-0.703   c0.085-0.469,0.128-0.864,0.128-1.184c0-0.32-0.069-0.48-0.208-0.48s-0.416,0.048-0.832,0.145   c-0.416,0.096-0.688,0.181-0.815,0.256c-0.129,0.074-0.283,0.111-0.465,0.111c-0.181,0-0.362-0.08-0.544-0.24   s-0.512-0.58-0.991-1.264c-0.48-0.683-0.844-1.307-1.089-1.872c-0.245-0.565-0.367-1.002-0.367-1.312   c0-0.309,0.079-0.522,0.239-0.64c0.16-0.117,0.442-0.181,0.849-0.192c0.404-0.01,0.853-0.096,1.344-0.256   c0.49-0.16,1.099-0.341,1.824-0.544c0.725-0.203,1.141-0.341,1.248-0.416c0.106-0.075,0.187-0.229,0.239-0.464   c0.054-0.235,0.08-0.576,0.08-1.024c0-0.256-0.074-0.384-0.224-0.384s-0.47,0.102-0.96,0.304c-0.491,0.203-0.859,0.304-1.104,0.304   s-0.507-0.309-0.783-0.928c-0.278-0.619-0.416-1.024-0.416-1.216c0-0.192,0.085-0.331,0.256-0.416   c0.17-0.085,0.427-0.133,0.768-0.144c0.341-0.01,0.837-0.096,1.488-0.256c0.65-0.16,1.008-0.282,1.072-0.368   c0.063-0.085,0.111-0.378,0.144-0.88c0.032-0.501,0.048-1.168,0.048-2l-0.063-1.952c0-0.405,0.096-0.677,0.288-0.816   c0.191-0.138,0.501-0.208,0.928-0.208c0.896,0,1.344,0.214,1.344,0.64c0,0.149-0.069,0.293-0.208,0.432   c-0.139,0.139-0.234,0.331-0.288,0.576s-0.08,0.816-0.08,1.712v1.376c0,0.213,0.011,0.357,0.032,0.432   c0.021,0.075,0.091,0.112,0.208,0.112s0.368-0.059,0.752-0.176c0.384-0.117,0.715-0.245,0.992-0.384   c0.277-0.139,0.512-0.208,0.704-0.208c0.427,0,0.64,0.416,0.64,1.248c0,0.299-0.128,0.544-0.384,0.736s-0.779,0.47-1.568,0.832   c-0.789,0.363-1.221,0.592-1.296,0.688c-0.075,0.096-0.111,0.24-0.111,0.432V10.066z M14.551,16.019   c0.192,0,0.533-0.063,1.024-0.192c0.49-0.127,0.768-0.207,0.832-0.24c0.063-0.031,0.111-0.09,0.144-0.175   c0.032-0.085,0.059-0.341,0.08-0.768l0.064-1.184c0-0.128-0.032-0.192-0.097-0.192c-0.128,0-0.549,0.128-1.264,0.384   c-0.715,0.256-1.12,0.432-1.216,0.528c-0.096,0.096-0.145,0.331-0.145,0.704c0,0.374,0.037,0.657,0.112,0.848   C14.161,15.922,14.316,16.019,14.551,16.019z M18.935,15.09c0.064,0,0.149-0.01,0.257-0.032l1.056-0.16   c0.405-0.021,0.698-0.256,0.88-0.704c0.181-0.448,0.272-0.811,0.272-1.088c0-0.533-0.331-0.8-0.992-0.8   c-0.256,0-0.534,0.021-0.832,0.064c-0.299,0.043-0.491,0.123-0.576,0.24c-0.086,0.118-0.16,0.48-0.224,1.088   c-0.064,0.608-0.097,0.992-0.097,1.152S18.764,15.09,18.935,15.09z" stroke-width="1"/>
</g>
</svg>