<svg xmlns="http://www.w3.org/2000/svg" xmlns:xlink="http://www.w3.org/1999/xlink" version="1.1" id="图层_1" x="0px" y="0px" width="22.441997528076172" height="29.065000534057617" viewBox="3.10599946975708 0.5420002937316895 22.441997528076172 29.065000534057617" enable-background="new 0 0 30 30" xml:space="preserve">
<g>
	<path fill="#0000FF" d="M9.463,16.883c0,0.213-0.075,0.773-0.224,1.68c-0.149,0.907-0.331,1.605-0.544,2.096   C8.46,21.17,8.21,21.88,7.943,22.787c-0.268,0.906-0.593,1.508-0.977,1.808c-0.384,0.298-0.64,0.587-0.768,0.864   c-0.128,0.276-0.299,0.416-0.512,0.416c-0.341,0-0.773-0.561-1.296-1.681c-0.523-1.12-0.784-2.405-0.784-3.856   c0-0.639,0.037-1.199,0.112-1.68c0.075-0.479,0.112-1.178,0.112-2.096c0-0.917,0.069-1.738,0.208-2.464   c0.139-0.725,0.25-1.179,0.336-1.36c0.085-0.181,0.24-0.272,0.464-0.272c0.224,0,0.629,0.171,1.216,0.512   c0.586,0.341,0.88,0.72,0.88,1.136s-0.288,0.837-0.864,1.264c-0.277,0.192-0.475,0.374-0.592,0.543   c-0.118,0.172-0.283,0.582-0.496,1.232c-0.213,0.651-0.384,1.36-0.512,2.129c-0.128,0.768-0.192,1.482-0.192,2.144   s0.08,1.136,0.24,1.424s0.347,0.433,0.56,0.433c0.426,0,1.04-0.539,1.84-1.617c0.8-1.076,1.477-2.629,2.032-4.655   c0.085-0.32,0.191-0.479,0.319-0.479C9.399,16.531,9.463,16.648,9.463,16.883z M9.815,8.019c0,0.256-0.08,0.496-0.24,0.72   c-0.16,0.224-0.363,0.336-0.608,0.336S8.311,8.974,7.735,8.771C7.159,8.568,6.796,8.307,6.647,7.986   c-0.149-0.32-0.224-0.634-0.224-0.944c0-0.309,0.053-0.688,0.16-1.136c0.106-0.448,0.17-0.736,0.192-0.864   c0.042-0.704,0.213-1.056,0.512-1.056c0.234,0,0.427,0.235,0.576,0.704C7.948,4.946,8.13,5.203,8.407,5.458   C9.346,6.333,9.815,7.187,9.815,8.019z M14.007,7.794c-0.405,0-0.715,0.054-0.928,0.16c-0.214,0.107-0.4,0.16-0.561,0.16   c-0.159,0-0.282-0.16-0.367-0.48c-0.086-0.32-0.128-0.592-0.128-0.816c0-0.224,0.133-0.341,0.399-0.352   c0.267-0.01,0.646-0.101,1.136-0.272c0.491-0.17,0.929-0.282,1.313-0.336c0.384-0.053,0.576-0.234,0.576-0.544   c0-0.309,0.042-0.757,0.128-1.344c0.085-0.587,0.128-1.168,0.128-1.744c0-0.789,0.267-1.184,0.8-1.184   c0.213,0,0.522,0.102,0.928,0.304s0.608,0.389,0.608,0.56s-0.027,0.368-0.08,0.592c-0.054,0.224-0.08,0.613-0.08,1.168   c0,0.555,0.016,0.912,0.048,1.072c0.032,0.16,0.106,0.24,0.225,0.24c0.116,0,0.282-0.032,0.496-0.096   c1.045-0.32,1.78-0.48,2.208-0.48c0.234,0,0.378,0.107,0.432,0.32c0.053,0.213,0.08,0.411,0.08,0.592   c0,0.182-0.16,0.336-0.48,0.464c-0.576,0.214-1.035,0.432-1.376,0.656s-0.688,0.411-1.04,0.56   c-0.352,0.149-0.527,0.325-0.527,0.528c0,0.203,0.063,0.304,0.191,0.304s0.267-0.021,0.416-0.064   c1.408-0.363,2.256-0.544,2.544-0.544s0.47,0.117,0.544,0.352c0.075,0.235,0.112,0.443,0.112,0.624c0,0.182-0.149,0.32-0.448,0.416   c-0.299,0.096-0.715,0.267-1.248,0.512c-0.533,0.246-0.976,0.427-1.328,0.544c-0.352,0.118-0.575,0.235-0.672,0.352   c-0.096,0.118-0.144,0.293-0.144,0.528c0,0.235,0.096,0.352,0.288,0.352l2.592-0.288c0.917-0.085,1.536-0.17,1.856-0.256   c0.319-0.085,0.586-0.128,0.8-0.128c0.49,0,0.88,0.261,1.168,0.784s0.432,0.955,0.432,1.296s-0.075,0.512-0.224,0.512   c-0.149,0-0.331-0.053-0.544-0.16c-0.47-0.213-1.228-0.32-2.272-0.32s-2.032,0.08-2.96,0.24c-0.928,0.16-1.701,0.395-2.32,0.704   c-0.618,0.309-1.029,0.464-1.231,0.464c-0.203,0-0.368-0.021-0.496-0.064c-0.128-0.042-0.32-0.064-0.576-0.064   s-0.72,0.059-1.392,0.176c-0.672,0.118-1.174,0.246-1.504,0.384c-0.331,0.139-0.699,0.219-1.104,0.24   c-0.299,0.043-0.555,0.16-0.768,0.352c-0.214,0.192-0.396,0.288-0.544,0.288c-0.149,0-0.272-0.144-0.368-0.432   s-0.145-0.522-0.145-0.704c0-0.181,0.027-0.304,0.08-0.368c0.054-0.064,0.112-0.096,0.177-0.096h0.159   c0.149,0,0.342-0.042,0.576-0.128c0.683-0.298,1.909-0.629,3.68-0.992c0.427-0.085,0.769-0.181,1.024-0.288   c0.256-0.106,0.427-0.298,0.512-0.576c0.085-0.277,0.128-0.496,0.128-0.656c0-0.16-0.079-0.24-0.239-0.24s-0.363,0.016-0.608,0.048   c-0.245,0.032-0.448,0.048-0.608,0.048c-0.159,0-0.299,0.027-0.415,0.08c-0.118,0.054-0.23,0.08-0.337,0.08   s-0.197-0.128-0.271-0.384c-0.075-0.256-0.112-0.507-0.112-0.752s0.149-0.379,0.448-0.4c0.512-0.042,0.986-0.117,1.424-0.224   c0.438-0.106,0.726-0.219,0.864-0.336c0.139-0.117,0.208-0.304,0.208-0.56c0-0.256-0.182-0.384-0.544-0.384H14.007z M21.335,17.203   c0,0.447,0.037,1.023,0.112,1.728c0.074,0.704,0.117,1.499,0.128,2.384c0.011,0.886,0.059,1.616,0.144,2.191   c0.085,0.576,0.165,1.382,0.24,2.416c0.074,1.035,0.112,1.771,0.112,2.209s-0.027,0.709-0.08,0.816   c-0.054,0.105-0.155,0.16-0.305,0.16c-0.299,0-1.013-0.279-2.144-0.832c-1.131-0.557-2.123-1.164-2.976-1.824   c-0.854-0.662-1.28-1.052-1.28-1.168c0-0.118,0.069-0.177,0.208-0.177s0.442,0.037,0.912,0.112   c0.469,0.074,0.949,0.111,1.439,0.111c0.491,0,0.858-0.074,1.104-0.224c0.245-0.149,0.368-0.427,0.368-0.832   c0-1.066-0.092-2.202-0.272-3.407c-0.182-1.205-0.314-2.314-0.399-3.328c-0.086-1.014-0.198-1.638-0.337-1.873   c-0.139-0.234-0.362-0.352-0.672-0.352s-0.827,0.171-1.552,0.512c-0.726,0.342-1.088,0.684-1.088,1.024   c0,0.192,0.32,0.288,0.96,0.288l0.768-0.032c0.32,0,0.48,0.208,0.48,0.624s-0.384,0.816-1.152,1.2   c-1.003,0.427-1.504,0.832-1.504,1.216c0,0.128,0.053,0.191,0.16,0.191c0.149,0,0.811-0.17,1.984-0.512   c0.128-0.042,0.224-0.063,0.288-0.063c0.276,0,0.416,0.202,0.416,0.608c0,0.404-0.064,0.677-0.192,0.815   c-0.128,0.14-0.464,0.319-1.008,0.544s-1.115,0.39-1.712,0.496c-0.214,0.043-0.411,0.314-0.593,0.816   c-0.181,0.501-0.282,1.093-0.304,1.775s-0.075,1.137-0.16,1.36s-0.261,0.399-0.527,0.528c-0.268,0.127-0.485,0.191-0.656,0.191   c-0.214,0-0.32-0.086-0.32-0.256c0-0.171,0.021-0.331,0.064-0.48c0.128-0.405,0.288-1.274,0.479-2.607   c0.192-1.333,0.288-2.33,0.288-2.992c0-0.661,0.037-1.333,0.112-2.016c0.074-0.683,0.112-1.317,0.112-1.904   c0-0.586,0.09-0.992,0.271-1.216c0.181-0.224,0.384-0.336,0.608-0.336c0.224,0,0.522-0.08,0.896-0.24s0.784-0.267,1.232-0.32   s0.928-0.171,1.439-0.352c0.513-0.181,0.96-0.272,1.345-0.272c0.384,0,0.97,0.075,1.76,0.224c0.789,0.149,1.184,0.374,1.184,0.672   c0,0.107-0.043,0.224-0.128,0.352C21.42,15.39,21.335,16.072,21.335,17.203z" stroke-width="1"/>
</g>
</svg>