<svg xmlns="http://www.w3.org/2000/svg" xmlns:xlink="http://www.w3.org/1999/xlink" version="1.1" id="图层_1" x="0px" y="0px" width="23.559999465942383" height="27.68899917602539" viewBox="3.1399998664855957 0.3030000925064087 23.559999465942383 27.68899917602539" enable-background="new 0 0 30 30" xml:space="preserve">
<g>
	<path fill="#0000FF" d="M5.976,18.659c0,0.448-0.203,0.672-0.608,0.672c-0.512,0-0.928-0.085-1.248-0.256   c-0.32-0.171-0.48-0.4-0.48-0.688c0-0.287,0.261-0.693,0.784-1.216c0.522-0.522,0.853-0.784,0.992-0.784   c0.139,0,0.229,0.054,0.272,0.16c0.042,0.107,0.101,0.411,0.176,0.912C5.938,17.961,5.976,18.36,5.976,18.659z M19.64,11.939   c1.174,0,2.229,0.229,3.168,0.688c0.938,0.459,1.739,1.12,2.4,1.984c0.661,0.864,0.992,1.467,0.992,1.808   c0,0.342-0.208,0.565-0.624,0.672c-0.416,0.107-0.8,0.16-1.152,0.16c-0.352,0-0.815-0.08-1.392-0.239   c-0.576-0.16-0.864-0.305-0.864-0.433s0.154-0.267,0.464-0.416s0.581-0.384,0.816-0.704c0.234-0.32,0.352-0.586,0.352-0.8   s-0.037-0.379-0.111-0.496c-0.075-0.117-0.326-0.309-0.753-0.576c-0.427-0.267-0.843-0.464-1.247-0.592   c-0.406-0.128-0.827-0.192-1.265-0.192s-0.934,0.107-1.488,0.32c-0.555,0.213-0.869,0.352-0.943,0.416   c-0.075,0.064-0.14,0.203-0.192,0.416c-0.054,0.213-0.117,0.741-0.191,1.584c-0.075,0.843-0.112,1.68-0.112,2.512   c0,0.684,0.101,1.024,0.304,1.024s0.795-0.491,1.776-1.472c0.234-0.234,0.442-0.353,0.624-0.353c0.181,0,0.384,0.102,0.607,0.304   c0.225,0.203,0.336,0.385,0.336,0.545c0,0.159-0.128,0.33-0.384,0.512s-0.629,0.555-1.12,1.119   c-0.49,0.566-1.151,1.137-1.983,1.713c-0.448,0.277-0.672,0.811-0.672,1.6c0,0.277,0.116,0.448,0.352,0.512   c0.234,0.064,0.688,0.097,1.36,0.097s1.21-0.011,1.615-0.032l0.961-0.064c0.426,0,0.81,0.288,1.151,0.864   c0.341,0.576,0.512,1.066,0.512,1.472s-0.213,0.608-0.64,0.608c-0.149,0-0.331-0.021-0.544-0.064   c-0.917-0.191-1.835-0.287-2.752-0.287c-0.918,0-1.963,0.09-3.136,0.271c-1.174,0.181-2.235,0.293-3.185,0.336   s-1.813,0.133-2.592,0.272c-0.779,0.138-1.296,0.25-1.552,0.336c-0.256,0.085-0.496,0.128-0.72,0.128s-0.4-0.128-0.528-0.384   C7.16,26.851,7.096,26.6,7.096,26.355c0-0.246,0.117-0.38,0.352-0.4c0.469-0.064,1.12-0.214,1.952-0.448s1.37-0.442,1.615-0.624   s0.368-0.442,0.368-0.784l-0.032-1.439c-0.021-0.513-0.053-0.821-0.096-0.929c-0.043-0.105-0.102-0.16-0.176-0.16   c-0.075,0-0.155,0.033-0.24,0.097c-1.131,0.747-1.787,1.12-1.968,1.12c-0.182,0-0.4-0.148-0.656-0.448   c-0.256-0.298-0.384-0.575-0.384-0.832c0-0.234,0.117-0.399,0.352-0.495c0.235-0.097,0.603-0.315,1.104-0.656   c0.501-0.342,0.928-0.613,1.28-0.816c0.352-0.203,0.564-0.395,0.64-0.576c0.074-0.181,0.112-0.576,0.112-1.184   c0-0.608-0.092-1.217-0.272-1.824c-0.182-0.608-0.485-0.912-0.912-0.912c-0.277,0-0.629,0.064-1.056,0.192s-0.726,0.289-0.896,0.48   c-0.171,0.192-0.352,0.288-0.543,0.288s-0.326-0.106-0.4-0.319c-0.075-0.213-0.112-0.427-0.112-0.641   c0-0.213,0.149-0.352,0.448-0.416c1.365-0.298,2.555-0.656,3.567-1.072c1.014-0.416,2.405-0.789,4.177-1.12   C17.091,12.104,18.53,11.939,19.64,11.939z M18.68,8.995c0.683,0,1.115,0.059,1.296,0.176c0.182,0.118,0.272,0.352,0.272,0.704   s-0.064,0.582-0.192,0.688c-0.128,0.107-0.341,0.16-0.64,0.16h-0.512c-0.875,0-1.867,0.102-2.977,0.304   c-1.109,0.203-1.872,0.406-2.288,0.608c-0.416,0.203-0.73,0.304-0.943,0.304l-0.736-0.128c-0.299,0-0.709,0.048-1.232,0.144   c-0.522,0.096-0.821,0.171-0.896,0.224c-0.075,0.053-0.166,0.08-0.272,0.08s-0.208-0.08-0.304-0.24s-0.144-0.347-0.144-0.56   c0-0.405,0.191-0.629,0.576-0.672c0.276-0.021,0.863-0.117,1.76-0.288c0.896-0.17,1.413-0.373,1.552-0.608   c0.139-0.234,0.208-0.448,0.208-0.64c0-0.341-0.491-0.512-1.472-0.512c-0.662,0-1.248,0.107-1.761,0.32   C9.805,9.123,9.672,9.155,9.576,9.155S9.4,9.091,9.336,8.963C9.272,8.835,9.208,8.611,9.144,8.291   C9.08,7.971,9.048,7.657,9.048,7.347c0-0.309,0.203-0.464,0.608-0.464c0.512,0,1.274-0.133,2.288-0.4   c1.013-0.267,1.615-0.49,1.808-0.672c0.192-0.181,0.309-0.656,0.352-1.424c0.107-1.707,0.251-2.73,0.433-3.072   c0.181-0.341,0.485-0.512,0.912-0.512c0.789,0,1.184,0.235,1.184,0.704c0,0.15-0.032,0.342-0.096,0.576   c-0.192,0.854-0.288,1.707-0.288,2.56c0,0.533,0.213,0.768,0.64,0.704c0.96-0.192,1.589-0.288,1.889-0.288   c0.298,0,0.603,0.187,0.912,0.56c0.309,0.374,0.464,0.688,0.464,0.944c0,0.47-0.16,0.704-0.48,0.704   c-0.063,0-0.16-0.016-0.288-0.048c-0.128-0.032-0.31-0.048-0.544-0.048s-0.667,0.102-1.296,0.304   c-0.63,0.203-0.992,0.352-1.088,0.448c-0.096,0.096-0.145,0.278-0.145,0.544c0,0.267,0.054,0.448,0.16,0.544   c0.106,0.096,0.373,0.117,0.801,0.064C17.698,9.022,18.168,8.995,18.68,8.995z M13.656,24.035c0.234,0,0.479-0.054,0.735-0.16   c0.257-0.106,0.405-0.24,0.448-0.4c0.043-0.159,0.117-0.896,0.225-2.207c0.106-1.313,0.159-2.129,0.159-2.449   c0-0.319-0.048-0.479-0.144-0.479s-0.24,0.097-0.432,0.288l-0.736,0.768c-0.32,0.299-0.523,0.545-0.608,0.736   c-0.085,0.192-0.165,0.607-0.239,1.248c-0.075,0.641-0.112,1.243-0.112,1.808C12.952,23.753,13.187,24.035,13.656,24.035z    M14.104,17.635c0.171,0,0.373-0.064,0.608-0.191c0.234-0.129,0.384-0.262,0.448-0.4c0.063-0.139,0.096-0.533,0.096-1.184   c0-0.651-0.027-1.067-0.08-1.249c-0.054-0.181-0.182-0.272-0.384-0.272c-0.203,0-0.405,0.059-0.608,0.176   c-0.202,0.117-0.304,0.379-0.304,0.784c0,0.406-0.016,0.822-0.048,1.248c-0.032,0.428-0.048,0.651-0.048,0.672   C13.784,17.496,13.891,17.635,14.104,17.635z" stroke-width="1"/>
</g>
</svg>