<svg xmlns="http://www.w3.org/2000/svg" xmlns:xlink="http://www.w3.org/1999/xlink" version="1.1" id="图层_1" x="0px" y="0px" width="24.84000015258789" height="19.690000534057617" viewBox="2.3710012435913086 5.854000091552734 24.84000015258789 19.690000534057617" enable-background="new 0 0 30 30" xml:space="preserve">
<g>
	<path fill="#0000FF" d="M26.711,22.931c0,0.149-0.037,0.362-0.112,0.64c-0.074,0.277-0.191,0.416-0.352,0.416   s-0.347-0.053-0.561-0.16c-0.768-0.341-1.723-0.613-2.863-0.815c-1.142-0.202-2.208-0.304-3.2-0.304s-1.792,0.08-2.4,0.239   c-0.607,0.16-1.445,0.262-2.512,0.304c-2.304,0.129-4.485,0.4-6.544,0.816c-2.059,0.416-3.216,0.683-3.472,0.801   c-0.256,0.116-0.448,0.176-0.576,0.176c-0.278,0-0.555-0.294-0.832-0.881c-0.278-0.586-0.416-1.029-0.416-1.328   c0-0.298,0.133-0.441,0.4-0.432c0.267,0.012,0.421,0.016,0.464,0.016c0.555,0,1.536-0.063,2.944-0.191   c1.408-0.128,2.261-0.234,2.56-0.32c1.002-0.277,2.384-0.538,4.144-0.783c1.76-0.246,3.045-0.4,3.856-0.465   c0.811-0.063,1.647-0.096,2.512-0.096s1.744-0.031,2.64-0.096c0.896-0.064,1.456-0.123,1.681-0.176   c0.224-0.054,0.41-0.08,0.56-0.08c0.512,0,0.875,0.224,1.088,0.672c0.32,0.703,0.565,1.168,0.736,1.392   S26.711,22.717,26.711,22.931z M18.455,6.354c0.405,0,0.677,0.069,0.815,0.208c0.139,0.139,0.208,0.421,0.208,0.848   s-0.187,0.821-0.56,1.184s-1.179,0.821-2.416,1.376s-1.979,0.832-2.224,0.832c-0.246,0-0.491-0.027-0.736-0.08   s-0.678-0.08-1.296-0.08c-0.619,0-1.067,0.075-1.344,0.224c-0.086,0.043-0.16,0.064-0.225,0.064c-0.234,0-0.405-0.235-0.512-0.704   C9.932,9.288,9.74,8.669,9.591,8.371S9.367,7.88,9.367,7.794c0-0.213,0.148-0.32,0.448-0.32c0.298,0,0.522-0.026,0.672-0.08   c0.148-0.053,0.384-0.08,0.704-0.08h0.96c0.597,0,1.632-0.16,3.104-0.48S17.794,6.354,18.455,6.354z M17.943,13.106   c0.532,0,0.868,0.091,1.008,0.272c0.139,0.182,0.208,0.501,0.208,0.96c0,0.459-0.06,0.758-0.176,0.896   c-0.118,0.139-0.523,0.363-1.217,0.672c-0.693,0.31-1.407,0.571-2.144,0.784c-0.736,0.214-1.328,0.331-1.776,0.353   c-1.237,0.021-2.021,0.085-2.352,0.191c-0.331,0.107-0.561,0.16-0.688,0.16s-0.251-0.09-0.367-0.271   c-0.118-0.182-0.268-0.513-0.448-0.992c-0.182-0.48-0.272-0.816-0.272-1.008s0.069-0.331,0.208-0.416   c0.139-0.085,0.475-0.197,1.008-0.336s0.987-0.213,1.36-0.224c0.373-0.01,0.858-0.101,1.456-0.272   c0.597-0.17,1.333-0.341,2.208-0.512C16.833,13.192,17.495,13.106,17.943,13.106z" stroke-width="1"/>
</g>
</svg>