<svg xmlns="http://www.w3.org/2000/svg" xmlns:xlink="http://www.w3.org/1999/xlink" version="1.1" id="图层_1" x="0px" y="0px" width="27.97600555419922" height="29.510997772216797" viewBox="1.986994743347168 -0.09699979424476624 27.97600555419922 29.510997772216797" enable-background="new 0 0 30 30" xml:space="preserve">
<g>
	<path fill="#0000FF" d="M29.463,24.082c0,0.256-0.384,0.465-1.152,0.625c-0.768,0.16-1.504,0.239-2.208,0.239   c-0.703,0-1.53-0.026-2.479-0.079c-0.949-0.055-1.499-0.092-1.648-0.113s-0.261-0.074-0.336-0.159   c-0.074-0.086-0.133-0.235-0.176-0.448c-0.063-0.512-0.427-1.236-1.088-2.176c-0.661-0.938-1.467-1.755-2.416-2.448   c-0.949-0.692-1.552-1.04-1.808-1.04c-0.128,0-0.192,0.16-0.192,0.48c0,1.131,0.032,2.678,0.096,4.64   c0.064,1.962,0.102,3.083,0.112,3.36s0.053,0.555,0.128,0.832c0.074,0.277,0.112,0.49,0.112,0.639c0,0.32-0.14,0.48-0.416,0.48   c-0.064,0-0.208-0.031-0.433-0.096c-0.224-0.064-0.603-0.127-1.136-0.191c-1.152-0.129-2.277-0.555-3.376-1.281   c-1.099-0.725-1.647-1.227-1.647-1.504c0-0.127,0.106-0.191,0.319-0.191s0.624,0.053,1.232,0.16c0.607,0.106,1.136,0.16,1.584,0.16   s0.72-0.112,0.815-0.336c0.097-0.225,0.134-0.491,0.112-0.801c-0.021-0.309-0.032-1.066-0.032-2.271s0.032-2.026,0.097-2.464   c0.063-0.437,0.096-0.821,0.096-1.152c0-0.33-0.064-0.495-0.192-0.495s-0.256,0.059-0.384,0.176s-0.443,0.459-0.944,1.023   c-0.501,0.565-0.826,0.987-0.976,1.264c-0.149,0.277-0.416,0.588-0.8,0.928c-0.981,0.896-2.102,2.102-3.36,3.617   c-0.619,0.682-1.461,1.023-2.528,1.023c-0.427,0-0.859-0.053-1.296-0.16c-0.438-0.107-0.656-0.245-0.656-0.416   s0.192-0.342,0.576-0.512c1.173-0.512,2.096-1.051,2.768-1.616s1.557-1.44,2.656-2.624c1.099-1.184,1.845-2.064,2.239-2.64   c0.395-0.576,0.593-1.045,0.593-1.408c0-0.362-0.086-0.544-0.256-0.544c-0.3,0-1.057,0.191-2.272,0.576   c-1.216,0.384-2.027,0.693-2.432,0.928c-0.405,0.235-0.704,0.352-0.896,0.352s-0.395-0.186-0.608-0.56   c-0.213-0.373-0.32-0.655-0.32-0.848c0-0.32,0.17-0.485,0.512-0.496s0.843-0.122,1.504-0.336l5.152-1.568   c0.853-0.277,1.333-0.442,1.439-0.496s0.192-0.133,0.257-0.24c0.063-0.106,0.074-0.405,0.031-0.896   c-0.043-0.491-0.063-1.173-0.063-2.048l0.096-2.336c0-0.384-0.117-0.576-0.352-0.576c-0.769,0-1.579,0.267-2.433,0.8   c-0.277,0.171-0.479,0.256-0.607,0.256c-0.277,0-0.534-0.405-0.769-1.216C9.068,7.048,8.951,6.525,8.951,6.291   c0-0.234,0.063-0.395,0.191-0.48c0.128-0.085,0.363-0.128,0.704-0.128l1.12,0.032c0.598,0,1.131-0.058,1.601-0.176   c0.469-0.117,0.752-0.245,0.848-0.384c0.096-0.138,0.16-0.496,0.192-1.072c0.031-0.576,0.106-1.28,0.224-2.112   s0.224-1.301,0.32-1.408c0.096-0.106,0.224-0.16,0.384-0.16s0.512,0.102,1.056,0.304c0.544,0.203,0.816,0.363,0.816,0.48   c0,0.118-0.032,0.24-0.097,0.368c-0.256,0.555-0.384,1.184-0.384,1.888c0,0.342,0.048,0.576,0.145,0.704   c0.096,0.128,0.239,0.192,0.432,0.192l1.504-0.288c0.555-0.085,0.896-0.154,1.024-0.208c0.128-0.053,0.256-0.08,0.384-0.08   c0.448,0,0.672,0.405,0.672,1.216c0,0.235-0.112,0.464-0.336,0.688s-0.63,0.523-1.216,0.896c-0.587,0.374-1.078,0.651-1.472,0.832   c-0.396,0.182-0.646,0.347-0.753,0.496c-0.106,0.149-0.144,0.363-0.111,0.64s0.048,0.635,0.048,1.072   c0,0.438-0.054,0.998-0.16,1.68l-0.256,1.728c0,0.235,0.133,0.352,0.4,0.352c0.266,0,0.554-0.042,0.863-0.128   c0.31-0.085,0.789-0.16,1.44-0.224c0.65-0.064,1.392-0.277,2.224-0.64c0.192-0.085,0.373-0.128,0.544-0.128   c0.341,0,0.709,0.256,1.104,0.768c0.395,0.512,0.592,0.949,0.592,1.312s-0.08,0.544-0.24,0.544s-0.352-0.027-0.576-0.08   c-0.224-0.053-0.527-0.08-0.912-0.08c-0.384,0-0.933,0.102-1.647,0.304s-1.397,0.379-2.048,0.528   c-0.651,0.148-0.998,0.245-1.04,0.287c-0.043,0.043-0.064,0.092-0.064,0.145s0.021,0.117,0.064,0.191   c0.042,0.075,0.17,0.188,0.384,0.336l4.448,3.713c0.64,0.555,1.248,0.976,1.824,1.264c0.575,0.288,1.301,0.539,2.176,0.752   c0.874,0.213,1.775,0.496,2.704,0.848C28.999,23.427,29.463,23.763,29.463,24.082z M8.119,9.203c0.148,0,0.341,0.096,0.576,0.288   c0.789,0.683,1.386,1.157,1.792,1.424c0.404,0.267,0.752,0.571,1.04,0.912s0.432,0.629,0.432,0.864   c0,0.235-0.251,0.411-0.752,0.528c-0.502,0.117-0.88,0.176-1.136,0.176s-0.693-0.08-1.313-0.24   c-0.619-0.16-0.986-0.368-1.104-0.624c-0.118-0.256-0.198-0.603-0.24-1.04c-0.043-0.437-0.064-0.8-0.064-1.088   c0-0.288,0.091-0.56,0.272-0.816C7.804,9.331,7.97,9.203,8.119,9.203z M16.631,11.794c0-0.554,0.245-1.066,0.736-1.536   c0.811-0.768,1.439-1.674,1.888-2.72c0.064-0.149,0.219-0.224,0.464-0.224s0.736,0.24,1.473,0.72   c0.735,0.48,1.104,0.869,1.104,1.168c0,0.192-0.139,0.32-0.416,0.384c-0.598,0.128-1.035,0.251-1.312,0.368   c-0.278,0.117-0.604,0.341-0.977,0.672c-0.373,0.331-0.864,0.683-1.472,1.056c-0.608,0.374-1.029,0.56-1.264,0.56   C16.705,12.243,16.631,12.094,16.631,11.794z" stroke-width="1"/>
</g>
</svg>