<svg xmlns="http://www.w3.org/2000/svg" xmlns:xlink="http://www.w3.org/1999/xlink" version="1.1" id="图层_1" x="0px" y="0px" width="26.1510009765625" height="28.07200050354004" viewBox="2.8199996948242188 0.19000005722045898 26.1510009765625 28.07200050354004" enable-background="new 0 0 30 30" xml:space="preserve">
<g>
	<path fill="#0000FF" d="M16.471,15.635c0,0.149,0.149,0.32,0.448,0.512c1.109,0.747,2.293,1.643,3.552,2.688   c0.555,0.428,1.835,1.014,3.84,1.761c2.773,1.024,4.16,1.76,4.16,2.208c0,0.149-0.139,0.283-0.416,0.4s-0.581,0.176-0.912,0.176   s-0.607-0.043-0.832-0.129c-0.224-0.084-0.581-0.127-1.071-0.127c-0.491,0-0.907-0.043-1.248-0.129   c-0.342-0.084-0.619-0.17-0.832-0.256c-0.214-0.085-0.518-0.128-0.912-0.128c-0.396,0-0.651-0.091-0.769-0.272   c-0.117-0.18-0.219-0.49-0.304-0.928c-0.085-0.437-0.299-0.805-0.64-1.104c-0.342-0.299-1.003-0.645-1.984-1.04   c-0.981-0.395-2.069-0.987-3.264-1.776c-0.235-0.148-0.432-0.224-0.592-0.224s-0.464,0.277-0.912,0.832s-1.27,1.387-2.464,2.496   c-0.149,0.149-0.225,0.267-0.225,0.352c0,0.086,0.085,0.128,0.256,0.128c0.235,0,1.029-0.176,2.385-0.527   c1.354-0.353,2.479-0.528,3.376-0.528c0.896,0,1.487,0.187,1.775,0.56c0.288,0.374,0.736,0.764,1.345,1.168   c0.607,0.406,0.911,0.758,0.911,1.057c0,0.213-0.282,0.565-0.848,1.056c-0.565,0.491-0.949,0.901-1.152,1.231   c-0.202,0.331-0.325,0.715-0.367,1.152c-0.043,0.438-0.155,0.661-0.336,0.672c-0.182,0.011-0.491,0.017-0.929,0.017   S16.444,27,15.623,27.139s-1.413,0.277-1.776,0.416c-0.362,0.139-0.667,0.207-0.912,0.207s-0.479-0.09-0.703-0.271   c-0.225-0.182-0.582-0.607-1.072-1.279c-0.491-0.672-0.838-1.254-1.04-1.744c-0.203-0.49-0.422-0.918-0.656-1.28   c-0.235-0.362-0.405-0.544-0.512-0.544c-0.128,0-0.304,0.139-0.528,0.416c-0.224,0.277-0.39,0.565-0.496,0.863   c-0.106,0.299-0.39,0.529-0.848,0.688c-0.459,0.16-0.907,0.24-1.344,0.24c-0.438,0-0.949-0.048-1.536-0.144   c-0.587-0.097-0.88-0.252-0.88-0.465s0.213-0.384,0.64-0.512c2.026-0.576,4.016-1.861,5.968-3.855   c1.952-1.995,2.929-3.152,2.929-3.473c0-0.17-0.246-0.287-0.736-0.352c-0.491-0.064-0.923-0.096-1.296-0.096   c-0.374,0-0.699,0.127-0.977,0.383c-0.789,0.705-1.322,1.147-1.6,1.328c-0.277,0.182-0.565,0.272-0.864,0.272   c-0.576,0-0.864-0.08-0.864-0.239c0-0.16,0.101-0.326,0.304-0.496c0.203-0.171,0.608-0.55,1.216-1.137   c0.608-0.586,1.439-1.674,2.496-3.264c1.056-1.589,1.69-2.555,1.904-2.896c0.128-0.192,0.298-0.288,0.512-0.288   c0.213,0,0.564,0.203,1.056,0.608c0.234,0.213,0.576,0.331,1.024,0.352c0.533,0.043,1.322,0.187,2.368,0.432   c1.045,0.245,1.567,0.496,1.567,0.752c0,0.128-0.117,0.32-0.352,0.576c-0.235,0.256-0.651,0.832-1.248,1.728   C16.77,14.962,16.471,15.485,16.471,15.635z M8.311,10.354c0,0.341,0.075,1.056,0.225,2.144c0,0.171-0.102,0.283-0.304,0.336   c-0.203,0.054-0.624,0.08-1.265,0.08c-0.981,0-1.472-0.245-1.472-0.736c0-0.171,0.197-0.533,0.592-1.088   c0.395-0.554,0.816-1.024,1.264-1.408c0.448-0.384,0.736-0.576,0.864-0.576s0.192,0.075,0.192,0.224   c0,0.149-0.017,0.315-0.048,0.496C8.327,10.008,8.311,10.184,8.311,10.354z M18.839,5.331c1.515,0,2.72,0.757,3.616,2.272   c0.896,1.515,1.344,2.454,1.344,2.816c0,0.363-0.267,0.544-0.8,0.544c-1.152,0-2.139-0.053-2.96-0.16s-1.291-0.192-1.408-0.256   s-0.176-0.138-0.176-0.224s0.085-0.139,0.256-0.16c0.725-0.149,1.301-0.416,1.729-0.8c0.426-0.384,0.64-0.784,0.64-1.2   s-0.197-0.789-0.592-1.12c-0.396-0.331-0.939-0.496-1.632-0.496c-0.694,0-1.521,0.267-2.48,0.8s-1.856,0.8-2.688,0.8   c-0.171,0-0.544,0.069-1.119,0.208c-0.576,0.139-0.972,0.251-1.185,0.336c-0.213,0.085-0.405,0.128-0.576,0.128   S10.476,8.75,10.327,8.61c-0.149-0.138-0.225-0.261-0.225-0.368c0-0.106,0.177-0.261,0.528-0.464   c0.353-0.202,1.536-0.661,3.552-1.376C16.199,5.688,17.751,5.331,18.839,5.331z M13.431,25.17c0.32,0,0.977-0.085,1.969-0.256   c0.991-0.17,1.6-0.518,1.823-1.039c0.225-0.523,0.336-0.944,0.336-1.265c0-0.661-0.459-0.991-1.376-0.991   c-0.512,0-1.146,0.111-1.903,0.336c-0.758,0.224-1.248,0.426-1.473,0.607c-0.224,0.182-0.336,0.406-0.336,0.672   c0,0.268,0.032,0.598,0.097,0.992c0.063,0.395,0.148,0.65,0.256,0.768C12.93,25.111,13.132,25.17,13.431,25.17z M13.975,0.69   c0.385,0,0.886,0.4,1.504,1.2c0.619,0.8,0.929,1.339,0.929,1.616c0,0.278-0.102,0.518-0.305,0.72   C15.9,4.43,15.665,4.531,15.399,4.531c-0.268,0-0.726-0.133-1.376-0.4c-0.651-0.266-0.977-0.581-0.977-0.944   c0-0.106,0.043-0.32,0.128-0.64c0.085-0.32,0.139-0.629,0.16-0.928C13.399,1,13.612,0.69,13.975,0.69z M14.423,14.418   c0.171,0,0.442-0.288,0.816-0.864c0.373-0.576,0.56-1.024,0.56-1.344c0-0.405-0.208-0.608-0.624-0.608s-0.843,0.192-1.28,0.576   c-0.438,0.384-0.655,0.715-0.655,0.992c0,0.278,0.165,0.555,0.496,0.832C14.065,14.28,14.295,14.418,14.423,14.418z" stroke-width="1"/>
</g>
</svg>