<svg xmlns="http://www.w3.org/2000/svg" xmlns:xlink="http://www.w3.org/1999/xlink" version="1.1" id="图层_1" x="0px" y="0px" width="24.555002212524414" height="26.503999710083008" viewBox="1.4729979038238525 0.9579999446868896 24.555002212524414 26.503999710083008" enable-background="new 0 0 30 30" xml:space="preserve">
<g>
	<path fill="#0000FF" d="M23.799,7.314c0.299,0,0.661,0.379,1.088,1.136s0.641,1.355,0.641,1.792c0,0.438-0.182,0.656-0.544,0.656   c-0.064,0-0.14-0.01-0.225-0.032c-0.405-0.106-0.976-0.16-1.712-0.16s-1.755,0.144-3.056,0.432   c-1.302,0.288-2.06,0.512-2.272,0.672s-0.373,0.464-0.479,0.912c-0.107,0.448-0.203,1.125-0.288,2.032   c-0.086,0.908-0.188,1.589-0.304,2.048c-0.118,0.459-0.38,1.157-0.784,2.096c-0.406,0.939-0.662,1.568-0.769,1.889   c-0.106,0.319-0.16,0.575-0.16,0.768c0,0.191,0.011,0.395,0.032,0.607c0.021,0.214,0.032,0.416,0.032,0.608   c0,0.534-0.102,0.892-0.304,1.071c-0.203,0.182-0.4,0.4-0.593,0.656c-0.427,0.598-1.146,1.158-2.159,1.681   c-1.014,0.522-1.755,0.784-2.225,0.784c-0.128,0-0.224-0.075-0.288-0.225c-0.063-0.149-0.096-0.287-0.096-0.416   c0-0.661,0.427-1.355,1.28-2.08c0.106-0.085,0.298-0.287,0.576-0.607c0.276-0.32,0.416-0.565,0.416-0.736   c0-0.17-0.257-0.404-0.769-0.704c-0.832-0.49-1.424-0.923-1.775-1.296c-0.353-0.373-0.528-0.752-0.528-1.136   c0-0.171,0.059-0.257,0.176-0.257s0.288,0.049,0.512,0.145c0.225,0.096,0.442,0.145,0.656,0.145c0.384,0,0.576-0.342,0.576-1.024   c0-0.341-0.032-0.709-0.096-1.104c-0.064-0.395-0.166-0.592-0.305-0.592s-0.314,0.107-0.527,0.32   c-1.579,1.579-2.731,2.656-3.457,3.232s-1.227,1.205-1.504,1.888c-0.128,0.362-0.293,0.544-0.496,0.544s-0.603-0.267-1.2-0.801   c-0.598-0.532-0.896-0.991-0.896-1.375c0-0.234,0.128-0.395,0.384-0.48c0.256-0.085,0.715-0.421,1.376-1.008   c0.661-0.586,1.061-0.98,1.2-1.184c0.139-0.203,0.187-0.443,0.144-0.721c-0.342-1.791-0.512-4.032-0.512-6.72   c0-1.088,0.032-1.723,0.096-1.904s0.304-0.368,0.72-0.56s1.168-0.416,2.256-0.672C8.727,7.378,9.697,7.25,10.551,7.25   s1.61,0.166,2.272,0.496c0.661,0.331,0.992,0.731,0.992,1.2c0,0.214-0.129,0.464-0.385,0.752c-0.256,0.288-0.399,0.704-0.432,1.248   c-0.032,0.544-0.091,1.072-0.176,1.584c-0.086,0.512-0.128,1.163-0.128,1.952l0.031,2.592l-0.063,3.104   c0,0.427,0.053,0.64,0.16,0.64c0.362,0,0.811-1.056,1.344-3.168c0.533-2.111,0.8-4.01,0.8-5.696c0-0.725-0.069-1.2-0.208-1.424   c-0.139-0.224-0.208-0.464-0.208-0.72c0-0.384,0.117-0.586,0.353-0.608c1.386-0.149,2.475-0.309,3.264-0.48l5.408-1.376   C23.66,7.326,23.735,7.314,23.799,7.314z M6.647,16.531c0.085,0,0.192-0.054,0.32-0.16c1.003-0.939,1.813-1.595,2.433-1.969   c0.618-0.373,0.933-0.603,0.943-0.688c0.011-0.085,0.017-0.288,0.017-0.608c0-1.322-0.097-2.309-0.288-2.96   C9.879,9.496,9.452,9.17,8.791,9.17s-1.109,0.288-1.344,0.864c-0.235,0.576-0.352,0.96-0.352,1.152s0.084,0.299,0.255,0.32   c1.045,0.128,1.568,0.555,1.568,1.28c0,0.491-0.182,0.912-0.544,1.264c-0.363,0.352-0.704,0.56-1.024,0.624   c-0.32,0.064-0.56,0.176-0.72,0.336c-0.16,0.16-0.24,0.453-0.24,0.88S6.476,16.531,6.647,16.531z M19.351,1.458   c0.214,0,0.593,0.288,1.137,0.864c0.544,0.576,0.912,1.179,1.104,1.808c0.192,0.63,0.288,1.083,0.288,1.36   s-0.085,0.459-0.256,0.544c-0.171,0.085-0.604,0.128-1.296,0.128c-0.693,0-1.163-0.101-1.408-0.304   c-0.245-0.202-0.432-0.565-0.56-1.088c-0.128-0.522-0.192-1.013-0.192-1.472c0-0.458,0.149-0.88,0.448-1.264   C18.913,1.65,19.159,1.458,19.351,1.458z" stroke-width="1"/>
</g>
</svg>