<svg xmlns="http://www.w3.org/2000/svg" xmlns:xlink="http://www.w3.org/1999/xlink" version="1.1" id="图层_1" x="0px" y="0px" width="28.392000198364258" height="27.603151321411133" viewBox="1.6500000953674316 0.409000039100647 28.392000198364258 27.603151321411133" style="enable-background:new 0 0 30 30;" xml:space="preserve">
  <g>
    <g>
      <path style="fill:#0000FF;" d="M29.542,25.9c0,0.299-0.56,0.656-1.68,1.072s-2.054,0.592-2.8,0.527&#13;&#10;&#9;&#9;c-0.32-0.043-1.622-0.063-3.904-0.063c-0.384,0-0.646-0.048-0.784-0.144s-0.331-0.39-0.576-0.881&#13;&#10;&#9;&#9;c-0.245-0.49-0.533-0.885-0.864-1.184s-1.029-0.587-2.096-0.863c-1.066-0.277-1.775-0.416-2.128-0.416&#13;&#10;&#9;&#9;c-0.352,0-0.651,0.031-0.896,0.096c-0.246,0.064-0.523,0.096-0.832,0.096c-0.31,0-0.795-0.102-1.456-0.304&#13;&#10;&#9;&#9;c-0.662-0.202-1.28-0.304-1.856-0.304c-1.493,0-3.296,0.479-5.408,1.439c-0.235,0.106-0.427,0.16-0.576,0.16&#13;&#10;&#9;&#9;c-0.149,0-0.299-0.096-0.448-0.288s-0.368-0.518-0.656-0.976C2.294,23.41,2.15,23.101,2.15,22.941c0-0.16,0.187-0.251,0.56-0.273&#13;&#10;&#9;&#9;c0.373-0.021,0.88-0.121,1.52-0.303s1.323-0.305,2.048-0.369c0.362-0.021,0.544-0.127,0.544-0.319s-0.272-0.576-0.816-1.151&#13;&#10;&#9;&#9;c-0.544-0.576-0.912-1.029-1.104-1.361c-0.192-0.33-0.347-0.853-0.464-1.567c-0.118-0.714-0.176-1.478-0.176-2.288&#13;&#10;&#9;&#9;s0.032-1.296,0.096-1.456c0.064-0.16,0.229-0.24,0.496-0.24c0.267,0,0.725,0.107,1.376,0.32c0.65,0.213,0.976,0.48,0.976,0.8&#13;&#10;&#9;&#9;c0,0.149-0.096,0.32-0.288,0.512c-0.789,0.726-1.184,1.398-1.184,2.016c0,0.619,0.203,1.237,0.608,1.856s0.688,0.928,0.849,0.928&#13;&#10;&#9;&#9;c0.159,0,0.293-0.107,0.399-0.32c0.598-1.088,1.146-1.92,1.648-2.496c0.501-0.576,1.013-1.424,1.536-2.544&#13;&#10;&#9;&#9;c0.522-1.12,0.89-2.181,1.104-3.184c0.213-1.002,0.32-1.696,0.32-2.08c0-0.384-0.064-0.688-0.192-0.912s-0.191-0.389-0.191-0.496&#13;&#10;&#9;&#9;c0-0.234,0.314-0.426,0.943-0.576c0.629-0.149,1.669-0.458,3.12-0.928c1.45-0.469,2.507-0.704,3.168-0.704&#13;&#10;&#9;&#9;c0.576,0,1.2,0.171,1.872,0.512s1.008,0.693,1.008,1.056c0,0.363-0.203,0.672-0.607,0.928c-0.918,0.619-1.473,1.237-1.664,1.856&#13;&#10;&#9;&#9;c-0.086,0.299-0.188,0.48-0.305,0.544s-0.362,0.118-0.735,0.16c-0.374,0.043-0.8,0.123-1.28,0.24&#13;&#10;&#9;&#9;c-0.479,0.118-1.259,0.374-2.336,0.768c-1.077,0.395-1.691,0.646-1.84,0.752c-0.149,0.107-0.272,0.256-0.368,0.448&#13;&#10;&#9;&#9;c-0.096,0.192-0.144,0.347-0.144,0.464c0,0.118,0.074,0.176,0.224,0.176c0.299,0,1.023-0.208,2.176-0.624s2.31-0.698,3.472-0.848&#13;&#10;&#9;&#9;c1.163-0.149,2-0.224,2.513-0.224c0.512,0,1.104,0.118,1.775,0.352c0.672,0.235,1.009,0.555,1.009,0.96&#13;&#10;&#9;&#9;c0,0.192-0.08,0.416-0.24,0.672c-0.16,0.256-0.304,0.827-0.433,1.712c-0.128,0.885-0.341,2.022-0.64,3.409&#13;&#10;&#9;&#9;s-0.496,2.245-0.592,2.576c-0.096,0.33-0.283,0.495-0.561,0.495s-0.778-0.144-1.504-0.432s-1.461-0.667-2.208-1.136&#13;&#10;&#9;&#9;c-0.149-0.086-0.379-0.176-0.688-0.272c-0.31-0.096-0.464-0.336-0.464-0.72c0-0.192,0.085-0.576,0.256-1.152&#13;&#10;&#9;&#9;c0.17-0.576,0.256-0.955,0.256-1.136s-0.048-0.272-0.144-0.272c-0.097,0-0.326,0.06-0.688,0.176&#13;&#10;&#9;&#9;c-0.363,0.118-0.565,0.203-0.608,0.256c-0.043,0.055-0.091,0.326-0.144,0.816c-0.054,0.491-0.102,0.827-0.144,1.008&#13;&#10;&#9;&#9;c-0.044,0.182-0.118,0.315-0.225,0.4c-0.106,0.086-0.203,0.128-0.288,0.128s-0.182-0.069-0.288-0.208s-0.234-0.624-0.384-1.456&#13;&#10;&#9;&#9;c-0.043-0.234-0.214-0.352-0.512-0.352c-0.299,0-0.496,0.032-0.592,0.096c-0.097,0.063-0.145,0.267-0.145,0.608l0.064,1.664&#13;&#10;&#9;&#9;c0,0.32-0.097,0.479-0.288,0.479c-0.192,0-0.411-0.218-0.656-0.655s-0.453-1.18-0.624-2.225c-0.021-0.17-0.059-0.256-0.112-0.256&#13;&#10;&#9;&#9;c-0.053,0-0.133,0.064-0.239,0.191c-0.662,1.004-1.718,1.803-3.168,2.4c-0.15,0.064-0.225,0.182-0.225,0.352&#13;&#10;&#9;&#9;c0,0.172,0.272,0.449,0.816,0.832C8.95,21.709,9.339,21.9,9.574,21.9c0.427,0,1.818,0.176,4.176,0.528s4.251,0.752,5.68,1.2&#13;&#10;&#9;&#9;c1.066,0.299,2.059,0.49,2.977,0.576c2.645,0.213,4.276,0.426,4.896,0.64l1.601,0.544C29.328,25.537,29.542,25.709,29.542,25.9z&#13;&#10;&#9;&#9; M4.71,6.668c0.192,0,0.352,0.107,0.48,0.32c0.298,0.448,0.907,0.885,1.824,1.312C7.568,8.6,7.926,8.855,8.086,9.069&#13;&#10;&#9;&#9;s0.24,0.411,0.24,0.592c0,0.182-0.038,0.336-0.112,0.464c-0.075,0.128-0.432,0.208-1.072,0.24c-0.64,0.032-1.168,0.048-1.583,0.048&#13;&#10;&#9;&#9;c-0.416,0-0.72-0.074-0.912-0.224C4.454,10.04,4.305,9.704,4.198,9.181c-0.107-0.522-0.16-0.992-0.16-1.408&#13;&#10;&#9;&#9;c0-0.416,0.064-0.704,0.192-0.864S4.518,6.668,4.71,6.668z M14.054,15.725c0-0.128-0.031-0.304-0.096-0.528&#13;&#10;&#9;&#9;s-0.16-0.336-0.288-0.336s-0.277,0.102-0.448,0.304c-0.171,0.203-0.256,0.432-0.256,0.688c0,0.257,0.053,0.384,0.16,0.384&#13;&#10;&#9;&#9;c0.106,0,0.288-0.037,0.544-0.111S14.054,15.917,14.054,15.725z M13.99,10.413c0.17,0,0.384-0.064,0.64-0.192&#13;&#10;&#9;&#9;c0.981-0.533,1.931-0.907,2.848-1.12c0.385-0.085,0.646-0.218,0.784-0.4C18.4,8.52,18.47,8.306,18.47,8.061&#13;&#10;&#9;&#9;c0-0.245-0.096-0.448-0.288-0.608c-0.191-0.16-0.416-0.24-0.672-0.24s-0.592,0.085-1.008,0.256&#13;&#10;&#9;&#9;c-0.416,0.171-0.789,0.363-1.12,0.576s-0.619,0.384-0.864,0.512s-0.453,0.379-0.624,0.752c-0.171,0.374-0.256,0.651-0.256,0.832&#13;&#10;&#9;&#9;C13.638,10.322,13.755,10.413,13.99,10.413z M15.206,0.909c0.213,0,0.416,0.118,0.608,0.352c0.512,0.683,1.04,1.27,1.584,1.76&#13;&#10;&#9;&#9;c0.544,0.491,0.815,0.886,0.815,1.184c0,0.406-0.368,0.608-1.104,0.608c-0.736,0-1.302-0.058-1.696-0.176&#13;&#10;&#9;&#9;c-0.396-0.117-0.64-0.283-0.736-0.496c-0.096-0.213-0.144-0.554-0.144-1.024c0-0.469,0.005-0.885,0.016-1.248&#13;&#10;&#9;&#9;c0.011-0.362,0.075-0.613,0.192-0.752C14.859,0.978,15.014,0.909,15.206,0.909z M17.222,14.637c0-0.448-0.096-0.672-0.288-0.672&#13;&#10;&#9;&#9;c-0.319,0-0.544,0.139-0.672,0.416s-0.191,0.485-0.191,0.624s0.063,0.208,0.191,0.208s0.32-0.048,0.576-0.144&#13;&#10;&#9;&#9;C17.094,14.973,17.222,14.829,17.222,14.637z M20.934,15.309c0-0.704-0.202-1.237-0.607-1.6c-0.405-0.362-0.704-0.544-0.896-0.544&#13;&#10;&#9;&#9;c-0.319,0-0.479,0.342-0.479,1.024c0,0.299,0.096,0.512,0.288,0.64c0.191,0.128,0.347,0.299,0.464,0.512&#13;&#10;&#9;&#9;c0.117,0.213,0.176,0.405,0.176,0.576c0,0.406-0.342,0.64-1.023,0.705c-0.107,0-0.182,0.148-0.225,0.447&#13;&#10;&#9;&#9;c-0.085,0.662-0.187,1.174-0.304,1.536c-0.117,0.363-0.176,0.587-0.176,0.673c0,0.085,0.016,0.165,0.048,0.239&#13;&#10;&#9;&#9;c0.032,0.075,0.187,0.144,0.464,0.208s0.528,0.096,0.752,0.096s0.442-0.068,0.656-0.207c0.213-0.139,0.41-0.769,0.592-1.889&#13;&#10;&#9;&#9;C20.843,16.604,20.934,15.8,20.934,15.309z" stroke-width="1"/>
    </g>
    <g/>
    <g/>
    <g/>
    <g/>
    <g/>
    <g/>
    <g/>
    <g/>
    <g/>
    <g/>
    <g/>
    <g/>
    <g/>
    <g/>
    <g/>
  </g>
</svg>