<svg xmlns="http://www.w3.org/2000/svg" xmlns:xlink="http://www.w3.org/1999/xlink" version="1.1" id="图层_1" x="0px" y="0px" width="25.44999885559082" height="26.95100212097168" viewBox="1.5700020790100098 1.9809997081756592 25.44999885559082 26.95100212097168" enable-background="new 0 0 30 30" xml:space="preserve">
<g>
	<path fill="#0000FF" d="M10.423,6.354c0.299,0,0.613,0.224,0.944,0.672c0.33,0.448,0.533,0.79,0.607,1.024   c0.075,0.235,0.149,0.39,0.225,0.464c0.074,0.075,0.384,0.315,0.928,0.72c0.544,0.406,1.125,0.79,1.744,1.152   c0.32,0.192,0.479,0.405,0.479,0.64c0,0.235-0.159,0.475-0.479,0.72c-0.32,0.246-0.71,0.651-1.168,1.216   c-0.459,0.565-0.784,1.051-0.977,1.456c-0.618,1.216-1.253,2.166-1.903,2.848c-0.651,0.683-1.18,1.344-1.584,1.983   c-0.406,0.641-0.662,1.137-0.769,1.488s-0.299,0.641-0.576,0.864s-0.832,0.501-1.664,0.832s-1.515,0.496-2.048,0.496   c-0.534,0-1.019-0.048-1.456-0.144c-0.438-0.097-0.656-0.225-0.656-0.385s0.149-0.314,0.448-0.464   c1.664-0.747,2.741-1.317,3.232-1.712c0.491-0.395,0.992-0.721,1.504-0.977c0.448-0.213,0.891-0.672,1.328-1.375   c0.437-0.705,0.656-1.1,0.656-1.185s-0.038-0.128-0.112-0.128c-0.075,0-0.192,0.016-0.352,0.048   c-0.16,0.032-0.326,0.048-0.496,0.048c-0.684,0-1.062-0.256-1.136-0.768c-0.075-0.512-0.198-0.965-0.368-1.36   c-0.171-0.395-0.288-0.592-0.352-0.592s-0.171,0.064-0.32,0.192c-0.47,0.427-0.896,0.64-1.28,0.64   c-0.384,0-0.576-0.117-0.576-0.352c0-0.234,0.234-0.645,0.704-1.232C5.42,12.6,6.268,11.458,7.495,9.763   c1.227-1.696,1.962-2.688,2.208-2.976C9.948,6.499,10.188,6.354,10.423,6.354z M10.359,13.778c0.234,0,0.421-0.074,0.56-0.224   c0.139-0.149,0.309-0.485,0.512-1.008c0.203-0.522,0.305-0.912,0.305-1.168s-0.123-0.469-0.368-0.64   c-0.246-0.17-0.454-0.256-0.624-0.256c-0.149,0-0.544,0.203-1.185,0.608c-0.64,0.406-1.045,0.694-1.216,0.864   c-0.171,0.171-0.256,0.411-0.256,0.72c0,0.31,0.085,0.523,0.256,0.64c0.171,0.118,0.507,0.224,1.008,0.32   C9.852,13.73,10.188,13.778,10.359,13.778z M19.255,3.57c0,0.128-0.063,0.288-0.191,0.48c-0.278,0.384-0.502,1.398-0.673,3.04   c-0.171,1.643-0.256,3.456-0.256,5.44c0,1.28,0.069,3.381,0.208,6.303c0.139,2.924,0.208,5.104,0.208,6.545   c0,1.439-0.059,2.309-0.176,2.607s-0.363,0.447-0.736,0.447s-0.832-0.287-1.376-0.863s-0.815-0.949-0.815-1.119   c0-0.172,0.074-0.342,0.224-0.513c0.299-0.362,0.49-0.944,0.576-1.744c0.085-0.8,0.128-2.948,0.128-6.448   c0-3.498-0.032-5.53-0.096-6.096c-0.064-0.565-0.097-1.589-0.097-3.072c0-1.482,0.032-2.747,0.097-3.792   c0.063-1.045,0.133-1.69,0.208-1.936c0.074-0.245,0.202-0.368,0.384-0.368c0.181,0,0.624,0.118,1.328,0.352   C18.903,3.069,19.255,3.314,19.255,3.57z M19.383,11.986c0.341,0,1.083,0.085,2.225,0.256c1.141,0.171,2.09,0.411,2.848,0.72   c0.757,0.31,1.259,0.496,1.504,0.56s0.4,0.182,0.464,0.352c0.064,0.171,0.096,0.64,0.096,1.408c0,1.708-0.181,2.559-0.544,2.559   c-0.128,0-0.336-0.133-0.624-0.399c-0.287-0.267-0.64-0.532-1.056-0.8c-0.416-0.267-1.264-0.922-2.544-1.968   c-1.28-1.045-2.054-1.706-2.32-1.984c-0.267-0.277-0.399-0.464-0.399-0.56C19.031,12.035,19.148,11.986,19.383,11.986z" stroke-width="1"/>
</g>
</svg>