<svg xmlns="http://www.w3.org/2000/svg" xmlns:xlink="http://www.w3.org/1999/xlink" version="1.1" id="图层_1" x="0px" y="0px" width="27.430999755859375" height="25.511999130249023" viewBox="1.363000750541687 1.624999761581421 27.430999755859375 25.511999130249023" style="enable-background:new 0 0 30 30;" xml:space="preserve">
  <g>
    <g>
      <path style="fill:#0000FF;" d="M12.838,9.677c0,0.171-0.063,0.352-0.191,0.544c-0.257,0.384-0.491,1.515-0.704,3.392&#13;&#10;&#9;&#9;c-0.214,1.877-0.336,3.329-0.368,4.352S11.323,19.5,10.918,19.5c-0.299,0-1.099-0.447-2.4-1.344&#13;&#10;&#9;&#9;c-0.171-0.105-0.319-0.16-0.447-0.16s-0.225,0.113-0.288,0.336c-0.064,0.225-0.145,0.939-0.24,2.145s-0.144,2.342-0.144,3.408&#13;&#10;&#9;&#9;s-0.043,1.674-0.128,1.824c-0.086,0.148-0.305,0.266-0.656,0.352c-0.353,0.085-0.613,0.128-0.784,0.128&#13;&#10;&#9;&#9;c-0.277,0-0.416-0.096-0.416-0.288c0-0.191,0.021-0.384,0.064-0.576c0.32-1.151,0.48-5.631,0.48-13.439&#13;&#10;&#9;&#9;c0-0.32-0.075-0.48-0.224-0.48c-0.149,0-0.363,0.133-0.64,0.4c-0.278,0.267-0.454,0.619-0.528,1.056&#13;&#10;&#9;&#9;c-0.075,0.438-0.112,1.285-0.112,2.544l0.032,1.824c0,0.47-0.144,0.764-0.432,0.881c-0.288,0.117-0.496,0.176-0.624,0.176&#13;&#10;&#9;&#9;s-0.278-0.188-0.448-0.561c-0.171-0.373-0.4-1.316-0.688-2.832c-0.288-1.514-0.432-2.624-0.432-3.328&#13;&#10;&#9;&#9;c0-0.704,0.352-1.141,1.056-1.312C4.411,9.912,5.302,9.682,5.59,9.564c0.288-0.117,0.433-0.378,0.433-0.784&#13;&#10;&#9;&#9;s0.053-1.146,0.159-2.224c0.106-1.077,0.16-1.904,0.16-2.48L6.278,2.765c0-0.256,0.068-0.426,0.208-0.512&#13;&#10;&#9;&#9;c0.139-0.085,0.378-0.128,0.72-0.128c1.024,0,1.536,0.214,1.536,0.64c0,0.128-0.064,0.262-0.192,0.4&#13;&#10;&#9;&#9;C8.422,3.304,8.305,3.912,8.198,4.989c-0.107,1.078-0.16,1.899-0.16,2.464c0,0.565,0.042,0.912,0.128,1.04&#13;&#10;&#9;&#9;c0.085,0.128,0.219,0.192,0.4,0.192c0.181,0,0.41-0.016,0.688-0.048c0.277-0.032,0.565-0.048,0.864-0.048s0.826,0.08,1.584,0.24&#13;&#10;&#9;&#9;C12.459,8.989,12.838,9.271,12.838,9.677z M8.678,16.845c0.256,0,0.464-0.075,0.624-0.224c0.16-0.149,0.288-0.561,0.384-1.232&#13;&#10;&#9;&#9;c0.097-0.672,0.145-1.253,0.145-1.744c0-1.024-0.166-1.76-0.496-2.208c-0.331-0.448-0.603-0.672-0.816-0.672&#13;&#10;&#9;&#9;c-0.213,0-0.341,0.064-0.384,0.192S8.07,11.479,8.07,12.141c0,0.662-0.021,1.355-0.064,2.08L7.91,16.076&#13;&#10;&#9;&#9;C7.91,16.589,8.166,16.845,8.678,16.845z M28.294,25.133c0,0.618-0.032,1.023-0.096,1.216c-0.064,0.192-0.256,0.288-0.576,0.288&#13;&#10;&#9;&#9;s-1.056-0.188-2.208-0.561s-2.059-0.795-2.72-1.264c-0.662-0.469-1.275-1.125-1.84-1.968c-0.566-0.843-0.966-1.616-1.2-2.319&#13;&#10;&#9;&#9;c-0.235-0.705-0.396-1.803-0.48-3.297c-0.021-0.277-0.091-0.48-0.208-0.607c-0.117-0.129-0.464-0.299-1.04-0.512&#13;&#10;&#9;&#9;c-0.576-0.214-1.099-0.321-1.567-0.321c-0.363,0-0.619,0.224-0.769,0.672c-0.171,0.555-0.416,1.056-0.735,1.504&#13;&#10;&#9;&#9;c-0.576,0.768-0.864,1.877-0.864,3.328c0,0.576-0.166,1.029-0.496,1.359c-0.331,0.332-0.678,0.582-1.04,0.752&#13;&#10;&#9;&#9;c-0.363,0.172-0.726,0.363-1.088,0.576c-0.363,0.213-0.779,0.32-1.248,0.32c-0.747,0-1.12-0.092-1.12-0.271&#13;&#10;&#9;&#9;c0-0.182,0.139-0.379,0.416-0.593c1.557-1.216,2.773-2.868,3.648-4.96c0.874-2.09,1.312-4.597,1.312-7.52&#13;&#10;&#9;&#9;c0-1.643-0.139-2.645-0.416-3.008c-0.086-0.106-0.128-0.224-0.128-0.352c0-0.32,0.271-0.544,0.816-0.672&#13;&#10;&#9;&#9;c0.544-0.128,1.498-0.469,2.863-1.024s2.464-0.832,3.296-0.832s1.445,0.123,1.841,0.368c0.394,0.246,0.592,0.47,0.592,0.672&#13;&#10;&#9;&#9;s-0.064,0.411-0.192,0.624c-0.555,0.896-0.938,1.691-1.152,2.384c-0.213,0.693-0.41,1.941-0.592,3.744s-0.271,3.035-0.271,3.696&#13;&#10;&#9;&#9;c0,2.262,0.522,3.969,1.567,5.12s1.877,1.728,2.496,1.728c0.448,0,0.757-0.367,0.929-1.104c0.17-0.736,0.319-2.32,0.447-4.752&#13;&#10;&#9;&#9;c0.043-0.619,0.123-0.928,0.24-0.928s0.267,0.271,0.448,0.815c0.181,0.544,0.293,1.136,0.336,1.776&#13;&#10;&#9;&#9;c0.042,0.64,0.187,1.408,0.432,2.304S28.294,23.618,28.294,25.133z M18.726,13.837c0.214,0,0.331-0.187,0.353-0.56&#13;&#10;&#9;&#9;c0.021-0.373,0.08-1.051,0.176-2.032c0.096-0.981,0.145-1.621,0.145-1.92c0-0.555-0.086-0.949-0.257-1.184&#13;&#10;&#9;&#9;c-0.171-0.234-0.475-0.352-0.911-0.352c-0.438,0-0.753,0.07-0.944,0.208c-0.192,0.139-0.353,0.39-0.48,0.752&#13;&#10;&#9;&#9;c-0.128,0.363-0.191,0.736-0.191,1.12c0,0.384-0.012,0.704-0.032,0.96L16.518,11.5c0,0.406,0.325,0.896,0.977,1.472&#13;&#10;&#9;&#9;C18.145,13.549,18.555,13.837,18.726,13.837z" stroke-width="1"/>
    </g>
    <g/>
    <g/>
    <g/>
    <g/>
    <g/>
    <g/>
    <g/>
    <g/>
    <g/>
    <g/>
    <g/>
    <g/>
    <g/>
    <g/>
    <g/>
  </g>
</svg>