<svg xmlns="http://www.w3.org/2000/svg" xmlns:xlink="http://www.w3.org/1999/xlink" version="1.1" id="图层_1" x="0px" y="0px" width="24.648000717163086" height="22.567001342773438" viewBox="2.977999210357666 3.678999900817871 24.648000717163086 22.567001342773438" enable-background="new 0 0 30 30" xml:space="preserve">
<g>
	<path fill="#0000FF" d="M10.839,14.738c0,0.512-0.139,1.291-0.416,2.336c-0.277,1.046-0.587,1.952-0.928,2.721l-2.145,4.447   c-0.363,0.747-0.597,1.185-0.704,1.313c-0.107,0.128-0.246,0.191-0.416,0.191c-0.341,0-0.885-0.438-1.632-1.312   c-0.747-0.874-1.12-2.08-1.12-3.616c0-0.854,0.112-1.973,0.336-3.359s0.384-2.305,0.48-2.752c0.096-0.448,0.144-0.832,0.144-1.152   l-0.032-0.704c0-0.448,0.192-0.672,0.576-0.672c0.384,0,0.869,0.101,1.456,0.304c0.586,0.203,0.88,0.454,0.88,0.752   c0,0.299-0.214,0.683-0.64,1.152c-0.747,0.811-1.344,1.766-1.792,2.863c-0.448,1.1-0.672,2.16-0.672,3.185   c0,1.259,0.277,1.888,0.832,1.888c0.427,0,1.019-0.426,1.776-1.279s1.861-2.806,3.312-5.856c0.234-0.512,0.411-0.768,0.528-0.768   S10.839,14.525,10.839,14.738z M7.319,4.179c0.213,0,0.384,0.16,0.512,0.48c0.128,0.32,0.395,0.651,0.8,0.992l1.12,1.184   c1.024,1.045,1.536,1.686,1.536,1.92c0,0.149-0.149,0.363-0.448,0.64c-0.299,0.277-0.656,0.416-1.072,0.416   S8.785,9.646,8.071,9.314c-0.715-0.331-1.163-0.64-1.344-0.928c-0.182-0.288-0.272-0.848-0.272-1.68   c0-0.405,0.085-0.928,0.256-1.568C6.881,4.499,7.084,4.179,7.319,4.179z M24.983,18.771c0.575,0,0.948,0.288,1.119,0.864   c0.129,0.49,0.31,0.896,0.545,1.216c0.319,0.448,0.479,0.896,0.479,1.344s-0.075,0.673-0.224,0.673   c-0.149,0-0.363-0.064-0.641-0.193c-1.322-0.639-3.552-0.959-6.688-0.959c-1.536,0-3.131,0.085-4.784,0.256s-2.875,0.438-3.664,0.8   c-0.299,0.128-0.539,0.192-0.72,0.192c-0.182,0-0.348-0.246-0.496-0.736c-0.149-0.49-0.225-0.811-0.225-0.96   s0.037-0.245,0.112-0.288c0.074-0.043,0.219-0.064,0.433-0.064c0.469,0,1.386-0.202,2.752-0.607   c1.364-0.405,2.138-0.619,2.319-0.641c0.182-0.021,0.347-0.122,0.496-0.304c0.149-0.181,0.347-0.853,0.592-2.016   s0.368-2.106,0.368-2.832c0-0.725-0.043-1.163-0.128-1.312c-0.085-0.149-0.347-0.224-0.784-0.224s-0.763,0.048-0.976,0.144   c-0.214,0.096-0.396,0.144-0.544,0.144c-0.405,0-0.608-0.373-0.608-1.12c0-0.747-0.043-1.291-0.128-1.632s-0.128-0.576-0.128-0.704   c0-0.405,0.16-0.608,0.48-0.608c0.063,0,0.165,0.021,0.304,0.064c0.139,0.043,0.304,0.064,0.496,0.064   c0.64,0,3.168-0.405,7.584-1.216c0.384-0.085,0.692-0.128,0.928-0.128c0.49,0,0.693,0.182,0.608,0.544   c-0.043,0.213-0.064,0.384-0.064,0.512s0.011,0.24,0.032,0.336c0.021,0.096,0.032,0.208,0.032,0.336s-0.145,0.31-0.433,0.544   c-0.288,0.235-0.965,0.715-2.031,1.44c-0.192,0.149-0.342,0.309-0.448,0.48c-0.107,0.171-0.288,0.619-0.544,1.344   c-0.256,0.726-0.422,1.222-0.496,1.488c-0.075,0.267-0.112,0.581-0.112,0.944c0,0.362-0.096,0.768-0.288,1.215   c-0.149,0.342-0.224,0.727-0.224,1.152c0,0.428,0.112,0.651,0.336,0.672c0.224,0.021,0.976,0.032,2.256,0.032   s2.091-0.042,2.432-0.128C24.652,18.813,24.876,18.771,24.983,18.771z" stroke-width="1"/>
</g>
</svg>