<svg xmlns="http://www.w3.org/2000/svg" xmlns:xlink="http://www.w3.org/1999/xlink" version="1.1" id="图层_1" x="0px" y="0px" width="28.29899787902832" height="26.345003128051758" viewBox="0.3530008792877197 1.9179999828338623 28.29899787902832 26.345003128051758" enable-background="new 0 0 30 30" xml:space="preserve">
<g>
	<path fill="#0000FF" d="M18.903,19.699c0,0.063,0.016,0.122,0.048,0.176c0.032,0.053,0.219,0.229,0.56,0.527l1.376,1.12   c0.555,0.47,0.977,0.8,1.265,0.992s0.762,0.432,1.424,0.72c0.661,0.288,1.504,0.704,2.527,1.248   c1.024,0.544,1.621,0.917,1.792,1.12c0.171,0.202,0.257,0.384,0.257,0.544s-0.225,0.305-0.673,0.432   c-0.447,0.129-0.981,0.192-1.6,0.192c-0.619,0-1.296-0.08-2.032-0.239c-0.735-0.16-1.397-0.363-1.983-0.609   c-0.587-0.244-0.912-0.404-0.977-0.479c-0.063-0.075-0.117-0.219-0.16-0.432c-0.106-0.938-0.293-1.627-0.56-2.064   c-0.267-0.437-0.944-0.794-2.032-1.071c-0.299-0.086-0.512-0.154-0.64-0.209c-0.128-0.053-0.229-0.08-0.304-0.08   c-0.075,0-0.155,0.043-0.24,0.129c-0.896,0.811-1.984,1.301-3.265,1.472c-0.234,0.021-0.357,0.085-0.367,0.192   c-0.012,0.106-0.027,0.438-0.049,0.992c-0.021,0.554-0.031,1.023-0.031,1.407l0.031,1.185c0,0.533-0.144,0.799-0.432,0.799   s-0.65-0.139-1.088-0.416s-0.656-0.5-0.656-0.672c0-0.085,0.097-0.219,0.288-0.399c0.192-0.181,0.325-0.362,0.4-0.544   c0.074-0.182,0.111-0.496,0.111-0.943l0.032-3.904c0-0.213-0.026-0.32-0.08-0.32c-0.053,0-0.123,0.043-0.208,0.128   c-0.469,0.534-1.429,1.195-2.88,1.983c-0.576,0.342-1.344,0.849-2.304,1.521c-0.96,0.673-1.531,1.114-1.712,1.328   c-0.182,0.213-0.342,0.319-0.48,0.319c-0.139,0-0.384-0.191-0.736-0.575s-0.528-0.731-0.528-1.04s0.096-0.48,0.288-0.512   c0.192-0.032,0.501-0.16,0.928-0.385c0.427-0.224,0.779-0.441,1.056-0.656l1.376-0.863c0.192-0.106,0.309-0.262,0.352-0.464   c0.042-0.202,0.064-0.726,0.064-1.568s-0.016-1.663-0.048-2.464c-0.032-0.8-0.075-1.52-0.128-2.16   c-0.054-0.64-0.096-0.986-0.128-1.04c-0.032-0.053-0.091-0.091-0.176-0.112c-0.085-0.021-0.224-0.032-0.416-0.032   c-1.259,0-2.678,0.331-4.256,0.992c-0.192,0.085-0.342,0.128-0.448,0.128c-0.235,0-0.395-0.24-0.48-0.72   c-0.085-0.48-0.128-0.8-0.128-0.96c0-0.16,0.042-0.261,0.128-0.304c0.085-0.042,0.181-0.059,0.288-0.048   c0.106,0.011,0.192,0.016,0.256,0.016c0.938,0,3.36-0.411,7.264-1.232c3.904-0.821,6.73-1.264,8.479-1.328   c0.619-0.021,1.653-0.117,3.104-0.288c1.45-0.17,2.299-0.298,2.544-0.384c0.245-0.085,0.469-0.128,0.672-0.128   s0.438,0.235,0.704,0.704c0.267,0.47,0.4,0.886,0.4,1.248c0,0.875-0.192,1.312-0.576,1.312c-0.192,0-1.078-0.245-2.656-0.736   c-0.448-0.171-1.051-0.256-1.808-0.256c-0.758,0-1.824,0.096-3.2,0.288s-2.107,0.315-2.192,0.368s-0.191,0.427-0.319,1.12   s-0.192,1.259-0.192,1.696c0,0.438,0.064,0.742,0.192,0.913c0.128,0.17,0.352,0.389,0.672,0.655   c0.319,0.267,0.624,0.464,0.912,0.593c0.288,0.127,0.64,0.324,1.056,0.592c0.416,0.267,0.645,0.399,0.688,0.399   c0.149,0,0.331-0.229,0.545-0.688c0.213-0.458,0.319-0.9,0.319-1.327c0-0.811-0.256-1.216-0.768-1.216   c-0.32,0-0.684,0.192-1.088,0.577c-0.406,0.383-0.688,0.576-0.849,0.576s-0.319-0.059-0.479-0.177   c-0.16-0.117-0.24-0.282-0.24-0.496c0-0.213,0.24-0.496,0.72-0.848c0.48-0.352,1.094-0.629,1.84-0.832   c0.747-0.203,1.365-0.304,1.856-0.304c0.32,0,0.811,0.118,1.472,0.352c0.661,0.235,0.992,0.459,0.992,0.672   c0,0.149-0.123,0.336-0.368,0.56s-0.518,0.667-0.815,1.329c-0.534,1.088-1.003,1.951-1.408,2.592   C18.935,19.485,18.903,19.592,18.903,19.699z M21.271,4.531c0,0.128-0.091,0.304-0.271,0.528c-0.182,0.224-0.475,0.784-0.88,1.68   s-0.87,1.648-1.393,2.256s-0.971,0.912-1.344,0.912s-0.757-0.085-1.151-0.256c-0.396-0.17-0.859-0.256-1.393-0.256   s-1.579,0.31-3.136,0.928c-0.064,0.021-0.117,0.032-0.16,0.032c-0.256,0-0.651-0.309-1.184-0.928   C9.825,8.808,9.404,7.965,9.095,6.898c-0.31-1.066-0.464-1.787-0.464-2.16c0-0.373,0.117-0.693,0.353-0.96   c0.234-0.266,0.549-0.416,0.943-0.448c0.395-0.032,1.328-0.219,2.8-0.56c0.875-0.234,1.899-0.352,3.072-0.352   s2.379,0.267,3.616,0.8S21.271,4.189,21.271,4.531z M9.303,20.307c0.043,0,0.106-0.021,0.192-0.064   c0.597-0.362,1.322-0.746,2.176-1.152c0.149-0.063,0.245-0.207,0.288-0.432c0.043-0.224,0.064-0.656,0.064-1.296   s-0.027-1.407-0.08-2.304c-0.054-0.896-0.102-1.44-0.145-1.632c-0.043-0.192-0.112-0.288-0.208-0.288s-0.427,0.053-0.992,0.16   c-0.565,0.107-0.88,0.187-0.943,0.24c-0.064,0.053-0.097,0.176-0.097,0.368c0,0.192,0.032,0.325,0.097,0.4   c0.063,0.075,0.245,0.112,0.544,0.112c0.49,0,0.794,0.054,0.912,0.16c0.116,0.107,0.176,0.293,0.176,0.56   c0,0.267-0.043,0.447-0.128,0.544c-0.086,0.096-0.315,0.197-0.688,0.304c-0.373,0.107-0.598,0.197-0.672,0.271   c-0.075,0.076-0.165,0.16-0.271,0.257c-0.107,0.096-0.16,0.251-0.16,0.464c0,0.128,0.144,0.176,0.432,0.145   c0.288-0.033,0.555-0.049,0.8-0.049s0.368,0.07,0.368,0.209s-0.043,0.336-0.128,0.592s-0.235,0.463-0.448,0.623   s-0.544,0.348-0.991,0.561c-0.192,0.086-0.288,0.314-0.288,0.688C9.111,20.12,9.175,20.307,9.303,20.307z M12.119,8.531   c0.17,0,0.448-0.053,0.832-0.16c1.28-0.32,2.421-0.491,3.424-0.512c0.597-0.021,1.034-0.395,1.312-1.12   c0.277-0.725,0.416-1.269,0.416-1.632c0-1.024-0.672-1.536-2.016-1.536c-0.491,0-1.131,0.118-1.92,0.352l-1.824,0.576   c-0.427,0.128-0.704,0.347-0.832,0.656c-0.128,0.31-0.191,0.79-0.191,1.44s0.059,1.136,0.176,1.456   C11.612,8.371,11.82,8.531,12.119,8.531z M15.415,5.042c0.555,0,0.832,0.198,0.832,0.592c0,0.395-0.453,0.742-1.36,1.04   c-0.906,0.299-1.627,0.448-2.16,0.448c-0.213,0-0.347-0.08-0.399-0.24c-0.054-0.16-0.08-0.389-0.08-0.688   c0-0.298,0.021-0.48,0.063-0.544s0.16-0.096,0.353-0.096s0.41-0.053,0.656-0.16c0.245-0.106,0.581-0.192,1.008-0.256   S15.116,5.042,15.415,5.042z M15.607,20.69c0.063-0.063,0.096-0.138,0.096-0.224c0-0.256-0.24-0.555-0.72-0.896   c-0.48-0.341-0.859-0.512-1.137-0.512c-0.128,0-0.191,0.064-0.191,0.191c-0.043,0.79-0.097,1.382-0.16,1.776   c-0.064,0.396-0.096,0.72-0.096,0.976s0.042,0.385,0.128,0.385c0.085,0,0.159-0.032,0.224-0.096L15.607,20.69z" stroke-width="1"/>
</g>
</svg>