<svg xmlns="http://www.w3.org/2000/svg" xmlns:xlink="http://www.w3.org/1999/xlink" version="1.1" id="图层_1" x="0px" y="0px" width="25.286998748779297" height="28.294998168945312" viewBox="1.5870037078857422 0.4090014100074768 25.286998748779297 28.294998168945312" style="enable-background:new 0 0 30 30;" xml:space="preserve">
  <g>
    <g>
      <path style="fill:#0000FF;" d="M24.422,8.876c0.256,0,0.48,0.102,0.672,0.304c0.192,0.203,0.453,0.587,0.784,1.152&#13;&#10;&#9;&#9;c0.331,0.566,0.496,0.971,0.496,1.216c0,0.246-0.182,0.405-0.544,0.48c-0.363,0.075-1.056,0.112-2.08,0.112&#13;&#10;&#9;&#9;s-1.563,0.059-1.616,0.176s-0.08,0.336-0.08,0.656c0,1.195,0.043,3.125,0.128,5.792s0.171,4.464,0.257,5.392&#13;&#10;&#9;&#9;c0.085,0.928,0.196,1.701,0.336,2.32c0.138,0.619,0.208,0.992,0.208,1.12c0,0.405-0.22,0.608-0.656,0.608&#13;&#10;&#9;&#9;c-0.438,0-1.499-0.268-3.185-0.801s-2.683-0.879-2.991-1.039c-0.31-0.16-0.758-0.492-1.345-0.992&#13;&#10;&#9;&#9;c-0.587-0.502-0.88-0.838-0.88-1.008c0-0.172,0.106-0.256,0.32-0.256c0.213,0,0.479,0.042,0.8,0.127&#13;&#10;&#9;&#9;c1.643,0.363,2.763,0.545,3.36,0.545c0.597,0,1.008-0.07,1.231-0.209c0.225-0.139,0.336-0.405,0.336-0.8&#13;&#10;&#9;&#9;c0-0.394-0.074-2.021-0.224-4.88c-0.149-2.858-0.251-4.49-0.304-4.896c-0.054-0.405-0.134-0.683-0.24-0.832&#13;&#10;&#9;&#9;c-0.107-0.149-0.299-0.213-0.576-0.192c-0.277,0.021-0.795,0.032-1.552,0.032c-0.758,0-1.291,0.059-1.601,0.176&#13;&#10;&#9;&#9;c-0.309,0.118-0.464,0.272-0.464,0.464c0,0.192,0.325,0.683,0.977,1.472c0.65,0.79,1.088,1.275,1.312,1.456&#13;&#10;&#9;&#9;c0.225,0.182,0.336,0.342,0.336,0.48s-0.16,0.4-0.479,0.784l-0.864,0.991c-0.256,0.256-0.491,0.385-0.704,0.385&#13;&#10;&#9;&#9;c-0.363,0-0.565-0.245-0.607-0.736c-0.149-0.875-0.374-1.701-0.673-2.48c-0.299-0.778-0.49-1.227-0.575-1.344&#13;&#10;&#9;&#9;c-0.086-0.117-0.208-0.213-0.368-0.288s-0.31-0.229-0.448-0.464s-0.347-0.507-0.624-0.816c-0.277-0.309-0.512-0.464-0.704-0.464&#13;&#10;&#9;&#9;c-0.191,0-0.416,0.08-0.672,0.24c-0.256,0.16-0.384,0.4-0.384,0.72c0,0.32,0.213,0.565,0.64,0.736&#13;&#10;&#9;&#9;c0.277,0.128,0.549,0.4,0.816,0.816c0.267,0.416,0.399,0.768,0.399,1.056c0,0.288-0.063,0.518-0.191,0.688&#13;&#10;&#9;&#9;s-0.256,0.256-0.384,0.256c-0.129,0-0.294-0.032-0.496-0.096c-0.203-0.064-0.353-0.129-0.448-0.192s-0.166-0.097-0.208-0.097&#13;&#10;&#9;&#9;c-0.171,0-0.256,0.268-0.256,0.801c0,1.195-0.054,2.4-0.16,3.615c-0.107,1.217-0.16,2.188-0.16,2.912l0.064,1.248&#13;&#10;&#9;&#9;c0,0.513-0.235,0.769-0.704,0.769c-0.171,0-0.476-0.106-0.912-0.32c-0.438-0.214-0.656-0.427-0.656-0.64s0.011-0.406,0.032-0.576&#13;&#10;&#9;&#9;c0.191-1.6,0.288-3.253,0.288-4.96c0-0.704-0.038-1.056-0.112-1.056c-0.075,0-0.176,0.063-0.304,0.191&#13;&#10;&#9;&#9;c-1.003,0.789-2,1.5-2.992,2.129s-1.584,0.943-1.776,0.943c-0.299,0-0.528-0.08-0.688-0.24c-0.16-0.16-0.24-0.367-0.24-0.623&#13;&#10;&#9;&#9;c0-0.257,0.117-0.47,0.352-0.641c0.875-0.576,1.387-0.928,1.536-1.057c0.149-0.127,0.32-0.309,0.512-0.543&#13;&#10;&#9;&#9;c0.427-0.619,0.949-1.227,1.568-1.824c0.619-0.598,1.051-1.152,1.296-1.664c0.245-0.512,0.368-0.832,0.368-0.96&#13;&#10;&#9;&#9;c0-0.128-0.032-0.192-0.096-0.192c-0.064,0-0.357,0.112-0.88,0.336c-0.523,0.224-0.934,0.432-1.232,0.624&#13;&#10;&#9;&#9;c-0.576,0.406-0.992,0.608-1.248,0.608c-0.256,0-0.47-0.101-0.64-0.304c-0.171-0.203-0.363-0.608-0.576-1.216&#13;&#10;&#9;&#9;c-0.213-0.608-0.32-1.072-0.32-1.392c0-0.32,0.112-0.555,0.336-0.704c0.224-0.149,0.549-0.234,0.976-0.256&#13;&#10;&#9;&#9;c0.426-0.021,0.986-0.117,1.68-0.288c0.693-0.17,1.178-0.314,1.456-0.432c0.277-0.117,0.522-0.208,0.736-0.272&#13;&#10;&#9;&#9;c0.213-0.064,0.352-0.133,0.416-0.208c0.063-0.074,0.117-0.272,0.16-0.592l0.16-1.632C8.71,7.586,8.769,6.792,8.822,5.949&#13;&#10;&#9;&#9;c0.053-0.843,0.08-1.509,0.08-2v-1.28c0-0.384,0.165-0.576,0.496-0.576c0.33,0,0.863,0.123,1.6,0.368&#13;&#10;&#9;&#9;c0.736,0.246,1.104,0.539,1.104,0.88c0,0.085-0.031,0.171-0.096,0.256c-0.342,0.47-0.656,1.52-0.943,3.152&#13;&#10;&#9;&#9;c-0.288,1.632-0.433,2.587-0.433,2.864c0,0.277,0.106,0.416,0.32,0.416c0.213,0,0.432-0.021,0.656-0.064&#13;&#10;&#9;&#9;c0.224-0.042,0.367-0.064,0.432-0.064c0.234,0,0.544,0.309,0.928,0.928c0.128,0.235,0.373,0.352,0.736,0.352&#13;&#10;&#9;&#9;c0.362,0,0.928-0.106,1.696-0.32l2.271-0.576c0.704-0.192,1.12-0.298,1.248-0.32c0.128-0.021,0.229-0.096,0.304-0.224&#13;&#10;&#9;&#9;c0.075-0.128,0.112-0.597,0.112-1.408c0-0.811,0.032-1.632,0.096-2.464c0.064-0.832,0.097-1.6,0.097-2.304l-0.064-2.016&#13;&#10;&#9;&#9;c0-0.427,0.149-0.64,0.448-0.64s0.709,0.149,1.231,0.448s0.881,0.56,1.072,0.784c0.192,0.224,0.288,0.598,0.288,1.12&#13;&#10;&#9;&#9;c0,0.523-0.171,1.712-0.512,3.568c-0.021,0.107-0.032,0.779-0.032,2.016c0,0.107,0.053,0.203,0.16,0.288&#13;&#10;&#9;&#9;c0.106,0.085,0.213,0.117,0.32,0.096C23.526,8.994,24.188,8.876,24.422,8.876z" stroke-width="1"/>
    </g>
    <g/>
    <g/>
    <g/>
    <g/>
    <g/>
    <g/>
    <g/>
    <g/>
    <g/>
    <g/>
    <g/>
    <g/>
    <g/>
    <g/>
    <g/>
  </g>
</svg>