<svg xmlns="http://www.w3.org/2000/svg" xmlns:xlink="http://www.w3.org/1999/xlink" version="1.1" id="图层_1" x="0px" y="0px" width="22.72800064086914" height="30.406999588012695" viewBox="3.633999824523926 -0.7430003583431244 22.72800064086914 30.406999588012695" style="enable-background:new 0 0 30 30;" xml:space="preserve">
  <g>
    <g>
      <path style="fill:#0000FF;" d="M7.014,11.245c0,0.192,0.043,0.411,0.128,0.656s0.129,0.453,0.129,0.624&#13;&#10;&#9;&#9;c0,0.512-0.268,0.768-0.801,0.768c-0.213,0-0.479-0.064-0.8-0.192c-0.32-0.128-0.656-0.245-1.008-0.352&#13;&#10;&#9;&#9;c-0.352-0.106-0.528-0.277-0.528-0.512s0.192-0.592,0.576-1.072c0.384-0.48,0.8-0.837,1.248-1.072&#13;&#10;&#9;&#9;C6.406,9.858,6.71,9.741,6.87,9.741s0.24,0.256,0.24,0.768c0,0.128-0.017,0.256-0.048,0.384C7.03,11.021,7.014,11.138,7.014,11.245&#13;&#10;&#9;&#9;z M13.382,5.037c0-0.17-0.08-0.256-0.24-0.256c-0.159,0-0.389,0.149-0.688,0.448c-0.704,0.704-1.317,1.195-1.84,1.472&#13;&#10;&#9;&#9;c-0.523,0.277-0.886,0.518-1.088,0.72C9.323,7.624,9.147,7.725,8.998,7.725c-0.299,0-0.523-0.256-0.672-0.768&#13;&#10;&#9;&#9;c-0.149-0.512-0.31-0.858-0.48-1.04C7.675,5.736,7.59,5.613,7.59,5.549c0-0.192,0.641-0.453,1.92-0.784&#13;&#10;&#9;&#9;c1.28-0.331,2.421-0.517,3.424-0.56c0.192-0.021,0.325-0.08,0.4-0.176c0.074-0.096,0.139-0.549,0.192-1.36&#13;&#10;&#9;&#9;c0.053-0.81,0.08-1.317,0.08-1.52s-0.043-0.384-0.129-0.544c-0.085-0.16-0.128-0.282-0.128-0.368c0-0.32,0.331-0.48,0.992-0.48&#13;&#10;&#9;&#9;c0.299,0,0.709,0.112,1.232,0.336c0.522,0.224,0.784,0.496,0.784,0.816s-0.128,0.629-0.385,0.928&#13;&#10;&#9;&#9;c-0.362,0.405-0.544,1.376-0.544,2.912c0,0.043,0.032,0.064,0.097,0.064c0.063,0,0.159-0.053,0.288-0.16&#13;&#10;&#9;&#9;c1.13-0.875,2.048-1.472,2.752-1.792c0.384-0.17,0.672-0.405,0.863-0.704c0.192-0.298,0.373-0.448,0.544-0.448&#13;&#10;&#9;&#9;s0.565,0.229,1.185,0.688c0.618,0.459,0.928,0.774,0.928,0.944c0,0.171-0.214,0.304-0.64,0.4c-0.428,0.096-1.158,0.331-2.192,0.704&#13;&#10;&#9;&#9;c-1.035,0.374-2.149,0.72-3.344,1.04c-0.32,0.085-0.48,0.267-0.48,0.544s0.064,0.48,0.192,0.608s0.267,0.192,0.416,0.192&#13;&#10;&#9;&#9;l1.664-0.064c0.874,0,1.824,0.048,2.848,0.144c1.024,0.096,1.717,0.229,2.08,0.4c0.362,0.171,0.917,0.646,1.664,1.424&#13;&#10;&#9;&#9;c0.746,0.779,1.194,1.365,1.344,1.76c0.149,0.395,0.225,0.651,0.225,0.768c0,0.118-0.032,0.208-0.097,0.272&#13;&#10;&#9;&#9;c-0.063,0.064-0.518,0.123-1.359,0.176c-0.843,0.054-1.478,0.08-1.904,0.08s-0.821-0.069-1.184-0.208&#13;&#10;&#9;&#9;c-0.363-0.138-0.544-0.245-0.544-0.32c0-0.075,0.218-0.181,0.655-0.32s0.773-0.347,1.009-0.624C22.673,10.04,22.79,9.768,22.79,9.5&#13;&#10;&#9;&#9;c0-0.266-0.208-0.586-0.624-0.96c-0.416-0.373-1.136-0.56-2.16-0.56c-1.023,0-1.861,0.112-2.512,0.336&#13;&#10;&#9;&#9;c-0.651,0.224-1.504,0.405-2.561,0.544C13.878,9,13.003,9.069,12.31,9.069s-1.296,0.037-1.808,0.112&#13;&#10;&#9;&#9;c-0.512,0.075-0.886,0.155-1.12,0.24C9.147,9.506,8.971,9.549,8.854,9.549c-0.118,0-0.177-0.101-0.177-0.304&#13;&#10;&#9;&#9;c0-0.203,0.08-0.357,0.24-0.464c0.16-0.106,0.389-0.187,0.688-0.24c0.298-0.053,0.682-0.202,1.151-0.448&#13;&#10;&#9;&#9;c0.469-0.245,1.173-0.475,2.112-0.688c0.341-0.064,0.512-0.288,0.512-0.672V5.037z M22.438,17.645c0,0.15-0.075,0.326-0.225,0.528&#13;&#10;&#9;&#9;s-0.31,0.512-0.479,0.928c-0.171,0.416-0.278,0.773-0.32,1.072c-0.149,0.938-0.396,1.792-0.736,2.56l-0.704,1.504&#13;&#10;&#9;&#9;c-0.106,0.234-0.239,0.353-0.399,0.353s-0.331-0.048-0.512-0.144c-0.182-0.097-0.604-0.268-1.265-0.513s-1.237-0.549-1.728-0.912&#13;&#10;&#9;&#9;c-0.107-0.085-0.198-0.128-0.272-0.128c-0.075,0-0.112,0.182-0.112,0.544c0,0.896-0.026,1.829-0.079,2.8&#13;&#10;&#9;&#9;c-0.054,0.971-0.129,1.658-0.225,2.064c-0.096,0.404-0.319,0.65-0.672,0.736c-0.352,0.084-0.624,0.127-0.816,0.127&#13;&#10;&#9;&#9;c-0.319,0-0.479-0.159-0.479-0.479c0-0.319,0.042-0.837,0.128-1.552c0.085-0.715,0.128-1.68,0.128-2.896&#13;&#10;&#9;&#9;c0-1.216-0.021-2.469-0.063-3.76c-0.043-1.291-0.086-2.005-0.129-2.145c-0.043-0.138-0.139-0.207-0.287-0.207&#13;&#10;&#9;&#9;c-0.15,0-0.508,0.123-1.072,0.367c-0.565,0.246-0.944,0.454-1.136,0.625c-0.192,0.17-0.278,0.459-0.257,0.863&#13;&#10;&#9;&#9;c0.021,0.406,0.032,0.816,0.032,1.232s-0.021,0.832-0.063,1.248c-0.043,0.416-0.171,0.699-0.385,0.848&#13;&#10;&#9;&#9;c-0.213,0.149-0.438,0.225-0.672,0.225c-0.171,0-0.331-0.182-0.479-0.545c-0.149-0.362-0.304-0.986-0.464-1.871&#13;&#10;&#9;&#9;s-0.24-1.681-0.24-2.385c0-0.299,0.069-0.533,0.208-0.703c0.139-0.171,0.64-0.369,1.504-0.593s1.733-0.421,2.608-0.592&#13;&#10;&#9;&#9;c0.319-0.063,0.479-0.224,0.479-0.479L13.19,15.98c-0.043-0.298-0.182-0.448-0.416-0.448c-0.235,0-0.443-0.059-0.624-0.176&#13;&#10;&#9;&#9;c-0.182-0.117-0.48-0.443-0.896-0.976s-0.715-1.029-0.896-1.488c-0.182-0.458-0.272-0.848-0.272-1.168&#13;&#10;&#9;&#9;c0-0.426,0.197-0.661,0.592-0.704c0.395-0.042,0.709-0.106,0.944-0.192c0.618-0.234,1.515-0.437,2.688-0.608&#13;&#10;&#9;&#9;c1.174-0.17,2.064-0.256,2.673-0.256c0.607,0,1.082,0.102,1.424,0.304c0.341,0.203,0.704,0.432,1.088,0.688&#13;&#10;&#9;&#9;c0.384,0.256,0.576,0.47,0.576,0.64c0,0.171-0.22,0.395-0.656,0.672c-0.438,0.278-0.71,0.518-0.816,0.72&#13;&#10;&#9;&#9;c-0.106,0.203-0.234,0.598-0.384,1.184c-0.149,0.587-0.555,0.88-1.216,0.88c-0.405,0-0.661,0.133-0.768,0.4&#13;&#10;&#9;&#9;c-0.107,0.267-0.16,0.47-0.16,0.608c0,0.139,0.117,0.208,0.352,0.208l1.568-0.096c1.066,0,2.074,0.171,3.023,0.512&#13;&#10;&#9;&#9;C21.963,17.026,22.438,17.346,22.438,17.645z M13.414,13.677c0.448,0,0.965-0.085,1.552-0.256s0.88-0.587,0.88-1.248&#13;&#10;&#9;&#9;s-0.187-0.992-0.56-0.992c-0.374,0-0.896,0.187-1.568,0.56c-0.672,0.374-1.008,0.752-1.008,1.136&#13;&#10;&#9;&#9;C12.71,13.41,12.944,13.677,13.414,13.677z M17.478,22.349c0.299,0,0.581-0.074,0.849-0.224c0.267-0.149,0.501-0.646,0.704-1.488&#13;&#10;&#9;&#9;c0.202-0.842,0.304-1.498,0.304-1.969c0-0.469-0.182-0.794-0.544-0.975c-0.363-0.182-0.896-0.272-1.6-0.272&#13;&#10;&#9;&#9;c-0.704,0-1.163,0.069-1.376,0.208c-0.214,0.139-0.32,0.976-0.32,2.512c0,0.32,0.016,0.667,0.048,1.04&#13;&#10;&#9;&#9;c0.032,0.374,0.106,0.608,0.224,0.704s0.363,0.197,0.736,0.304C16.875,22.296,17.2,22.349,17.478,22.349z" stroke-width="1"/>
    </g>
    <g/>
    <g/>
    <g/>
    <g/>
    <g/>
    <g/>
    <g/>
    <g/>
    <g/>
    <g/>
    <g/>
    <g/>
    <g/>
    <g/>
    <g/>
  </g>
</svg>