<svg xmlns="http://www.w3.org/2000/svg" xmlns:xlink="http://www.w3.org/1999/xlink" version="1.1" id="图层_1" x="0px" y="0px" width="26.08700180053711" height="28.709999084472656" viewBox="0.5799975395202637 0.7990025281906128 26.08700180053711 28.709999084472656" enable-background="new 0 0 30 30" xml:space="preserve">
<g>
	<path fill="#0000FF" d="M24.983,7.827c0.17,0,0.314,0.075,0.432,0.224c0.117,0.15,0.271,0.534,0.464,1.152s0.288,1.083,0.288,1.392   s-0.096,0.464-0.288,0.464s-0.55-0.112-1.072-0.336c-0.522-0.224-1.279-0.421-2.271-0.592c-0.992-0.17-1.915-0.256-2.769-0.256   s-1.584,0.091-2.191,0.272c-0.608,0.182-1.275,0.272-2,0.272c-0.726,0-1.451,0.069-2.176,0.208   c-0.726,0.139-1.291,0.304-1.696,0.496s-1.131,0.411-2.176,0.656c-1.046,0.246-1.926,0.406-2.64,0.48   c-0.715,0.075-1.579,0.256-2.592,0.544c-1.014,0.288-1.659,0.512-1.936,0.672c-0.277,0.16-0.501,0.24-0.672,0.24   c-0.406,0-0.608-0.426-0.608-1.28c0-0.32,0.042-0.544,0.128-0.672c0.085-0.128,0.272-0.192,0.56-0.192s0.992-0.128,2.112-0.384   s2.331-0.603,3.632-1.04c1.301-0.437,2.251-0.741,2.849-0.912c0.597-0.17,1.093-0.346,1.487-0.528   c0.395-0.181,0.816-0.485,1.265-0.912l2.592-2.752c1.301-1.386,2.356-2.539,3.168-3.456c0.17-0.192,0.336-0.288,0.496-0.288   s0.533,0.224,1.12,0.672c0.586,0.448,0.88,0.752,0.88,0.912c0,0.16-0.214,0.293-0.641,0.4c-0.683,0.149-1.701,0.875-3.056,2.176   c-1.354,1.302-2.032,2.123-2.032,2.464c0,0.149,0.128,0.224,0.385,0.224c1.813-0.085,3.156-0.128,4.031-0.128   s1.482,0.016,1.824,0.048c0.341,0.032,0.656,0.048,0.944,0.048s0.714-0.048,1.279-0.144C24.668,7.875,24.962,7.827,24.983,7.827z    M14.135,13.938c0,0.192-0.091,0.4-0.271,0.624c-0.182,0.224-0.353,0.752-0.513,1.584c-0.159,0.832-0.229,1.6-0.208,2.305   l0.032,1.055c0,1.9-0.043,3.063-0.128,3.488c-0.214,1.408-0.32,2.539-0.32,3.393c-0.021,0.447-0.053,0.752-0.096,0.912   s-0.128,0.24-0.256,0.24c-0.277,0-0.907-0.326-1.888-0.977c-0.981-0.65-1.681-1.18-2.097-1.584   c-0.416-0.405-0.624-0.656-0.624-0.752s0.049-0.145,0.145-0.145s0.293,0.064,0.592,0.192c0.768,0.32,1.397,0.479,1.888,0.479   c0.277,0,0.453-0.187,0.528-0.56c0.074-0.373,0.112-0.89,0.112-1.552c0-0.661-0.021-1.072-0.064-1.232s-0.144-0.24-0.304-0.24   s-0.635,0.16-1.424,0.48c-0.79,0.32-1.254,0.555-1.393,0.704s-0.229,0.299-0.271,0.448c-0.043,0.149-0.128,1.023-0.256,2.624   c-0.064,0.575-0.332,0.864-0.8,0.864c-0.213,0-0.363-0.055-0.448-0.16c-0.085-0.107-0.128-0.528-0.128-1.264   c0-0.736,0.096-1.889,0.288-3.457s0.288-3.131,0.288-4.688l-0.064-1.536c0-0.234,0.112-0.453,0.336-0.656s0.485-0.331,0.784-0.384   c0.298-0.053,0.688-0.165,1.168-0.336c0.479-0.17,0.896-0.347,1.248-0.528c0.352-0.181,0.848-0.272,1.487-0.272   c0.32,0,0.843,0.075,1.568,0.224C13.772,13.384,14.135,13.619,14.135,13.938z M13.943,3.475c0,0.213-0.14,0.405-0.416,0.576   c-1.323,0.832-2.336,1.686-3.04,2.56c-0.428,0.534-0.801,0.8-1.12,0.8c-0.171,0-0.342-0.106-0.512-0.32   C8.684,6.877,8.279,6.482,7.639,5.907c-0.106-0.107-0.16-0.213-0.16-0.32c0-0.32,0.331-0.544,0.992-0.672s1.493-0.416,2.496-0.864   c1.322-0.618,2.149-0.928,2.48-0.928C13.777,3.123,13.943,3.24,13.943,3.475z M10.807,18.578v-0.224   c0-0.063-0.026-0.133-0.08-0.208c-0.053-0.074-0.111-0.111-0.176-0.111c-0.171,0-0.56,0.09-1.168,0.271   c-0.607,0.182-0.971,0.32-1.088,0.416s-0.203,0.271-0.256,0.527c-0.054,0.256-0.08,0.486-0.08,0.688   c0,0.203,0.053,0.304,0.16,0.304c0.106,0,0.309-0.068,0.607-0.207s0.854-0.348,1.664-0.625   C10.668,19.326,10.807,19.048,10.807,18.578z M10.871,15.891c0-0.704-0.235-1.056-0.704-1.056c-0.235,0-0.528,0.075-0.88,0.224   c-0.353,0.149-0.608,0.384-0.769,0.704c-0.159,0.319-0.239,0.581-0.239,0.784s0.08,0.304,0.239,0.304   c0.16,0,0.496-0.048,1.009-0.144c0.512-0.097,0.863-0.197,1.056-0.305C10.775,16.296,10.871,16.125,10.871,15.891z M20.727,16.69   c0,1.237,0.049,2.278,0.145,3.12c0.096,0.843,0.144,2.031,0.144,3.568c0,1.535,0.128,3.082,0.385,4.639   c0.042,0.258,0.063,0.486,0.063,0.689c0,0.201-0.112,0.303-0.336,0.303s-0.976-0.271-2.256-0.814   c-1.28-0.545-2.268-1.041-2.96-1.488c-0.693-0.449-1.04-0.742-1.04-0.881s0.08-0.207,0.24-0.207c0.159,0,0.404,0.037,0.735,0.111   s0.709,0.111,1.137,0.111c1.216,0,1.823-0.277,1.823-0.831c0-0.576-0.026-1.627-0.08-3.152c-0.053-1.524-0.101-2.512-0.144-2.96   c-0.235-2.965-0.352-4.88-0.352-5.744c0-0.864-0.027-1.36-0.08-1.488c-0.054-0.128-0.08-0.224-0.08-0.288   c0-0.256,0.304-0.384,0.912-0.384c0.607,0,1.125,0.038,1.552,0.112c0.427,0.075,0.692,0.149,0.8,0.224   c0.106,0.075,0.16,0.171,0.16,0.288s-0.064,0.251-0.192,0.4C20.919,12.531,20.727,14.088,20.727,16.69z M17.239,16.019   c0,0.063-0.012,0.118-0.032,0.16c-0.171,0.256-0.288,0.646-0.352,1.168c-0.064,0.522-0.097,1.53-0.097,3.024   c0,0.875-0.182,1.312-0.544,1.312c-0.149,0-0.347-0.054-0.592-0.16s-0.384-0.245-0.416-0.416s-0.048-0.672-0.048-1.504   s-0.021-1.536-0.064-2.112l-0.063-1.408c0-0.319,0.122-0.527,0.368-0.624c0.244-0.096,0.458-0.144,0.64-0.144   c0.181,0,0.427,0.059,0.736,0.176C17.084,15.607,17.239,15.784,17.239,16.019z" stroke-width="1"/>
</g>
</svg>