<svg xmlns="http://www.w3.org/2000/svg" xmlns:xlink="http://www.w3.org/1999/xlink" version="1.1" id="图层_1" x="0px" y="0px" width="28.006000518798828" height="26.05600357055664" viewBox="1.8930013179779053 2.3340003490448 28.006000518798828 26.05600357055664" enable-background="new 0 0 30 30" xml:space="preserve">
<g>
	<path fill="#0000FF" d="M11.191,6.323c0.554,0,0.89,0.149,1.008,0.448c0.117,0.299,0.176,0.523,0.176,0.672   c0,0.384-0.272,0.8-0.816,1.248c-0.544,0.448-1.211,0.8-2,1.056C9.346,9.832,9.212,9.95,9.159,10.099   c-0.054,0.149-0.118,0.443-0.192,0.88c-0.075,0.438-0.111,0.779-0.111,1.024c0,0.246,0.053,0.368,0.159,0.368   s0.347-0.053,0.721-0.16c0.373-0.106,0.692-0.16,0.96-0.16c0.267,0,0.458,0.059,0.575,0.176c0.117,0.118,0.177,0.374,0.177,0.768   c0,0.395-0.091,0.683-0.272,0.864c-0.182,0.182-0.815,0.56-1.904,1.136c-0.171,0.107-0.256,0.229-0.256,0.368   c0,0.14,0.043,0.39,0.128,0.753c0.085,0.362,0.145,0.635,0.177,0.815c0.031,0.181,0.106,0.272,0.224,0.272s0.501-0.145,1.152-0.433   c0.65-0.288,1.045-0.433,1.184-0.433s0.208,0.086,0.208,0.257s-0.106,0.325-0.32,0.464c-0.213,0.139-0.715,0.635-1.504,1.488   c-0.277,0.277-1.855,1.396-4.736,3.359c-0.512,0.342-0.816,0.582-0.912,0.721c-0.096,0.139-0.283,0.207-0.56,0.207   c-0.278,0-0.507-0.09-0.688-0.271c-0.182-0.182-0.443-0.379-0.784-0.592c-0.128-0.085-0.192-0.197-0.192-0.336   s0.128-0.293,0.384-0.465l1.728-1.088c0.832-0.533,1.354-0.857,1.568-0.976c0.213-0.116,0.336-0.256,0.368-0.416   c0.032-0.159,0.096-0.608,0.192-1.344c0.096-0.736,0.144-1.185,0.144-1.345s-0.107-0.239-0.32-0.239   c-0.491,0-0.832,0.063-1.024,0.192c-0.192,0.127-0.379,0.191-0.56,0.191c-0.182,0-0.315-0.074-0.4-0.225l-0.448-0.863   c-0.235-0.384-0.352-0.672-0.352-0.864c0-0.192,0.256-0.32,0.768-0.384c0.17-0.021,0.586-0.123,1.248-0.304   c0.661-0.181,1.029-0.304,1.104-0.368c0.075-0.064,0.112-0.245,0.112-0.544s-0.021-0.709-0.064-1.232   c-0.043-0.522-0.091-0.837-0.144-0.944c-0.053-0.106-0.144-0.16-0.272-0.16c-0.704,0-1.136,0.102-1.296,0.304   c-0.16,0.203-0.347,0.304-0.56,0.304c-0.213,0-0.374-0.149-0.48-0.448c-0.107-0.298-0.374-0.832-0.8-1.6   C3.223,8.669,3.191,8.531,3.191,8.402c0-0.426,0.325-0.65,0.976-0.672c0.65-0.021,1.435-0.17,2.352-0.448   C8.844,6.643,10.401,6.323,11.191,6.323z M21.239,18.035c0,0.127-0.043,0.223-0.128,0.287c-0.214,0.172-0.396,0.443-0.544,0.816   c-0.149,0.373-0.565,0.928-1.248,1.664c-0.684,0.736-1.323,1.334-1.92,1.792c-0.598,0.459-1.168,1.024-1.713,1.696   c-0.544,0.672-0.896,1.215-1.056,1.631s-0.384,0.684-0.672,0.801s-0.997,0.341-2.128,0.672c-1.131,0.33-1.941,0.496-2.432,0.496   c-0.491,0-0.854-0.043-1.089-0.129c-0.234-0.084-0.352-0.182-0.352-0.287c0-0.086,0.245-0.299,0.736-0.641   c0.49-0.341,1.354-0.82,2.592-1.439c0.576-0.299,1.509-0.896,2.8-1.792s2.362-1.851,3.216-2.864   c0.854-1.013,1.621-1.979,2.305-2.896c0.234-0.319,0.479-0.479,0.735-0.479s0.469,0.069,0.641,0.208   C21.153,17.709,21.239,17.864,21.239,18.035z M17.399,5.683c0,0.192,0.287,0.693,0.863,1.504c0.576,0.811,1.435,1.723,2.576,2.736   c1.142,1.014,2.16,1.755,3.056,2.224c2.709,1.387,4.305,2.283,4.784,2.688c0.48,0.406,0.721,0.688,0.721,0.848   c0,0.159-0.086,0.267-0.257,0.319c-0.171,0.055-0.703,0.08-1.6,0.08c-0.896,0-1.974-0.17-3.232-0.512   c-1.259-0.341-1.989-0.56-2.191-0.656c-0.203-0.096-0.315-0.314-0.336-0.656c-0.043-0.789-0.14-1.328-0.288-1.616   c-0.149-0.288-0.635-0.837-1.456-1.648c-0.821-0.811-1.595-1.387-2.32-1.728s-1.216-0.512-1.472-0.512s-0.533,0.256-0.832,0.768   c-1.088,1.792-1.894,2.907-2.416,3.344c-0.523,0.438-0.934,0.656-1.232,0.656c-0.149,0-0.224-0.096-0.224-0.288   c0-0.192,0.208-0.592,0.624-1.2s0.928-1.52,1.536-2.736c0.607-1.216,1.146-2.41,1.616-3.584c0.469-1.173,0.82-1.946,1.056-2.32   c0.234-0.373,0.437-0.56,0.608-0.56c0.17,0,0.399,0.134,0.688,0.4c0.288,0.267,0.432,0.486,0.432,0.656   c0,0.043-0.053,0.123-0.159,0.24c-0.107,0.118-0.225,0.363-0.353,0.736C17.463,5.24,17.399,5.512,17.399,5.683z M18.455,12.626   c0,0.32-0.646,0.981-1.937,1.984c-1.291,1.003-2.123,1.505-2.495,1.505c-0.374,0-0.561-0.139-0.561-0.416   c0-0.214,0.128-0.501,0.384-0.865l1.345-2.016c0.64-0.938,1.04-1.482,1.199-1.632c0.16-0.149,0.357-0.224,0.593-0.224   c0.234,0,0.538,0.235,0.911,0.704C18.268,12.136,18.455,12.456,18.455,12.626z M19.799,15.986c0,0.086-0.085,0.219-0.256,0.4   s-0.811,0.699-1.92,1.552c-1.109,0.854-1.952,1.456-2.528,1.808c-0.576,0.353-0.965,0.528-1.168,0.528s-0.304-0.106-0.304-0.319   s0.101-0.459,0.304-0.736s0.795-0.997,1.776-2.16c0.98-1.162,1.621-1.867,1.92-2.112c0.299-0.245,0.512-0.368,0.64-0.368   c0.277,0,0.603,0.192,0.977,0.576C19.612,15.539,19.799,15.816,19.799,15.986z" stroke-width="1"/>
</g>
</svg>