<svg xmlns="http://www.w3.org/2000/svg" xmlns:xlink="http://www.w3.org/1999/xlink" version="1.1" id="图层_1" x="0px" y="0px" width="24.966999053955078" height="22.343002319335938" viewBox="2.7560017108917236 4.382999897003174 24.966999053955078 22.343002319335938" enable-background="new 0 0 30 30" xml:space="preserve">
<g>
	<path fill="#0000FF" d="M18.679,17.586c0,0.129,0.054,0.235,0.16,0.32c1.173,0.982,2.154,2.032,2.944,3.152   c0.789,1.12,1.227,2.086,1.312,2.896c0.043,0.383,0.133,0.703,0.272,0.959c0.139,0.256,0.208,0.453,0.208,0.592   s-0.091,0.257-0.272,0.353c-0.182,0.097-0.672,0.181-1.472,0.257c-0.8,0.074-1.851,0.111-3.152,0.111   c-1.301,0-2.655-0.102-4.063-0.305c-1.408-0.202-2.534-0.586-3.376-1.151c-0.844-0.565-1.382-1.222-1.616-1.968   c-0.235-0.746-0.512-2.496-0.832-5.248c-0.021-0.277-0.117-0.416-0.288-0.416c-0.32,0-0.683,0.747-1.088,2.24   c-0.406,1.493-0.608,2.815-0.608,3.968c0,0.299-0.091,0.555-0.272,0.769c-0.182,0.213-0.411,0.319-0.688,0.319   c-0.278,0-0.779-0.224-1.504-0.672s-1.088-0.811-1.088-1.089c0-0.276,0.368-0.953,1.104-2.031c0.736-1.077,1.659-2.32,2.768-3.729   c0.085-0.127,0.128-0.234,0.128-0.319s-0.091-0.24-0.272-0.464c-0.182-0.225-0.272-0.427-0.272-0.608   c0-0.181,0.128-0.282,0.384-0.304c0.469-0.085,0.799-0.165,0.992-0.24c0.192-0.075,0.288-0.17,0.288-0.288   c0-0.117-0.021-0.218-0.064-0.304c-1.003-1.472-1.685-2.88-2.047-4.224C5.9,8.818,5.719,7.95,5.719,7.555   c0-0.395,0.139-0.693,0.416-0.896s1.723-0.549,4.336-1.04s4.8-0.736,6.561-0.736c1.76,0,3.205,0.251,4.336,0.752   c1.13,0.502,1.696,0.944,1.696,1.328c0,0.192-0.075,0.368-0.225,0.528c-0.149,0.16-0.325,0.565-0.528,1.216   c-0.202,0.651-0.683,1.819-1.439,3.504c-0.758,1.686-1.254,2.848-1.488,3.489c-0.128,0.341-0.438,0.512-0.928,0.512   c-0.491,0-1.174-0.353-2.048-1.057c-0.086-0.085-0.192-0.128-0.32-0.128c-0.32,0-1.222,0.203-2.704,0.608s-2.293,0.64-2.432,0.703   c-0.14,0.064-0.246,0.311-0.32,0.736c-0.075,0.428-0.112,0.896-0.112,1.408c0,1.855,0.48,3.189,1.44,4s2.421,1.217,4.384,1.217   c1.066,0,1.946-0.129,2.641-0.385c0.692-0.256,1.04-0.768,1.04-1.536c0-0.319-0.075-0.683-0.225-1.088s-0.421-0.901-0.815-1.487   c-0.396-0.587-0.641-0.924-0.736-1.009s-0.224-0.128-0.384-0.128s-0.496,0.277-1.008,0.832c-0.875,0.939-1.579,1.408-2.112,1.408   s-0.987-0.432-1.36-1.296s-0.56-1.429-0.56-1.696c0-0.267,0.128-0.4,0.384-0.4c0.128,0,0.245,0.043,0.352,0.129   c0.405,0.363,0.821,0.543,1.248,0.543s1.115-0.096,2.064-0.287c0.949-0.192,1.504-0.288,1.664-0.288s0.24,0.063,0.24,0.192   c0,0.043-0.017,0.096-0.049,0.159C18.695,17.427,18.679,17.502,18.679,17.586z M12.279,7.955c0-0.619-0.145-0.928-0.433-0.928   s-0.757,0.166-1.407,0.496C9.788,7.854,9.346,8.2,9.111,8.563c-0.235,0.363-0.353,0.87-0.353,1.52c0,0.651,0.064,1.243,0.192,1.776   c0.128,0.534,0.309,1.024,0.544,1.472c0.234,0.448,0.395,0.704,0.479,0.768s0.187,0.096,0.305,0.096   c0.116,0,0.368-0.064,0.752-0.192s0.618-0.272,0.704-0.432c0.085-0.16,0.128-0.464,0.128-0.912c0-0.235-0.075-0.352-0.225-0.352   c-0.341,0-0.607-0.085-0.8-0.256c-0.191-0.17-0.416-0.474-0.672-0.912c-0.256-0.437-0.384-0.752-0.384-0.944   c0-0.32,0.16-0.49,0.479-0.512c0.832-0.128,1.376-0.245,1.632-0.352C12.151,9.224,12.279,8.766,12.279,7.955z M18.935,9.491   c0-1.259-0.239-2.123-0.72-2.592c-0.479-0.469-1.146-0.704-2-0.704c-0.299,0-0.522,0.027-0.672,0.08   c-0.149,0.054-0.245,0.134-0.288,0.24c-0.043,0.107-0.117,0.4-0.224,0.88c-0.107,0.48-0.16,0.795-0.16,0.944   c0,0.149,0.117,0.224,0.352,0.224l1.217-0.032c0.319,0,0.522,0.037,0.607,0.112s0.128,0.219,0.128,0.432   c0,0.917-0.251,1.542-0.752,1.872c-0.501,0.331-1.04,0.56-1.616,0.688c-0.213,0.086-0.319,0.336-0.319,0.752   s0.181,0.624,0.544,0.624l0.447-0.032c0.448,0,0.769,0.166,0.961,0.496c0.191,0.331,0.464,0.496,0.815,0.496   c0.353,0,0.613-0.165,0.784-0.496c0.171-0.331,0.362-0.848,0.576-1.552C18.828,11.219,18.935,10.408,18.935,9.491z M25.143,16.402   c0.277,0,0.661,0.037,1.152,0.112c0.49,0.075,0.769,0.341,0.832,0.8c0.064,0.459,0.096,0.864,0.096,1.217   c0,0.352-0.074,0.805-0.224,1.359s-0.416,0.832-0.8,0.832c-0.214,0-0.384-0.074-0.513-0.225c-0.618-0.682-1.184-1.231-1.695-1.647   c-0.513-0.416-1.228-0.923-2.145-1.521c-0.256-0.148-0.384-0.34-0.384-0.576c0-0.234,0.145-0.324,0.432-0.271   c0.288,0.054,0.571,0.08,0.849,0.08c0.276,0,0.661-0.026,1.151-0.08C24.386,16.43,24.802,16.402,25.143,16.402z" stroke-width="1"/>
</g>
</svg>