<svg xmlns="http://www.w3.org/2000/svg" xmlns:xlink="http://www.w3.org/1999/xlink" version="1.1" id="图层_1" x="0px" y="0px" width="25.832000732421875" height="20.361000061035156" viewBox="1.2190004587173462 4.767000198364258 25.832000732421875 20.361000061035156" enable-background="new 0 0 30 30" xml:space="preserve">
<g>
	<path fill="#0000FF" d="M26.551,22.963c0,0.703-0.139,1.056-0.416,1.056c-0.106,0-0.31-0.042-0.607-0.128   c-2.305-0.704-4.779-1.057-7.425-1.057c-1.45,0-2.475,0.086-3.071,0.256c-0.598,0.172-1.228,0.257-1.889,0.257l-2.208-0.063   c-2.239,0-4.821,0.404-7.744,1.215c-0.341,0.086-0.613,0.129-0.816,0.129c-0.203,0-0.363-0.08-0.48-0.24   c-0.118-0.16-0.176-0.347-0.176-0.561c0-0.213,0.112-0.442,0.336-0.688c0.224-0.245,0.762-0.48,1.616-0.704   c0.853-0.224,1.765-0.395,2.736-0.513c0.971-0.116,1.524-0.234,1.664-0.352c0.139-0.117,0.208-0.453,0.208-1.008   s-0.102-1.402-0.305-2.544c-0.202-1.142-0.304-2.075-0.304-2.8c0-0.725,0.037-1.163,0.112-1.312   c0.074-0.149,0.197-0.272,0.368-0.368c0.17-0.096,0.346-0.144,0.527-0.144s0.561,0.08,1.137,0.24   c0.575,0.16,0.917,0.278,1.023,0.352c0.106,0.075,0.16,0.176,0.16,0.304s-0.086,0.277-0.256,0.448   c-0.342,0.342-0.512,0.886-0.512,1.633c0,0.277,0.048,0.768,0.144,1.471c0.096,0.705,0.176,1.622,0.24,2.753   c0.021,0.405,0.213,0.565,0.576,0.479c0.746-0.17,1.264-0.277,1.552-0.32c0.288-0.042,0.479-0.111,0.576-0.207   c0.096-0.096,0.159-0.213,0.191-0.353c0.032-0.138,0.064-0.768,0.097-1.888c0.031-1.12,0.048-2.234,0.048-3.344   c0-1.109-0.017-2.213-0.048-3.312c-0.032-1.098-0.07-1.712-0.112-1.84c-0.043-0.128-0.107-0.219-0.192-0.272   s-0.319-0.08-0.704-0.08c-0.832,0-1.371,0.08-1.615,0.24c-0.246,0.16-0.448,0.24-0.608,0.24s-0.304-0.085-0.432-0.256   c-0.128-0.17-0.315-0.597-0.561-1.28C9.138,7.72,9.015,7.293,9.015,7.123c0-0.17,0.054-0.32,0.16-0.448   c0.106-0.128,0.256-0.218,0.448-0.272c0.192-0.053,0.597-0.08,1.216-0.08c1.835,0,3.424-0.181,4.769-0.544   c1.236-0.341,2.709-0.512,4.416-0.512c0.298,0,0.495,0.048,0.592,0.144c0.096,0.096,0.144,0.325,0.144,0.688   S20.7,6.75,20.583,6.962c-0.117,0.213-0.496,0.534-1.136,0.96c-0.641,0.427-1.163,0.72-1.568,0.88   c-0.405,0.16-0.64,0.299-0.704,0.416c-0.063,0.117-0.155,0.656-0.271,1.616c-0.118,0.96-0.177,1.494-0.177,1.6   c0,0.256,0.129,0.363,0.385,0.32c0.554-0.085,1.151-0.149,1.792-0.192c0.341,0,0.57-0.026,0.688-0.08   c0.117-0.053,0.208-0.08,0.272-0.08c0.469,0,0.704,0.459,0.704,1.376c0,0.47-0.049,0.768-0.145,0.896   c-0.096,0.128-0.399,0.219-0.912,0.272c-0.512,0.054-1.115,0.262-1.808,0.624c-0.693,0.363-1.094,0.656-1.2,0.881   c-0.107,0.223-0.16,0.842-0.16,1.855s0.037,1.6,0.112,1.76c0.074,0.16,0.202,0.277,0.384,0.352   c0.181,0.076,0.646,0.113,1.393,0.113c1.108,0,1.973-0.043,2.592-0.129c0.618-0.085,1.141-0.128,1.567-0.128h1.12l1.216-0.063   c0.32,0,0.576,0.123,0.769,0.367c0.191,0.246,0.416,0.592,0.672,1.041C26.423,22.066,26.551,22.515,26.551,22.963z" stroke-width="1"/>
</g>
</svg>