<svg xmlns="http://www.w3.org/2000/svg" xmlns:xlink="http://www.w3.org/1999/xlink" version="1.1" id="图层_1" x="0px" y="0px" width="26.023998260498047" height="28.84000015258789" viewBox="0.7070000171661377 0.22199934720993042 26.023998260498047 28.84000015258789" enable-background="new 0 0 30 30" xml:space="preserve">
<g>
	<path fill="#0000FF" d="M4.311,10.834c0.192,0,0.288,0.213,0.288,0.64c0,0.811-0.07,1.717-0.208,2.72   c-0.139,1.003-0.256,1.611-0.352,1.824c-0.096,0.214-0.224,0.319-0.384,0.319c-0.16,0-0.438-0.059-0.832-0.176   S2.06,15.848,1.719,15.57c-0.341-0.277-0.512-0.554-0.512-0.832c0-0.277,0.144-0.56,0.432-0.848   c0.288-0.288,0.704-0.757,1.248-1.408c0.544-0.65,0.885-1.088,1.024-1.312C4.049,10.946,4.183,10.834,4.311,10.834z M24.567,10.898   c0.384,0,0.64,0.203,0.768,0.608c0.064,0.171,0.229,0.427,0.496,0.768c0.267,0.342,0.4,0.651,0.4,0.928   c0,0.363-0.257,0.544-0.769,0.544c-0.106,0-0.235-0.011-0.384-0.032c-0.533-0.106-1.499-0.16-2.896-0.16s-2.527,0.112-3.392,0.336   s-1.707,0.395-2.528,0.512c-0.821,0.118-1.439,0.235-1.855,0.352c-0.416,0.118-1.126,0.24-2.128,0.368   c-1.003,0.128-1.878,0.283-2.624,0.463c-0.747,0.182-1.2,0.332-1.36,0.449s-0.251,0.346-0.271,0.688   c-0.129,2.73-0.246,4.555-0.353,5.472s-0.16,1.558-0.16,1.921c0,0.361,0.026,0.676,0.08,0.943c0.053,0.267,0.08,0.464,0.08,0.592   c0,0.427-0.405,0.641-1.216,0.641c-0.47,0-0.704-0.14-0.704-0.416c0-0.086,0.048-0.214,0.144-0.385s0.144-0.629,0.144-1.375   l-0.064-2.496c0-1.537,0.053-3.238,0.16-5.104c0.107-1.867,0.16-3.461,0.16-4.784c0-1.322,0.026-2.362,0.08-3.12   c0.053-0.757,0.08-1.37,0.08-1.84c0-1.493-0.085-2.453-0.256-2.88C6.135,3.72,6.103,3.565,6.103,3.427S6.204,3.176,6.407,3.09   c0.202-0.085,0.426-0.128,0.672-0.128c0.245,0,0.581,0.043,1.008,0.128c0.427,0.085,0.677,0.171,0.752,0.256   c0.074,0.085,0.112,0.197,0.112,0.336s-0.054,0.32-0.16,0.544C8.684,4.451,8.572,5.069,8.455,6.083   C8.338,7.096,8.279,7.87,8.279,8.402c0,0.534,0.116,0.8,0.352,0.8c0.021,0,0.171-0.021,0.448-0.064l1.248-0.16   c0.17,0,0.293,0.043,0.368,0.128c0.074,0.085,0.111,0.299,0.111,0.64c0,0.341-0.043,0.587-0.128,0.736   c-0.085,0.149-0.336,0.357-0.752,0.624c-0.416,0.267-0.784,0.544-1.104,0.832c-0.32,0.288-0.513,0.56-0.576,0.816   c-0.064,0.256-0.096,0.635-0.096,1.136c0,0.501,0.096,0.752,0.288,0.752c0.063,0,0.399-0.09,1.008-0.272   c0.607-0.181,1.2-0.32,1.775-0.416c0.576-0.096,1.163-0.272,1.761-0.528c0.597-0.256,1.108-0.453,1.535-0.592   c0.427-0.139,0.678-0.261,0.752-0.368c0.075-0.106,0.112-0.298,0.112-0.576c0-0.192-0.091-0.288-0.271-0.288   c-0.182,0-0.428,0.064-0.736,0.192c-0.31,0.128-0.544,0.192-0.704,0.192s-0.299-0.165-0.416-0.496s-0.176-0.587-0.176-0.768   s0.063-0.309,0.191-0.384c0.129-0.074,0.496-0.197,1.104-0.368s0.971-0.314,1.088-0.432c0.117-0.117,0.176-0.314,0.176-0.592   c0-0.277-0.063-0.416-0.191-0.416s-0.24,0.011-0.336,0.032c-0.097,0.021-0.353,0.069-0.769,0.144   c-0.416,0.075-0.683,0.144-0.8,0.208s-0.219,0.096-0.304,0.096c-0.214,0-0.4-0.229-0.561-0.688   c-0.16-0.458-0.239-0.789-0.239-0.992c0-0.203,0.148-0.336,0.447-0.4c0.683-0.149,1.313-0.32,1.889-0.512   c0.575-0.192,0.906-0.331,0.991-0.416c0.085-0.085,0.16-0.298,0.225-0.64l0.224-1.696c0.106-0.768,0.16-1.28,0.16-1.536   c0-0.832,0.048-1.274,0.144-1.328c0.097-0.053,0.373-0.08,0.832-0.08s0.827,0.027,1.104,0.08s0.416,0.133,0.416,0.24   c0,0.107-0.054,0.267-0.16,0.48c-0.363,0.64-0.522,1.333-0.479,2.08c0.021,0.256,0.031,0.582,0.031,0.976   c0,0.395,0.08,0.592,0.24,0.592s0.646-0.096,1.456-0.288c0.811-0.192,1.307-0.288,1.488-0.288c0.181,0,0.309,0.059,0.384,0.176   c0.074,0.118,0.149,0.336,0.224,0.656c0.075,0.32,0.112,0.576,0.112,0.768c0,0.192-0.054,0.342-0.16,0.448   C21.9,6.75,21.479,6.925,20.743,7.17c-0.736,0.246-1.334,0.432-1.792,0.56c-0.459,0.128-0.688,0.326-0.688,0.592   s0.064,0.4,0.192,0.4s0.427-0.064,0.896-0.192c0.47-0.128,0.869-0.192,1.2-0.192s0.539,0.192,0.624,0.576s0.128,0.656,0.128,0.816   s-0.069,0.283-0.208,0.368c-0.139,0.085-0.912,0.31-2.319,0.672c-0.32,0.085-0.518,0.176-0.593,0.272   c-0.074,0.096-0.111,0.251-0.111,0.464c0,0.214,0.068,0.32,0.208,0.32c0.139,0,0.261-0.011,0.368-0.032   c0.597-0.085,1.349-0.154,2.256-0.208c0.906-0.053,1.893-0.24,2.96-0.56C24.14,10.941,24.375,10.898,24.567,10.898z M22.103,25.299   c0,0.64,0.054,1.184,0.16,1.632s0.16,0.831,0.16,1.151s-0.155,0.48-0.464,0.48c-0.31,0-1.077-0.24-2.304-0.721   c-1.228-0.479-2.149-0.928-2.769-1.344s-0.928-0.72-0.928-0.912c0-0.191,0.181-0.256,0.544-0.191   c1.003,0.17,1.707,0.256,2.112,0.256c0.404,0,0.698-0.074,0.88-0.224c0.181-0.149,0.271-0.523,0.271-1.12   c0-2.41-0.053-4.145-0.159-5.2c-0.107-1.056-0.294-1.771-0.561-2.144s-0.699-0.561-1.296-0.561c-0.747,0-1.339,0.134-1.776,0.4   s-0.655,0.527-0.655,0.783c0,0.15,0.09,0.225,0.271,0.225s0.496-0.059,0.944-0.176s0.794-0.176,1.04-0.176   c0.245,0,0.389,0.111,0.432,0.336c0.043,0.224,0.064,0.475,0.064,0.752s-0.149,0.469-0.448,0.576   c-0.086,0.043-0.357,0.187-0.816,0.432s-0.906,0.447-1.344,0.607s-0.656,0.4-0.656,0.721c0,0.107,0.054,0.16,0.16,0.16   s0.234-0.011,0.384-0.032c0.875-0.171,1.525-0.257,1.952-0.257c0.213,0,0.353,0.08,0.416,0.24c0.064,0.16,0.097,0.4,0.097,0.721   s-0.054,0.539-0.16,0.656c-0.107,0.117-0.31,0.207-0.608,0.271s-0.64,0.176-1.023,0.336c-0.385,0.16-0.774,0.288-1.168,0.384   c-0.396,0.097-0.636,0.251-0.721,0.464c-0.085,0.214-0.128,0.613-0.128,1.2s-0.048,0.981-0.144,1.185   c-0.097,0.202-0.262,0.336-0.496,0.399c-0.235,0.063-0.433,0.097-0.592,0.097c-0.16,0-0.251-0.102-0.272-0.305   s-0.032-0.73-0.032-1.584c0-1.855,0.064-3.27,0.192-4.24s0.192-1.68,0.192-2.127l-0.097-1.313c0-0.277,0.08-0.496,0.24-0.656   s0.635-0.373,1.424-0.641c0.789-0.266,1.322-0.42,1.601-0.463c0.276-0.042,0.607-0.128,0.991-0.256   c1.003-0.298,1.941-0.448,2.816-0.448c1.515,0,2.271,0.256,2.271,0.768c0,0.106-0.021,0.224-0.063,0.353   c-0.086,0.256-0.128,0.949-0.128,2.08l0.128,3.136C22.081,22.014,22.103,23.442,22.103,25.299z" stroke-width="1"/>
</g>
</svg>