<svg xmlns="http://www.w3.org/2000/svg" xmlns:xlink="http://www.w3.org/1999/xlink" version="1.1" id="图层_1" x="0px" y="0px" width="24.64800262451172" height="29.065000534057617" viewBox="2.6269993782043457 -0.09799998998641968 24.64800262451172 29.065000534057617" enable-background="new 0 0 30 30" xml:space="preserve">
<g>
	<path fill="#0000FF" d="M6.871,13.971c0,0.576-0.171,0.864-0.512,0.864c-0.171,0-0.454-0.085-0.848-0.256   c-0.395-0.17-0.859-0.299-1.392-0.384c-0.662-0.128-0.992-0.432-0.992-0.912s0.373-1.125,1.12-1.936   c0.747-0.811,1.312-1.216,1.696-1.216c0.32,0,0.48,0.203,0.48,0.608c0,0.107-0.021,0.272-0.064,0.496   c-0.043,0.224-0.064,0.523-0.064,0.896c0,0.374,0.096,0.709,0.288,1.008S6.871,13.714,6.871,13.971z M24.919,18.258   c0.192,0,0.395,0.236,0.608,0.705c0.213,0.469,0.475,1.723,0.783,3.76c0.31,2.037,0.465,3.504,0.465,4.4   c0,0.299-0.07,0.506-0.208,0.623c-0.14,0.117-0.448,0.219-0.929,0.305c-0.479,0.084-1.131,0.16-1.952,0.225   c-0.821,0.063-1.419,0.068-1.792,0.016c-0.373-0.055-0.848-0.08-1.424-0.08s-1.045,0.037-1.407,0.111   c-0.363,0.074-0.684,0.111-0.961,0.111l-1.184-0.063c-0.661,0-1.088,0.016-1.28,0.047c-0.191,0.033-0.331,0.049-0.416,0.049   c-0.277,0-0.64-0.15-1.088-0.449c-1.003-0.596-1.766-1.15-2.288-1.663s-0.88-1.056-1.071-1.632c-0.128-0.385-0.235-1.077-0.32-2.08   c-0.021-0.17-0.032-0.789-0.032-1.855c0-0.299-0.117-0.449-0.352-0.449c-0.086,0-0.357,0.06-0.816,0.177s-0.832,0.202-1.12,0.256   s-0.65,0.091-1.088,0.112s-0.854,0.107-1.248,0.256c-0.395,0.149-0.667,0.325-0.816,0.527c-0.149,0.203-0.299,0.305-0.448,0.305   c-0.15,0-0.267-0.117-0.352-0.352c-0.213-0.705-0.363-1.131-0.448-1.281c-0.085-0.148-0.128-0.309-0.128-0.479   c0-0.319,0.203-0.501,0.608-0.544c0.981-0.106,1.813-0.277,2.496-0.512c1.515-0.576,2.522-0.938,3.024-1.088   c0.501-0.149,0.805-0.277,0.912-0.385c0.106-0.105,0.186-0.34,0.239-0.703s0.08-0.613,0.08-0.752s-0.032-0.229-0.096-0.272   c-0.064-0.042-0.304-0.063-0.72-0.063s-0.838,0.031-1.265,0.096l-1.151,0.128c-0.3,0-0.448-0.112-0.448-0.336   c0-0.224,0.165-0.501,0.496-0.832c0.33-0.331,1.21-0.933,2.64-1.808c1.429-0.875,2.485-1.429,3.168-1.664   c0.683-0.234,1.142-0.501,1.376-0.8s0.416-0.448,0.544-0.448s0.245,0.08,0.353,0.24c0.106,0.16,0.341,0.539,0.704,1.136   c0.148,0.235,0.309,0.352,0.479,0.352s0.646-0.123,1.424-0.368c0.778-0.245,1.274-0.41,1.488-0.496   c0.213-0.085,0.373-0.208,0.48-0.368c0.106-0.16,0.159-0.432,0.159-0.816c0-0.384-0.144-0.683-0.432-0.896   s-0.699-0.368-1.232-0.464c-0.533-0.096-0.991-0.144-1.376-0.144c-0.96,0-2.059,0.24-3.296,0.72s-2.005,0.763-2.304,0.848   c-0.299,0.085-0.587,0.128-0.864,0.128c-0.533,0-1.322,0.16-2.368,0.48c-0.234,0.064-0.427,0.096-0.575,0.096   c-0.149,0-0.251-0.101-0.305-0.304c-0.053-0.203-0.08-0.357-0.08-0.464c0-0.341,0.171-0.555,0.513-0.64   c0.213-0.042,0.725-0.213,1.536-0.512c0.811-0.298,1.364-0.512,1.663-0.64c1.152-0.491,2.325-0.837,3.521-1.04   c1.194-0.203,2.112-0.304,2.752-0.304s1.216,0.139,1.728,0.416c0.513,0.277,1.125,0.763,1.841,1.456   c0.714,0.693,1.301,1.408,1.76,2.144c0.458,0.736,0.688,1.291,0.688,1.664c0,0.374-0.171,0.56-0.512,0.56   c-0.342,0-0.619,0.032-0.832,0.096s-0.629,0.096-1.248,0.096s-1.109-0.053-1.472-0.16c-0.512-0.17-0.944-0.256-1.296-0.256   c-0.353,0-0.635-0.026-0.849-0.08c-0.213-0.053-0.357-0.08-0.432-0.08c-0.075,0-0.144,0.016-0.208,0.048   c-0.063,0.032-0.325,0.091-0.784,0.176c-0.459,0.085-1.045,0.283-1.76,0.592c-0.715,0.31-1.157,0.55-1.328,0.72   c-0.171,0.171-0.256,0.331-0.256,0.48c0,0.149,0.074,0.277,0.224,0.384c0.32,0.214,0.464,0.475,0.433,0.784   c-0.032,0.309-0.048,0.518-0.048,0.624c0,0.299,0.058,0.449,0.176,0.449c0.117,0,0.219-0.012,0.304-0.033   c0.469-0.105,1.024-0.181,1.664-0.224c0.64-0.042,1.12-0.133,1.44-0.272c0.319-0.138,0.544-0.207,0.672-0.207   c0.298,0,0.607,0.314,0.928,0.943c0.32,0.63,0.48,1.217,0.48,1.76c0,0.545-0.192,0.816-0.576,0.816   c-0.149,0-0.353-0.068-0.608-0.208c-0.256-0.138-0.741-0.208-1.456-0.208s-1.43,0.086-2.144,0.256   c-0.715,0.172-1.137,0.31-1.265,0.416c-0.128,0.107-0.245,0.486-0.352,1.137c-0.107,0.65-0.16,1.199-0.16,1.647   c0,2.325,1.333,3.487,4,3.487c0.512,0,1.381-0.09,2.608-0.271c1.227-0.182,2.144-0.271,2.752-0.271c0.607,0,1.088-0.15,1.439-0.448   c0.353-0.299,0.635-0.864,0.849-1.696c0.213-0.832,0.373-2.271,0.479-4.32C24.652,18.451,24.748,18.258,24.919,18.258z    M13.079,0.402c0.148,0,0.267,0.128,0.352,0.384s0.347,0.667,0.784,1.232c0.438,0.565,0.736,1.003,0.896,1.312   c0.159,0.31,0.239,0.603,0.239,0.88c0,0.704-0.501,1.056-1.504,1.056c-0.362,0-0.783-0.069-1.264-0.208   c-0.48-0.139-0.747-0.528-0.8-1.168c-0.054-0.64-0.08-1.184-0.08-1.632c0-0.448,0.106-0.746,0.32-0.896   c0.298-0.234,0.517-0.453,0.655-0.656C12.817,0.504,12.951,0.402,13.079,0.402z" stroke-width="1"/>
</g>
</svg>