<svg xmlns="http://www.w3.org/2000/svg" xmlns:xlink="http://www.w3.org/1999/xlink" version="1.1" id="图层_1" x="0px" y="0px" width="23.496004104614258" height="21.99199867248535" viewBox="2.8509955406188965 5.4070000648498535 23.496004104614258 21.99199867248535" enable-background="new 0 0 30 30" xml:space="preserve">
<g>
	<path fill="#0000FF" d="M25.847,14.099c0,0.171-0.053,0.32-0.16,0.448c-0.277,0.363-0.416,0.837-0.416,1.424   s-0.191,1.584-0.575,2.992l-1.057,3.744c-0.299,1.109-0.598,2.016-0.896,2.72c-0.299,0.704-0.528,1.125-0.688,1.264   s-0.384,0.208-0.672,0.208s-0.992-0.24-2.112-0.72c-1.119-0.479-2.011-1.04-2.672-1.681c-0.661-0.64-0.991-1.05-0.991-1.231   c0-0.181,0.074-0.272,0.224-0.272s0.32,0.032,0.512,0.096c1.365,0.428,2.357,0.641,2.977,0.641c0.618,0,1.071-0.197,1.359-0.592   s0.603-1.333,0.944-2.816c0.341-1.482,0.512-2.773,0.512-3.871c0-1.099-0.213-1.873-0.64-2.321   c-0.427-0.448-1.174-0.672-2.24-0.672c-0.342,0-0.709,0.016-1.104,0.048c-0.396,0.032-0.608,0.176-0.641,0.432   s-0.139,0.683-0.319,1.28c-0.182,0.598-0.272,0.997-0.272,1.199c0,0.203,0.106,0.357,0.32,0.465   c0.938,0.427,1.546,0.758,1.824,0.992c0.276,0.234,0.415,0.501,0.415,0.799c0,1.025-0.256,1.537-0.768,1.537   c-0.192,0-0.384-0.086-0.576-0.256c-0.981-0.875-1.6-1.313-1.855-1.313s-0.448,0.107-0.576,0.32   c-0.704,1.088-1.644,1.632-2.816,1.632c-0.171,0-0.256-0.091-0.256-0.272c0-0.181,0.192-0.464,0.576-0.848   c0.618-0.619,1.152-1.515,1.6-2.688c0.448-1.174,0.672-1.926,0.672-2.256s-0.106-0.496-0.319-0.496   c-0.214,0-0.87,0.171-1.968,0.512c-1.1,0.342-1.734,0.571-1.904,0.688c-0.171,0.118-0.256,0.283-0.256,0.496   c0,0.149,0.245,0.31,0.735,0.48c0.917,0.234,1.376,0.65,1.376,1.248c0,0.256-0.096,0.533-0.287,0.832   c-0.192,0.299-0.385,0.447-0.576,0.447c-0.192,0-0.502-0.224-0.929-0.672c-0.427-0.447-0.709-0.672-0.848-0.672   s-0.251,0.091-0.336,0.271c-0.086,0.182-0.128,0.369-0.128,0.561l0.032,0.416c0,0.234-0.075,0.453-0.225,0.656   s-0.501,0.427-1.056,0.672s-0.944,0.367-1.168,0.367s-0.336-0.074-0.336-0.223c0-0.342,0.32-0.854,0.96-1.537   c0.171-0.17,0.352-0.521,0.544-1.056c0.192-0.532,0.288-0.954,0.288-1.265c0-0.309-0.139-0.432-0.416-0.367   c-0.619,0.149-1.109,0.251-1.472,0.304c-0.363,0.054-0.662,0.3-0.896,0.736c-0.235,0.438-0.352,0.901-0.352,1.392   c0,0.491,0.224,1.781,0.672,3.872c0.042,0.171,0.064,0.405,0.064,0.704s-0.102,0.561-0.304,0.784   c-0.203,0.224-0.39,0.336-0.56,0.336c-0.171,0-0.341-0.101-0.512-0.304c-0.171-0.203-0.363-0.561-0.576-1.072   c-0.213-0.512-0.496-1.553-0.848-3.12s-0.528-2.576-0.528-3.024c0-0.746,0.533-1.215,1.6-1.408   c0.533-0.106,1.317-0.298,2.352-0.576c1.035-0.277,1.653-0.485,1.856-0.624c0.202-0.139,0.304-0.416,0.304-0.832   s0.043-0.677,0.128-0.784c0.085-0.106,0.229-0.16,0.433-0.16c0.202,0,0.597,0.048,1.184,0.144c0.587,0.096,0.88,0.315,0.88,0.656   c0,0.192,0.085,0.288,0.256,0.288l2.145-0.352c0.725-0.128,1.146-0.229,1.264-0.304c0.117-0.074,0.176-0.176,0.176-0.304   s0.037-0.4,0.112-0.816c0.074-0.416,0.245-0.624,0.512-0.624s0.539,0.048,0.816,0.144c0.276,0.096,0.437,0.192,0.479,0.288   c0.043,0.096,0.064,0.304,0.064,0.624c0,0.32,0.17,0.459,0.512,0.416c0.896-0.128,1.803-0.192,2.72-0.192s1.809,0.176,2.673,0.528   c0.863,0.352,1.418,0.63,1.663,0.832C25.724,13.646,25.847,13.864,25.847,14.099z M19.991,5.907c0.319,0,0.527,0.016,0.624,0.048   c0.096,0.032,0.181,0.155,0.256,0.368c0.074,0.213,0.112,0.416,0.112,0.608c0,0.448-0.32,0.726-0.96,0.832   c-0.278,0.043-0.662,0.181-1.152,0.416c-0.619,0.32-1.222,0.544-1.808,0.672c-0.588,0.128-1.115,0.272-1.585,0.432   c-0.469,0.16-0.768,0.283-0.896,0.368c-0.47,0.235-0.928,0.352-1.376,0.352s-0.821-0.026-1.12-0.08   c-0.299-0.053-0.581-0.08-0.848-0.08c-0.268,0-0.864,0.102-1.792,0.304c-0.929,0.203-1.531,0.304-1.809,0.304   s-0.459-0.053-0.543-0.16c-0.086-0.106-0.203-0.432-0.352-0.976c-0.15-0.544-0.224-0.997-0.224-1.36s0.074-0.581,0.224-0.656   c0.149-0.074,0.96-0.144,2.432-0.208c1.473-0.064,2.512-0.096,3.12-0.096s1.296-0.112,2.064-0.336   c0.768-0.224,1.685-0.405,2.752-0.544C18.178,5.976,19.138,5.907,19.991,5.907z" stroke-width="1"/>
</g>
</svg>