<svg xmlns="http://www.w3.org/2000/svg" xmlns:xlink="http://www.w3.org/1999/xlink" version="1.1" id="图层_1" x="0px" y="0px" width="29.89599609375" height="26.376005172729492" viewBox="0.41900312900543213 1.6949996948242188 29.89599609375 26.376005172729492" enable-background="new 0 0 30 30" xml:space="preserve">
<g>
	<path fill="#0000FF" d="M20.663,19.506c0,0.257,0.485,0.822,1.456,1.697s2.085,1.547,3.344,2.016   c0.747,0.299,1.616,0.683,2.608,1.152c0.992,0.469,1.53,0.756,1.615,0.863c0.086,0.106,0.129,0.203,0.129,0.288   c0,0.213-0.177,0.353-0.528,0.416c-0.353,0.063-0.971,0.097-1.856,0.097c-0.885,0-1.877-0.135-2.976-0.4   c-1.099-0.268-1.75-0.47-1.952-0.608c-0.203-0.139-0.325-0.379-0.368-0.72c-0.106-1.131-0.555-1.889-1.344-2.271   c-0.47-0.214-0.821-0.39-1.056-0.529c-0.235-0.138-0.374-0.207-0.416-0.207c-0.107,0-0.336,0.16-0.688,0.479   c-0.352,0.32-0.581,0.565-0.688,0.736c-0.726,1.024-1.813,1.536-3.265,1.536c-0.341,0-0.683-0.021-1.023-0.064   c-0.342-0.043-0.565-0.064-0.672-0.064c-0.107,0-0.208,0.092-0.305,0.272c-0.096,0.181-0.261,0.726-0.496,1.632   c-0.234,0.906-0.399,1.424-0.496,1.553c-0.096,0.127-0.239,0.191-0.432,0.191c-0.704,0-1.552-0.309-2.544-0.928   s-1.488-0.998-1.488-1.137s0.117-0.207,0.353-0.207l2.24,0.063c0.298,0,0.49-0.043,0.575-0.128   c0.085-0.086,0.197-0.459,0.336-1.119c0.139-0.662,0.208-1.211,0.208-1.648s-0.085-0.656-0.256-0.656   c-0.085,0-0.485,0.188-1.2,0.561s-1.253,0.613-1.615,0.719c-0.363,0.107-0.614,0.198-0.752,0.272   c-0.139,0.075-0.251,0.112-0.336,0.112c-0.32,0-0.64-0.395-0.96-1.184c-0.085-0.213-0.213-0.32-0.384-0.32   c-0.427,0-1.344,0.309-2.752,0.928c-0.256,0.107-0.47,0.16-0.64,0.16c-0.171,0-0.4-0.043-0.688-0.128s-0.432-0.192-0.432-0.32   c0-0.384,0.565-0.832,1.696-1.344c0.384-0.192,0.965-0.629,1.744-1.312c0.779-0.684,1.227-1.094,1.344-1.232   c0.117-0.139,0.197-0.325,0.24-0.561c0.064-0.404,0.373-0.768,0.928-1.088c0.704-0.362,1.093-0.613,1.168-0.752   c0.074-0.139,0.261-0.379,0.56-0.72s0.448-0.549,0.448-0.624c0-0.075-0.054-0.112-0.16-0.112s-0.421,0.064-0.943,0.192   c-0.523,0.128-1.104,0.24-1.744,0.336c-0.64,0.096-1.104,0.188-1.392,0.271c-0.288,0.086-0.662,0.23-1.12,0.433   c-0.459,0.203-0.779,0.304-0.96,0.304c-0.182,0-0.374-0.111-0.576-0.336c-0.203-0.225-0.304-0.41-0.304-0.561   c0-0.49,0.821-0.917,2.464-1.279c1.322-0.298,2.362-0.592,3.12-0.88c0.758-0.288,1.35-0.496,1.776-0.624   c0.256-0.064,0.405-0.208,0.448-0.432c0.042-0.224,0.063-0.528,0.063-0.912c0-0.384-0.037-0.576-0.111-0.576   c-0.075,0-0.353,0.096-0.832,0.288c-0.48,0.192-0.784,0.288-0.912,0.288s-0.229-0.08-0.305-0.24   c-0.074-0.16-0.149-0.469-0.224-0.928C7.26,9.752,7.223,9.416,7.223,9.203c0-0.213,0.075-0.373,0.225-0.48   c0.148-0.106,0.395-0.181,0.735-0.224c1.088-0.149,1.653-0.336,1.696-0.56s0.074-1.04,0.096-2.448   c0.021-1.408,0.059-2.25,0.112-2.528c0.053-0.277,0.24-0.475,0.561-0.592c0.319-0.117,0.746-0.176,1.279-0.176   c0.32,0,0.48,0.107,0.48,0.32c0,0.064-0.021,0.176-0.064,0.336s-0.063,0.368-0.063,0.624l0.031,0.992   c0,0.384-0.026,0.864-0.079,1.44c-0.054,0.576-0.08,0.981-0.08,1.216c0,0.235,0.148,0.32,0.447,0.256   c0.47-0.128,0.917-0.192,1.345-0.192c0.341,0,0.544,0.246,0.607,0.736l0.097,0.672c0,0.192-0.118,0.341-0.353,0.448   c-1.237,0.427-1.909,0.678-2.016,0.752c-0.107,0.075-0.16,0.347-0.16,0.816c0,0.47,0.021,0.806,0.063,1.008   s0.128,0.304,0.257,0.304c0.128,0,0.378-0.176,0.752-0.528c0.373-0.352,0.634-0.624,0.783-0.816s0.293-0.288,0.433-0.288   c0.139,0,0.304,0.096,0.496,0.288c0.191,0.192,0.288,0.357,0.288,0.496s-0.012,0.245-0.032,0.32   c-0.021,0.075-0.032,0.133-0.032,0.176c0,0.128,0.149,0.192,0.448,0.192c0.298,0,0.506-0.069,0.624-0.208   c0.117-0.139,0.368-0.768,0.752-1.888s0.624-2.037,0.72-2.752c0.096-0.714,0.261-1.531,0.496-2.448   c0.234-0.917,0.389-1.44,0.464-1.568c0.074-0.128,0.234-0.192,0.48-0.192c0.245,0,0.517,0.054,0.815,0.16   c0.299,0.107,0.448,0.299,0.448,0.576c0,0.107-0.091,0.368-0.272,0.784c-0.181,0.416-0.314,0.784-0.399,1.104   c-0.086,0.32-0.192,1.04-0.32,2.16c-0.128,1.12-0.342,2.213-0.64,3.28c-0.043,0.149-0.064,0.304-0.064,0.464   c0,0.16,0.069,0.24,0.208,0.24s0.314-0.048,0.528-0.144c0.213-0.096,0.65-0.261,1.312-0.496c0.661-0.234,1.505-0.64,2.528-1.216   c0.213-0.128,0.395-0.192,0.544-0.192s0.282,0.165,0.4,0.496c0.117,0.331,0.176,0.598,0.176,0.8s-0.123,0.4-0.368,0.592   s-0.501,0.512-0.768,0.96c-0.268,0.448-0.71,0.896-1.328,1.344c-0.256,0.192-0.384,0.469-0.384,0.832   c-0.064,2.047-0.32,3.616-0.769,4.704C20.695,19.326,20.663,19.442,20.663,19.506z M6.583,21.683c0.256,0,0.565-0.128,0.928-0.384   c0.896-0.619,1.792-1.12,2.688-1.504c0.191-0.086,0.314-0.171,0.368-0.256c0.053-0.086,0.085-0.305,0.096-0.656   s0.063-0.693,0.16-1.024c0.096-0.331,0.144-0.565,0.144-0.704s-0.085-0.208-0.256-0.208c-0.363,0-0.747,0.149-1.152,0.448   c-0.981,0.747-1.712,1.275-2.191,1.584c-0.48,0.31-0.827,0.672-1.04,1.088c-0.214,0.416-0.32,0.827-0.32,1.232   C6.007,21.555,6.199,21.683,6.583,21.683z M14.423,15.411c0.234,0,0.438-0.256,0.608-0.768c0.17-0.512,0.256-0.816,0.256-0.912   s-0.096-0.144-0.288-0.144c-0.683,0-1.232,0.032-1.648,0.096s-0.709,0.166-0.88,0.304c-0.171,0.139-0.416,0.374-0.735,0.704   c-0.32,0.331-0.48,0.523-0.48,0.576s0.064,0.08,0.192,0.08s0.33-0.037,0.607-0.112c0.277-0.074,0.581-0.112,0.912-0.112   s0.629,0.048,0.896,0.144C14.13,15.362,14.316,15.411,14.423,15.411z M13.175,23.379c0.213,0,0.715-0.16,1.504-0.48   s1.504-0.826,2.145-1.52c0.64-0.693,0.96-1.146,0.96-1.36c0-0.213-0.235-0.565-0.704-1.056c-0.47-0.49-0.812-0.769-1.024-0.832   c-0.213-0.064-0.352-0.182-0.416-0.353c-0.063-0.171-0.096-0.549-0.096-1.136c0-0.586-0.048-0.88-0.144-0.88   c-0.097,0-0.192,0.032-0.288,0.096c-0.097,0.063-0.246,0.123-0.448,0.177c-0.203,0.053-0.331,0.102-0.384,0.144   c-0.054,0.043-0.262,0.267-0.624,0.672c-0.363,0.405-0.614,0.715-0.752,0.928c-0.14,0.214-0.24,0.39-0.305,0.528   c-0.063,0.139-0.096,0.251-0.096,0.336c0,0.086,0.043,0.149,0.128,0.191c0.085,0.043,0.181,0.06,0.288,0.049   c0.106-0.011,0.192-0.016,0.256-0.016c0.427,0,0.641,0.181,0.641,0.543c0,0.214-0.134,0.454-0.4,0.721s-0.4,0.581-0.4,0.943   c0,0.576-0.011,1.004-0.031,1.28l-0.032,0.735C12.951,23.283,13.025,23.379,13.175,23.379z M19.319,16.146   c0-0.256-0.043-0.672-0.128-1.248c-0.086-0.576-0.288-0.96-0.608-1.152s-0.565-0.288-0.736-0.288s-0.319,0.096-0.447,0.288   c-0.172,0.299-0.336,0.528-0.496,0.688s-0.24,0.411-0.24,0.752s0.234,0.715,0.704,1.12c0.469,0.405,0.815,0.73,1.04,0.977   c0.224,0.244,0.395,0.367,0.512,0.367s0.213-0.181,0.288-0.544C19.281,16.744,19.319,16.424,19.319,16.146z" stroke-width="1"/>
</g>
</svg>