<svg xmlns="http://www.w3.org/2000/svg" xmlns:xlink="http://www.w3.org/1999/xlink" version="1.1" id="图层_1" x="0px" y="0px" width="27.144001007080078" height="24.423004150390625" viewBox="0.4199995994567871 1.5829987525939941 27.144001007080078 24.423004150390625" enable-background="new 0 0 30 30" xml:space="preserve">
<g>
	<path fill="#0000FF" d="M21.912,9.763c-0.021,0.384,0.117,0.544,0.416,0.48c0.64-0.106,1.429-0.192,2.368-0.256   c0.938-0.064,1.524-0.096,1.76-0.096c0.234,0,0.395,0.053,0.479,0.16c0.086,0.107,0.129,0.288,0.129,0.544   c0,0.768-0.107,1.237-0.32,1.408c-0.214,0.171-1.493,0.683-3.84,1.536c-0.939,0.341-1.473,0.544-1.601,0.608   s-0.191,0.374-0.191,0.928s0.059,0.928,0.176,1.12c0.117,0.191,0.378,0.287,0.784,0.287c1.236,0,2.373,0.188,3.408,0.561   c1.034,0.373,1.552,0.742,1.552,1.104c0,0.214-0.188,0.545-0.561,0.992c-0.373,0.448-0.672,1.029-0.896,1.744   c-0.225,0.715-0.348,1.445-0.368,2.192c-0.021,0.747-0.096,1.216-0.224,1.408c-0.128,0.191-0.288,0.304-0.48,0.336   c-0.192,0.031-0.592,0.048-1.2,0.048c-0.607,0-1.547,0.106-2.815,0.319c-1.27,0.214-1.984,0.32-2.145,0.32s-0.347-0.085-0.56-0.256   c-0.214-0.171-0.619-0.741-1.216-1.712c-0.598-0.971-0.992-1.834-1.185-2.592c-0.191-0.758-0.288-1.477-0.288-2.16   c0-0.234,0.037-0.416,0.112-0.544c0.074-0.128,0.261-0.235,0.56-0.32c1.536-0.532,2.475-0.948,2.816-1.248   c0.341-0.298,0.512-0.896,0.512-1.792c0-0.32-0.08-0.517-0.239-0.592c-0.16-0.075-0.528-0.112-1.104-0.112s-1.12,0.085-1.632,0.256   c-0.064,0.021-0.16,0.032-0.288,0.032s-0.24-0.133-0.336-0.4c-0.096-0.267-0.251-0.576-0.464-0.928   c-0.214-0.352-0.374-0.528-0.48-0.528c-0.213,0-0.347,0.411-0.399,1.232c-0.054,0.822-0.225,1.552-0.513,2.192   c-0.288,0.64-0.752,1.397-1.392,2.271c-0.064,0.107-0.096,0.23-0.096,0.368c0,0.14,0.063,0.257,0.191,0.353s0.555,0.271,1.28,0.527   c0.32,0.107,0.57,0.363,0.752,0.769c0.181,0.405,0.272,0.896,0.272,1.472s-0.118,1.029-0.353,1.36   c-0.235,0.331-0.479,0.496-0.736,0.496c-0.256,0-0.459-0.085-0.607-0.257c-1.28-1.621-2.091-2.432-2.433-2.432   c-0.213,0-0.49,0.197-0.831,0.592c-0.342,0.396-0.608,0.801-0.801,1.217c-0.191,0.415-0.715,0.623-1.568,0.623   c-0.64,0-1.371-0.144-2.192-0.432s-1.232-0.512-1.232-0.672s0.224-0.271,0.672-0.336c1.323-0.191,2.357-0.522,3.104-0.992   c0.747-0.469,1.12-0.854,1.12-1.152c0-0.105-0.059-0.207-0.176-0.304c-0.118-0.096-0.427-0.276-0.928-0.544   c-0.501-0.267-0.901-0.41-1.2-0.432S6.04,18.43,6.04,18.291s0.08-0.389,0.24-0.752c0.16-0.363,0.4-0.736,0.72-1.12   c0.448-0.532,0.672-0.901,0.672-1.104s-0.107-0.304-0.32-0.304c-0.213,0-0.859,0.08-1.936,0.24c-1.078,0.16-1.824,0.304-2.24,0.433   c-0.416,0.127-0.709,0.191-0.88,0.191c-0.384,0-0.613-0.145-0.688-0.432c-0.075-0.288-0.208-0.613-0.4-0.976   c-0.192-0.362-0.288-0.624-0.288-0.784c0-0.16,0.17-0.261,0.512-0.304c0.618-0.021,1.274-0.101,1.968-0.24   C4.093,13,4.723,12.931,5.288,12.931c0.565,0,1.141-0.064,1.728-0.192c0.586-0.128,1.029-0.218,1.328-0.272   c0.299-0.053,0.496-0.16,0.592-0.32c0.097-0.16,0.229-0.629,0.4-1.408C9.507,9.96,9.672,8.995,9.832,7.843   c0.16-1.152,0.336-2.165,0.528-3.04c0.191-0.875,0.336-1.429,0.432-1.664s0.24-0.384,0.432-0.448   c0.192-0.064,0.416-0.096,0.673-0.096c0.256,0,0.645,0.128,1.168,0.384c0.522,0.256,0.783,0.555,0.783,0.896   c0,0.128-0.043,0.224-0.128,0.288c-0.447,0.32-0.986,1.467-1.616,3.44c-0.629,1.974-0.943,3.27-0.943,3.888   c0,0.192,0.053,0.32,0.16,0.384c0.106,0.064,0.356,0.096,0.752,0.096c0.395,0,0.677-0.042,0.848-0.128   c0.171-0.085,0.288-0.266,0.353-0.544c0.17-0.704,0.282-1.178,0.336-1.424c0.053-0.245,0.196-0.368,0.432-0.368   c0.234,0,0.528,0.08,0.88,0.24c0.353,0.16,0.528,0.336,0.528,0.528s-0.043,0.331-0.128,0.416c-0.086,0.085-0.128,0.171-0.128,0.256   c0,0.235,0.116,0.352,0.352,0.352c0.234,0,0.821-0.064,1.76-0.192s1.504-0.218,1.696-0.272c0.192-0.053,0.32-0.123,0.384-0.208   c0.064-0.085,0.106-0.224,0.128-0.416c0.234-3.925,0.411-6.16,0.528-6.704s0.213-0.917,0.288-1.12   c0.074-0.203,0.213-0.304,0.416-0.304c0.202,0,0.64,0.123,1.312,0.368s1.009,0.507,1.009,0.784c0,0.149-0.097,0.315-0.288,0.496   c-0.192,0.182-0.342,0.523-0.448,1.024c-0.107,0.501-0.214,1.616-0.32,3.344L21.912,9.763z M10.424,17.667   c0.106,0,0.208-0.059,0.304-0.176c0.097-0.117,0.331-0.544,0.704-1.28c0.373-0.736,0.561-1.168,0.561-1.296   c0-0.234-0.166-0.352-0.496-0.352c-0.331,0-0.592,0.069-0.784,0.208c-0.192,0.139-0.411,0.443-0.656,0.913   c-0.245,0.469-0.367,0.837-0.367,1.104c0,0.268,0.085,0.48,0.256,0.64C10.114,17.587,10.274,17.667,10.424,17.667z M19.512,22.402   c0.341,0,0.795-0.101,1.36-0.303c0.564-0.203,0.971-0.513,1.216-0.929s0.368-0.848,0.368-1.296c0-0.832-0.405-1.248-1.216-1.248   c-0.641,0-1.28,0.213-1.92,0.641c-0.641,0.426-0.96,0.971-0.96,1.631c0,0.385,0.096,0.731,0.288,1.041   C18.84,22.248,19.128,22.402,19.512,22.402z" stroke-width="1"/>
</g>
</svg>