<svg xmlns="http://www.w3.org/2000/svg" xmlns:xlink="http://www.w3.org/1999/xlink" version="1.1" id="图层_1" x="0px" y="0px" width="26.53900146484375" height="26.889001846313477" viewBox="1.8250012397766113 0.9569993019104004 26.53900146484375 26.889001846313477" enable-background="new 0 0 30 30" xml:space="preserve">
<g>
	<path fill="#0000FF" d="M25.975,17.938c0.192,0,0.475,0.379,0.849,1.136c0.373,0.758,0.581,1.574,0.624,2.448   c0.042,0.875,0.122,1.644,0.239,2.304c0.117,0.661,0.177,1.221,0.177,1.68s-0.054,0.752-0.16,0.881   c-0.107,0.128-1.36,0.32-3.76,0.576c-2.4,0.256-3.99,0.383-4.769,0.383c-0.779,0-1.312-0.059-1.6-0.176s-0.752-0.442-1.393-0.976   c-0.64-0.533-1.157-1.163-1.552-1.888s-0.635-1.557-0.72-2.496c-0.021-0.277-0.16-0.404-0.416-0.384   c-0.256,0.021-0.55,0.032-0.88,0.032c-0.331,0-0.736-0.08-1.216-0.24c-0.48-0.16-0.721-0.309-0.721-0.448   c0-0.139,0.139-0.261,0.416-0.368c0.938-0.32,1.638-0.586,2.097-0.8c0.458-0.213,0.72-0.373,0.783-0.479   c0.064-0.107,0.171-0.561,0.32-1.36s0.224-1.403,0.224-1.808c0-0.406-0.085-0.693-0.256-0.865c-0.171-0.17-0.31-0.256-0.416-0.256   s-0.31,0.187-0.607,0.56c-0.299,0.373-1.057,1.243-2.272,2.607c-1.216,1.366-1.749,2.486-1.6,3.36   c0.042,0.278,0.063,0.513,0.063,0.704s-0.096,0.363-0.288,0.512c-0.191,0.15-0.581,0.518-1.168,1.104s-1.338,1.066-2.256,1.44   c-0.917,0.373-1.712,0.56-2.384,0.56s-1.008-0.085-1.008-0.256s0.192-0.396,0.576-0.673c1.92-1.428,3.403-2.789,4.448-4.08   c1.045-1.29,1.92-2.655,2.624-4.096c0.704-1.439,1.057-2.309,1.057-2.607c0-0.149-0.107-0.224-0.32-0.224   c-0.214,0-0.613,0.096-1.2,0.288c-0.587,0.192-1.008,0.357-1.264,0.496s-0.453,0.208-0.592,0.208c-0.14,0-0.256-0.101-0.353-0.304   c-0.096-0.203-0.213-0.619-0.352-1.248c-0.139-0.629-0.208-1.077-0.208-1.344c0-0.266,0.181-0.4,0.544-0.4   c0.362,0,0.992-0.123,1.888-0.368c0.896-0.245,1.601-0.458,2.112-0.64c0.512-0.181,0.794-0.314,0.848-0.4   c0.054-0.085,0.187-0.613,0.4-1.584c0.213-0.971,0.362-1.92,0.448-2.848c0.085-0.928,0.128-1.787,0.128-2.576   c0-0.789,0.037-1.248,0.111-1.376c0.075-0.128,0.208-0.192,0.4-0.192c0.789,0,1.333,0.032,1.632,0.096s0.448,0.192,0.448,0.384   s-0.054,0.438-0.16,0.736c-0.107,0.299-0.16,0.944-0.16,1.936c0,0.992-0.059,1.766-0.176,2.32s-0.176,1.035-0.176,1.44   s0.016,0.672,0.048,0.8s0.112,0.192,0.24,0.192l2.752-0.544c0.917-0.192,1.524-0.352,1.823-0.48s0.539-0.192,0.721-0.192   c0.181,0,0.41,0.32,0.688,0.96s0.416,1.115,0.416,1.424s-0.069,0.496-0.208,0.56s-0.368,0.096-0.688,0.096   c-1.601,0-3.168,0.374-4.704,1.12c-0.277,0.128-0.533,0.235-0.769,0.32c-0.234,0.085-0.432,0.251-0.592,0.496   c-0.16,0.246-0.24,0.421-0.24,0.528c0,0.107,0.064,0.203,0.192,0.288c0.128,0.085,0.32,0.128,0.576,0.128l0.96-0.064   c0.277,0,0.416,0.16,0.416,0.48c0,0.171-0.048,0.395-0.145,0.672c-0.096,0.278-0.208,0.764-0.336,1.456   c-0.128,0.694-0.191,1.104-0.191,1.231c0,0.129,0.032,0.193,0.096,0.193c0.149,0,0.565-0.277,1.248-0.832s1.259-1.152,1.729-1.792   c0.191-0.277,0.372-0.416,0.544-0.416c0.17,0,0.495,0.219,0.976,0.656c0.48,0.438,0.72,0.784,0.72,1.04s-0.144,0.427-0.432,0.513   c-0.288,0.085-0.507,0.176-0.656,0.271s-0.47,0.347-0.96,0.752c-0.491,0.405-1.43,1.045-2.815,1.92   c-0.32,0.191-0.534,0.379-0.641,0.561s-0.16,0.463-0.16,0.848c0,2.262,1.131,3.392,3.393,3.392c0.704,0,1.578-0.079,2.624-0.239   c1.045-0.16,1.786-0.336,2.224-0.528s0.763-0.437,0.977-0.736c0.213-0.298,0.389-0.763,0.527-1.392s0.251-1.797,0.336-3.504   C25.74,18.142,25.825,17.938,25.975,17.938z M22.103,6.194c0,0.406-0.267,0.608-0.8,0.608c-0.191,0-0.379-0.032-0.56-0.096   c-0.182-0.064-0.357-0.117-0.528-0.16c-0.171-0.042-0.533-0.064-1.088-0.064c-0.747,0-1.12-0.576-1.12-1.728   c0-1.152,0.267-1.728,0.8-1.728c0.213,0,0.39,0.08,0.528,0.24s0.496,0.512,1.072,1.056c0.576,0.544,1.002,0.939,1.279,1.184   C21.964,5.752,22.103,5.981,22.103,6.194z" stroke-width="1"/>
</g>
</svg>