<svg xmlns="http://www.w3.org/2000/svg" xmlns:xlink="http://www.w3.org/1999/xlink" version="1.1" id="图层_1" x="0px" y="0px" width="27.910999298095703" height="30.76099967956543" viewBox="1.9869999885559082 -0.8979998230934143 27.910999298095703 30.76099967956543" enable-background="new 0 0 30 30" xml:space="preserve">
<g>
	<path fill="#0000FF" d="M15.831,16.242c0,0.064,0.021,0.139,0.063,0.225c0.214,0.405,0.693,0.971,1.44,1.695   c1.301,1.28,2.197,2.102,2.688,2.465c0.49,0.363,1.279,0.773,2.367,1.231c1.088,0.459,2.177,0.815,3.265,1.072   c0.98,0.256,1.851,0.539,2.607,0.848c0.757,0.31,1.137,0.565,1.137,0.769c0,0.202-0.465,0.352-1.393,0.447   s-1.931,0.145-3.008,0.145s-2.043-0.032-2.896-0.096c-0.854-0.064-1.397-0.118-1.632-0.16c-0.234-0.043-0.442-0.15-0.624-0.32   c-0.182-0.171-0.282-0.352-0.304-0.544c-0.107-0.448-0.47-1.108-1.088-1.983c-0.619-0.875-1.28-1.59-1.984-2.145   s-1.109-0.832-1.216-0.832s-0.171,0.096-0.191,0.288c-0.022,0.192-0.032,1.28-0.032,3.264c0,1.984,0.096,3.841,0.288,5.567   c0.021,0.193,0.031,0.354,0.031,0.48c0,0.469-0.139,0.705-0.416,0.705s-0.795-0.166-1.552-0.496   c-0.757-0.332-1.504-0.752-2.24-1.266c-0.735-0.512-1.307-0.943-1.712-1.295s-0.607-0.571-0.607-0.656   c0-0.086,0.085-0.128,0.256-0.128l0.768,0.032c0.32,0.021,0.929,0.031,1.824,0.031c0.49,0,0.821-0.176,0.992-0.527   c0.17-0.352,0.256-0.96,0.256-1.824c0-0.863-0.011-1.717-0.032-2.561c-0.021-0.842-0.054-1.316-0.096-1.424   c-0.043-0.105-0.107-0.16-0.192-0.16s-0.245,0.107-0.479,0.32c-1.174,1.067-2.656,2.283-4.448,3.648   c-0.555,0.405-0.939,0.795-1.152,1.168c-0.213,0.373-0.406,0.603-0.576,0.688C5.772,25,5.399,25.043,4.823,25.043   c-0.576,0-1.109-0.123-1.6-0.369c-0.491-0.244-0.736-0.453-0.736-0.623c0-0.171,0.203-0.288,0.608-0.352   c0.938-0.15,2.048-0.641,3.328-1.473c1.28-0.832,2.453-1.818,3.521-2.96c1.066-1.142,1.6-1.915,1.6-2.32   c0-0.192-0.117-0.288-0.352-0.288c-0.235,0-0.886,0.176-1.952,0.528c-1.067,0.353-1.787,0.63-2.16,0.832   c-0.374,0.203-0.614,0.304-0.72,0.304c-0.277,0-0.597-0.282-0.96-0.848c-0.363-0.564-0.544-0.934-0.544-1.104   c0-0.171,0.042-0.293,0.128-0.369c0.085-0.074,0.352-0.111,0.8-0.111c0.448,0,1.066-0.064,1.855-0.191   c0.789-0.129,1.718-0.326,2.784-0.593c1.066-0.267,1.686-0.437,1.856-0.512c0.17-0.075,0.276-0.155,0.319-0.24   c0.043-0.085,0.064-0.256,0.064-0.512c0-0.256-0.027-0.426-0.08-0.512c-0.054-0.085-0.176-0.128-0.368-0.128   c-0.191,0-0.629,0.08-1.312,0.24c-0.684,0.16-1.035,0.24-1.057,0.24c-0.299,0-0.629-0.277-0.991-0.832   c-0.363-0.555-0.545-1.072-0.545-1.552s0.235-1.072,0.704-1.776c0.47-0.704,0.773-1.056,0.912-1.056s0.379,0.118,0.721,0.352   c0.341,0.235,0.512,0.501,0.512,0.8s-0.086,0.523-0.256,0.672c-0.448,0.427-0.672,0.699-0.672,0.816   c0,0.118,0.111,0.176,0.336,0.176c0.224,0,0.634-0.085,1.231-0.256c0.597-0.17,0.934-0.336,1.008-0.496   c0.075-0.16,0.123-0.571,0.145-1.232l-0.064-1.056c0-0.533,0.234-0.8,0.704-0.8c0.192,0,0.464,0.054,0.816,0.16   c0.352,0.107,0.592,0.16,0.72,0.16s0.202-0.053,0.224-0.16c0.106-0.597,0.197-0.992,0.272-1.184   c0.074-0.192,0.112-0.357,0.112-0.496c0-0.138-0.182-0.208-0.544-0.208c-0.363,0-0.832,0.075-1.408,0.224   c-0.576,0.149-0.96,0.288-1.152,0.416c-0.191,0.128-0.288,0.267-0.288,0.416c0,0.149,0.021,0.32,0.064,0.512   c0.042,0.192,0.063,0.357,0.063,0.496c0,0.139-0.102,0.262-0.304,0.368c-0.203,0.107-0.4,0.16-0.592,0.16   c-0.384,0-0.662-0.155-0.832-0.464c-0.171-0.309-0.331-0.464-0.48-0.464c-0.277,0-1.142,0.544-2.592,1.632   C7.415,9.203,7.18,9.298,6.967,9.298c-0.213,0-0.555-0.432-1.024-1.296c-0.469-0.864-0.704-1.371-0.704-1.52   c0-0.149,0.192-0.256,0.576-0.32C6.54,6.056,7.281,5.907,8.039,5.714c0.757-0.192,1.188-0.32,1.296-0.384   c0.106-0.064,0.16-0.144,0.16-0.24c0-0.096-0.021-0.208-0.064-0.336C9.239,4.029,9.1,3.288,9.015,2.531S8.887,1.32,8.887,1.17   c0-0.298,0.123-0.448,0.368-0.448s0.72,0.107,1.424,0.32c0.704,0.213,1.157,0.379,1.36,0.496c0.202,0.118,0.304,0.24,0.304,0.368   c0,0.128-0.048,0.299-0.144,0.512c-0.097,0.213-0.145,0.614-0.145,1.2c0,0.587,0.021,0.939,0.064,1.056   c0.042,0.118,0.16,0.155,0.352,0.112c0.981-0.17,1.835-0.267,2.561-0.288c0.725-0.021,1.141-0.069,1.248-0.144   c0.106-0.075,0.239-0.325,0.399-0.752s0.442-1.099,0.849-2.016c0.404-0.917,0.64-1.445,0.704-1.584   c0.063-0.138,0.138-0.24,0.224-0.304c0.085-0.064,0.213-0.096,0.384-0.096s0.496,0.123,0.977,0.368   c0.479,0.245,0.72,0.464,0.72,0.656s-0.117,0.448-0.353,0.768c-0.234,0.32-0.496,0.784-0.783,1.392   c-0.288,0.608-0.433,0.96-0.433,1.056c0,0.096,0.123,0.144,0.368,0.144s0.821-0.128,1.729-0.384   c0.906-0.256,1.647-0.384,2.224-0.384c0.405,0,0.661,0.165,0.768,0.496c0.106,0.331,0.16,0.646,0.16,0.944s-0.054,0.48-0.16,0.544   s-0.539,0.176-1.296,0.336s-1.638,0.304-2.64,0.432c-1.003,0.128-1.627,0.224-1.872,0.288c-0.245,0.064-0.47,0.262-0.672,0.592   c-0.203,0.331-0.699,0.837-1.488,1.52c-0.448,0.384-0.672,0.768-0.672,1.152c0,0.107,0.032,0.16,0.096,0.16   c0.064,0,0.57-0.123,1.521-0.368c0.949-0.245,1.53-0.368,1.744-0.368c0.213,0,0.378,0.043,0.495,0.128   c0.117,0.085,0.235,0.288,0.353,0.608c0.117,0.32,0.176,0.624,0.176,0.912c0,0.288-0.224,0.475-0.672,0.56   c-1.365,0.32-2.325,0.582-2.88,0.784c-0.555,0.203-0.869,0.357-0.944,0.464c-0.075,0.107-0.111,0.368-0.111,0.784   s0.128,0.592,0.384,0.528c1.301-0.298,2.352-0.496,3.151-0.592c0.801-0.096,1.297-0.208,1.488-0.336   c0.192-0.128,0.442-0.192,0.752-0.192s0.549,0.059,0.72,0.176c0.171,0.118,0.395,0.475,0.673,1.072   c0.276,0.598,0.416,0.987,0.416,1.168s-0.075,0.336-0.225,0.464s-0.314,0.191-0.496,0.191s-0.395-0.031-0.64-0.096   s-0.758-0.096-1.536-0.096c-0.779,0-1.59,0.059-2.432,0.176c-0.844,0.117-1.323,0.214-1.44,0.288   C15.89,16.014,15.831,16.115,15.831,16.242z" stroke-width="1"/>
</g>
</svg>