<svg xmlns="http://www.w3.org/2000/svg" xmlns:xlink="http://www.w3.org/1999/xlink" version="1.1" id="图层_1" x="0px" y="0px" width="23.562002182006836" height="28.742996215820312" viewBox="2.1129989624023438 0.7040040493011475 23.562002182006836 28.742996215820312" enable-background="new 0 0 30 30" xml:space="preserve">
<g>
	<path fill="#0000FF" d="M18.487,14.323c0.384-0.107,0.73-0.16,1.04-0.16c0.309,0,0.532,0.197,0.672,0.592   c0.139,0.395,0.208,0.699,0.208,0.912c0,0.214-0.069,0.396-0.208,0.545c-0.14,0.148-0.357,0.213-0.656,0.191l-0.479-0.031   c-0.684,0-1.366,0.111-2.049,0.336c-0.683,0.224-1.099,0.421-1.248,0.592s-0.224,0.422-0.224,0.752s0.037,0.527,0.112,0.592   c0.074,0.064,0.218,0.074,0.432,0.031c0.917-0.191,2.085-0.346,3.504-0.463s2.229-0.229,2.433-0.336   c0.202-0.107,0.399-0.16,0.592-0.16c0.555,0,1.12,0.363,1.695,1.088c0.576,0.725,0.864,1.264,0.864,1.615   c0,0.353-0.059,0.588-0.176,0.705s-0.299,0.176-0.544,0.176s-0.496-0.021-0.752-0.064c-1.622-0.213-3.072-0.32-4.353-0.32   c-1.279,0-2.389,0.027-3.327,0.08c-0.939,0.054-1.473,0.096-1.601,0.129c-0.128,0.031-0.277,0.133-0.448,0.304   s-0.421,0.459-0.752,0.864c-0.331,0.404-0.575,0.783-0.735,1.136c-0.16,0.352-0.305,0.826-0.433,1.424   c-0.128,0.597-0.395,0.981-0.8,1.151l-2.208,1.024c-1.045,0.491-2.144,0.735-3.296,0.735c-0.363,0-0.544-0.074-0.544-0.223   c0-0.299,0.842-0.854,2.528-1.664c1.429-0.705,2.432-1.537,3.008-2.496c0.576-0.961,0.864-1.547,0.864-1.76   c0-0.086-0.075-0.129-0.225-0.129c-0.342,0-1.317,0.192-2.928,0.576c-1.611,0.385-2.715,0.758-3.312,1.12   c-0.448,0.256-0.795,0.384-1.04,0.384c-0.246,0-0.555-0.197-0.928-0.592c-0.374-0.395-0.56-0.666-0.56-0.816   c0-0.404,0.437-0.64,1.312-0.703c0.512-0.043,1.024-0.192,1.536-0.448c0.32-0.149,2.368-0.64,6.145-1.472   c0.319-0.086,0.57-0.166,0.752-0.24c0.181-0.074,0.304-0.262,0.367-0.561c0.064-0.299,0.097-0.517,0.097-0.656   c0-0.139-0.043-0.224-0.128-0.256c-0.086-0.031-0.363-0.048-0.832-0.048c-0.47,0-0.944,0.06-1.424,0.177   c-0.48,0.117-0.875,0.176-1.185,0.176s-0.539-0.129-0.688-0.385c-0.149-0.256-0.225-0.463-0.225-0.623s0.064-0.283,0.192-0.369   c0.128-0.084,0.405-0.191,0.832-0.319s1.108-0.282,2.048-0.464c0.938-0.182,1.456-0.309,1.552-0.385   c0.097-0.074,0.145-0.266,0.145-0.575s-0.021-0.501-0.064-0.576s-0.139-0.112-0.288-0.112l-0.479,0.032l-0.801-0.064   c-0.447,0-0.826,0.054-1.136,0.16c-0.31,0.107-0.57,0.16-0.784,0.16c-0.213,0-0.384-0.123-0.512-0.368s-0.191-0.448-0.191-0.608   c0-0.16,0.074-0.298,0.224-0.416c0.148-0.117,0.736-0.304,1.76-0.56c1.322-0.32,2.032-0.522,2.128-0.608   c0.097-0.085,0.145-0.266,0.145-0.544c0-0.277-0.032-0.453-0.097-0.528c-0.063-0.075-0.213-0.09-0.447-0.048   c-0.235,0.043-0.614,0.091-1.137,0.144s-0.912,0.117-1.168,0.192s-0.447,0.112-0.576,0.112c-0.299,0-0.533-0.208-0.703-0.624   c-0.172-0.416-0.257-0.709-0.257-0.88c0-0.405,0.257-0.64,0.769-0.704s1.242-0.256,2.191-0.576c0.949-0.32,1.488-0.528,1.616-0.624   c0.128-0.096,0.288-0.24,0.48-0.432c1.216-1.323,2.282-2.416,3.2-3.28c0.917-0.864,1.792-1.797,2.624-2.8   c0.148-0.17,0.33-0.256,0.544-0.256c0.213,0,0.432,0.043,0.655,0.128c0.225,0.085,0.357,0.166,0.4,0.24   c0.042,0.075,0.063,0.176,0.063,0.304c0,0.363-0.181,0.678-0.544,0.944c-0.362,0.267-1.099,0.981-2.208,2.144   c-1.109,1.163-1.663,1.819-1.663,1.968c0,0.064,0.085,0.085,0.256,0.064c0.64-0.085,1.216-0.128,1.728-0.128   c0.704,0,1.056,0.277,1.056,0.832c0,0.213-0.091,0.438-0.271,0.672c-0.182,0.235-0.64,0.507-1.376,0.816   c-0.736,0.31-1.259,0.512-1.568,0.608c-0.31,0.096-0.501,0.192-0.576,0.288c-0.074,0.096-0.111,0.31-0.111,0.64   c0,0.331,0.053,0.496,0.16,0.496c0.106,0,0.49-0.107,1.151-0.32c0.661-0.213,1.109-0.32,1.345-0.32c0.49,0,0.735,0.31,0.735,0.928   c0,0.171-0.059,0.326-0.176,0.464s-0.512,0.374-1.184,0.704c-0.673,0.331-1.222,0.571-1.648,0.72   c-0.192,0.064-0.32,0.176-0.384,0.336c-0.064,0.16-0.097,0.395-0.097,0.704c0,0.31,0.097,0.464,0.288,0.464   c0.021,0,0.075-0.01,0.16-0.032L18.487,14.323z M14.103,3.794c0,0.299-0.527,0.923-1.584,1.872c-1.056,0.95-1.84,1.424-2.352,1.424   c-0.214,0-0.453-0.133-0.72-0.4C9.18,6.424,8.865,6.13,8.503,5.811c-0.107-0.085-0.16-0.203-0.16-0.352   c0-0.298,0.182-0.49,0.544-0.576c1.194-0.298,2.256-0.586,3.185-0.864c0.928-0.277,1.498-0.416,1.712-0.416   C13.996,3.603,14.103,3.667,14.103,3.794z M16.823,22.643c0.148,0,0.88,0.219,2.191,0.656c1.313,0.438,2.385,0.82,3.217,1.152   c0.832,0.33,1.301,0.554,1.407,0.672c0.106,0.117,0.16,0.441,0.16,0.976c0,0.532-0.08,1.142-0.24,1.823   c-0.159,0.684-0.395,1.025-0.703,1.025c-0.31,0-0.656-0.203-1.04-0.609c-1.856-1.963-3.126-3.199-3.809-3.711   c-0.277-0.192-0.603-0.518-0.976-0.977c-0.374-0.459-0.561-0.74-0.561-0.848S16.588,22.643,16.823,22.643z" stroke-width="1"/>
</g>
</svg>